<svg width="12" height="12" viewBox="0 0 12 12" xmlns="http://www.w3.org/2000/svg">
<path d="M5.9999 3C6.55219 3 6.9999 2.55228 6.9999 2C6.9999 1.44772 6.55219 1 5.9999 1C5.44762 1 4.9999 1.44772 4.9999 2C4.9999 2.55228 5.44762 3 5.9999 3Z" />
<path d="M9.5024 4.04973L6.9999 4.29998V6.39999L8.75709 9.56293C8.8912 9.80433 8.80423 10.1087 8.56284 10.2428C8.32144 10.3769 8.01704 10.29 7.88294 10.0486L6.46706 7.5H5.53275L4.11687 10.0486C3.98276 10.29 3.67836 10.3769 3.43697 10.2428C3.19558 10.1087 3.10861 9.80433 3.24271 9.56293L4.9999 6.39999V4.29998L2.4974 4.04973C2.22263 4.02226 2.02216 3.77723 2.04964 3.50246C2.07712 3.22769 2.32214 3.02722 2.59691 3.0547L5.9999 3.395L9.4029 3.0547C9.67767 3.02722 9.92269 3.22769 9.95017 3.50246C9.97764 3.77723 9.77717 4.02226 9.5024 4.04973Z" />
</svg>
