<svg width="24" height="24" viewBox="0 0 24 24" xmlns="http://www.w3.org/2000/svg">
<path fill-rule="evenodd" clip-rule="evenodd" d="M20.7071 4.70711C21.0976 4.31658 21.0976 3.68342 20.7071 3.29289C20.3166 2.90237 19.6834 2.90237 19.2929 3.29289L18.2929 4.29289C18.2552 4.33062 18.2211 4.37061 18.1907 4.41242L18.0043 4.2261C16.4422 2.66401 13.9096 2.66401 12.3475 4.2261L10.9333 5.64032C10.5427 6.03084 10.5427 6.66401 10.9333 7.05453L16.6232 12.7445C17.0138 13.135 17.6469 13.135 18.0374 12.7445L19.4517 11.3303C20.9684 9.81358 21.0124 7.38191 19.5839 5.81203C19.627 5.78091 19.6683 5.74594 19.7071 5.70711L20.7071 4.70711ZM4 18C3.44772 18 3 18.4477 3 19C3 19.5523 3.44772 20 4 20H5V21C5 21.5523 5.44772 22 6 22C6.55228 22 7 21.5523 7 21V20H13V21C13 21.5523 13.4477 22 14 22C14.5523 22 15 21.5523 15 21V20H16C16.5523 20 17 19.5523 17 19C17 18.4477 16.5523 18 16 18H14H6H4ZM18.0374 7.08764L16.5901 5.64032C15.8091 4.85927 14.5427 4.85927 13.7617 5.64032L13.0546 6.34742L17.3303 10.6232L18.0374 9.91607C18.8185 9.13502 18.8185 7.86869 18.0374 7.08764ZM9.53552 9.8995L10.2426 9.1924C10.6332 8.80187 10.6332 8.16871 10.2426 7.77818C9.85211 7.38766 9.21894 7.38766 8.82842 7.77818L8.12131 8.48529C7.73078 8.87581 7.73078 9.50898 8.12131 9.8995C8.51183 10.29 9.145 10.29 9.53552 9.8995ZM13.0711 12.0208L12.364 12.7279C11.9735 13.1185 11.3403 13.1185 10.9498 12.7279C10.5593 12.3374 10.5593 11.7042 10.9498 11.3137L11.6569 10.6066C12.0474 10.2161 12.6806 10.2161 13.0711 10.6066C13.4616 10.9971 13.4616 11.6303 13.0711 12.0208ZM15.1924 15.5564L15.8995 14.8493C16.29 14.4587 16.29 13.8256 15.8995 13.435C15.509 13.0445 14.8758 13.0445 14.4853 13.435L13.7782 14.1422C13.3876 14.5327 13.3876 15.1658 13.7782 15.5564C14.1687 15.9469 14.8019 15.9469 15.1924 15.5564ZM7.41426 12.0208L6.70715 12.7279C6.31663 13.1185 5.68346 13.1185 5.29294 12.7279C4.90242 12.3374 4.90242 11.7042 5.29294 11.3137L6.00005 10.6066C6.39057 10.2161 7.02374 10.2161 7.41426 10.6066C7.80478 10.9971 7.80478 11.6303 7.41426 12.0208ZM9.53552 15.5564L10.2426 14.8493C10.6332 14.4587 10.6332 13.8256 10.2426 13.435C9.85211 13.0445 9.21894 13.0445 8.82842 13.435L8.12131 14.1422C7.73078 14.5327 7.73078 15.1658 8.12131 15.5564C8.51183 15.9469 9.145 15.9469 9.53552 15.5564Z" />
</svg>
