<svg width="24" height="24" viewBox="0 0 24 24" fill="none" xmlns="http://www.w3.org/2000/svg">
<path fill-rule="evenodd" clip-rule="evenodd" d="M4 4C2.89543 4 2 4.89543 2 6V14C2 17.3137 4.68629 20 8 20H12C14.5858 20 16.7132 18.0371 16.9733 15.52C17.5957 15.0652 18 14.3298 18 13.5C18 12.1193 16.8807 11 15.5 11H8.5V6C8.5 4.89543 7.60457 4 6.5 4H4ZM8 18C6.51944 18 5.22675 17.1956 4.53513 16H7.5H8H14.8293C14.4175 17.1652 13.3062 18 12 18H8ZM6.5 11.208V6L4 6V14H5.05001C5.01722 13.8384 5 13.6712 5 13.5C5 12.4748 5.61705 11.5938 6.5 11.208ZM7.5 14H8H15.5C15.7761 14 16 13.7761 16 13.5C16 13.2239 15.7761 13 15.5 13H7.5C7.22386 13 7 13.2239 7 13.5C7 13.7761 7.22386 14 7.5 14ZM13.3944 6.55279C13.1474 6.05881 12.5467 5.85859 12.0528 6.10558C11.5588 6.35257 11.3586 6.95324 11.6055 7.44722L11.8292 7.89443C12.1679 8.572 12.8605 9.00001 13.618 9.00001H19.8819C20.6395 9.00001 21.332 8.572 21.6708 7.89443L21.8944 7.44722C22.1414 6.95324 21.9412 6.35257 21.4472 6.10558C20.9532 5.85859 20.3525 6.05881 20.1055 6.55279L19.8819 7.00001H13.618L13.3944 6.55279Z" fill="#1D1D1F"/>
</svg>
