<svg width="12" height="12" viewBox="0 0 12 12"  xmlns="http://www.w3.org/2000/svg">
<path d="M6.5 2C6.5 2.55228 6.05228 3 5.5 3C4.94772 3 4.5 2.55228 4.5 2C4.5 1.44772 4.94772 1 5.5 1C6.05228 1 6.5 1.44772 6.5 2Z" />
<path d="M4.5 4.52276C4.5 3.97924 4.93412 3.53524 5.4775 3.52301C5.70957 3.51779 5.92462 3.59196 6.09702 3.72046C6.19235 3.76671 6.27376 3.84348 6.32502 3.9453L6.32773 3.95043C6.33096 3.95644 6.33693 3.96733 6.34571 3.98242C6.36331 4.01265 6.39201 4.05943 6.43238 4.1175C6.51346 4.23416 6.63937 4.39321 6.81402 4.55493C7.1605 4.87575 7.69465 5.20478 8.4668 5.24437C8.74259 5.25851 8.95469 5.49354 8.94054 5.76932C8.9264 6.0451 8.69138 6.2572 8.4156 6.24306C7.59815 6.20114 6.9657 5.91733 6.5 5.58596V7.5L7.70709 7.5C7.8397 7.5 7.96688 7.55268 8.06065 7.64645L9.85354 9.43934C10.0488 9.6346 10.0488 9.95118 9.85354 10.1464C9.65828 10.3417 9.34169 10.3417 9.14643 10.1464L7.5 8.50001H5.5C4.95 8.50001 4.5 8.05001 4.5 7.50001V4.52276Z" />
<path d="M4.5 10C5.155 10 5.71 9.58001 5.915 9.00001H6.95C6.72 10.14 5.71 11 4.5 11C3.12 11 2 9.88001 2 8.50001C2 7.29001 2.86 6.28001 4 6.05001V7.08501C3.42 7.29501 3 7.84501 3 8.50001C3 9.33001 3.67 10 4.5 10Z" />
</svg>
