<svg width="12" height="12" viewBox="0 0 12 12"  xmlns="http://www.w3.org/2000/svg">
<path d="M9.00012 6.50002C9.27626 6.50002 9.50012 6.27616 9.50012 6.00002C9.50012 5.72388 9.27626 5.50002 9.00012 5.50002L6.50012 5.50002L6.50022 3.00002C6.50024 2.72388 6.27639 2.50001 6.00024 2.5C5.7241 2.49999 5.50024 2.72384 5.50022 2.99998L5.50012 5.50002H2.92896C2.65281 5.50002 2.42896 5.72388 2.42896 6.00002C2.42896 6.27616 2.65281 6.50002 2.92896 6.50002H5.50008L5.49998 9C5.49997 9.27614 5.72382 9.50001 5.99996 9.50002C6.2761 9.50003 6.49997 9.27618 6.49998 9.00004L6.50008 6.50002H9.00012Z" />
</svg>
