<svg width="12" height="12" viewBox="0 0 12 12"  xmlns="http://www.w3.org/2000/svg">
<path fill-rule="evenodd" clip-rule="evenodd" d="M4.5 1.5C4.5 1.22386 4.27614 1 4 1C3.72386 1 3.5 1.22386 3.5 1.5V2H2.5C1.94772 2 1.5 2.44772 1.5 3V9.5C1.5 10.0523 1.94772 10.5 2.5 10.5H6V9.5H2.5V6H10.5V3C10.5 2.44772 10.0523 2 9.5 2H8.5V1.5C8.5 1.22386 8.27614 1 8 1C7.72386 1 7.5 1.22386 7.5 1.5V2H4.5V1.5ZM3.5 3V3.5C3.5 3.77614 3.72386 4 4 4C4.27614 4 4.5 3.77614 4.5 3.5V3H7.5V3.5C7.5 3.77614 7.72386 4 8 4C8.27614 4 8.5 3.77614 8.5 3.5V3H9.5V5H2.5V3H3.5Z" />
<path d="M9.5 7.5C9.5 7.22386 9.27614 7 9 7C8.72386 7 8.5 7.22386 8.5 7.5V8.5H7.5C7.22386 8.5 7 8.72386 7 9C7 9.27614 7.22386 9.5 7.5 9.5H8.5V10.5C8.5 10.7761 8.72386 11 9 11C9.27614 11 9.5 10.7761 9.5 10.5V9.5H10.5C10.7761 9.5 11 9.27614 11 9C11 8.72386 10.7761 8.5 10.5 8.5H9.5V7.5Z" />
</svg>
