<svg width="24" height="24" viewBox="0 0 24 24"  xmlns="http://www.w3.org/2000/svg">
<path fill-rule="evenodd" clip-rule="evenodd" d="M4 5V11C4 11.5523 4.44772 12 5 12H6V9C6 8.44772 6.44772 8 7 8H17C17.5523 8 18 8.44772 18 9V12H19C19.5523 12 20 11.5523 20 11V5H4ZM16 12H8V10H16V12ZM5 14H7H17H19C20.6569 14 22 12.6569 22 11V4C22 3.44772 21.5523 3 21 3H3C2.44772 3 2 3.44771 2 4V11C2 12.6569 3.34315 14 5 14ZM9 16C9 15.4477 8.55228 15 8 15C7.44772 15 7 15.4477 7 16V20C7 20.5523 7.44772 21 8 21C8.55228 21 9 20.5523 9 20V16ZM12 15C12.5523 15 13 15.4477 13 16V20C13 20.5523 12.5523 21 12 21C11.4477 21 11 20.5523 11 20V16C11 15.4477 11.4477 15 12 15ZM17 16C17 15.4477 16.5523 15 16 15C15.4477 15 15 15.4477 15 16V20C15 20.5523 15.4477 21 16 21C16.5523 21 17 20.5523 17 20V16Z"/>
</svg>
