<svg width="12" height="12" viewBox="0 0 12 12"  xmlns="http://www.w3.org/2000/svg">
<path fill-rule="evenodd" clip-rule="evenodd" d="M5.995 1C3.235 1 1 3.24 1 6C1 8.76 3.235 11 5.995 11C8.76 11 11 8.76 11 6C11 3.24 8.76 1 5.995 1ZM6 6.5C6.27614 6.5 6.5 6.27614 6.5 6V4C6.5 3.72386 6.27614 3.5 6 3.5C5.72386 3.5 5.5 3.72386 5.5 4V6C5.5 6.27614 5.72386 6.5 6 6.5ZM6 7.5C5.72386 7.5 5.5 7.72386 5.5 8C5.5 8.27614 5.72386 8.5 6 8.5C6.27614 8.5 6.5 8.27614 6.5 8C6.5 7.72386 6.27614 7.5 6 7.5ZM2 6C2 8.21 3.79 10 6 10C8.21 10 10 8.21 10 6C10 3.79 8.21 2 6 2C3.79 2 2 3.79 2 6Z" />
</svg>
