<svg width="12" height="12" viewBox="0 0 12 12" xmlns="http://www.w3.org/2000/svg">
<path fill-rule="evenodd" clip-rule="evenodd" d="M0.15618 10.0075C-0.301039 10.9036 0.300392 12 1.24914 12H10.7509C11.6996 12 12.301 10.9036 11.8438 10.0075L7.09296 0.696582C6.61905 -0.232195 5.38095 -0.232194 4.90704 0.696583L0.15618 10.0075ZM6.02368 7.23909C6.36813 7.23909 6.64736 6.9381 6.64736 6.56682V5.22227C6.64736 4.85099 6.36813 4.55 6.02368 4.55C5.67923 4.55 5.4 4.85099 5.4 5.22227V6.56682C5.4 6.9381 5.67923 7.23909 6.02368 7.23909ZM6.02368 8.58363C5.67923 8.58363 5.4 8.88462 5.4 9.2559C5.4 9.62719 5.67923 9.92817 6.02368 9.92817C6.36813 9.92817 6.64736 9.62719 6.64736 9.2559C6.64736 8.88462 6.36813 8.58363 6.02368 8.58363Z" />
</svg>
