<svg width="12" height="12" viewBox="0 0 12 12" fill="none" xmlns="http://www.w3.org/2000/svg">
<path fill-rule="evenodd" d="M2.64645 5.14644C2.45118 5.34171 2.45118 5.65829 2.64645 5.85355C2.84171 6.04881 3.15829 6.04881 3.35355 5.85355L5.5 3.70711V9.5C5.5 9.77614 5.72386 10 6 10C6.27614 10 6.5 9.77614 6.5 9.5V3.7071L8.64645 5.85355C8.84171 6.04881 9.15829 6.04881 9.35355 5.85355C9.54882 5.65829 9.54882 5.34171 9.35355 5.14644L6.35355 2.14644C6.25979 2.05268 6.13261 2 6 2C5.86739 2 5.74022 2.05268 5.64645 2.14644L2.64645 5.14644Z"/>
</svg>
