<svg width="12" height="12" viewBox="0 0 12 12" fill="none" xmlns="http://www.w3.org/2000/svg">
<path d="M9.35355 6.85356C9.54882 6.65829 9.54882 6.34171 9.35355 6.14645C9.15829 5.95119 8.84171 5.95119 8.64645 6.14645L6.5 8.29289L6.5 2.5C6.5 2.22386 6.27614 2 6 2C5.72386 2 5.5 2.22386 5.5 2.5L5.5 8.2929L3.35355 6.14645C3.15829 5.95119 2.84171 5.95119 2.64645 6.14645C2.45118 6.34171 2.45118 6.65829 2.64645 6.85356L5.64645 9.85356C5.74021 9.94732 5.86739 10 6 10C6.13261 10 6.25978 9.94732 6.35355 9.85356L9.35355 6.85356Z" fill="black"/>
</svg>
