<svg width="12" height="12" viewBox="0 0 12 12"  xmlns="http://www.w3.org/2000/svg">
<path d="M6.85356 2.64645C6.65829 2.45118 6.34171 2.45118 6.14645 2.64645C5.95119 2.84171 5.95119 3.15829 6.14645 3.35355L8.29289 5.5L2.5 5.5C2.22386 5.5 2 5.72386 2 6C2 6.27614 2.22386 6.5 2.5 6.5L8.2929 6.5L6.14645 8.64645C5.95119 8.84171 5.95119 9.15829 6.14645 9.35355C6.34171 9.54882 6.65829 9.54882 6.85356 9.35355L9.85356 6.35355C9.94732 6.25979 10 6.13261 10 6C10 5.86739 9.94732 5.74022 9.85356 5.64645L6.85356 2.64645Z" />
</svg>
