<svg width="64" height="64" viewBox="0 0 64 64" fill="none" xmlns="http://www.w3.org/2000/svg">
<path fill-rule="evenodd" clip-rule="evenodd" d="M54.5057 57H59.2601C61.5692 57 63.0124 54.5229 61.8579 52.5411L36.9191 9.73545C35.8323 7.87008 33.2111 7.76054 31.9441 9.40684C32.0231 9.50954 32.0969 9.61908 32.1647 9.73545L57.1035 52.5411C58.2581 54.5229 56.8149 57 54.5057 57Z" fill="#FF809F"/>
<path d="M61.8579 52.5411L62.9281 51.9176L62.9281 51.9176L61.8579 52.5411ZM36.9191 9.73545L37.9893 9.11194L36.9191 9.73545ZM31.9441 9.40684L30.9625 8.65142L30.3811 9.40684L30.9625 10.1623L31.9441 9.40684ZM32.1647 9.73545L31.0945 10.359L31.0945 10.359L32.1647 9.73545ZM57.1035 52.5411L58.1737 51.9176L58.1737 51.9176L57.1035 52.5411ZM59.2601 55.7614H54.5057V58.2386H59.2601V55.7614ZM60.7876 53.1646C61.4513 54.3038 60.6332 55.7614 59.2601 55.7614V58.2386C62.5053 58.2386 64.5736 54.7419 62.9281 51.9176L60.7876 53.1646ZM35.8488 10.359L60.7876 53.1646L62.9281 51.9176L37.9893 9.11194L35.8488 10.359ZM32.9257 10.1623C33.6679 9.19779 35.2148 9.27067 35.8488 10.359L37.9893 9.11194C36.4498 6.4695 32.7542 6.3233 30.9625 8.65142L32.9257 10.1623ZM30.9625 10.1623C31.0091 10.2228 31.0533 10.2882 31.0945 10.359L33.2349 9.11194C33.1405 8.94993 33.0372 8.79632 32.9257 8.65142L30.9625 10.1623ZM31.0945 10.359L56.0333 53.1646L58.1737 51.9176L33.2349 9.11194L31.0945 10.359ZM56.0333 53.1646C56.697 54.3038 55.8788 55.7614 54.5057 55.7614V58.2386C57.7509 58.2386 59.8192 54.7419 58.1737 51.9176L56.0333 53.1646Z" fill="#590931" stroke="none"/>
<path d="M27.5145 9.4939C28.6768 7.50203 31.5825 7.50203 32.7448 9.4939L57.8502 52.5183C59.0124 54.5101 57.5596 57 55.235 57H5.02421C2.69964 57 1.24678 54.5101 2.40907 52.5183L27.5145 9.4939Z" stroke="#590931" stroke-width="2.47722" fill="none"/>
<path d="M25.2615 37.1803C25.2615 39.1347 26.6872 40.9979 28.7686 40.9979C30.85 40.9979 32.2757 39.1347 32.2757 37.1803L32.2757 26.0049C32.2757 24.0506 30.85 22.1873 28.7686 22.1873C26.6872 22.1873 25.2615 24.0506 25.2615 26.0049L25.2615 37.1803Z" fill="#FF809F" stroke="#590931" stroke-width="2.47722" stroke-linecap="round" stroke-linejoin="round"/>
<path d="M28.7686 43.965C27.1039 43.965 25.2615 45.0884 25.2615 47.0184C25.2615 48.9484 27.1039 50.0719 28.7686 50.0719C30.4333 50.0719 32.2757 48.9484 32.2757 47.0184C32.2757 45.0884 30.4333 43.965 28.7686 43.965Z" fill="#FF809F" stroke="#590931" stroke-width="2.47722"/>
</svg>
