<svg width="24" height="24" viewBox="0 0 24 24" fill="none" xmlns="http://www.w3.org/2000/svg">
<path fill-rule="evenodd" clip-rule="evenodd" d="M8 9.10858V14.8916L12 17.3916V6.60858L8 9.10858ZM6 16.0001L12.47 20.0438C13.136 20.4601 14 19.9813 14 19.1958V4.80433C14 4.0189 13.1361 3.54005 12.47 3.95633L6 8.00009L4 8.00008C2.89543 8.00008 2 8.89552 2 10.0001V14.0001C2 15.1047 2.89543 16.0001 4 16.0001H6ZM4 10.0001H6L6 14.0001L4 14.0001L4 10.0001ZM20 5.00009C20 4.4478 19.5523 4.00009 19 4.00009C18.4477 4.00009 18 4.4478 18 5.00009V11.1708C16.8348 11.5826 16 12.6939 16 14.0001C16 15.3063 16.8348 16.4175 18 16.8294V19.0001C18 19.5524 18.4477 20.0001 19 20.0001C19.5523 20.0001 20 19.5524 20 19.0001V16.8294C21.1652 16.4175 22 15.3063 22 14.0001C22 12.6939 21.1652 11.5826 20 11.1708V5.00009ZM19 15.0001C19.5523 15.0001 20 14.5524 20 14.0001C20 13.4478 19.5523 13.0001 19 13.0001C18.4477 13.0001 18 13.4478 18 14.0001C18 14.5524 18.4477 15.0001 19 15.0001Z" fill="#1D1D1F"/>
</svg>
