<svg width="24" height="24" viewBox="0 0 24 24" fill="none" xmlns="http://www.w3.org/2000/svg">
<path fill-rule="evenodd" clip-rule="evenodd" d="M4.00009 5.45417C4.00009 4.45001 4.81412 3.63599 5.81827 3.63599H20.3637C21.3679 3.63599 22.1819 4.45001 22.1819 5.45417V16.3633C22.1819 17.3674 21.3679 18.1814 20.3637 18.1814H13.051C13.0774 17.9428 13.0909 17.7002 13.0909 17.4545C13.0909 17.0827 13.0599 16.7182 13.0004 16.3633H20.3637V7.15283L13.5953 11.6651C13.2899 11.8687 12.8921 11.8687 12.5867 11.6651L5.81827 7.15281V10.949C5.18006 11.0196 4.56951 11.1819 4.00009 11.4225V5.45417ZM13.091 9.81612L6.54808 5.45417L19.6339 5.45417L13.091 9.81612Z" fill="#D8385E"/>
<path d="M7.57304 14.2452C7.30677 13.9789 6.87507 13.9789 6.6088 14.2452C6.34253 14.5114 6.34253 14.9431 6.6088 15.2094L8.71759 17.3182L2.72728 17.3182C2.35072 17.3182 2.04546 17.6234 2.04546 18C2.04546 18.3766 2.35072 18.6818 2.72728 18.6818L8.71759 18.6818L6.6088 20.7906C6.34253 21.0569 6.34253 21.4886 6.6088 21.7549C6.87506 22.0211 7.30677 22.0211 7.57304 21.7549L10.8458 18.4821C10.9736 18.3543 11.0455 18.1808 11.0455 18C11.0455 17.8192 10.9736 17.6458 10.8458 17.5179L7.57304 14.2452Z" fill="#D8385E" stroke="#D8385E" stroke-width="0.272727"/>
</svg>
