<svg width="24" height="24" viewBox="0 0 24 24" xmlns="http://www.w3.org/2000/svg">
<path fill-rule="evenodd" clip-rule="evenodd" d="M19.1171 6.99997H4.88743L11.2669 4.45088C11.7438 4.26033 12.2757 4.26052 12.7525 4.45142L19.1171 6.99997ZM2.62895 5.74866C2.24911 5.90043 2 6.26823 2 6.67727V7.99997C2 8.55226 2.44772 8.99997 3 8.99997H5V17H4C2.89543 17 2 17.8954 2 19V20C2 21.1045 2.89543 22 4 22H20C21.1046 22 22 21.1045 22 20V19C22 17.8954 21.1046 17 20 17H19V8.99997H21C21.5523 8.99997 22 8.55226 22 7.99997V6.67674C22 6.26797 21.7512 5.90035 21.3717 5.7484L13.4959 2.59474C12.5424 2.21294 11.4786 2.21255 10.5248 2.59366L2.62895 5.74866ZM17 8.99997H15V17H17V8.99997ZM13 8.99997V17H11V8.99997H13ZM9 8.99997H7V17H9V8.99997ZM4 20L4 19H20V20H4Z"/>
</svg>
