<svg width="12" height="12" viewBox="0 0 12 12"  xmlns="http://www.w3.org/2000/svg">
<path fill-rule="evenodd" clip-rule="evenodd" d="M6 4.5C6.27614 4.5 6.5 4.72386 6.5 5V10C6.5 10.2761 6.27614 10.5 6 10.5C5.72386 10.5 5.5 10.2761 5.5 10V5C5.5 4.72386 5.72386 4.5 6 4.5Z" />
<path fill-rule="evenodd" clip-rule="evenodd" d="M9 1.5C9.27614 1.5 9.5 1.72386 9.5 2V10C9.5 10.2761 9.27614 10.5 9 10.5C8.72386 10.5 8.5 10.2761 8.5 10V2C8.5 1.72386 8.72386 1.5 9 1.5Z" />
<path fill-rule="evenodd" clip-rule="evenodd" d="M3 7.5C3.27614 7.5 3.5 7.72386 3.5 8V10C3.5 10.2761 3.27614 10.5 3 10.5C2.72386 10.5 2.5 10.2761 2.5 10V8C2.5 7.72386 2.72386 7.5 3 7.5Z" />
</svg>
