<svg width="12" height="12" viewBox="0 0 12 12" fill="none" xmlns="http://www.w3.org/2000/svg" ><path fill-rule="evenodd" clip-rule="evenodd" d="M2.0625 1.875a1.3125 1.3125 0 1 0 2.625 0 1.3125 1.3125 0 1 0 -2.625 0Z" stroke="currentColor" stroke-linecap="round" stroke-linejoin="round" stroke-width="0.75" /> <path fill-rule="evenodd" clip-rule="evenodd" d="M7.1645 6.1875h3.7105a0.75 0.75 0 0 1 0.75 0.75v0.75c0 1.657-2.093 3-3.75 3h-3.75c-1.657 0-3.75-1.343-3.75-3v-0.75a0.75 0.75 0 0 1 0.75-0.75H2.25v-1.5a0.75 0.75 0 0 1 1.2305-0.5765l1.3895 1.158a0.7525 0.7525 0 0 0 0.8955 0.05l1.3185-0.879a0.75 0.75 0 0 1 0.832 1.25L6.6 6.5655a2.264 2.264 0 0 1 -2.6885-0.1435l-0.2835-0.238" stroke="currentColor" stroke-linecap="round" stroke-linejoin="round" stroke-width="0.75" /> <path fill-rule="evenodd" clip-rule="evenodd" d="m1.875 11.4375 0.9805-0.9805" stroke="currentColor" stroke-linecap="round" stroke-linejoin="round" stroke-width="0.75" /> <path fill-rule="evenodd" clip-rule="evenodd" d="m10.125 11.4375-0.9805-0.9805" stroke="currentColor" stroke-linecap="round" stroke-linejoin="round" stroke-width="0.75" /> </svg>