<svg viewBox="0 0 24 24" xmlns="http://www.w3.org/2000/svg" id="Bathroom-Tub-Person--Streamline-Ultimate" height="24" width="24"><desc>Bathroom Tub Person Streamline Icon: https://streamlinehq.com</desc><path d="M4.125 3.75a2.625 2.625 0 1 0 5.25 0 2.625 2.625 0 1 0 -5.25 0Z" fill="none" stroke="#000000" stroke-linecap="round" stroke-linejoin="round" stroke-width="1.5"></path><path d="M14.329 12.375h7.421a1.5 1.5 0 0 1 1.5 1.5v1.5c0 3.314 -4.186 6 -7.5 6h-7.5c-3.314 0 -7.5 -2.686 -7.5 -6v-1.5a1.5 1.5 0 0 1 1.5 -1.5H4.5v-3a1.5 1.5 0 0 1 2.461 -1.153l2.779 2.316a1.505 1.505 0 0 0 1.791 0.1l2.637 -1.758a1.5 1.5 0 0 1 1.664 2.5L13.2 13.131a4.528 4.528 0 0 1 -5.377 -0.287l-0.567 -0.476" fill="none" stroke="#000000" stroke-linecap="round" stroke-linejoin="round" stroke-width="1.5"></path><path d="m3.75 22.875 1.961 -1.961" fill="none" stroke="#000000" stroke-linecap="round" stroke-linejoin="round" stroke-width="1.5"></path><path d="m20.25 22.875 -1.961 -1.961" fill="none" stroke="#000000" stroke-linecap="round" stroke-linejoin="round" stroke-width="1.5"></path></svg>