<svg xmlns="http://www.w3.org/2000/svg" height="24" width="24" viewBox="0 0 24 24"><path d="M6.083.443C4.837.688 3.812 1.671 3.477 2.94c-.12.456-.121 1.116-.002 1.6.243.99.909 1.808 1.825 2.243.561.266.788.315 1.46.316.543 0 .606-.009.98-.128.556-.178.967-.43 1.384-.847.417-.417.669-.828.847-1.384.119-.374.128-.437.128-.98-.001-.664-.049-.893-.304-1.44A3.357 3.357 0 0 0 7.487.464C7.18.395 6.392.383 6.083.443M7.413 2c.504.191.967.677 1.126 1.181.054.172.066.321.054.651-.013.376-.03.459-.137.689-.358.76-1.192 1.214-1.99 1.082-1.068-.176-1.749-1.167-1.545-2.248.122-.651.754-1.298 1.401-1.434.288-.06.827-.022 1.091.079M5.6 7.161c-.673.117-1.297.591-1.616 1.228-.207.414-.224.562-.224 1.959v1.292l-.91.001c-1.041 0-1.276.038-1.689.268a2.634 2.634 0 0 0-.874.857c-.245.431-.287.714-.287 1.91 0 1.217.044 1.585.263 2.242.298.889.8 1.665 1.597 2.464.669.672 1.564 1.32 2.353 1.703l.188.091-.677.682c-.647.652-.678.691-.706.876-.057.388.179.768.537.865.389.104.557-.005 1.56-1.012.804-.807.817-.818.94-.782.294.087.876.204 1.282.257.645.085 8.681.085 9.326 0 .406-.053.988-.17 1.282-.257.123-.036.136-.025.94.782 1.003 1.007 1.171 1.116 1.56 1.012.358-.097.594-.477.537-.865-.028-.185-.059-.224-.706-.876l-.677-.682.191-.092c.78-.378 1.697-1.044 2.37-1.721.778-.782 1.282-1.565 1.577-2.445.219-.657.263-1.025.263-2.242 0-1.196-.042-1.479-.287-1.91a2.634 2.634 0 0 0-.874-.857c-.481-.268-.475-.268-3.449-.268-1.468-.001-2.67-.011-2.67-.024a.71.71 0 0 1 .096-.15c.393-.524.534-1.339.34-1.973a2.578 2.578 0 0 0-.66-1.047c-.661-.589-1.694-.733-2.463-.344-.113.058-.828.52-1.589 1.029-1.461.975-1.601 1.047-1.901.98-.2-.045-.17-.022-1.743-1.331a151.145 151.145 0 0 0-1.467-1.212c-.447-.35-1.137-.512-1.733-.408m.691 1.533c.071.03.798.613 1.617 1.294 1.843 1.536 2.009 1.632 2.812 1.632.653 0 .762-.052 2.407-1.146a67.806 67.806 0 0 1 1.549-1.012.87.87 0 0 1 .332-.061.73.73 0 0 1 .562 1.203c-.093.111-2.575 1.783-3.09 2.082-.244.142-.798.333-1.145.394-.444.079-1.231.034-1.667-.096-.617-.184-.979-.395-1.688-.986-.404-.337-.446-.358-.719-.358-.251 0-.39.058-.546.226-.156.169-.195.267-.195.493 0 .309.101.461.566.847.939.778 1.587 1.112 2.565 1.32.54.115 1.565.124 2.049.018.81-.177 1.36-.425 2.285-1.03l.604-.396 3.699.011 3.698.011.166.11c.312.207.328.278.328 1.483 0 .981-.007 1.084-.095 1.432-.123.483-.279.825-.599 1.307-.99 1.497-2.984 2.706-5.066 3.074-.391.069-.712.074-4.72.074s-4.329-.005-4.72-.074c-2.521-.445-4.841-2.104-5.54-3.962-.192-.51-.22-.749-.22-1.868 0-1.186.016-1.26.328-1.466l.166-.11 1.363-.02c1.448-.021 1.494-.028 1.668-.226.194-.22.195-.232.196-1.922 0-.876.017-1.66.036-1.744a.75.75 0 0 1 1.014-.534" fill-rule="evenodd"/></svg>