<svg xmlns="http://www.w3.org/2000/svg" height="24" width="24"><path d="M6.48.064c-.202.087-.395.29-.442.463-.022.082-.382 2.539-.799 5.46l-.759 5.311v5.577l-.261-.118c-.512-.232-1.29-.305-1.896-.178-.724.153-1.443.662-1.865 1.322a3.032 3.032 0 0 0 0 3.198 3.117 3.117 0 0 0 1.853 1.325c.349.082 1.029.082 1.378 0 .909-.212 1.744-.923 2.093-1.781.21-.517.218-.641.218-3.381V14.72l.72-.36c.395-.198.728-.36.74-.36.011 0 .02 1.228.02 2.73.001 1.584.018 2.879.041 3.084a2.85 2.85 0 0 0 .861 1.791c.453.457.932.719 1.529.836.137.027.249.062.249.078s.091.149.202.296a3.025 3.025 0 0 0 2.142 1.171c.388.03.611-.033.794-.224.108-.112.235-.471.203-.574a2.702 2.702 0 0 1-.038-.157c-.027-.122-.229-.369-.358-.44a2.1 2.1 0 0 0-.431-.093c-.326-.046-.794-.214-.794-.286.001-.018.105-.099.232-.181.304-.196.737-.636.947-.963.328-.509.49-1.251.417-1.901a2.894 2.894 0 0 0-.86-1.777c-.624-.609-1.257-.869-2.116-.869-.481 0-.863.076-1.211.238a3.671 3.671 0 0 1-.273.121c-.009 0-.016-1.283-.016-2.851v-2.851l-.757-5.299A481.359 481.359 0 0 0 7.457.5C7.318.111 6.852-.097 6.48.064m8.218.01a.731.731 0 0 0-.065 1.316l.187.11 2.33.012 2.33.011V15l-2.31.001c-2.155.001-2.321.006-2.472.074a.73.73 0 0 0-.065 1.315l.187.11 2.328.012 2.328.011.013 2.809c.013 2.587.02 2.825.087 3.028.322.97 1.077 1.572 2.044 1.628.442.025.798-.05 1.179-.25.348-.183.756-.591.939-.939.283-.54.264.229.253-10.228L23.98 3.14l-.093-.32c-.112-.387-.384-.967-.582-1.24A3.965 3.965 0 0 0 21.153.112c-.327-.086-.39-.088-3.313-.1C15.004 0 14.852.003 14.698.074m6.696 1.74c.282.167.727.639.862.915.238.485.223-.171.224 9.943 0 8.036-.008 9.307-.058 9.404-.079.152-.319.358-.453.387-.06.013-.131.03-.157.038-.095.029-.457-.091-.559-.186a.935.935 0 0 1-.177-.255c-.072-.154-.074-.527-.075-10.293L21 1.635l.09.026c.049.015.186.083.304.153m-6.696 1.26a.731.731 0 0 0-.065 1.316l.187.11 1.171.013c1.317.014 1.535-.011 1.749-.198a.792.792 0 0 0 .25-.659c-.024-.207-.104-.334-.326-.514l-.151-.122-1.327-.01c-1.222-.01-1.339-.005-1.488.064m0 3a.731.731 0 0 0-.065 1.316l.187.11 1.171.013c1.317.014 1.535-.011 1.749-.198a.792.792 0 0 0 .25-.659c-.024-.207-.104-.334-.326-.514l-.151-.122-1.327-.01c-1.222-.01-1.339-.005-1.488.064M7.14 8.78c.297 2.094.34 2.472.34 2.961v.56l-.74.369-.74.37-.001-.83-.002-.83.372-2.614c.256-1.808.38-2.58.401-2.5.016.063.183 1.194.37 2.514m7.558.294a.731.731 0 0 0-.065 1.316l.187.11 1.171.013c1.317.014 1.535-.011 1.749-.198a.792.792 0 0 0 .25-.659c-.024-.207-.104-.334-.326-.514l-.151-.122-1.327-.01c-1.222-.01-1.339-.005-1.488.064m0 3a.731.731 0 0 0-.065 1.316l.187.11 1.171.013c1.317.014 1.535-.011 1.749-.198a.792.792 0 0 0 .25-.659c-.024-.207-.104-.334-.326-.514l-.151-.122-1.327-.01c-1.222-.01-1.339-.005-1.488.064M3.344 18.053c.304.064.618.261.818.514.541.685.38 1.707-.345 2.187-.256.169-.456.224-.817.224-.361 0-.561-.055-.817-.224-.894-.593-.884-1.936.019-2.515.205-.132.53-.23.778-.235.066-.001.23.021.364.049m7.775.09c.298.136.608.449.746.753.095.209.111.296.111.604s-.016.395-.111.604c-.14.309-.448.616-.765.764-.207.097-.29.112-.6.112s-.393-.015-.6-.112a1.675 1.675 0 0 1-.765-.764c-.095-.208-.111-.296-.111-.604-.001-.309.015-.394.11-.6.193-.422.615-.771 1.04-.861.267-.057.696-.009.945.104" fill-rule="evenodd"/></svg>