<svg width="24" height="24" viewBox="0 0 24 24"  xmlns="http://www.w3.org/2000/svg">
<path fill-rule="evenodd" clip-rule="evenodd" d="M19 6.76557L7.79892 5.36544C6.68322 5.22597 5.58448 5.72884 4.96079 6.66438C4.01789 8.07872 4.01789 9.92129 4.96079 11.3356C5.58448 12.2712 6.68322 12.774 7.79892 12.6346L19 11.2344L19 6.76557ZM8.04699 3.38088C6.17959 3.14746 4.34059 3.98912 3.29669 5.55498C1.90593 7.64112 1.90593 10.3589 3.29669 12.445C3.74046 13.1107 4.32792 13.6455 5.00016 14.0224C5.00109 14.0618 5.00435 14.1015 5.01005 14.1414L5.8874 20.2828C6.02815 21.2681 6.872 22 7.8673 22H9.84699C11.0641 22 11.999 20.922 11.8269 19.7172L11.0451 14.2444L19.2481 13.219C20.2489 13.0939 21 12.2431 21 11.2344V6.76557C21 5.75692 20.2489 4.90612 19.2481 4.78102L8.04699 3.38088ZM9.0602 14.4925L8.04699 14.6191C7.73011 14.6587 7.41405 14.6674 7.10255 14.6468L7.8673 20H9.84699L9.0602 14.4925ZM8 11C9.10457 11 10 10.1046 10 9C10 7.89543 9.10457 7 8 7C6.89543 7 6 7.89543 6 9C6 10.1046 6.89543 11 8 11Z"/>
</svg>
