<svg xmlns="http://www.w3.org/2000/svg" height="24" width="24" viewBox="0 0 24 24"><path d="M13.94.822a.887.887 0 0 0-.37.357c-.074.144-.081.488-.011.623.063.123.235.31.341.371.058.034.987.053 3.42.069 3.077.019 3.357.027 3.56.093.753.248 1.354.859 1.538 1.564.08.305.08.897 0 1.202-.205.786-.977 1.488-1.778 1.617-.15.024-.985.042-1.98.042-1.912.002-2.062.016-2.559.254-.581.278-1.016.702-1.279 1.246-.093.191-.38 1.168-.905 3.08-.423 1.54-.782 2.814-.797 2.832-.015.017-.289-.316-.608-.74-.687-.915-.88-1.135-1.23-1.4-.304-.231-.955-.555-1.302-.647-.34-.09-.911-.143-1.543-.144l-.544-.001-.986-1.48a73.546 73.546 0 0 1-.987-1.5c0-.011.561-.02 1.247-.02 1.19 0 1.256-.004 1.423-.085.26-.126.39-.344.39-.655 0-.311-.13-.529-.391-.656-.177-.085-.179-.085-3.399-.075l-3.223.011-.153.124c-.219.177-.305.344-.305.59 0 .312.189.6.464.703.068.026.508.043 1.12.044l1.007.001.989 1.487c.543.818.982 1.494.974 1.501-.008.008-.23.031-.494.051-.789.06-1.343.2-2.056.52-1.064.478-2.058 1.358-2.641 2.339-1.429 2.401-1.067 5.385.89 7.342a5.96 5.96 0 0 0 3.478 1.717c.251.034 2.43.043 8.36.034l8.02-.013.32-.113a3.037 3.037 0 0 0 1.854-3.973c-.123-.329-.44-.775-.773-1.085a3.103 3.103 0 0 0-1.222-.693c-.293-.088-.354-.09-3.039-.115-2.088-.02-2.778-.038-2.9-.078a2.54 2.54 0 0 1-1.06-.7c-.228-.266-.52-.681-.52-.737 0-.034.415-1.565.922-3.403.64-2.322.951-3.388 1.018-3.49.145-.22.295-.35.54-.467l.22-.106 1.98-.023c2.14-.025 2.017-.014 2.678-.254.668-.244 1.42-.884 1.834-1.563.454-.743.63-1.779.452-2.645-.295-1.426-1.292-2.483-2.744-2.909-.271-.08-.387-.083-3.7-.095-3.056-.011-3.433-.005-3.54.051M9.73 12.873c.319.129.541.258.746.433.097.083.818 1.006 1.603 2.052a164.223 164.223 0 0 0 1.567 2.066c.379.451.933.843 1.5 1.063.638.248.589.244 3.535.27l2.701.023.266.131c.299.147.555.403.712.713.088.172.1.247.1.616 0 .368-.013.447-.103.64a1.566 1.566 0 0 1-1.069.835c-.153.032-2.342.045-7.84.044-6.38 0-7.698-.01-8.057-.058a4.444 4.444 0 0 1-2.569-1.283 4.485 4.485 0 0 1-1.264-2.492c-.074-.512-.031-1.336.097-1.825.386-1.473 1.566-2.703 3.014-3.141.616-.186.755-.195 2.851-.187 1.97.007 1.981.008 2.21.1m-3.323 2.973a.748.748 0 0 0-.39.814c.02.104.357.583 1.219 1.732.656.873 1.236 1.627 1.288 1.675A.682.682 0 0 0 9 20.24c.303 0 .547-.165.684-.46a.584.584 0 0 0 .029-.502c-.043-.124-2.191-3.036-2.428-3.291a.741.741 0 0 0-.878-.141" fill-rule="evenodd"/></svg>