<svg viewBox="0 0 24 24" xmlns="http://www.w3.org/2000/svg" id="Fitness-Bicycle-1--Streamline-Ultimate.svg" height="24" width="24"><desc>Fitness Bicycle 1 Streamline Icon: https://streamlinehq.com</desc><path d="M11.4 13.2A3 3 0 0 0 9 12H6a5.25 5.25 0 0 0 0 10.5h15a2.25 2.25 0 0 0 0 -4.5h-4.5a3 3 0 0 1 -2.4 -1.2Z" fill="none" stroke="#000000" stroke-linecap="round" stroke-linejoin="round" stroke-width="1.5"></path><path d="m6.75 16.5 2.25 3" fill="none" stroke="#000000" stroke-linecap="round" stroke-linejoin="round" stroke-width="1.5"></path><path d="m13.433 15.911 1.922 -6.964A1.964 1.964 0 0 1 17.25 7.5h3a3 3 0 0 0 0 -6h-6" fill="none" stroke="#000000" stroke-linecap="round" stroke-linejoin="round" stroke-width="1.5"></path><path d="m2.25 7.5 6 0" fill="none" stroke="#000000" stroke-linecap="round" stroke-linejoin="round" stroke-width="1.5"></path><path d="m4.5 7.5 3 4.5" fill="none" stroke="#000000" stroke-linecap="round" stroke-linejoin="round" stroke-width="1.5"></path></svg>