<svg xmlns="http://www.w3.org/2000/svg" fill="none" viewBox="0 0 24 24" id="Smart-Body-Composition-Scale--Streamline-Ultimate.svg" height="24" width="24"><desc>Smart Body Composition Scale Streamline Icon: https://streamlinehq.com</desc><path stroke="#000000" stroke-linecap="round" stroke-linejoin="round" stroke-miterlimit="10" d="M21.75 8.75v10.5c0 2.2 -1.8 4 -4 4h-13c-2.2 0 -4 -1.8 -4 -4v-13c0 -2.2 1.8 -4 4 -4h7" stroke-width="1.5"></path><path stroke="#000000" stroke-linecap="round" stroke-linejoin="round" stroke-miterlimit="10" d="M6.25 9.75c1.10457 0 2 -0.89543 2 -2s-0.89543 -2 -2 -2 -2 0.89543 -2 2 0.89543 2 2 2Z" stroke-width="1.5"></path><path stroke="#000000" stroke-linecap="round" stroke-linejoin="round" stroke-miterlimit="10" d="M6.25 19.75c1.10457 0 2 -0.8954 2 -2s-0.89543 -2 -2 -2 -2 0.8954 -2 2 0.89543 2 2 2Z" stroke-width="1.5"></path><path stroke="#000000" stroke-linecap="round" stroke-linejoin="round" stroke-miterlimit="10" d="M16.95 9.54998c-0.7 0.3 -1.6 0.09999 -2.1 -0.40001 -0.8 -0.8 -0.8 -1.99999 0 -2.79999" stroke-width="1.5"></path><path stroke="#000000" stroke-linecap="round" stroke-linejoin="round" stroke-miterlimit="10" d="M16.25 19.75c1.1046 0 2 -0.8954 2 -2s-0.8954 -2 -2 -2 -2 0.8954 -2 2 0.8954 2 2 2Z" stroke-width="1.5"></path><path stroke="#000000" stroke-linecap="round" stroke-linejoin="round" stroke-miterlimit="10" d="M19.0001 6.67505c-0.2 0 -0.4001 0.2 -0.4001 0.4s0.2001 0.4 0.4001 0.4" stroke-width="1.5"></path><path stroke="#000000" stroke-linecap="round" stroke-linejoin="round" stroke-miterlimit="10" d="M18.9999 6.67505c0.2 0 0.4001 0.2 0.4001 0.4s-0.2001 0.4 -0.4001 0.4" stroke-width="1.5"></path><path stroke="#000000" stroke-linecap="round" stroke-linejoin="round" stroke-miterlimit="10" d="M16.9 4.57505c1.2 -1.2 3.1 -1.2 4.2 0" stroke-width="1.5"></path><path stroke="#000000" stroke-linecap="round" stroke-linejoin="round" stroke-miterlimit="10" d="M14.7501 2.475c2.3 -2.3 6.1 -2.3 8.5 0" stroke-width="1.5"></path></svg>