<svg xmlns="http://www.w3.org/2000/svg" height="24" width="24"><path d="M18.5.026c-1.621.128-3.087.768-4.147 1.812-.276.271-.31.322-.335.496-.092.63.517 1.084 1.073.8.061-.031.229-.164.374-.296.946-.857 2.167-1.318 3.495-1.318 1.348 0 2.549.446 3.573 1.326.354.305.482.369.728.367.469-.004.792-.399.72-.878-.025-.17-.061-.225-.303-.462C22.392.609 20.347-.12 18.5.026M3.904 1.584A4.782 4.782 0 0 0 .222 4.841C-.009 5.571 0 5.254 0 12.74c.001 4.403.015 6.974.041 7.14.165 1.073.614 1.97 1.356 2.712.751.751 1.648 1.201 2.723 1.367.166.026 2.737.04 7.14.041 7.415 0 7.156.006 7.85-.205 1.522-.463 2.752-1.702 3.188-3.211.056-.195.123-.456.148-.58.066-.32.096-11.086.032-11.392-.138-.667-.974-.824-1.363-.257l-.095.139-.021 5.663-.02 5.663-.09.289c-.358 1.164-1.212 1.992-2.37 2.301l-.339.09H11.3c-7.396 0-7.126.007-7.706-.208-.759-.281-1.502-1.003-1.844-1.792-.24-.554-.23-.208-.229-7.768 0-7.471-.009-7.144.212-7.691.303-.749 1.004-1.469 1.727-1.773.615-.258.339-.242 4.62-.266 4.274-.024 4.003-.008 4.235-.257.094-.1.215-.462.186-.557a2.702 2.702 0 0 1-.038-.157c-.029-.134-.235-.374-.387-.453-.165-.085-7.696-.08-8.172.006M18.57 2.96a4.046 4.046 0 0 0-1.886.812c-.395.32-.496.466-.516.742-.026.357.126.612.442.744s.586.059.937-.254c.426-.38.91-.562 1.495-.563.555-.001.989.167 1.39.538.363.336.633.415.958.279a.708.708 0 0 0 .45-.68c0-.259-.088-.419-.385-.696a3.507 3.507 0 0 0-1.597-.854c-.356-.081-.967-.112-1.288-.068M5.66 5.062a3.13 3.13 0 0 0-1.14.556c-.677.558-1.014 1.274-1.008 2.142.004.502.07.779.295 1.24.235.481.712.958 1.193 1.193.461.225.738.291 1.24.295 1.085.007 1.991-.558 2.483-1.548a2.768 2.768 0 0 0-.069-2.532c-.308-.555-.946-1.079-1.545-1.27-.42-.133-1.037-.166-1.449-.076m8.878.611c-.184.086-.456.38-.654.706a2.706 2.706 0 0 0-.033 2.7c.166.291.648.788.926.956.124.075.382.191.574.258.319.111.394.122.869.123.563 0 .882-.071 1.159-.261.464-.318.399-1.045-.114-1.278-.211-.096-.316-.095-.706.006-.28.072-.348.077-.549.035-.297-.061-.475-.155-.656-.345-.243-.255-.33-.469-.331-.813-.001-.345.075-.539.333-.851.193-.233.26-.421.233-.658-.053-.474-.615-.783-1.051-.578m4.073.331a1.369 1.369 0 0 0-.663.627c-.113.25-.114.638-.001.889.044.099.156.255.249.347.477.475 1.131.475 1.608 0 .23-.229.33-.465.332-.787.002-.329-.104-.573-.354-.816-.331-.322-.761-.417-1.171-.26M6.78 6.635c.296.142.463.314.603.619.095.208.105.27.089.56-.021.379-.101.566-.351.816a1.235 1.235 0 0 1-1.989-.341c-.094-.194-.112-.279-.111-.549.001-.375.097-.609.356-.868.266-.265.464-.343.883-.349a.946.946 0 0 1 .52.112m-1.12 8.427a3.13 3.13 0 0 0-1.14.556c-.677.558-1.014 1.274-1.008 2.142.004.502.07.779.295 1.24.235.481.712.958 1.193 1.193.461.225.738.291 1.24.295 1.085.007 1.991-.558 2.483-1.548a2.768 2.768 0 0 0-.069-2.532c-.308-.555-.946-1.079-1.545-1.27-.42-.133-1.037-.166-1.449-.076m10 0a3.13 3.13 0 0 0-1.14.556c-.677.558-1.014 1.274-1.008 2.142.004.502.07.779.295 1.24.235.481.712.958 1.193 1.193.461.225.738.291 1.24.295 1.085.007 1.991-.558 2.483-1.548a2.768 2.768 0 0 0-.069-2.532c-.308-.555-.946-1.079-1.545-1.27-.42-.133-1.037-.166-1.449-.076m-8.88 1.573c.296.142.463.314.603.619.095.208.105.27.089.56-.021.379-.101.566-.351.816a1.235 1.235 0 0 1-1.989-.341c-.094-.194-.112-.279-.111-.549.001-.375.097-.609.356-.868.266-.265.464-.343.883-.349a.946.946 0 0 1 .52.112m10 0c.296.142.463.314.603.619.095.208.105.27.089.56-.021.379-.101.566-.351.816a1.235 1.235 0 0 1-1.989-.341c-.094-.194-.112-.279-.111-.549.001-.375.097-.609.356-.868.266-.265.464-.343.883-.349a.946.946 0 0 1 .52.112" fill-rule="evenodd"/></svg>
