<svg xmlns="http://www.w3.org/2000/svg" fill="none" viewBox="0 0 24 24" id="Massage-Back--Streamline-Ultimate.svg" height="24" width="24"><desc>Massage Back Streamline Icon: https://streamlinehq.com</desc><path stroke="#000000" stroke-linecap="round" stroke-linejoin="round" stroke-miterlimit="10" d="M21.55 19.75c0.6 -2 -0.8 -3.8 -2.7 -3.8 -1.5 0 -2.7 1.1 -2.8 2.6v0.1109" stroke-width="1.5"></path><path stroke="#000000" stroke-linecap="round" stroke-linejoin="round" stroke-miterlimit="10" d="M0.850006 21.15c0 1 0.800004 2.1 1.800004 2.1H21.45c0.5 0 1.7 -0.5 1.7 -1.7s-1.2 -1.8 -1.7 -1.8h-3.8c-1 0 -1 -0.5 -2 -1.5s-2.5 -1 -4.5 -1c-2.59999 0 -5.59999 1.1 -8.69999 1.9 -0.9 0.1 -1.600004 1 -1.600004 2Z" stroke-width="1.5"></path><path stroke="#000000" stroke-linecap="round" stroke-linejoin="round" stroke-miterlimit="10" d="m12.45 20.75 0.5 0.5c0.5 0.5 2 2 3.5 2" stroke-width="1.5"></path><path stroke="#000000" stroke-linecap="round" stroke-linejoin="round" stroke-miterlimit="10" d="M9.44999 6.34998c1.54641 0 2.80001 -1.25359 2.80001 -2.79999C12.25 2.00359 10.9964 0.75 9.44999 0.75c-1.54639 0 -2.8 1.25359 -2.8 2.79999 0 1.5464 1.25361 2.79999 2.8 2.79999Z" stroke-width="1.5"></path><path stroke="#000000" stroke-linecap="round" stroke-linejoin="round" stroke-miterlimit="10" d="M2.75 15.25v-3.5c0 -2.50002 1.8 -4.80005 4.2 -5.10005 2 -0.3 3.8 0.60003 4.9 2.10003 1 1.2 1.8 2.40002 2.4 3.20002 0.6 0.7 0.5 1.8 -0.2 2.4 -0.7 0.6 -1.9 0.8 -2.7 -0.1l-2 -2.3" stroke-width="1.5"></path></svg>