<svg xmlns="http://www.w3.org/2000/svg" height="24" width="24" viewBox="0 0 24 24"><path d="M8.854.059C6.994.397 5.735 2.052 5.925 3.91c.066.646.334 1.324.714 1.804l.16.203-.149.025c-2.095.351-3.858 2.048-4.449 4.279-.179.677-.199 1-.2 3.146-.001 1.334.014 2.066.041 2.14.058.153.27.37.427.438.277.119.657.023.859-.218.178-.211.192-.394.192-2.484 0-2.153.015-2.339.244-2.988.159-.45.27-.671.548-1.092.446-.676 1.156-1.269 1.826-1.528.467-.18.774-.237 1.402-.262.852-.034 1.392.086 2.149.478.724.374 1.118.757 2.15 2.089.617.797 1.921 2.611 1.983 2.759.07.167.075.455.012.667-.068.225-.282.452-.557.589-.471.235-.887.207-1.217-.084-.103-.09-.651-.697-1.218-1.349-.567-.651-1.079-1.206-1.138-1.233a.761.761 0 0 0-.859.126.697.697 0 0 0-.174.833c.067.143 1.87 2.248 2.267 2.646.27.271.6.476.949.59.252.082.369.096.833.095.487-.001.572-.012.86-.113.824-.288 1.446-.895 1.682-1.64.194-.609.167-1.252-.073-1.786-.054-.121-.493-.76-.975-1.42-1.717-2.35-2.349-3.101-3.026-3.599-.148-.108-.268-.206-.268-.219 0-.012.1-.074.222-.138.861-.45 1.502-1.289 1.761-2.304.059-.231.076-.429.073-.86-.004-.483-.019-.608-.111-.912A3.456 3.456 0 0 0 11.849.957 3.504 3.504 0 0 0 8.854.059m1.095 1.502c.54.124 1.07.562 1.339 1.106.158.318.167.357.184.77.022.529-.062.859-.315 1.237a2.049 2.049 0 0 1-2.684.679c-.304-.162-.707-.59-.867-.919-.538-1.109.046-2.459 1.226-2.837.255-.081.838-.1 1.117-.036M18.3 15.237a3.584 3.584 0 0 0-2.544 1.725c-.092.155-.178.275-.191.268-1.044-.558-1.609-.667-3.609-.699-2.435-.038-3.315.113-7.496 1.289-.836.235-1.797.497-2.135.584-.338.086-.707.206-.82.266-.263.141-.846.723-1.018 1.017-.472.805-.504 1.927-.079 2.77.253.503.759 1.032 1.217 1.273.553.29-.26.269 10.417.269 10.779.001 9.799.03 10.478-.308.621-.308 1.129-.884 1.281-1.451.182-.678.091-1.386-.25-1.95-.163-.268-.547-.653-.867-.867l-.243-.163-.016-.52c-.02-.642-.111-1.013-.382-1.56a3.51 3.51 0 0 0-2.368-1.879c-.306-.073-1.096-.109-1.375-.064m1.06 1.526c.87.201 1.56 1.07 1.56 1.965v.274l-1.805-.011-1.806-.011-.234-.259c-.267-.294-.28-.357-.152-.699.23-.615.783-1.115 1.396-1.261.202-.047.83-.046 1.041.002m-6.601 1.279c.882.051 1.362.146 1.781.354.411.204.557.332 1.119.983.631.733.845.896 1.37 1.048.199.058.537.071 2.411.09l2.18.023.186.109c.774.455.775 1.359.003 1.739l-.229.112h-2.72l-2.72-.001-.309-.109c-.689-.243-1.309-.68-2.23-1.572-.728-.705-.814-.77-1.058-.804a.725.725 0 0 0-.805.54c-.106.41 0 .586.817 1.353.322.303.591.564.598.582.023.052-10.394.039-10.639-.014-.175-.037-.249-.084-.437-.272-.264-.263-.369-.451-.436-.778a1.399 1.399 0 0 1 .32-1.2c.174-.199.293-.254.828-.391.249-.063 1.186-.321 2.082-.572 3.059-.86 4.333-1.14 5.609-1.235.417-.031 1.63-.023 2.279.015" fill-rule="evenodd"/></svg>