<svg width="12" height="12" viewBox="0 0 12 12"  xmlns="http://www.w3.org/2000/svg">
<path fill-rule="evenodd" clip-rule="evenodd" d="M4.5 1.5C4.5 1.22386 4.27614 1 4 1C3.72386 1 3.5 1.22386 3.5 1.5V2H2.5C1.94772 2 1.5 2.44772 1.5 3V9.5C1.5 10.0523 1.94772 10.5 2.5 10.5H9.5C10.0523 10.5 10.5 10.0523 10.5 9.5V3C10.5 2.44772 10.0523 2 9.5 2H8.5V1.5C8.5 1.22386 8.27614 1 8 1C7.72386 1 7.5 1.22386 7.5 1.5V2H4.5V1.5ZM3.5 3V3.5C3.5 3.77614 3.72386 4 4 4C4.27614 4 4.5 3.77614 4.5 3.5V3H7.5V3.5C7.5 3.77614 7.72386 4 8 4C8.27614 4 8.5 3.77614 8.5 3.5V3H9.5V5H2.5V3H3.5ZM2.5 6L2.5 9.5H9.5V6H2.5Z" />
</svg>
