<svg width="12" height="12" viewBox="0 0 12 12" xmlns="http://www.w3.org/2000/svg">
<path d="M3.5 1.5C3.5 1.22386 3.72386 1 4 1C4.27614 1 4.5 1.22386 4.5 1.5V3C4.5 3.27614 4.27614 3.5 4 3.5C3.72386 3.5 3.5 3.27614 3.5 3V1.5Z" fill="#9898A6"/>
<path d="M2.5 2C1.94772 2 1.5 2.44772 1.5 3V5H10.5V3C10.5 2.44772 10.0523 2 9.5 2H9V3C9 3.55228 8.55228 4 8 4C7.44772 4 7 3.55228 7 3V2H5V3C5 3.55228 4.55228 4 4 4C3.44772 4 3 3.55228 3 3V2H2.5Z" fill="#9898A6"/>
<path d="M10.5 6H1.5V9.5C1.5 10.0523 1.94772 10.5 2.5 10.5H9.5C10.0523 10.5 10.5 10.0523 10.5 9.5V6Z" fill="#9898A6"/>
<path d="M8 1C7.72386 1 7.5 1.22386 7.5 1.5V3C7.5 3.27614 7.72386 3.5 8 3.5C8.27614 3.5 8.5 3.27614 8.5 3V1.5C8.5 1.22386 8.27614 1 8 1Z" fill="#9898A6"/>
</svg>
