<svg width="12" height="12" viewBox="0 0 12 12"  xmlns="http://www.w3.org/2000/svg">
<path d="M4.33333 2.36842C4.33333 2.16495 4.48257 2 4.66667 2C4.85076 2 5 2.16495 5 2.36842V3.47368C5 3.67716 4.85076 3.84211 4.66667 3.84211C4.48257 3.84211 4.33333 3.67716 4.33333 3.47368V2.36842Z" />
<path d="M3.66667 2.73684C3.29848 2.73684 3 3.06674 3 3.47368V4.94737H9V3.47368C9 3.06674 8.70152 2.73684 8.33333 2.73684H8V3.47368C8 3.88063 7.70152 4.21053 7.33333 4.21053C6.96514 4.21053 6.66667 3.88063 6.66667 3.47368V2.73684H5.33333V3.47368C5.33333 3.88063 5.03486 4.21053 4.66667 4.21053C4.29848 4.21053 4 3.88063 4 3.47368V2.73684H3.66667Z" />
<path d="M9 5.68421H3V8.26316C3 8.6701 3.29848 9 3.66667 9H8.33333C8.70152 9 9 8.6701 9 8.26316V5.68421Z" />
<path d="M7.33333 2C7.14924 2 7 2.16495 7 2.36842V3.47368C7 3.67716 7.14924 3.84211 7.33333 3.84211C7.51743 3.84211 7.66667 3.67716 7.66667 3.47368V2.36842C7.66667 2.16495 7.51743 2 7.33333 2Z" />
</svg>
