<svg width="24" height="24" viewBox="0 0 24 24" fill="none" xmlns="http://www.w3.org/2000/svg">
<path fill-rule="evenodd" clip-rule="evenodd" d="M9.29616 2C6.39445 2 4.10212 4.4619 4.30886 7.35623L4.80377 14.285C4.90861 15.7528 5.79634 16.9887 7.041 17.5963C7.01428 17.7267 7.00024 17.8617 7.00024 18V20C7.00024 21.1046 7.89567 22 9.00024 22H15.0002C16.1048 22 17.0002 21.1046 17.0002 20V18C17.0002 17.9033 16.9934 17.8082 16.9801 17.7152C18.2279 17.2164 19.1795 16.1045 19.432 14.7155L20.358 9.62243C20.7728 7.34138 19.1337 5.23218 16.8788 5.01788C16.441 3.28359 14.8705 2 13.0003 2H9.29616ZM15.0002 18H9.00024V20H15.0002V18ZM15.0002 16H15.4965C16.4631 16 17.2914 15.3088 17.4643 14.3578L18.3903 9.26466C18.5736 8.25631 17.9378 7.3165 17.0003 7.06534V10C17.0003 10.5523 16.5525 11 16.0003 11C15.448 11 15.0003 10.5523 15.0003 10V6C15.0003 4.89543 14.1048 4 13.0003 4H9.29616C7.55513 4 6.17974 5.47714 6.30378 7.21374L6.79869 14.1425C6.87345 15.1891 7.74433 16 8.79361 16H9.00024H15.0002Z" fill="#231B22"/>
</svg>
