<svg width="12" height="12" viewBox="0 0 12 12"  xmlns="http://www.w3.org/2000/svg">
<path d="M4.5 4V5H3.5V4H4.5Z" />
<path d="M6.5 4V5H5.5V4H6.5Z" />
<path d="M4.5 7V6H3.5V7H4.5Z" />
<path d="M6.5 6V7H5.5V6H6.5Z" />
<path d="M4.5 9V8H3.5V9H4.5Z" />
<path d="M6.5 8V9H5.5V8H6.5Z" />
<path fill-rule="evenodd" clip-rule="evenodd" d="M3.5 1C2.94772 1 2.5 1.44772 2.5 2L1.5 2V11L10.5 11V6L9.5 6C9.5 5.44772 9.05228 5 8.5 5V2L7.5 2C7.5 1.44772 7.05229 1 6.5 1H3.5ZM7.5 9.99998H2.5V3H7.5V9.99998Z" />
</svg>
