<svg width="11" height="12" viewBox="0 0 11 12" xmlns="http://www.w3.org/2000/svg">
  <path d="M3.66667 3.6V4.8H2.44444V3.6H3.66667Z" />
  <path d="M6.11111 3.6V4.8H4.88889V3.6H6.11111Z" />
  <path d="M3.66667 7.2V6H2.44444V7.2H3.66667Z" />
  <path d="M6.11111 6V7.2H4.88889V6H6.11111Z" />
  <path d="M3.66667 9.6V8.4H2.44444V9.6H3.66667Z" />
  <path d="M6.11111 8.4V9.6H4.88889V8.4H6.11111Z" />
  <path fill-rule="evenodd" clip-rule="evenodd" d="M2.44444 0C1.76943 0 1.22222 0.537258 1.22222 1.2L0 1.2V12L11 12V6L9.77778 6C9.77778 5.33726 9.23057 4.8 8.55556 4.8V1.2L7.33333 1.2C7.33333 0.537258 6.78613 0 6.11111 0H2.44444ZM7.33333 10.8H1.22222V2.4H7.33333V10.8Z" />
</svg>
