<svg width="12" height="12" viewBox="0 0 12 12"  xmlns="http://www.w3.org/2000/svg">
<path fill-rule="evenodd" clip-rule="evenodd" d="M2.5 2C2.5 1.44772 2.94772 1 3.5 1H6.5C7.05229 1 7.5 1.44772 7.5 2L8.5 2V5C9.05228 5 9.5 5.44772 9.5 6L10.5 6V11L1.5 11V2L2.5 2ZM2.50002 9.99998V3H2.5V9.99998H2.50002ZM3.49998 4H4.49998V5H3.49998V4ZM4.49998 5.99999H3.49998V6.99999H4.49998V5.99999ZM3.49998 8.00001H4.49998V9.00001H3.49998V8.00001ZM6.50002 4H5.50002V5H6.50002V4ZM5.50002 5.99999H6.50002V6.99999H5.50002V5.99999ZM6.50002 8.00001H5.50002V9.00001H6.50002V8.00001Z" />
</svg>
