<svg width="20" height="20" viewBox="0 0 20 20" xmlns="http://www.w3.org/2000/svg">
<g clip-path="url(#clip0_557_9546)">
<path d="M12.1373 0H12.6344C12.8976 0.152071 13.159 0.326951 13.1676 0.673804C13.1786 1.11948 13.171 1.56993 13.1715 2.01638L13.1723 3.22319C13.1723 3.37185 13.1861 3.749 13.1532 3.87734C13.0519 4.2729 12.5913 4.49944 12.1973 4.40379C11.9962 4.35616 11.8225 4.22998 11.715 4.05339C11.5042 3.70359 11.6512 2.37107 11.6059 1.92507C11.5914 1.78194 11.6023 1.4528 11.6064 1.28946C11.6233 0.606915 11.4992 0.371304 12.1373 0Z"/>
<path d="M4.22438 0H4.71197C5.01224 0.154034 5.21335 0.282638 5.24558 0.652283C5.26916 1.19686 5.2921 1.74754 5.27061 2.29681C5.25197 2.77272 5.37826 3.7994 5.07728 4.16946C4.69737 4.63656 3.71831 4.42853 3.70628 3.73703C3.70099 3.4331 3.70942 3.10261 3.70953 2.7871L3.70545 1.41118C3.70264 0.718585 3.56358 0.382663 4.22438 0Z"/>
<path d="M1.91025 1.88475C2.25627 1.87555 2.5929 1.88034 2.93909 1.88485C2.93757 1.90845 2.93663 1.93207 2.93623 1.95571C2.93145 2.43504 2.87574 3.7727 3.0146 4.18573C3.56422 5.73718 5.97962 5.40627 6.03085 3.7447C6.04993 3.12571 6.02788 2.49631 6.02897 1.87927C6.49417 1.89719 7.09951 1.87967 7.57708 1.87978L10.8486 1.8815C10.8525 2.32783 10.8087 3.76622 10.8995 4.10848C10.961 4.33674 11.0796 4.54558 11.2441 4.7154C11.999 5.50066 13.419 5.28825 13.8342 4.25709C13.9805 3.89345 13.9492 3.38441 13.9453 2.99428C13.9398 2.62392 13.9377 2.25352 13.9392 1.88313L14.5322 1.87976C15.2302 1.87688 15.8356 1.83393 16.3717 2.36379C16.965 2.95008 16.8793 3.58723 16.8777 4.36555L16.8761 5.76122L16.8755 11.5054L15.2255 11.5063L15.2234 6.76442L3.00317 6.76287L1.65491 6.7631L1.65313 15.5796L10.8265 15.5814L10.8259 17.1407C8.52395 17.1668 6.95353 17.1411 4.6475 17.1421L2.52033 17.1442C2.12484 17.1445 1.57984 17.1718 1.21085 17.1119C0.494464 16.9957 -0.0167855 16.2464 0.00334842 15.5436C0.0145761 15.1522 0.000201217 17.1013 0.000960146 16.7198L0.00158514 15.2469L0.0010269 8.94299L0 5.21513L4.49589e-05 4.0737C0.000469066 3.32857 -0.0060489 2.70944 0.664576 2.21811C1.07688 1.91602 1.41855 1.90346 1.91025 1.88475Z"/>
<path d="M15.8443 12.4675C15.3689 13.4787 14.6268 15.0568 14.6268 15.0568L11.9482 16.2338L14.6268 17.4107L15.8443 20L17.0619 17.4107L19.7404 16.2338L17.0619 15.0568"/>
</g>
<defs>
<clipPath id="clip0_557_9546">
<rect width="20" height="20" fill="white"/>
</clipPath>
</defs>
</svg>
