<svg width="12" height="12" viewBox="0 0 12 12"  xmlns="http://www.w3.org/2000/svg">
<path fill-rule="evenodd" clip-rule="evenodd" d="M6 8C7.10457 8 8 7.10457 8 6C8 4.89543 7.10457 4 6 4C4.89543 4 4 4.89543 4 6C4 7.10457 4.89543 8 6 8ZM7 6C7 6.55228 6.55228 7 6 7C5.44772 7 5 6.55228 5 6C5 5.44772 5.44772 5 6 5C6.55228 5 7 5.44772 7 6Z" />
<path fill-rule="evenodd" clip-rule="evenodd" d="M4.53518 1.5C4.20083 1.5 3.8886 1.6671 3.70313 1.9453L3.33333 2.5H2.5C1.67157 2.5 1 3.17157 1 4V8.5C1 9.32843 1.67157 10 2.5 10H9.5C10.3284 10 11 9.32843 11 8.5V4C11 3.17157 10.3284 2.5 9.5 2.5H8.66667L8.29687 1.9453C8.1114 1.6671 7.79917 1.5 7.46482 1.5H4.53518ZM3.33333 3.5C3.66769 3.5 3.97992 3.3329 4.16538 3.0547L4.53518 2.5H7.46482L7.83462 3.0547C8.02008 3.3329 8.33231 3.5 8.66667 3.5H9.5C9.77614 3.5 10 3.72386 10 4V8.5C10 8.77614 9.77614 9 9.5 9H2.5C2.22386 9 2 8.77614 2 8.5V4C2 3.72386 2.22386 3.5 2.5 3.5H3.33333Z" />
</svg>
