<svg width="12" height="12" viewBox="0 0 12 12"  xmlns="http://www.w3.org/2000/svg">
<path d="M4.5 9C3.94772 9 3.5 9.44771 3.5 10C3.5 10.5523 3.94772 11 4.5 11C5.05228 11 5.5 10.5523 5.5 10C5.5 9.44771 5.05228 9 4.5 9Z" />
<path d="M9.5 9C8.94772 9 8.5 9.44771 8.5 10C8.5 10.5523 8.94772 11 9.5 11C10.0523 11 10.5 10.5523 10.5 10C10.5 9.44771 10.0523 9 9.5 9Z" />
<path fill-rule="evenodd" clip-rule="evenodd" d="M1 1.5C1 1.22386 1.22386 1 1.5 1H3.06882C3.3056 1 3.50991 1.16608 3.55828 1.39786L3.92737 3.16661H10.5C10.6507 3.16661 10.7933 3.23458 10.8883 3.3516C10.9832 3.46863 11.0203 3.62223 10.9893 3.76968L10.3296 6.90081C10.2703 7.20756 10.1098 7.48778 9.87005 7.69036C9.62966 7.89347 9.32527 8.00481 9.00935 7.99984H5.00535C4.68942 8.00481 4.38503 7.89347 4.14465 7.69036C3.90474 7.48766 3.7442 7.20722 3.68494 6.90026L3.03363 3.77905C3.03214 3.77256 3.03077 3.76603 3.02954 3.75944L2.66239 2H1.5C1.22386 2 1 1.77614 1 1.5ZM4.13604 4.16661L4.6647 6.70005L4.66652 6.70922C4.68356 6.79927 4.72938 6.87526 4.79005 6.92652C4.85014 6.97729 4.92132 7.00134 4.99087 6.99994L5.00093 6.99984H9.01376L9.02382 6.99994C9.09338 7.00134 9.16456 6.97729 9.22465 6.92652C9.28531 6.87526 9.33113 6.79927 9.34817 6.70922L9.35019 6.69912L9.88369 4.16661H4.13604Z" />
</svg>
