<svg width="24" height="24" viewBox="0 0 24 24" xmlns="http://www.w3.org/2000/svg">
<mask id="mask0_5077_15924" style="mask-type:alpha" maskUnits="userSpaceOnUse" x="0" y="0" width="23" height="23">
<path d="M5.32323 2.93422C7.36133 1.47819 9.8489 0.789019 12.3457 0.987932C14.8425 1.18692 17.1888 2.26168 18.9707 4.02211C19.561 4.6053 20.0775 5.25098 20.5117 5.94496C20.8179 6.43432 20.6689 7.08005 20.1797 7.38637C19.6904 7.69243 19.0456 7.5435 18.7393 7.05434C18.3905 6.49688 17.9752 5.97792 17.501 5.50942C16.0697 4.09538 14.1852 3.23176 12.1797 3.07192C10.1742 2.91215 8.17616 3.46591 6.53905 4.63539C4.90194 5.80503 3.73061 7.51619 3.23142 9.46547C2.76351 11.293 2.91475 13.2205 3.65525 14.9479L3.8115 15.2907L3.82713 15.3248L3.8408 15.359C4.05849 15.9082 4.10734 16.5106 3.98045 17.0875L3.96971 17.1373L3.95408 17.1852L3.01756 20.0768L6.10057 19.1754L6.14452 19.1627L6.19041 19.1539C6.66679 19.0595 7.15811 19.0838 7.62108 19.2233L7.81835 19.2897L7.85448 19.3034L7.88964 19.32C9.25503 19.9576 10.7563 20.2184 12.2402 20.0895C12.8151 20.0397 13.3218 20.4658 13.3721 21.0407C13.422 21.6158 12.996 22.1224 12.4209 22.1725C10.595 22.331 8.74841 22.0147 7.06444 21.2409C6.92256 21.1892 6.7698 21.1756 6.62108 21.2008L3.41697 22.1383L3.39158 22.1461C3.06173 22.2337 2.71452 22.235 2.38376 22.151C2.05301 22.0669 1.74899 21.9001 1.50095 21.6657C1.25289 21.4312 1.06938 21.1367 0.966769 20.8112C0.864275 20.4858 0.846291 20.1395 0.915011 19.8053L0.926729 19.7487L0.944308 19.694L1.94236 16.609C1.97165 16.4503 1.95885 16.2861 1.90036 16.1354C0.837885 13.8938 0.59038 11.3515 1.20603 8.94692C1.82742 6.52036 3.28522 4.39033 5.32323 2.93422ZM17.335 7.99965C18.1762 7.9998 18.9586 8.5859 19.0928 9.46547L19.1602 9.91566C19.2757 9.97349 19.389 10.0343 19.499 10.1002L20.0069 9.91078L20.0078 9.90981C20.7948 9.61477 21.7237 9.89258 22.1797 10.6325L22.75 11.5602L22.8301 11.7047C23.1908 12.4416 22.9606 13.3178 22.2969 13.8043L21.9082 14.0905C21.91 14.1378 21.9141 14.1865 21.9141 14.235C21.9141 14.283 21.91 14.3307 21.9082 14.3776L22.2969 14.6627C23.005 15.1816 23.2192 16.1451 22.75 16.9088L22.1797 17.8366C21.7244 18.5755 20.796 18.8548 20.0069 18.5573L19.499 18.3668C19.389 18.4328 19.2758 18.4945 19.1602 18.5524L19.0928 19.0045C18.9575 19.8842 18.1758 20.4692 17.335 20.4694H16.1943C15.3535 20.4692 14.5735 19.8847 14.4365 19.0075L14.4356 19.0055L14.3672 18.5524C14.2514 18.4937 14.1386 18.4316 14.0303 18.3668L13.5234 18.5582L13.5225 18.5592C12.7845 18.836 11.923 18.6096 11.4424 17.9704L11.3506 17.8375L10.7803 16.9098C10.311 16.1461 10.5252 15.1826 11.2334 14.6637L11.6211 14.3776C11.6193 14.3307 11.6162 14.283 11.6162 14.235C11.6162 14.1862 11.6193 14.1372 11.6211 14.0895L11.2334 13.8053C10.5258 13.2864 10.3122 12.3237 10.7812 11.5602L11.3525 10.6334C11.8084 9.89391 12.7366 9.61501 13.5234 9.91078L14.0332 10.1032C14.1409 10.0388 14.2531 9.97693 14.3682 9.91859L14.4375 9.46547L14.4707 9.30336C14.6711 8.51437 15.4071 7.99979 16.1953 7.99965H17.335ZM16.1953 9.6266C16.1435 9.62668 16.1027 9.64398 16.0772 9.66469C16.0529 9.68445 16.0465 9.70248 16.0449 9.71156L15.9541 10.3112V10.3131C15.8773 10.8065 15.541 11.156 15.1768 11.3317L15.1738 11.3336C15.0525 11.3916 14.9312 11.4578 14.8115 11.5319L14.8106 11.5329C14.4549 11.7519 13.9912 11.8259 13.5527 11.6598L12.9512 11.4342C12.9077 11.4179 12.8582 11.4162 12.8145 11.4303C12.7715 11.4443 12.7482 11.4686 12.7373 11.486L12.166 12.4118C12.1607 12.4205 12.1589 12.4274 12.1582 12.4313C12.1575 12.4354 12.1582 12.4401 12.1592 12.445C12.1609 12.4533 12.1681 12.4731 12.1963 12.4938L12.9512 13.0475C13.192 13.2242 13.3172 13.5192 13.2764 13.8151C13.2552 13.9674 13.2422 14.1069 13.2422 14.235C13.2422 14.3632 13.2547 14.5026 13.2754 14.6579C13.3147 14.9525 13.1898 15.2457 12.9502 15.4215L12.1953 15.9752C12.1677 15.9955 12.1602 16.0153 12.1582 16.0241C12.1572 16.0289 12.1567 16.0337 12.1572 16.0377C12.1579 16.0415 12.1597 16.0483 12.165 16.0573L12.7363 16.985C12.7473 17.0023 12.7706 17.0257 12.8135 17.0397C12.8569 17.0537 12.9061 17.053 12.9502 17.0368L13.5527 16.8102C13.9347 16.6666 14.338 16.7033 14.6719 16.8629L14.8106 16.9391L14.9902 17.0436C15.0506 17.0768 15.1121 17.1093 15.1729 17.1383C15.5413 17.3137 15.8788 17.6665 15.9531 18.1637L16.043 18.7584C16.0448 18.7677 16.0525 18.785 16.0762 18.8043C16.1022 18.8252 16.1427 18.8433 16.1943 18.8434H17.335C17.3867 18.8433 17.4275 18.826 17.4531 18.8053C17.4779 18.7851 17.484 18.7663 17.4854 18.7575L17.5762 18.1588C17.6529 17.664 17.992 17.3089 18.3643 17.1344C18.4857 17.077 18.6033 17.0128 18.7168 16.942C19.0704 16.7225 19.5379 16.6421 19.9815 16.8102L20.5791 17.0358C20.6228 17.0523 20.6723 17.0528 20.7158 17.0387C20.7588 17.0248 20.7828 17.0017 20.794 16.984L21.3653 16.0573C21.3709 16.048 21.3724 16.0406 21.3731 16.0368C21.3736 16.0327 21.3731 16.0279 21.3721 16.0231C21.3712 16.0188 21.3695 16.0116 21.3643 16.0036L21.335 15.9743L20.5801 15.4205C20.3404 15.2446 20.2154 14.9516 20.2549 14.6569C20.2755 14.5029 20.2881 14.3633 20.2881 14.235C20.2881 14.1067 20.2756 13.9667 20.2549 13.8112C20.2158 13.5166 20.3404 13.2233 20.5801 13.0475L21.336 12.4938C21.3641 12.4731 21.3704 12.4533 21.3721 12.445C21.3731 12.4401 21.3738 12.4354 21.3731 12.4313C21.3724 12.4275 21.3705 12.4205 21.3653 12.4118L20.794 11.485C20.783 11.4677 20.7598 11.4433 20.7168 11.4293C20.6951 11.4224 20.6716 11.4192 20.6485 11.4196L20.5791 11.4323L19.9785 11.6579L19.9776 11.6598C19.5374 11.8243 19.074 11.7474 18.7188 11.528L18.7168 11.526C18.6597 11.4904 18.601 11.4567 18.542 11.4245L18.3623 11.3336C17.9942 11.16 17.6516 10.8086 17.5762 10.3082L17.4854 9.71059L17.4844 9.70961C17.4829 9.70164 17.477 9.68512 17.4531 9.66566C17.4276 9.64496 17.3871 9.62668 17.335 9.6266H16.1953ZM15.8838 13.3532C16.3707 12.8665 17.1606 12.8665 17.6475 13.3532C18.1344 13.8401 18.1342 14.6299 17.6475 15.1168C17.1605 15.6038 16.3708 15.6038 15.8838 15.1168C15.397 14.6299 15.3969 13.8401 15.8838 13.3532Z" fill="#1D1D1F"/>
</mask>
<g mask="url(#mask0_5077_15924)">
<rect width="24" height="24"/>
</g>
</svg>
