<svg width="12" height="12" viewBox="0 0 12 12"  xmlns="http://www.w3.org/2000/svg">
<path fill-rule="evenodd" clip-rule="evenodd" d="M3.9453 7.66795C4.10957 7.55844 4.30258 7.5 4.5 7.5H9.5L9.5 2.5L2.5 2.5L2.5 8.63148L3.9453 7.66795ZM4.5 8.5H9.5C9.76522 8.5 10.0196 8.39464 10.2071 8.20711C10.3946 8.01957 10.5 7.76522 10.5 7.5V2.5C10.5 2.23478 10.3946 1.98043 10.2071 1.79289C10.0196 1.60536 9.76522 1.5 9.5 1.5H2.5C2.23478 1.5 1.98043 1.60536 1.79289 1.79289C1.60536 1.98043 1.5 2.23478 1.5 2.5V9.56574C1.5 9.96509 1.94507 10.2033 2.27735 9.98177L4.5 8.5Z" />
</svg>
