<svg width="12" height="12" viewBox="0 0 12 12"  xmlns="http://www.w3.org/2000/svg">
<path fill-rule="evenodd" clip-rule="evenodd" d="M5.92596 2.00067C3.75234 2.0402 2 3.81701 2 6C2 8.17322 3.73669 9.94389 5.8968 9.99869C5.93108 9.99956 5.96548 10 5.99997 10C6.17784 10 6.35254 9.98843 6.52345 9.96611L6.65296 10.9577C6.43923 10.9856 6.22127 11 5.99997 11C5.77867 11 5.56071 10.9856 5.34699 10.9577C2.89516 10.6374 1 8.5387 1 6C1 3.4613 2.89516 1.36256 5.34698 1.04232L5.36344 1.0402C5.5719 1.01367 5.78435 1 5.99997 1C6.22127 1 6.43923 1.0144 6.65296 1.04232L6.52345 2.03389C6.35254 2.01157 6.17784 2 5.99997 2C5.97525 2 5.95058 2.00022 5.92596 2.00067ZM9.04342 9.96646C8.69939 10.2309 8.32003 10.4516 7.91367 10.6203L7.53036 9.69664C7.85492 9.56194 8.1584 9.38546 8.434 9.17362L9.04342 9.96646ZM9.17359 8.43403L9.96643 9.04345C10.2309 8.69942 10.4516 8.32006 10.6202 7.9137L9.69661 7.53039C9.56192 7.85494 9.38543 8.15843 9.17359 8.43403ZM9.96608 6.52347L10.9577 6.65299C10.9856 6.43926 11 6.2213 11 6C11 5.7787 10.9856 5.56074 10.9577 5.34701L9.96608 5.47652C9.9884 5.64743 9.99997 5.82213 9.99997 6C9.99997 6.17787 9.9884 6.35257 9.96608 6.52347ZM9.69661 4.46961L10.6202 4.0863C10.4516 3.67994 10.2309 3.30058 9.96643 2.95655L9.17359 3.56597C9.38543 3.84157 9.56192 4.14506 9.69661 4.46961ZM8.434 2.82638L9.04342 2.03354C8.69939 1.7691 8.32003 1.54839 7.91367 1.37974L7.53036 2.30336C7.85492 2.43806 8.1584 2.61454 8.434 2.82638Z" />
<path d="M8.21793 4.64669C8.02269 4.45006 7.70462 4.44957 7.50895 4.64578L5.20501 6.95607L4.30637 6.19115C4.10792 6.02223 3.813 6.03407 3.62873 6.21834L3.62113 6.22594C3.41914 6.42793 3.42714 6.75781 3.63869 6.94977L5.20501 8.37107L8.21721 5.35231C8.41163 5.15747 8.41187 4.842 8.21793 4.64669Z" />
</svg>
