<svg width="12" height="12" viewBox="0 0 12 12"  xmlns="http://www.w3.org/2000/svg">
<path fill-rule="evenodd" clip-rule="evenodd" d="M6.54253 10.8028C7.63573 9.90735 10 7.68166 10 5.18136C10 4.07239 9.57857 3.00885 8.82843 2.22469C8.07828 1.44053 7.06087 1 6 1C4.93913 1 3.92172 1.44053 3.17157 2.22469C2.42143 3.00885 2 4.07239 2 5.18136C2 7.68166 4.36427 9.90735 5.45747 10.8028C5.77841 11.0657 6.22159 11.0657 6.54253 10.8028ZM7.60356 4.68324L5.50004 6.83327L4.24014 5.54551C4.04487 5.34593 4.04487 5.02235 4.24014 4.82277C4.4354 4.62319 4.75198 4.62319 4.94724 4.82277L5.50004 5.38779L6.89645 3.9605C7.09171 3.76092 7.40829 3.76092 7.60356 3.9605C7.79882 4.16008 7.79882 4.48366 7.60356 4.68324Z" />
</svg>
