<svg width="12" height="12" viewBox="0 0 12 12"  xmlns="http://www.w3.org/2000/svg">
<path d="M5.50004 6.70708L7.60355 4.60357C7.79882 4.40831 7.79882 4.09172 7.60355 3.89646C7.40829 3.7012 7.09171 3.7012 6.89645 3.89646L5.50004 5.29287L4.94724 4.74007C4.75198 4.54481 4.4354 4.54481 4.24013 4.74007C4.04487 4.93533 4.04487 5.25192 4.24013 5.44718L5.50004 6.70708Z" />
<path fill-rule="evenodd" clip-rule="evenodd" d="M10 5.09091C10 7.53712 7.63573 9.71467 6.54253 10.5908C6.22159 10.848 5.77841 10.848 5.45747 10.5908C4.36427 9.71467 2 7.53712 2 5.09091C2 4.00593 2.42143 2.96539 3.17157 2.1982C3.92172 1.43101 4.93913 1 6 1C7.06087 1 8.07828 1.43101 8.82843 2.1982C9.57857 2.96539 10 4.00593 10 5.09091ZM9 5.09091C9 5.99958 8.55358 6.94293 7.8844 7.82541C7.26014 8.64865 6.51337 9.32481 6 9.74347C5.48664 9.32481 4.73986 8.64865 4.1156 7.82541C3.44642 6.94293 3 5.99958 3 5.09091C3 4.26399 3.3214 3.47534 3.88658 2.89732C4.45101 2.32006 5.21169 2 6 2C6.78831 2 7.54899 2.32006 8.11342 2.89732C8.6786 3.47534 9 4.26399 9 5.09091Z" />
</svg>
