<svg width="12" height="12" viewBox="0 0 12 12"  xmlns="http://www.w3.org/2000/svg">
<path fill-rule="evenodd" clip-rule="evenodd" d="M6 2C3.792 2 2 3.792 2 6C2 8.208 3.792 10 6 10C8.208 10 10 8.208 10 6C10 3.792 8.208 2 6 2ZM7.77434 4.91735C7.61814 4.76005 7.36369 4.75966 7.20715 4.91663L5.364 6.76486L4.64509 6.15292C4.48633 6.01779 4.2504 6.02725 4.10297 6.17467L4.0969 6.18075C3.9353 6.34234 3.94171 6.60625 4.11094 6.75981L5.364 7.89686L7.77377 5.48184C7.9293 5.32598 7.92949 5.0736 7.77434 4.91735Z" />
</svg>
