<svg width="12" height="12" viewBox="0 0 12 12"  xmlns="http://www.w3.org/2000/svg">
<path fill-rule="evenodd" clip-rule="evenodd" d="M6 1C3.24 1 1 3.24 1 6C1 8.76 3.24 11 6 11C8.76 11 11 8.76 11 6C11 3.24 8.76 1 6 1ZM8.21793 4.64669C8.02268 4.45006 7.70461 4.44957 7.50894 4.64578L5.205 6.95607L4.30636 6.19115C4.10791 6.02223 3.813 6.03407 3.62872 6.21834L3.62112 6.22594C3.41913 6.42793 3.42713 6.75781 3.63868 6.94977L5.205 8.37107L8.21721 5.35231C8.41162 5.15747 8.41186 4.842 8.21793 4.64669ZM2 6C2 8.21 3.79 10 6 10C8.21 10 10 8.21 10 6C10 3.79 8.21 2 6 2C3.79 2 2 3.79 2 6Z" />
</svg>
