<svg width="24" height="24" viewBox="0 0 24 24"  xmlns="http://www.w3.org/2000/svg">
<path fill-rule="evenodd" clip-rule="evenodd" d="M5.75616 5.25649C6.28962 5.39943 6.6062 5.94777 6.46326 6.48124L6.20444 7.44716L8.66677 8.10694C9.26632 6.84329 10.5507 6.00005 12 6.00005C13.7476 6.00005 15.2554 7.22614 15.6119 8.93699L15.8405 10.0342L18.2914 10.7127L18.5517 9.74125C18.6947 9.20778 19.243 8.8912 19.7765 9.03414C20.3099 9.17708 20.6265 9.72542 20.4836 10.2589L20.219 11.2463L21.2668 11.5363C21.7991 11.6837 22.1111 12.2346 21.9638 12.7669C21.8164 13.2991 21.2655 13.6112 20.7332 13.4639L16.2993 12.2365L17.0833 16.0001H21C21.5523 16.0001 22 16.4478 22 17.0001C22 17.5523 21.5523 18.0001 21 18.0001H17.5H6.5H3C2.44772 18.0001 2 17.5523 2 17.0001C2 16.4478 2.44772 16.0001 3 16.0001H6.91667L8.1581 10.0412L4.72088 9.12019L2.78903 8.60256C2.25557 8.45962 1.93898 7.91128 2.08192 7.37781C2.22487 6.84435 2.7732 6.52776 3.30667 6.67071L4.27259 6.92952L4.53141 5.9636C4.67435 5.43013 5.22269 5.11355 5.75616 5.25649ZM13.6539 9.3449L15.0404 16.0001H8.95961L10.3461 9.3449C10.5093 8.56149 11.1998 8.00005 12 8.00005C12.8002 8.00005 13.4907 8.56149 13.6539 9.3449ZM12 11.0001C12.5523 11.0001 13 10.5523 13 10.0001C13 9.44777 12.5523 9.00005 12 9.00005C11.4477 9.00005 11 9.44777 11 10.0001C11 10.5523 11.4477 11.0001 12 11.0001Z"/>
</svg>
