<svg width="16" height="16" viewBox="0 0 16 16" fill="none" xmlns="http://www.w3.org/2000/svg">
<path fill-rule="evenodd" clip-rule="evenodd" d="M8 3C5.25 3 3 5.25 3 8C3 10.75 5.25 13 8 13C10.75 13 13 10.75 13 8C13 5.25 10.75 3 8 3ZM7.30005 8.61175L9.67205 10.0714C9.94461 10.2392 10.3015 10.1542 10.4693 9.88163C10.6383 9.60691 10.5505 9.24701 10.2739 9.08105L8.45005 7.98675V5.87499C8.45005 5.55742 8.19261 5.29999 7.87505 5.29999C7.55749 5.29999 7.30005 5.55742 7.30005 5.87499V8.61175Z" fill="#41414A"/>
</svg>
