<svg width="24" height="24" viewBox="0 0 24 24" xmlns="http://www.w3.org/2000/svg">
  <path d="M17.7071 7.70711C18.0976 7.31658 18.0976 6.68342 17.7071 6.29289C17.3166 5.90237 16.6834 5.90237 16.2929 6.29289L12 10.5857L7.7072 6.29289C7.31667 5.90237 6.68351 5.90237 6.29298 6.29289C5.90246 6.68342 5.90246 7.31658 6.29298 7.70711L10.5858 12L6.29289 16.2929C5.90237 16.6834 5.90237 17.3166 6.29289 17.7071C6.68342 18.0976 7.31658 18.0976 7.70711 17.7071L12 13.4142L16.293 17.7071C16.6835 18.0976 17.3167 18.0976 17.7072 17.7071C18.0977 17.3166 18.0977 16.6834 17.7072 16.2929L13.4143 12L17.7071 7.70711Z" />
</svg>
