<svg width="24" height="24" viewBox="0 0 24 24" xmlns="http://www.w3.org/2000/svg">
<path d="M19.6094 6.27614C20.1301 5.75544 20.1301 4.91122 19.6094 4.39052C19.0887 3.86983 18.2444 3.86983 17.7238 4.39052L12 10.1143L6.27625 4.39052C5.75555 3.86983 4.91134 3.86983 4.39064 4.39053C3.86995 4.91122 3.86995 5.75544 4.39064 6.27614L10.1144 11.9999L4.39052 17.7239C3.86983 18.2446 3.86983 19.0888 4.39052 19.6095C4.91122 20.1302 5.75543 20.1302 6.27612 19.6095L12 13.8856L17.7239 19.6095C18.2446 20.1302 19.0888 20.1302 19.6095 19.6095C20.1302 19.0888 20.1302 18.2446 19.6095 17.7239L13.8856 11.9999L19.6094 6.27614Z" />
</svg>
