<svg width="12" height="12" viewBox="0 0 12 12" fill="none" xmlns="http://www.w3.org/2000/svg">
  <path d="M11.707 1.70711C12.0975 1.31658 12.0975 0.683418 11.707 0.292893C11.3165 -0.0976311 10.6833 -0.0976311 10.2928 0.292893L5.99992 4.58574L1.70708 0.292894C1.31655 -0.0976306 0.683387 -0.0976306 0.292862 0.292894C-0.0976619 0.683418 -0.0976619 1.31658 0.292863 1.70711L4.58571 5.99995L0.292771 10.2929C-0.0977533 10.6834 -0.097753 11.3166 0.292771 11.7071C0.683296 12.0976 1.31646 12.0976 1.70698 11.7071L5.99992 7.41417L10.2929 11.7071C10.6834 12.0976 11.3166 12.0976 11.7071 11.7071C12.0976 11.3166 12.0976 10.6834 11.7071 10.2929L7.41414 5.99995L11.707 1.70711Z" />
</svg>
