<svg width="12" height="12" viewBox="0 0 12 12"  xmlns="http://www.w3.org/2000/svg">
<path fill-rule="evenodd" clip-rule="evenodd" d="M2 6C2 3.792 3.792 2 6 2C8.208 2 10 3.792 10 6C10 8.208 8.208 10 6 10C3.792 10 2 8.208 2 6ZM7.43846 4.56161C7.56488 4.68802 7.56488 4.89299 7.43846 5.0194L6.45772 6.00014L7.43846 6.98087C7.56487 7.10729 7.56487 7.31225 7.43846 7.43867C7.31204 7.56508 7.10708 7.56508 6.98066 7.43867L5.99993 6.45793L5.01921 7.43865C4.8928 7.56507 4.68784 7.56507 4.56142 7.43865C4.435 7.31224 4.435 7.10728 4.56142 6.98086L5.54214 6.00014L4.56141 5.01942C4.435 4.893 4.435 4.68804 4.56141 4.56162C4.68783 4.43521 4.89279 4.43521 5.01921 4.56162L5.99993 5.54235L6.98067 4.56161C7.10709 4.43519 7.31205 4.43519 7.43846 4.56161Z" />
</svg>
