<svg width="12" height="12" viewBox="0 0 12 12"  xmlns="http://www.w3.org/2000/svg">
<path d="M8.85355 3.85355C9.04882 3.65829 9.04882 3.34171 8.85355 3.14645C8.65829 2.95118 8.34171 2.95118 8.14645 3.14645L6.00002 5.29287L3.8536 3.14645C3.65834 2.95118 3.34175 2.95118 3.14649 3.14645C2.95123 3.34171 2.95123 3.65829 3.14649 3.85355L5.29292 5.99998L3.14645 8.14645C2.95118 8.34171 2.95118 8.65829 3.14645 8.85355C3.34171 9.04882 3.65829 9.04882 3.85355 8.85355L6.00002 6.70708L8.14649 8.85355C8.34176 9.04882 8.65834 9.04882 8.8536 8.85355C9.04886 8.65829 9.04886 8.34171 8.8536 8.14645L6.70713 5.99998L8.85355 3.85355Z" />
</svg>
