<svg width="24" height="24" viewBox="0 0 24 24" fill="none" xmlns="http://www.w3.org/2000/svg">
<path fill-rule="evenodd" clip-rule="evenodd" d="M4 8V9C4 12.3137 6.68629 15 10 15C13.3137 15 16 12.3137 16 9V8.5234C15.9996 8.50789 15.9996 8.4924 16 8.47695V8H4ZM18 7.05703V7C18 6.44772 17.5523 6 17 6H3C2.44772 6 2 6.44771 2 7V9C2 12.012 3.66458 14.6353 6.12399 16H4C3.44772 16 3 16.4477 3 17C3 17.5523 3.44772 18 4 18H16C16.5523 18 17 17.5523 17 17C17 16.4477 16.5523 16 16 16H13.876C14.8052 15.4844 15.6209 14.7892 16.2763 13.9612C16.3082 13.952 16.3399 13.9411 16.3714 13.9285L20.1854 12.4029C21.2813 11.9645 22 10.903 22 9.72263C22 7.70707 19.9869 6.31196 18.0996 7.01967L18 7.05703ZM17.9977 9.19389C17.9807 9.90675 17.8705 10.5965 17.6788 11.2515L19.4426 10.546C19.7792 10.4113 20 10.0852 20 9.72263C20 9.10348 19.3816 8.67493 18.8019 8.89232L17.9977 9.19389Z" fill="#231B22"/>
</svg>
