<svg width="12" height="12" viewBox="0 0 12 12"  xmlns="http://www.w3.org/2000/svg">
<path fill-rule="evenodd" clip-rule="evenodd" d="M7.55105 3.81638L4.74981 4.75013L3.81606 7.55138C3.68577 7.94226 4.05764 8.31412 4.44852 8.18383L7.24976 7.25008L8.18351 4.44884C8.3138 4.05796 7.94193 3.68609 7.55105 3.81638ZM6.45919 6.45951L6.9186 5.08129L5.54038 5.5407L5.08097 6.91892L6.45919 6.45951Z" />
<path fill-rule="evenodd" clip-rule="evenodd" d="M11 6C11 8.76142 8.76142 11 6 11C3.23858 11 1 8.76142 1 6C1 3.23858 3.23858 1 6 1C8.76142 1 11 3.23858 11 6ZM10 6C10 8.20914 8.20914 10 6 10C3.79086 10 2 8.20914 2 6C2 3.79086 3.79086 2 6 2C8.20914 2 10 3.79086 10 6Z" />
</svg>
