<svg width="12" height="12" viewBox="0 0 12 12"  xmlns="http://www.w3.org/2000/svg">
<path d="M4.14645 1.64645C4.34171 1.45118 4.65829 1.45118 4.85355 1.64645C5.04882 1.84171 5.04882 2.15829 4.85355 2.35355L3.20711 4H8C8.66304 4 9.29893 4.26339 9.76777 4.73223C10.2366 5.20107 10.5 5.83696 10.5 6.5V10C10.5 10.2761 10.2761 10.5 10 10.5C9.72386 10.5 9.5 10.2761 9.5 10V6.5C9.5 6.10218 9.34196 5.72064 9.06066 5.43934C8.77936 5.15804 8.39782 5 8 5H3.20711L4.85355 6.64645C5.04882 6.84171 5.04882 7.15829 4.85355 7.35355C4.65829 7.54882 4.34171 7.54882 4.14645 7.35355L1.64645 4.85355C1.45118 4.65829 1.45118 4.34171 1.64645 4.14645L4.14645 1.64645Z" />
</svg>
