<svg xmlns="http://www.w3.org/2000/svg" height="24" width="24"><path d="M.571 3.279c-.176.042-.305.132-.438.307l-.113.148v16.539l.122.153c.068.085.202.195.299.244l.176.09h22.766l.176-.09c.097-.049.231-.159.299-.244l.122-.153V3.727l-.124-.153a1.21 1.21 0 0 0-.26-.234c-.135-.079-.213-.08-11.516-.086C5.821 3.251.642 3.262.571 3.279M6.24 8v3.24H1.52V4.76h4.72V8m5-2.09c0 .668.018 1.212.042 1.299.108.39.52.618.92.51.22-.059.454-.287.513-.5.028-.099.045-.593.045-1.309V4.76h3.48v14.48h-3.48v-1.15c0-.668-.018-1.212-.042-1.299-.09-.324-.364-.524-.718-.524s-.628.2-.718.524c-.024.087-.042.631-.042 1.299v1.15H7.76V4.76h3.48v1.15M22.48 8v3.24h-4.72V4.76h4.72V8M11.7 10.217a.761.761 0 0 0-.384.399c-.067.149-.074.279-.074 1.384 0 1.346.01 1.411.263 1.647.375.351.954.22 1.179-.267.067-.145.074-.277.074-1.38 0-1.346-.01-1.411-.263-1.647a.752.752 0 0 0-.795-.136M6.24 16v3.24H1.52v-6.48h4.72V16m16.24 0v3.24h-4.72v-6.48h4.72V16" fill-rule="evenodd"/></svg>