<svg xmlns="http://www.w3.org/2000/svg" height="24" width="24" viewBox="0 0 24 24"><path d="M5.228.087C4.062.176 2.95.941 2.405 2.028a4.82 4.82 0 0 0-.231.6c-.093.308-.107.425-.11.932-.004.632.042.882.26 1.41.367.889 1.183 1.644 2.124 1.963l.378.128-.359.071C2.8 7.458 1.338 8.572.555 10.11c-.328.645-.59 1.595-.537 1.95.055.368.352.618.734.619a.856.856 0 0 0 .324-.057c.166-.086.356-.32.397-.491l.118-.495c.339-1.439 1.463-2.579 2.937-2.977.495-.134 1.234-.171 1.706-.085.184.034.344.07.355.082.012.012-.246 1.093-.573 2.403l-.595 2.381-1.721.001c-.946 0-1.791.017-1.877.037a.74.74 0 0 0-.348 1.247.806.806 0 0 0 .315.192c.12.033 1.487.042 4.898.033 5.3-.014 4.85.012 5.512-.316.271-.134.409-.237.681-.511.538-.541.549-.571 1.184-3.103.478-1.906.54-2.191.527-2.42a1.348 1.348 0 0 0-.088-.409 1.463 1.463 0 0 0-.615-.619l-.229-.112-2.96-.007-2.96-.007-.437-.145a5.9 5.9 0 0 0-.729-.19l-.291-.045.332-.107c1.239-.398 2.116-1.352 2.41-2.623.103-.442.094-1.166-.02-1.589C8.716 1.665 8.028.842 7.028.38 6.49.132 5.9.036 5.228.087M17.64.341a8.07 8.07 0 0 0-3.313 1.297c-.482.328-.576.468-.557.831.011.205.035.275.135.4.178.223.347.298.635.282.217-.013.275-.038.6-.257.728-.489 1.396-.789 2.122-.953 1.191-.27 2.37-.222 3.462.139.558.184 1.027.416 1.612.796.407.265.451.284.657.284.311 0 .526-.132.663-.407.115-.231.123-.302.062-.524-.061-.219-.23-.39-.668-.673A7.84 7.84 0 0 0 20.18.397c-.573-.114-1.956-.144-2.54-.056M6.077 1.622c.361.085.621.237.927.54.808.804.803 2.058-.012 2.87a1.983 1.983 0 0 1-1.052.555c-.985.202-2.008-.417-2.305-1.394-.069-.226-.081-.354-.069-.708.014-.415.022-.447.184-.774.129-.26.23-.398.427-.582a2.003 2.003 0 0 1 1.9-.507M18.24 3.538a9.377 9.377 0 0 1-.36.064c-.579.094-1.105.309-1.704.698-.365.237-.488.4-.521.687-.026.231.044.417.224.601.269.272.644.281 1.023.024.513-.348.966-.519 1.504-.568a3.182 3.182 0 0 1 2.081.498c.432.274.633.315.921.187.349-.154.519-.563.394-.944-.085-.258-.596-.623-1.282-.916-.538-.23-.932-.31-1.62-.329a7.995 7.995 0 0 0-.66-.002M13.039 8.97c-.017.18-.938 3.679-1.002 3.808a1.335 1.335 0 0 1-.565.55l-.172.092-2.173.011c-2.069.011-2.172.008-2.152-.06.012-.039.258-1.016.546-2.171.3-1.203.551-2.129.588-2.17.059-.065.226-.07 2.497-.07 1.339 0 2.434.005 2.433.01m4.641.17a3.777 3.777 0 0 0-1.433.675c-1.233.95-1.682 2.649-1.086 4.113.393.966 1.198 1.701 2.224 2.031l.332.107-.291.045a5.9 5.9 0 0 0-.729.19l-.437.145-2.96.007-2.96.007-.228.112a1.243 1.243 0 0 0-.711 1.108c.001.146.181.936.538 2.36.63 2.51.643 2.543 1.18 3.083.272.274.41.377.681.511.662.328.212.302 5.512.316 3.411.009 4.778 0 4.898-.033a.806.806 0 0 0 .315-.192.74.74 0 0 0-.348-1.247c-.086-.02-.931-.037-1.877-.037l-1.721-.001-.595-2.381c-.327-1.31-.585-2.392-.573-2.403.072-.072.767-.144 1.189-.123 1.853.092 3.396 1.349 3.809 3.103l.118.495c.041.171.231.405.397.491.172.089.507.073.695-.033.437-.248.472-.688.138-1.731-.595-1.858-2.281-3.345-4.224-3.726l-.359-.071.375-.127a3.525 3.525 0 0 0 2.399-3.546c-.086-1.487-1.063-2.719-2.528-3.189-.364-.116-1.335-.15-1.74-.059m1.165 1.46c.567.106 1.125.546 1.403 1.106.158.319.167.358.184.771.015.364.004.482-.067.714a2.054 2.054 0 0 1-1.665 1.416 1.993 1.993 0 0 1-1.687-.569c-.509-.509-.708-1.161-.573-1.883.092-.492.512-1.066.98-1.338.384-.223.938-.308 1.425-.217m-2.954 7.43c.037.041.288.967.588 2.17.288 1.155.534 2.132.546 2.171.02.068-.083.071-2.152.06L12.7 22.42l-.172-.092a1.335 1.335 0 0 1-.565-.55c-.064-.129-.985-3.628-1.002-3.808-.001-.005 1.094-.01 2.433-.01 2.271 0 2.438.005 2.497.07" fill-rule="evenodd"/></svg>