<svg xmlns="http://www.w3.org/2000/svg" viewBox="0 0 24 24" id="Working-Remotely-Team-2--Streamline-Ultimate.svg" height="24" width="24"><desc>Working Remotely Team 2 Streamline Icon: https://streamlinehq.com</desc><defs></defs><path d="M15.641 12.59a2.785 2.785 0 1 0 5.57 0 2.785 2.785 0 1 0 -5.57 0" fill="none" stroke="#000000" stroke-linecap="round" stroke-linejoin="round" stroke-width="1.5"></path><path d="M23.25 20.945a4.874 4.874 0 0 0 -6.762 -3.778" fill="none" stroke="#000000" stroke-linecap="round" stroke-linejoin="round" stroke-width="1.5"></path><path d="M22 23.2h-8.938a2 2 0 0 1 -1.941 -1.515l-0.966 -3.864a0.5 0.5 0 0 1 0.485 -0.621h5.079a1 1 0 0 1 0.97 0.757L18 23.2" fill="none" stroke="#000000" stroke-linecap="round" stroke-linejoin="round" stroke-width="1.5"></path><path d="M21.106 5.055a3.9 3.9 0 0 0 -4.712 0" fill="none" stroke="#000000" stroke-linecap="round" stroke-linejoin="round" stroke-width="1.5"></path><path d="M23 2.425h0a7.086 7.086 0 0 0 -8.5 0h0" fill="none" stroke="#000000" stroke-linecap="round" stroke-linejoin="round" stroke-width="1.5"></path><path d="M2.789 3.59a2.785 2.785 0 1 0 5.57 0 2.785 2.785 0 1 0 -5.57 0" fill="none" stroke="#000000" stroke-linecap="round" stroke-linejoin="round" stroke-width="1.5"></path><path d="M0.75 11.945a4.874 4.874 0 0 1 6.762 -3.778" fill="none" stroke="#000000" stroke-linecap="round" stroke-linejoin="round" stroke-width="1.5"></path><path d="M2 14.2h8.938a2 2 0 0 0 1.941 -1.515l0.966 -3.864a0.5 0.5 0 0 0 -0.485 -0.621H8.281a1 1 0 0 0 -0.97 0.757L6 14.2" fill="none" stroke="#000000" stroke-linecap="round" stroke-linejoin="round" stroke-width="1.5"></path></svg>