<svg width="24" height="24" viewBox="2 2 24 24" fill="none" xmlns="http://www.w3.org/2000/svg"><path d="M13.544 5.793c-.109.07-.719.945-2.107 3.021-1.618 2.421-2.624 3.896-2.741 4.018-.026.027-.019.03-2.489-1.377C3.337 9.819 3.438 9.871 3.1 9.87c-.24 0-.311.02-.455.131a.995.995 0 0 0-.242.266c-.148.287-.108.51.755 4.246l.712 3.08.124.537 9.994.012 9.995.012.047-.176c.116-.435 1.367-5.895 1.494-6.521.078-.385.142-.786.142-.892.001-.392-.389-.718-.86-.718-.228 0-.28.031-2.335 1.395-2.078 1.381-2.342 1.546-2.46 1.543-.034-.001-.88-1.055-1.881-2.343-2.411-3.102-3.636-4.638-3.75-4.699-.168-.089-.665-.06-.836.05M4.558 20.568c.308 1.339.327 1.392.569 1.599l.216.186h17.339l.2-.199c.164-.164.217-.264.303-.572.136-.491.382-1.538.382-1.629 0-.066-.947-.073-9.584-.073H4.399l.159.688" fill="#000" fill-rule="evenodd"/></svg>