<svg width="24" height="24" viewBox="0 0 24 24" xmlns="http://www.w3.org/2000/svg">
<path fill-rule="evenodd" clip-rule="evenodd" d="M14.3631 7.50898C14.0293 6.24081 14.9859 5 16.2972 5H18C18.5523 5 19 5.44772 19 6C19 6.55228 18.5523 7 18 7H16.2972L17.3505 11.0024C17.4001 11.0008 17.45 11 17.5 11C19.9853 11 22 13.0147 22 15.5C22 17.9853 19.9853 20 17.5 20C15.0147 20 13 17.9853 13 15.5C13 13.7667 13.98 12.2623 15.4161 11.5106L15.1471 10.4884L10.6433 13.7412C10.8729 14.2815 11 14.8759 11 15.5C11 17.9853 8.98528 20 6.5 20C4.01472 20 2 17.9853 2 15.5C2 13.0147 4.01472 11 6.5 11C6.99806 11 7.47723 11.0809 7.92507 11.2303L7.25597 9H6C5.44772 9 5 8.55228 5 8C5 7.44772 5.44772 7 6 7H9C9.55228 7 10 7.44772 10 8C10 8.43756 9.71897 8.80948 9.32757 8.94512L10.1361 11.6404L14.6016 8.41535L14.3631 7.50898ZM15.9498 13.5385C15.3712 13.9964 15 14.7049 15 15.5C15 16.8807 16.1193 18 17.5 18C18.8807 18 20 16.8807 20 15.5C20 14.2498 19.0823 13.214 17.8839 13.0293L18.4671 15.2455C18.6076 15.7796 18.2886 16.3265 17.7545 16.4671C17.2204 16.6076 16.6735 16.2886 16.5329 15.7545L15.9498 13.5385ZM7.77274 13.3473L5.91452 14.6893C5.4668 15.0127 5.36598 15.6378 5.68933 16.0855C6.01269 16.5332 6.63778 16.634 7.0855 16.3107L8.94376 14.9686C8.98063 15.1396 9 15.3174 9 15.5C9 16.8807 7.88071 18 6.5 18C5.11929 18 4 16.8807 4 15.5C4 14.1193 5.11929 13 6.5 13C6.96502 13 7.39965 13.126 7.77274 13.3473Z"/>
</svg>
