<svg width="24" height="24" viewBox="0 0 24 24" fill="none" xmlns="http://www.w3.org/2000/svg">
<path fill-rule="evenodd" clip-rule="evenodd" d="M12 2C12.5523 2 13 2.44772 13 3V5.06189C16.9463 5.55399 20 8.92038 20 13C20 17.4183 16.4183 21 12 21C7.58172 21 4 17.4183 4 13C4 8.92038 7.05369 5.55399 11 5.06189V3C11 2.44772 11.4477 2 12 2ZM12.0173 18.5069L12 18.5257L11.9827 18.5069C11.29 17.7565 10.7657 16.9044 10.4116 16H13.5884C13.2343 16.9044 12.71 17.7565 12.0173 18.5069ZM17.1973 16C16.5956 17.0401 15.6907 17.8828 14.6035 18.4073C15.0819 17.648 15.4492 16.8377 15.7044 16H17.1973ZM17.917 14H16.0966C16.1578 13.3352 16.1527 12.6649 16.0807 12H17.917C17.9716 12.3252 18 12.6593 18 13C18 13.3407 17.9716 13.6748 17.917 14ZM17.1973 10H15.654C15.3747 9.13662 14.9745 8.30219 14.4523 7.52242C15.6069 8.0401 16.568 8.91208 17.1973 10ZM12.3858 8.0831C12.8625 8.67897 13.2414 9.3248 13.5232 10H10.4768C10.7586 9.3248 11.1375 8.67897 11.6142 8.0831L12 7.6008L12.3858 8.0831ZM9.91401 14C9.83741 13.336 9.84388 12.6638 9.93401 12H14.066C14.1561 12.6638 14.1626 13.336 14.086 14H9.91401ZM9.39653 18.4073C8.91805 17.648 8.55081 16.8377 8.29564 16H6.80269C7.40435 17.0401 8.30927 17.8828 9.39653 18.4073ZM7.91928 12C7.84733 12.6649 7.84216 13.3352 7.90339 14H6.08296C6.0284 13.6748 6 13.3407 6 13C6 12.6593 6.0284 12.3252 6.08296 12H7.91928ZM9.54766 7.52242C9.02551 8.30219 8.62525 9.13662 8.34598 10H6.80269C7.43202 8.91208 8.39313 8.0401 9.54766 7.52242ZM18.268 21.5037L18.2857 21.5096C18.4206 21.5546 18.5265 21.6604 18.5715 21.7953C18.7087 22.2072 19.2913 22.2072 19.4286 21.7953C19.4736 21.6604 19.5794 21.5546 19.7143 21.5096L19.7321 21.5037C20.1382 21.3683 20.1382 20.7938 19.7321 20.6584C19.5875 20.6102 19.4775 20.4911 19.4406 20.3433C19.3262 19.8856 18.6739 19.8856 18.5595 20.3433C18.5225 20.4911 18.4125 20.6102 18.268 20.6584C17.8618 20.7938 17.8618 21.3683 18.268 21.5037ZM17.3224 5.5096L17.3046 5.50369C16.8985 5.3683 16.8985 4.79376 17.3046 4.65837C17.4491 4.6102 17.5591 4.49105 17.5961 4.34328C17.7105 3.88557 18.3628 3.88557 18.4772 4.34328C18.5142 4.49105 18.6242 4.6102 18.7687 4.65837C19.1749 4.79376 19.1749 5.3683 18.7687 5.50369L18.7509 5.5096C18.616 5.55457 18.5102 5.66042 18.4652 5.79532C18.3279 6.20718 17.7454 6.20718 17.6081 5.79532C17.5631 5.66042 17.4573 5.55457 17.3224 5.5096ZM4.07964 6.0492C3.87635 6.02016 3.7176 5.85834 3.69213 5.65457C3.62498 5.11734 2.84565 5.11734 2.77849 5.65457C2.75302 5.85834 2.59428 6.02016 2.39099 6.0492C1.86967 6.12367 1.86967 6.87634 2.39099 6.95082C2.59428 6.97986 2.75302 7.14167 2.77849 7.34545C2.84565 7.88267 3.62498 7.88267 3.69213 7.34544C3.7176 7.14167 3.87635 6.97986 4.07964 6.95082C4.60095 6.87634 4.60095 6.12367 4.07964 6.0492Z" fill="#231B22"/>
</svg>
