<svg width="24" height="24" viewBox="0 0 24 24" xmlns="http://www.w3.org/2000/svg">
<path fill-rule="evenodd" clip-rule="evenodd" d="M10.932 0.710436C10.8528 0.715116 10.5936 0.730476 10.356 0.74454C8.44634 0.857676 6.62721 1.18511 5.09997 1.69062C2.98612 2.39032 1.57651 3.36632 0.980826 4.54266C0.883338 4.73519 0.771618 5.07858 0.730554 5.31188C0.677298 5.61452 0.678882 17.0078 0.732234 17.3137C1.05525 19.166 3.39167 20.6872 7.07519 21.4435C7.91193 21.6152 9.05505 21.7801 9.29119 21.7631C9.49005 21.7488 9.71138 21.6316 9.86937 21.457C10.0405 21.2679 10.0923 21.1244 10.0907 20.844C10.0896 20.6469 10.0826 20.6151 10.0104 20.4798C9.96683 20.3983 9.8854 20.2838 9.82939 20.2254C9.66038 20.049 9.52708 20.0019 8.99661 19.9311C7.20782 19.6927 5.84373 19.343 4.63197 18.8124C3.43735 18.2892 2.6314 17.6036 2.5199 17.0156C2.4964 16.8918 2.48421 14.16 2.50715 14.16C2.5133 14.16 2.60779 14.218 2.71715 14.2889C4.07884 15.1719 6.2723 15.8531 8.7946 16.1763C9.24019 16.2334 9.38898 16.2234 9.58562 16.1231C9.73233 16.0482 9.92848 15.848 10.0013 15.6987C10.0601 15.5782 10.0671 15.5374 10.0675 15.312C10.0679 15.0702 10.0646 15.0539 9.98582 14.9085C9.89243 14.7363 9.72549 14.5745 9.56179 14.4975C9.49113 14.4643 9.32563 14.4278 9.11107 14.3982C7.80573 14.2178 6.9845 14.0519 6.07197 13.7844C5.08123 13.4939 4.19903 13.1067 3.55197 12.6785C3.20822 12.451 2.76431 12.0175 2.64647 11.7941C2.49626 11.5093 2.49597 11.5059 2.49597 9.99097C2.49597 9.23473 2.50175 8.61601 2.50883 8.61601C2.51591 8.61601 2.62495 8.68172 2.75114 8.76203C3.17243 9.03013 3.92599 9.39856 4.47597 9.60529C6.45263 10.3483 8.74468 10.7467 11.436 10.8148C11.9762 10.8285 12.0808 10.8252 12.2152 10.7905C12.6677 10.6734 12.9518 10.2504 12.8877 9.78911C12.8393 9.44123 12.5732 9.13938 12.2391 9.0536C12.1802 9.03848 11.8836 9.01984 11.58 9.01216C10.8892 8.99466 10.2526 8.96075 9.75597 8.91493C7.07743 8.6678 4.75811 7.98385 3.43922 7.05217C3.32303 6.97009 3.11344 6.78889 2.97347 6.64948C2.75337 6.43028 2.70472 6.3668 2.61376 6.18001C2.51464 5.97644 2.50857 5.95216 2.50828 5.75821C2.50799 5.56307 2.51344 5.54128 2.61369 5.33821C2.70561 5.152 2.75577 5.0877 2.99769 4.84602C3.20183 4.64212 3.35589 4.51516 3.57597 4.3695C3.92001 4.14179 4.58627 3.8072 5.07597 3.61621C6.5249 3.05116 8.38835 2.68206 10.512 2.53952C11.0857 2.50103 12.9143 2.50103 13.488 2.53952C16.0815 2.7136 18.2319 3.21448 19.8026 4.01044C20.3191 4.27213 20.6783 4.52236 21.002 4.84602C21.2352 5.07918 21.2959 5.15581 21.3782 5.32112C21.6134 5.79361 21.5138 6.15856 21.0126 6.66157C20.6829 6.99239 20.2748 7.26932 19.6724 7.57079C19.2 7.80726 19.0799 7.90266 18.9745 8.12519C18.7147 8.6739 19.0325 9.2943 19.632 9.40849C19.8602 9.45195 20.0487 9.40264 20.484 9.1856C20.8219 9.01708 21.089 8.86696 21.3285 8.71081L21.501 8.59835L21.5085 9.36918L21.516 10.14L21.5831 10.284C21.6719 10.4745 21.8563 10.6591 22.0414 10.743C22.1656 10.7992 22.221 10.8096 22.404 10.8107C22.5977 10.8119 22.6361 10.8043 22.776 10.7374C23.0188 10.6212 23.1965 10.4203 23.2696 10.1794C23.3203 10.0126 23.3201 5.59974 23.2694 5.31188C22.9997 3.77965 21.4241 2.49995 18.744 1.63645C17.3716 1.19432 15.7153 0.895908 13.848 0.754356C13.3901 0.719652 11.3069 0.688284 10.932 0.710436ZM16.404 9.06376C15.7374 9.20591 15.1172 9.72738 14.8826 10.343C14.8447 10.4426 14.7241 10.821 14.6146 11.184C14.5052 11.547 14.4078 11.8531 14.3984 11.8642C14.3889 11.8753 14.0749 11.8138 13.7006 11.7275C12.8048 11.521 12.7383 11.5106 12.421 11.5275C12.0981 11.5447 11.8982 11.5997 11.58 11.7588C11.0604 12.0185 10.7075 12.4297 10.5075 13.008C10.4304 13.2309 10.4286 13.2451 10.4286 13.644C10.4286 14.1121 10.452 14.226 10.6205 14.5801C10.7515 14.8556 10.826 14.9499 11.424 15.5972C11.6946 15.8902 11.916 16.1441 11.916 16.1615C11.916 16.1788 11.6848 16.4427 11.4022 16.748C10.8371 17.3582 10.7677 17.4453 10.63 17.7172C10.4661 18.0409 10.428 18.2187 10.428 18.66C10.428 19.1099 10.4679 19.2886 10.6445 19.6304C10.9946 20.3078 11.6234 20.7265 12.3986 20.7984C12.636 20.8204 12.9039 20.7784 13.6974 20.5946L14.3989 20.4321L14.4224 20.506C14.4354 20.5467 14.5393 20.8878 14.6534 21.264C14.7674 21.6402 14.8985 22.0236 14.9446 22.116C15.4255 23.0793 16.5213 23.5334 17.544 23.1932C18.0541 23.0235 18.5258 22.6107 18.7642 22.1252C18.8142 22.0234 18.9544 21.6112 19.0805 21.1952C19.2361 20.6821 19.3175 20.448 19.3404 20.448C19.3588 20.448 19.6722 20.5173 20.0369 20.6019C20.8732 20.7959 21.0177 20.8187 21.295 20.8002C22.216 20.739 22.9767 20.1149 23.2372 19.2069C23.2819 19.0515 23.2908 18.9615 23.2903 18.672C23.2898 18.2747 23.2434 18.052 23.0976 17.7446C22.98 17.4968 22.834 17.3137 22.2673 16.7035L21.7705 16.1686L21.8473 16.0802C21.8895 16.0316 22.1313 15.7683 22.3846 15.4951C22.638 15.222 22.8959 14.9223 22.9578 14.8293C23.4241 14.1279 23.419 13.1998 22.945 12.4859C22.4708 11.7716 21.6437 11.4088 20.82 11.5539C20.7144 11.5725 20.345 11.6535 19.9992 11.7339C19.6534 11.8142 19.3564 11.88 19.3392 11.88C19.3191 11.88 19.2272 11.6137 19.0805 11.13C18.839 10.334 18.743 10.1036 18.547 9.84901C18.2477 9.46036 17.7693 9.1587 17.299 9.06203C17.068 9.01455 16.6307 9.0154 16.404 9.06376ZM16.6871 10.8711C16.6449 10.8968 16.5949 10.9481 16.5761 10.985C16.5574 11.0218 16.443 11.3783 16.322 11.7771C16.201 12.1759 16.0793 12.5539 16.0516 12.6171C15.744 13.3167 14.9697 13.7639 14.2144 13.678C14.1046 13.6656 13.6882 13.5793 13.2893 13.4863C12.8058 13.3736 12.5388 13.3219 12.4884 13.3313C12.2886 13.3683 12.1652 13.5913 12.2382 13.7833C12.2504 13.8154 12.4865 14.0846 12.763 14.3815C13.3497 15.0116 13.4401 15.1217 13.5499 15.3399C13.6873 15.6127 13.7374 15.8337 13.7367 16.164C13.7359 16.5831 13.6385 16.8959 13.4098 17.2146C13.3646 17.2776 13.0964 17.5783 12.8138 17.8827C12.5312 18.1872 12.2811 18.4702 12.258 18.5118C12.1536 18.6993 12.2561 18.9198 12.4771 18.9832C12.5367 19.0003 12.6883 18.9731 13.2133 18.8511C14.2789 18.6034 14.3707 18.5917 14.7209 18.6587C15.2596 18.7617 15.7306 19.1047 15.9921 19.584C16.0473 19.6852 16.1618 20.0181 16.3182 20.532C16.5414 21.2655 16.5653 21.3297 16.6417 21.4006C16.75 21.5011 16.8659 21.5229 16.9834 21.4645C17.0326 21.44 17.0923 21.393 17.1161 21.36C17.1399 21.327 17.2632 20.9601 17.3901 20.5445C17.517 20.129 17.6528 19.7235 17.6919 19.6434C17.957 19.0995 18.4966 18.7204 19.1135 18.6447C19.3992 18.6095 19.5047 18.6251 20.435 18.8398C21.0702 18.9864 21.1697 19.0037 21.2502 18.9814C21.4252 18.9331 21.5366 18.7357 21.4822 18.5706C21.4641 18.5159 21.267 18.2849 20.9115 17.9015C20.3567 17.3035 20.1782 17.0712 20.0872 16.829C19.9705 16.5184 19.9388 16.14 20.0019 15.8121C20.0869 15.3702 20.2099 15.1824 20.9034 14.436C21.1978 14.1192 21.4533 13.8253 21.4713 13.7828C21.5178 13.6729 21.5122 13.6143 21.4442 13.4982C21.4 13.4228 21.3573 13.3858 21.2807 13.3566L21.1771 13.317L20.44 13.4871C19.5288 13.6973 19.3837 13.7185 19.1003 13.6821C18.4911 13.604 17.9547 13.2237 17.6911 12.6831C17.6516 12.6021 17.5164 12.198 17.3906 11.7852C17.2649 11.3724 17.1448 11.0084 17.1237 10.9762C17.0293 10.8322 16.8297 10.7841 16.6871 10.8711ZM16.4583 13.9099C15.5739 14.0698 14.8738 14.7196 14.6372 15.6C14.5629 15.8768 14.5572 16.4104 14.6257 16.68C14.8736 17.6547 15.6388 18.3279 16.6237 18.438C17.0102 18.4812 17.4259 18.4147 17.7981 18.2501C18.432 17.9697 18.94 17.3403 19.0943 16.644C19.1516 16.3857 19.1514 15.9409 19.094 15.684C18.8249 14.4809 17.6551 13.6935 16.4583 13.9099ZM16.7009 15.7085C16.5199 15.7659 16.3682 15.9737 16.3682 16.164C16.3682 16.3702 16.5422 16.5848 16.7447 16.6282C17.0561 16.695 17.328 16.48 17.328 16.1669C17.328 15.8246 17.0274 15.6048 16.7009 15.7085Z"/>
</svg>