<svg width="64" height="64" viewBox="0 0 64 64" fill="none" xmlns="http://www.w3.org/2000/svg">
<path fill-rule="evenodd" clip-rule="evenodd" d="M32.001 58.7055C45.4378 57.186 55.8793 45.7817 55.8793 31.9387C55.8793 18.0957 45.4378 6.69138 32.001 5.17193C33.0054 5.05835 34.0266 5 35.0614 5C49.9392 5 62.0001 17.0609 62.0001 31.9387C62.0001 46.8165 49.9392 58.8774 35.0614 58.8774C34.0266 58.8774 33.0054 58.8191 32.001 58.7055Z" fill="#A880FF"/>
<path d="M32.001 58.7055L31.8632 57.4875L31.8633 59.9234L32.001 58.7055ZM32.001 5.17193L31.8632 3.95398L31.8632 6.38988L32.001 5.17193ZM54.6536 31.9387C54.6536 45.151 44.6874 56.0374 31.8632 57.4875L32.1387 59.9234C46.1882 58.3347 57.105 46.4124 57.105 31.9387H54.6536ZM31.8632 6.38988C44.6874 7.84004 54.6536 18.7264 54.6536 31.9387H57.105C57.105 17.465 46.1882 5.54271 32.1387 3.95398L31.8632 6.38988ZM32.1387 6.38988C33.0975 6.28146 34.0727 6.22571 35.0614 6.22571V3.77429C33.9805 3.77429 32.9133 3.83524 31.8632 3.95398L32.1387 6.38988ZM35.0614 6.22571C49.2623 6.22571 60.7744 17.7378 60.7744 31.9387H63.2258C63.2258 16.3839 50.6162 3.77429 35.0614 3.77429V6.22571ZM60.7744 31.9387C60.7744 46.1396 49.2623 57.6517 35.0614 57.6517V60.1031C50.6162 60.1031 63.2258 47.4935 63.2258 31.9387H60.7744ZM35.0614 57.6517C34.0727 57.6517 33.0975 57.596 32.1387 57.4875L31.8633 59.9234C32.9133 60.0422 33.9805 60.1031 35.0614 60.1031V57.6517Z" fill="#1B1340" stroke="none"/>
<circle cx="28.9387" cy="31.9387" r="26.9387" stroke="#1B1340" stroke-width="2.45142" fill="none"/>
<path d="M20.8572 42.8935V44.5101H37.0204V42.8935C37.0204 40.4333 36.1616 38.0464 34.5854 36.1253L32.9786 34.1671C31.798 32.7283 31.798 30.6837 32.9786 29.2449L28.9388 33.0306L24.899 29.2449C26.0796 30.6837 26.0796 32.7283 24.899 34.1671L23.2922 36.1253C21.7159 38.0464 20.8572 40.4333 20.8572 42.8935Z" fill="#A880FF" stroke="#1B1340" stroke-width="1.79591" stroke-linecap="round" stroke-linejoin="round"/>
<path d="M20.8572 21.0113V19.3673H37.0204V21.0113C37.0204 23.513 36.1616 25.9402 34.5854 27.8937L32.9786 29.885C31.798 31.3481 31.798 33.4272 32.9786 34.8904L34.5854 36.8817C36.1616 38.8352 37.0204 41.2624 37.0204 43.7641V45.4081H20.8572V43.7641C20.8572 41.2624 21.7159 38.8352 23.2922 36.8817L24.899 34.8904C26.0796 33.4272 26.0796 31.3481 24.899 29.885L23.2922 27.8937C21.7159 25.9402 20.8572 23.513 20.8572 21.0113Z" stroke="#1B1340" stroke-width="2.69387" stroke-linecap="round" stroke-linejoin="round" fill="none"/>
</svg>
