<svg width="12" height="12" viewBox="0 0 12 12"  xmlns="http://www.w3.org/2000/svg">
<path fill-rule="evenodd" clip-rule="evenodd" d="M6.50011 2.00001C6.50012 1.72387 6.27626 1.50001 6.00012 1.5C5.72398 1.49999 5.50012 1.72385 5.50011 1.99999L5.50005 4.99999C5.50005 5.27613 5.7239 5.49999 6.00004 5.5C6.27618 5.50001 6.50004 5.27615 6.50005 5.00001L6.50011 2.00001ZM3.80942 3.39279C4.02634 3.2219 4.06365 2.90752 3.89276 2.69061C3.72187 2.4737 3.40749 2.43639 3.19058 2.60727C2.1625 3.41722 1.5 4.66593 1.5 6.06893C1.5 8.52431 3.52294 10.5 6 10.5C8.47706 10.5 10.5 8.52431 10.5 6.06893C10.5 4.66593 9.8375 3.41722 8.80942 2.60727C8.59251 2.43639 8.27813 2.4737 8.10724 2.69061C7.93635 2.90752 7.97366 3.2219 8.19058 3.39279C8.99142 4.02371 9.5 4.98906 9.5 6.06893C9.5 7.95572 7.94122 9.50003 6 9.50003C4.05878 9.50003 2.5 7.95572 2.5 6.06893C2.5 4.98906 3.00858 4.02371 3.80942 3.39279Z" />
</svg>
