<svg width="12" height="12" viewBox="0 0 12 12"  xmlns="http://www.w3.org/2000/svg">
<path d="M4.9011 9.15001V7.35002H2.39543C2.26708 7.3515 2.13996 7.32459 2.02286 7.27117C1.90576 7.21775 1.80149 7.13909 1.71727 7.04064C1.63305 6.94219 1.5709 6.8263 1.53511 6.70101C1.49932 6.57572 1.49077 6.44402 1.51003 6.31503L2.12095 2.26505C2.15297 2.05045 2.26021 1.85483 2.42291 1.71425C2.58562 1.57368 2.79282 1.4976 3.00635 1.50006H8V6.45003L6.2292 10.5C5.87697 10.5 5.53916 10.3578 5.29009 10.1046C5.04103 9.85142 4.9011 9.50805 4.9011 9.15001Z" />
<path d="M9.58549 1.5C9.82803 1.5 10.0606 1.59578 10.2321 1.76627C10.4037 1.93675 10.5 2.16799 10.5 2.40909V5.59091C10.5 5.83202 10.4037 6.06325 10.2321 6.23373C10.0606 6.40422 9.82803 6.5 9.58549 6.5H8.5V1.5H9.58549Z" />
</svg>
