<svg width="12" height="12" viewBox="0 0 12 12"  xmlns="http://www.w3.org/2000/svg">
<path fill-rule="evenodd" clip-rule="evenodd" d="M6.3847 11C6.58121 11 6.7595 10.8849 6.84038 10.7058L8.53654 6.95003H9.58549C9.95808 6.95003 10.317 6.80444 10.5829 6.54279C10.849 6.28088 11 5.92394 11 5.55003L11 2.40005C11 2.02615 10.849 1.6692 10.5829 1.40729C10.317 1.14565 9.95808 1.00006 9.58549 1.00006L3.05841 1.00006C2.72061 0.997017 2.39183 1.11377 2.13245 1.33074C1.87223 1.54842 1.69906 1.85318 1.6472 2.1889L1.01632 6.23805L1.0162 6.23881C0.985073 6.44062 0.998925 6.64665 1.0567 6.84249C1.11446 7.0383 1.21463 7.21881 1.34973 7.37171C1.48481 7.52458 1.65153 7.64617 1.83804 7.72854C2.02358 7.8105 2.22459 7.85184 2.42736 7.85002L4.51293 7.85002V9.15001C4.51293 9.64326 4.71211 10.1147 5.064 10.461C5.41562 10.807 5.89084 11 6.3847 11ZM6.08524 9.94827L7.71372 6.34236L7.71372 2.00006L3.05032 2.00003C2.94809 1.99889 2.85003 2.03423 2.77407 2.09776C2.69831 2.16114 2.64991 2.2479 2.63554 2.3412L2.00451 6.39124L2.00444 6.39174C1.99587 6.44775 1.99973 6.50494 2.01583 6.55954C2.03199 6.61431 2.06023 6.66557 2.0991 6.70957C2.13801 6.7536 2.18668 6.78933 2.24207 6.8138C2.29748 6.83827 2.35798 6.85073 2.4193 6.85005L2.42487 6.85002L5.01293 6.85002C5.28908 6.85002 5.51293 7.07388 5.51293 7.35002L5.51293 9.15001C5.51293 9.37283 5.6028 9.58818 5.76543 9.74822C5.85627 9.83762 5.96568 9.90561 6.08524 9.94827Z" />
</svg>
