<svg xmlns="http://www.w3.org/2000/svg" viewBox="0 0 24 24" height="24" width="24" version="1.1">
  <path d="M1.944 0.015888000000000003C1.153824 0.14148 0.47961600000000004 0.653664 0.18513600000000002 1.351992C0.018816 1.746432 0.017088 1.760904 0.0064080000000000005 2.848104C-0.002712 3.7759679999999998 -0.000144 3.854952 0.048623999999999994 4.143648C0.222576 5.173704 0.800424 6.0729120000000005 1.6560000000000001 6.6449039999999995C1.79316 6.736608 2.1823680000000003 6.927936 2.844 7.228872C3.3852 7.47504 4.8702000000000005 8.150928 6.144 8.730816C11.658216000000001 11.241144 13.217616000000001 11.947776000000001 13.305384 11.975976000000001C13.436544 12.018096 13.691856000000001 11.995512 13.81908 11.930568000000001C13.973880000000001 11.851512 14.103096 11.722968 14.174520000000001 11.576976C14.227872 11.467968 14.241672000000001 11.397599999999999 14.257632 11.153136C14.309904 10.353408 14.575296 9.729576 15.095616000000001 9.183456C15.641808 8.610144 16.466328 8.256288 17.256 8.256288C18.079464 8.256288 18.964968 8.658432 19.49376 9.272544C19.813560000000003 9.64392 19.991471999999998 9.978024 20.15172 10.508016C20.344728 11.14644 20.667863999999998 11.546952 21.20064 11.808024C21.503448 11.956416 21.652800000000003 11.987784 22.056 11.987712C22.353144 11.98764 22.430304 11.979432 22.584 11.931576C23.107368 11.768616 23.53932 11.412528 23.781984 10.944C23.932224 10.653912 23.978808 10.471008 23.989848000000002 10.128C24.01104 9.468312 24.018168 1.9687679999999999 23.9976 1.981488C23.98572 1.988832 23.975808 1.964496 23.975592 1.927416C23.975352 1.890336 23.95536 1.7844 23.931144 1.692C23.722296 0.895416 23.139552000000002 0.310512 22.308 0.06288L22.14 0.01284 12.072000000000001 0.009600000000000001C6.534599999999999 0.0078000000000000005 1.977 0.010632 1.944 0.015888000000000003M2.024592 1.538184C1.828488 1.594992 1.59228 1.8358800000000002 1.5368160000000002 2.035632C1.523304 2.084232 1.512216 2.321112 1.512144 2.562L1.512 3 12 3L22.488 3 22.488 2.556912C22.488 2.166456 22.482048 2.097888 22.437936 1.979976C22.37112 1.801392 22.198608 1.62888 22.020024 1.562064L21.8862 1.512 11.993088 1.5141600000000002C6.126024 1.515456 2.069328 1.5252240000000001 2.024592 1.538184M0.010944 2.952C0.010944 3.4866 0.014112 3.705312 0.017976 3.438C0.021840000000000002 3.170712 0.021840000000000002 2.733312 0.017976 2.466C0.014112 2.198712 0.010944 2.4173999999999998 0.010944 2.952M1.7551919999999999 4.566C1.916688 4.868040000000001 2.207592 5.19744 2.465784 5.370648C2.5418160000000003 5.421624 3.395832 5.823456 4.363632 6.263616L6.12324 7.063872 6.979632 6.211704000000001C7.96404 5.23212 7.949904 5.242368 8.290848 5.261112C8.515728000000001 5.273448 8.628528 5.3221680000000005 8.777735999999999 5.471376C8.93664 5.63028 8.988 5.759424 8.988 6C8.988 6.319512 8.972016 6.3426 8.233872 7.089072C7.883039999999999 7.4438640000000005 7.6068 7.738656000000001 7.62 7.7442C7.6332 7.74972 7.995 7.914599999999999 8.424 8.11056L9.204 8.466887999999999 10.008000000000001 7.670736C10.92276 6.764880000000001 10.932792000000001 6.757464 11.244 6.756696C11.405832 6.7562880000000005 11.457336 6.76668 11.571864 6.8228159999999995C11.72112 6.896016 11.848296 7.022184 11.9328 7.1809199999999995C12.012960000000001 7.331568000000001 12.012144 7.669104 11.93124 7.824C11.896152 7.891176 11.648328 8.159688000000001 11.275704000000001 8.534328L10.676568000000001 9.136656 11.766528 9.632328C12.366 9.904944 12.862680000000001 10.128 12.87024 10.128C12.877824 10.128 12.924096 10.006512 12.97308 9.858C13.502640000000001 8.252352 14.860752 7.090631999999999 16.5336 6.812352000000001C16.892976 6.752568000000001 17.509728 6.742056 17.844 6.7899840000000005C18.841416 6.933048 19.733232 7.376304 20.434464000000002 8.077536C20.956775999999998 8.599848 21.30828 9.181344 21.54336 9.912C21.669336 10.303488 21.708408000000002 10.372872 21.841056000000002 10.440552C22.061664 10.553088 22.329096 10.465248 22.442544 10.24296C22.486392 10.157064 22.488 10.05372 22.488 7.332960000000001L22.488 4.5120000000000005 12.10716 4.5120000000000005L1.7263200000000003 4.5120000000000005 1.7551919999999999 4.566M1.6023120000000002 12.023280000000002C1.17036 12.101712000000001 0.718656 12.372888000000001 0.433608 12.724896C0.28404 12.9096 0.143232 13.175952 0.068232 13.416L0.012 13.596 0.012 17.844C0.012 21.94452 0.013583999999999999 22.09824 0.057791999999999996 22.272000000000002C0.269592 23.104776 0.895224 23.730408 1.728 23.942208C1.9036799999999998 23.986895999999998 2.1498239999999997 23.988 12 23.988C21.850176 23.988 22.09632 23.986895999999998 22.272000000000002 23.942208C23.093184 23.733336 23.719079999999998 23.116848 23.931144 22.308C23.95536 22.2156 23.975352 22.110936 23.975592 22.075416C23.975808 22.039896 23.986800000000002 22.004160000000002 24 21.996000000000002C24.015888 21.986184 24.022008 20.576088 24.01812 17.824584L24.012264 13.668000000000001 24 16.884C23.993256000000002 18.652800000000003 23.985096000000002 20.069304 23.98188 20.031768000000003C23.969112 19.8834 23.873376 19.464744 23.806152 19.263408000000002C23.611344000000003 18.679872 23.179512 18.031824 22.728 17.645496C22.380288 17.347992 22.183248000000003 17.238384 21.156 16.771128C20.614800000000002 16.52496 19.129800000000003 15.849072000000001 17.856 15.269184000000001C12.341784 12.758856000000002 10.782384 12.052224 10.694616 12.024023999999999C10.563456 11.981904 10.308144 12.004488 10.18092 12.069431999999999C10.026048000000001 12.148512 9.89688 12.277056 9.82536 12.42324C9.772392 12.531528000000002 9.758136 12.602808 9.743088 12.835104000000001C9.720504 13.183368000000002 9.688056 13.364111999999999 9.595704000000001 13.656C9.250728 14.746416 8.316384000000001 15.534744 7.164000000000001 15.707688C6.861960000000001 15.753024 6.626424 15.753312000000001 6.336 15.708696C5.433216 15.569976 4.713816 15.105072000000002 4.219392 14.340816C4.057536 14.090664 3.9659519999999997 13.881167999999999 3.84828 13.491984000000002C3.69984 13.00092 3.494232 12.678552000000002 3.1654079999999998 12.421272C2.970432 12.268704000000001 2.670552 12.114264 2.46 12.057984C2.293872 12.013584 1.772112 11.992464 1.6023120000000002 12.023280000000002M1.764 13.55196C1.6581839999999999 13.60788 1.6083120000000002 13.657392 1.5574560000000002 13.757040000000002C1.513608 13.842936 1.512 13.946280000000002 1.512 16.66704L1.512 19.488 11.892840000000001 19.488L22.273680000000002 19.488 22.244808 19.434C22.083312000000003 19.13196 21.792408000000002 18.802560000000003 21.534216 18.629352C21.458184 18.578376000000002 20.604167999999998 18.176544 19.636368 17.736384L17.87676 16.936128 17.020368 17.788296C16.03596 18.76788 16.050096 18.757632 15.709152 18.738888000000003C15.484272 18.726552 15.371471999999999 18.677832000000002 15.222264 18.528624C15.06336 18.36972 15.012 18.240576 15.012 18C15.012 17.680488 15.027984000000002 17.657400000000003 15.766128 16.910928C16.11696 16.556136000000002 16.3932 16.261344 16.38 16.2558C16.3668 16.25028 16.005 16.0854 15.576 15.889439999999999L14.796000000000001 15.533112 13.992 16.329264C13.07724 17.235120000000002 13.067207999999999 17.242536 12.756 17.243304000000002C12.594168 17.243712000000002 12.542664 17.23332 12.428136000000002 17.177184C12.278880000000001 17.103984 12.151704 16.977816 12.0672 16.81908C11.98704 16.668432000000003 11.987856 16.330896 12.068760000000001 16.176000000000002C12.103848000000001 16.108824000000002 12.351672 15.840312 12.724295999999999 15.465672000000001L13.323432 14.863344000000001 12.233472 14.367672C11.634 14.095056 11.13732 13.872 11.129760000000001 13.872C11.122176 13.872 11.076 13.993512 11.027136 14.142C10.50012 15.743856000000001 9.137064 16.909728 7.466400000000001 17.187648000000003C7.107024 17.247432 6.490272 17.257944000000002 6.156 17.210016C5.158584 17.066952 4.266768000000001 16.623696 3.565536 15.922464000000002C3.017712 15.374640000000001 2.64936 14.750496000000002 2.420016 13.981512C2.380896 13.850351999999999 2.3270880000000003 13.7124 2.300424 13.674984000000002C2.195424 13.527528000000002 1.926816 13.465944 1.764 13.55196M0.011736 17.856C0.011736 20.1462 0.014544 21.083088 0.018000000000000002 19.938C0.021456 18.792888 0.021456 16.919088 0.018000000000000002 15.774000000000001C0.014544 14.628888000000002 0.011736 15.565800000000001 0.011736 17.856M1.512 21.443088C1.512 21.833544 1.517952 21.902112 1.562064 22.020024C1.62888 22.198608 1.801392 22.37112 1.979976 22.437936L2.1138 22.488 12 22.488L21.8862 22.488 22.020024 22.437936C22.198608 22.37112 22.37112 22.198608 22.437936 22.020024C22.482048 21.902112 22.488 21.833544 22.488 21.443088L22.488 21 12 21L1.512 21 1.512 21.443088" stroke="none" fill="#000000" fill-rule="evenodd" stroke-width="0.024"></path>
</svg>
