<svg viewBox="0 0 24 24" xmlns="http://www.w3.org/2000/svg" id="Water-Fountain-Drink--Streamline-Ultimate.svg" height="24" width="24"><desc>Water Fountain Drink Streamline Icon: https://streamlinehq.com</desc><path d="M23.25 18.75a6 6 0 0 1 -6 -6h6" fill="none" stroke="#000000" stroke-linecap="round" stroke-linejoin="round" stroke-width="1.5"></path><path d="M21.75 12.75v-0.427h0Zm0 -3.427V8.25a3.033 3.033 0 0 0 -0.03 -0.427h0a3.033 3.033 0 0 1 0.03 0.427Zm-6 -1.073h0a3.013 3.013 0 0 1 0.366 -1.438 3.013 3.013 0 0 0 -0.366 1.438ZM20 5.521a2.984 2.984 0 0 0 -1.25 -0.271c-0.082 0 -0.15 0 -0.214 0.008h0c0.064 0 0.132 -0.007 0.214 -0.008a2.968 2.968 0 0 1 1.25 0.271Z" fill="none" stroke="#000000" stroke-linecap="round" stroke-linejoin="round" stroke-width="1.5"></path><path d="M8.625 3.375a2.625 2.625 0 1 0 5.25 0 2.625 2.625 0 1 0 -5.25 0Z" fill="none" stroke="#000000" stroke-linecap="round" stroke-linejoin="round" stroke-width="1.5"></path><path d="M2.25 23.25a1.5 1.5 0 0 1 -1.5 -1.5v-6.372a4.5 4.5 0 0 1 1.115 -2.965l4.506 -5.15A1.5 1.5 0 0 1 8.979 8l0.453 2.719a1.5 1.5 0 0 0 1.006 1.181l2.787 0.929a1.5 1.5 0 0 1 -0.95 2.845l-2.786 -0.929a4.491 4.491 0 0 1 -2.932 -3.136l-2.435 2.78a1.5 1.5 0 0 0 -0.372 0.989v6.372a1.5 1.5 0 0 1 -1.5 1.5Z" fill="none" stroke="#000000" stroke-linecap="round" stroke-linejoin="round" stroke-width="1.5"></path></svg>