<svg xmlns="http://www.w3.org/2000/svg" height="24" width="24" viewBox="0 0 24 24"><path d="M10.621.062A3.518 3.518 0 0 0 8.94.929a3.367 3.367 0 0 0-.722 3.913A3.284 3.284 0 0 0 9.78 6.403c.484.238.87.327 1.44.332.939.007 1.698-.296 2.373-.951a3.255 3.255 0 0 0 1.02-2.384A3.341 3.341 0 0 0 12.18.141a3.723 3.723 0 0 0-1.559-.079m1.419 1.622c.344.164.682.477.85.785.301.553.301 1.297.001 1.811-.143.243-.472.585-.682.708-.627.368-1.474.332-2.042-.086-.586-.432-.839-1.03-.759-1.8.067-.65.583-1.274 1.249-1.511.159-.057.299-.07.643-.061.411.01.46.02.74.154m6.152 2.918a.964.964 0 0 0-.26.225c-.099.129-.112.181-.112.433s.013.304.112.433c.176.231.343.293.848.318.362.017.503.044.791.149.284.104.386.124.528.102.617-.092.867-.842.421-1.266-.288-.274-1.026-.475-1.74-.474-.358.001-.468.016-.588.08M7.2 6.026a2.37 2.37 0 0 0-1.118.487c-.246.201-4.925 5.556-5.164 5.911A5.637 5.637 0 0 0 .109 14.3c-.083.351-.086.451-.099 4.028-.011 3.205-.005 3.701.049 3.935.186.803.875 1.49 1.686 1.681a2.45 2.45 0 0 0 1.27-.078c.654-.238 1.161-.771 1.396-1.466.086-.258.087-.291.108-3.782.019-3.166.028-3.532.086-3.62a90.193 90.193 0 0 1 1.653-1.911c.041-.043.094.012.284.3.287.434 1.004 1.159 1.418 1.433.165.11.434.266.598.349.253.127 3.435 1.214 3.778 1.29.186.041.675.029.887-.022.638-.152 1.239-.63 1.507-1.197.179-.381.243-.659.238-1.04-.01-.809-.502-1.596-1.217-1.947-.138-.067-.913-.343-1.722-.612-1.52-.505-1.645-.562-1.774-.81-.034-.066-.176-.797-.315-1.625-.145-.866-.291-1.608-.342-1.746-.355-.956-1.41-1.587-2.398-1.434m8.548.138c-.189.1-.347.342-.503.776-.223.615-.307 1.319-.19 1.591a.982.982 0 0 0 .438.427c.351.132.816-.071.945-.413.024-.063.061-.285.083-.494.025-.244.076-.467.143-.625.22-.522.227-.551.18-.76a1.06 1.06 0 0 0-.125-.307c-.185-.26-.665-.357-.971-.195m5.672.973a.852.852 0 0 0-.393.423c-.046.114-.052.316-.032 1.086l.025.947.122.153c.068.085.203.196.3.247.341.178.787.025.974-.333.078-.148.084-.223.081-1-.001-.538-.02-.901-.051-1.011-.06-.206-.258-.441-.434-.515a.872.872 0 0 0-.592.003m-13.584.455a.918.918 0 0 1 .251.21c.106.132.13.238.37 1.663.261 1.539.332 1.831.528 2.168.141.241.542.64.787.781.105.062.881.342 1.724.624.842.282 1.571.533 1.619.559.133.071.315.347.344.52.073.429-.295.879-.719.882-.168.001-3.175-1.008-3.509-1.178-.929-.472-1.561-1.227-1.911-2.281-.119-.359-.174-.442-.379-.562a.83.83 0 0 0-.723-.029c-.1.048-.543.525-1.451 1.563-.719.821-1.365 1.585-1.435 1.696a2.9 2.9 0 0 0-.219.447l-.092.245-.02 3.54c-.023 3.877-.008 3.644-.256 3.875-.1.094-.462.215-.557.186a2.702 2.702 0 0 0-.157-.038c-.134-.029-.374-.235-.453-.387-.091-.176-.086-7.024.006-7.468.088-.428.26-.854.49-1.212.281-.438 4.93-5.74 5.096-5.813.178-.078.502-.073.666.009m13.757 4.007a.685.685 0 0 0-.44.281l-.088.12-1.983.001c-1.841.001-1.993.006-2.142.075-.337.155-.432.353-.425.884.036 2.678 1.835 5.172 4.416 6.124.871.321 2.176.502 2.597.361.293-.099.499-.454.461-.794-.023-.201-.104-.33-.319-.504-.133-.108-.18-.119-.597-.149-.616-.043-.932-.099-1.383-.243-1.411-.452-2.497-1.385-3.144-2.7-.225-.458-.466-1.208-.466-1.451v-.084h2.558c1.709 0 2.626-.015 2.763-.044a.743.743 0 0 0 .589-.82c-.024-.207-.104-.334-.326-.514-.15-.121-.156-.122-.703-.136-.54-.013-.553-.015-.605-.113-.062-.116-.323-.275-.496-.302a.972.972 0 0 0-.267.008" fill-rule="evenodd"/></svg>