<svg width="12" height="12" viewBox="0 0 12 12" xmlns="http://www.w3.org/2000/svg">
<path d="M8.256 6.13415L7.93039 5.83352L6.28112 7.61982L6.60674 7.92046C7.19233 8.46113 7.22875 9.37414 6.68808 9.95973C6.25941 10.424 5.59667 10.5431 5.04863 10.303C4.98826 10.4498 4.90123 10.5886 4.78723 10.7121C4.2727 11.2693 3.40382 11.304 2.84654 10.7895L1.44173 9.49243C0.884449 8.9779 0.849793 8.10902 1.36433 7.55174C1.47832 7.42827 1.60972 7.33046 1.75126 7.25858C1.4683 6.73142 1.53421 6.0613 1.96288 5.59701C2.50354 5.01142 3.41655 4.97501 4.00214 5.51567L4.24413 5.73909L5.89339 3.95279L5.6514 3.72935C5.06581 3.18869 5.02939 2.27568 5.57006 1.69009C5.99779 1.22682 6.65855 1.10726 7.20588 1.34523C7.26645 1.20165 7.35251 1.06595 7.46431 0.944851C7.98248 0.383634 8.85749 0.348733 9.41871 0.866897L10.8093 2.15078C11.3705 2.66894 11.4054 3.54395 10.8872 4.10517C10.7754 4.22626 10.647 4.32285 10.5087 4.39466C10.7895 4.92131 10.723 5.58952 10.2953 6.05281C9.75459 6.63839 8.84159 6.67481 8.256 6.13415Z" />
</svg>
