<svg width="12" height="12" viewBox="0 0 12 12"  xmlns="http://www.w3.org/2000/svg">
<path fill-rule="evenodd" clip-rule="evenodd" d="M8.3954 6.16784L8.0698 5.86721L6.42053 7.65351L6.74615 7.95416C7.33174 8.49482 7.36815 9.40783 6.82749 9.99342C6.39881 10.4577 5.73607 10.5768 5.18804 10.3367C5.12767 10.4835 5.04063 10.6223 4.92663 10.7458C4.4121 11.303 3.54322 11.3377 2.98594 10.8232L1.58114 9.52612C1.02385 9.01159 0.989197 8.14272 1.50373 7.58543C1.61773 7.46196 1.74912 7.36415 1.89066 7.29228C1.60771 6.76511 1.67361 6.09499 2.10228 5.6307C2.64295 5.04512 3.55596 5.0087 4.14155 5.54936L4.38353 5.77278L6.0328 3.98648L5.7908 3.76305C5.20521 3.22238 5.1688 2.30937 5.70946 1.72378C6.13719 1.26051 6.79796 1.14095 7.34528 1.37892C7.40586 1.23534 7.49191 1.09964 7.60372 0.978542C8.12188 0.417325 8.9969 0.382424 9.55811 0.900588L10.9487 2.18447C11.5099 2.70263 11.5448 3.57765 11.0266 4.13886C10.9148 4.25995 10.7864 4.35654 10.6481 4.42836C10.929 4.955 10.8624 5.62322 10.4347 6.0865C9.894 6.67209 8.98099 6.7085 8.3954 6.16784ZM9.67496 4.78196C9.85477 4.94798 9.86595 5.22832 9.69994 5.40813C9.53392 5.58794 9.25357 5.59913 9.07376 5.43311L6.46916 3.02832C6.28935 2.8623 6.27817 2.58195 6.44419 2.40214C6.6102 2.22233 6.89055 2.21115 7.07036 2.37717L9.67496 4.78196ZM6.76753 4.66484L7.33507 5.18885L5.6858 6.97515L5.11826 6.45115L6.76753 4.66484ZM6.09276 9.31506C6.25878 9.13525 6.24759 8.8549 6.06778 8.68888L3.46318 6.28409C3.28337 6.11807 3.00303 6.12926 2.83701 6.30907C2.67099 6.48888 2.68218 6.76922 2.86199 6.93524L5.46659 9.34003C5.6464 9.50605 5.92674 9.49487 6.09276 9.31506ZM4.19191 10.0674C4.33179 9.91589 4.32237 9.67967 4.17086 9.53979L2.76606 8.24275C2.61455 8.10287 2.37834 8.11229 2.23846 8.2638C2.09857 8.4153 2.108 8.65152 2.2595 8.7914L3.6643 10.0884C3.81581 10.2283 4.05202 10.2189 4.19191 10.0674ZM10.2919 3.4605C10.4354 3.30506 10.4257 3.06271 10.2703 2.9192L8.87975 1.63531C8.72431 1.4918 8.48196 1.50147 8.33845 1.65691C8.19493 1.81234 8.2046 2.05469 8.36004 2.19821L9.75059 3.48209C9.90603 3.6256 10.1484 3.61594 10.2919 3.4605Z" />
</svg>
