<svg width="24" height="24" viewBox="0 0 24 24" fill="none" xmlns="http://www.w3.org/2000/svg">
<path fill-rule="evenodd" clip-rule="evenodd" d="M4 4H20V20H4V4ZM2 4C2 2.89543 2.89543 2 4 2H20C21.1046 2 22 2.89543 22 4V20C22 21.1046 21.1046 22 20 22H4C2.89543 22 2 21.1046 2 20V4ZM8.79998 8.06666C8.39998 7.53333 7.59998 7.53333 7.19998 8.06666L6.19998 9.4C5.70556 10.0592 6.17594 11 6.99998 11H8.99998C9.82403 11 10.2944 10.0592 9.79998 9.4L8.79998 8.06666ZM8.80002 14.9333C8.40002 15.4667 7.60002 15.4667 7.20002 14.9333L6.20002 13.6C5.70559 12.9408 6.17597 12 7.00002 12H9.00002C9.82406 12 10.2944 12.9408 9.80002 13.6L8.80002 14.9333ZM15.5 8C15.5 8.55228 15.0523 9 14.5 9C13.9477 9 13.5 8.55228 13.5 8C13.5 7.44772 13.9477 7 14.5 7C15.0523 7 15.5 7.44772 15.5 8ZM13.5 10.5228C13.5 9.97924 13.9341 9.53524 14.4775 9.52301C14.7096 9.51779 14.9246 9.59196 15.097 9.72046C15.1923 9.76671 15.2738 9.84348 15.325 9.9453L15.3277 9.95043C15.331 9.95644 15.3369 9.96733 15.3457 9.98242C15.3633 10.0127 15.392 10.0594 15.4324 10.1175C15.5135 10.2342 15.6394 10.3932 15.814 10.5549C16.1605 10.8757 16.6946 11.2048 17.4668 11.2444C17.7426 11.2585 17.9547 11.4935 17.9405 11.7693C17.9264 12.0451 17.6914 12.2572 17.4156 12.2431C16.5981 12.2011 15.9657 11.9173 15.5 11.586V13.5H16.7071C16.8397 13.5 16.9669 13.5527 17.0606 13.6464L18.8535 15.4393C19.0488 15.6346 19.0488 15.9512 18.8535 16.1464C18.6583 16.3417 18.3417 16.3417 18.1464 16.1464L16.5 14.5H14.5C13.95 14.5 13.5 14.05 13.5 13.5V10.5228ZM14.915 15C14.71 15.58 14.155 16 13.5 16C12.67 16 12 15.33 12 14.5C12 13.845 12.42 13.295 13 13.085V12.05C11.86 12.28 11 13.29 11 14.5C11 15.88 12.12 17 13.5 17C14.71 17 15.72 16.14 15.95 15H14.915Z" fill="#1D1D1F"/>
</svg>
