<svg width="12" height="12" viewBox="0 0 12 12"  xmlns="http://www.w3.org/2000/svg">
<path d="M11.25 8.75V3.25C11.25 2.14543 10.3546 1.25 9.25 1.25H8.5C8.22386 1.25 8 1.47386 8 1.75C8 2.02614 8.22386 2.25 8.5 2.25L9.25 2.25C9.80229 2.25 10.25 2.69772 10.25 3.25V8.75C10.25 9.30228 9.80229 9.75 9.25 9.75H8.5C8.22386 9.75 8 9.97386 8 10.25C8 10.5261 8.22386 10.75 8.5 10.75H9.25C10.3546 10.75 11.25 9.85457 11.25 8.75Z" />
<path d="M4.89645 8.60355C5.09171 8.79882 5.40829 8.79882 5.60355 8.60355L7.85356 6.35355C7.86098 6.34613 7.86815 6.3385 7.87505 6.33067C7.95534 6.23962 8.00001 6.12211 8.00001 6C8.00001 5.99315 7.99987 5.98631 7.99959 5.97948C7.99483 5.86171 7.94934 5.75443 7.87683 5.67135C7.86938 5.66282 7.86162 5.65451 7.85356 5.64645L5.60356 3.39645C5.4083 3.20118 5.09171 3.20118 4.89645 3.39645C4.70119 3.59171 4.70119 3.90829 4.89645 4.10355L6.2929 5.5H1.5C1.22386 5.5 1 5.72386 1 6C1 6.27614 1.22386 6.5 1.5 6.5H6.2929L4.89645 7.89645C4.70119 8.09171 4.70119 8.40829 4.89645 8.60355Z" />
</svg>
