<svg width="12" height="12" viewBox="0 0 12 12" xmlns="http://www.w3.org/2000/svg">
<path fill-rule="evenodd" clip-rule="evenodd" d="M6.41421 1.49875C6.41421 1.2233 6.63807 1 6.91421 1L10.4497 1C10.7259 1 10.9497 1.2233 10.9497 1.49875V5.02542C10.9497 5.30087 10.7259 5.52417 10.4497 5.52417C10.1736 5.52417 9.94975 5.30087 9.94975 5.02542V1.99749L6.91421 1.99749C6.63807 1.99749 6.41421 1.7742 6.41421 1.49875Z"/>
<path fill-rule="evenodd" clip-rule="evenodd" d="M5.85355 6.08342C5.65829 5.88865 5.64698 5.58414 5.8283 5.40328L9.76789 1.47355C9.94921 1.29269 10.2545 1.30397 10.4497 1.49874C10.645 1.69352 10.6563 1.99803 10.475 2.17889L6.53541 6.10861C6.35409 6.28947 6.04882 6.27819 5.85355 6.08342Z" />
<path d="M2.5 2.02255C2.36739 2.02255 2.24021 2.0751 2.14645 2.16863C2.05268 2.26217 2 2.38903 2 2.5213V9.50376C2 9.63603 2.05268 9.76289 2.14645 9.85643C2.24021 9.94996 2.36739 10.0025 2.5 10.0025H9.5C9.63261 10.0025 9.75978 9.94996 9.85355 9.85643C9.94732 9.76289 10 9.63603 10 9.50376V7.50877C10 7.23332 10.2239 7.01002 10.5 7.01002C10.7761 7.01002 11 7.23332 11 7.50877V9.50376C11 9.90059 10.842 10.2812 10.5607 10.5618C10.2794 10.8424 9.89783 11 9.5 11H2.5C2.10217 11 1.72064 10.8424 1.43934 10.5618C1.15804 10.2812 1 9.90059 1 9.50376V2.5213C1 2.12447 1.15804 1.7439 1.43934 1.4633C1.72064 1.1827 2.10218 1.02506 2.5 1.02506H4.5C4.77614 1.02506 5 1.24836 5 1.52381C5 1.79926 4.77614 2.02255 4.5 2.02255H2.5Z" />
</svg>
