<svg width="12" height="12" viewBox="0 0 12 12"  xmlns="http://www.w3.org/2000/svg">
<path fill-rule="evenodd" clip-rule="evenodd" d="M2.5 4C2.5 2.89543 3.39543 2 4.5 2C5.60457 2 6.5 2.89543 6.5 4C6.5 5.10457 5.60457 6 4.5 6C3.39543 6 2.5 5.10457 2.5 4ZM4.5 3C3.94772 3 3.5 3.44772 3.5 4C3.5 4.55228 3.94772 5 4.5 5C5.05228 5 5.5 4.55228 5.5 4C5.5 3.44772 5.05228 3 4.5 3Z" />
<path d="M3.5 7C2.11929 7 1 8.11929 1 9.5V10C1 10.2761 1.22386 10.5 1.5 10.5C1.77614 10.5 2 10.2761 2 10V9.5C2 8.67157 2.67157 8 3.5 8H5.5C6.32843 8 7 8.67157 7 9.5V10C7 10.2761 7.22386 10.5 7.5 10.5C7.77614 10.5 8 10.2761 8 10V9.5C8 8.11929 6.88071 7 5.5 7H3.5Z" />
<path d="M11 10.5H8.63377V9.5C8.63377 8.73165 8.34491 8.03076 7.86987 7.5H8.99998C10.1045 7.5 11 8.39543 11 9.5V10.5Z" />
<path d="M10 5C10 5.82843 9.32843 6.5 8.5 6.5C7.67157 6.5 7 5.82843 7 5C7 4.17157 7.67157 3.5 8.5 3.5C9.32843 3.5 10 4.17157 10 5Z" />
</svg>
