<svg width="12" height="12" viewBox="0 0 12 12"  xmlns="http://www.w3.org/2000/svg">
<path fill-rule="evenodd" clip-rule="evenodd" d="M7.03016 1.72863C7.37892 1.57778 7.75306 1.5 8.13115 1.5C8.50923 1.5 8.88338 1.57778 9.23213 1.72863C9.58079 1.87945 9.89696 2.10022 10.1628 2.37785C10.4288 2.65541 10.6393 2.98444 10.7828 3.3459C10.9263 3.70734 11 4.09442 11 4.48511C11 4.8758 10.9263 5.26288 10.7828 5.62432C10.6394 5.98574 10.4289 6.31474 10.1629 6.59229L6.71366 10.1931C6.32166 10.6023 5.67811 10.6023 5.28611 10.1931L1.83687 6.59229C1.29997 6.0318 1 5.27365 1 4.48511C1 3.69657 1.29997 2.93842 1.83687 2.37794C2.37408 1.81712 3.10473 1.50024 3.86862 1.50024C4.63252 1.50024 5.36317 1.81712 5.90038 2.37794L5.99989 2.48181L6.09931 2.37802C6.36521 2.10031 6.68143 1.87948 7.03016 1.72863Z" />
</svg>
