<svg width="12" height="12" viewBox="0 0 12 12"  xmlns="http://www.w3.org/2000/svg">
<path fill-rule="evenodd" clip-rule="evenodd" d="M7.03016 2.2232C7.37892 2.07593 7.75306 2 8.13115 2C8.50923 2 8.88338 2.07593 9.23213 2.2232C9.58079 2.37043 9.89696 2.58595 10.1628 2.85699C10.4288 3.12795 10.6393 3.44916 10.7828 3.80203C10.9263 4.15488 11 4.53276 11 4.91416C11 5.29557 10.9263 5.67345 10.7828 6.0263C10.6394 6.37913 10.4289 6.70031 10.1629 6.97126L6.71366 10.4865C6.32166 10.886 5.67811 10.886 5.28611 10.4865L1.83687 6.97126C1.29997 6.42409 1 5.68396 1 4.91416C1 4.14437 1.29997 3.40423 1.83687 2.85707C2.37408 2.30958 3.10473 2.00023 3.86862 2.00023C4.63252 2.00023 5.36317 2.30958 5.90038 2.85707L5.99989 2.95848L6.09931 2.85715C6.36521 2.58604 6.68143 2.37046 7.03016 2.2232ZM8.13115 3C7.88708 3 7.64518 3.04899 7.41918 3.14443C7.19315 3.23988 6.98717 3.38003 6.81325 3.55736L6.35677 4.02257C6.26275 4.11839 6.13414 4.17238 5.99989 4.17238C5.86563 4.17238 5.73702 4.11839 5.643 4.02257L5.18661 3.55745C4.83541 3.19953 4.36112 3.00023 3.86862 3.00023C3.37612 3.00023 2.90184 3.19953 2.55064 3.55745C2.19913 3.91568 2 4.40353 2 4.91416C2 5.42479 2.19913 5.91265 2.55064 6.27088L5.99988 9.7861L9.44913 6.27088C9.62315 6.09361 9.76177 5.88255 9.85645 5.64966C9.95115 5.41676 10 5.16681 10 4.91416C10 4.66152 9.95115 4.41157 9.85645 4.17867C9.76177 3.94578 9.62323 3.7348 9.44921 3.55753C9.27529 3.3802 9.06914 3.23988 8.84312 3.14443C8.61711 3.04899 8.37521 3 8.13115 3Z" />
</svg>
