<svg width="24" height="24" viewBox="0 0 24 24" xmlns="http://www.w3.org/2000/svg">
<path fill-rule="evenodd" clip-rule="evenodd" d="M9 3C10.3062 3 11.4175 3.83481 11.8293 5L20 5C20.5523 5 21 5.44772 21 6C21 6.55229 20.5523 7 20 7L11.8293 7C11.4175 8.16519 10.3062 9 9 9C7.68867 9 6.57385 8.15864 6.1659 6.9863C6.11194 6.99531 6.05652 7 6 7H4C3.44772 7 3 6.55228 3 6C3 5.44772 3.44772 5 4 5H6C6.05652 5 6.11194 5.00469 6.1659 5.0137C6.57385 3.84136 7.68867 3 9 3ZM9 5C8.44772 5 8 5.44772 8 6C8 6.55228 8.44772 7 9 7C9.55228 7 10 6.55228 10 6C10 5.44772 9.55228 5 9 5Z" />
<path fill-rule="evenodd" clip-rule="evenodd" d="M11.8293 17L20 17C20.5523 17 21 17.4477 21 18C21 18.5523 20.5523 19 20 19H11.8293C11.4175 20.1652 10.3062 21 9 21C7.68867 21 6.57385 20.1586 6.1659 18.9863C6.11194 18.9953 6.05652 19 6 19H4C3.44772 19 3 18.5523 3 18C3 17.4477 3.44772 17 4 17H6C6.05652 17 6.11194 17.0047 6.1659 17.0137C6.57385 15.8414 7.68867 15 9 15C10.3062 15 11.4175 15.8348 11.8293 17ZM9 17C9.55228 17 10 17.4477 10 18C10 18.5523 9.55228 19 9 19C8.44772 19 8 18.5523 8 18C8 17.4477 8.44772 17 9 17Z" />
<path fill-rule="evenodd" clip-rule="evenodd" d="M17.8341 11.0137C17.8881 11.0047 17.9435 11 18 11H20C20.5523 11 21 11.4477 21 12C21 12.5523 20.5523 13 20 13H18C17.9435 13 17.8881 12.9953 17.8341 12.9863C17.4262 14.1586 16.3113 15 15 15C13.6938 15 12.5825 14.1652 12.1707 13H4C3.44772 13 3 12.5523 3 12C3 11.4477 3.44772 11 4 11H12.1707C12.5825 9.83481 13.6938 9 15 9C16.3113 9 17.4262 9.84135 17.8341 11.0137ZM14 12C14 12.5523 14.4477 13 15 13C15.5523 13 16 12.5523 16 12C16 11.4477 15.5523 11 15 11C14.4477 11 14 11.4477 14 12Z" />
</svg>
