<svg width="12" height="12" viewBox="0 0 12 12"  xmlns="http://www.w3.org/2000/svg">
<path fill-rule="evenodd" clip-rule="evenodd" d="M5 2C5.54426 2 6.00727 2.34784 6.17887 2.83333L9.58333 2.83333C9.81345 2.83333 10 3.01988 10 3.25C10 3.48012 9.81345 3.66667 9.58333 3.66667L6.17887 3.66667C6.00727 4.15216 5.54426 4.5 5 4.5C4.45361 4.5 3.9891 4.14944 3.81913 3.66096C3.79664 3.66471 3.77355 3.66667 3.75 3.66667H2.91667C2.68655 3.66667 2.5 3.48012 2.5 3.25C2.5 3.01988 2.68655 2.83333 2.91667 2.83333H3.75C3.77355 2.83333 3.79664 2.83529 3.81913 2.83904C3.9891 2.35057 4.45361 2 5 2ZM5 2.83333C4.76988 2.83333 4.58333 3.01988 4.58333 3.25C4.58333 3.48012 4.76988 3.66667 5 3.66667C5.23012 3.66667 5.41667 3.48012 5.41667 3.25C5.41667 3.01988 5.23012 2.83333 5 2.83333Z" />
<path fill-rule="evenodd" clip-rule="evenodd" d="M6.17887 7.83333L9.58333 7.83333C9.81345 7.83333 10 8.01988 10 8.25C10 8.48012 9.81345 8.66667 9.58333 8.66667H6.17887C6.00727 9.15216 5.54426 9.5 5 9.5C4.45361 9.5 3.9891 9.14944 3.81913 8.66096C3.79664 8.66471 3.77355 8.66667 3.75 8.66667H2.91667C2.68655 8.66667 2.5 8.48012 2.5 8.25C2.5 8.01988 2.68655 7.83333 2.91667 7.83333H3.75C3.77355 7.83333 3.79664 7.83529 3.81913 7.83904C3.9891 7.35056 4.45361 7 5 7C5.54426 7 6.00727 7.34784 6.17887 7.83333ZM5 7.83333C5.23012 7.83333 5.41667 8.01988 5.41667 8.25C5.41667 8.48012 5.23012 8.66667 5 8.66667C4.76988 8.66667 4.58333 8.48012 4.58333 8.25C4.58333 8.01988 4.76988 7.83333 5 7.83333Z" />
<path fill-rule="evenodd" clip-rule="evenodd" d="M8.68087 5.33904C8.70336 5.33529 8.72645 5.33333 8.75 5.33333H9.58333C9.81345 5.33333 10 5.51988 10 5.75C10 5.98012 9.81345 6.16667 9.58333 6.16667H8.75C8.72645 6.16667 8.70336 6.16471 8.68087 6.16096C8.5109 6.64944 8.04639 7 7.5 7C6.95574 7 6.49273 6.65216 6.32113 6.16667H2.91667C2.68655 6.16667 2.5 5.98012 2.5 5.75C2.5 5.51988 2.68655 5.33333 2.91667 5.33333H6.32113C6.49273 4.84784 6.95574 4.5 7.5 4.5C8.04639 4.5 8.5109 4.85056 8.68087 5.33904ZM7.08333 5.75C7.08333 5.98012 7.26988 6.16667 7.5 6.16667C7.73012 6.16667 7.91667 5.98012 7.91667 5.75C7.91667 5.51988 7.73012 5.33333 7.5 5.33333C7.26988 5.33333 7.08333 5.51988 7.08333 5.75Z" />
</svg>
