<svg width="12" height="12" viewBox="0 0 12 12" fill="none" xmlns="http://www.w3.org/2000/svg">
<g clip-path="url(#clip0_14_1496)">
<mask id="mask0_14_1496" style="mask-type:alpha" maskUnits="userSpaceOnUse" x="0" y="0" width="12" height="12">
<circle cx="6" cy="6" r="6" fill="#D9D9D9"/>
</mask>
<g mask="url(#mask0_14_1496)">
<path d="M14.9829 0H-3.01709V12H14.9829V0Z" fill="white"/>
<path d="M14.9829 0H-3.01709V0.922807H14.9829V0Z" fill="#D80027"/>
<path d="M14.9829 1.84561H-3.01709V2.76842H14.9829V1.84561Z" fill="#D80027"/>
<path d="M14.9829 3.69123H-3.01709V4.61404H14.9829V3.69123Z" fill="#D80027"/>
<path d="M14.9829 5.53684H-3.01709V6.45965H14.9829V5.53684Z" fill="#D80027"/>
<path d="M14.9829 7.38596H-3.01709V8.30877H14.9829V7.38596Z" fill="#D80027"/>
<path d="M14.9829 9.23158H-3.01709V10.1544H14.9829V9.23158Z" fill="#D80027"/>
<path d="M14.9829 11.0772H-3.01709V12H14.9829V11.0772Z" fill="#D80027"/>
<path d="M5.98291 0H-3.01709V6.45965H5.98291V0Z" fill="#2E52B2"/>
<path d="M-1.3399 4.87368L-1.48025 4.42456L-1.63463 4.87368H-2.09779L-1.72235 5.14386L-1.8627 5.59298L-1.48025 5.31579L-1.10832 5.59298L-1.25218 5.14386L-0.869721 4.87368H-1.3399Z" fill="white"/>
<path d="M0.635542 4.87368L0.491682 4.42456L0.344314 4.87368H-0.118844L0.256594 5.14386L0.116244 5.59298L0.491682 5.31579L0.87063 5.59298L0.730279 5.14386L1.10572 4.87368H0.635542Z" fill="white"/>
<path d="M2.618 4.87368L2.46712 4.42456L2.32677 4.87368H1.85309L2.23905 5.14386L2.09168 5.59298L2.46712 5.31579L2.85309 5.59298L2.70572 5.14386L3.08116 4.87368H2.618Z" fill="white"/>
<path d="M4.58993 4.87368L4.44958 4.42456L4.30221 4.87368H3.83554L4.21449 5.14386L4.07414 5.59298L4.44958 5.31579L4.82852 5.59298L4.67765 5.14386L5.06361 4.87368H4.58993Z" fill="white"/>
<path d="M0.491682 2.64211L0.344314 3.09123H-0.118844L0.256594 3.36842L0.116244 3.81053L0.491682 3.53684L0.87063 3.81053L0.730279 3.36842L1.10572 3.09123H0.635542L0.491682 2.64211Z" fill="white"/>
<path d="M-1.48025 2.64211L-1.63463 3.09123H-2.09779L-1.72235 3.36842L-1.8627 3.81053L-1.48025 3.53684L-1.10832 3.81053L-1.25218 3.36842L-0.869721 3.09123H-1.3399L-1.48025 2.64211Z" fill="white"/>
<path d="M2.46712 2.64211L2.32677 3.09123H1.85309L2.23905 3.36842L2.09168 3.81053L2.46712 3.53684L2.85309 3.81053L2.70572 3.36842L3.08116 3.09123H2.618L2.46712 2.64211Z" fill="white"/>
<path d="M4.44958 2.64211L4.30221 3.09123H3.83554L4.21449 3.36842L4.07414 3.81053L4.44958 3.53684L4.82852 3.81053L4.67765 3.36842L5.06361 3.09123H4.58993L4.44958 2.64211Z" fill="white"/>
<path d="M-1.48025 0.866667L-1.63463 1.30877H-2.09779L-1.72235 1.58596L-1.8627 2.03158L-1.48025 1.75439L-1.10832 2.03158L-1.25218 1.58596L-0.869721 1.30877H-1.3399L-1.48025 0.866667Z" fill="white"/>
<path d="M0.491682 0.866667L0.344314 1.30877H-0.118844L0.256594 1.58596L0.116244 2.03158L0.491682 1.75439L0.87063 2.03158L0.730279 1.58596L1.10572 1.30877H0.635542L0.491682 0.866667Z" fill="white"/>
<path d="M2.46712 0.866667L2.32677 1.30877H1.85309L2.23905 1.58596L2.09168 2.03158L2.46712 1.75439L2.85309 2.03158L2.70572 1.58596L3.08116 1.30877H2.618L2.46712 0.866667Z" fill="white"/>
<path d="M4.44958 0.866667L4.30221 1.30877H3.83554L4.21449 1.58596L4.07414 2.03158L4.44958 1.75439L4.82852 2.03158L4.67765 1.58596L5.06361 1.30877H4.58993L4.44958 0.866667Z" fill="white"/>
<circle cx="6" cy="6" r="6" stroke="#E1DED7"/>
</g>
</g>
<defs>
<clipPath id="clip0_14_1496">
<rect width="12" height="12" rx="1.12281" fill="white"/>
</clipPath>
</defs>
</svg>
