<svg width="12" height="12" viewBox="0 0 12 12" fill="none" xmlns="http://www.w3.org/2000/svg">
<mask id="mask0_14_1493" style="mask-type:alpha" maskUnits="userSpaceOnUse" x="0" y="0" width="12" height="12">
<circle cx="6" cy="6" r="6" fill="#D9D9D9"/>
</mask>
<g mask="url(#mask0_14_1493)">
<path d="M15.0176 0H-2.98242V12H15.0176V0Z" fill="#009B3A"/>
<path d="M6.0132 2.00483L11.4053 5.98904L6.0132 9.97062L0.594778 5.98904L6.0132 2.00483Z" fill="#FEDF00"/>
<path d="M6.0132 8.11272C7.18172 8.11272 8.12899 7.16545 8.12899 5.99693C8.12899 4.82841 7.18172 3.88114 6.0132 3.88114C4.84468 3.88114 3.89741 4.82841 3.89741 5.99693C3.89741 7.16545 4.84468 8.11272 6.0132 8.11272Z" fill="white"/>
<path d="M4.94477 5.85745C4.57899 5.85745 4.22372 5.91272 3.88951 6.01535C3.9053 7.17061 4.84477 8.10219 6.00267 8.10219C6.71846 8.10219 7.35267 7.74429 7.73425 7.19956C7.07898 6.38377 6.07109 5.85745 4.94477 5.85745Z" fill="#002776"/>
<path d="M8.07636 6.39167C8.10004 6.26009 8.11583 6.12588 8.11583 5.9864C8.11583 4.81798 7.16846 3.87061 6.00004 3.87061C5.12899 3.87061 4.38162 4.39956 4.0553 5.14956C4.34215 5.09167 4.63688 5.06009 4.93951 5.06009C6.17109 5.06272 7.28162 5.57325 8.07636 6.39167Z" fill="#002776"/>
<circle cx="6" cy="6" r="6" stroke="#E1DED7"/>
</g>
</svg>
