<svg width="12" height="12" viewBox="0 0 12 12" fill="none" xmlns="http://www.w3.org/2000/svg">
<mask id="mask0_65_828" style="mask-type:alpha" maskUnits="userSpaceOnUse" x="0" y="0" width="12" height="12">
<circle cx="6" cy="6" r="6" fill="#D9D9D9"/>
</mask>
<g mask="url(#mask0_65_828)">
<g clip-path="url(#clip0_65_828)">
<path d="M14.5649 0H-3.4386V12H14.5649V0Z" fill="#10338C"/>
<path d="M0.0666656 0H12.0667V12" fill="#F6C500"/>
<path d="M-0.200007 0.894777L-0.4772 0.0456543L-0.750884 0.894777H-1.6386L-0.919305 1.41408L-1.19299 2.25618L-0.4772 1.73688L0.245607 2.25618L-0.0315857 1.41408L0.687713 0.891268L-0.200007 0.894777Z" fill="white"/>
<path d="M1.34386 2.42804L1.07017 1.58594L0.796488 2.42804H-0.0877228L0.628067 2.95085L0.354382 3.79295L1.07017 3.27366L1.79298 3.79295L1.51929 2.95085L2.23508 2.42804H1.34386Z" fill="white"/>
<path d="M2.85613 3.94034L2.58245 3.09473L2.30876 3.94034H1.42104L2.14034 4.46315L1.86666 5.30525L2.58245 4.78595L3.30525 5.30525L3.02806 4.46315L3.74736 3.93683L2.85613 3.94034Z" fill="white"/>
<path d="M4.36841 5.44916L4.09473 4.60706L3.82105 5.44916H2.92982L3.65262 5.97548L3.37894 6.81758L4.09473 6.29477L4.81052 6.81758L4.53683 5.97548L5.25964 5.44916H4.36841Z" fill="white"/>
<path d="M5.8807 6.96137L5.60701 6.11926L5.33333 6.96137H4.4421L5.16491 7.48418L4.89122 8.32979L5.60701 7.80698L6.3228 8.32979L6.04912 7.48067L6.76842 6.96137H5.8807Z" fill="white"/>
<path d="M7.39297 8.4737L7.11577 7.63159L6.84209 8.4737H5.95437L6.67367 8.99299L6.39647 9.84212L7.11928 9.31931L7.83507 9.83861L7.56139 8.99299L8.28068 8.4737H7.39297Z" fill="white"/>
<path d="M8.90175 9.98596L8.62806 9.13684L8.35438 9.98596H7.46666L8.18245 10.5053L7.90877 11.3509L8.62806 10.8281L9.34736 11.3509L9.07368 10.5053L9.78947 9.98596H8.90175Z" fill="white"/>
<path d="M10.1403 10.6492L9.86315 11.4948L8.97543 11.4983L9.67017 12H10.6035L11.3017 11.4948H10.414L10.1403 10.6492Z" fill="white"/>
<circle cx="5.99988" cy="6" r="6" stroke="#E1DED7"/>
</g>
</g>
<defs>
<clipPath id="clip0_65_828">
<rect width="18" height="12" fill="white" transform="translate(-3.4386)"/>
</clipPath>
</defs>
</svg>
