<svg width="12" height="12" viewBox="0 0 12 12" fill="none" xmlns="http://www.w3.org/2000/svg">
<mask id="mask0_109_10582" style="mask-type:alpha" maskUnits="userSpaceOnUse" x="0" y="0" width="12" height="12">
<circle cx="6" cy="6" r="6" fill="#D9D9D9"/>
</mask>
<g mask="url(#mask0_109_10582)">
<g clip-path="url(#clip0_109_10582)">
<path d="M15 0.000244141H-3V12H15V0.000244141Z" fill="#338AF3"/>
<path d="M15 0V5.8602L-3 6.00613V0H15Z" fill="white"/>
<path d="M8.38168 4.14026L6.00005 6.52189L3.61843 4.14026C3.31046 4.59747 3.13049 5.14777 3.13049 5.73927V6.52189C3.13049 7.77851 3.9425 8.84899 5.06929 9.23641C4.91893 9.53119 4.94428 9.89903 5.16464 10.1741C5.45735 9.93946 5.76036 9.69664 6.01746 9.49066C6.27455 9.69664 6.57757 9.9395 6.87028 10.1741C7.09324 9.8958 7.11676 9.52247 6.96042 9.22597C8.07185 8.83007 8.86969 7.76751 8.86969 6.52189V5.73927C8.86962 5.14773 8.68965 4.5975 8.38168 4.14026Z" fill="#6DA544"/>
<path d="M6.00003 8.60877C4.8493 8.60877 3.91309 7.67255 3.91309 6.52182V5.7392C3.91309 4.58843 4.8493 3.65222 6.00003 3.65222C7.15077 3.65222 8.08698 4.58843 8.08698 5.73917V6.52178C8.08698 7.67255 7.15077 8.60877 6.00003 8.60877Z" fill="#FFDA44"/>
<path d="M7.30435 6.52188V5.73927C7.30435 5.02004 6.71924 4.43494 6.00001 4.43494C5.28078 4.43494 4.69568 5.02004 4.69568 5.73927V6.52188L6.00001 6.78278L7.30435 6.52188Z" fill="#338AF3"/>
<path d="M4.69568 6.52185C4.69568 7.24108 5.28078 7.82618 6.00001 7.82618C6.71924 7.82618 7.30435 7.24108 7.30435 6.52185H4.69568Z" fill="#6DA544"/>
<path d="M7.56524 3.65229C7.56524 3.22005 7.21487 2.86968 6.78262 2.86968C6.58212 2.86968 6.39938 2.94513 6.2609 3.06909V2.60879H6.5218V2.08707H6.2609V1.82617H5.73918V2.08707H5.47829V2.60879H5.73918V3.06909C5.60067 2.94513 5.41792 2.86968 5.21743 2.86968C4.78518 2.86968 4.43481 3.22005 4.43481 3.65229C4.43481 3.88401 4.53561 4.09217 4.69571 4.2355V4.6958H7.30441V4.2355C7.46444 4.09217 7.56524 3.88405 7.56524 3.65229Z" fill="#FFDA44"/>
</g>
<circle cx="6" cy="6" r="6" stroke="#E1DED7"/>
</g>
<defs>
<clipPath id="clip0_109_10582">
<rect width="18" height="12" fill="white" transform="translate(-3)"/>
</clipPath>
</defs>
</svg>
