<svg width="12" height="12" viewBox="0 0 12 12" fill="none" xmlns="http://www.w3.org/2000/svg">
<g clip-path="url(#clip0_23259_161526)">
<path d="M0.373291 8.08703C1.22105 10.3718 3.42031 12.0001 6.00009 12.0001C8.57988 12.0001 10.7791 10.3718 11.6269 8.08703L6.00009 7.56531L0.373291 8.08703Z" fill="#FFDA44"/>
<path d="M6.00009 0C3.42031 0 1.22105 1.62825 0.373291 3.91306L6.00009 4.43477L11.6269 3.91303C10.7791 1.62825 8.57988 0 6.00009 0Z" fill="black"/>
<path d="M0.373195 3.91309C0.132023 4.56308 0 5.26611 0 6.00003C0 6.73395 0.132023 7.43698 0.373195 8.08698H11.6268C11.868 7.43698 12 6.73395 12 6.00003C12 5.26611 11.868 4.56308 11.6268 3.91309H0.373195Z" fill="#D80027"/>
</g>
<defs>
<clipPath id="clip0_23259_161526">
<rect width="12" height="12" fill="white"/>
</clipPath>
</defs>
</svg>
