<svg width="12" height="12" viewBox="0 0 12 12" fill="none" xmlns="http://www.w3.org/2000/svg">
<mask id="mask0_78_4343" style="mask-type:alpha" maskUnits="userSpaceOnUse" x="0" y="0" width="12" height="12">
<circle cx="6" cy="6" r="6" fill="#D9D9D9"/>
</mask>
<g mask="url(#mask0_78_4343)">
<g clip-path="url(#clip0_78_4343)">
<path d="M15 -0.00012207H-3V12H15V-0.00012207Z" fill="#D80027"/>
<path d="M6 9.37476C7.86397 9.37476 9.37501 7.86372 9.37501 5.99976C9.37501 4.1358 7.86397 2.62476 6 2.62476C4.13604 2.62476 2.625 4.1358 2.625 5.99976C2.625 7.86372 4.13604 9.37476 6 9.37476Z" fill="white"/>
<path d="M6.41565 4.70947L6.99468 5.50734L7.9324 5.20328L7.35246 6.00048L7.93141 6.79835L6.99401 6.49316L6.41411 7.29037L6.4147 6.30458L5.47729 5.99936L6.41505 5.69532L6.41565 4.70947Z" fill="#D80027"/>
<path d="M6.76699 7.99423C5.66554 7.99423 4.77268 7.10136 4.77268 5.99992C4.77268 4.89847 5.66554 4.00561 6.76699 4.00561C7.11043 4.00561 7.43355 4.09244 7.71568 4.24534C7.2731 3.81256 6.66789 3.54541 5.99995 3.54541C4.6444 3.54541 3.54541 4.64436 3.54541 5.99995C3.54541 7.35554 4.6444 8.45449 5.99995 8.45449C6.66789 8.45449 7.27314 8.18734 7.71568 7.75457C7.43352 7.90739 7.11043 7.99423 6.76699 7.99423Z" fill="#D80027"/>
</g>
<circle cx="6" cy="6" r="6" stroke="#E1DED7"/>
</g>
<defs>
<clipPath id="clip0_78_4343">
<rect width="18" height="12" fill="white" transform="translate(-3)"/>
</clipPath>
</defs>
</svg>
