<svg width="12" height="12" viewBox="0 0 12 12" fill="none" xmlns="http://www.w3.org/2000/svg">
<g clip-path="url(#clip0_14_1508)">
<mask id="mask0_14_1508" style="mask-type:alpha" maskUnits="userSpaceOnUse" x="0" y="0" width="12" height="12">
<circle cx="6" cy="6" r="6" fill="#0052B4"/>
</mask>
<g mask="url(#mask0_14_1508)">
<circle cx="6" cy="6" r="6" fill="#0052B4"/>
<path d="M-1.22803 0H13.193V11.9614H-1.22803V0Z" fill="white"/>
<path d="M7.53424 8.06072L13.193 11.9614V10.8574L9.15344 8.06072H7.53424Z" fill="white"/>
<path d="M4.40265 3.90069L-1.22803 0V1.10397L2.81155 3.90069H4.40265Z" fill="white"/>
<path d="M9.84217 8.06072L13.193 10.3633V8.06072H9.84217ZM7.53424 8.06072L13.193 11.9614V10.8574L9.15344 8.06072H7.53424ZM11.6638 11.9614L7.53143 9.0981V11.9614H11.6638Z" fill="#0052B4"/>
<path d="M1.31042 8.06072L-1.22803 9.82006V8.06072H1.31042ZM4.40265 8.55838V11.9649H-0.511191L4.40265 8.55838Z" fill="#0052B4"/>
<path d="M2.09472 3.90069L-1.22803 1.59813V3.90069H2.09472ZM4.40265 3.90069L-1.22803 0V1.10397L2.81155 3.90069H4.40265ZM0.273112 0L4.40546 2.86331V0H0.273112Z" fill="#0052B4"/>
<path d="M10.6265 3.90069L13.193 2.14135V3.90069H10.6265ZM7.53424 3.40303V0H12.4509L7.53424 3.40303Z" fill="#0052B4"/>
<path d="M6.868 0H5.06888V4.86096H-1.22803V7.10395H5.06888V11.9649H6.868V7.10395H13.1649V4.86096H6.868V0Z" fill="#D80027"/>
<path d="M7.53424 8.06072L13.193 11.9614V10.8574L9.15344 8.06072H7.53424Z" fill="#D80027"/>
<path d="M2.81155 8.06072L-1.22803 10.8609V11.9649L4.40265 8.06072H2.81155Z" fill="#D80027"/>
<path d="M4.40265 3.90069L-1.22803 0V1.10397L2.81155 3.90069H4.40265Z" fill="#D80027"/>
<path d="M9.12533 3.90069L13.193 1.10397V0L7.53424 3.90069H9.12533Z" fill="#D80027"/>
<circle cx="6" cy="6" r="6" stroke="#E1DED7"/>
</g>
</g>
<defs>
<clipPath id="clip0_14_1508">
<rect width="12" height="12" rx="1.12281" fill="white"/>
</clipPath>
</defs>
</svg>
