<svg width="12" height="12" viewBox="0 0 12 12" fill="none" xmlns="http://www.w3.org/2000/svg">
<mask id="mask0_47_376" style="mask-type:alpha" maskUnits="userSpaceOnUse" x="0" y="0" width="12" height="12">
<circle cx="6" cy="6" r="6" fill="#D9D9D9"/>
</mask>
<g mask="url(#mask0_47_376)">
<g clip-path="url(#clip0_47_376)">
<path d="M15.4737 -0.315674H-3.47363V12.316H15.4737V-0.315674Z" fill="#0052B4"/>
<path d="M15.4737 -0.315674H-3.47363V12.316H15.4737V-0.315674Z" fill="#0052B4"/>
<path d="M10.8617 5.17676L10.9871 5.56266H11.3928L11.0646 5.80113L11.1899 6.187L10.8617 5.94853L10.5334 6.187L10.6588 5.80113L10.3306 5.56266H10.7363L10.8617 5.17676Z" fill="#D80027"/>
<path d="M9.41139 7.95483L9.59949 8.53369H10.2081L9.71569 8.89143L9.90376 9.47022L9.41139 9.11247L8.91901 9.47022L9.10712 8.89143L8.61475 8.53369H9.22332L9.41139 7.95483Z" fill="#D80027"/>
<path d="M9.46614 3.40869L9.6229 3.89111H10.13L9.71971 4.18916L9.87644 4.6715L9.46614 4.37338L9.05581 4.6715L9.21254 4.18916L8.80225 3.89111H9.30938L9.46614 3.40869Z" fill="#D80027"/>
<path d="M8.0706 5.15991L8.25867 5.73873H8.86728L8.37487 6.09644L8.56301 6.67526L8.0706 6.31755L7.57823 6.67526L7.7663 6.09644L7.27393 5.73873H7.8825L8.0706 5.15991Z" fill="#D80027"/>
<path d="M6.00005 -0.315918V0.815151L4.32817 1.74357H6.00005V3.94025H3.81248L6.00005 5.15576V5.99974H5.01235L2.29295 4.4889V5.99974H0.233464V4.20221L-3.00198 5.99974H-3.47363V4.86907L-1.80212 3.94025H-3.47363V1.74357H-1.28643L-3.47363 0.528498V-0.315918H-2.4863L0.233464 1.19536V-0.315918H2.29295V1.4816L5.52844 -0.315918H6.00005Z" fill="white"/>
<path d="M1.85531 -0.315674H0.671104V2.25014H-3.47363V3.43435H0.671104V6.00017H1.85531V3.43435H6.00005V2.25014H1.85531V-0.315674Z" fill="#D80027"/>
<path d="M2.29297 3.94043L6.00007 5.99999V5.41755L3.34125 3.94043H2.29297Z" fill="#0052B4"/>
<path d="M2.29297 3.94043L6.00007 5.99999V5.41755L3.34125 3.94043H2.29297Z" fill="white"/>
<path d="M2.29297 3.94043L6.00007 5.99999V5.41755L3.34125 3.94043H2.29297Z" fill="#D80027"/>
<path d="M-0.814858 3.94043L-3.47363 5.41755V5.99999L0.233464 3.94043H-0.814858Z" fill="#D80027"/>
<path d="M0.233464 1.74385L-3.47363 -0.315674V0.266736L-0.814821 1.74385H0.233464Z" fill="#0052B4"/>
<path d="M0.233464 1.74385L-3.47363 -0.315674V0.266736L-0.814821 1.74385H0.233464Z" fill="white"/>
<path d="M0.233464 1.74385L-3.47363 -0.315674V0.266736L-0.814821 1.74385H0.233464Z" fill="#D80027"/>
<path d="M3.34129 1.74385L6.00007 0.266736V-0.315674L2.29297 1.74385H3.34129Z" fill="#D80027"/>
<circle cx="6" cy="6" r="6" stroke="#E1DED7"/>
</g>
</g>
<defs>
<clipPath id="clip0_47_376">
<rect width="18.9474" height="12.6316" fill="white" transform="translate(-3.47363 -0.315674)"/>
</clipPath>
</defs>
</svg>
