<svg width="12" height="12" viewBox="0 0 12 12" fill="none" xmlns="http://www.w3.org/2000/svg">
<mask id="mask0_91_5363" style="mask-type:alpha" maskUnits="userSpaceOnUse" x="0" y="0" width="12" height="12">
<circle cx="6" cy="6" r="6" fill="#D9D9D9"/>
</mask>
<g mask="url(#mask0_91_5363)">
<g clip-path="url(#clip0_91_5363)">
<path d="M15 0.00012207H-3V11.9999H15V0.00012207Z" fill="white"/>
<path d="M15 0.00012207H-3V4.00003H15V0.00012207Z" fill="#338AF3"/>
<path d="M15 8H-3V11.9999H15V8Z" fill="#338AF3"/>
<path d="M6 4.53918C5.1932 4.53918 4.53915 5.1932 4.53915 6.00003C4.53915 6.80687 5.19317 7.46088 6 7.46088C6.8068 7.46088 7.46085 6.80687 7.46085 6.00003C7.46085 5.1932 6.8068 4.53918 6 4.53918ZM6 6.83482C5.53896 6.83482 5.16522 6.46107 5.16522 6.00003C5.16522 5.53899 5.53896 5.16525 6 5.16525C6.46104 5.16525 6.83479 5.53899 6.83479 6.00003C6.83479 6.46107 6.46104 6.83482 6 6.83482Z" fill="#FFDA44"/>
<path d="M6.72294 6.20869L6.00002 6L5.2771 6.20869L5.0361 6.6261H6.96393L6.72294 6.20869Z" fill="#0052B4"/>
<path d="M6.00002 4.95654L5.51807 5.79129L6.00002 5.99998L6.48198 5.79129L6.00002 4.95654Z" fill="#338AF3"/>
<path d="M5.2771 6.20876H6.72294L6.48198 5.79138H5.51806L5.2771 6.20876Z" fill="#6DA544"/>
</g>
<circle cx="6" cy="6" r="6" stroke="#E1DED7"/>
</g>
<defs>
<clipPath id="clip0_91_5363">
<rect width="18" height="12" fill="white" transform="translate(-3)"/>
</clipPath>
</defs>
</svg>
