<svg width="12" height="12" viewBox="0 0 12 12" fill="none" xmlns="http://www.w3.org/2000/svg">
<mask id="mask0_109_9930" style="mask-type:alpha" maskUnits="userSpaceOnUse" x="0" y="0" width="12" height="12">
<circle cx="6" cy="6" r="6" fill="#D9D9D9"/>
</mask>
<g mask="url(#mask0_109_9930)">
<g clip-path="url(#clip0_109_9930)">
<path d="M-3 0H15V12H-3V0Z" fill="#CE1126"/>
<path d="M6.03291 8.20303C7.05615 8.20303 7.88564 7.37353 7.88564 6.35029C7.88564 5.32706 7.05615 4.49756 6.03291 4.49756C5.00967 4.49756 4.18018 5.32706 4.18018 6.35029C4.18018 7.37353 5.00967 8.20303 6.03291 8.20303Z" fill="#FCD116"/>
<path d="M6.90656 3.45569L6.12524 4.31283L7.06809 4.52711L6.90656 3.45569Z" fill="#FCD116"/>
<path d="M5.20878 3.4624L5.05054 4.5536L5.99009 4.28987L5.20878 3.4624Z" fill="#FCD116"/>
<path d="M8.31753 4.34253L7.17358 4.62275L7.83622 5.40406L8.31753 4.34253Z" fill="#FCD116"/>
<path d="M3.7583 4.2832L4.26929 5.36122L4.93522 4.61287L3.7583 4.2832Z" fill="#FCD116"/>
<path d="M8.9999 5.77657L7.86584 5.4502L8.05046 6.42272L8.9999 5.77657Z" fill="#FCD116"/>
<path d="M3 5.69086L4.05164 6.3436L4.22307 5.43042L3 5.69086Z" fill="#FCD116"/>
<path d="M-3 7H15V12H-3V7Z" fill="#003F87"/>
<path d="M-3 10.68C-2.4 10.68 -1.8 11.2 -1.2 11.2C-0.6 11.2 0 10.68 0.6 10.68C1.2 10.68 1.8 11.2 2.4 11.2C3 11.2 3.6 10.68 4.2 10.68C4.8 10.68 5.4 11.2 6 11.2C6.6 11.2 7.2 10.68 7.8 10.68C8.4 10.68 9 11.2 9.6 11.2C10.2 11.2 10.8 10.68 11.4 10.68C12 10.68 12.6 11.2 13.2 11.2C13.8 11.2 14.4 10.68 15 10.68V9.84002C14.4 9.84002 13.8 10.36 13.2 10.36C12.6 10.36 12 9.84002 11.4 9.84002C10.8 9.84002 10.2 10.36 9.6 10.36C9 10.36 8.4 9.84002 7.8 9.84002C7.2 9.84002 6.6 10.36 6 10.36C5.4 10.36 4.8 9.84002 4.2 9.84002C3.6 9.84002 3 10.36 2.4 10.36C1.8 10.36 1.2 9.84002 0.6 9.84002C0 9.84002 -0.6 10.36 -1.2 10.36C-1.8 10.36 -2.4 9.84002 -3 9.84002V10.68ZM-3 8.96002C-2.4 8.96002 -1.8 9.48002 -1.2 9.48002C-0.6 9.48002 0 8.96002 0.6 8.96002C1.2 8.96002 1.8 9.48002 2.4 9.48002C3 9.48002 3.6 8.96002 4.2 8.96002C4.8 8.96002 5.4 9.48002 6 9.48002C6.6 9.48002 7.2 8.96002 7.8 8.96002C8.4 8.96002 9 9.48002 9.6 9.48002C10.2 9.48002 10.8 8.96002 11.4 8.96002C12 8.96002 12.6 9.48002 13.2 9.48002C13.8 9.48002 14.4 8.96002 15 8.96002V8.12002C14.4 8.12002 13.8 8.64002 13.2 8.64002C12.6 8.64002 12 8.12002 11.4 8.12002C10.8 8.12002 10.2 8.64002 9.6 8.64002C9 8.64002 8.4 8.12002 7.8 8.12002C7.2 8.12002 6.6 8.64002 6 8.64002C5.4 8.64002 4.8 8.12002 4.2 8.12002C3.6 8.12002 3 8.64002 2.4 8.64002C1.8 8.64002 1.2 8.12002 0.6 8.12002C0 8.12002 -0.6 8.64002 -1.2 8.64002C-1.8 8.64002 -2.4 8.12002 -3 8.12002V8.96002ZM-3 7.24002C-2.4 7.24002 -1.8 7.76002 -1.2 7.76002C-0.6 7.76002 0 7.24002 0.6 7.24002C1.2 7.24002 1.8 7.76002 2.4 7.76002C3 7.76002 3.6 7.24002 4.2 7.24002C4.8 7.24002 5.4 7.76002 6 7.76002C6.6 7.76002 7.2 7.24002 7.8 7.24002C8.4 7.24002 9 7.76002 9.6 7.76002C10.2 7.76002 10.8 7.24002 11.4 7.24002C12 7.24002 12.6 7.76002 13.2 7.76002C13.8 7.76002 14.4 7.24002 15 7.24002V6.40002C14.4 6.40002 13.8 6.92002 13.2 6.92002C12.6 6.92002 12 6.40002 11.4 6.40002C10.8 6.40002 10.2 6.92002 9.6 6.92002C9 6.92002 8.4 6.40002 7.8 6.40002C7.2 6.40002 6.6 6.92002 6 6.92002C5.4 6.92002 4.8 6.40002 4.2 6.40002C3.6 6.40002 3 6.92002 2.4 6.92002C1.8 6.92002 1.2 6.40002 0.6 6.40002C0 6.40002 -0.6 6.92002 -1.2 6.92002C-1.8 6.92002 -2.4 6.40002 -3 6.40002V7.24002Z" fill="white"/>
<path fill-rule="evenodd" clip-rule="evenodd" d="M4.84287 2.69911L4.81638 2.58296L5.35581 2.50187C5.35581 2.50187 4.63095 2.34627 4.39253 2.26737C4.04816 2.1556 4 2.00219 4 2.00219C4 2.00219 5.07646 2.24326 5.56051 2.24326C5.66406 2.24326 5.86875 2.47776 5.86875 2.47776C5.86875 2.47776 6.22517 2.15122 6.39615 2.14026C7.16918 2.08985 8 2 8 2C8 2 7.75918 2.14684 7.61469 2.18628C7.22456 2.29367 6.39615 2.4427 6.39615 2.4427L6.28055 2.60706H7.10175L6.75497 2.7013L6.93317 2.85252C6.93317 2.85252 6.74533 2.76267 6.49729 2.8065C6.32631 2.83499 6.12643 2.93799 5.94582 2.98182C5.49548 3.08702 5.22577 2.7013 5.22577 2.7013L4.84287 2.69911Z" fill="#FCD116"/>
</g>
<circle cx="6" cy="6" r="6" stroke="#E1DED7"/>
</g>
<defs>
<clipPath id="clip0_109_9930">
<rect width="18" height="12" fill="white" transform="translate(-3)"/>
</clipPath>
</defs>
</svg>
