<svg width="12" height="12" viewBox="0 0 12 12" fill="none" xmlns="http://www.w3.org/2000/svg">
<g clip-path="url(#clip0_244_3579)">
<rect width="12" height="12" rx="6" fill="#002B7F"/>
<g clip-path="url(#clip1_244_3579)">
<path d="M17 0H-5V12H17V0Z" fill="#D80027"/>
<path d="M16.4768 0.389526H-4.52399V11.586H16.4768V0.389526Z" fill="#0052B4"/>
<path d="M5.97856 10.0106C5.97856 10.0106 9.25497 8.21058 9.25497 5.98953C9.25497 3.76847 5.97856 1.96497 5.97856 1.96497C5.97856 1.96497 2.70215 3.76497 2.70215 5.98602C2.70215 8.20707 5.97856 10.0106 5.97856 10.0106Z" fill="#7DBEF1"/>
<path d="M2.71069 6.34033H9.25494L7.99841 8.61753H3.91576L2.71069 6.34033Z" fill="#1C8AE6"/>
<path d="M3.24677 7.22461C3.24677 7.22461 4.98361 8.56496 5.4339 8.56496C5.96567 8.56496 5.97425 7.91935 6.52747 7.67022C7.39374 7.28075 8.7146 7.22461 8.7146 7.22461L7.73682 8.72636L5.97854 10.0106L3.97152 8.61759L3.24677 7.22461Z" fill="#FFF042"/>
<path d="M5.97855 5.52636L5.01364 6.07373L5.35243 5.15443L4.41754 4.57549L5.59259 4.55794L5.97855 3.64917L6.36452 4.55794L7.53957 4.57549L6.60468 5.15794L6.94347 6.07724L5.97855 5.52636Z" fill="#259C7B"/>
<path d="M5.70841 5.07372C5.66981 5.39653 5.64408 5.71933 5.6355 6.04214C5.62264 6.45969 5.64837 6.76846 5.72127 6.95442C5.81562 7.186 6.03004 7.40705 6.33024 7.61758C6.55753 7.77898 6.78482 7.90179 6.93921 7.97197C7.07215 8.03162 7.2394 7.99302 7.31231 7.88776C7.38521 7.77898 7.33804 7.64214 7.20938 7.58249C7.02498 7.49477 6.84915 7.39302 6.68618 7.27723C6.45461 7.11583 6.29593 6.95442 6.24018 6.81056C6.19301 6.69126 6.17156 6.41407 6.18014 6.04916C6.18872 5.73688 6.21445 5.4246 6.25305 5.11583C6.2702 4.99302 6.1587 4.88425 6.0086 4.87021C5.85422 4.85969 5.72127 4.95091 5.70841 5.07372Z" fill="#8E5715"/>
<path d="M4.34033 5.9895L5.4339 7.32985H4.34033V5.9895Z" fill="white"/>
<path d="M5.97856 10.0106C5.97856 10.0106 9.25497 8.21058 9.25497 5.98953C9.25497 3.76847 5.97856 1.96497 5.97856 1.96497C5.97856 1.96497 2.70215 3.76497 2.70215 5.98602C2.70215 8.20707 5.97856 10.0106 5.97856 10.0106Z" stroke="#D80027" stroke-width="0.350877" stroke-miterlimit="10"/>
</g>
</g>
<rect x="0.25" y="0.25" width="11.5" height="11.5" rx="5.75" stroke="#E1DED7" stroke-width="0.5"/>
<defs>
<clipPath id="clip0_244_3579">
<rect width="12" height="12" rx="6" fill="white"/>
</clipPath>
<clipPath id="clip1_244_3579">
<rect width="22" height="12" fill="white" transform="translate(-5)"/>
</clipPath>
</defs>
</svg>
