<svg width="12" height="12" viewBox="0 0 12 12" fill="none" xmlns="http://www.w3.org/2000/svg">
<mask id="mask0_91_5548" style="mask-type:alpha" maskUnits="userSpaceOnUse" x="0" y="0" width="12" height="12">
<circle cx="6" cy="6" r="6" fill="#D9D9D9"/>
</mask>
<g mask="url(#mask0_91_5548)">
<g clip-path="url(#clip0_91_5548)">
<path d="M15 0H-3V12H15V0Z" fill="#FFDA44"/>
<path d="M14.1825 0.782471H4.50006V11.1965H14.1825V0.782471Z" fill="#A2001D"/>
<path d="M4 1H-2V11H4V1Z" fill="#D80027"/>
<path d="M4.5 0H4V12H4.5V0Z" fill="#FFDA44"/>
<path d="M2.12281 1H-1V11.414H2.12281V1Z" fill="#6DA544"/>
<path d="M4 -1H2V12H4V-1Z" fill="#FF9811"/>
<path d="M8.05124 5.91053C8.02276 5.87023 8.05124 5.14688 8.05124 5.14688C8.06954 4.99777 8.05327 4.97762 8.07158 4.91718C8.08989 4.85874 8.18142 4.68345 8.18142 4.68345C8.18142 4.68345 8.05937 4.6371 7.9719 4.67136C7.88443 4.70561 7.46945 4.52024 7.33723 4.73986C7.24773 4.88091 6.85716 5.06628 6.83682 5.02195C6.81647 4.97762 6.7168 4.92121 6.69646 4.96352C6.67612 5.00583 6.68222 5.24359 6.69646 5.28591C6.71273 5.33829 6.89581 5.3262 6.94666 5.34837C7.02193 5.38464 7.19484 5.51359 7.18873 5.56396C7.18263 5.61434 6.73104 5.44307 6.69646 5.47329C6.66798 5.49747 6.65781 5.73926 6.68832 5.77553C6.72494 5.81784 7.16432 5.88837 7.19687 5.92665C7.22942 5.96493 6.93039 6.07575 6.94666 6.43038C6.9609 6.72657 7.1094 6.78097 7.1094 6.78097C7.1094 6.78097 7.06058 6.85351 6.95073 6.84344C6.82461 6.83135 6.39336 6.4868 6.39336 6.4868C6.39336 6.4868 6.32216 4.29054 6.46659 4.04069C6.56627 3.86942 6.00483 4.24419 6.00483 5.06426V5.79366C6.00483 5.92665 5.97635 6.24501 6.05772 6.47874C6.05772 6.47874 6.04958 7.42373 6.08823 7.47814C6.12688 7.53254 6.34657 7.52246 6.38929 7.47814C6.43201 7.43381 6.38929 6.87366 6.38929 6.87366C6.54593 6.87769 6.76155 7.22627 7.05041 7.20411C7.46945 7.17187 7.63422 7.00463 7.74814 7.10336C7.91291 7.24642 7.86002 7.57082 7.75628 7.73806C7.71152 7.80858 7.46539 7.83276 7.43691 7.89119C7.40843 7.94963 7.44708 8 7.44708 8H8.05124C8.05124 8 8.07971 7.58694 8.10616 7.47411C8.1326 7.35926 8.09395 7.25851 8.22618 7.26455C8.70421 7.28672 9.03579 6.95627 9.15174 7.10336C9.21683 7.18597 9.26565 7.70582 9.21887 7.77433C9.17411 7.84284 8.93815 7.83075 8.90967 7.90933C8.88119 7.98993 8.92594 7.99798 8.92594 7.99798H9.5301C9.5301 7.99798 9.52196 7.57082 9.58095 7.43985C9.63995 7.30888 9.68063 7.2303 9.77014 7.09329C9.85964 6.95627 10 6.77694 10 6.36389C10 6.07777 9.83523 5.90449 9.83523 5.90449H9.04393C8.7571 5.90852 8.07971 5.95083 8.05124 5.91053Z" fill="#FFDA44"/>
<path d="M5.15402 3.15054C5.45676 2.84737 5.72555 3.07332 5.78214 3.2106C5.8359 3.34789 5.84156 3.44513 5.86136 3.59958C5.88683 3.79693 6 4 6 4C6 4 5.79911 3.89131 5.58408 3.87987C5.4511 3.87129 5.32944 3.86271 5.19929 3.80837C5.03801 3.74259 4.86825 3.43941 5.15402 3.15054Z" fill="#FFDA44"/>
<path d="M10.8495 3.15402C11.1526 3.45676 10.9267 3.72555 10.7894 3.78214C10.6521 3.8359 10.5549 3.84156 10.4004 3.86136C10.2031 3.88683 10 4 10 4C10 4 10.1087 3.79911 10.1201 3.58408C10.1287 3.4511 10.1373 3.32944 10.1916 3.19929C10.2574 3.03801 10.5606 2.86825 10.8495 3.15402Z" fill="#FFDA44"/>
<path d="M5.15054 8.84494C4.84737 8.54257 5.07332 8.27411 5.2106 8.21759C5.34789 8.1639 5.44513 8.15825 5.59958 8.13847C5.79693 8.11304 6 8 6 8C6 8 5.89131 8.20064 5.87987 8.41541C5.87129 8.54822 5.86271 8.66974 5.80837 8.79973C5.74259 8.96081 5.43941 9.13319 5.15054 8.84494Z" fill="#FFDA44"/>
<path d="M10.8449 8.84946C10.5426 9.15263 10.2741 8.92668 10.2176 8.7894C10.1639 8.65211 10.1583 8.55487 10.1385 8.40042C10.113 8.20307 10 8 10 8C10 8 10.2006 8.10869 10.4154 8.12013C10.5482 8.12871 10.6697 8.13729 10.7997 8.19163C10.9608 8.25741 11.1332 8.56059 10.8449 8.84946Z" fill="#FFDA44"/>
<path d="M9.87297 6C9.87297 6 9.97432 5.95544 9.98649 5.72407C9.99459 5.57668 9.71892 5.44986 9.45946 5.52698C9.19324 5.60582 9 5.47385 9 5.27676C9 4.88429 9.40135 4.99912 9.52568 5.0831C9.64865 5.16708 9.92703 5.48585 10 5.2442" stroke="#FFDA44" stroke-width="0.210526" stroke-miterlimit="10"/>
</g>
<circle cx="6" cy="6" r="6" stroke="#E1DED7"/>
</g>
<defs>
<clipPath id="clip0_91_5548">
<rect width="18" height="12" fill="white" transform="translate(-3)"/>
</clipPath>
</defs>
</svg>
