<svg width="12" height="12" viewBox="0 0 12 12" fill="none" xmlns="http://www.w3.org/2000/svg">
<mask id="mask0_65_835" style="mask-type:alpha" maskUnits="userSpaceOnUse" x="0" y="0" width="12" height="12">
<circle cx="6" cy="6" r="6" fill="#D9D9D9"/>
</mask>
<g mask="url(#mask0_65_835)">
<g clip-path="url(#clip0_65_835)">
<path d="M14.8772 0H-3.12281V12H14.8772V0Z" fill="#41662E"/>
<path d="M14.8772 0H5.87719V12H14.8772V0Z" fill="white"/>
<path d="M8.85965 3.6947L7.82807 5.11225L6.1614 4.5719L7.19298 5.98944L6.1614 7.40698L7.82807 6.86663L8.85965 8.28418V6.52979L10.5263 5.98593L8.85965 5.44558V3.6947Z" fill="#D80027"/>
<path d="M7.75088 9.70877C5.69824 9.70877 4.03158 8.0421 4.03158 5.98947C4.03158 3.93684 5.69824 2.27017 7.75088 2.27017C8.39298 2.27017 8.99298 2.43158 9.5193 2.71579C8.69474 1.90877 7.56491 1.41052 6.3193 1.41052C3.79298 1.41052 1.74386 3.45965 1.74386 5.98596C1.74386 8.51228 3.79298 10.5614 6.3193 10.5614C7.56491 10.5614 8.69474 10.0632 9.5193 9.25614C8.99649 9.54386 8.39298 9.70877 7.75088 9.70877Z" fill="#D80027"/>
<circle cx="6.00024" cy="6" r="6" stroke="#E1DED7"/>
</g>
</g>
<defs>
<clipPath id="clip0_65_835">
<rect width="18" height="12" fill="white" transform="translate(-3.12281)"/>
</clipPath>
</defs>
</svg>
