<svg width="12" height="12" viewBox="0 0 12 12" fill="none" xmlns="http://www.w3.org/2000/svg">
<g clip-path="url(#clip0_23259_161534)">
<path d="M6 12.0001C9.31371 12.0001 12 9.31383 12 6.00012C12 2.68641 9.31371 0.00012207 6 0.00012207C2.68629 0.00012207 0 2.68641 0 6.00012C0 9.31383 2.68629 12.0001 6 12.0001Z" fill="#F0F0F0"/>
<path d="M12 5.99997C12 9.31366 9.31369 12 6 12C2.68631 12 0 9.31366 0 5.99997C0 2.68628 6 5.99997 6 5.99997C6 5.99997 10.5413 5.99997 12 5.99997Z" fill="#D80027"/>
<path d="M0 6.00012C0 2.68643 2.68631 0.00012207 6 0.00012207V6.00012C6 6.00012 2.08695 6.00012 0 6.00012Z" fill="#0052B4"/>
<path d="M3.57156 2.08691L3.96009 3.28265H5.21734L4.2002 4.02163L4.5887 5.21737L3.57156 4.47836L2.55442 5.21737L2.94292 4.02163L1.92578 3.28265H3.18304L3.57156 2.08691Z" fill="#F0F0F0"/>
</g>
<defs>
<clipPath id="clip0_23259_161534">
<rect width="12" height="12" fill="white"/>
</clipPath>
</defs>
</svg>
