<svg width="12" height="12" viewBox="0 0 12 12" fill="none" xmlns="http://www.w3.org/2000/svg">
<g clip-path="url(#clip0_14_1502)">
<mask id="mask0_14_1502" style="mask-type:alpha" maskUnits="userSpaceOnUse" x="0" y="0" width="12" height="12">
<circle cx="6" cy="6" r="6" fill="#D9D9D9"/>
</mask>
<g mask="url(#mask0_14_1502)">
<path d="M8.98242 0H2.98242H-3.01758V11.9754H14.9824V0H8.98242Z" fill="#DC2339"/>
<path d="M2.98242 0H-3.01758V12H2.98242V0Z" fill="#11865D"/>
<path d="M8.98242 0H2.98242V12H8.98242V0Z" fill="white"/>
<path d="M3.8526 6.00702C3.8526 6.76491 4.25611 7.47018 4.91576 7.84912C5.11926 7.96842 5.37891 7.89825 5.49821 7.69474C5.61751 7.49123 5.54733 7.23158 5.34383 7.11228C4.94733 6.88421 4.70523 6.46316 4.70523 6.00702C4.70523 5.77193 4.51576 5.58246 4.28067 5.58246C4.04558 5.58246 3.8526 5.77193 3.8526 6.00702ZM7.12979 7.8C7.74383 7.41053 8.11225 6.73333 8.11225 6.00702C8.11225 5.77193 7.92277 5.58246 7.68769 5.58246C7.4526 5.58246 7.26312 5.77193 7.26312 6.00702C7.26312 6.44211 7.04207 6.84912 6.67365 7.08421C6.47365 7.20702 6.41049 7.46667 6.52979 7.67018C6.64909 7.87368 6.91225 7.93333 7.11575 7.81404C7.11575 7.80702 7.12277 7.80351 7.12979 7.8Z" fill="#8C9157"/>
<path d="M5.98242 6.85965C6.45332 6.85965 6.83505 6.28783 6.83505 5.58246C6.83505 4.87708 6.45332 4.30526 5.98242 4.30526C5.51153 4.30526 5.12979 4.87708 5.12979 5.58246C5.12979 6.28783 5.51153 6.85965 5.98242 6.85965Z" fill="#C59262"/>
<circle cx="6" cy="6" r="6" stroke="#E1DED7"/>
</g>
</g>
<defs>
<clipPath id="clip0_14_1502">
<rect width="12" height="12" rx="1.12281" fill="white"/>
</clipPath>
</defs>
</svg>
