<svg width="12" height="12" viewBox="0 0 12 12" fill="none" xmlns="http://www.w3.org/2000/svg">
<mask id="mask0_76_1212" style="mask-type:alpha" maskUnits="userSpaceOnUse" x="0" y="0" width="12" height="12">
<circle cx="6" cy="6" r="6" fill="#D9D9D9"/>
</mask>
<g mask="url(#mask0_76_1212)">
<g clip-path="url(#clip0_76_1212)">
<path d="M15.9298 -0.0128174H-2.07018V11.9872H15.9298V-0.0128174Z" fill="#91DC5A"/>
<path d="M15.9298 -0.0128174H-2.07018V11.9872H15.9298V-0.0128174Z" fill="white"/>
<path d="M15.9298 -0.0128174H-2.07018V1.99378H15.9298V-0.0128174Z" fill="#0052B4"/>
<path d="M15.9298 9.95557H-2.07018V11.9618H15.9298V9.95557Z" fill="#0052B4"/>
<path d="M15.9298 2.79065H-2.07018V9.16195H15.9298V2.79065Z" fill="#D80027"/>
<path d="M4.60807 8.29126C5.88061 8.29126 6.91221 7.25967 6.91221 5.98712C6.91221 4.71458 5.88061 3.68298 4.60807 3.68298C3.33553 3.68298 2.30393 4.71458 2.30393 5.98712C2.30393 7.25967 3.33553 8.29126 4.60807 8.29126Z" fill="white"/>
<path d="M4.60702 3.67139L5.12632 5.26086H6.8L5.44562 6.24683L5.96491 7.84332L4.60702 6.85384L3.25263 7.83981L3.77193 6.24683L2.41755 5.26086H4.09123L4.60702 3.67139Z" fill="#D80027"/>
<circle cx="5.99989" cy="6" r="6" stroke="#E1DED7"/>
</g>
</g>
<defs>
<clipPath id="clip0_76_1212">
<rect width="18" height="12" fill="white" transform="translate(-2.07018 -0.0128174)"/>
</clipPath>
</defs>
</svg>
