<svg width="12" height="12" viewBox="0 0 12 12" fill="none" xmlns="http://www.w3.org/2000/svg">
<mask id="mask0_91_5289" style="mask-type:alpha" maskUnits="userSpaceOnUse" x="0" y="0" width="12" height="12">
<circle cx="6" cy="6" r="6" fill="#D9D9D9"/>
</mask>
<g mask="url(#mask0_91_5289)">
<g clip-path="url(#clip0_91_5289)">
<path d="M18 0H0V12.0001H18V0Z" fill="black"/>
<path d="M18 1.7179H0V3.43591H18V1.7179Z" fill="#FFDA44"/>
<path d="M18 8.58997H0V10.308H18V8.58997Z" fill="#FFDA44"/>
<path d="M18 0H0V1.71802H18V0Z" fill="#057F44"/>
<path d="M18 3.43604H0V5.15405H18V3.43604Z" fill="#D80027"/>
<path d="M18 6.87207H0V8.59009H18V6.87207Z" fill="#D80027"/>
<path d="M18 10.3081H0V12.0001H18V10.3081Z" fill="#057F44"/>
<path d="M9.73801 5.99988L3.73813 11.9998H0V0H3.73813L9.73801 5.99988Z" fill="white"/>
<path d="M9.00001 5.99986L3.00003 11.9998H3.73786L9.73787 5.99986L3.73786 -0.00012207H3.00003L9.00001 5.99986Z" fill="black"/>
<path d="M3.60229 4.12158L4.06843 5.55638H5.57723L4.35667 6.44323L4.82284 7.8781L3.60229 6.99132L2.38166 7.8781L2.84791 6.44323L1.62735 5.55638H3.13608L3.60229 4.12158Z" fill="#D80027"/>
<path d="M4.88463 6.11727L3.66966 5.68685C3.66966 5.68685 3.57991 4.84468 3.57446 4.81617C3.53322 4.59891 3.34232 4.43469 3.1131 4.43469C2.85379 4.43469 2.64352 4.64493 2.64352 4.90427C2.64352 4.94727 2.64978 4.98872 2.66061 5.02831L2.31998 5.37126C2.31998 5.37126 2.72459 5.37126 2.92568 5.37126C2.92568 5.99992 2.45656 5.99992 2.45656 6.62602L2.71679 7.25212H4.28201L4.54294 6.62602H4.5428C4.56896 6.56594 4.58478 6.50403 4.59135 6.44212C4.81625 6.3511 4.88463 6.11727 4.88463 6.11727Z" fill="#FFDA44"/>
</g>
<circle cx="6" cy="6" r="6" stroke="#E1DED7"/>
</g>
<defs>
<clipPath id="clip0_91_5289">
<rect width="18" height="12" fill="white"/>
</clipPath>
</defs>
</svg>
