<svg width="12" height="12" viewBox="0 0 12 12" fill="none" xmlns="http://www.w3.org/2000/svg">
<mask id="mask0_91_5184" style="mask-type:alpha" maskUnits="userSpaceOnUse" x="0" y="0" width="12" height="12">
<circle cx="6" cy="6" r="6" fill="#D9D9D9"/>
</mask>
<g mask="url(#mask0_91_5184)">
<g clip-path="url(#clip0_91_5184)">
<path d="M15 -0.00012207H-3V12H15V-0.00012207Z" fill="white"/>
<path d="M15 -0.00012207H-3V3.99978H15V-0.00012207Z" fill="#D80027"/>
<path d="M15 7.99976H-3V11.9997H15V7.99976Z" fill="black"/>
<path d="M3.58513 4.56506L3.90885 5.56143H4.95658L4.10896 6.1773L4.43271 7.1737L3.58513 6.5579L2.73751 7.1737L3.06127 6.1773L2.21368 5.56143H3.26138L3.58513 4.56506Z" fill="#6DA544"/>
<path d="M8.4149 4.56506L8.73866 5.56143H9.78635L8.93877 6.1773L9.26252 7.1737L8.4149 6.5579L7.56732 7.1737L7.89108 6.1773L7.04346 5.56143H8.09118L8.4149 4.56506Z" fill="#6DA544"/>
</g>
<circle cx="6" cy="6" r="6" stroke="#E1DED7"/>
</g>
<defs>
<clipPath id="clip0_91_5184">
<rect width="18" height="12" fill="white" transform="translate(-3)"/>
</clipPath>
</defs>
</svg>
