<svg width="12" height="12" viewBox="0 0 12 12" fill="none" xmlns="http://www.w3.org/2000/svg">
<g clip-path="url(#clip0_14_1515)">
<mask id="mask0_14_1515" style="mask-type:alpha" maskUnits="userSpaceOnUse" x="0" y="0" width="12" height="12">
<circle cx="6" cy="6" r="6" fill="#D9D9D9"/>
</mask>
<g mask="url(#mask0_14_1515)">
<path d="M14.9473 0H-3.01758V12H14.9473V0Z" fill="white"/>
<path d="M14.9473 0H-3.01758V4H14.9473V0Z" fill="#338AF3"/>
<path d="M14.9473 8H-3.01758V12H14.9473V8Z" fill="#338AF3"/>
<path d="M5.98242 7.40351C6.75756 7.40351 7.38593 6.77514 7.38593 6C7.38593 5.22486 6.75756 4.59649 5.98242 4.59649C5.20729 4.59649 4.57891 5.22486 4.57891 6C4.57891 6.77514 5.20729 7.40351 5.98242 7.40351Z" fill="#FFDA44"/>
<path d="M14.9473 0H-3.01758M14.9473 0V12M14.9473 0V4H-3.01758V0M-3.01758 0V12M-3.01758 12H14.9473M-3.01758 12V8H14.9473V12M5.98242 7.40351C6.75756 7.40351 7.38593 6.77514 7.38593 6C7.38593 5.22486 6.75756 4.59649 5.98242 4.59649C5.20729 4.59649 4.57891 5.22486 4.57891 6C4.57891 6.77514 5.20729 7.40351 5.98242 7.40351Z" stroke="#D6AB00" stroke-width="0.175439"/>
<circle cx="6" cy="6" r="6" stroke="#E1DED7"/>
</g>
</g>
<defs>
<clipPath id="clip0_14_1515">
<rect width="12" height="12" rx="1.12281" fill="white"/>
</clipPath>
</defs>
</svg>
