<svg width="12" height="12" viewBox="0 0 12 12" fill="none" xmlns="http://www.w3.org/2000/svg">
<g clip-path="url(#clip0_14_1625)">
<mask id="mask0_14_1625" style="mask-type:alpha" maskUnits="userSpaceOnUse" x="0" y="0" width="12" height="12">
<circle cx="6" cy="6" r="6" fill="#D9D9D9"/>
</mask>
<g mask="url(#mask0_14_1625)">
<path d="M14.9824 0H-3.01758V12H14.9824V0Z" fill="white"/>
<path d="M14.9824 0H-3.01758V4H14.9824V0Z" fill="#D80027"/>
<path d="M14.9824 8H-3.01758V12H14.9824V8Z" fill="#0052B4"/>
<path d="M7.46436 4.38454V3.14945L7.95558 2.74524L8.45243 3.14945V4.38454H7.46436Z" fill="#338AF3"/>
<path d="M4.50028 4.38454V3.14945L4.01466 2.74524L3.51221 3.14945V4.38454H4.50028Z" fill="#338AF3"/>
<path d="M5.48828 4.38454V3.14945L5.98232 2.74524L6.47635 3.14945V4.38454H5.48828Z" fill="#338AF3"/>
<path d="M7.46463 4.38454H6.47656V3.14945L6.96779 2.74524L7.46463 3.14945V4.38454Z" fill="#0052B4"/>
<path d="M5.48856 4.38454H4.50049V3.14945L4.99172 2.74524L5.48856 3.14945V4.38454Z" fill="#0052B4"/>
<path d="M3.51221 4.38452V7.24487C3.51221 7.92698 3.91642 8.54171 4.50589 8.91224C5.10379 9.28838 5.68765 9.32487 5.98238 9.32487C6.27712 9.32487 6.86379 9.27715 7.45887 8.90943C8.04835 8.54452 8.45256 7.92417 8.45256 7.24487V4.38452H3.51221Z" fill="white" stroke="#D80027" stroke-width="0.0280702"/>
<path d="M4.50028 4.38452H3.51221V5.37259H4.50028V4.38452Z" fill="#D80027"/>
<path d="M6.47635 4.38452H5.48828V5.37259H6.47635V4.38452Z" fill="#D80027"/>
<path d="M8.45243 4.38452H7.46436V5.37259H8.45243V4.38452Z" fill="#D80027"/>
<path d="M5.48856 5.37256H4.50049V6.36063H5.48856V5.37256Z" fill="#D80027"/>
<path d="M7.46463 5.37256H6.47656V6.36063H7.46463V5.37256Z" fill="#D80027"/>
<path d="M4.50028 6.36072H3.51221V7.34879H4.50028V6.36072Z" fill="#D80027"/>
<path d="M5.48856 7.34875H4.50049V8.33683H5.48856V7.34875Z" fill="#D80027"/>
<path d="M6.47635 6.36072H5.48828V7.34879H6.47635V6.36072Z" fill="#D80027"/>
<path d="M8.45243 6.3606H7.46436V7.34867H8.45243V6.3606Z" fill="#D80027"/>
<path d="M7.46463 7.34875H6.47656V8.33683H7.46463V7.34875Z" fill="#D80027"/>
<path d="M7.46436 8.90662C7.70576 8.75504 7.91909 8.56135 8.0819 8.33679H7.46436V8.90662Z" fill="#D80027"/>
<path d="M3.88281 8.33679C4.04562 8.56135 4.25615 8.75504 4.50036 8.90942V8.33679H3.88281Z" fill="#D80027"/>
<path d="M5.48828 8.33679V9.28276C5.69039 9.31644 5.86161 9.32486 5.98232 9.32486C6.10302 9.32486 6.27425 9.31644 6.47635 9.27995V8.33679H5.48828Z" fill="#D80027"/>
<circle cx="6" cy="6" r="6" stroke="#E1DED7"/>
</g>
</g>
<defs>
<clipPath id="clip0_14_1625">
<rect width="12" height="12" rx="1.12281" fill="white"/>
</clipPath>
</defs>
</svg>
