<svg width="12" height="12" viewBox="0 0 12 12" fill="none" xmlns="http://www.w3.org/2000/svg">
<mask id="mask0_76_1211" style="mask-type:alpha" maskUnits="userSpaceOnUse" x="0" y="0" width="12" height="12">
<circle cx="6" cy="6" r="6" fill="#D9D9D9"/>
</mask>
<g mask="url(#mask0_76_1211)">
<g clip-path="url(#clip0_76_1211)">
<path d="M14.9474 0H-3.01755V12H14.9474V0Z" fill="white"/>
<path d="M14.9825 0H-3.01755V4H14.9825V0Z" fill="#6DA544"/>
<path d="M14.9825 7.99658H-3.01755V11.9966H14.9825V7.99658Z" fill="#D80027"/>
<path d="M6.76491 4.72988C6.76842 4.80006 7.07017 5.64918 6.91929 6.11234C6.68772 6.82462 6.36491 6.87725 6.22456 6.97199V4.70181L5.98245 4.55444L5.74035 4.70181V6.97199C5.6 6.87725 5.30526 6.88778 5.04561 6.11234C4.89473 5.66672 5.24561 4.80357 5.24912 4.7369C5.24912 4.7369 4.91579 5.02111 4.69473 5.579C4.48771 6.0983 4.7614 7.31936 5.72982 7.50181C5.81052 7.51585 5.89473 7.6983 5.98245 7.6983C6.05614 7.6983 6.12631 7.51585 6.19298 7.50532C7.18947 7.34392 7.42105 6.04216 7.2421 5.55444C7.05263 5.04216 6.76491 4.72988 6.76491 4.72988Z" fill="#D80027"/>
<g opacity="0.5">
<path d="M0.894734 3.47021H0.112278V4.32636H0.894734V3.47021Z" fill="white"/>
<path d="M2.45965 3.47021H1.67719V4.32636H2.45965V3.47021Z" fill="white"/>
<path d="M4.02456 3.47021H3.2421V4.32636H4.02456V3.47021Z" fill="white"/>
<path d="M5.58947 3.47021H4.80701V4.32636H5.58947V3.47021Z" fill="white"/>
<path d="M7.15789 3.47021H6.37543V4.32636H7.15789V3.47021Z" fill="white"/>
<path d="M8.7228 3.47021H7.94035V4.32636H8.7228V3.47021Z" fill="white"/>
<path d="M10.2877 3.47021H9.50526V4.32636H10.2877V3.47021Z" fill="white"/>
<path d="M11.8526 3.47021H11.0702V4.32636H11.8526V3.47021Z" fill="white"/>
<path d="M0.894734 7.6106H0.112278V8.50533H0.894734V7.6106Z" fill="white"/>
<path d="M2.45965 7.6106H1.67719V8.50533H2.45965V7.6106Z" fill="white"/>
<path d="M4.02456 7.6106H3.2421V8.50533H4.02456V7.6106Z" fill="white"/>
<path d="M5.58947 7.6106H4.80701V8.50533H5.58947V7.6106Z" fill="white"/>
<path d="M7.15789 7.6106H6.37543V8.50533H7.15789V7.6106Z" fill="white"/>
<path d="M8.7228 7.6106H7.94035V8.50533H8.7228V7.6106Z" fill="white"/>
<path d="M10.2877 7.6106H9.50526V8.50533H10.2877V7.6106Z" fill="white"/>
<path d="M11.8526 7.6106H11.0702V8.50533H11.8526V7.6106Z" fill="white"/>
</g>
<circle cx="6.00003" cy="6" r="6" stroke="#E1DED7"/>
</g>
</g>
<defs>
<clipPath id="clip0_76_1211">
<rect width="18" height="12" fill="white" transform="translate(-3.01755)"/>
</clipPath>
</defs>
</svg>
