<svg width="12" height="12" viewBox="0 0 12 12" fill="none" xmlns="http://www.w3.org/2000/svg">
<g clip-path="url(#clip0_23259_161518)">
<path d="M6 12C9.31371 12 12 9.31371 12 6C12 2.68629 9.31371 0 6 0C2.68629 0 0 2.68629 0 6C0 9.31371 2.68629 12 6 12Z" fill="#F0F0F0"/>
<path d="M12 6.00007C12 3.42031 10.3717 1.22103 8.08691 0.373291V11.6269C10.3717 10.7791 12 8.57988 12 6.00007V6.00007Z" fill="#FF9811"/>
<path d="M0 6.00007C0 8.57989 1.62825 10.7791 3.91305 11.6269V0.373291C1.62825 1.22103 0 3.42031 0 6.00007V6.00007Z" fill="#6DA544"/>
</g>
<defs>
<clipPath id="clip0_23259_161518">
<rect width="12" height="12" fill="white"/>
</clipPath>
</defs>
</svg>
