<svg width="12" height="12" viewBox="0 0 12 12" fill="none" xmlns="http://www.w3.org/2000/svg">
<mask id="mask0_65_818" style="mask-type:alpha" maskUnits="userSpaceOnUse" x="0" y="0" width="12" height="12">
<circle cx="6" cy="6" r="6" fill="#D9D9D9"/>
</mask>
<g mask="url(#mask0_65_818)">
<g clip-path="url(#clip0_65_818)">
<path d="M11.4211 2.97754L12.0356 3.63982L12.8553 3.26014L12.4153 4.04915L13.0298 4.71147L12.1434 4.5368L11.7034 5.32585L11.5956 4.42887L10.7092 4.25421L11.5289 3.87456L11.4211 2.97754Z" fill="white"/>
<path d="M15.5787 -0.0109863H-2.38617V11.9654H15.5787V-0.0109863Z" fill="white"/>
<path d="M15.579 0H3.01755V11.9649H15.579V0Z" fill="#01411C"/>
<path d="M9.54278 6.95269C8.79761 7.49112 7.75702 7.32354 7.21859 6.57834C6.68013 5.83314 6.84774 4.79256 7.59297 4.25415C7.8253 4.08628 8.08636 3.98705 8.35197 3.95252C7.84098 3.8761 7.30092 3.99125 6.84904 4.31772C5.93189 4.98043 5.7256 6.26113 6.38828 7.17831C7.05096 8.09544 8.33168 8.30175 9.24886 7.63902C9.70071 7.31254 9.97961 6.83596 10.0675 6.32679C9.9513 6.56809 9.77514 6.7848 9.54278 6.95269Z" fill="white"/>
<path d="M9.51087 3.92981L9.93065 4.38219L10.4906 4.12284L10.19 4.66178L10.6098 5.11421L10.0043 4.99493L9.70372 5.53394L9.63008 4.9212L9.02457 4.8019L9.58453 4.54255L9.51087 3.92981Z" fill="white"/>
</g>
<circle cx="6" cy="6" r="6" stroke="#E1DED7"/>
</g>
<defs>
<clipPath id="clip0_65_818">
<rect width="17.9649" height="11.9766" fill="white" transform="translate(-2.38596 -0.0117188)"/>
</clipPath>
</defs>
</svg>
