<svg width="12" height="12" viewBox="0 0 12 12" fill="none" xmlns="http://www.w3.org/2000/svg">
<mask id="mask0_78_1571" style="mask-type:alpha" maskUnits="userSpaceOnUse" x="0" y="0" width="12" height="12">
<circle cx="6" cy="6" r="6" fill="#D9D9D9"/>
</mask>
<g mask="url(#mask0_78_1571)">
<g clip-path="url(#clip0_78_1571)">
<path d="M16.9825 0H-1.01755V12H16.9825V0Z" fill="white"/>
<path d="M16.9825 0H-1.01755V2.39649H16.9825V0Z" fill="#0052B4"/>
<path d="M16.9825 4.78943H-1.01755V7.18592H16.9825V4.78943Z" fill="#0052B4"/>
<path d="M16.9825 9.5824H-1.01755V11.9789H16.9825V9.5824Z" fill="#0052B4"/>
<path d="M8.96491 5.98947L-0.0175476 12V0L8.96491 5.98947Z" fill="#D80027"/>
</g>
<circle cx="6.00003" cy="6" r="6" stroke="#E1DED7"/>
<path d="M3.24554 4.8772L3.52198 5.73434H4.42098L3.69395 6.26349L3.97257 7.12281L3.24554 6.59366L2.51851 7.12281L2.79713 6.26349L2.0701 5.73434H2.96691L3.24554 4.8772Z" fill="white"/>
</g>
<defs>
<clipPath id="clip0_78_1571">
<rect width="18" height="12" fill="white" transform="translate(-1.01755)"/>
</clipPath>
</defs>
</svg>
