<svg width="12" height="12" viewBox="0 0 12 12" fill="none" xmlns="http://www.w3.org/2000/svg">
<mask id="mask0_95_7885" style="mask-type:alpha" maskUnits="userSpaceOnUse" x="0" y="0" width="12" height="12">
<circle cx="6" cy="6" r="6" fill="#D9D9D9"/>
</mask>
<g mask="url(#mask0_95_7885)">
<g clip-path="url(#clip0_95_7885)">
<path d="M15 0H-3V12H15V0Z" fill="#6DA544"/>
<path d="M4.57544 5.99996L-3 11.0386V0.940308L4.57544 5.99996Z" fill="black"/>
<path d="M15.0001 0.940308V11.0386L7.38953 5.99996L15.0001 0.940308Z" fill="black"/>
<path d="M15 0.940351L7.38947 6L15 11.0386V12H13.5579L5.98246 6.92632L-1.59298 12H-3V11.0386L4.57544 6L-3 0.940351V0H-1.59298L5.98246 5.04912L13.5579 0H15V0.940351Z" fill="#0052B4"/>
<path d="M15 0.940351L7.38947 6L15 11.0386V12H13.5579L5.98246 6.92632L-1.59298 12H-3V11.0386L4.57544 6L-3 0.940351V0H-1.59298L5.98246 5.04912L13.5579 0H15V0.940351Z" fill="#FFDA44"/>
</g>
<circle cx="6" cy="6" r="6" stroke="#E1DED7"/>
</g>
<defs>
<clipPath id="clip0_95_7885">
<rect width="18" height="12" fill="white" transform="translate(-3)"/>
</clipPath>
</defs>
</svg>
