<svg width="12" height="12" viewBox="0 0 12 12" fill="none" xmlns="http://www.w3.org/2000/svg">
<g clip-path="url(#clip0_14_1567)">
<mask id="mask0_14_1567" style="mask-type:alpha" maskUnits="userSpaceOnUse" x="0" y="0" width="12" height="12">
<circle cx="6" cy="6" r="6" fill="#D9D9D9"/>
</mask>
<g mask="url(#mask0_14_1567)">
<path d="M-2.41064 0H14.3753V12H-2.41064V0Z" fill="#181A93"/>
<path d="M-3.01758 0H14.9824V4H-3.01758V0Z" fill="#FFA44A"/>
<path d="M-3.01758 8H14.9824V12H-3.01758V8Z" fill="#1A9F0B"/>
<path d="M-3.01758 4H14.9824V8H-3.01758V4Z" fill="white"/>
<path d="M5.98223 7.19993C6.64497 7.19993 7.18223 6.66267 7.18223 5.99993C7.18223 5.33718 6.64497 4.79993 5.98223 4.79993C5.31948 4.79993 4.78223 5.33718 4.78223 5.99993C4.78223 6.66267 5.31948 7.19993 5.98223 7.19993Z" fill="white"/>
<path d="M5.98232 7.5999C5.10162 7.5999 4.38232 6.8806 4.38232 5.9999C4.38232 5.1192 5.10162 4.3999 5.98232 4.3999C6.86303 4.3999 7.58232 5.1192 7.58232 5.9999C7.58232 6.8806 6.86303 7.5999 5.98232 7.5999ZM5.98232 7.1999C6.62092 7.1999 7.18232 6.6385 7.18232 5.9999C7.18232 5.36131 6.62443 4.7999 5.98232 4.7999C5.34022 4.7999 4.78232 5.36131 4.78232 5.9999C4.78232 6.6385 5.34373 7.1999 5.98232 7.1999Z" fill="#181A93"/>
<path d="M5.98262 6.79995C6.42445 6.79995 6.78262 6.44178 6.78262 5.99995C6.78262 5.55812 6.42445 5.19995 5.98262 5.19995C5.54079 5.19995 5.18262 5.55812 5.18262 5.99995C5.18262 6.44178 5.54079 6.79995 5.98262 6.79995Z" fill="#181A93"/>
<circle cx="6" cy="6" r="6" stroke="#E1DED7"/>
</g>
</g>
<defs>
<clipPath id="clip0_14_1567">
<rect width="12" height="12" rx="1.12281" fill="white"/>
</clipPath>
</defs>
</svg>
