<svg width="12" height="12" viewBox="0 0 12 12" fill="none" xmlns="http://www.w3.org/2000/svg">
<mask id="mask0_97_8140" style="mask-type:alpha" maskUnits="userSpaceOnUse" x="0" y="0" width="12" height="12">
<circle cx="6" cy="6" r="6" fill="#D9D9D9"/>
</mask>
<g mask="url(#mask0_97_8140)">
<g clip-path="url(#clip0_97_8140)">
<path d="M15 0H-3V12H15V0Z" fill="white"/>
<path d="M15 0H-3V4H15V0Z" fill="#0052B4"/>
<path d="M15 7.98596H-3V11.986H15V7.98596Z" fill="#6DA544"/>
<path d="M5.60357 5.99995L5.87374 5.18942C5.94392 4.9824 6.05269 4.97889 6.12287 5.18942L6.39304 5.99995L7.07374 7.021C7.13339 7.11223 7.11936 7.24205 7.03164 7.3017C7.03164 7.3017 6.78953 7.5824 5.99655 7.5824C5.20357 7.5824 4.96146 7.3017 4.96146 7.3017C4.87725 7.23152 4.85971 7.11223 4.91936 7.021L5.60357 5.99995Z" fill="black"/>
<path d="M6.00001 6.00003C5.56142 6.00003 5.20703 5.64564 5.20703 5.20704C5.20703 4.76845 5.56142 4.41406 6.00001 4.41406C6.43861 4.41406 6.793 4.76845 6.793 5.20704C6.793 5.64564 6.4351 6.00003 6.00001 6.00003ZM6.00001 6.00003C6.21756 6.00003 6.3965 5.4281 6.3965 5.20704C6.3965 4.9895 6.21756 4.81055 6.00001 4.81055C5.78247 4.81055 5.60352 4.9895 5.60352 5.20704C5.60352 5.4281 5.77896 6.00003 6.00001 6.00003Z" fill="black"/>
</g>
<circle cx="6" cy="6" r="6" stroke="#E1DED7"/>
</g>
<defs>
<clipPath id="clip0_97_8140">
<rect width="18" height="12" fill="white" transform="translate(-3)"/>
</clipPath>
</defs>
</svg>
