<svg width="12" height="12" viewBox="0 0 12 12" fill="none" xmlns="http://www.w3.org/2000/svg">
<mask id="mask0_154_989" style="mask-type:alpha" maskUnits="userSpaceOnUse" x="0" y="0" width="12" height="12">
<circle cx="6" cy="6" r="6" fill="#D9D9D9"/>
</mask>
<g mask="url(#mask0_154_989)">
<g clip-path="url(#clip0_154_989)">
<path d="M15 0H-3V12H15V0Z" fill="#C8102E"/>
<path d="M6 0.00354004H-3V6.00354H6V0.00354004Z" fill="#012169"/>
<path d="M5.98246 0H5.18947L2.61404 1.71579V0H0.368421V1.71579L-2.20702 0H-3V0.796491L-1.38246 1.87368H-3V4.1193H-1.38246L-3 5.19649V5.98947H-2.20702L0.368421 4.27368V5.98947H2.61404V4.27368L5.18947 5.98947H5.98246V5.19649L4.36491 4.1193H5.98246V1.87368H4.36491L5.98246 0.796491V0Z" fill="white"/>
<path d="M2.05263 0H0.929825V2.43509H-3V3.55789H0.929825V5.98947H2.05263V3.55789H5.98246V2.43509H2.05263V0Z" fill="#C8102E"/>
<path d="M5.98246 0.00354004V0.389505L3.78947 1.87372H2.99649L5.72632 0.00354004H5.98246Z" fill="#C8102E"/>
<path d="M5.72632 5.98944L2.99649 4.11926H3.78947L5.98246 5.60347V5.98944H5.72632Z" fill="#C8102E"/>
<path d="M7 5V6.97001C7 8.15194 8.57597 8.94003 8.57597 8.94003C8.57597 8.94003 10.1519 8.15194 10.1519 6.97001V5H7Z" fill="white"/>
<path d="M9.61781 8.15186H7.53416C7.99125 8.64747 8.57599 8.93994 8.57599 8.93994C8.57599 8.93994 9.16073 8.64747 9.61781 8.15186Z" fill="#2F8F22"/>
<path d="M8.57597 8.15185C9.01122 8.15185 9.36406 7.79902 9.36406 7.36377C9.36406 6.92852 9.01122 6.57568 8.57597 6.57568C8.14073 6.57568 7.78789 6.92852 7.78789 7.36377C7.78789 7.79902 8.14073 8.15185 8.57597 8.15185Z" fill="#65B5D2"/>
<path d="M7.78789 7.36401C8.00551 7.36401 8.18193 7.18759 8.18193 6.96997C8.18193 6.75235 8.00551 6.57593 7.78789 6.57593C7.57026 6.57593 7.39384 6.75235 7.39384 6.96997C7.39384 7.18759 7.57026 7.36401 7.78789 7.36401Z" fill="#C8102E"/>
<path d="M9.36386 7.36401C9.58148 7.36401 9.7579 7.18759 9.7579 6.96997C9.7579 6.75235 9.58148 6.57593 9.36386 6.57593C9.14624 6.57593 8.96982 6.75235 8.96982 6.96997C8.96982 7.18759 9.14624 7.36401 9.36386 7.36401Z" fill="#C8102E"/>
<path d="M8.57597 6.57593C8.7936 6.57593 8.97002 6.39951 8.97002 6.18188C8.97002 5.96426 8.7936 5.78784 8.57597 5.78784C8.35835 5.78784 8.18193 5.96426 8.18193 6.18188C8.18193 6.39951 8.35835 6.57593 8.57597 6.57593Z" fill="#C8102E"/>
</g>
<circle cx="6" cy="6" r="6" stroke="#E1DED7"/>
</g>
<defs>
<clipPath id="clip0_154_989">
<rect width="18" height="12" fill="white" transform="translate(-3)"/>
</clipPath>
</defs>
</svg>
