<svg width="12" height="12" viewBox="0 0 12 12" fill="none" xmlns="http://www.w3.org/2000/svg">
<mask id="mask0_109_10127" style="mask-type:alpha" maskUnits="userSpaceOnUse" x="0" y="0" width="12" height="12">
<circle cx="6" cy="6" r="6" fill="#D9D9D9"/>
</mask>
<g mask="url(#mask0_109_10127)">
<g clip-path="url(#clip0_109_10127)">
<path d="M15 0H-3V12H15V0Z" fill="black"/>
<path d="M0.11588 4.78943C0.0386873 5.24206 -0.00341797 5.70873 -0.00341797 6.18592C-0.00341797 6.66311 0.0386873 7.13329 0.11588 7.58241L5.98255 8.01048L11.8492 7.58592C11.9264 7.13329 11.9685 6.66662 11.9685 6.18943C11.9685 5.71224 11.9264 5.24206 11.8492 4.79294" fill="#0072C6"/>
<path d="M11.8491 7.6842H0.115723C0.670109 10.1333 3.08765 11.9754 5.98239 11.9754C8.87713 11.9754 11.2947 10.1333 11.8491 7.6842Z" fill="white"/>
<path d="M9.8385 4.78947H2.12622L3.70166 4.04912L2.86306 2.5228L4.57534 2.85263L4.78938 1.1228L5.98236 2.39298L7.17534 1.1228L7.38938 2.85263L9.10166 2.5228L8.26306 4.04912L9.8385 4.78947Z" fill="#FFDA44"/>
<path d="M6 12L-3 0V12H6Z" fill="#CE1126"/>
<path d="M15 12V0L5.98242 12H15Z" fill="#CE1126"/>
</g>
<circle cx="6" cy="6" r="6" stroke="#E1DED7"/>
</g>
<defs>
<clipPath id="clip0_109_10127">
<rect width="18" height="12" fill="white" transform="translate(-3)"/>
</clipPath>
</defs>
</svg>
