<svg width="12" height="12" viewBox="0 0 12 12" fill="none" xmlns="http://www.w3.org/2000/svg">
<g clip-path="url(#clip0_23259_161550)">
<path d="M6 12C9.31371 12 12 9.31371 12 6C12 2.68629 9.31371 0 6 0C2.68629 0 0 2.68629 0 6C0 9.31371 2.68629 12 6 12Z" fill="#F0F0F0"/>
<path d="M6.0001 0C3.62133 0 1.56596 1.38434 0.595459 3.39131H11.4047C10.4342 1.38434 8.37884 0 6.0001 0V0Z" fill="#338AF3"/>
<path d="M6.0001 12C8.37884 12 10.4342 10.6156 11.4047 8.60864H0.595459C1.56596 10.6156 3.62133 12 6.0001 12Z" fill="#338AF3"/>
<path d="M7.79343 6.00001L7.06066 6.34471L7.45087 7.05437L6.65516 6.90215L6.55434 7.70596L6.00011 7.11477L5.44586 7.70596L5.34505 6.90215L4.54935 7.05435L4.93954 6.34468L4.20679 6.00001L4.93956 5.65532L4.54935 4.94568L5.34503 5.09788L5.44588 4.29407L6.00011 4.88525L6.55436 4.29407L6.65516 5.09788L7.45089 4.94568L7.06068 5.65534L7.79343 6.00001Z" fill="#FFDA44"/>
</g>
<defs>
<clipPath id="clip0_23259_161550">
<rect width="12" height="12" fill="white"/>
</clipPath>
</defs>
</svg>
