<svg width="12" height="12" viewBox="0 0 12 12" fill="none" xmlns="http://www.w3.org/2000/svg">
<g clip-path="url(#clip0_23259_161510)">
<path d="M6 12C9.31371 12 12 9.31371 12 6C12 2.68629 9.31371 0 6 0C2.68629 0 0 2.68629 0 6C0 9.31371 2.68629 12 6 12Z" fill="#F0F0F0"/>
<path d="M12 5.99997C12 3.42018 10.3717 1.22093 8.08691 0.373169V11.6268C10.3717 10.779 12 8.57976 12 5.99997V5.99997Z" fill="#D80027"/>
<path d="M0 5.99997C0 8.57976 1.62825 10.779 3.91305 11.6268V0.373169C1.62825 1.22093 0 3.42018 0 5.99997Z" fill="#6DA544"/>
</g>
<defs>
<clipPath id="clip0_23259_161510">
<rect width="12" height="12" fill="white"/>
</clipPath>
</defs>
</svg>
