<svg width="12" height="12" viewBox="0 0 12 12" fill="none" xmlns="http://www.w3.org/2000/svg">
<mask id="mask0_93_7308" style="mask-type:alpha" maskUnits="userSpaceOnUse" x="0" y="0" width="12" height="12">
<circle cx="6" cy="6" r="6" fill="#D9D9D9"/>
</mask>
<g mask="url(#mask0_93_7308)">
<g clip-path="url(#clip0_93_7308)">
<path d="M15 0H-3V12H15V0Z" fill="#D80027"/>
<path d="M5.98245 11.9789C9.29035 11.9789 11.9719 9.29737 11.9719 5.98947C11.9719 2.68158 9.29035 0 5.98245 0C2.67456 0 -0.00701904 2.68158 -0.00701904 5.98947C-0.00701904 9.29737 2.67456 11.9789 5.98245 11.9789Z" fill="#D80027"/>
<path d="M10.4175 5.98949L8.60701 6.84212L9.57192 8.5965L7.6035 8.22106L7.35438 10.207L5.98245 8.74387L4.61052 10.207L4.3614 8.22106L2.39298 8.5965L3.35789 6.84212L1.54736 5.98949L3.35789 5.13685L2.39298 3.37896L4.3614 3.75791L4.61052 1.76843L5.98245 3.23159L7.35438 1.76843L7.6035 3.75791L9.57192 3.37896L8.60701 5.13685L10.4175 5.98949Z" fill="#FFDA44"/>
<path d="M6.03157 8.50173C7.41906 8.50173 8.54385 7.37695 8.54385 5.98945C8.54385 4.60196 7.41906 3.47717 6.03157 3.47717C4.64407 3.47717 3.51929 4.60196 3.51929 5.98945C3.51929 7.37695 4.64407 8.50173 6.03157 8.50173Z" fill="#D80027"/>
<path d="M4.51564 5.9895C4.44196 5.9895 4.37178 5.99301 4.2981 6.00003C4.3016 6.42108 4.45248 6.80354 4.70511 7.10529C4.83845 6.74389 5.03845 6.41757 5.29108 6.13336C5.04897 6.03862 4.78932 5.9895 4.51564 5.9895Z" fill="#FFDA44"/>
<path d="M5.44897 7.621C5.63143 7.68767 5.82792 7.72275 6.03143 7.72275C6.23494 7.72275 6.43143 7.68767 6.61389 7.621C6.51564 7.23153 6.30862 6.88416 6.03143 6.61047C5.75424 6.88416 5.54722 7.23153 5.44897 7.621Z" fill="#FFDA44"/>
<path d="M7.53323 5.12277C7.23499 4.60347 6.67358 4.2561 6.03148 4.2561C5.38937 4.2561 4.83148 4.60347 4.52972 5.12277C5.07709 5.12628 5.58937 5.27365 6.03148 5.52979C6.47358 5.27365 6.98586 5.12277 7.53323 5.12277Z" fill="#FFDA44"/>
<path d="M6.77179 6.13336C7.02442 6.41406 7.22442 6.74389 7.35775 7.10529C7.61039 6.80705 7.76126 6.42108 7.76477 6.00003C7.6946 5.99301 7.62091 5.9895 7.54723 5.9895C7.27705 5.9895 7.01389 6.03862 6.77179 6.13336Z" fill="#FFDA44"/>
</g>
<circle cx="6" cy="6" r="6" stroke="#E1DED7"/>
</g>
<defs>
<clipPath id="clip0_93_7308">
<rect width="17.9649" height="12" fill="white" transform="translate(-3)"/>
</clipPath>
</defs>
</svg>
