<svg width="12" height="12" viewBox="0 0 12 12" fill="none" xmlns="http://www.w3.org/2000/svg">
<mask id="mask0_91_6095" style="mask-type:alpha" maskUnits="userSpaceOnUse" x="0" y="0" width="12" height="12">
<circle cx="6" cy="6" r="6" fill="#D9D9D9"/>
</mask>
<g mask="url(#mask0_91_6095)">
<g clip-path="url(#clip0_91_6095)">
<path d="M15 0.00012207H-3V11.9999H15V0.00012207Z" fill="#D80027"/>
<path d="M15 9H-3V13H15V9Z" fill="#6DA544"/>
<path d="M15 0.00012207H-3V4.00012H15V0.00012207Z" fill="#338AF3"/>
<path d="M15 5H-3V8H15V5Z" fill="white"/>
<path d="M12 -1H-6V3H12V-1Z" fill="#338AF3"/>
<path d="M3.5357 2.25C3.5357 1.65164 3.95625 1.15169 4.51785 1.02909C4.43152 1.01026 4.34198 1 4.25 1C3.55962 1 3 1.55962 3 2.25C3 2.94038 3.55962 3.5 4.25 3.5C4.34202 3.5 4.43156 3.48978 4.51785 3.47091C3.95625 3.34831 3.5357 2.84837 3.5357 2.25Z" fill="white"/>
<path d="M5.25664 2.81812L5.34128 3.07855H5.61512L5.39357 3.23956L5.47822 3.49996L5.25664 3.33899L5.03509 3.49996L5.11974 3.23956L4.89819 3.07855H5.17203L5.25664 2.81812Z" fill="white"/>
<path d="M6.13096 2.81812L6.21557 3.07855H6.48941L6.26786 3.23956L6.35251 3.49996L6.13096 3.33899L5.90942 3.49996L5.99403 3.23956L5.77252 3.07855H6.04632L6.13096 2.81812Z" fill="white"/>
<path d="M7.00441 2.81812L7.08902 3.07855H7.36286L7.14135 3.23956L7.22596 3.49996L7.00441 3.33899L6.78287 3.49996L6.86748 3.23956L6.64594 3.07855H6.91977L7.00441 2.81812Z" fill="white"/>
<path d="M7.87871 2.81812L7.96338 3.07855H8.23722L8.01564 3.23956L8.10028 3.49996L7.87871 3.33899L7.65716 3.49996L7.74184 3.23956L7.52026 3.07855H7.79406L7.87871 2.81812Z" fill="white"/>
<path d="M8.75273 2.81812L8.83733 3.07855H9.11117L8.88963 3.23956L8.97427 3.49996L8.75273 3.33899L8.53119 3.49996L8.61579 3.23956L8.39429 3.07855H8.66809L8.75273 2.81812Z" fill="white"/>
<path d="M6.13096 1.90918L6.21557 2.16958H6.48941L6.26786 2.33055L6.35251 2.59099L6.13096 2.43005L5.90942 2.59099L5.99403 2.33055L5.77252 2.16958H6.04632L6.13096 1.90918Z" fill="white"/>
<path d="M7.00441 1.90918L7.08902 2.16958H7.36286L7.14135 2.33055L7.22596 2.59099L7.00441 2.43005L6.78287 2.59099L6.86748 2.33055L6.64594 2.16958H6.91977L7.00441 1.90918Z" fill="white"/>
<path d="M7.87871 1.90918L7.96338 2.16958H8.23722L8.01564 2.33055L8.10028 2.59099L7.87871 2.43005L7.65716 2.59099L7.74184 2.33055L7.52026 2.16958H7.79406L7.87871 1.90918Z" fill="white"/>
<path d="M8.75273 1.90918L8.83733 2.16958H9.11117L8.88963 2.33055L8.97427 2.59099L8.75273 2.43005L8.53119 2.59099L8.61579 2.33055L8.39429 2.16958H8.66809L8.75273 1.90918Z" fill="white"/>
<path d="M7.00441 1L7.08902 1.2604H7.36286L7.14135 1.42137L7.22596 1.68181L7.00441 1.52084L6.78287 1.68181L6.86748 1.42137L6.64594 1.2604H6.91977L7.00441 1Z" fill="white"/>
<path d="M7.87871 1L7.96338 1.2604H8.23722L8.01564 1.42137L8.10028 1.68181L7.87871 1.52084L7.65716 1.68181L7.74184 1.42137L7.52026 1.2604H7.79406L7.87871 1Z" fill="white"/>
<path d="M8.75273 1L8.83733 1.2604H9.11117L8.88963 1.42137L8.97427 1.68181L8.75273 1.52084L8.53119 1.68181L8.61579 1.42137L8.39429 1.2604H8.66809L8.75273 1Z" fill="white"/>
</g>
<circle cx="6" cy="6" r="6" stroke="#E1DED7"/>
</g>
<defs>
<clipPath id="clip0_91_6095">
<rect width="18" height="12" fill="white" transform="translate(-3)"/>
</clipPath>
</defs>
</svg>
