<svg width="12" height="12" viewBox="0 0 12 12" fill="none" xmlns="http://www.w3.org/2000/svg">
<mask id="mask0_95_7855" style="mask-type:alpha" maskUnits="userSpaceOnUse" x="0" y="0" width="12" height="12">
<circle cx="6" cy="6" r="6" fill="#D9D9D9"/>
</mask>
<g mask="url(#mask0_95_7855)">
<g clip-path="url(#clip0_95_7855)">
<path d="M15 0H-3V12H15V0Z" fill="#ED2024"/>
<path d="M4 3.681V6.21493L5.136 6.61086L4.336 7.38688L4.72 7.86199L5.568 6.99095L5.76 7.3552L5.28 8.13122L5.856 9.0181L5.568 9.42986L6.016 10L6.448 9.41403L6.208 9.00226L6.688 8.08371L6.256 7.3552L6.448 6.99095L7.28 7.86199L7.68 7.40272L6.848 6.59502L8 6.18326V3.681L7.168 3.9819L7.152 4.58371L6.624 4.63122V4.21946L6.896 3.8552L7.792 3.50679L7.424 3.44344L7.648 3.25339L7.792 3.31674L7.664 3.09502L7.44 3.17421L7.28 3L6.4 3.17421L6.624 3.34842L6.016 4.12443L5.408 3.36425L5.616 3.19005L4.816 3L4.592 3.17421L4.352 3.11086L4.224 3.33258L4.368 3.23756L4.624 3.41176L4.256 3.49095L5.136 3.80769L5.392 4.17195V4.63122L4.864 4.58371V4.01357L4 3.681Z" fill="#212121"/>
<path d="M4.02128 5.32251H3V5.7158H4.02128V5.32251Z" fill="#212121"/>
<path d="M4.02128 4.67749H3V5.10224H4.02128V4.67749Z" fill="#212121"/>
<path d="M4.02128 4.01685H3V4.42586H4.02128V4.01685Z" fill="#212121"/>
<path d="M4.02128 3.38757H3V3.78086H4.02128V3.38757Z" fill="#212121"/>
<path d="M9.00004 5.32251H7.97876V5.7158H9.00004V5.32251Z" fill="#212121"/>
<path d="M9.00004 4.67749H7.97876V5.10224H9.00004V4.67749Z" fill="#212121"/>
<path d="M9.00004 4.01685H7.97876V4.42586H9.00004V4.01685Z" fill="#212121"/>
<path d="M9.00004 3.38757H7.97876V3.78086H9.00004V3.38757Z" fill="#212121"/>
</g>
<circle cx="6" cy="6" r="6" stroke="#E1DED7"/>
</g>
<defs>
<clipPath id="clip0_95_7855">
<rect width="18" height="12" fill="white" transform="translate(-3)"/>
</clipPath>
</defs>
</svg>
