<svg width="12" height="12" viewBox="0 0 12 12" fill="none" xmlns="http://www.w3.org/2000/svg">
<g clip-path="url(#clip0_14_1748)">
<mask id="mask0_14_1748" style="mask-type:alpha" maskUnits="userSpaceOnUse" x="0" y="0" width="12" height="12">
<circle cx="6" cy="6" r="6" fill="#D9D9D9"/>
</mask>
<g mask="url(#mask0_14_1748)">
<path d="M15.6841 0H-2.31592V12H15.6841V0Z" fill="#E30A17"/>
<path d="M6.09562 4.54326C5.7279 4.2766 5.28158 4.13344 4.82404 4.13624C3.67877 4.13624 2.75246 5.00081 2.75246 6.07028C2.75246 7.13975 3.68158 8.00431 4.82404 8.00431C5.30404 8.00431 5.74755 7.85274 6.09562 7.5973C5.25351 8.68081 3.69 8.8773 2.60649 8.03238C1.52299 7.18747 1.32649 5.62677 2.17141 4.54326C3.01632 3.45975 4.57702 3.26326 5.66053 4.10817C5.82334 4.23449 5.9693 4.38326 6.09562 4.54326ZM7.21562 6.39028L6.70755 7.00502L6.74123 6.20782L6.00018 5.91589L6.76649 5.70256L6.81702 4.90817L7.25492 5.57344L8.02685 5.37414L7.53562 5.99168L7.96509 6.66256L7.21562 6.39028Z" fill="white"/>
<circle cx="6" cy="6" r="6" stroke="#E1DED7"/>
</g>
</g>
<defs>
<clipPath id="clip0_14_1748">
<rect width="12" height="12" rx="1.12281" fill="white"/>
</clipPath>
</defs>
</svg>
