<svg width="12" height="12" viewBox="0 0 12 12" fill="none" xmlns="http://www.w3.org/2000/svg">
<g clip-path="url(#clip0_23259_161478)">
<path d="M6 12C9.31371 12 12 9.31371 12 6C12 2.68629 9.31371 0 6 0C2.68629 0 0 2.68629 0 6C0 9.31371 2.68629 12 6 12Z" fill="#F0F0F0"/>
<path d="M1.2404 2.34717C0.769099 2.96036 0.413717 3.66712 0.206787 4.43491H3.32815L1.2404 2.34717Z" fill="#0052B4"/>
<path d="M11.7934 4.43489C11.5865 3.66712 11.2311 2.96036 10.7598 2.34717L8.67212 4.43489H11.7934Z" fill="#0052B4"/>
<path d="M0.206787 7.56531C0.41374 8.33307 0.769123 9.03983 1.2404 9.653L3.32808 7.56531H0.206787Z" fill="#0052B4"/>
<path d="M9.65291 1.24043C9.03971 0.769123 8.33298 0.41374 7.56519 0.206787V3.32812L9.65291 1.24043Z" fill="#0052B4"/>
<path d="M2.34717 10.7598C2.96036 11.2311 3.66712 11.5865 4.43489 11.7934V8.67212L2.34717 10.7598Z" fill="#0052B4"/>
<path d="M4.43486 0.206787C3.6671 0.41374 2.96034 0.769123 2.34717 1.2404L4.43486 3.3281V0.206787Z" fill="#0052B4"/>
<path d="M7.56519 11.7934C8.33295 11.5865 9.03971 11.2311 9.65288 10.7598L7.56519 8.67212V11.7934Z" fill="#0052B4"/>
<path d="M8.67212 7.56531L10.7598 9.65303C11.2311 9.03985 11.5865 8.33307 11.7934 7.56531H8.67212Z" fill="#0052B4"/>
<path d="M11.9492 5.2174H6.78265H6.78262V0.0507891C6.52643 0.0174375 6.26524 0 6 0C5.73471 0 5.47357 0.0174375 5.2174 0.0507891V5.21735V5.21738H0.0507891C0.0174375 5.47357 0 5.73476 0 6C0 6.26529 0.0174375 6.52643 0.0507891 6.7826H5.21735H5.21738V11.9492C5.47357 11.9826 5.73471 12 6 12C6.26524 12 6.52643 11.9826 6.7826 11.9492V6.78265V6.78262H11.9492C11.9826 6.52643 12 6.26529 12 6C12 5.73476 11.9826 5.47357 11.9492 5.2174V5.2174Z" fill="#D80027"/>
<path d="M7.56519 7.56521L10.2426 10.2426C10.3657 10.1195 10.4832 9.99083 10.5953 9.85742L8.30305 7.56519H7.56519V7.56521Z" fill="#D80027"/>
<path d="M4.43475 7.56519H4.43471L1.75732 10.2426C1.88042 10.3657 2.00911 10.4832 2.14252 10.5953L4.43475 8.30297V7.56519Z" fill="#D80027"/>
<path d="M4.43463 4.4348V4.43475L1.75723 1.75732C1.63409 1.88042 1.51662 2.00911 1.40454 2.14252L3.6968 4.43478H4.43463V4.4348Z" fill="#D80027"/>
<path d="M7.56519 4.43478L10.2426 1.75733C10.1195 1.63419 9.99082 1.51672 9.85742 1.40466L7.56519 3.69692V4.43478Z" fill="#D80027"/>
</g>
<defs>
<clipPath id="clip0_23259_161478">
<rect width="12" height="12" fill="white"/>
</clipPath>
</defs>
</svg>
