<svg width="12" height="12" viewBox="0 0 12 12" fill="none" xmlns="http://www.w3.org/2000/svg">
<g clip-path="url(#clip0_14_1530)">
<mask id="mask0_14_1530" style="mask-type:alpha" maskUnits="userSpaceOnUse" x="0" y="0" width="12" height="12">
<circle cx="6" cy="6" r="6" fill="#D9D9D9"/>
</mask>
<g mask="url(#mask0_14_1530)">
<path d="M17.0874 0H-0.912598V12H17.0874V0Z" fill="white"/>
<path d="M17.0874 1.33333H-0.912598V2.66667H17.0874V1.33333Z" fill="#0038A8"/>
<path d="M17.0874 4H-0.912598V5.33333H17.0874V4Z" fill="#0038A8"/>
<path d="M17.0874 6.66667H-0.912598V8H17.0874V6.66667Z" fill="#0038A8"/>
<path d="M17.0874 9.33333H-0.912598V10.6667H17.0874V9.33333Z" fill="#0038A8"/>
<path d="M8.0874 0H-0.912598V6.66667H8.0874V0Z" fill="white"/>
<path d="M3.58916 4.86667L3.05933 5.65965L2.926 4.71579L2.10495 5.2L2.39267 4.29123L1.43828 4.36842L2.09091 3.67368L1.20319 3.33333L2.09442 2.99298L1.43828 2.29825L2.38916 2.37895L2.10144 1.47018L2.92249 1.95439L3.05933 1.01053L3.58916 1.80351L4.11898 1.01053L4.25231 1.95439L5.07337 1.47018L4.78565 2.37895L5.73653 2.30175L5.08389 2.99649L5.97512 3.33684L5.08389 3.67719L5.73653 4.37193L4.78565 4.29474L5.07337 5.20351L4.25231 4.7193L4.11547 5.66316L3.58916 4.86667ZM3.58916 4.84912C4.42775 4.8807 5.13302 4.23158 5.1646 3.39298C5.19617 2.55439 4.54705 1.84912 3.70845 1.81754C3.66986 1.81754 3.62775 1.81754 3.58916 1.81754C2.75056 1.84561 2.09442 2.54737 2.12249 3.38246C2.14354 4.18246 2.78916 4.82456 3.58916 4.84912ZM3.58916 4.47719C2.92951 4.47719 2.39617 3.94386 2.39617 3.28421C2.39617 2.62456 2.92951 2.09123 3.58916 2.09123C4.24881 2.09123 4.78214 2.62456 4.78214 3.28421C4.78214 3.94386 4.2453 4.47719 3.58916 4.47719Z" fill="#FED443"/>
<circle cx="6" cy="6" r="6" stroke="#E1DED7"/>
</g>
</g>
<defs>
<clipPath id="clip0_14_1530">
<rect width="12" height="12" rx="1.12281" fill="white"/>
</clipPath>
</defs>
</svg>
