<svg width="12" height="12" viewBox="0 0 12 12" fill="none" xmlns="http://www.w3.org/2000/svg">
<g clip-path="url(#clip0_14_1659)">
<mask id="mask0_14_1659" style="mask-type:alpha" maskUnits="userSpaceOnUse" x="0" y="0" width="12" height="12">
<circle cx="6" cy="6" r="6" fill="#D9D9D9"/>
</mask>
<g mask="url(#mask0_14_1659)">
<path d="M14.9824 0.00012207H-3.01758V11.9999H14.9824V0.00012207Z" fill="white"/>
<path d="M14.9824 0.00012207H-3.01758V6H14.9824V0.00012207Z" fill="#D80027"/>
<path d="M3.42613 2.99992C3.42613 2.12575 4.04052 1.39549 4.86093 1.2163C4.73482 1.18873 4.60401 1.17383 4.46964 1.17383C3.46108 1.17383 2.64355 1.99135 2.64355 2.99988C2.64355 4.00841 3.46111 4.82597 4.46964 4.82597C4.60401 4.82597 4.73482 4.81103 4.86093 4.7835C4.04052 4.60438 3.42613 3.87411 3.42613 2.99992Z" fill="white"/>
<path d="M5.7742 1.30432L5.90371 1.70289H6.32281L5.98373 1.94923L6.11325 2.34779L5.7742 2.10149L5.43512 2.34779L5.56467 1.94923L5.22559 1.70289H5.64468L5.7742 1.30432Z" fill="white"/>
<path d="M4.7576 2.08691L4.88708 2.48548H5.30618L4.96709 2.73182L5.09661 3.13039L4.7576 2.88408L4.41852 3.13039L4.54807 2.73182L4.20898 2.48548H4.62808L4.7576 2.08691Z" fill="white"/>
<path d="M6.79077 2.08691L6.92028 2.48548H7.33938L7.0003 2.73182L7.12981 3.13039L6.79077 2.88408L6.45172 3.13039L6.58127 2.73182L6.24219 2.48548H6.66128L6.79077 2.08691Z" fill="white"/>
<path d="M6.39913 3.26086L6.52864 3.65943H6.94774L6.6087 3.90577L6.73821 4.30434L6.39913 4.05803L6.06012 4.30434L6.18963 3.90577L5.85059 3.65943H6.26965L6.39913 3.26086Z" fill="white"/>
<path d="M5.14868 3.26086L5.27816 3.65943H5.69725L5.35821 3.90577L5.48772 4.30434L5.14868 4.05803L4.80963 4.30434L4.93914 3.90577L4.6001 3.65943H5.01916L5.14868 3.26086Z" fill="white"/>
<circle cx="6" cy="6" r="6" stroke="#E1DED7"/>
</g>
</g>
<defs>
<clipPath id="clip0_14_1659">
<rect width="12" height="12" rx="1.12281" fill="white"/>
</clipPath>
</defs>
</svg>
