<svg width="12" height="12" viewBox="0 0 12 12" fill="none" xmlns="http://www.w3.org/2000/svg">
<mask id="mask0_97_8368" style="mask-type:alpha" maskUnits="userSpaceOnUse" x="0" y="0" width="12" height="12">
<circle cx="6" cy="6" r="6" fill="#D9D9D9"/>
</mask>
<g mask="url(#mask0_97_8368)">
<g clip-path="url(#clip0_97_8368)">
<path d="M16 0H-2V12H16V0Z" fill="white"/>
<path d="M16 0H-2V3.99298H16V0Z" fill="#6DA544"/>
<path d="M16 7.98596H-2V12H16V7.98596Z" fill="#D80027"/>
<path d="M4.42105 6L0 12V0L4.42105 6Z" fill="#0070C8"/>
<path d="M6.20349 4.89124V6.30878C6.20349 7.5579 7.45261 7.5579 7.45261 7.5579C7.45261 7.5579 8.70174 7.5579 8.70174 6.30878V4.89124H6.20349Z" stroke="black" stroke-width="0.1" stroke-miterlimit="10"/>
<path d="M7.28073 6.30872H7.62459L7.76494 7.21398H7.14038L7.28073 6.30872Z" fill="#786145"/>
<path d="M8.07715 5.68422C8.07715 5.34036 7.79645 5.16492 7.45259 5.16492C7.10873 5.16492 6.82803 5.34036 6.82803 5.68422C6.6561 5.68422 6.51575 5.82457 6.51575 5.9965C6.51575 6.16843 6.6561 6.30878 6.82803 6.30878C6.92978 6.30878 7.97189 6.30878 8.07715 6.30878C8.24908 6.30878 8.38943 6.16843 8.38943 5.9965C8.38943 5.82457 8.24908 5.68422 8.07715 5.68422Z" fill="#6DA544"/>
<path d="M6.09478 4.21057L6.16144 4.32636H6.29478L6.22811 4.44215L6.29478 4.55443H6.16144L6.09478 4.67022L6.02811 4.55443H5.89478L5.96144 4.44215L5.89478 4.32636H6.02811L6.09478 4.21057Z" fill="#FFDA00"/>
<path d="M6.63164 4.21057L6.69831 4.32636H6.82813L6.76146 4.44215L6.82813 4.55443H6.69831L6.63164 4.67022L6.56497 4.55443H6.43164L6.49831 4.44215L6.43164 4.32636H6.56497L6.63164 4.21057Z" fill="#FFDA00"/>
<path d="M7.16838 4.21057L7.23505 4.32636H7.36487L7.29821 4.44215L7.36487 4.55443H7.23505L7.16838 4.67022L7.10172 4.55443H6.96838L7.03505 4.44215L6.96838 4.32636H7.10172L7.16838 4.21057Z" fill="#FFDA00"/>
<path d="M7.72286 4.21057L7.78953 4.32636H7.92286L7.85619 4.44215L7.92286 4.55443H7.78953L7.72286 4.67022L7.65619 4.55443H7.52637L7.58952 4.44215L7.52637 4.32636H7.65619L7.72286 4.21057Z" fill="#FFDA00"/>
<path d="M8.28426 4.21057L8.35093 4.32636H8.48426L8.41759 4.44215L8.48426 4.55443H8.35093L8.28426 4.67022L8.21759 4.55443H8.08777L8.15093 4.44215L8.08777 4.32636H8.21759L8.28426 4.21057Z" fill="#FFDA00"/>
<path d="M8.81047 4.21057L8.87714 4.32636H9.00697L8.9403 4.44215L9.00697 4.55443H8.87714L8.81047 4.67022L8.74381 4.55443H8.61047L8.67714 4.44215L8.61047 4.32636H8.74381L8.81047 4.21057Z" fill="#FFDA00"/>
</g>
<circle cx="6" cy="6" r="6" stroke="#E1DED7"/>
</g>
<defs>
<clipPath id="clip0_97_8368">
<rect width="18" height="12" fill="white" transform="translate(-2)"/>
</clipPath>
</defs>
</svg>
