<svg width="12" height="12" viewBox="0 0 12 12" fill="none" xmlns="http://www.w3.org/2000/svg">
<mask id="mask0_105_9292" style="mask-type:alpha" maskUnits="userSpaceOnUse" x="0" y="0" width="12" height="12">
<circle cx="6" cy="6" r="6" fill="#D9D9D9"/>
</mask>
<g mask="url(#mask0_105_9292)">
<g clip-path="url(#clip0_105_9292)">
<path d="M15 0H-3V12H15V0Z" fill="#FFDA44"/>
<path d="M-3 6.79795L15 11.2608V7.51795L-3 3.40637V6.79795Z" fill="black"/>
<path d="M15 8.2197V5.17864L-3 0.716187V3.75724" fill="white"/>
<path d="M7.751 4.70209C7.88679 4.95262 7.96398 5.23998 7.96398 5.5449C7.96398 6.30104 7.48995 6.9463 6.82293 7.20069V5.11262C7.02293 5.07086 7.17381 4.88911 7.17381 4.67086C7.41591 4.67086 7.61241 4.46911 7.61241 4.21998H7.59767C7.83977 4.21998 8.05065 4.01823 8.05065 3.76911H6.82293V2.687L6.29697 1.71472L5.77065 2.687V3.76911H4.54293C4.54293 4.01823 4.75381 4.21998 4.99591 4.21998H4.98118C4.98118 4.46911 5.17767 4.67086 5.41977 4.67086C5.41977 4.88911 5.5703 5.07086 5.7703 5.11262V7.26595C4.99521 7.07683 4.42012 6.37823 4.42012 5.5449C4.42012 5.23963 4.49732 4.95262 4.63311 4.70209C4.24855 5.09542 4.01135 5.63297 4.01135 6.2263C4.01135 7.43051 4.98749 8.407 6.19205 8.407C7.39662 8.407 8.37276 7.43051 8.37276 6.2263C8.37276 5.63297 8.13521 5.09507 7.751 4.70209Z" fill="#D80027" stroke="#231F20" stroke-width="0.105263" stroke-miterlimit="10"/>
<path d="M3.9636 7.95825C3.9636 7.95825 4.68956 8.93053 6.29693 8.93053C7.9043 8.93053 8.63026 7.95825 8.63026 7.95825L9.1029 8.95369C9.1029 8.95369 8.365 9.92597 6.29693 9.92597C4.22886 9.92597 3.49097 8.95369 3.49097 8.95369L3.9636 7.95825Z" fill="#D80027" stroke="#231F20" stroke-width="0.105263" stroke-miterlimit="10"/>
<path d="M1.53491 4.67297H2.26754L3.14228 5.62947V8.20666H2.22018V5.80771L1.53491 4.67297Z" fill="#D80027" stroke="#231F20" stroke-width="0.105263" stroke-miterlimit="10"/>
<path d="M11.0352 4.67297H10.3026L9.42786 5.62947V8.20666H10.3496V5.80771L11.0352 4.67297Z" fill="#D80027" stroke="#231F20" stroke-width="0.105263" stroke-miterlimit="10"/>
</g>
<circle cx="6" cy="6" r="6" stroke="#E1DED7"/>
</g>
<defs>
<clipPath id="clip0_105_9292">
<rect width="18" height="12" fill="white" transform="translate(-3)"/>
</clipPath>
</defs>
</svg>
