<svg width="12" height="12" viewBox="0 0 12 12" fill="none" xmlns="http://www.w3.org/2000/svg">
<mask id="mask0_89_5043" style="mask-type:alpha" maskUnits="userSpaceOnUse" x="0" y="0" width="12" height="12">
<circle cx="6" cy="6" r="6" fill="#D9D9D9"/>
</mask>
<g mask="url(#mask0_89_5043)">
<g clip-path="url(#clip0_89_5043)">
<path d="M16 0.00012207H-2V11.9999H16V0.00012207Z" fill="white"/>
<path d="M16 8.3479H-2V11.9999H16V8.3479Z" fill="#496E2D"/>
<path d="M16 0.00012207H-2V3.67448H16V0.00012207Z" fill="black"/>
<path d="M16 4.4137H-2V7.56567H16V4.4137Z" fill="#A2001D"/>
<path d="M9.00001 6.00018L0 12V-0.00012207L9.00001 6.00018Z" fill="#0052B4"/>
<path d="M2.5726 4.35425L3.30494 5.37614L4.50321 4.99539L3.75765 6.00772L4.48995 7.02968L3.29678 6.63343L2.55119 7.64572L2.55942 6.38846L1.36621 5.99214L2.56444 5.6114L2.5726 4.35425Z" fill="#FFDA44"/>
</g>
<circle cx="6" cy="6" r="6" stroke="#E1DED7"/>
</g>
<defs>
<clipPath id="clip0_89_5043">
<rect width="18" height="12" fill="white" transform="translate(-2)"/>
</clipPath>
</defs>
</svg>
