<svg width="14" height="14" viewBox="0 0 14 14" fill="none" xmlns="http://www.w3.org/2000/svg">
<circle cx="7" cy="7" r="6" stroke="#E1DED7"/>
<mask id="mask0_65_830" style="mask-type:alpha" maskUnits="userSpaceOnUse" x="1" y="1" width="12" height="12">
<circle cx="7" cy="7" r="6" fill="#D9D9D9"/>
</mask>
<g mask="url(#mask0_65_830)">
<g clip-path="url(#clip0_65_830)">
<path d="M15.5263 0.941406H-2.4386V12.9181H15.5263V0.941406Z" fill="#0052B4"/>
<path d="M15.5263 0.941406H-2.4386V4.93351H15.5263V0.941406Z" fill="#D80027"/>
<path d="M15.5263 8.92566H-2.4386V12.9178H15.5263V8.92566Z" fill="white"/>
<path d="M2.10413 4.32605V7.31328C2.10413 9.01254 4.32402 9.53317 4.32402 9.53317C4.32402 9.53317 6.54385 9.01247 6.54385 7.31328V4.32605H2.10413Z" fill="#D80027"/>
<path d="M3.02213 4.8473H5.62567V3.80586L5.10493 4.06621L4.32384 3.28516L3.54283 4.06621L3.02213 3.80586V4.8473Z" fill="#FFDA44"/>
<path d="M6.02303 7.72967L4.33071 6.03735L2.6384 7.72967L3.19071 8.28195L4.33071 7.14195L5.47071 8.28195L6.02303 7.72967Z" fill="#FFDA44"/>
<path d="M6.02315 6.14854H5.23354C5.27796 6.0719 5.30375 5.98317 5.30375 5.88826C5.30375 5.60068 5.07059 5.36755 4.78305 5.36755C4.58434 5.36755 4.41178 5.47885 4.32399 5.6425C4.2362 5.47889 4.06361 5.36755 3.86494 5.36755C3.5774 5.36755 3.34424 5.60068 3.34424 5.88826C3.34424 5.9832 3.37006 6.07194 3.41445 6.14854H2.63852C2.63852 6.43611 2.88901 6.66924 3.17655 6.66924H3.15922C3.15922 6.95682 3.39234 7.18994 3.67992 7.18994C3.67992 7.44457 3.86276 7.65611 4.10427 7.70138L3.69396 8.62773C3.89055 8.70766 4.10543 8.75208 4.33077 8.75208C4.5561 8.75208 4.77094 8.70766 4.96757 8.62773L4.55726 7.70138C4.79877 7.65611 4.98161 7.44457 4.98161 7.18994C5.26919 7.18994 5.50231 6.95682 5.50231 6.66924H5.48498C5.77266 6.66924 6.02315 6.43611 6.02315 6.14854Z" fill="white"/>
</g>
</g>
<defs>
<clipPath id="clip0_65_830">
<rect width="17.9649" height="11.9766" fill="white" transform="translate(-2.4386 0.941528)"/>
</clipPath>
</defs>
</svg>
