<svg width="12" height="12" viewBox="0 0 12 12" fill="none" xmlns="http://www.w3.org/2000/svg">
<g clip-path="url(#clip0_23259_161494)">
<path d="M0 5.99997C0 8.57974 1.62825 10.779 3.91301 11.6268L4.43477 5.99995L3.91301 0.373169C1.62825 1.22095 0 3.42018 0 5.99997Z" fill="#6DA544"/>
<path d="M11.9998 6C11.9998 2.68631 9.31352 0 5.99983 0C5.26591 0 4.56286 0.132023 3.91284 0.373195V11.6268C4.56286 11.868 5.26591 12 5.99983 12C9.31352 12 11.9998 9.31369 11.9998 6Z" fill="#D80027"/>
<path d="M3.91312 8.08698C5.06571 8.08698 6.00006 7.15262 6.00006 6.00003C6.00006 4.84744 5.06571 3.91309 3.91312 3.91309C2.76053 3.91309 1.82617 4.84744 1.82617 6.00003C1.82617 7.15262 2.76053 8.08698 3.91312 8.08698Z" fill="#FFDA44"/>
<path d="M2.73901 4.95654V6.26089C2.73901 6.90922 3.26458 7.4348 3.91293 7.4348C4.56128 7.4348 5.08684 6.90924 5.08684 6.26089V4.95654H2.73901Z" fill="#D80027"/>
<path d="M3.91304 6.65217C3.69728 6.65217 3.52173 6.47662 3.52173 6.26086V5.73914H4.30433V6.26088C4.30433 6.47662 4.12878 6.65217 3.91304 6.65217Z" fill="#F0F0F0"/>
</g>
<defs>
<clipPath id="clip0_23259_161494">
<rect width="12" height="12" fill="white"/>
</clipPath>
</defs>
</svg>
