<svg width="12" height="12" viewBox="0 0 12 12" fill="none" xmlns="http://www.w3.org/2000/svg">
<mask id="mask0_89_4719" style="mask-type:alpha" maskUnits="userSpaceOnUse" x="0" y="0" width="12" height="12">
<circle cx="6" cy="6" r="6" fill="#D9D9D9"/>
</mask>
<g mask="url(#mask0_89_4719)">
<g clip-path="url(#clip0_89_4719)">
<path d="M-3 0H15V4H-3V0Z" fill="#20AA46"/>
<path d="M-3 8H15V12H-3V8Z" fill="#E92F3B"/>
<path d="M-3 4H15V8H-3V4Z" fill="#FADF50"/>
<path d="M6 9C7.65685 9 9 7.65685 9 6C9 4.34315 7.65685 3 6 3C4.34315 3 3 4.34315 3 6C3 7.65685 4.34315 9 6 9Z" fill="#205CCA"/>
<path d="M5.96553 6.69858L4.72629 7.58375L5.19838 6.16748L4.01816 5.28231H5.49344L5.96553 3.92505L6.43762 5.28231H7.97191L6.73268 6.16748L7.20477 7.58375L5.96553 6.69858Z" stroke="#FFDB3D" stroke-width="0.4"/>
<path d="M5.3754 5.28235H6.49661" stroke="#FFDB3D" stroke-width="0.4"/>
<path d="M5.13934 6.10852L5.90649 6.69863" stroke="#FFDB3D" stroke-width="0.4"/>
<path d="M6.3786 5.16431L6.79168 6.22651" stroke="#FFDB3D" stroke-width="0.4"/>
<path d="M5.19836 6.16755L5.55243 5.10535" stroke="#FFDB3D" stroke-width="0.4"/>
<path d="M5.78827 6.8166L6.73245 6.16748" stroke="#FFDB3D" stroke-width="0.4"/>
<path d="M4.43137 3.80701L5.08049 4.75119" stroke="#FFDB3D" stroke-width="0.4"/>
<path d="M7.44097 3.74805L6.85086 4.69223" stroke="#FFDB3D" stroke-width="0.4"/>
<path d="M5.96567 7.46582V8.58703" stroke="#FFDB3D" stroke-width="0.4"/>
<path d="M4.54935 6.40356L3.48715 6.81664" stroke="#FFDB3D" stroke-width="0.4"/>
<path d="M8.44419 6.81664L7.38199 6.40356" stroke="#FFDB3D" stroke-width="0.4"/>
</g>
<circle cx="6" cy="6" r="6" stroke="#E1DED7"/>
</g>
<defs>
<clipPath id="clip0_89_4719">
<rect width="18" height="12" fill="white" transform="translate(-3)"/>
</clipPath>
</defs>
</svg>
