<svg width="12" height="12" viewBox="0 0 12 12" fill="none" xmlns="http://www.w3.org/2000/svg">
<mask id="mask0_85_4423" style="mask-type:alpha" maskUnits="userSpaceOnUse" x="0" y="0" width="12" height="12">
<circle cx="6" cy="6" r="6" fill="#D9D9D9"/>
</mask>
<g mask="url(#mask0_85_4423)">
<g clip-path="url(#clip0_85_4423)">
<path d="M14 0H-2V6.03509H14V0Z" fill="#A2001D"/>
<path d="M14 6.03503H-2V12.0701H14V6.03503Z" fill="#0052B4"/>
<path d="M9 8.49932L6.00135 8.12551L3 8.49932V4H9V8.49932Z" fill="white"/>
<path d="M6.00129 8.1255C6.83009 8.1255 7.50196 7.45362 7.50196 6.62482C7.50196 5.79602 6.83009 5.12415 6.00129 5.12415C5.17249 5.12415 4.50061 5.79602 4.50061 6.62482C4.50061 7.45362 5.17249 8.1255 6.00129 8.1255Z" fill="#0052B4"/>
<path d="M6.00139 7.37519C6.41579 7.37519 6.75173 7.03925 6.75173 6.62485C6.75173 6.21045 6.41579 5.87451 6.00139 5.87451C5.58699 5.87451 5.25105 6.21045 5.25105 6.62485C5.25105 7.03925 5.58699 7.37519 6.00139 7.37519Z" fill="#A2001D"/>
<path d="M4.87434 4.75037H7.12536L6.00121 5.87452L4.87434 4.75037Z" fill="#6DA544"/>
<path d="M6.37513 5.50061H5.62479V7.74892H6.37513V5.50061Z" fill="#FFDA44"/>
<path d="M7.19865 7.52417H4.80135L3 8.49934H9L7.19865 7.52417Z" fill="#6DA544"/>
</g>
<circle cx="6" cy="6" r="6" stroke="#E1DED7"/>
</g>
<defs>
<clipPath id="clip0_85_4423">
<rect width="16" height="12" fill="white" transform="translate(-2)"/>
</clipPath>
</defs>
</svg>
