<svg width="12" height="12" viewBox="0 0 12 12" fill="none" xmlns="http://www.w3.org/2000/svg">
<mask id="mask0_109_10520" style="mask-type:alpha" maskUnits="userSpaceOnUse" x="0" y="0" width="12" height="12">
<circle cx="6" cy="6" r="6" fill="#D9D9D9"/>
</mask>
<g mask="url(#mask0_109_10520)">
<g clip-path="url(#clip0_109_10520)">
<path d="M18 0H0V12H18V0Z" fill="#D80027"/>
<path d="M18 0H0V6H18V0Z" fill="#0052B4"/>
<path d="M4.6875 4.12096C4.6875 3.70594 4.35252 3.37096 3.9375 3.37096C3.74481 3.37096 3.56991 3.44211 3.43651 3.56068V3.12195H3.68552V2.62096H3.43651V2.37195H2.93849V2.62096H2.68948V3.12195H2.93849V3.56365C2.80509 3.44507 2.63019 3.37392 2.4375 3.37392C2.02248 3.37392 1.6875 3.7089 1.6875 4.12392C1.6875 4.34626 1.78533 4.54487 1.93651 4.68124V5.12294H4.43552V4.68124C4.59264 4.54191 4.6875 4.34033 4.6875 4.12096Z" fill="#FFDA44"/>
</g>
<circle cx="6" cy="6" r="6" stroke="#E1DED7"/>
</g>
<defs>
<clipPath id="clip0_109_10520">
<rect width="18" height="12" fill="white"/>
</clipPath>
</defs>
</svg>
