<svg width="12" height="12" viewBox="0 0 12 12" fill="none" xmlns="http://www.w3.org/2000/svg">
<mask id="mask0_66_1015" style="mask-type:alpha" maskUnits="userSpaceOnUse" x="0" y="0" width="12" height="12">
<circle cx="6" cy="6" r="6" fill="#D9D9D9"/>
</mask>
<g mask="url(#mask0_66_1015)">
<g clip-path="url(#clip0_66_1015)">
<path d="M14.9825 0.0350342H-2.98245V12.0116H14.9825V0.0350342Z" fill="#055E1C"/>
<path d="M3.45782 7.19482C3.45782 7.62623 3.79926 7.97591 4.22049 7.97591H6.50849C6.50849 8.33535 6.79305 8.62682 7.14407 8.62682H7.90674C8.25775 8.62682 8.54232 8.33539 8.54232 7.97591V7.19482H3.45782Z" fill="white"/>
<path d="M8.60578 3.41956V5.24208C8.60578 5.5292 8.37771 5.76278 8.09732 5.76278V6.54387C8.79823 6.54387 9.36841 5.95991 9.36841 5.24208V3.41956H8.60578Z" fill="white"/>
<path d="M3.14005 5.24208C3.14005 5.5292 2.91198 5.76278 2.63159 5.76278V6.54387C3.3325 6.54387 3.90268 5.95991 3.90268 5.24208V3.41956H3.14001L3.14005 5.24208Z" fill="white"/>
<path d="M8.22446 3.41943H7.46179V5.24196H8.22446V3.41943Z" fill="white"/>
<path d="M6.31779 4.46103C6.31779 4.53282 6.26077 4.5912 6.19067 4.5912C6.12056 4.5912 6.06355 4.53282 6.06355 4.46103V3.41956H5.30088V4.46103C5.30088 4.53282 5.24386 4.5912 5.17376 4.5912C5.10365 4.5912 5.04663 4.53282 5.04663 4.46103V3.41956H4.28397V4.46103C4.28397 4.96349 4.68312 5.37229 5.17372 5.37229C5.36267 5.37229 5.53793 5.31149 5.68218 5.20819C5.82639 5.31149 6.00169 5.37229 6.19063 5.37229C6.22867 5.37229 6.26607 5.36956 6.30291 5.36475C6.24888 5.59278 6.04835 5.76282 5.8093 5.76282V6.54391C6.51021 6.54391 7.08039 5.95994 7.08039 5.24212V4.46103V3.41956H6.31772L6.31779 4.46103Z" fill="white"/>
<path d="M5.42786 5.7627H4.28397V6.54378H5.42786V5.7627Z" fill="white"/>
</g>
<circle cx="6" cy="6" r="6" stroke="#E1DED7"/>
</g>
<defs>
<clipPath id="clip0_66_1015">
<rect width="17.9649" height="11.9766" fill="white" transform="translate(-2.98245 0.0350342)"/>
</clipPath>
</defs>
</svg>
