<svg width="12" height="12" viewBox="0 0 12 12" fill="none" xmlns="http://www.w3.org/2000/svg">
<mask id="mask0_97_8478" style="mask-type:alpha" maskUnits="userSpaceOnUse" x="0" y="0" width="12" height="12">
<circle cx="6" cy="6" r="6" fill="#D9D9D9"/>
</mask>
<g mask="url(#mask0_97_8478)">
<g clip-path="url(#clip0_97_8478)">
<path d="M18 0.00012207H0V11.9999H18V0.00012207Z" fill="#D80027"/>
<path d="M9.00001 6L0 0.188354V1.74374L5.47826 6L0 10.2563V11.8117L9.00001 6Z" fill="#FFDA44"/>
<path d="M0 0.188354V11.8117L6.65217 6L0 0.188354Z" fill="black"/>
<path d="M1.55331 4.50098L2.42913 5.32986L3.48807 4.75294L2.97046 5.84208L3.84624 6.67089L2.65051 6.51515L2.1329 7.60422L1.91156 6.41889L0.71582 6.26315L1.77469 5.68631L1.55331 4.50098Z" fill="white"/>
</g>
<circle cx="6" cy="6" r="6" stroke="#E1DED7"/>
</g>
<defs>
<clipPath id="clip0_97_8478">
<rect width="18" height="12" fill="white"/>
</clipPath>
</defs>
</svg>
