<svg width="12" height="12" viewBox="0 0 12 12" fill="none" xmlns="http://www.w3.org/2000/svg">
<g clip-path="url(#clip0_14_1533)">
<mask id="mask0_14_1533" style="mask-type:alpha" maskUnits="userSpaceOnUse" x="0" y="0" width="12" height="12">
<circle cx="6.05232" cy="5.94783" r="5.94783" fill="#D9D9D9"/>
</mask>
<g mask="url(#mask0_14_1533)">
<path d="M14.5041 0H-3.33936V11.8957H14.5041V0Z" fill="#10338C"/>
<path d="M3.43309 7.16211L3.73917 7.79933L4.42648 7.64072L4.12039 8.27515L4.67413 8.7148L3.98404 8.87063L3.98682 9.57741L3.43309 9.13498L2.88213 9.57741L2.88491 8.87063L2.19482 8.7148L2.74856 8.27515L2.43969 7.64072L3.12978 7.79933L3.43309 7.16211Z" fill="white"/>
<path d="M8.94001 7.95508L9.08471 8.25838L9.41305 8.18325L9.26558 8.48656L9.52992 8.69525L9.20158 8.7676V9.10708L8.94001 8.8956L8.67566 9.10708L8.67845 8.7676L8.3501 8.69525L8.61445 8.48656L8.46697 8.18325L8.79532 8.25838L8.94001 7.95508Z" fill="white"/>
<path d="M7.58781 4.72729L7.73251 5.0306L8.06086 4.95547L7.91338 5.25877L8.17773 5.46747L7.84938 5.5426V5.87929L7.58781 5.66782L7.32346 5.87929L7.32625 5.5426L6.99512 5.46747L7.25947 5.25877L7.11199 4.95547L7.44033 5.0306L7.58781 4.72729Z" fill="white"/>
<path d="M8.94001 2.88525L9.08471 3.18856L9.41305 3.11343L9.26558 3.41673L9.52992 3.62543L9.20158 3.70056V4.03725L8.94001 3.82578L8.67566 4.03725L8.67845 3.70056L8.3501 3.62543L8.61445 3.41673L8.46697 3.11343L8.79532 3.18856L8.94001 2.88525Z" fill="white"/>
<path d="M10.1225 4.26819L10.2672 4.57149L10.5955 4.49636L10.448 4.79967L10.7124 5.00836L10.384 5.08071V5.42019L10.1225 5.20871L9.85813 5.42019V5.08071L9.52979 5.00836L9.79413 4.79967L9.64665 4.49636L9.975 4.57149L10.1225 4.26819Z" fill="white"/>
<path d="M9.27665 5.87927L9.39074 6.23266H9.76083L9.46031 6.44971L9.57718 6.8031L9.27665 6.58327L8.97613 6.8031L9.09022 6.44971L8.79248 6.23266H9.16257L9.27665 5.87927Z" fill="white"/>
<path d="M5.96861 -0.296875V0.873908L4.24305 1.83426H5.96861V4.10313H3.70739L5.96861 5.35808V6.23426H4.94705L2.13487 4.66939V6.23426H0.00756715V4.37478L-3.33643 6.23426H-3.82617V5.06347L-2.09678 4.10313H-3.82617V1.83426H-1.56495L-3.82617 0.575473V-0.296875H-2.80461L0.00756715 1.26417V-0.296875H2.13487V1.5626L5.4827 -0.296875H5.96861Z" fill="white"/>
<path d="M1.68339 -0.296875H0.459046V2.3546H-3.82617V3.57895H0.459046V6.23426H1.68339V3.57895H5.96861V2.3546H1.68339V-0.296875Z" fill="#D80027"/>
<path d="M2.13477 4.10303L5.9685 6.23416V5.62964L3.22137 4.10303H2.13477Z" fill="#0052B4"/>
<path d="M2.13477 4.10303L5.9685 6.23416V5.62964L3.22137 4.10303H2.13477Z" fill="white"/>
<path d="M2.13477 4.10303L5.9685 6.23416V5.62964L3.22137 4.10303H2.13477Z" fill="#D80027"/>
<path d="M3.22137 1.83426L5.9685 0.303821V-0.296875L2.13477 1.83426H3.22137Z" fill="#D80027"/>
<circle cx="6" cy="6" r="6" stroke="#E1DED7"/>
</g>
</g>
<defs>
<clipPath id="clip0_14_1533">
<rect width="12" height="11.8957" rx="1.11304" fill="white"/>
</clipPath>
</defs>
</svg>
