<svg width="14" height="14" viewBox="0 0 14 14" fill="none" xmlns="http://www.w3.org/2000/svg">
<circle cx="7" cy="7" r="6" stroke="#E1DED7"/>
<mask id="mask0_65_832" style="mask-type:alpha" maskUnits="userSpaceOnUse" x="1" y="1" width="12" height="12">
<circle cx="7" cy="7" r="6" fill="#D9D9D9"/>
</mask>
<g mask="url(#mask0_65_832)">
<g clip-path="url(#clip0_65_832)">
<path d="M15.7719 1.14014H-1.77194V12.8362H15.7719V1.14014Z" fill="#FFDA44"/>
<path d="M11.3817 12.8359L7 6.86084L7.91924 12.8359H11.3817Z" fill="#D80027"/>
<path d="M2.80472 1.14001L7 6.86082L6.11986 1.14001H2.80472Z" fill="#D80027"/>
<path d="M6.0807 12.8359L7 6.86084L2.61829 12.8359H6.0807Z" fill="#D80027"/>
<path d="M-1.77194 1.14001V5.51124L6.99999 6.86082L-0.801102 1.14001H-1.77194Z" fill="#D80027"/>
<path d="M-1.77194 12.8359H-1.1479L6.99999 6.86084L-1.77194 8.21035V12.8359Z" fill="#D80027"/>
<path d="M7 6.86082L15.7719 5.51124V1.14001H14.8012L7 6.86082Z" fill="#D80027"/>
<path d="M7.88014 1.14001L7 6.86082L11.1952 1.14001H7.88014Z" fill="#D80027"/>
<path d="M15.7719 12.8359V8.21038L7 6.86084L15.1479 12.8359H15.7719Z" fill="#D80027"/>
<path d="M6.99999 8.89494C8.12331 8.89494 9.03395 7.98431 9.03395 6.86098C9.03395 5.73766 8.12331 4.82703 6.99999 4.82703C5.87667 4.82703 4.96603 5.73766 4.96603 6.86098C4.96603 7.98431 5.87667 8.89494 6.99999 8.89494Z" fill="#D80027"/>
<path d="M6.99999 8.38657C7.84253 8.38657 8.52555 7.70356 8.52555 6.86101C8.52555 6.01847 7.84253 5.33545 6.99999 5.33545C6.15744 5.33545 5.47443 6.01847 5.47443 6.86101C5.47443 7.70356 6.15744 8.38657 6.99999 8.38657Z" fill="#FFDA44"/>
</g>
</g>
<defs>
<clipPath id="clip0_65_832">
<rect width="17.5439" height="11.6959" fill="white" transform="translate(-1.77194 1.14014)"/>
</clipPath>
</defs>
</svg>
