<svg width="12" height="12" viewBox="0 0 12 12" fill="none" xmlns="http://www.w3.org/2000/svg">
<g clip-path="url(#clip0_244_3580)">
<g clip-path="url(#clip1_244_3580)">
<path d="M14.9999 -3H-3.00012V15H14.9999V-3Z" fill="#0052B4"/>
<path d="M14.9651 5V7H7V14.25H5V7H-3V5H5V1.5V-2.25H7V5H14.9651Z" fill="white"/>
<path d="M2.76437 2.25936C2.86248 2.25547 2.95824 2.25741 3.05634 2.26325C3.18481 2.27102 3.2759 2.29436 3.26889 2.27297C3.25721 2.23797 3.26656 2.23019 3.25021 2.23797C3.21984 2.25741 3.26656 2.23408 3.07736 2.32353C2.80175 2.45381 2.68262 2.55299 2.74335 2.73189C2.79707 2.8894 2.93488 2.93218 3.26422 2.97496L3.3086 2.98079C3.4394 2.99829 3.49779 3.00802 3.5375 3.02357C3.54684 3.02746 3.53049 3.00413 3.53516 2.99051C3.53049 3.00218 3.44407 3.03135 3.22451 3.06635L3.11473 3.08385C2.69197 3.1558 2.48175 3.24914 2.44905 3.49221C2.41402 3.75862 2.74569 3.9453 3.16378 3.99002C3.58889 4.03669 3.96027 3.92002 3.99764 3.63222C4.021 3.44943 3.86917 3.34054 3.62626 3.2997C3.46276 3.27248 3.24553 3.27248 2.98627 3.29387C2.69664 3.31915 2.40934 3.35998 2.12439 3.41637C2.0403 3.42999 1.98658 3.49805 2.00293 3.56805C2.01928 3.63806 2.10103 3.68278 2.18511 3.66917C2.18979 3.66917 2.19212 3.66722 2.19679 3.66722C2.46774 3.61472 2.74102 3.57583 3.01663 3.55249C3.24787 3.53305 3.43706 3.53305 3.56319 3.55444C3.66597 3.57194 3.68699 3.5875 3.68465 3.605C3.67297 3.70417 3.47677 3.76445 3.20116 3.73528C2.93021 3.70612 2.74569 3.60305 2.75503 3.52138C2.76671 3.43776 2.87883 3.38915 3.17313 3.33859L3.28057 3.32109C3.64261 3.26275 3.77341 3.21803 3.82947 3.06441C3.87385 2.93801 3.7991 2.83884 3.66129 2.78828C3.58655 2.76106 3.51414 2.74744 3.35298 2.728L3.31093 2.72216C3.12408 2.69688 3.04466 2.67161 3.04233 2.66383C3.03999 2.65605 3.08437 2.6191 3.23152 2.5491L3.33429 2.50048C3.36933 2.48493 3.40203 2.46548 3.43473 2.44798C3.54217 2.38186 3.6029 2.30992 3.5702 2.2088C3.52582 2.06684 3.35999 2.02406 3.08203 2.00656C2.97225 2.00073 2.86481 1.99878 2.75503 2.00073L2.70832 2.00267C2.6219 2.00656 2.5565 2.06879 2.56117 2.13879C2.56584 2.21074 2.64058 2.26519 2.72467 2.2613L2.76437 2.25936Z" fill="white"/>
<path d="M8.76437 2.25936C8.86248 2.25547 8.95824 2.25741 9.05634 2.26325C9.18481 2.27102 9.2759 2.29436 9.26889 2.27297C9.25721 2.23797 9.26656 2.23019 9.25021 2.23797C9.21984 2.25741 9.26656 2.23408 9.07736 2.32353C8.80175 2.45381 8.68262 2.55299 8.74335 2.73189C8.79707 2.8894 8.93488 2.93218 9.26422 2.97496L9.3086 2.98079C9.4394 2.99829 9.49779 3.00802 9.5375 3.02357C9.54684 3.02746 9.53049 3.00413 9.53516 2.99051C9.53049 3.00218 9.44407 3.03135 9.22451 3.06635L9.11473 3.08385C8.69197 3.1558 8.48175 3.24914 8.44905 3.49221C8.41402 3.75862 8.74569 3.9453 9.16378 3.99002C9.58889 4.03669 9.96027 3.92002 9.99764 3.63222C10.021 3.44943 9.86917 3.34054 9.62626 3.2997C9.46276 3.27248 9.24553 3.27248 8.98627 3.29387C8.69664 3.31915 8.40934 3.35998 8.12439 3.41637C8.0403 3.42999 7.98658 3.49805 8.00293 3.56805C8.01928 3.63806 8.10103 3.68278 8.18511 3.66917C8.18979 3.66917 8.19212 3.66722 8.19679 3.66722C8.46774 3.61472 8.74102 3.57583 9.01663 3.55249C9.24787 3.53305 9.43706 3.53305 9.56319 3.55444C9.66597 3.57194 9.68699 3.5875 9.68465 3.605C9.67297 3.70417 9.47677 3.76445 9.20116 3.73528C8.93021 3.70612 8.74569 3.60305 8.75503 3.52138C8.76671 3.43776 8.87883 3.38915 9.17313 3.33859L9.28057 3.32109C9.64261 3.26275 9.77341 3.21803 9.82947 3.06441C9.87385 2.93801 9.7991 2.83884 9.66129 2.78828C9.58655 2.76106 9.51414 2.74744 9.35298 2.728L9.31093 2.72216C9.12408 2.69688 9.04466 2.67161 9.04233 2.66383C9.03999 2.65605 9.08437 2.6191 9.23152 2.5491L9.33429 2.50048C9.36933 2.48493 9.40203 2.46548 9.43473 2.44798C9.54217 2.38186 9.6029 2.30992 9.5702 2.2088C9.52582 2.06684 9.35999 2.02406 9.08203 2.00656C8.97225 2.00073 8.86481 1.99878 8.75503 2.00073L8.70832 2.00267C8.6219 2.00656 8.5565 2.06879 8.56117 2.13879C8.56584 2.21074 8.64058 2.26519 8.72467 2.2613L8.76437 2.25936Z" fill="white"/>
<path d="M8.76437 8.25936C8.86248 8.25547 8.95824 8.25741 9.05634 8.26325C9.18481 8.27102 9.2759 8.29436 9.26889 8.27297C9.25721 8.23797 9.26656 8.23019 9.25021 8.23797C9.21984 8.25741 9.26656 8.23408 9.07736 8.32353C8.80175 8.45381 8.68262 8.55299 8.74335 8.73189C8.79707 8.8894 8.93488 8.93218 9.26422 8.97496L9.3086 8.98079C9.4394 8.99829 9.49779 9.00802 9.5375 9.02357C9.54684 9.02746 9.53049 9.00413 9.53516 8.99051C9.53049 9.00218 9.44407 9.03135 9.22451 9.06635L9.11473 9.08385C8.69197 9.1558 8.48175 9.24914 8.44905 9.49221C8.41402 9.75862 8.74569 9.9453 9.16378 9.99002C9.58889 10.0367 9.96027 9.92002 9.99764 9.63222C10.021 9.44943 9.86917 9.34054 9.62626 9.2997C9.46276 9.27248 9.24553 9.27248 8.98627 9.29387C8.69664 9.31915 8.40934 9.35998 8.12439 9.41637C8.0403 9.42999 7.98658 9.49805 8.00293 9.56805C8.01928 9.63806 8.10103 9.68278 8.18511 9.66917C8.18979 9.66917 8.19212 9.66722 8.19679 9.66722C8.46774 9.61472 8.74102 9.57583 9.01663 9.55249C9.24787 9.53305 9.43706 9.53305 9.56319 9.55444C9.66597 9.57194 9.68699 9.5875 9.68465 9.605C9.67297 9.70417 9.47677 9.76445 9.20116 9.73528C8.93021 9.70612 8.74569 9.60305 8.75503 9.52138C8.76671 9.43776 8.87883 9.38915 9.17313 9.33859L9.28057 9.32109C9.64261 9.26275 9.77341 9.21803 9.82947 9.06441C9.87385 8.93801 9.7991 8.83884 9.66129 8.78828C9.58655 8.76106 9.51414 8.74744 9.35298 8.728L9.31093 8.72216C9.12408 8.69688 9.04466 8.67161 9.04233 8.66383C9.03999 8.65605 9.08437 8.6191 9.23152 8.5491L9.33429 8.50048C9.36933 8.48493 9.40203 8.46548 9.43473 8.44798C9.54217 8.38186 9.6029 8.30992 9.5702 8.2088C9.52582 8.06684 9.35999 8.02406 9.08203 8.00656C8.97225 8.00073 8.86481 7.99878 8.75503 8.00073L8.70832 8.00267C8.6219 8.00656 8.5565 8.06879 8.56117 8.13879C8.56584 8.21074 8.64058 8.26519 8.72467 8.2613L8.76437 8.25936Z" fill="white"/>
<path d="M2.76437 8.25936C2.86248 8.25547 2.95824 8.25741 3.05634 8.26325C3.18481 8.27102 3.2759 8.29436 3.26889 8.27297C3.25721 8.23797 3.26656 8.23019 3.25021 8.23797C3.21984 8.25741 3.26656 8.23408 3.07736 8.32353C2.80175 8.45381 2.68262 8.55299 2.74335 8.73189C2.79707 8.8894 2.93488 8.93218 3.26422 8.97496L3.3086 8.98079C3.4394 8.99829 3.49779 9.00802 3.5375 9.02357C3.54684 9.02746 3.53049 9.00413 3.53516 8.99051C3.53049 9.00218 3.44407 9.03135 3.22451 9.06635L3.11473 9.08385C2.69197 9.1558 2.48175 9.24914 2.44905 9.49221C2.41402 9.75862 2.74569 9.9453 3.16378 9.99002C3.58889 10.0367 3.96027 9.92002 3.99764 9.63222C4.021 9.44943 3.86917 9.34054 3.62626 9.2997C3.46276 9.27248 3.24553 9.27248 2.98627 9.29387C2.69664 9.31915 2.40934 9.35998 2.12439 9.41637C2.0403 9.42999 1.98658 9.49805 2.00293 9.56805C2.01928 9.63806 2.10103 9.68278 2.18511 9.66917C2.18979 9.66917 2.19212 9.66722 2.19679 9.66722C2.46774 9.61472 2.74102 9.57583 3.01663 9.55249C3.24787 9.53305 3.43706 9.53305 3.56319 9.55444C3.66597 9.57194 3.68699 9.5875 3.68465 9.605C3.67297 9.70417 3.47677 9.76445 3.20116 9.73528C2.93021 9.70612 2.74569 9.60305 2.75503 9.52138C2.76671 9.43776 2.87883 9.38915 3.17313 9.33859L3.28057 9.32109C3.64261 9.26275 3.77341 9.21803 3.82947 9.06441C3.87385 8.93801 3.7991 8.83884 3.66129 8.78828C3.58655 8.76106 3.51414 8.74744 3.35298 8.728L3.31093 8.72216C3.12408 8.69688 3.04466 8.67161 3.04233 8.66383C3.03999 8.65605 3.08437 8.6191 3.23152 8.5491L3.33429 8.50048C3.36933 8.48493 3.40203 8.46548 3.43473 8.44798C3.54217 8.38186 3.6029 8.30992 3.5702 8.2088C3.52582 8.06684 3.35999 8.02406 3.08203 8.00656C2.97225 8.00073 2.86481 7.99878 2.75503 8.00073L2.70832 8.00267C2.6219 8.00656 2.5565 8.06879 2.56117 8.13879C2.56584 8.21074 2.64058 8.26519 2.72467 8.2613L2.76437 8.25936Z" fill="white"/>
</g>
</g>
<rect x="0.25" y="0.25" width="11.5" height="11.5" rx="5.75" stroke="#E1DED7" stroke-width="0.5"/>
<defs>
<clipPath id="clip0_244_3580">
<rect width="12" height="12" rx="6" fill="white"/>
</clipPath>
<clipPath id="clip1_244_3580">
<rect width="18" height="12" fill="white" transform="translate(-3)"/>
</clipPath>
</defs>
</svg>
