<svg width="12" height="12" viewBox="0 0 12 12" fill="none" xmlns="http://www.w3.org/2000/svg">
<g clip-path="url(#clip0_14_1588)">
<mask id="mask0_14_1588" style="mask-type:alpha" maskUnits="userSpaceOnUse" x="0" y="0" width="12" height="12">
<circle cx="6" cy="6" r="6" fill="#D9D9D9"/>
</mask>
<g mask="url(#mask0_14_1588)">
<path d="M14.9824 0H-3.01758V12H14.9824V0Z" fill="white"/>
<path d="M8.34299 4.63569H6.76825L5.98228 3.27148L5.19632 4.63569H3.62158L4.40755 5.99991L3.62158 7.36412H5.19632L5.98228 8.72833L6.76825 7.36412H8.34299L7.55702 5.99991L8.34299 4.63569ZM7.01246 5.99991L6.52965 6.93184H5.43772L4.95211 5.99991L5.43492 5.06798H6.52685L7.01246 5.99991ZM5.98228 3.98447L6.31632 4.6385H5.64544L5.98228 3.98447ZM4.34579 5.06798H5.01667L4.71351 5.65745L4.34579 5.06798ZM4.34579 6.93184L4.7107 6.31148L5.04474 6.93184H4.34579ZM5.98228 7.98447L5.64825 7.36412H6.31913L5.98228 7.98447ZM7.64965 6.93184H6.9479L7.28193 6.31148L7.64965 6.93184ZM6.91702 5.06798H7.64965L7.28474 5.68833L6.91702 5.06798Z" fill="#2E52B2"/>
<path d="M14.9473 0.747314H-3.01758V2.24556H14.9473V0.747314Z" fill="#2E52B2"/>
<path d="M14.9473 9.72974H-3.01758V11.228H14.9473V9.72974Z" fill="#2E52B2"/>
<circle cx="6" cy="6" r="6" stroke="#E1DED7"/>
</g>
</g>
<defs>
<clipPath id="clip0_14_1588">
<rect width="12" height="12" rx="1.12281" fill="white"/>
</clipPath>
</defs>
</svg>
