<svg width="12" height="12" viewBox="0 0 12 12" fill="none" xmlns="http://www.w3.org/2000/svg">
<mask id="mask0_91_5341" style="mask-type:alpha" maskUnits="userSpaceOnUse" x="0" y="0" width="12" height="12">
<circle cx="6" cy="6" r="6" fill="#D9D9D9"/>
</mask>
<g mask="url(#mask0_91_5341)">
<g clip-path="url(#clip0_91_5341)">
<path d="M15 0H-3V12H15V0Z" fill="#D80027"/>
<path d="M15 0H-3V4H15V0Z" fill="#0052B4"/>
<path d="M15 8H-3V12H15V8Z" fill="#0052B4"/>
<path d="M7.64913 6.89826V6.27369H7.23159V5.44212L6.81404 5.02457L6.40001 5.44212V4.60703L5.98246 4.19299L5.56492 4.60703V5.44212L5.15089 5.02457L4.73334 5.44212V6.27369H4.3158V6.89826H3.89825V7.52282H8.06668V6.89826H7.64913Z" fill="white"/>
</g>
<circle cx="6" cy="6" r="6" stroke="#E1DED7"/>
</g>
<defs>
<clipPath id="clip0_91_5341">
<rect width="18" height="12" fill="white" transform="translate(-3)"/>
</clipPath>
</defs>
</svg>
