<svg width="12" height="12" viewBox="0 0 12 12" fill="none" xmlns="http://www.w3.org/2000/svg">
<mask id="mask0_93_7424" style="mask-type:alpha" maskUnits="userSpaceOnUse" x="0" y="0" width="12" height="12">
<circle cx="6" cy="6" r="6" fill="#D9D9D9"/>
</mask>
<g mask="url(#mask0_93_7424)">
<g clip-path="url(#clip0_93_7424)">
<path d="M20 0H-3V12H20V0Z" fill="#496E2D"/>
<path d="M9.21532 4.23707C9.48354 3.4895 9.18223 2.67645 8.53557 2.27148C8.65187 2.28662 8.76833 2.314 8.88322 2.3552C9.74572 2.66466 10.1941 3.61462 9.88461 4.47715C9.57515 5.33968 8.6252 5.78798 7.76266 5.47853C7.64777 5.43729 7.54044 5.3844 7.44104 5.32217C8.19762 5.42068 8.94711 4.98467 9.21532 4.23707Z" fill="white"/>
<path d="M7.72762 2.06653L7.49454 2.36765L7.13615 2.23905L7.35054 2.55374L7.11749 2.85486L7.48301 2.74824L7.6974 3.06293L7.70893 2.68237L8.07448 2.57572L7.71605 2.44715L7.72762 2.06653Z" fill="white"/>
<path d="M8.35701 3.04773L8.12396 3.34885L7.76554 3.22025L7.97994 3.53494L7.74689 3.83606L8.1124 3.7294L8.3268 4.04413L8.33829 3.66354L8.70387 3.55685L8.34545 3.42832L8.35701 3.04773Z" fill="white"/>
<path d="M6.61809 2.42395L6.38504 2.72507L6.02668 2.59653L6.24105 2.91119L6.008 3.21228L6.37351 3.10566L6.5879 3.42035L6.59944 3.03976L6.96498 2.93317L6.60656 2.80454L6.61809 2.42395Z" fill="white"/>
<path d="M6.59255 3.54785L6.3595 3.84897L6.00108 3.72037L6.21547 4.03506L5.98242 4.33618L6.34797 4.22956L6.56233 4.54425L6.57389 4.16366L6.93941 4.05704L6.58102 3.92844L6.59255 3.54785Z" fill="white"/>
<path d="M7.662 3.93152L7.42896 4.23264L7.07057 4.10404L7.28496 4.41876L7.05188 4.71985L7.41742 4.61323L7.63182 4.92792L7.64332 4.54733L8.00883 4.44071L7.65047 4.31214L7.662 3.93152Z" fill="white"/>
<path d="M5.05327 0.00012207H1.92896V11.9765H5.05327V0.00012207Z" fill="#D80027"/>
<path d="M3.12135 3.15286L2.59827 2.76321V2.21216L3.12135 1.82251H3.86114L4.38423 2.21216V2.76321L3.86114 3.15286H3.12135Z" fill="white"/>
<path d="M3.49125 1.82251H3.12135L2.59827 2.21216V2.48156H3.49125V1.82251Z" fill="#FF9811"/>
<path d="M3.49133 3.15295H3.86123L4.38432 2.7633V2.48218H3.49133V3.15295Z" fill="#FF9811"/>
<path d="M3.12135 10.1541L2.59827 9.7644V9.21338L3.12135 8.82373H3.86114L4.38423 9.21338V9.7644L3.86114 10.1541H3.12135Z" fill="white"/>
<path d="M3.49125 8.82373H3.12135L2.59827 9.21338V9.48278H3.49125V8.82373Z" fill="#FF9811"/>
<path d="M3.49133 10.154H3.86123L4.38432 9.76436V9.48328H3.49133V10.154Z" fill="#FF9811"/>
<path d="M3.12135 6.65344L2.59827 6.26379V5.7128L3.12135 5.32312H3.86114L4.38423 5.7128V6.26379L3.86114 6.65344H3.12135Z" fill="#496E2D"/>
<path d="M4.40248 7.51079H4.17466V7.28297H3.77427L3.49118 6.99988L3.20813 7.28297H2.80778V7.51079H2.57996V7.96644H2.80778V8.19423H3.20813L3.49122 8.47735L3.77431 8.19423H4.17466V7.96644H4.40248V7.51079Z" fill="#496E2D"/>
<path d="M4.4026 4.01018H4.17478V3.78239H3.77439L3.49131 3.49927L3.20825 3.78239H2.8079V4.01018H2.58008V4.46583H2.8079V4.69362H3.20825L3.49134 4.97678L3.77443 4.69362H4.17478V4.46583H4.4026V4.01018Z" fill="#496E2D"/>
<path d="M3.75141 5.72778H3.23071V6.24848H3.75141V5.72778Z" fill="#D80027"/>
<path d="M3.49122 4.49831C3.63503 4.49831 3.75161 4.38173 3.75161 4.23793C3.75161 4.09412 3.63503 3.97754 3.49122 3.97754C3.34741 3.97754 3.23083 4.09412 3.23083 4.23793C3.23083 4.38173 3.34741 4.49831 3.49122 4.49831Z" fill="#D80027"/>
<path d="M3.49122 7.99917C3.63503 7.99917 3.75161 7.88259 3.75161 7.73878C3.75161 7.59497 3.63503 7.47839 3.49122 7.47839C3.34741 7.47839 3.23083 7.59497 3.23083 7.73878C3.23083 7.88259 3.34741 7.99917 3.49122 7.99917Z" fill="#D80027"/>
</g>
<circle cx="6" cy="6" r="6" stroke="#E1DED7"/>
</g>
<defs>
<clipPath id="clip0_93_7424">
<rect width="17.9649" height="11.9766" fill="white" transform="translate(-1)"/>
</clipPath>
</defs>
</svg>
