<svg width="12" height="12" viewBox="0 0 12 12" fill="none" xmlns="http://www.w3.org/2000/svg">
<mask id="mask0_89_4633" style="mask-type:alpha" maskUnits="userSpaceOnUse" x="0" y="0" width="12" height="12">
<circle cx="6" cy="6" r="6" fill="#D9D9D9"/>
</mask>
<g mask="url(#mask0_89_4633)">
<g clip-path="url(#clip0_89_4633)">
<path d="M15 0H-3V12H15V0Z" fill="#338AF3"/>
<path d="M15 0H-3V6H15V0Z" fill="#56AF35"/>
<path d="M0 11L11.5 6L0 1V11Z" fill="#D80027"/>
<path d="M4 7.42958C4.78873 7.42958 5.42723 6.79108 5.42723 6.00235C5.42723 5.21361 4.78873 4.57512 4 4.57512C3.21127 4.57512 2.57277 5.21361 2.57277 6.00235C2.57277 6.79108 3.21127 7.42958 4 7.42958ZM4 8C2.89671 8 2 7.10563 2 6C2 4.89437 2.89437 4 4 4C5.10563 4 6 4.89437 6 6C6 7.10563 5.10329 8 4 8Z" fill="#FFC945"/>
<path d="M3.64319 5.88739C3.87007 5.88739 4.05399 5.70347 4.05399 5.47659C4.05399 5.24972 3.87007 5.0658 3.64319 5.0658C3.41631 5.0658 3.23239 5.24972 3.23239 5.47659C3.23239 5.70347 3.41631 5.88739 3.64319 5.88739Z" fill="#FFC945"/>
<path d="M4.33338 6.12677C4.56025 6.12677 4.74417 5.94285 4.74417 5.71597C4.74417 5.4891 4.56025 5.30518 4.33338 5.30518C4.1065 5.30518 3.92258 5.4891 3.92258 5.71597C3.92258 5.94285 4.1065 6.12677 4.33338 6.12677Z" fill="#FFC945"/>
<path d="M4.00009 5.57977C4.22697 5.57977 4.41089 5.39585 4.41089 5.16898C4.41089 4.9421 4.22697 4.75818 4.00009 4.75818C3.77322 4.75818 3.58929 4.9421 3.58929 5.16898C3.58929 5.39585 3.77322 5.57977 4.00009 5.57977Z" fill="#FFC945"/>
<path d="M3.64319 6.46015C3.87007 6.46015 4.05399 6.27623 4.05399 6.04935C4.05399 5.82247 3.87007 5.63855 3.64319 5.63855C3.41631 5.63855 3.23239 5.82247 3.23239 6.04935C3.23239 6.27623 3.41631 6.46015 3.64319 6.46015Z" fill="#FFC945"/>
<path d="M4.35675 6.69721C4.58363 6.69721 4.76755 6.51329 4.76755 6.28641C4.76755 6.05953 4.58363 5.87561 4.35675 5.87561C4.12987 5.87561 3.94595 6.05953 3.94595 6.28641C3.94595 6.51329 4.12987 6.69721 4.35675 6.69721Z" fill="#FFC945"/>
<path d="M3.7135 7.05402C3.94038 7.05402 4.1243 6.8701 4.1243 6.64322C4.1243 6.41634 3.94038 6.23242 3.7135 6.23242C3.48662 6.23242 3.3027 6.41634 3.3027 6.64322C3.3027 6.8701 3.48662 7.05402 3.7135 7.05402Z" fill="#FFC945"/>
<path d="M4.26282 7.22309C4.4897 7.22309 4.67362 7.03916 4.67362 6.81229C4.67362 6.58541 4.4897 6.40149 4.26282 6.40149C4.03594 6.40149 3.85202 6.58541 3.85202 6.81229C3.85202 7.03916 4.03594 7.22309 4.26282 7.22309Z" fill="#FFC945"/>
</g>
<circle cx="6" cy="6" r="6" stroke="#E1DED7"/>
</g>
<defs>
<clipPath id="clip0_89_4633">
<rect width="18" height="12" fill="white" transform="translate(-3)"/>
</clipPath>
</defs>
</svg>
