<svg width="12" height="12" viewBox="0 0 12 12" fill="none" xmlns="http://www.w3.org/2000/svg">
<mask id="mask0_97_8539" style="mask-type:alpha" maskUnits="userSpaceOnUse" x="0" y="0" width="12" height="12">
<circle cx="6" cy="6" r="6" fill="#D9D9D9"/>
</mask>
<g mask="url(#mask0_97_8539)">
<g clip-path="url(#clip0_97_8539)">
<path d="M-3 0H15V12H-3V0Z" fill="#2B5DEA"/>
<path d="M-3 2H15V10H-3V2Z" fill="#FFDF29"/>
<path d="M-3 3H15V9H-3V3Z" fill="#D70000"/>
<path d="M6 3.42798V8.57198C8.286 8.57198 9.428 6.85798 10.286 5.99998C9.428 5.14198 8.286 3.42798 6 3.42798Z" fill="white"/>
<path d="M5.99999 3.42798C3.99999 3.42798 2.57199 5.14198 1.71399 5.99998C2.57199 6.85798 3.99999 8.57198 5.99999 8.57198V3.42798Z" fill="black"/>
<path d="M4.34603 5.08606H3.92603V6.91206H4.34603V5.08606Z" fill="white"/>
<path d="M5.38399 5.08606H4.96399V6.91206H5.38399V5.08606Z" fill="white"/>
<path d="M6.97603 5.08606H6.55603V6.91206H6.97603V5.08606Z" fill="black"/>
<path d="M8.01399 5.08606H7.59399V6.91206H8.01399V5.08606Z" fill="black"/>
</g>
<circle cx="6" cy="6" r="6" stroke="#E1DED7"/>
</g>
<defs>
<clipPath id="clip0_97_8539">
<rect width="18" height="12" fill="white" transform="translate(-3)"/>
</clipPath>
</defs>
</svg>
