<svg width="12" height="12" viewBox="0 0 12 12" fill="none" xmlns="http://www.w3.org/2000/svg">
<mask id="mask0_109_10780" style="mask-type:alpha" maskUnits="userSpaceOnUse" x="0" y="0" width="12" height="12">
<circle cx="6" cy="6" r="6" fill="#D9D9D9"/>
</mask>
<g mask="url(#mask0_109_10780)">
<g clip-path="url(#clip0_109_10780)">
<path d="M15 0H-3V12H15V0Z" fill="#0052B4"/>
<path d="M-3 6H6V0H15V12H-3V6Z" fill="#00B2EE"/>
<path d="M5.998 0V4.126H4.378L5.998 5.206V6H5.204L2.624 4.282V6H0.374V4.282L-2.206 6H-3V5.206L-1.38 4.126H-3V1.876H-1.38L-3 0.798V0H-2.206L0.374 1.718V0H2.624V1.718L5.204 0H5.998Z" fill="white"/>
<path d="M2.062 0H0.936V2.44H-3V3.564H0.936V6H2.062V3.564H5.998V2.44H2.062V0Z" fill="#D80027"/>
<path d="M5.99805 0.797974V1.87597H4.37805L5.99805 0.797974Z" fill="#2E52B2"/>
<path d="M5.99798 0.00402832V0.390028L3.79998 1.87603H3.00598L5.74198 0.00402832H5.99798Z" fill="#D80027"/>
<path d="M5.74198 5.99998L3.00598 4.12598H3.79998L5.99798 5.61398V5.99998H5.74198Z" fill="#D80027"/>
<path d="M3.71447 9.64294L4.15484 11L3 10.1612H4.42895L3.27411 11L3.71447 9.64294Z" fill="#FFDA44"/>
<path d="M9.12292 7.53247L9.56329 8.88952L8.40845 8.05073H9.8359L8.68106 8.88952L9.12292 7.53247Z" fill="#FFDA44"/>
<path d="M10.7165 6.35669L11.1569 7.71374L10.0021 6.87494H11.4295L10.2747 7.71374L10.7165 6.35669Z" fill="#FFDA44"/>
<path d="M10.7165 3L11.1569 4.35705L10.0021 3.51826H11.4295L10.2747 4.35705L10.7165 3Z" fill="#FFDA44"/>
<path d="M9.32519 4.41089L9.76556 5.76794L8.61072 4.92914H10.0382L8.88333 5.76794L9.32519 4.41089Z" fill="#FFDA44"/>
<path d="M7.28979 5.25134L7.73016 6.60839L6.57532 5.7696H8.00277L6.84793 6.60839L7.28979 5.25134Z" fill="#FFDA44"/>
<path d="M7.73913 8.88965L8.1795 10.2467L7.02466 9.4079H8.45211L7.29727 10.2467L7.73913 8.88965Z" fill="#FFDA44"/>
<path d="M5.8518 7.41272L6.29217 8.76977L5.13733 7.93098H6.56478L5.40994 8.76977L5.8518 7.41272Z" fill="#FFDA44"/>
<path d="M5.8518 9.38989L6.29217 10.7469L5.13733 9.90815H6.56478L5.40994 10.7469L5.8518 9.38989Z" fill="#FFDA44"/>
</g>
<circle cx="6" cy="6" r="6" stroke="#E1DED7"/>
</g>
<defs>
<clipPath id="clip0_109_10780">
<rect width="18" height="12" fill="white" transform="translate(-3)"/>
</clipPath>
</defs>
</svg>
