<svg width="12" height="12" viewBox="0 0 12 12" fill="none" xmlns="http://www.w3.org/2000/svg">
<g clip-path="url(#clip0_32168_262901)">
<path d="M6 11.9999C9.31371 11.9999 12 9.31365 12 5.99994C12 2.68623 9.31371 -6.10352e-05 6 -6.10352e-05C2.68629 -6.10352e-05 0 2.68623 0 5.99994C0 9.31365 2.68629 11.9999 6 11.9999Z" fill="#F0F0F0"/>
<path d="M6 4.43473H11.7933C11.6429 3.87659 11.4142 3.35063 11.1194 2.86951H6V4.43473Z" fill="#338AF3"/>
<path d="M2.26504 10.6956H9.73488C10.2824 10.2595 10.752 9.72974 11.1193 9.13037H0.880615C1.2479 9.72971 1.7175 10.2595 2.26504 10.6956V10.6956Z" fill="#338AF3"/>
<path d="M6 -0.00012207V1.30422H9.73493C8.71001 0.48794 7.41209 -0.00012207 6 -0.00012207V-0.00012207Z" fill="#338AF3"/>
<path d="M6 4.43473H11.7933C11.6429 3.87659 11.4142 3.35063 11.1194 2.86951H6V4.43473Z" fill="#338AF3"/>
<path d="M0 6C0 6.54157 0.0721875 7.06615 0.206695 7.56523H11.7933C11.9278 7.06615 12 6.54157 12 6H0Z" fill="#338AF3"/>
<path d="M5.2175 3.5114L4.4847 3.8561L4.87491 4.56579L4.07921 4.41358L3.97838 5.21737L3.42418 4.62618L2.86993 5.21737L2.76912 4.41358L1.97342 4.56574L2.36361 3.85607L1.63086 3.5114L2.36363 3.16675L1.97342 2.45707L2.7691 2.60927L2.86995 1.80548L3.42418 2.39667L3.97841 1.80548L4.07921 2.60927L4.87494 2.45707L4.48473 3.16678L5.2175 3.5114Z" fill="#FFDA44"/>
</g>
<defs>
<clipPath id="clip0_32168_262901">
<rect width="12" height="12" fill="white"/>
</clipPath>
</defs>
</svg>
