<svg width="12" height="12" viewBox="0 0 12 12" fill="none" xmlns="http://www.w3.org/2000/svg">
<g clip-path="url(#clip0_14_1702)">
<mask id="mask0_14_1702" style="mask-type:alpha" maskUnits="userSpaceOnUse" x="0" y="0" width="12" height="12">
<circle cx="6.01718" cy="5.98251" r="5.98251" fill="#D9D9D9"/>
</mask>
<g mask="url(#mask0_14_1702)">
<path d="M14.9734 0H-2.97412V11.965H14.9734V0Z" fill="#FFDA44"/>
<path d="M14.9734 5.97192H-2.97412V8.95618H14.9734V5.97192Z" fill="#0052B4"/>
<path d="M14.9734 8.95618H-2.97412V11.9404H14.9734V8.95618Z" fill="#D80027"/>
<path d="M5.98155 7.4659C6.909 7.4659 7.66085 6.71405 7.66085 5.7866C7.66085 4.85915 6.909 4.1073 5.98155 4.1073C5.05409 4.1073 4.30225 4.85915 4.30225 5.7866C4.30225 6.71405 5.05409 7.4659 5.98155 7.4659Z" fill="#FFDA44"/>
<path d="M9.14977 3.2369C9.14977 3.2369 8.38849 2.85066 8.20097 2.78909C8.01345 2.72751 6.82674 2.41964 6.82674 2.59317C6.82674 2.88145 6.4489 2.92903 6.39292 2.92903C6.33695 2.92903 6.33695 2.78069 5.9787 2.78069C5.62044 2.78069 5.59526 2.91504 5.53648 2.91504C5.47491 2.91504 5.13065 2.88705 5.13065 2.59317C5.13065 2.44763 3.92995 2.70512 3.75642 2.78909C3.58569 2.87585 2.80762 3.2369 2.80762 3.2369C2.80762 3.2369 4.08948 3.31247 4.31619 3.41043C4.54289 3.50839 5.54208 3.87224 5.54208 3.87224L5.46371 4.24448H6.52167L6.41531 3.87224C6.41531 3.87224 7.3977 3.51679 7.6412 3.41043C7.8847 3.30407 9.14977 3.2369 9.14977 3.2369Z" fill="#4C1F00"/>
<path d="M4.90967 5.80624C4.90967 6.39679 5.39107 6.87819 5.98162 6.87819C6.57218 6.87819 7.05357 6.39679 7.05357 5.80624V5.48438H4.91247V5.80624H4.90967Z" fill="#57BA17"/>
<path d="M5.98162 4.09338C5.39107 4.09338 4.90967 4.57478 4.90967 5.16534V5.4872H7.05078V5.16534C7.05358 4.57478 6.57218 4.09338 5.98162 4.09338Z" fill="#338AF3"/>
<circle cx="6" cy="6" r="6" stroke="#E1DED7"/>
</g>
</g>
<defs>
<clipPath id="clip0_14_1702">
<rect width="12" height="11.965" rx="1.11953" fill="white"/>
</clipPath>
</defs>
</svg>
