<svg width="12" height="12" viewBox="0 0 12 12" fill="none" xmlns="http://www.w3.org/2000/svg">
<g clip-path="url(#clip0_14_1610)">
<mask id="mask0_14_1610" style="mask-type:alpha" maskUnits="userSpaceOnUse" x="0" y="0" width="12" height="12">
<circle cx="6" cy="6" r="6" fill="#D9D9D9"/>
</mask>
<g mask="url(#mask0_14_1610)">
<path d="M14.9824 0H-3.01758V12H14.9824V0Z" fill="#D80027"/>
<path d="M6.62728 9.04634L6.355 8.60845L5.85254 8.73196L6.18657 8.33617L5.91429 7.89827L6.39429 8.09196L6.72552 7.69617L6.68903 8.21266L7.16903 8.40634L6.66657 8.52985L6.62728 9.04634Z" fill="#FFDA44"/>
<path d="M8.41794 4.63374L8.13443 5.06602L8.46005 5.46743L7.96321 5.33269L7.6797 5.76778L7.65163 5.25129L7.15479 5.11655L7.63759 4.93129L7.60952 4.41479L7.93514 4.8162L8.41794 4.63374Z" fill="#FFDA44"/>
<path d="M6.89104 3.04492L6.8349 3.55861L7.30648 3.77194L6.80122 3.87861L6.74508 4.39229L6.48683 3.94317L5.98438 4.04983L6.32964 3.66527L6.07139 3.21896L6.54297 3.42948L6.89104 3.04492Z" fill="#FFDA44"/>
<path d="M8.47994 6.87368L8.06169 7.17964L8.2245 7.67087L7.80625 7.36771L7.38801 7.67648L7.5452 7.18245L7.12695 6.8821L7.64344 6.87929L7.80064 6.38525L7.96344 6.87648L8.47994 6.87368Z" fill="#FFDA44"/>
<path d="M3.48882 3.63159L3.97443 5.13335H5.55197L4.27759 6.05685L4.7632 7.55861L3.48882 6.63229L2.21162 7.55861L2.70004 6.05685L1.42285 5.13335H3.0032L3.48882 3.63159Z" fill="#FFDA44"/>
<circle cx="6" cy="6" r="6" stroke="#E1DED7"/>
</g>
</g>
<defs>
<clipPath id="clip0_14_1610">
<rect width="12" height="12" rx="1.12281" fill="white"/>
</clipPath>
</defs>
</svg>
