<svg width="12" height="12" viewBox="0 0 12 12" fill="none" xmlns="http://www.w3.org/2000/svg">
<mask id="mask0_93_7056" style="mask-type:alpha" maskUnits="userSpaceOnUse" x="0" y="0" width="12" height="12">
<circle cx="6" cy="6" r="6" fill="#D9D9D9"/>
</mask>
<g mask="url(#mask0_93_7056)">
<g clip-path="url(#clip0_93_7056)">
<path d="M15 0H-3V12.0001H15V0Z" fill="black"/>
<path d="M-3 -0.00012207H15V11.9998" fill="#A2001D"/>
<path d="M4.89786 8.19678L4.98544 8.46644H5.26896L5.0396 8.63307L5.12722 8.90266L4.89786 8.73606L4.66851 8.90266L4.75609 8.63307L4.52673 8.46644H4.81022L4.89786 8.19678Z" fill="white"/>
<path d="M4.17391 5.60864L4.31994 6.05803H4.79244L4.41015 6.33571L4.55617 6.7851L4.17391 6.50735L3.79166 6.7851L3.93771 6.33571L3.55542 6.05803H4.02792L4.17391 5.60864Z" fill="white"/>
<path d="M4.17391 8.90271L4.31991 9.35213H4.79244L4.41012 9.62981L4.55617 10.0792L4.17391 9.80149L3.79166 10.0792L3.93765 9.62981L3.55542 9.35213H4.02786L4.17391 8.90271Z" fill="white"/>
<path d="M5.55523 6.78503L5.70128 7.23442H6.17379L5.7915 7.51213L5.93752 7.96152L5.55523 7.68378L5.173 7.96152L5.31906 7.51213L4.93677 7.23442H5.40927L5.55523 6.78503Z" fill="white"/>
<path d="M2.79232 6.78503L2.93838 7.23442H3.41082L3.02859 7.51213L3.17455 7.96152L2.79232 7.68378L2.41006 7.96152L2.55609 7.51213L2.17383 7.23442H2.6463L2.79232 6.78503Z" fill="white"/>
<path d="M9.59886 4.28972C9.3642 4.05506 9.05934 3.91648 8.73169 3.89264L9.7124 3.12988C9.32178 2.73926 8.79832 2.56289 8.28751 2.60021C8.22635 2.38041 8.10976 2.17286 7.93694 2L7.54954 2.77479C7.52413 2.72846 7.49196 2.68487 7.4527 2.64568C7.22983 2.4228 6.86849 2.42283 6.64568 2.64568C6.42286 2.86852 6.4228 3.22986 6.64568 3.4527C6.68493 3.49196 6.72849 3.52413 6.77479 3.54954L6 3.93694C6.17289 4.10982 6.38056 4.22647 6.60046 4.2876C6.56302 4.79844 6.73923 5.32181 7.12985 5.71243L7.98671 4.61079C8.05119 4.5473 8.13628 4.51229 8.22687 4.51229C8.31833 4.51229 8.40431 4.54791 8.46898 4.61258C8.53367 4.67727 8.56926 4.76322 8.56926 4.85468C8.56926 4.94616 8.53364 5.03212 8.46898 5.09678L8.7918 5.4196C8.94269 5.26871 9.02581 5.06805 9.02581 4.85468C9.02581 4.6801 8.97013 4.5141 8.86729 4.37681C9.01713 4.4168 9.15873 4.49522 9.27606 4.61251C9.63208 4.9685 9.63208 5.54779 9.27606 5.90377L9.59889 6.2266C9.85757 5.96791 10 5.62396 10 5.25816C9.99997 4.89233 9.85751 4.5484 9.59886 4.28972Z" fill="#FFDA44"/>
</g>
<circle cx="6" cy="6" r="6" stroke="#E1DED7"/>
</g>
<defs>
<clipPath id="clip0_93_7056">
<rect width="18" height="12" fill="white" transform="translate(-3)"/>
</clipPath>
</defs>
</svg>
