<svg width="12" height="12" viewBox="0 0 12 12" fill="none" xmlns="http://www.w3.org/2000/svg">
<mask id="mask0_93_6925" style="mask-type:alpha" maskUnits="userSpaceOnUse" x="0" y="0" width="12" height="12">
<circle cx="6" cy="6" r="6" fill="#D9D9D9"/>
</mask>
<g mask="url(#mask0_93_6925)">
<g clip-path="url(#clip0_93_6925)">
<path d="M15 0H-3V12H15V0Z" fill="#D80027"/>
<path d="M4.57544 5.98943L-3 11.0386V0.940308L4.57544 5.98943Z" fill="#47A644"/>
<path d="M15 0.940308V11.0386L7.42456 5.98943L15 0.940308Z" fill="#47A644"/>
<path d="M15 0.940351L7.38947 5.98947L15 11.0386V12H13.5579L5.98246 6.92632L-1.59298 12H-3V11.0386L4.57544 5.98947L-3 0.940351V0H-1.59298L5.98246 5.04912L13.5579 0H15V0.940351Z" fill="#0052B4"/>
<path d="M15 0.940351L7.42456 5.98947L15 11.0386V12H13.5965L5.98246 6.92632L-1.63158 12H-3V11.0386L4.57544 5.98947L-3 0.940351V0H-1.59298L5.98246 5.04912L13.5579 0H15V0.940351Z" fill="white"/>
<path d="M5.82805 9.50521C7.76976 9.50521 9.34383 7.93114 9.34383 5.98942C9.34383 4.04771 7.76976 2.47363 5.82805 2.47363C3.88633 2.47363 2.31226 4.04771 2.31226 5.98942C2.31226 7.93114 3.88633 9.50521 5.82805 9.50521Z" fill="white"/>
<path d="M5.821 3.63513L6.08065 4.08776H6.59995L6.3403 4.53689L6.59995 4.98601H6.08065L5.821 5.43864L5.56135 4.98601H5.04205L5.3017 4.53689L5.04205 4.08776H5.56135L5.821 3.63513Z" fill="#D80027" stroke="#47A644" stroke-width="0.105263"/>
<path d="M7.18242 5.97546L7.44207 6.4281H7.96137L7.70172 6.87722L7.96137 7.32634H7.44207L7.18242 7.77897L6.92277 7.32634H6.39996L6.65961 6.87722L6.39996 6.4281H6.92277L7.18242 5.97546Z" fill="#D80027" stroke="#47A644" stroke-width="0.105263"/>
<path d="M4.47365 5.97546L4.7333 6.4281H5.25611L4.99646 6.87722L5.25611 7.32634H4.7333L4.47365 7.77897L4.214 7.32634H3.6947L3.95435 6.87722L3.6947 6.4281H4.214L4.47365 5.97546Z" fill="#D80027" stroke="#47A644" stroke-width="0.105263"/>
</g>
<circle cx="6" cy="6" r="6" stroke="#E1DED7"/>
</g>
<defs>
<clipPath id="clip0_93_6925">
<rect width="18" height="12" fill="white" transform="translate(-3)"/>
</clipPath>
</defs>
</svg>
