<svg width="12" height="12" viewBox="0 0 12 12" fill="none" xmlns="http://www.w3.org/2000/svg">
<mask id="mask0_93_7537" style="mask-type:alpha" maskUnits="userSpaceOnUse" x="0" y="0" width="12" height="12">
<circle cx="6" cy="6" r="6" fill="#D9D9D9"/>
</mask>
<g mask="url(#mask0_93_7537)">
<g clip-path="url(#clip0_93_7537)">
<path d="M15 0H-3V12H15V0Z" fill="#006233"/>
<path d="M15 0H-3V2H15V0Z" fill="#CD2A3E"/>
<path d="M15 10H-3V12H15V10Z" fill="#CD2A3E"/>
<path d="M5.98251 7.5103C4.88831 7.5103 3.97421 6.74129 3.74994 5.71436C3.71547 5.87221 3.69678 6.03595 3.69678 6.20417C3.69678 7.46656 4.7201 8.4899 5.98251 8.4899C7.24493 8.4899 8.26824 7.46656 8.26824 6.20417C8.26824 6.03593 8.24955 5.87221 8.21508 5.71436C7.99081 6.74129 7.07671 7.5103 5.98251 7.5103Z" fill="#FFC400"/>
<path d="M5.98252 4L6.19526 4.65481H6.88379L6.32679 5.05948L6.53955 5.71432L5.98252 5.30961L5.42552 5.71432L5.6383 5.05948L5.0813 4.65481H5.76976L5.98252 4Z" fill="#FFC400"/>
</g>
<circle cx="6" cy="6" r="6" stroke="#E1DED7"/>
</g>
<defs>
<clipPath id="clip0_93_7537">
<rect width="18" height="12" fill="white" transform="translate(-3)"/>
</clipPath>
</defs>
</svg>
