<svg width="12" height="12" viewBox="0 0 12 12" fill="none" xmlns="http://www.w3.org/2000/svg">
<g clip-path="url(#clip0_14_1512)">
<mask id="mask0_14_1512" style="mask-type:alpha" maskUnits="userSpaceOnUse" x="0" y="0" width="12" height="12">
<circle cx="6" cy="6" r="6" fill="#D9D9D9"/>
</mask>
<g mask="url(#mask0_14_1512)">
<path d="M-3.01758 0H14.9824V12H-3.01758V0Z" fill="white"/>
<path d="M-3.01758 0H14.9824V3.2H-3.01758V0ZM-3.01758 8.8H14.9824V12H-3.01758V8.8Z" fill="#D03433"/>
<path d="M-3.01758 3.2H14.9824V8.8H-3.01758V3.2Z" fill="#FBCA46"/>
<path d="M3.22242 5.6H4.02242V6H3.22242V5.6Z" fill="white"/>
<path d="M2.74242 6.8C2.74242 7.04 2.98242 7.2 3.22242 7.2C3.46242 7.2 3.70242 7.04 3.70242 6.8L3.78242 5.6H2.66242L2.74242 6.8ZM2.26242 5.6C2.26242 5.36 2.42242 5.2 2.58242 5.2H3.78242C4.02242 5.2 4.18242 5.36 4.18242 5.52C4.18242 5.6 4.18242 5.6 4.18242 5.6L4.10242 6.8C4.02242 7.28 3.70242 7.6 3.22242 7.6C2.74242 7.6 2.42242 7.28 2.34242 6.8L2.26242 5.6Z" fill="#A41517"/>
<path d="M2.42242 6H4.02242L4.02242 6.4H3.62242L3.22242 7.2L2.82242 6.4H2.42242V6ZM1.22242 4.8H2.02242V7.6H1.22242V4.8ZM4.42242 4.8H5.22242V7.6H4.42242V4.8ZM2.42242 4.4C2.42242 4.16 2.58242 4 2.82242 4H3.62242C3.86242 4 4.02242 4.16 4.02242 4.4V4.56C4.02242 4.72 3.94242 4.8 3.78242 4.8H2.58242C2.50242 4.8 2.42242 4.72 2.42242 4.64V4.4Z" fill="#A41517"/>
<circle cx="6" cy="6" r="6" stroke="#E1DED7"/>
</g>
</g>
<defs>
<clipPath id="clip0_14_1512">
<rect width="12" height="12" rx="1.12281" fill="white"/>
</clipPath>
</defs>
</svg>
