<svg width="12" height="12" viewBox="0 0 12 12" fill="none" xmlns="http://www.w3.org/2000/svg">
<rect x="0.25" y="0.25" width="11.5" height="11.5" rx="5.75" stroke="#E1DED7" stroke-width="0.5"/>
<g clip-path="url(#clip0_186_2332)">
<path d="M11 2.66663H1V9.33329H11V2.66663Z" fill="white"/>
<path d="M4.06647 6.56055C4.06647 6.56055 3.89025 7.41688 3.69006 7.34788C3.48304 7.27887 3.34834 6.98218 3.34834 6.98218L3.0653 7.39622C3.0653 7.39622 3.80955 7.56152 3.86472 7.50285C3.8885 7.48063 4.02476 7.2085 4.06628 6.99505V6.56055H4.06647ZM2.97232 7.74125C2.97232 7.74125 2.92398 8.13462 2.95166 8.18296C2.97583 8.2278 3.72125 8.40382 3.72125 8.40382C3.72125 8.40382 3.2347 8.72468 3.14152 8.80421L2.78948 8.22098L2.77563 7.74125H2.97232Z" fill="#E6BC00"/>
<path d="M3.19318 4.51147C3.19318 4.51147 3.96608 5.32239 3.97992 5.39841C3.99376 5.47093 3.89708 5.4606 3.89708 5.4606C3.89708 5.4606 3.02398 4.72902 2.92398 4.66001C2.82047 4.59081 3.19318 4.51147 3.19318 4.51147Z" fill="#E6BC00"/>
<path d="M2.93782 4.70805C2.93782 4.70805 3.26901 4.69421 3.26218 4.48369C3.25536 4.27667 3.04483 4.19382 2.88947 4.24216C2.73411 4.287 2.44094 4.50435 2.62378 4.9254C2.80663 5.34294 3.07934 5.4983 3.1345 5.85717C3.1345 5.85717 3.02807 6.04938 2.76179 5.864C2.43236 5.63456 2.64094 5.11858 2.55829 4.98758C2.47544 4.84957 1.76004 4.22891 1.76004 4.22891C1.76004 4.22891 1.17057 4.99636 1.40916 5.68934C1.73957 6.6486 2.41774 6.31273 2.66862 6.40591C2.66862 6.40591 1.84737 7.61371 1.70234 7.71371C1.70234 7.71371 2.17174 7.87589 2.63411 7.34801C2.63411 7.34801 2.74795 7.53788 2.77213 7.74138H2.97232C3.0655 7.23066 3.97641 6.48875 3.94542 6.13671C3.91092 5.72248 2.98616 5.17394 2.93782 4.70805Z" fill="#ADADAD"/>
<path d="M8.00136 6.59009C8.00136 6.59009 8.17602 7.41718 8.37622 7.34818C8.58324 7.27917 8.71793 6.98249 8.71793 6.98249L9.00097 7.39652C9.00097 7.39652 8.27973 7.56182 8.22456 7.50315C8.20097 7.48093 8.04288 7.23434 8 7.02245L8.00136 6.59009ZM9.09396 7.74135C9.09396 7.74135 9.1423 8.13473 9.11462 8.18307C9.09045 8.2279 8.34503 8.40393 8.34503 8.40393C8.34503 8.40393 8.83158 8.72479 8.92476 8.80432L9.2768 8.22108L9.29064 7.74135H9.09396Z" fill="#E6BC00"/>
<path d="M8.8731 4.51147C8.8731 4.51147 8.10019 5.32239 8.08635 5.39841C8.07251 5.47093 8.1692 5.4606 8.1692 5.4606C8.1692 5.4606 9.0423 4.72902 9.1423 4.66001C9.2425 4.59081 8.8731 4.51147 8.8731 4.51147Z" fill="#E6BC00"/>
<path d="M4.06647 4.36377H8V7.19925C8 7.51231 7.81111 7.61621 7.5729 7.8201L6.67777 8.58833C6.32202 8.89281 5.74386 8.89184 5.38986 8.58833L4.49298 7.81971C4.2575 7.61796 4.06647 7.51348 4.06647 7.19944V4.36377Z" fill="#125ECC"/>
<path d="M4.90935 5.54605C4.75419 5.54605 4.62846 5.42032 4.62846 5.26516C4.62846 5.10999 4.75419 4.98426 4.90935 4.98426C5.06452 4.98426 5.19025 5.10999 5.19025 5.26516C5.19025 5.42032 5.06452 5.54605 4.90935 5.54605ZM6.03313 5.48757C5.87797 5.48757 5.75224 5.36184 5.75224 5.20668C5.75224 5.05151 5.87797 4.92578 6.03313 4.92578C6.1883 4.92578 6.31403 5.05151 6.31403 5.20668C6.31403 5.36184 6.1883 5.48757 6.03313 5.48757ZM7.15692 5.54605C7.00175 5.54605 6.87602 5.42032 6.87602 5.26516C6.87602 5.10999 7.00175 4.98426 7.15692 4.98426C7.31208 4.98426 7.43781 5.10999 7.43781 5.26516C7.43781 5.42032 7.31208 5.54605 7.15692 5.54605ZM5.19025 8.01623C5.03508 8.01623 4.90935 7.8905 4.90935 7.73533C4.90935 7.58017 5.03508 7.45444 5.19025 7.45444C5.34542 7.45444 5.47115 7.58017 5.47115 7.73533C5.47134 7.8905 5.34542 8.01623 5.19025 8.01623ZM6.03313 8.29732C5.87797 8.29732 5.75224 8.17159 5.75224 8.01642C5.75224 7.86126 5.87797 7.73553 6.03313 7.73553C6.1883 7.73553 6.31403 7.86126 6.31403 8.01642C6.31403 8.1714 6.1883 8.29732 6.03313 8.29732ZM6.87602 8.01623C6.72085 8.01623 6.59512 7.8905 6.59512 7.73533C6.59512 7.58017 6.72085 7.45444 6.87602 7.45444C7.03118 7.45444 7.15692 7.58017 7.15692 7.73533C7.15692 7.8905 7.03118 8.01623 6.87602 8.01623Z" fill="#FFE600"/>
<path d="M4.06647 6.08496H8V7.20874H4.06647V6.08496Z" fill="#D60537"/>
<path d="M3.78558 3.52089C3.78558 3.52089 4.90936 3.23999 6.03333 3.23999C7.15731 3.23999 8.28109 3.52089 8.28109 3.52089L8.0002 4.64467C8.0002 4.64467 7.01677 4.36377 6.03353 4.36377C5.05029 4.36377 4.06686 4.64467 4.06686 4.64467L3.78558 3.52089Z" fill="#EACE00"/>
<path d="M6.03313 4.08279C5.87797 4.08279 5.75224 3.95706 5.75224 3.80189C5.75224 3.64673 5.87797 3.521 6.03313 3.521C6.1883 3.521 6.31403 3.64673 6.31403 3.80189C6.31403 3.95706 6.1883 4.08279 6.03313 4.08279ZM7.15692 4.18026C7.00175 4.18026 6.87602 4.05452 6.87602 3.89936C6.87602 3.74419 7.00175 3.61846 7.15692 3.61846C7.31208 3.61846 7.43781 3.74419 7.43781 3.89936C7.43781 4.05452 7.31208 4.18026 7.15692 4.18026ZM4.90935 4.18026C4.75419 4.18026 4.62846 4.05452 4.62846 3.89936C4.62846 3.74419 4.75419 3.61846 4.90935 3.61846C5.06452 3.61846 5.19025 3.74419 5.19025 3.89936C5.19025 4.05452 5.06452 4.18026 4.90935 4.18026Z" fill="#7A6920"/>
<path d="M8.11657 6.13671C8.08558 6.48875 8.99649 7.23066 9.08967 7.74138H9.28987C9.31404 7.53788 9.42788 7.34801 9.42788 7.34801C9.89026 7.87608 10.3597 7.71371 10.3597 7.71371C10.2146 7.61371 9.39337 6.40591 9.39337 6.40591C9.64445 6.31273 10.3226 6.6486 10.6528 5.68934C10.8914 4.99636 10.302 4.22891 10.302 4.22891C10.302 4.22891 9.58655 4.84957 9.50371 4.98758C9.42086 5.11877 9.62963 5.63476 9.3002 5.864C9.03392 6.04938 8.92749 5.85717 8.92749 5.85717C8.98265 5.4983 9.25536 5.34294 9.43821 4.9254C9.62106 4.50435 9.32788 4.287 9.17252 4.24216C9.01716 4.19382 8.80683 4.27667 8.79981 4.48369C8.79299 4.69421 9.12417 4.70805 9.12417 4.70805C9.07583 5.17394 8.15107 5.72248 8.11657 6.13671Z" fill="#ADADAD"/>
<path d="M6.03314 6.97693C6.21541 6.97693 6.36316 6.82918 6.36316 6.64691C6.36316 6.46465 6.21541 6.31689 6.03314 6.31689C5.85088 6.31689 5.70312 6.46465 5.70312 6.64691C5.70312 6.82918 5.85088 6.97693 6.03314 6.97693Z" fill="white"/>
</g>
<defs>
<clipPath id="clip0_186_2332">
<rect width="10" height="6.66667" fill="white" transform="translate(1 2.66663)"/>
</clipPath>
</defs>
</svg>
