<svg width="12" height="12" viewBox="0 0 12 12" fill="none" xmlns="http://www.w3.org/2000/svg">
<mask id="mask0_91_6508" style="mask-type:alpha" maskUnits="userSpaceOnUse" x="0" y="0" width="12" height="12">
<circle cx="6" cy="6" r="6" fill="#D9D9D9"/>
</mask>
<g mask="url(#mask0_91_6508)">
<g clip-path="url(#clip0_91_6508)">
<path d="M12 -0.00012207H-6V12H12V-0.00012207Z" fill="#496E2D"/>
<path d="M11.5 3.5625H9.8125C9.8125 3.25186 9.56064 3 9.25 3C8.93936 3 8.6875 3.25186 8.6875 3.5625H7C7 3.87314 7.2706 4.125 7.58124 4.125H7.5625C7.5625 4.43564 7.81429 4.6875 8.125 4.6875C8.125 4.99814 8.37679 5.25 8.6875 5.25H9.8125C10.1231 5.25 10.375 4.99814 10.375 4.6875C10.6856 4.6875 10.9375 4.43564 10.9375 4.125H10.9188C11.2294 4.125 11.5 3.87314 11.5 3.5625Z" fill="#FF9811"/>
<path d="M8.00021 5.99976H6.00024V11.9996H8.00021V5.99976Z" fill="#D80027"/>
<path d="M12 5.99976H10V11.9996H12V5.99976Z" fill="#FF9811"/>
<path d="M9.99997 5.99976H8V11.9996H9.99997V5.99976Z" fill="black"/>
</g>
<circle cx="6" cy="6" r="6" stroke="#E1DED7"/>
</g>
<defs>
<clipPath id="clip0_91_6508">
<rect width="18" height="12" fill="white" transform="translate(-6)"/>
</clipPath>
</defs>
</svg>
