<svg width="12" height="12" viewBox="0 0 12 12" fill="none" xmlns="http://www.w3.org/2000/svg">
<g clip-path="url(#clip0_19_4106)">
<mask id="mask0_19_4106" style="mask-type:alpha" maskUnits="userSpaceOnUse" x="0" y="0" width="12" height="12">
<circle cx="6" cy="6" r="6" fill="#D9D9D9"/>
</mask>
<g mask="url(#mask0_19_4106)">
<path d="M14.9824 0H-3.01758V12H14.9824V0Z" fill="white"/>
<path d="M14.9824 0H-3.01758V4H14.9824V0Z" fill="#338AF3"/>
<path d="M14.9824 8H-3.01758V12H14.9824V8Z" fill="#338AF3"/>
<path d="M4.12265 4.13684L4.35774 4.7193L4.97528 4.75438L4.48405 5.13684L4.64897 5.75789L4.12265 5.41052L3.59634 5.75789L3.76125 5.13684L3.27002 4.75438L3.88756 4.7193L4.12265 4.13684Z" fill="#338AF3"/>
<path d="M7.80722 4.13684L8.04231 4.7193L8.65985 4.75438L8.16862 5.13684L8.33354 5.75789L7.80722 5.41052L7.28091 5.75789L7.44582 5.13684L6.95459 4.75438L7.57213 4.7193L7.80722 4.13684Z" fill="#338AF3"/>
<path d="M5.96494 5.17896L6.20002 5.76141L6.81757 5.7965L6.32634 6.17896L6.49125 6.80001L5.96494 6.45264L5.43862 6.80001L5.60353 6.17896L5.1123 5.7965L5.72985 5.76141L5.96494 5.17896Z" fill="#338AF3"/>
<path d="M4.12265 6.22107L4.35774 6.80353L4.97528 6.83861L4.48405 7.22107L4.64897 7.83861L4.12265 7.49124L3.59634 7.83861L3.76125 7.22107L3.27002 6.83861L3.88756 6.80353L4.12265 6.22107Z" fill="#338AF3"/>
<path d="M7.80722 6.22107L8.04231 6.80353L8.65985 6.83861L8.16862 7.22107L8.33354 7.83861L7.80722 7.49124L7.28091 7.83861L7.44582 7.22107L6.95459 6.83861L7.57213 6.80353L7.80722 6.22107Z" fill="#338AF3"/>
<circle cx="6" cy="6" r="6" stroke="#E1DED7"/>
</g>
</g>
<defs>
<clipPath id="clip0_19_4106">
<rect width="12" height="12" rx="1.12281" fill="white"/>
</clipPath>
</defs>
</svg>
