<svg width="12" height="12" viewBox="0 0 12 12" fill="none" xmlns="http://www.w3.org/2000/svg">
<mask id="mask0_85_4460" style="mask-type:alpha" maskUnits="userSpaceOnUse" x="0" y="0" width="12" height="12">
<circle cx="6" cy="6" r="6" fill="#D9D9D9"/>
</mask>
<g mask="url(#mask0_85_4460)">
<g clip-path="url(#clip0_85_4460)">
<path d="M15 0H-3V12H15V0Z" fill="#D21034"/>
<path d="M4.42105 6H-3V8.99298H4.42105V6Z" fill="#3A9927"/>
<path d="M14.9649 6H7.54385V8.99298H14.9649V6Z" fill="#3A9927"/>
<path d="M-3 0V2.99298H4.42105V0H7.54386V2.99298H15V0H-3Z" fill="#003082"/>
<path d="M14.9649 2.99304H7.54385V5.98602H14.9649V2.99304Z" fill="white"/>
<path d="M4.42105 2.99304H-3V5.98602H4.42105V2.99304Z" fill="white"/>
<path d="M7.54386 12H4.42105V8.98242H-3V12H15V8.98242H7.54386V12Z" fill="#FFCE00"/>
<path d="M0.708775 0.301758L1.01053 1.22106H1.97544L1.19299 1.78948L1.49474 2.70878L0.708775 2.14035L-0.0736812 2.70878L0.224564 1.78948L-0.557892 1.22106H0.410529L0.708775 0.301758Z" fill="#FFCE00"/>
</g>
<circle cx="6" cy="6" r="6" stroke="#E1DED7"/>
</g>
<defs>
<clipPath id="clip0_85_4460">
<rect width="18" height="12" fill="white" transform="translate(-3)"/>
</clipPath>
</defs>
</svg>
