<svg width="12" height="12" viewBox="0 0 12 12" fill="none" xmlns="http://www.w3.org/2000/svg">
<mask id="mask0_109_9703" style="mask-type:alpha" maskUnits="userSpaceOnUse" x="0" y="0" width="12" height="12">
<circle cx="6" cy="6" r="6" fill="#D9D9D9"/>
</mask>
<g mask="url(#mask0_109_9703)">
<g clip-path="url(#clip0_109_9703)">
<path d="M17 0.00012207H-1V11.9999H17V0.00012207Z" fill="black"/>
<path d="M17 6V11.9999H-1L6.5651 6H17Z" fill="#6DA544"/>
<path d="M17 0.00012207V6H6.5651L-1 0.00012207H17Z" fill="#D80027"/>
<path d="M6.76953 5.41303L-0.0554613 0.00012207H-0.685181L6.63323 5.80435H17V5.41303H6.76953Z" fill="black"/>
<path d="M-0.685181 11.9999H-0.0554613L6.76953 6.587H17V6.19568H6.63323L-0.685181 11.9999Z" fill="black"/>
<path d="M-1 0.249878V0.749308L5.62053 6.00004L-1 11.2508V11.7502L6.25025 6.00004L-1 0.249878Z" fill="black"/>
<path d="M-0.68514 0.00012207H-1V0.249837L6.25025 6L-1 11.7501V11.9999H-0.68514L6.63327 6.19564H17V5.80435H6.63327L-0.68514 0.00012207Z" fill="#FFDA44"/>
<path d="M2.24008 7.27902V6.77646C2.74159 6.77646 3.14957 6.36844 3.14957 5.86701C3.14957 5.51221 2.86091 5.22354 2.50607 5.22354C2.26437 5.22354 2.06771 5.42017 2.06771 5.66191C2.06771 5.81649 2.19346 5.94224 2.34805 5.94224C2.43541 5.94224 2.50653 5.87112 2.50653 5.78376H3.00909C3.00909 6.14826 2.71255 6.44484 2.34808 6.44484C1.9164 6.44476 1.56519 6.09352 1.56519 5.66187C1.56519 5.14303 1.98727 4.72095 2.50611 4.72095C3.13804 4.72095 3.65217 5.23504 3.65217 5.86701C3.65217 6.64554 3.01872 7.27902 2.24008 7.27902Z" fill="#FFDA44"/>
</g>
<circle cx="6" cy="6" r="6" stroke="#E1DED7"/>
</g>
<defs>
<clipPath id="clip0_109_9703">
<rect width="18" height="12" fill="white" transform="translate(-1)"/>
</clipPath>
</defs>
</svg>
