<svg width="12" height="12" viewBox="0 0 12 12" fill="none" xmlns="http://www.w3.org/2000/svg">
<mask id="mask0_91_5739" style="mask-type:alpha" maskUnits="userSpaceOnUse" x="0" y="0" width="12" height="12">
<circle cx="6" cy="6" r="6" fill="#D9D9D9"/>
</mask>
<g mask="url(#mask0_91_5739)">
<g clip-path="url(#clip0_91_5739)">
<path d="M15 0H-3V12H15V0Z" fill="white"/>
<path d="M14.9649 0H-3V3.17821H14.9649V0Z" fill="black"/>
<path d="M15 8.80701H-3V12H15V8.80701Z" fill="#496E2D"/>
<path d="M15 4H-3V8H15V4Z" fill="#A2001D"/>
<path d="M8.34384 1.91233L7.44559 1.49829L5.98244 4.80706L4.51928 1.49829L3.62103 1.91233L5.43858 5.98952L3.62103 10.0667L4.51928 10.4807L5.98244 7.16847L7.44559 10.4807L8.34384 10.0667L6.5263 5.98952L8.34384 1.91233Z" fill="white"/>
<path d="M6.59294 2.30181C6.24557 1.92287 5.98241 1.70532 5.98241 1.70532C5.98241 1.70532 5.71926 1.92287 5.37189 2.30181V9.67374C5.71926 10.0527 5.98241 10.2702 5.98241 10.2702C5.98241 10.2702 6.24557 10.0527 6.59294 9.67374V2.30181Z" fill="white"/>
<path d="M4.33331 3.7158V8.25966C4.70173 8.90878 5.15086 9.44211 5.4877 9.7965V2.17896C5.15086 2.53334 4.70173 3.06667 4.33331 3.7158Z" fill="#A2001D"/>
<path d="M7.63156 3.7158C7.26314 3.06667 6.81401 2.53334 6.47717 2.17896V9.80001C6.81401 9.44562 7.26314 8.91229 7.63156 8.26317V3.7158Z" fill="#A2001D"/>
<path d="M7.63159 3.71582V8.25968C8.00352 7.60003 8.29124 6.82108 8.29124 5.986C8.29124 5.15091 8.00352 4.37547 7.63159 3.71582Z" fill="black"/>
<path d="M4.33336 3.71582V8.25968C3.96143 7.60003 3.67371 6.82108 3.67371 5.986C3.67371 5.15091 3.96143 4.37547 4.33336 3.71582Z" fill="black"/>
</g>
<circle cx="6" cy="6" r="6" stroke="#E1DED7"/>
</g>
<defs>
<clipPath id="clip0_91_5739">
<rect width="18" height="12" fill="white" transform="translate(-3)"/>
</clipPath>
</defs>
</svg>
