<svg width="14" height="16" viewBox="0 0 14 16" fill="black" xmlns="http://www.w3.org/2000/svg">
  <path
    d="M6.16602 0.5C7.08634 0.500176 7.83203 1.24663 7.83203 2.16699H12.3174C13.5563 2.16711 14.3627 3.47098 13.8086 4.5791L12.9307 6.33301L13.8086 8.08789C14.3625 9.19597 13.5562 10.4999 12.3174 10.5H7.83203C6.91171 10.4998 6.16602 9.75337 6.16602 8.83301H1.99902V14.667C1.99885 15.127 1.62599 15.4998 1.16602 15.5C0.705887 15.5 0.332207 15.1271 0.332031 14.667V2.16699C0.332031 2.13808 0.33404 2.10921 0.336914 2.08105C0.381538 1.20042 1.1073 0.500001 1.99902 0.5H6.16602ZM1.99902 7.16699H6.16602C7.08623 7.16717 7.83186 7.91279 7.83203 8.83301H12.3174L11.4404 7.0791C11.2058 6.60989 11.2058 6.0571 11.4404 5.58789L12.3174 3.83301H7.83203C6.9692 3.83284 6.26009 3.17729 6.1748 2.33691L6.16602 2.16699H1.99902V7.16699Z" />
</svg>