<svg width="12" height="12" viewBox="0 0 12 12" fill="none" xmlns="http://www.w3.org/2000/svg">
<g clip-path="url(#clip0_14_1595)">
<mask id="mask0_14_1595" style="mask-type:alpha" maskUnits="userSpaceOnUse" x="0" y="0" width="12" height="12">
<circle cx="6" cy="6" r="6" fill="#D9D9D9"/>
</mask>
<g mask="url(#mask0_14_1595)">
<path d="M14.9824 0H-3.01758V12H14.9824V0Z" fill="white"/>
<path d="M1.19727 4.25232L2.52855 2.2554ZM1.6965 4.58514L3.02778 2.58822ZM2.19573 4.91796L3.52701 2.92104Z" fill="black"/>
<path d="M1.19727 4.25232L2.52855 2.2554M1.6965 4.58514L3.02778 2.58822M2.19573 4.91796L3.52701 2.92104" stroke="black" stroke-width="0.4"/>
<path d="M8.51953 9.13367L9.85081 7.13675ZM9.01876 9.46649L10.35 7.46957ZM9.51799 9.79931L10.8493 7.80239Z" fill="black"/>
<path d="M8.51953 9.13367L9.85081 7.13675M9.01876 9.46649L10.35 7.46957M9.51799 9.79931L10.8493 7.80239" stroke="black" stroke-width="0.4"/>
<path d="M8.85205 7.91333L10.5162 9.02273Z" fill="black"/>
<path d="M8.85205 7.91333L10.5162 9.02273" stroke="white" stroke-width="0.2"/>
<path d="M8.02043 7.35863C8.75568 6.25576 8.45766 4.76568 7.35479 4.03043C6.25193 3.29519 4.76184 3.5932 4.02659 4.69607C3.29135 5.79894 3.58936 7.28903 4.69223 8.02427C5.7951 8.75952 7.28519 8.4615 8.02043 7.35863Z" fill="#CA163A"/>
<path d="M4.02659 4.69607C3.65916 5.24722 3.80826 5.99274 4.35941 6.36017C4.91056 6.72761 5.65608 6.5785 6.02351 6.02735C6.39095 5.4762 7.13646 5.3271 7.68761 5.69453C8.23876 6.06197 8.38787 6.80748 8.02043 7.35863C7.28557 8.46093 5.79453 8.75914 4.69223 8.02427C3.58993 7.28941 3.29173 5.79837 4.02659 4.69607Z" fill="#0E4896"/>
<path d="M2.52881 9.79919L1.19753 7.80227ZM3.02804 9.46637L1.69676 7.46945ZM3.52727 9.13355L2.19599 7.13663Z" fill="black"/>
<path d="M2.52881 9.79919L1.19753 7.80227M3.02804 9.46637L1.69676 7.46945M3.52727 9.13355L2.19599 7.13663" stroke="black" stroke-width="0.4"/>
<path d="M9.85107 4.91785L8.51979 2.92093ZM10.3503 4.58503L9.01902 2.58811ZM10.8495 4.25221L9.51825 2.25529Z" fill="black"/>
<path d="M9.85107 4.91785L8.51979 2.92093M10.3503 4.58503L9.01902 2.58811M10.8495 4.25221L9.51825 2.25529" stroke="black" stroke-width="0.4"/>
<path d="M2.11328 8.63391L2.61251 8.30109ZM8.85222 4.14128L9.43532 3.75255ZM9.93455 3.41973L10.4338 3.08691Z" fill="black"/>
<path d="M2.11328 8.63391L2.61251 8.30109M8.85222 4.14128L9.43532 3.75255M9.93455 3.41973L10.4338 3.08691" stroke="white" stroke-width="0.2"/>
<circle cx="6" cy="6" r="6" stroke="#E1DED7"/>
</g>
</g>
<defs>
<clipPath id="clip0_14_1595">
<rect width="12" height="12" rx="1.12281" fill="white"/>
</clipPath>
</defs>
</svg>
