<svg width="12" height="12" viewBox="0 0 12 12" fill="none" xmlns="http://www.w3.org/2000/svg">
<mask id="mask0_93_6945" style="mask-type:alpha" maskUnits="userSpaceOnUse" x="0" y="0" width="12" height="12">
<circle cx="6" cy="6" r="6" fill="#D9D9D9"/>
</mask>
<g mask="url(#mask0_93_6945)">
<g clip-path="url(#clip0_93_6945)">
<path d="M15 0H-3V12H15V0Z" fill="#EF3340"/>
<path d="M15 0H-3V4H15V0Z" fill="#00B5E2"/>
<path d="M15 8H-3V12H15V8Z" fill="#509E2F"/>
<path d="M6.31932 7.45963C5.5123 7.45963 4.85967 6.807 4.85967 5.99998C4.85967 5.19296 5.5123 4.54033 6.31932 4.54033C6.57195 4.54033 6.80704 4.60349 7.01406 4.71577C6.69125 4.39998 6.24564 4.20349 5.75792 4.20349C4.76494 4.20349 3.96143 5.007 3.96143 5.99998C3.96143 6.99296 4.76494 7.79647 5.75792 7.79647C6.24564 7.79647 6.69125 7.59998 7.01406 7.28419C6.80704 7.39647 6.57195 7.45963 6.31932 7.45963Z" fill="white"/>
<path d="M7.44211 4.9895L7.63509 5.53336L8.1579 5.28424L7.90877 5.80705L8.45263 6.00003L7.90877 6.19301L8.1579 6.71582L7.63509 6.4667L7.44211 7.01055L7.24912 6.4667L6.72632 6.71582L6.97544 6.19301L6.43158 6.00003L6.97544 5.80705L6.72632 5.28424L7.24912 5.53336L7.44211 4.9895Z" fill="white"/>
</g>
<circle cx="6" cy="6" r="6" stroke="#E1DED7"/>
</g>
<defs>
<clipPath id="clip0_93_6945">
<rect width="18" height="12" fill="white" transform="translate(-3)"/>
</clipPath>
</defs>
</svg>
