<svg width="12" height="12" viewBox="0 0 12 12" fill="none" xmlns="http://www.w3.org/2000/svg">
<mask id="mask0_66_1013" style="mask-type:alpha" maskUnits="userSpaceOnUse" x="0" y="0" width="12" height="12">
<circle cx="6" cy="6" r="6" fill="#D9D9D9"/>
</mask>
<g mask="url(#mask0_66_1013)">
<g clip-path="url(#clip0_66_1013)">
<path d="M14.9825 0.0351562H-2.98245V12.0115H14.9825V0.0351562Z" fill="white"/>
<path d="M14.9825 3.94055H-2.98245V8.10606H14.9825V3.94055Z" fill="#0052B4"/>
<path d="M14.9825 8.10608H-2.98245V12.0115H14.9825V8.10608Z" fill="#D80027"/>
<path d="M1.5603 3.4198V6.40703C1.5603 8.10629 3.7802 8.62692 3.7802 8.62692C3.7802 8.62692 6.00002 8.10622 6.00002 6.40703V3.4198H1.5603Z" fill="white"/>
<path d="M2.14478 3.50732V6.38245C2.14478 6.57445 2.18741 6.75578 2.2719 6.92578C3.11014 6.92578 4.36309 6.92578 5.28839 6.92578C5.37288 6.75582 5.41551 6.57448 5.41551 6.38245V3.50732H2.14478Z" fill="#D80027"/>
<path d="M4.78247 5.51205H4.03072V5.0109H4.53191V4.50974H4.03072V4.00854H3.52956V4.50974H3.02844V5.0109H3.52956V5.51205H2.77777V6.01325H3.52956V6.5144H4.03072V6.01325H4.78247V5.51205Z" fill="white"/>
<path d="M2.95554 7.62537C3.27849 7.82828 3.61028 7.94618 3.78017 7.99857C3.95007 7.94615 4.28186 7.82832 4.60481 7.62537C4.93049 7.42071 5.15884 7.18657 5.28845 6.92576C5.14547 6.8246 4.97102 6.76495 4.78256 6.76495C4.71393 6.76495 4.64726 6.77309 4.58319 6.788C4.44737 6.47937 4.13905 6.26379 3.78024 6.26379C3.4214 6.26379 3.11312 6.47937 2.9773 6.788C2.91319 6.77309 2.84649 6.76495 2.77793 6.76495C2.58944 6.76495 2.41498 6.82464 2.27203 6.92576C2.40154 7.18657 2.62986 7.42071 2.95554 7.62537Z" fill="#0052B4"/>
</g>
<circle cx="6" cy="6" r="6" stroke="#E1DED7"/>
</g>
<defs>
<clipPath id="clip0_66_1013">
<rect width="17.9649" height="11.9766" fill="white" transform="translate(-2.98245 0.0350342)"/>
</clipPath>
</defs>
</svg>
