<svg width="12" height="12" viewBox="0 0 12 12" fill="none" xmlns="http://www.w3.org/2000/svg">
<mask id="mask0_93_7126" style="mask-type:alpha" maskUnits="userSpaceOnUse" x="0" y="0" width="12" height="12">
<circle cx="6" cy="6" r="6" fill="#D9D9D9"/>
</mask>
<g mask="url(#mask0_93_7126)">
<g clip-path="url(#clip0_93_7126)">
<path d="M15 0.00012207H-3V11.9999H15V0.00012207Z" fill="white"/>
<path d="M15 0.00012207H-3V4.00003H15V0.00012207Z" fill="#D80027"/>
<path d="M15 8H-3V11.9999H15V8Z" fill="#6DA544"/>
<path d="M4.95648 7.5652H7.0435V6.6782L6.62609 6.88693L5.99999 6.26086L5.37389 6.88693L4.95648 6.6782V7.5652Z" fill="#FFDA44"/>
<path d="M3.76248 6.52173L3.85962 6.8207H4.17392L3.91963 7.00544L4.01677 7.30434L3.76248 7.1196L3.50816 7.30434L3.6053 7.00544L3.35101 6.8207H3.66531L3.76248 6.52173Z" fill="#FFDA44"/>
<path d="M4.06363 5.47827L4.16077 5.77717H4.47506L4.22078 5.96192L4.31792 6.26089L4.06363 6.0761L3.80931 6.26089L3.90645 5.96192L3.65216 5.77717H3.96646L4.06363 5.47827Z" fill="#FFDA44"/>
<path d="M4.92453 4.69568L5.02167 4.99458H5.33596L5.08168 5.17932L5.17882 5.47829L4.92453 5.29351L4.67021 5.47829L4.76735 5.17932L4.51306 4.99458H4.82736L4.92453 4.69568Z" fill="#FFDA44"/>
<path d="M8.23754 6.52173L8.14041 6.8207H7.82611L8.0804 7.00544L7.98326 7.30434L8.23754 7.1196L8.49187 7.30434L8.39473 7.00544L8.64901 6.8207H8.33472L8.23754 6.52173Z" fill="#FFDA44"/>
<path d="M7.9364 5.47827L7.83926 5.77717H7.52496L7.77925 5.96192L7.68211 6.26089L7.9364 6.0761L8.19072 6.26089L8.09358 5.96192L8.34787 5.77717H8.03357L7.9364 5.47827Z" fill="#FFDA44"/>
<path d="M7.0755 4.69568L6.97836 4.99458H6.66406L6.91835 5.17932L6.82121 5.47829L7.0755 5.29351L7.32982 5.47829L7.23268 5.17932L7.48697 4.99458H7.17267L7.0755 4.69568Z" fill="#FFDA44"/>
<path d="M6.00003 4.30432L6.09717 4.60326H6.4115L6.15718 4.78804L6.25432 5.08694L6.00003 4.90222L5.74575 5.08694L5.84288 4.78804L5.58856 4.60326H5.90289L6.00003 4.30432Z" fill="#FFDA44"/>
</g>
<circle cx="6" cy="6" r="6" stroke="#E1DED7"/>
</g>
<defs>
<clipPath id="clip0_93_7126">
<rect width="18" height="12" fill="white" transform="translate(-3)"/>
</clipPath>
</defs>
</svg>
