<svg width="12" height="12" viewBox="0 0 12 12" fill="none" xmlns="http://www.w3.org/2000/svg">
<g clip-path="url(#clip0_14_1652)">
<mask id="mask0_14_1652" style="mask-type:alpha" maskUnits="userSpaceOnUse" x="0" y="0" width="12" height="12">
<circle cx="6.01766" cy="5.98251" r="5.98251" fill="#D9D9D9"/>
</mask>
<g mask="url(#mask0_14_1652)">
<path d="M12 0H0V11.965H12V0Z" fill="white"/>
<path d="M6.01766 5.98254C6.01766 5.98254 6.01766 8.97283 6.01766 11.9651H0.0351562V5.98254H2.02941C3.93627 5.98254 6.01766 5.98254 6.01766 5.98254Z" fill="#0052B4"/>
<path d="M12.0001 0V5.98251H10.0058C7.89141 5.98251 6.01758 5.98251 6.01758 5.98251C6.01758 5.98251 6.01758 2.81628 6.01758 0H12.0001Z" fill="#D80027"/>
<path d="M3.40027 1.7843L3.81474 3.05987H5.15601L4.07092 3.84827L4.48536 5.12384L3.40027 4.33548L2.31518 5.12384L2.72962 3.84827L1.64453 3.05987H2.98579L3.40027 1.7843Z" fill="#0052B4"/>
<path d="M8.61316 6.82227L9.02764 8.09784H10.3689L9.28381 8.88623L9.69825 10.1618L8.61316 9.37345L7.52807 10.1618L7.94251 8.88623L6.85742 8.09784H8.19868L8.61316 6.82227Z" fill="#D80027"/>
<circle cx="6" cy="6" r="6" stroke="#E1DED7"/>
</g>
</g>
<defs>
<clipPath id="clip0_14_1652">
<rect width="12" height="11.965" rx="1.11953" fill="white"/>
</clipPath>
</defs>
</svg>
