<svg width="12" height="12" viewBox="0 0 12 12" fill="none" xmlns="http://www.w3.org/2000/svg">
<mask id="mask0_65_819" style="mask-type:alpha" maskUnits="userSpaceOnUse" x="0" y="0" width="12" height="12">
<circle cx="6" cy="6" r="6" fill="#D9D9D9"/>
</mask>
<g mask="url(#mask0_65_819)">
<g clip-path="url(#clip0_65_819)">
<path d="M-3.26315 -0.0129395V5.98355V11.9765H14.7368V5.98355V-0.0129395H-3.26315Z" fill="#D80027"/>
<path d="M9.36843 4.97186H6.7965L6.00001 2.52625L5.20352 4.97186H2.63159L4.71229 6.48414L3.9158 8.92975L5.9965 7.41747L8.07721 8.92975L7.28773 6.48414L9.36843 4.97186ZM5.29475 6.29467L5.56492 5.4666H6.4351L6.70528 6.29467L6.00001 6.80695L5.29475 6.29467ZM6.2737 4.97186H5.72633L6.00001 4.12975L6.2737 4.97186ZM7.12633 5.9894L6.95791 5.4666H7.84563L7.12633 5.9894ZM5.04563 5.4666L4.87721 5.9894L4.15791 5.4666H5.04563ZM4.85966 7.63502L5.13335 6.79291L5.57545 7.11572L4.85966 7.63502ZM6.42106 7.11221L6.86317 6.7894L7.13686 7.63151L6.42106 7.11221Z" fill="#20661B"/>
<circle cx="6.00003" cy="6" r="6" stroke="#E1DED7"/>
</g>
</g>
<defs>
<clipPath id="clip0_65_819">
<rect width="18" height="12" fill="white" transform="translate(-3.26315 -0.0234375)"/>
</clipPath>
</defs>
</svg>
