<svg width="12" height="12" viewBox="0 0 12 12" fill="none" xmlns="http://www.w3.org/2000/svg">
<mask id="mask0_89_4751" style="mask-type:alpha" maskUnits="userSpaceOnUse" x="0" y="0" width="12" height="12">
<circle cx="6" cy="6" r="6" fill="#D9D9D9"/>
</mask>
<g mask="url(#mask0_89_4751)">
<g clip-path="url(#clip0_89_4751)">
<path d="M15 0H-3V12H15V0Z" fill="white"/>
<path d="M15 0H-3V4H15V0Z" fill="#CE1126"/>
<path d="M15 8H-3V12H15V8Z" fill="black"/>
<path d="M4.69124 5.63863C4.68773 5.63863 4.68422 5.63863 4.68422 5.63863H3.66317C3.7158 5.43863 3.89475 5.29126 4.11229 5.29126V4.59302C3.47019 4.59302 2.95089 5.11582 2.95089 5.75442V6.32284V6.33337H4.68422C4.68773 6.33337 4.69124 6.33337 4.69124 6.33337C4.7544 6.33337 4.80703 6.386 4.80703 6.44916V6.68074H2.48422V7.37898H5.50527V6.44916C5.50527 6.00354 5.14036 5.63863 4.69124 5.63863Z" fill="#547C31"/>
<path d="M6.43158 6.68425V4.59302H5.73685V7.38249H6.89825V6.68425H6.43158Z" fill="#547C31"/>
<path d="M8.75438 6.68425V4.59302H8.05965V6.68425H7.82807V5.98951H7.12982V7.38249H9.22105V6.68425H8.75438Z" fill="#547C31"/>
</g>
<circle cx="6" cy="6" r="6" stroke="#E1DED7"/>
</g>
<defs>
<clipPath id="clip0_89_4751">
<rect width="18" height="12" fill="white" transform="translate(-3)"/>
</clipPath>
</defs>
</svg>
