<svg width="12" height="12" viewBox="0 0 12 12" fill="none" xmlns="http://www.w3.org/2000/svg">
<mask id="mask0_109_9603" style="mask-type:alpha" maskUnits="userSpaceOnUse" x="0" y="0" width="12" height="12">
<circle cx="6" cy="6" r="6" fill="#D9D9D9"/>
</mask>
<g mask="url(#mask0_109_9603)">
<g clip-path="url(#clip0_109_9603)">
<path d="M15 0H-3V12H15V0Z" fill="white"/>
<path d="M6 11C8.76142 11 11 8.76142 11 6C11 3.23858 8.76142 1 6 1C3.23858 1 1 3.23858 1 6C1 8.76142 3.23858 11 6 11Z" fill="white"/>
<path d="M6 9C7.65685 9 9 7.65685 9 6C9 4.34315 7.65685 3 6 3C4.34315 3 3 4.34315 3 6C3 7.65685 4.34315 9 6 9Z" stroke="#6DA544" stroke-width="0.5" stroke-miterlimit="10"/>
<path d="M6.00004 13.1667C9.95808 13.1667 13.1667 9.95808 13.1667 6.00004C13.1667 2.042 9.95808 -1.16663 6.00004 -1.16663C2.042 -1.16663 -1.16663 2.042 -1.16663 6.00004C-1.16663 9.95808 2.042 13.1667 6.00004 13.1667Z" stroke="#0052B4" stroke-width="6" stroke-miterlimit="10"/>
<path d="M6 5.08853L4.25345 5.89623V6.58656C4.25345 6.99386 4.464 7.37354 4.81262 7.5841L6.00345 8.10875L7.19428 7.5841C7.53945 7.37009 7.75345 6.99386 7.75345 6.58656V5.89623L6 5.08853Z" fill="#0052B4"/>
<path d="M7.75392 4.5H4.24247V6H7.75392V4.5Z" fill="#FFDA44"/>
<path d="M15 0H-3V1.22807H15V0Z" fill="#CE1127"/>
<path d="M15 10.7368H-3V11.9649H15V10.7368Z" fill="#CE1127"/>
</g>
<circle cx="6" cy="6" r="6" stroke="#E1DED7"/>
</g>
<defs>
<clipPath id="clip0_109_9603">
<rect width="18" height="12" fill="white" transform="translate(-3)"/>
</clipPath>
</defs>
</svg>
