<svg width="12" height="12" viewBox="0 0 12 12" fill="none" xmlns="http://www.w3.org/2000/svg">
<g clip-path="url(#clip0_244_3581)">
<rect width="12" height="12" rx="6" fill="#338AF3"/>
<g clip-path="url(#clip1_244_3581)">
<path d="M16 0H-2V12H16V0Z" fill="black"/>
<path d="M16 0H-2V5H16V0Z" fill="#002488"/>
<path d="M3.00143 6.15767C3.00941 6.14993 3.13442 6.19145 3.28271 6.24914C3.431 6.3068 3.62258 6.36128 3.70499 6.36665C3.85025 6.37313 4.3646 6.61814 4.35962 6.67706C4.35866 6.73211 3.58097 6.4943 3.30836 6.35579C2.98115 6.19271 2.97344 6.18473 3.00143 6.15767Z" fill="#008000"/>
<path d="M4.39259 7.33874C4.43296 7.45184 4.57618 7.52915 4.7684 7.54819C4.89848 7.55877 4.83881 7.49449 4.65702 7.41856C4.57163 7.38727 4.47218 7.32823 4.42994 7.29311C4.35558 7.22707 4.35558 7.22707 4.39259 7.33874ZM2.58205 6.49251C2.68593 6.66926 2.80415 6.7967 3.03344 6.97347C3.20182 7.10501 3.3487 7.20778 3.35585 7.19955C3.37019 7.179 2.53188 6.28699 2.47456 6.26231C2.45309 6.25409 2.49965 6.35685 2.58205 6.49251ZM4.73887 7.43368C4.81666 7.47529 4.91596 7.50808 4.96605 7.51001C5.02525 7.5123 5.00954 7.4956 4.89906 7.44629C4.81258 7.40756 4.70916 7.34244 4.66325 7.30207C4.58096 7.22489 4.58096 7.22489 4.58958 7.29278C4.5945 7.3316 4.65654 7.39191 4.73887 7.43368ZM4.25504 6.63168C4.3052 6.86189 4.51298 7.28529 4.58463 7.30172C4.64911 7.31404 4.64911 7.30994 4.59539 7.24006C4.50582 7.12084 4.31238 6.68512 4.31238 6.6029C4.31238 6.5577 4.29447 6.5248 4.27297 6.5248C4.24788 6.5248 4.2407 6.5659 4.25504 6.63168ZM2.10173 6.34304C2.10049 6.35113 2.16774 6.41066 2.25199 6.47779C2.33626 6.54493 2.43442 6.63993 2.46702 6.68826C2.52285 6.77469 2.83915 6.98895 2.86883 6.96157C2.89788 6.93822 2.49046 6.55943 2.31819 6.44946C2.11315 6.31612 2.10608 6.3147 2.10173 6.34304ZM2.21715 6.65929C2.21715 6.66751 2.29238 6.71272 2.38553 6.76205C2.47868 6.81138 2.58973 6.88536 2.62913 6.92647C2.69719 7.00045 3.04112 7.14845 3.06619 7.11557C3.09126 7.08679 2.63271 6.79493 2.44643 6.72094C2.22431 6.63051 2.21715 6.63051 2.21715 6.65929ZM3.81491 6.80433C3.95104 7.09207 4.09076 7.28116 4.14808 7.26061C4.17673 7.24828 4.11225 7.12907 3.97253 6.93587C3.84716 6.76733 3.73967 6.61936 3.72893 6.60703C3.7182 6.59468 3.7576 6.68512 3.81491 6.80433ZM3.99097 6.69217C3.99097 6.73737 4.13069 7.04979 4.21308 7.18133C4.25964 7.25531 4.31339 7.29642 4.37429 7.29642C4.46386 7.29642 4.46386 7.29642 4.32772 7.11967C4.24891 7.02513 4.14502 6.88124 4.09128 6.80315C4.03754 6.72505 3.99097 6.67571 3.99097 6.69217ZM3.66159 6.82488C3.66159 6.88654 3.92347 7.29761 3.96404 7.29761C3.98248 7.29761 3.93822 7.19895 3.86078 7.07974C3.68742 6.80845 3.66159 6.77968 3.66159 6.82488ZM3.4142 7.95765C3.17776 8.06453 3.12761 8.10152 3.12761 8.15907C3.12761 8.18373 3.15269 8.17962 3.19209 8.14262C3.22434 8.10562 3.34256 8.05629 3.45003 8.02753C3.55749 7.99878 3.68647 7.94942 3.73661 7.92064L3.82618 7.86721H3.71872C3.6614 7.87131 3.52166 7.91242 3.4142 7.95765ZM2.74283 7.25935C2.91947 7.44366 3.51029 7.79185 3.80964 7.8943C3.89076 7.92166 4.02237 7.92794 4.09673 7.91L4.23538 7.87834L4.09855 7.79551C3.87784 7.66459 3.51538 7.38727 3.38528 7.25349C3.24353 7.1071 3.24814 7.15767 3.39234 7.35989C3.44867 7.44135 3.61522 7.58178 3.76124 7.66953C3.90848 7.76115 4.01134 7.84504 3.99451 7.85207C3.95075 7.87034 3.54666 7.60604 3.23931 7.35819C2.90533 7.08648 2.89156 7.0791 3.01585 7.25467C3.07679 7.33859 3.18944 7.45339 3.27118 7.50673C3.35077 7.56535 3.40526 7.61697 3.38843 7.62399C3.35477 7.63805 3.14539 7.50678 2.87202 7.30599C2.7958 7.24596 2.69201 7.17119 2.64701 7.13749C2.59741 7.10138 2.6418 7.15718 2.74283 7.25935ZM2.76885 7.20188L2.62555 7.25531L2.73302 7.27586C2.79034 7.29232 2.86558 7.28409 2.9014 7.26354C2.93365 7.24298 2.99813 7.22653 3.0447 7.22243C3.12351 7.22243 3.12351 7.21833 3.05545 7.18543C2.96588 7.14022 2.94439 7.14022 2.76885 7.20188ZM2.94542 7.31344C2.88452 7.36688 2.88809 7.371 3.02065 7.34632C3.09947 7.334 3.21411 7.30932 3.27143 7.29289C3.36458 7.26411 3.3574 7.26001 3.19619 7.25589C3.08871 7.25179 2.9884 7.27644 2.94542 7.31344ZM2.05542 6.88124C2.64652 7.00456 3.83232 7.46084 3.76066 7.53895C3.74275 7.5595 3.40958 7.46496 3.36301 7.42796C3.3451 7.40741 3.16955 7.41563 2.9761 7.44441C2.61428 7.48962 2.55338 7.52662 2.56053 7.69516C2.56411 7.77737 2.56411 7.77737 2.58203 7.69516C2.61428 7.54307 2.668 7.51019 2.87221 7.51019C3.09432 7.51019 3.70334 7.61295 3.97203 7.69516C4.33027 7.81025 4.34103 7.81025 4.22281 7.73627C4.06876 7.63761 3.8359 7.45674 3.79291 7.4033C3.7141 7.30054 2.2847 6.84836 2.07691 6.85659C1.98018 6.86481 1.9766 6.86481 2.05542 6.88124ZM2.32719 7.10029C2.2842 7.13729 2.23762 7.22361 2.22688 7.29349C2.20539 7.4127 2.20539 7.4127 2.26271 7.3346C2.41318 7.11672 2.42391 7.10852 2.61021 7.10439C2.76068 7.10029 2.78218 7.09207 2.71052 7.06739C2.56003 7.01396 2.40958 7.02628 2.32719 7.10029ZM4.1532 7.35395C4.18186 7.41151 4.4613 7.57183 4.4828 7.54715C4.49355 7.53482 4.4613 7.50194 4.41832 7.47316C4.37175 7.44439 4.31085 7.39918 4.28576 7.36628C4.22844 7.30464 4.12097 7.29229 4.1532 7.35395ZM4.17476 7.74452C4.20341 7.80207 4.48285 7.96239 4.50435 7.93772C4.5151 7.92539 4.48285 7.89251 4.43987 7.86373C4.3933 7.83495 4.3324 7.78975 4.30731 7.75684C4.24999 7.69519 4.14253 7.68284 4.17476 7.74452ZM4.36763 7.55549C4.30079 7.58513 4.23359 7.63872 4.21271 7.67707C4.18803 7.72239 4.20892 7.72283 4.29512 7.67315C4.36272 7.63437 4.4603 7.60253 4.51385 7.5973C4.6141 7.59163 4.6141 7.59163 4.55029 7.54589C4.51383 7.51975 4.43637 7.52236 4.36763 7.55549ZM3.95507 7.85049C3.75089 8.06061 3.70574 8.20712 3.77113 8.42477L3.82767 8.61116L3.81193 8.42253C3.78759 8.16364 3.84841 8.04587 4.09559 7.84134C4.21178 7.74616 4.30412 7.65987 4.3019 7.65204C4.28975 7.60903 4.05889 7.73831 3.95507 7.85049ZM2.69106 6.1701C2.80212 6.41263 3.2535 6.97168 3.50427 7.18543C3.57233 7.24298 3.69415 7.30052 3.76937 7.31287L3.90908 7.33752L3.8052 7.20598C3.63681 6.99633 3.37887 6.59348 3.29648 6.41673C3.20691 6.22354 3.19617 6.27287 3.27141 6.5195C3.30006 6.61816 3.4147 6.81546 3.52577 6.95523C3.63683 7.09909 3.70847 7.21831 3.69055 7.21831C3.64399 7.21831 3.34305 6.81136 3.12812 6.45784C2.89525 6.07144 2.88452 6.05911 2.94899 6.27287C2.98124 6.37563 3.05288 6.52772 3.11378 6.60993C3.1711 6.69627 3.20693 6.76613 3.18902 6.76613C3.15319 6.76613 2.99556 6.5606 2.79852 6.26462C2.74478 6.17828 2.66955 6.06732 2.63732 6.01799C2.60151 5.96458 2.62658 6.03446 2.69106 6.1701ZM3.84663 7.32109C3.84663 7.34987 3.90038 7.42386 3.96485 7.48141C4.15473 7.64583 4.65985 7.92124 4.72433 7.89249C4.76373 7.87604 4.70283 7.83083 4.53087 7.75684C4.22995 7.6212 3.9541 7.44033 3.9541 7.37867C3.9541 7.34579 4.07232 7.34167 4.36608 7.36222C4.80672 7.391 4.93928 7.33344 4.53805 7.29234C4.11533 7.24298 3.84663 7.25531 3.84663 7.32109ZM2.90088 7.76092C2.74683 7.80203 2.66444 7.86369 2.66444 7.93767C2.66444 7.96645 2.67877 7.96233 2.69669 7.92945C2.72534 7.87601 3.0191 7.77735 3.04777 7.81023C3.05493 7.81846 3.04419 7.88012 3.0227 7.94177C3.00121 8.00343 2.99405 8.06509 3.00479 8.07742C3.01554 8.09387 3.03344 8.06096 3.04419 8.01576C3.08718 7.83901 3.21974 7.78556 3.53857 7.81846C3.69978 7.83491 3.8789 7.85546 3.93622 7.85956C3.99712 7.86366 4.07952 7.88834 4.1225 7.91712C4.21565 7.97468 4.57747 7.97878 4.54522 7.92122C4.53447 7.90067 4.46641 7.87189 4.39118 7.85956C4.31952 7.84724 4.16907 7.80613 4.058 7.77323C3.8359 7.70749 3.12657 7.69927 2.90088 7.76092ZM4.20907 8.23543C3.93907 8.18018 3.81067 8.22953 3.70144 8.42269L3.60826 8.58857L3.7281 8.4582C3.89092 8.2768 4.00923 8.25929 4.3019 8.35688C4.43878 8.40333 4.5549 8.43371 4.5589 8.42688C4.58096 8.38936 4.35005 8.26024 4.20907 8.23543ZM3.85946 8.12089C3.3615 8.27709 3.30418 8.33465 3.37584 8.59363C3.40449 8.69229 3.40449 8.68816 3.40809 8.56075C3.41167 8.49086 3.44391 8.3922 3.47974 8.3511C3.54422 8.27711 3.83441 8.18255 4.18907 8.11679C4.27504 8.10446 4.33236 8.07569 4.32163 8.05513C4.29294 8.00168 4.1783 8.01813 3.85946 8.12089ZM4.28268 8.32174C4.03191 8.44918 3.94951 8.5725 3.95309 8.80268L3.95667 9L3.9925 8.81503C4.03906 8.56017 4.12864 8.46973 4.41882 8.36285C4.55496 8.31352 4.666 8.26419 4.666 8.25596C4.666 8.21075 4.41164 8.25186 4.28268 8.32174ZM4.23507 8.67466C4.19209 8.74044 4.15984 8.82676 4.15984 8.87198C4.15984 8.92542 4.17775 8.91309 4.2279 8.81855C4.2673 8.74457 4.33536 8.65823 4.37837 8.62123C4.46076 8.55545 4.46076 8.55545 4.38553 8.55545C4.34256 8.55545 4.27806 8.60478 4.23507 8.67466Z" fill="#008000"/>
<path d="M8.53007 9.62894C8.50485 9.6797 8.48685 9.71637 8.47444 9.74213C8.34866 9.69731 7.82132 9.41446 7.36986 9.16965C6.91487 8.92291 6.268 8.6069 6.14661 8.51788C6.05357 8.44946 6.062 8.39156 6.17577 8.44239C6.28956 8.49322 6.72816 8.73985 7.0386 8.90293C7.39832 9.09541 8.30156 9.51662 8.53007 9.62894ZM6.22315 8.39348C6.34706 8.47735 7.00274 8.76607 7.46462 8.99361C7.92291 9.21939 8.45818 9.47999 8.58517 9.5195C8.59682 9.49326 8.61376 9.45585 8.63748 9.40406C8.40584 9.30135 7.4909 8.91823 7.1258 8.74094C6.8108 8.59098 6.36527 8.36284 6.25009 8.31682C6.13491 8.2708 6.12816 8.32902 6.22315 8.39348ZM6.09258 8.5577C5.98118 8.4998 5.97024 8.55711 6.06017 8.63127C6.17752 8.72778 6.80972 9.08399 7.25331 9.35895C7.69346 9.63178 8.20776 9.94735 8.3314 10C8.34493 9.97505 8.36451 9.93957 8.3919 9.89046C8.1686 9.76393 7.28498 9.28658 6.93415 9.07178C6.63126 8.88946 6.20401 8.61561 6.09258 8.5577ZM7.42611 8.2803C7.09678 8.18438 6.62913 8.03288 6.50972 8.00653C6.3903 7.98018 6.39039 8.03897 6.49192 8.08696C6.62435 8.14932 7.30713 8.32577 7.79093 8.47397C8.27095 8.62102 8.83124 8.78969 8.96158 8.80762C8.97009 8.77965 8.9825 8.7398 9 8.68455C8.7587 8.62152 7.80825 8.39486 7.42611 8.2803ZM7.22101 8.58502C6.89989 8.45506 6.44503 8.25519 6.328 8.21646C6.21095 8.17772 6.20676 8.23631 6.30443 8.29471C6.43183 8.37069 7.09919 8.61785 7.57038 8.81607C8.03789 9.01276 8.5838 9.23939 8.71233 9.27087C8.72284 9.24392 8.7381 9.20549 8.75954 9.15227C8.52376 9.06429 7.59336 8.73912 7.22101 8.58502ZM7.33713 8.43963C7.01079 8.33001 6.54784 8.15897 6.42927 8.12765C6.3107 8.09633 6.30907 8.15507 6.40914 8.20728C6.53967 8.27515 7.21691 8.48005 7.69611 8.64844C8.17157 8.8155 8.72659 9.00753 8.85634 9.03092C8.86565 9.00334 8.87922 8.96401 8.89832 8.90954C8.65897 8.83644 7.71566 8.57014 7.33713 8.43963Z" fill="#008000"/>
<path d="M6.15981 9.40588L6.25507 9.47368C6.39163 9.56848 6.46674 9.70024 6.45929 9.83623L6.45424 9.94853L6.49906 9.83804C6.54811 9.72242 6.54135 9.54733 6.48344 9.41765L6.44964 9.34204L6.55696 9.3886C6.71031 9.45305 6.81128 9.56635 6.83237 9.70094L6.85086 9.81183L6.87165 9.69443C6.89549 9.57115 6.85238 9.40134 6.76863 9.28651L6.71979 9.21951L6.83448 9.24281C6.99792 9.27408 7.12031 9.364 7.16904 9.49129L7.21027 9.59594L7.20609 9.47678C7.20369 9.35126 7.12607 9.19408 7.02023 9.0991L6.95849 9.04369L7.07555 9.04275C7.24194 9.03947 7.38044 9.10206 7.45464 9.21649L7.51678 9.31027L7.48786 9.1946C7.45933 9.07237 7.35063 8.9347 7.22726 8.86372L7.1553 8.8223L7.26961 8.79715C7.43168 8.75943 7.5802 8.79199 7.67666 8.88852L7.75701 8.96739L7.70458 8.86024C7.65118 8.74658 7.51611 8.6344 7.38065 8.59053L7.30161 8.56499L7.40817 8.51668C7.55882 8.44622 7.71088 8.44729 7.82538 8.5217L7.92046 8.58223L7.84683 8.48827C7.77086 8.38812 7.61535 8.30644 7.47369 8.29162L7.39108 8.28298L7.48523 8.21363C7.61789 8.11353 7.76685 8.08301 7.89438 8.13213L8 8.1716L7.90837 8.09498C7.81317 8.01279 7.64402 7.96506 7.50236 7.97992L7.41975 7.98855L7.49735 7.90123C7.60623 7.77582 7.74559 7.71515 7.88056 7.73678L7.99211 7.75349L7.88648 7.69754C7.77623 7.63687 7.60081 7.62523 7.46535 7.6691L7.38632 7.69466L7.444 7.59319C7.52434 7.44796 7.64799 7.35973 7.78452 7.35287L7.89713 7.34614L7.78213 7.31329C7.66161 7.27679 7.48762 7.30178 7.36425 7.37271L7.29229 7.41411L7.32757 7.30289C7.37585 7.14419 7.47837 7.0323 7.6105 6.99731L7.71925 6.96739L7.59993 6.95909C7.47442 6.94834 7.30944 7.00879 7.20358 7.10377L7.14185 7.15917L7.15314 7.04308C7.16724 6.8778 7.2442 6.74713 7.36614 6.68551L7.46627 6.63374L7.34782 6.65032C7.2228 6.66581 7.07406 6.75914 6.99034 6.87398L6.9415 6.94097L6.92833 6.82507C6.90765 6.66053 6.95563 6.51669 7.06207 6.43122L7.14918 6.35981L7.03677 6.40057C6.91772 6.44162 6.79172 6.56374 6.73377 6.69341L6.69997 6.76909L6.6629 6.65843C6.60832 6.50177 6.62529 6.35115 6.71155 6.24549L6.78188 6.15761L6.68042 6.22075C6.57254 6.28556 6.47475 6.43112 6.44513 6.56997L6.42786 6.65098L6.36851 6.55046C6.28245 6.40847 6.2676 6.25769 6.32993 6.13643L6.38037 6.0359L6.29432 6.11867C6.20232 6.20445 6.13703 6.36712 6.13703 6.50904V6.59183L6.058 6.50579C5.94423 6.3848 5.89825 6.24032 5.9339 6.10881L5.96224 6L5.89534 6.09885C5.82325 6.20176 5.79332 6.37439 5.82295 6.51326L5.84019 6.59423L5.74496 6.52643C5.6084 6.43163 5.5333 6.29987 5.54074 6.16384L5.54576 6.05153L5.50093 6.16208C5.45192 6.2777 5.45867 6.45275 5.51656 6.58241L5.55036 6.65808L5.44304 6.61151C5.28969 6.54708 5.18872 6.43376 5.16763 6.29919L5.14914 6.18829L5.12837 6.30567C5.10453 6.42891 5.14762 6.59877 5.23139 6.7136L5.28021 6.78057L5.16554 6.75723C5.0021 6.72598 4.87971 6.63608 4.83098 6.50877L4.78975 6.40414L4.79392 6.52329C4.79632 6.6488 4.87394 6.80599 4.97979 6.90095L5.04152 6.95635L4.92446 6.9573C4.75808 6.96059 4.61958 6.89799 4.54537 6.7836L4.48322 6.68978L4.51216 6.80543C4.54069 6.92771 4.64939 7.0654 4.77275 7.13636L4.8447 7.17776L4.73041 7.20291C4.56834 7.2406 4.41982 7.20808 4.32336 7.11156L4.24299 7.03268L4.29542 7.13982C4.34884 7.25352 4.4839 7.36563 4.61937 7.40948L4.6984 7.43508L4.59184 7.48337C4.44118 7.55384 4.28912 7.55275 4.17462 7.47833L4.07954 7.41781L4.15317 7.51175C4.22914 7.61189 4.38465 7.69357 4.52631 7.70842L4.60894 7.71708L4.51478 7.78638C4.38211 7.88653 4.23315 7.91698 4.10562 7.86789L4 7.82843L4.09163 7.90504C4.18683 7.98727 4.35598 8.03495 4.49764 8.02011L4.58027 8.01148L4.50265 8.09877C4.39377 8.22421 4.25441 8.28485 4.11944 8.26327L4.00789 8.24653L4.11352 8.30251C4.22381 8.36321 4.3992 8.37481 4.53467 8.33095L4.6137 8.30537L4.556 8.40687C4.47566 8.55209 4.35201 8.64033 4.21548 8.64714L4.10289 8.65385L4.21788 8.68673C4.3384 8.72323 4.5124 8.69824 4.63576 8.62729L4.70773 8.58587L4.67247 8.6971C4.62418 8.85583 4.52166 8.96774 4.38953 9.0027L4.28078 9.03263L4.40011 9.04094C4.52561 9.05166 4.6906 8.99119 4.79645 8.8962L4.85819 8.84079L4.84689 8.95694C4.83279 9.12215 4.75584 9.25287 4.63389 9.31444L4.53376 9.36625L4.65222 9.34968C4.77723 9.33419 4.92597 9.24079 5.00969 9.12596L5.05853 9.059L5.07172 9.17492C5.09239 9.33945 5.0444 9.48323 4.93797 9.56875L4.85083 9.64016L4.96325 9.5994C5.08229 9.55836 5.20832 9.4362 5.26626 9.30654L5.30005 9.23091L5.33712 9.34151C5.39169 9.49821 5.37473 9.64879 5.28847 9.75448L5.21814 9.84239L5.3196 9.77922C5.42748 9.71442 5.52527 9.56883 5.55489 9.42998L5.57215 9.34902L5.63151 9.44956C5.71756 9.5915 5.73241 9.74232 5.67009 9.86357L5.61964 9.96412L5.7057 9.8813C5.79769 9.79557 5.86299 9.6329 5.86299 9.49096V9.40815L5.94202 9.49421C6.05579 9.61523 6.10177 9.75968 6.06614 9.89119L6.03776 10L6.10466 9.90115C6.17675 9.79821 6.20668 9.62561 6.17707 9.48675L6.15981 9.40578" fill="#FCDD09"/>
<path d="M9.00179 2.12373C8.86989 2.32034 8.85416 2.4776 8.94418 2.74917C8.98751 2.8759 9.03513 3.06516 9.05513 3.16773C9.0818 3.31256 9.07901 3.32634 9.08275 3.35783C9.11609 3.35783 9.19185 3.35795 9.22689 3.35775C9.23193 3.30761 9.236 3.24974 9.24783 3.17014C9.26162 3.07734 9.30252 2.88327 9.34651 2.74846C9.43442 2.47908 9.42853 2.3138 9.29183 2.12673C9.24181 2.05733 9.17515 2 9.14513 2C9.11516 2.00002 9.04727 2.05301 9.00179 2.12373ZM9.64951 2.68002C9.46281 2.75244 9.35052 2.95291 9.28918 3.22918C9.27786 3.28107 9.27509 3.29938 9.26941 3.35785C9.30983 3.358 9.32571 3.35824 9.36511 3.35803C9.37373 3.31869 9.37994 3.29793 9.39895 3.24211C9.4743 3.02618 9.69621 2.93952 9.6862 3.14169C9.68287 3.19751 9.65684 3.22868 9.62787 3.25861C9.66368 3.25052 9.73976 3.21839 9.80143 3.18671C10.1448 2.99962 10.0096 2.54122 9.64951 2.68002ZM8.8866 3.4283C9.03727 3.4289 9.2977 3.42999 9.42277 3.42939C9.42291 3.40031 9.42338 3.41515 9.42369 3.39165C9.3316 3.39095 8.979 3.39211 8.8873 3.39211C8.88754 3.40731 8.8871 3.41466 8.8866 3.4283ZM8.93093 3.58798C8.87661 3.64097 8.79176 3.68059 8.79176 3.68059C8.79176 3.68059 8.86681 3.68822 8.93681 3.6836C9.00681 3.67897 9.04565 3.67107 9.08702 3.65289C9.07578 3.72838 9.07514 3.80128 9.07514 3.80128C9.08533 3.89843 9.09683 3.92329 9.12011 3.97058C9.15169 4.01003 9.17005 4.01024 9.19328 3.96859C9.21837 3.92197 9.23488 3.87399 9.24014 3.80084C9.23832 3.74601 9.23494 3.72088 9.22059 3.65385C9.26902 3.67282 9.29961 3.67774 9.37187 3.68361C9.44582 3.68963 9.51378 3.68669 9.51378 3.68669C9.51378 3.68669 9.41389 3.64133 9.36995 3.58569C9.32656 3.53076 9.33581 3.54011 9.30425 3.46936C9.2659 3.46772 9.07152 3.46933 9.00984 3.46933C8.97604 3.53382 8.97264 3.54728 8.93093 3.58798ZM8.65646 2.67991C8.84316 2.75233 8.95545 2.9528 9.01679 3.22907C9.02811 3.28095 9.03088 3.29926 9.03655 3.35774C8.99614 3.35788 8.98026 3.35813 8.94086 3.35791C8.93224 3.31858 8.92603 3.29781 8.90702 3.24199C8.83167 3.02606 8.60976 2.9394 8.61977 3.14158C8.6231 3.1974 8.64913 3.22857 8.6781 3.25849C8.64229 3.25041 8.5662 3.21828 8.50454 3.18659C8.16116 2.99952 8.29638 2.54112 8.65646 2.67991Z" fill="#FCDD09"/>
<path d="M5.84883 2.12373C5.71694 2.32034 5.7012 2.4776 5.79122 2.74917C5.83456 2.8759 5.88218 3.06516 5.90218 3.16773C5.92884 3.31256 5.92605 3.32634 5.9298 3.35783C5.96314 3.35783 6.0389 3.35795 6.07394 3.35775C6.07898 3.30761 6.08305 3.24974 6.09487 3.17014C6.10867 3.07734 6.14957 2.88327 6.19355 2.74846C6.28147 2.47908 6.27558 2.3138 6.13888 2.12673C6.08886 2.05733 6.02219 2 5.99218 2C5.9622 2.00002 5.89431 2.05301 5.84883 2.12373ZM6.49656 2.68002C6.30986 2.75244 6.19757 2.95291 6.13623 3.22918C6.1249 3.28107 6.12213 3.29938 6.11646 3.35785C6.15688 3.358 6.17276 3.35824 6.21215 3.35803C6.22077 3.31869 6.22699 3.29793 6.246 3.24211C6.32134 3.02618 6.54326 2.93952 6.53325 3.14169C6.52992 3.19751 6.50388 3.22868 6.47492 3.25861C6.51073 3.25052 6.58681 3.21839 6.64847 3.18671C6.99186 2.99962 6.85663 2.54122 6.49656 2.68002ZM5.73365 3.4283C5.88432 3.4289 6.14474 3.42999 6.26982 3.42939C6.26996 3.40031 6.27043 3.41515 6.27074 3.39165C6.17865 3.39095 5.82604 3.39211 5.73435 3.39211C5.73458 3.40731 5.73415 3.41466 5.73365 3.4283ZM5.77797 3.58798C5.72365 3.64097 5.6388 3.68059 5.6388 3.68059C5.6388 3.68059 5.71386 3.68822 5.78386 3.6836C5.85386 3.67897 5.89269 3.67107 5.93406 3.65289C5.92283 3.72838 5.92218 3.80128 5.92218 3.80128C5.93237 3.89843 5.94388 3.92329 5.96716 3.97058C5.99873 4.01003 6.0171 4.01024 6.04032 3.96859C6.06542 3.92197 6.08193 3.87399 6.08719 3.80084C6.08537 3.74601 6.08198 3.72088 6.06763 3.65385C6.11606 3.67282 6.14665 3.67774 6.21892 3.68361C6.29286 3.68963 6.36083 3.68669 6.36083 3.68669C6.36083 3.68669 6.26094 3.64133 6.21699 3.58569C6.1736 3.53076 6.18286 3.54011 6.1513 3.46936C6.11295 3.46772 5.91856 3.46933 5.85688 3.46933C5.82309 3.53382 5.81969 3.54728 5.77797 3.58798ZM5.5035 2.67991C5.6902 2.75233 5.80249 2.9528 5.86383 3.22907C5.87516 3.28095 5.87793 3.29926 5.8836 3.35774C5.84318 3.35788 5.8273 3.35813 5.78791 3.35791C5.77929 3.31858 5.77307 3.29781 5.75406 3.24199C5.67872 3.02606 5.4568 2.9394 5.46681 3.14158C5.47014 3.1974 5.49618 3.22857 5.52514 3.25849C5.48933 3.25041 5.41325 3.21828 5.35159 3.18659C5.0082 2.99952 5.14343 2.54112 5.5035 2.67991Z" fill="#FCDD09"/>
<path d="M2.69582 2.12373C2.56392 2.32034 2.54819 2.4776 2.63821 2.74917C2.68154 2.8759 2.72916 3.06516 2.74916 3.16773C2.77583 3.31256 2.77304 3.32634 2.77678 3.35783C2.81013 3.35783 2.88589 3.35795 2.92092 3.35775C2.92596 3.30761 2.93003 3.24974 2.94186 3.17014C2.95565 3.07734 2.99655 2.88327 3.04054 2.74846C3.12845 2.47908 3.12256 2.3138 2.98586 2.12673C2.93585 2.05733 2.86918 2 2.83917 2C2.80919 2.00002 2.7413 2.05301 2.69582 2.12373ZM3.34354 2.68002C3.15684 2.75244 3.04455 2.95291 2.98321 3.22918C2.97189 3.28107 2.96912 3.29938 2.96345 3.35785C3.00386 3.358 3.01974 3.35824 3.05914 3.35803C3.06776 3.31869 3.07397 3.29793 3.09298 3.24211C3.16833 3.02618 3.39024 2.93952 3.38023 3.14169C3.3769 3.19751 3.35087 3.22868 3.3219 3.25861C3.35771 3.25052 3.43379 3.21839 3.49546 3.18671C3.83884 2.99962 3.70362 2.54122 3.34354 2.68002ZM2.58063 3.4283C2.7313 3.4289 2.99173 3.42999 3.1168 3.42939C3.11695 3.40031 3.11741 3.41515 3.11772 3.39165C3.02563 3.39095 2.67303 3.39211 2.58133 3.39211C2.58157 3.40731 2.58114 3.41466 2.58063 3.4283ZM2.62496 3.58798C2.57064 3.64097 2.48579 3.68059 2.48579 3.68059C2.48579 3.68059 2.56085 3.68822 2.63084 3.6836C2.70084 3.67897 2.73968 3.67107 2.78105 3.65289C2.76981 3.72838 2.76917 3.80128 2.76917 3.80128C2.77936 3.89843 2.79086 3.92329 2.81414 3.97058C2.84572 4.01003 2.86408 4.01024 2.88731 3.96859C2.9124 3.92197 2.92891 3.87399 2.93417 3.80084C2.93235 3.74601 2.92897 3.72088 2.91462 3.65385C2.96305 3.67282 2.99364 3.67774 3.0659 3.68361C3.13985 3.68963 3.20781 3.68669 3.20781 3.68669C3.20781 3.68669 3.10793 3.64133 3.06398 3.58569C3.02059 3.53076 3.02984 3.54011 2.99828 3.46936C2.95993 3.46772 2.76555 3.46933 2.70387 3.46933C2.67007 3.53382 2.66667 3.54728 2.62496 3.58798ZM2.35049 2.67991C2.53719 2.75233 2.64948 2.9528 2.71082 3.22907C2.72214 3.28095 2.72491 3.29926 2.73058 3.35774C2.69017 3.35788 2.67429 3.35813 2.63489 3.35791C2.62627 3.31858 2.62006 3.29781 2.60105 3.24199C2.5257 3.02606 2.30379 2.9394 2.3138 3.14158C2.31713 3.1974 2.34316 3.22857 2.37213 3.25849C2.33632 3.25041 2.26024 3.21828 2.19857 3.18659C1.85519 2.99952 1.99041 2.54112 2.35049 2.67991Z" fill="#FCDD09"/>
<path d="M12.298 0.448305C12.0782 0.810735 12.052 1.10062 12.202 1.60123C12.2742 1.83484 12.3536 2.18371 12.3869 2.3728C12.4313 2.63977 12.4267 2.66518 12.4329 2.72323C12.4885 2.72323 12.6147 2.72344 12.6731 2.72308C12.6815 2.63065 12.6883 2.52397 12.708 2.37724C12.731 2.20618 12.7991 1.84843 12.8724 1.59991C13.0189 1.10335 13.0091 0.798675 12.7813 0.453825C12.698 0.325905 12.5869 0.220215 12.5369 0.220215C12.4869 0.220245 12.3738 0.317925 12.298 0.448305ZM13.3773 1.47376C13.0662 1.60726 12.8791 1.9768 12.7769 2.48608C12.758 2.58172 12.7534 2.61547 12.744 2.72326C12.8113 2.72353 12.8378 2.72398 12.9034 2.72359C12.9178 2.65108 12.9281 2.6128 12.9598 2.5099C13.0854 2.11186 13.4551 1.95211 13.4385 2.3248C13.4329 2.4277 13.3895 2.48515 13.3413 2.54032C13.4009 2.52541 13.5277 2.46619 13.6305 2.40778C14.2026 2.0629 13.9773 1.21789 13.3773 1.47376ZM12.1061 2.85313C12.3571 2.85424 12.7911 2.85625 12.9995 2.85514C12.9997 2.80153 13.0005 2.82889 13.001 2.78557C12.8476 2.78428 12.26 2.78641 12.1072 2.78641C12.1076 2.81443 12.1069 2.82799 12.1061 2.85313ZM12.1799 3.14749C12.0894 3.24517 11.948 3.31819 11.948 3.31819C11.948 3.31819 12.0731 3.33226 12.1897 3.32374C12.3064 3.31522 12.3711 3.30064 12.44 3.26713C12.4213 3.4063 12.4202 3.54067 12.4202 3.54067C12.4372 3.71977 12.4564 3.76558 12.4952 3.85276C12.5478 3.92548 12.5784 3.92587 12.6171 3.8491C12.6589 3.76315 12.6864 3.67471 12.6952 3.53986C12.6921 3.43879 12.6865 3.39247 12.6626 3.2689C12.7433 3.30388 12.7943 3.31294 12.9147 3.32377C13.0379 3.33487 13.1511 3.32944 13.1511 3.32944C13.1511 3.32944 12.9847 3.24583 12.9115 3.14326C12.8392 3.04201 12.8546 3.05923 12.802 2.92882C12.7381 2.92579 12.4142 2.92876 12.3114 2.92876C12.2551 3.04765 12.2494 3.07246 12.1799 3.14749ZM11.7226 1.47355C12.0337 1.60705 12.2208 1.97659 12.323 2.48587C12.3419 2.58151 12.3465 2.61526 12.3559 2.72305C12.2886 2.72332 12.2621 2.72377 12.1965 2.72338C12.1821 2.65087 12.1718 2.61259 12.1401 2.50969C12.0145 2.11165 11.6448 1.9519 11.6614 2.32459C11.667 2.42749 11.7104 2.48494 11.7586 2.54011C11.699 2.5252 11.5722 2.46598 11.4694 2.40757C10.8972 2.06272 11.1226 1.21771 11.7226 1.47355Z" fill="#FCDD09"/>
</g>
</g>
<rect x="0.25" y="0.25" width="11.5" height="11.5" rx="5.75" stroke="#E1DED7" stroke-width="0.5"/>
<defs>
<clipPath id="clip0_244_3581">
<rect width="12" height="12" rx="6" fill="white"/>
</clipPath>
<clipPath id="clip1_244_3581">
<rect width="18" height="12" fill="white" transform="translate(-2)"/>
</clipPath>
</defs>
</svg>
