<svg width="12" height="12" viewBox="0 0 12 12" fill="none" xmlns="http://www.w3.org/2000/svg">
<g clip-path="url(#clip0_277_2831)">
<rect width="12" height="12" rx="6" fill="#002B7F"/>
<g clip-path="url(#clip1_277_2831)">
<path d="M20 0.00012207H-2V11.9999H20V0.00012207Z" fill="#0052B4"/>
<path d="M20 0V5.8602L-2 6.00617V0H20Z" fill="#D80027"/>
<path d="M9 6.0003L-2 12.0001V0L9 6.0003Z" fill="white"/>
<path d="M0.561821 6C0.556836 6.05305 0.553528 6.10656 0.553528 6.16066C0.553528 7.31453 1.6968 8.24997 3.10712 8.24997C4.51744 8.24997 5.66071 7.31456 5.66071 6.16066C5.66071 6.10656 5.65736 6.05305 5.65241 6H0.561821Z" fill="#FFDA44"/>
<path d="M3.10732 5.03574C3.54127 5.03574 3.89305 4.74791 3.89305 4.39287C3.89305 4.03782 3.54127 3.75 3.10732 3.75C2.67338 3.75 2.32159 4.03782 2.32159 4.39287C2.32159 4.74791 2.67338 5.03574 3.10732 5.03574Z" fill="#FFDA44"/>
<path d="M1.33929 4.23218V6.32148C1.33929 7.42869 3.1072 7.76792 3.1072 7.76792C3.1072 7.76792 4.87511 7.42869 4.87511 6.32148V4.23218H1.33929Z" fill="#D80027"/>
<path d="M3.10801 7.09512C2.78008 6.99858 2.12506 6.75175 2.12506 6.32147V4.875H4.08938V6.32147C4.08933 6.75319 3.43436 6.99939 3.10801 7.09512Z" fill="#338AF3"/>
<path d="M3.50002 5.67851V5.35711L3.10711 5.19641L2.71429 5.35711V5.67851L2.51788 5.83928V6.48211H3.69643V5.83928L3.50002 5.67851Z" fill="#F3F3F3"/>
</g>
</g>
<rect x="0.25" y="0.25" width="11.5" height="11.5" rx="5.75" stroke="#E1DED7" stroke-width="0.5"/>
<defs>
<clipPath id="clip0_277_2831">
<rect width="12" height="12" rx="6" fill="white"/>
</clipPath>
<clipPath id="clip1_277_2831">
<rect width="22" height="12" fill="white" transform="translate(-2)"/>
</clipPath>
</defs>
</svg>
