<svg width="12" height="12" viewBox="0 0 12 12" fill="none" xmlns="http://www.w3.org/2000/svg">
<mask id="mask0_97_7980" style="mask-type:alpha" maskUnits="userSpaceOnUse" x="0" y="0" width="12" height="12">
<circle cx="6" cy="6" r="6" fill="#D9D9D9"/>
</mask>
<g mask="url(#mask0_97_7980)">
<g clip-path="url(#clip0_97_7980)">
<path d="M15.9649 0H-2V12H15.9649V0Z" fill="#751A46"/>
<path d="M-2 0V12H3.27368L4.59649 11.3123L3.27368 10.6491L4.59649 9.98246L3.27368 9.3193L4.59649 8.65263L3.27368 7.98597L4.59649 7.32281L3.27368 6.65614L4.59649 5.98947L3.27368 5.32632L4.59649 4.65965L3.27368 3.99649L4.59649 3.32982L3.27368 2.66316L4.59649 2L3.27368 1.33333L4.59649 0.670175L3.27368 0H-2Z" fill="white"/>
</g>
<circle cx="6" cy="6" r="6" stroke="#E1DED7"/>
</g>
<defs>
<clipPath id="clip0_97_7980">
<rect width="18" height="12" fill="white" transform="translate(-2)"/>
</clipPath>
</defs>
</svg>
