<svg width="12" height="12" viewBox="0 0 12 12" fill="none" xmlns="http://www.w3.org/2000/svg">
<mask id="mask0_91_6266" style="mask-type:alpha" maskUnits="userSpaceOnUse" x="0" y="0" width="12" height="12">
<circle cx="6" cy="6" r="6" fill="#D9D9D9"/>
</mask>
<g mask="url(#mask0_91_6266)">
<g clip-path="url(#clip0_91_6266)">
<path d="M15 0.00012207H-3V11.9999H15V0.00012207Z" fill="white"/>
<path d="M0 11.9998V0L9.85849 6.14356H3.08004L9.53389 11.9998H0Z" fill="#0052B4"/>
<path d="M8.60525 5.78507L0.358643 0.645996V5.78507V11.6413H8.60525L2.1514 5.78507H8.60525Z" fill="#D80027"/>
<path d="M0.445404 8.40586L-0.0674907 8.16458L0.205674 7.66782L-0.351343 7.77435L-0.421936 7.21167L-0.809886 7.62553L-1.19787 7.21167L-1.26846 7.77435L-1.82545 7.66779L-1.55228 8.16458L-2.06525 8.40586L-1.55228 8.6471L-1.82545 9.14386L-1.26843 9.03737L-1.19787 9.60001L-0.809886 9.18615L-0.421936 9.60001L-0.351343 9.03737L0.205638 9.14389L-0.0674907 8.64714L0.445404 8.40586Z" fill="white"/>
<path d="M0.103161 3.73816L-0.269917 3.5627L-0.071249 3.20136L-0.476355 3.27888L-0.527718 2.86963L-0.809882 3.1706L-1.09205 2.86963L-1.14337 3.27888L-1.54855 3.20136L-1.34985 3.5627L-1.72296 3.73816L-0.809882 3.92077L0.103161 3.73816Z" fill="white"/>
<path d="M0.285774 3.73816C0.285774 4.34327 -0.204762 4.8338 -0.809872 4.8338C-1.41498 4.8338 -1.90552 4.34327 -1.90552 3.73816" fill="white"/>
<path d="M4 8.95118L3.59142 8.75897L3.80903 8.36325L3.36531 8.44811L3.30907 7.99988L3.00003 8.32956L2.69096 7.99988L2.63472 8.44811L2.19103 8.36322L2.40863 8.75897L2 8.95118L2.40863 9.14335L2.19103 9.53907L2.63475 9.45424L2.69096 9.90245L3.00003 9.57276L3.30907 9.90245L3.36531 9.45424L3.809 9.5391L3.59142 9.14338L4 8.95118Z" fill="white"/>
<path d="M3.60021 3.69176L3.30301 3.55198L3.46127 3.26414L3.13856 3.32589L3.09765 2.99988L2.87287 3.23963L2.6481 2.99988L2.60721 3.32589L2.28444 3.26414L2.44273 3.55198L2.14551 3.69176L2.87287 3.83722L3.60021 3.69176Z" fill="white"/>
<path d="M3.7456 3.69177C3.7456 4.17381 3.35483 4.56457 2.8728 4.56457C2.39076 4.56457 2 4.17381 2 3.69177" fill="white"/>
</g>
<circle cx="6" cy="6" r="6" stroke="#E1DED7"/>
</g>
<defs>
<clipPath id="clip0_91_6266">
<rect width="18" height="12" fill="white" transform="translate(-3)"/>
</clipPath>
</defs>
</svg>
