<svg width="12" height="12" viewBox="0 0 12 12" fill="none" xmlns="http://www.w3.org/2000/svg">
<rect x="0.25" y="0.25" width="11.5" height="11.5" rx="5.75" fill="white"/>
<rect x="0.25" y="0.25" width="11.5" height="11.5" rx="5.75" stroke="#E1DED7" stroke-width="0.5"/>
<g clip-path="url(#clip0_244_3582)">
<path d="M11 3H1V10H11V3Z" fill="white"/>
<path d="M8.76757 6.41077L7.77148 8.41458C7.74999 8.4556 7.76562 8.50687 7.80663 8.52943C7.84569 8.55199 7.89452 8.53558 7.91601 8.49251L8.9121 6.4887C8.93163 6.44563 8.91405 6.39436 8.87304 6.3759C8.83398 6.35744 8.78905 6.3718 8.76757 6.41077Z" fill="#1583C4"/>
<path d="M8.90819 6.85589L7.77928 8.40233C7.75389 8.4413 7.76366 8.49462 7.80077 8.52129C7.83397 8.5459 7.88084 8.53975 7.90819 8.50693L9.03709 6.96049C9.06444 6.92357 9.05858 6.87025 9.02147 6.84153C8.98631 6.81077 8.93553 6.81897 8.90819 6.85589Z" fill="#1583C4"/>
<path d="M8.40232 6.71846L7.76755 8.42282C7.75193 8.4659 7.77146 8.51717 7.81443 8.53358C7.85544 8.54999 7.90427 8.52948 7.9199 8.48435L8.55466 6.77999C8.56833 6.73487 8.54685 6.68769 8.50388 6.67129C8.46286 6.65898 8.4199 6.67949 8.40232 6.71846Z" fill="#1583C4"/>
<path d="M3.38478 6.52565C3.3926 6.56051 3.40822 6.62204 3.42775 6.69998C3.46096 6.83124 3.49807 6.9625 3.53713 7.08351C3.58205 7.22503 3.82424 7.72752 3.93166 7.88545C4.06643 8.08439 4.20705 8.28129 4.35158 8.47203C4.38283 8.511 4.43947 8.5151 4.47658 8.48228C4.51174 8.44947 4.5176 8.39409 4.49025 8.35512C4.34768 8.16643 4.209 7.97364 4.07619 7.77674C3.99416 7.65779 3.74025 7.13889 3.7051 7.02403C3.64846 6.8456 3.59963 6.66306 3.55666 6.48052C3.54689 6.4313 3.50002 6.39848 3.45314 6.40874C3.40627 6.41899 3.37502 6.46822 3.38478 6.51744C3.38283 6.52154 3.38478 6.52359 3.38478 6.52565Z" fill="#409347"/>
<path d="M6.65912 5.38299C6.65912 5.38299 6.33769 4.00025 5.99982 4.00025C5.8738 4.00025 5.78249 3.98874 5.71857 4.12299C5.70213 4.15559 5.34052 4.0923 5.36974 4.52189C5.37887 4.65422 5.38983 4.33395 5.64186 4.45669C5.75692 4.51422 5.34235 5.38108 5.34235 5.38108H6.65912V5.38299Z" fill="#FFD836" stroke="#231F20" stroke-width="0.187015" stroke-miterlimit="10"/>
<path d="M9.74559 4.10759L8.08547 4.52951C6.71025 4.88048 7.31659 5.38103 7.31659 5.38103L5.99982 5.61116L4.68304 5.38103C4.68304 5.38103 5.28938 4.88048 3.91416 4.52951L2.25404 4.10759C2.02027 4.04814 1.92896 4.1728 2.06045 4.3876C2.06045 4.3876 4.0073 6.38213 4.37622 6.53555C4.74514 6.6909 5.12136 6.53555 5.12136 6.53555C5.12136 6.53555 4.84924 6.7024 4.68304 6.99583C4.51502 7.28926 4.59903 7.66131 3.9726 7.76679C3.87216 7.89337 3.88129 8.03529 4.02557 8.14844C4.16985 8.25967 5.34234 7.22597 5.34234 7.22597C5.34234 7.22597 4.90403 7.69392 4.90403 7.9183C4.90403 8.01611 5.70943 8.95009 6.00164 8.95009C6.29385 8.95009 7.09926 8.01611 7.09926 7.9183C7.09926 7.69392 6.66094 7.22597 6.66094 7.22597C6.66094 7.22597 7.83344 8.25967 7.97772 8.14844C8.12199 8.03721 8.18592 7.7783 8.02885 7.76679C7.51748 7.73227 7.48644 7.28926 7.31842 6.99583C7.15039 6.7024 6.8801 6.53555 6.8801 6.53555C6.8801 6.53555 7.25632 6.6909 7.62524 6.53555C7.99415 6.38021 9.93918 4.3876 9.93918 4.3876C10.0707 4.1728 9.98118 4.04814 9.74559 4.10759Z" fill="#FFD836" stroke="#231F20" stroke-width="0.187015" stroke-miterlimit="10"/>
<path d="M7.1839 5.22974V6.86353C7.18389 7.34679 6.8814 7.65798 6.59601 7.84302C6.45265 7.93594 6.30985 7.99982 6.20343 8.04028C6.15007 8.06057 6.10513 8.07464 6.07355 8.08423C6.05781 8.08901 6.0452 8.09258 6.03644 8.09497C6.03229 8.0961 6.02907 8.09728 6.02667 8.0979C6.02559 8.09818 6.02442 8.0987 6.02374 8.09888H6.02179L5.99933 8.10474L5.97784 8.09888H5.97589C5.9752 8.0987 5.97407 8.09819 5.97296 8.0979C5.97057 8.09728 5.96735 8.0961 5.9632 8.09497C5.95444 8.09258 5.94181 8.089 5.92609 8.08423C5.89451 8.07464 5.84955 8.06056 5.7962 8.04028C5.68979 7.99982 5.54699 7.93594 5.40363 7.84302C5.11822 7.65799 4.81575 7.3468 4.81573 6.86353V5.22974H7.1839Z" fill="white" stroke="#231F20" stroke-width="0.187015" stroke-miterlimit="10"/>
<path d="M5.25425 5.82422L5.25421 7.637C5.41437 7.76006 5.56399 7.84282 5.69876 7.8982V5.82422H5.25425Z" fill="#D80027"/>
<path d="M6.79687 5.82422V7.58143C6.63672 7.70449 6.46484 7.82059 6.33008 7.87597V5.82422H6.79687Z" fill="#D80027"/>
<path d="M7.09011 5.32349H4.90948V6.05034H7.09011V5.32349Z" fill="#0052B4"/>
<path d="M2.17383 7.31735L1.74609 6.12573H1.30664L1.92773 7.78293H2.41992L3.03516 6.12573H2.5957L2.17383 7.31735Z" fill="#1583C4"/>
<path d="M10.1875 6.11548H9.81836V7.79113H10.1875V6.11548Z" fill="#1583C4"/>
</g>
<defs>
<clipPath id="clip0_244_3582">
<rect width="10" height="7" fill="white" transform="translate(1 3)"/>
</clipPath>
</defs>
</svg>
