<svg width="12" height="12" viewBox="0 0 12 12" fill="none" xmlns="http://www.w3.org/2000/svg">
<mask id="mask0_65_833" style="mask-type:alpha" maskUnits="userSpaceOnUse" x="0" y="0" width="12" height="12">
<circle cx="6" cy="6" r="6" fill="#D9D9D9"/>
</mask>
<g mask="url(#mask0_65_833)">
<g clip-path="url(#clip0_65_833)">
<path d="M15.8596 0H-2.10527V11.9767H15.8596V0Z" fill="#0052B4"/>
<path d="M5.92982 0V4.1167H4.31336L5.92982 5.1946V5.98818H5.13586L2.5614 4.27172V5.98818H0.315786V4.27172L-2.25867 5.98818H-3.05264V5.1946L-1.43618 4.1167H-3.05264V1.87109H-1.43618L-3.05264 0.793579V0H-2.25867L0.315786 1.71604V0H2.5614V1.71604L5.13586 0H5.92982Z" fill="white"/>
<path d="M2 -0.00012207H0.877189V2.43261H-3.05264V3.55542H0.877189V5.98819H2V3.55542H5.92982V2.43261H2V-0.00012207Z" fill="#D80027"/>
<path d="M5.92982 -0.00012207V0.529106L3.91659 1.87125H3.1228L5.92982 -0.00012207Z" fill="#D80027"/>
<path d="M5.92982 0.793579V1.87119H4.31336L5.92982 0.793579Z" fill="#2E52B2"/>
<path d="M5.92982 -0.00012207V0.529106L3.91659 1.87125H3.1228L5.92982 -0.00012207Z" fill="#D80027"/>
<path d="M5.92982 0.793579V1.87119H4.31336L5.92982 0.793579Z" fill="#2E52B2"/>
<path d="M5.92982 5.98819V5.459L3.91659 4.11682H3.1228L5.92982 5.98819Z" fill="#D80027"/>
<path d="M9.21052 6.10522L7.82455 7.50123C8.0843 8.00587 8.60727 8.35084 9.21052 8.35084C9.81377 8.35084 10.3367 8.00584 10.5965 7.50123L9.21052 6.10522Z" fill="#FFDA44"/>
<path d="M7.64912 3.64917V6.11506V6.11509C7.64915 7.31623 9.21053 7.68426 9.21053 7.68426C9.21053 7.68426 10.7719 7.31623 10.7719 6.11506V6.11502V3.64917H7.64912Z" fill="#6DA544"/>
<path d="M9.54386 4.77197H8.8772V6.56145H9.54386V4.77197Z" fill="white"/>
<path d="M9.21053 5.08769C9.39463 5.08769 9.54386 4.93845 9.54386 4.75435C9.54386 4.57026 9.39463 4.42102 9.21053 4.42102C9.02644 4.42102 8.8772 4.57026 8.8772 4.75435C8.8772 4.93845 9.02644 5.08769 9.21053 5.08769Z" fill="#A2001D"/>
<path d="M8.54644 4.08887H8.09784V4.53747H8.54644V4.08887Z" fill="#FFDA44"/>
<path d="M8.54644 5.09827H8.09784V5.54687H8.54644V5.09827Z" fill="#FFDA44"/>
<path d="M8.54644 6.10767H8.09784V6.55627H8.54644V6.10767Z" fill="#FFDA44"/>
<path d="M10.3408 4.08887H9.89223V4.53747H10.3408V4.08887Z" fill="#FFDA44"/>
<path d="M10.3408 5.09827H9.89223V5.54687H10.3408V5.09827Z" fill="#FFDA44"/>
<path d="M10.3408 6.10767H9.89223V6.55627H10.3408V6.10767Z" fill="#FFDA44"/>
</g>
<circle cx="6" cy="6" r="6" stroke="#E1DED7"/>
</g>
<defs>
<clipPath id="clip0_65_833">
<rect width="17.9649" height="11.9766" fill="white" transform="translate(-3.05264)"/>
</clipPath>
</defs>
</svg>
