<svg width="12" height="12" viewBox="0 0 12 12" fill="none" xmlns="http://www.w3.org/2000/svg">
<mask id="mask0_93_7192" style="mask-type:alpha" maskUnits="userSpaceOnUse" x="0" y="0" width="12" height="12">
<circle cx="6" cy="6" r="6" fill="#D9D9D9"/>
</mask>
<g mask="url(#mask0_93_7192)">
<g clip-path="url(#clip0_93_7192)">
<path d="M17 0.00012207H-1V11.9999H17V0.00012207Z" fill="#FFDA44"/>
<path d="M17 0.00012207H-1V2.4H17V0.00012207Z" fill="#496E2D"/>
<path d="M17 9.59998H-1V11.9998H17V9.59998Z" fill="#496E2D"/>
<path d="M17 4.79993H-1V7.1998H17V4.79993Z" fill="#496E2D"/>
<path d="M6.17378 0.00012207H-1V7.1739H6.17378V0.00012207Z" fill="#D80027"/>
<path d="M3.11203 2.70874L3.46611 3.79851H4.61206L3.68501 4.4721L4.03908 5.56193L3.11203 4.88839L2.18496 5.56193L2.53911 4.4721L1.61206 3.79851H2.75794L3.11203 2.70874Z" fill="white"/>
</g>
<circle cx="6" cy="6" r="6" stroke="#E1DED7"/>
</g>
<defs>
<clipPath id="clip0_93_7192">
<rect width="18" height="12" fill="white" transform="translate(-1)"/>
</clipPath>
</defs>
</svg>
