<svg width="12" height="12" viewBox="0 0 12 12" fill="none" xmlns="http://www.w3.org/2000/svg">
<mask id="mask0_65_827" style="mask-type:alpha" maskUnits="userSpaceOnUse" x="0" y="0" width="12" height="12">
<circle cx="6" cy="6" r="6" fill="#D9D9D9"/>
</mask>
<g mask="url(#mask0_65_827)">
<g clip-path="url(#clip0_65_827)">
<path d="M14.9474 -0.0234375H-3.05263V11.9766H14.9474V-0.0234375Z" fill="white"/>
<path d="M14.9474 -0.0234375H-3.05263V3.97656H14.9474V-0.0234375Z" fill="#D80027"/>
<path d="M14.9474 7.97656H-3.05263V11.9766H14.9474V7.97656Z" fill="black"/>
<path d="M4.6772 7.14852C4.6772 7.14852 4.6772 5.0994 4.8351 4.87835C4.94387 4.72747 5.42457 5.0608 5.63159 5.03624C5.63159 5.03624 5.77895 4.77308 5.78948 4.61519C5.80001 4.45379 5.75088 4.34852 5.61755 4.39765C5.61755 4.39765 5.57545 4.32396 5.6351 4.28186C5.69124 4.23975 5.83159 4.28537 5.83159 4.28537C5.83159 4.28537 5.81404 4.25028 5.88773 4.25379C5.98948 4.2608 6.14036 4.30291 6.14738 4.45028C6.15439 4.55905 6.1579 4.72045 6.16141 4.75554C6.18597 4.99414 6.25615 5.0608 6.25615 5.0608C6.25615 5.0608 6.90176 4.738 7.02808 4.87835C7.14387 5.01168 7.18597 7.14852 7.18597 7.14852L6.55088 6.55905L6.97545 7.59414C6.97545 7.59414 6.47018 7.67835 5.96141 7.67835C5.45264 7.67835 4.87018 7.53098 4.87018 7.53098L5.35439 6.54151L4.6772 7.14852Z" fill="#C09300"/>
<circle cx="6.00011" cy="6" r="6" stroke="#E1DED7"/>
</g>
</g>
<defs>
<clipPath id="clip0_65_827">
<rect width="18" height="12" fill="white" transform="translate(-3.05263 -0.0234375)"/>
</clipPath>
</defs>
</svg>
