<svg width="12" height="12" viewBox="0 0 12 12" fill="none" xmlns="http://www.w3.org/2000/svg">
<mask id="mask0_109_9768" style="mask-type:alpha" maskUnits="userSpaceOnUse" x="0" y="0" width="12" height="12">
<circle cx="6" cy="6" r="6" fill="#D9D9D9"/>
</mask>
<g mask="url(#mask0_109_9768)">
<g clip-path="url(#clip0_109_9768)">
<path d="M15 -0.00012207H-3V12H15V-0.00012207Z" fill="#D80027"/>
<path d="M6.00001 -0.00012207H-3V5.99975H6.00001V-0.00012207Z" fill="#0052B4"/>
<path d="M4.49334 3.76965L4.56658 3.995H4.80345L4.61181 4.13422L4.68503 4.35954L4.49334 4.22029L4.30168 4.35954L4.37489 4.13422L4.18323 3.995H4.42012L4.49334 3.76965Z" fill="white"/>
<path d="M3.30335 2L3.4254 2.37556H3.82023L3.50079 2.60761L3.62282 2.98312L3.30335 2.75105L2.98394 2.98312L3.10596 2.60761L2.7865 2.37556H3.18135L3.30335 2Z" fill="white"/>
<path d="M4.48304 2.39319L4.60509 2.76872H4.99992L4.68048 3.00077L4.80248 3.37634L4.48304 3.14421L4.16363 3.37634L4.28563 3.00077L3.96619 2.76872H4.36101L4.48304 2.39319Z" fill="white"/>
<path d="M3.55067 3.96631L3.67272 4.34185H4.06755L3.74811 4.57392L3.87011 4.94943L3.55067 4.71733L3.23125 4.94943L3.35325 4.57392L3.03381 4.34185H3.42864L3.55067 3.96631Z" fill="white"/>
<path d="M2.51688 2.98315L2.63891 3.35872H3.03373L2.71429 3.59076L2.83629 3.96633L2.51688 3.7342L2.19744 3.96633L2.31944 3.59076L2 3.35872H2.39483L2.51688 2.98315Z" fill="white"/>
</g>
<circle cx="6" cy="6" r="6" stroke="#E1DED7"/>
</g>
<defs>
<clipPath id="clip0_109_9768">
<rect width="18" height="12" fill="white" transform="translate(-3)"/>
</clipPath>
</defs>
</svg>
