<svg width="12" height="12" viewBox="0 0 12 12" fill="none" xmlns="http://www.w3.org/2000/svg">
<g clip-path="url(#clip0_14_1711)">
<mask id="mask0_14_1711" style="mask-type:alpha" maskUnits="userSpaceOnUse" x="0" y="0" width="12" height="12">
<circle cx="6" cy="6" r="6" fill="#D9D9D9"/>
</mask>
<g mask="url(#mask0_14_1711)">
<path d="M14.9824 0H-3.01758V12H14.9824V0Z" fill="white"/>
<path d="M2.98242 0H-3.01758V12H2.98242V0Z" fill="#338AF3"/>
<path d="M14.9824 0H8.98242V12H14.9824V0Z" fill="#338AF3"/>
<path d="M5.96505 6.3615C6.4592 6.3615 6.85979 5.96091 6.85979 5.46676C6.85979 4.97261 6.4592 4.57202 5.96505 4.57202C5.4709 4.57202 5.07031 4.97261 5.07031 5.46676C5.07031 5.96091 5.4709 6.3615 5.96505 6.3615Z" fill="#DCC26D"/>
<path d="M3.79639 5.47024C3.79639 6.24568 4.21042 6.96147 4.87709 7.34744C5.08411 7.46674 5.35077 7.39656 5.47007 7.18954C5.58937 6.98252 5.51919 6.71586 5.31218 6.59656C4.90867 6.36498 4.66305 5.9334 4.66305 5.47024C4.66305 5.23165 4.47007 5.03516 4.22797 5.03516C3.98586 5.03516 3.79639 5.22814 3.79639 5.47024ZM7.13323 7.29831C7.75779 6.89831 8.13674 6.21059 8.13323 5.47024C8.13323 5.23165 7.94025 5.03516 7.69814 5.03516C7.45954 5.03516 7.26305 5.22814 7.26305 5.47024C7.26305 5.91586 7.03498 6.32989 6.66305 6.56849C6.45954 6.69481 6.39288 6.96147 6.51919 7.16498C6.64551 7.36849 6.91218 7.43516 7.11568 7.30884C7.1227 7.30533 7.12621 7.30182 7.13323 7.29831Z" fill="#628A40"/>
<circle cx="6" cy="6" r="6" stroke="#E1DED7"/>
</g>
</g>
<defs>
<clipPath id="clip0_14_1711">
<rect width="12" height="12" rx="1.12281" fill="white"/>
</clipPath>
</defs>
</svg>
