<svg width="12" height="12" viewBox="0 0 12 12" fill="none" xmlns="http://www.w3.org/2000/svg">
<mask id="mask0_277_2806" style="mask-type:alpha" maskUnits="userSpaceOnUse" x="0" y="0" width="12" height="12">
<circle cx="6" cy="6" r="6" fill="#D9D9D9"/>
</mask>
<g mask="url(#mask0_277_2806)">
<g clip-path="url(#clip0_277_2806)">
<path d="M15 0H-3V12H15V0Z" fill="#0052B4"/>
<path d="M8.45966 5.66737C8.92009 5.66737 9.29335 5.29412 9.29335 4.83368C9.29335 4.37325 8.92009 4 8.45966 4C7.99923 4 7.62598 4.37325 7.62598 4.83368C7.62598 5.29412 7.99923 5.66737 8.45966 5.66737Z" fill="#6DA544"/>
<path d="M9.9193 4.62317H7.00281V5.87229H9.9193V4.62317Z" fill="#D80027"/>
<path d="M7.00281 7.74744V8.58112H7.4407C7.70456 8.83937 8.06386 8.99656 8.45965 8.99656C8.85544 8.99656 9.21754 8.83656 9.4786 8.58112H9.50105H9.91649V7.74744H7.00281Z" fill="#FFDA44"/>
<path d="M7.00281 5.66455V6.91367C7.00281 8.03087 8.45965 8.37052 8.45965 8.37052C8.45965 8.37052 9.91649 8.02806 9.91649 6.91367V5.66455H7.00281Z" fill="#338AF3"/>
<path d="M8.45971 6.33276C8.0948 6.33276 8.0948 6.6668 7.72989 6.6668C7.36497 6.6668 7.36497 6.33276 7.00006 6.33276V6.91662C7.36497 6.91662 7.36497 7.25066 7.72989 7.25066C8.0948 7.25066 8.0948 6.91662 8.45971 6.91662C8.82462 6.91662 8.82462 7.25066 9.18953 7.25066C9.55445 7.25066 9.55445 6.91662 9.91936 6.91662V6.33276C9.55445 6.33276 9.55445 6.6668 9.18953 6.6668C8.82462 6.6668 8.82462 6.33276 8.45971 6.33276Z" fill="#F3F3F3"/>
<path d="M8.45965 5.16504C8.09474 5.16504 8.09474 5.49907 7.72982 5.49907C7.36491 5.49907 7.36491 5.16504 7 5.16504V5.7489C7.36491 5.7489 7.36491 6.08293 7.72982 6.08293C8.09474 6.08293 8.09474 5.7489 8.45965 5.7489C8.82456 5.7489 8.82456 6.08293 9.18947 6.08293C9.55439 6.08293 9.55439 5.7489 9.9193 5.7489V5.16504C9.55439 5.16504 9.55439 5.49907 9.18947 5.49907C8.82456 5.49907 8.82456 5.16504 8.45965 5.16504Z" fill="#F3F3F3"/>
<path d="M5.98246 0V0.792982L4.36491 1.87018H5.98246V4.11579H4.36491L5.98246 5.19298V5.98947H5.18947L2.61404 4.27018V5.98947H0.368421V4.27018L-2.20702 5.98947H-3V5.19298L-1.38246 4.11579H-3V1.87018H-1.38246L-3 0.792982V0H-2.20702L0.368421 1.71579V0H2.61404V1.71579L5.18947 0H5.98246Z" fill="white"/>
<path d="M2.05263 0H0.929825V2.43158H-3V3.55439H0.929825V5.98947H2.05263V3.55439H5.98246V2.43158H2.05263V0Z" fill="#D80027"/>
<path d="M5.98243 0V0.529825L3.9684 1.87018H3.17542L5.98243 0Z" fill="#D80027"/>
<path d="M5.98243 0V0.529825L3.9684 1.87018H3.17542L5.98243 0Z" fill="#D80027"/>
<path d="M5.98243 5.98953V5.4597L3.9684 4.11584H3.17542L5.98243 5.98953Z" fill="#D80027"/>
</g>
<circle cx="6" cy="6" r="6" stroke="#E1DED7"/>
</g>
<defs>
<clipPath id="clip0_277_2806">
<rect width="18" height="12" fill="white" transform="translate(-3)"/>
</clipPath>
</defs>
</svg>
