<svg width="12" height="12" viewBox="0 0 12 12" fill="none" xmlns="http://www.w3.org/2000/svg">
<g clip-path="url(#clip0_23259_161502)">
<path d="M6 12C9.31371 12 12 9.31371 12 6C12 2.68629 9.31371 0 6 0C2.68629 0 0 2.68629 0 6C0 9.31371 2.68629 12 6 12Z" fill="#F0F0F0"/>
<path d="M12 5.99998C12 3.62121 10.6156 1.56584 8.60864 0.595337V11.4046C10.6156 10.4341 12 8.37874 12 5.99998V5.99998Z" fill="#D80027"/>
<path d="M0 5.99998C0 8.37874 1.38434 10.4341 3.39131 11.4046V0.595337C1.38434 1.56584 0 3.62121 0 5.99998Z" fill="#6DA544"/>
<path d="M4.43481 6.00001C4.43481 6.86446 5.1356 7.56524 6.00004 7.56524C6.86449 7.56524 7.56527 6.86446 7.56527 6.00001V5.47827H4.43481V6.00001Z" fill="#6DA544"/>
<path d="M8.08702 4.95656H6.5218C6.5218 4.66842 6.28819 4.43481 6.00005 4.43481C5.71191 4.43481 5.47831 4.66842 5.47831 4.95656H3.91309C3.91309 5.24472 4.16408 5.4783 4.4522 5.4783H4.43483C4.43483 5.76646 4.66841 6.00004 4.95657 6.00004C4.95657 6.28821 5.19015 6.52178 5.47831 6.52178H6.5218C6.80996 6.52178 7.04354 6.28821 7.04354 6.00004C7.3317 6.00004 7.56528 5.76646 7.56528 5.4783H7.54789C7.83605 5.4783 8.08702 5.24472 8.08702 4.95656Z" fill="#FF9811"/>
</g>
<defs>
<clipPath id="clip0_23259_161502">
<rect width="12" height="12" fill="white"/>
</clipPath>
</defs>
</svg>
