<svg width="12" height="12" viewBox="0 0 12 12" fill="none" xmlns="http://www.w3.org/2000/svg">
<mask id="mask0_109_10435" style="mask-type:alpha" maskUnits="userSpaceOnUse" x="0" y="0" width="12" height="12">
<circle cx="6" cy="6" r="6" fill="#D9D9D9"/>
</mask>
<g mask="url(#mask0_109_10435)">
<g clip-path="url(#clip0_109_10435)">
<path d="M13.0641 1.29922L1.29919 -1.06433L-1.06436 10.7006L10.7006 13.0642L13.0641 1.29922Z" fill="#D80027"/>
<path d="M13.0412 1.29461L1.29919 -1.06433L-1.06436 10.7006" fill="#6DA544"/>
<path d="M8.35585 0.35334L-0.0449911 5.62654L-1.06436 10.7006L3.68059 11.6539L12.0378 6.40768L13.0641 1.29922L8.35585 0.35334Z" fill="#FFDA44"/>
<path d="M13.0641 1.29922L10.1332 0.710407L-0.424404 7.51512L-1.05745 10.6662L1.82986 11.282L12.4311 4.4503L13.0641 1.29922Z" fill="black"/>
<path d="M2.78715 6.34788L3.53205 7.08159L4.41059 6.5314L3.99039 7.53395L4.73296 8.26466L3.73075 8.15168L3.30799 9.15402L3.1093 8.08393L2.10708 7.97095L2.98561 7.42076L2.78715 6.34788Z" fill="white"/>
<path d="M7.39652 3.46898L8.14166 4.1999L9.02019 3.64971L8.59999 4.65226L9.34257 5.38297L8.34036 5.26999L7.9176 6.27233L7.7189 5.20224L6.71669 5.08926L7.59778 4.53928L7.39652 3.46898Z" fill="white"/>
</g>
<circle cx="5.99988" cy="5.99991" r="6" transform="rotate(11.3594 5.99988 5.99991)" stroke="#E1DED7"/>
</g>
<defs>
<clipPath id="clip0_109_10435">
<rect width="12" height="12" fill="white" transform="translate(1.29919 -1.06433) rotate(11.3594)"/>
</clipPath>
</defs>
</svg>
