<svg width="12" height="12" viewBox="0 0 12 12" fill="none" xmlns="http://www.w3.org/2000/svg">
<mask id="mask0_97_8655" style="mask-type:alpha" maskUnits="userSpaceOnUse" x="0" y="0" width="12" height="12">
<circle cx="6" cy="6" r="6" fill="#D9D9D9"/>
</mask>
<g mask="url(#mask0_97_8655)">
<g clip-path="url(#clip0_97_8655)">
<path d="M15 0H-3V12H15V0Z" fill="#2E52B2"/>
<path d="M5.98246 0V0.792982L4.36491 1.87018H5.98246V4.11579H4.36491L5.98246 5.19298V5.98947H5.18947L2.61404 4.27018V5.98947H0.368421V4.27018L-2.20702 5.98947H-3V5.19298L-1.38246 4.11579H-3V1.87018H-1.38246L-3 0.792982V0H-2.20702L0.368421 1.71579V0H2.61404V1.71579L5.18947 0H5.98246Z" fill="white"/>
<path d="M2.05263 0H0.929825V2.43158H-3V3.55439H0.929825V5.98947H2.05263V3.55439H5.98246V2.43158H2.05263V0Z" fill="#D80027"/>
<path d="M5.98243 0V0.529825L3.9684 1.87018H3.17542L5.98243 0Z" fill="#D80027"/>
<path d="M5.98243 0V0.529825L3.9684 1.87018H3.17542L5.98243 0Z" fill="#D80027"/>
<path d="M5.98243 5.98953V5.4597L3.9684 4.11584H3.17542L5.98243 5.98953Z" fill="#D80027"/>
<path d="M7 6.5723V8.40043C7 9.62448 8.59961 10 8.59961 10C8.59961 10 10.1972 9.6225 10.1972 8.39844V6.57031L8.59763 6.11328L7 6.5723Z" fill="#F3F3F3"/>
<path d="M10.1972 6.68555V6H7V6.68555H8.3711V8.05665H7V8.51368H8.3711V9.92849C8.50821 9.97817 8.59961 9.99804 8.59961 9.99804C8.59961 9.99804 8.69102 9.97618 8.82813 9.92849V8.51368H10.1992V8.05665H8.82813V6.68555H10.1972Z" fill="#D80027"/>
</g>
<circle cx="6" cy="6" r="6" stroke="#E1DED7"/>
</g>
<defs>
<clipPath id="clip0_97_8655">
<rect width="18" height="12" fill="white" transform="translate(-3)"/>
</clipPath>
</defs>
</svg>
