<svg width="12" height="12" viewBox="0 0 12 12" fill="none" xmlns="http://www.w3.org/2000/svg">
<g clip-path="url(#clip0_23259_161542)">
<path d="M6 12C9.31371 12 12 9.31371 12 6C12 2.68629 9.31371 0 6 0C2.68629 0 0 2.68629 0 6C0 9.31371 2.68629 12 6 12Z" fill="#6DA544"/>
<path d="M5.99997 2.34778L10.9565 5.99995L5.99997 9.65212L1.04346 5.99995L5.99997 2.34778Z" fill="#FFDA44"/>
<path d="M6.00003 8.08698C7.15262 8.08698 8.08698 7.15262 8.08698 6.00003C8.08698 4.84744 7.15262 3.91309 6.00003 3.91309C4.84744 3.91309 3.91309 4.84744 3.91309 6.00003C3.91309 7.15262 4.84744 8.08698 6.00003 8.08698Z" fill="#F0F0F0"/>
<path d="M4.95638 5.86963C4.59347 5.86963 4.24325 5.92482 3.91357 6.02725C3.92818 7.16725 4.85639 8.08703 5.99986 8.08703C6.70693 8.08703 7.33139 7.73507 7.7089 7.19715C7.06304 6.38863 6.06926 5.86963 4.95638 5.86963V5.86963Z" fill="#0052B4"/>
<path d="M8.04808 6.39987C8.0732 6.27041 8.08677 6.13684 8.08677 6.00003C8.08677 4.84742 7.15241 3.91309 5.99983 3.91309C5.13981 3.91309 4.40153 4.43342 4.08203 5.17634C4.36445 5.11782 4.65686 5.087 4.95637 5.087C6.16848 5.08698 7.26503 5.59084 8.04808 6.39987V6.39987Z" fill="#0052B4"/>
</g>
<defs>
<clipPath id="clip0_23259_161542">
<rect width="12" height="12" fill="white"/>
</clipPath>
</defs>
</svg>
