<svg width="12" height="12" viewBox="0 0 12 12" fill="none" xmlns="http://www.w3.org/2000/svg">
<mask id="mask0_105_9091" style="mask-type:alpha" maskUnits="userSpaceOnUse" x="0" y="0" width="12" height="12">
<circle cx="6" cy="6" r="6" fill="#D9D9D9"/>
</mask>
<g mask="url(#mask0_105_9091)">
<g clip-path="url(#clip0_105_9091)">
<path d="M18 0H0V12H18V0Z" fill="#003893"/>
<path d="M18 6H0V7H18V6Z" fill="white"/>
<path d="M18 7H0V8H18V7Z" fill="#CF2027"/>
<path d="M18 8H0V9H18V8Z" fill="white"/>
<path d="M3.99898 4L4.16243 4.49983H4.68832L4.26192 4.81015L4.42537 5.30998L3.99898 4.99966L3.57495 5.30998L3.73604 4.81015L3.31201 4.49983H3.8379L3.99898 4Z" fill="#F7D116"/>
<path d="M3.99898 8.96753L4.16243 9.46736H4.68832L4.26192 9.77531L4.42537 10.2775L3.99898 9.96718L3.57495 10.2775L3.73604 9.77531L3.31201 9.46736H3.8379L3.99898 8.96753Z" fill="#F7D116"/>
<path d="M1.68697 7.28796L1.85042 7.78779H2.3763L1.94991 8.09574L2.11336 8.59794L1.68697 8.28762L1.26294 8.59794L1.42402 8.09574L1 7.78779H1.52589L1.68697 7.28796Z" fill="#F7D116"/>
<path d="M2.57044 4.49756L2.73389 4.99739H3.25978L2.83338 5.30534L2.99683 5.80753L2.57044 5.49721L2.14641 5.80753L2.3075 5.30534L1.8811 4.99739H2.40936L2.57044 4.49756Z" fill="#F7D116"/>
<path d="M1 6.17939H1.52589L1.68697 5.67957L1.85042 6.17939H2.3763L1.94991 6.48971L2.11336 6.98954L1.68697 6.68159L1.26294 6.98954L1.42402 6.48971L1 6.17939Z" fill="#F7D116"/>
<path d="M2.14641 9.7067L2.3075 9.20688L1.8811 8.89892H2.40936L2.57044 8.39673L2.73389 8.89892H3.25978L2.83338 9.20688L2.99683 9.7067L2.57044 9.39875L2.14641 9.7067Z" fill="#F7D116"/>
<path d="M6.31067 7.28796L6.14722 7.78779H5.62134L6.04773 8.09574L5.88428 8.59794L6.31067 8.28762L6.73707 8.59794L6.57362 8.09574L7.00001 7.78779H6.47412L6.31067 7.28796Z" fill="#F7D116"/>
<path d="M5.42732 4.49756L5.26624 4.99739H4.74036L5.16438 5.30534L5.0033 5.80753L5.42732 5.49721L5.85372 5.80753L5.69027 5.30534L6.11666 4.99739H5.59077L5.42732 4.49756Z" fill="#F7D116"/>
<path d="M7.00001 6.17939H6.47412L6.31067 5.67957L6.14722 6.17939H5.62134L6.04773 6.48971L5.88428 6.98954L6.31067 6.68159L6.73707 6.98954L6.57362 6.48971L7.00001 6.17939Z" fill="#F7D116"/>
<path d="M5.85372 9.7067L5.69027 9.20688L6.11666 8.89892H5.59077L5.42732 8.39673L5.26624 8.89892H4.74036L5.16438 9.20688L5.0033 9.7067L5.42732 9.39875L5.85372 9.7067Z" fill="#F7D116"/>
</g>
<circle cx="6" cy="6" r="6" stroke="#E1DED7"/>
</g>
<defs>
<clipPath id="clip0_105_9091">
<rect width="18" height="12" fill="white"/>
</clipPath>
</defs>
</svg>
