<svg width="12" height="12" viewBox="0 0 12 12" fill="none" xmlns="http://www.w3.org/2000/svg">
<g clip-path="url(#clip0_19_4097)">
<mask id="mask0_19_4097" style="mask-type:alpha" maskUnits="userSpaceOnUse" x="0" y="0" width="12" height="12">
<circle cx="6" cy="6" r="6" fill="#D9D9D9"/>
</mask>
<g mask="url(#mask0_19_4097)">
<path d="M14.9825 0.00012207H-2.98242V11.9765H14.9825V0.00012207Z" fill="white"/>
<path d="M14.9825 0.00012207H-2.98242V3.99223H14.9825V0.00012207Z" fill="#0052B4"/>
<path d="M14.9825 7.98438H-2.98242V11.9765H14.9825V7.98438Z" fill="#0052B4"/>
<path d="M5.03809 6.19655L6.00012 4.53027L6.96216 6.19655H5.03809Z" fill="#FFDA44"/>
<path d="M7.24937 6.7467L5.99968 7.37157L4.75 6.7467V5.91357H7.24937V6.7467Z" fill="#6DA544"/>
<path d="M7.17799 4.60181L6.73616 5.04363C6.92458 5.23212 7.04118 5.49244 7.04118 5.78005C7.04118 6.35521 6.5749 6.82146 5.99978 6.82146C5.42462 6.82146 4.95837 6.35518 4.95837 5.78005C4.95837 5.49251 5.07493 5.23212 5.26339 5.04363L4.82157 4.60181C4.52002 4.90335 4.3335 5.31991 4.3335 5.78002C4.3335 6.7003 5.0795 7.4463 5.99978 7.4463C6.92006 7.4463 7.66606 6.7003 7.66606 5.78002C7.66606 5.31988 7.47953 4.90328 7.17799 4.60181Z" fill="#FFDA44"/>
<circle cx="6" cy="6" r="6" stroke="#E1DED7"/>
</g>
</g>
<defs>
<clipPath id="clip0_19_4097">
<rect width="12" height="11.9649" rx="1.12281" fill="white"/>
</clipPath>
</defs>
</svg>
