<svg width="12" height="12" viewBox="0 0 12 12" fill="none" xmlns="http://www.w3.org/2000/svg">
<mask id="mask0_109_10073" style="mask-type:alpha" maskUnits="userSpaceOnUse" x="0" y="0" width="12" height="12">
<circle cx="6" cy="6" r="6" fill="#D9D9D9"/>
</mask>
<g mask="url(#mask0_109_10073)">
<g clip-path="url(#clip0_109_10073)">
<path d="M15 -0.00012207H-3V12H15V-0.00012207Z" fill="#FFDA44"/>
<path d="M4 -0.00012207H-3V11.9999H4V-0.00012207Z" fill="#338AF3"/>
<path d="M15 0H8V12H15V0Z" fill="#6DA544"/>
<path d="M4.88892 6.83555L4 5.50226L4.88889 4.16895L5.77779 5.50226L4.88892 6.83555Z" fill="#6DA544"/>
<path d="M7.11104 6.83555L6.22217 5.50226L7.11104 4.16895L7.99996 5.50226L7.11104 6.83555Z" fill="#6DA544"/>
<path d="M6.00007 8.61328L5.11121 7.27997L6.00007 5.94666L6.88894 7.27997L6.00007 8.61328Z" fill="#6DA544"/>
</g>
<circle cx="6" cy="6" r="6" stroke="#E1DED7"/>
</g>
<defs>
<clipPath id="clip0_109_10073">
<rect width="18" height="12" fill="white" transform="translate(-3)"/>
</clipPath>
</defs>
</svg>
