<svg width="12" height="12" viewBox="0 0 12 12" fill="none" xmlns="http://www.w3.org/2000/svg">
<mask id="mask0_89_4914" style="mask-type:alpha" maskUnits="userSpaceOnUse" x="0" y="0" width="12" height="12">
<circle cx="6" cy="6" r="6" fill="#D9D9D9"/>
</mask>
<g mask="url(#mask0_89_4914)">
<g clip-path="url(#clip0_89_4914)">
<path d="M15 0H-3V12H15V0Z" fill="black"/>
<path d="M15 0H-3V4H15V0Z" fill="#D80027"/>
<path d="M15 8H-3V12H15V8Z" fill="#496E2D"/>
<path d="M6.87367 5.28772L7.18946 5.7193L7.69823 5.55439L7.38244 5.98947L7.69823 6.42105L7.18946 6.25614L6.87367 6.68772V6.15439L6.3649 5.98947L6.87367 5.82456V5.28772Z" fill="white"/>
<path d="M6.01754 7.07013C5.42105 7.07013 4.93333 6.58592 4.93333 5.98592C4.93333 5.38592 5.41754 4.90171 6.01754 4.90171C6.2035 4.90171 6.37894 4.94732 6.53333 5.03153C6.29122 4.79645 5.96491 4.65259 5.6 4.65259C4.86315 4.65259 4.26666 5.24908 4.26666 5.98592C4.26666 6.72276 4.86315 7.31925 5.6 7.31925C5.9614 7.31925 6.29122 7.17539 6.53333 6.94031C6.37894 7.02452 6.2035 7.07013 6.01754 7.07013Z" fill="white"/>
</g>
<circle cx="6" cy="6" r="6" stroke="#E1DED7"/>
</g>
<defs>
<clipPath id="clip0_89_4914">
<rect width="18" height="12" fill="white" transform="translate(-3)"/>
</clipPath>
</defs>
</svg>
