<svg width="12" height="12" viewBox="0 0 12 12" fill="none" xmlns="http://www.w3.org/2000/svg">
<mask id="mask0_97_8086" style="mask-type:alpha" maskUnits="userSpaceOnUse" x="0" y="0" width="12" height="12">
<circle cx="6" cy="6" r="6" fill="#D9D9D9"/>
</mask>
<g mask="url(#mask0_97_8086)">
<g clip-path="url(#clip0_97_8086)">
<path d="M15 0.00012207H-3V11.9999H15V0.00012207Z" fill="#496E2D"/>
<path d="M-3 11.9999V0.00012207H15" fill="#0052B4"/>
<path d="M15 2.35155V0.00012207H11.4728L-3 9.64845V11.9999H0.52723L15 2.35155Z" fill="white"/>
<path d="M15 0.00012207V1.41077L-0.883838 11.9999H-3V10.5892L12.8839 0.00012207H15Z" fill="#A2001D"/>
<path d="M4.7 3.35L4.14835 3.62275L4.44211 4.18436L3.84311 4.0639L3.76721 4.7L3.35 4.23215L2.93276 4.7L2.85686 4.0639L2.25786 4.18434L2.5516 3.62275L2 3.35L2.55162 3.07723L2.25786 2.51566L2.85686 2.63607L2.93279 2L3.35 2.46785L3.76724 2L3.84311 2.63607L4.44211 2.51566L4.1484 3.07728L4.7 3.35Z" fill="#FFDA44"/>
</g>
<circle cx="6" cy="6" r="6" stroke="#E1DED7"/>
</g>
<defs>
<clipPath id="clip0_97_8086">
<rect width="18" height="12" fill="white" transform="translate(-3)"/>
</clipPath>
</defs>
</svg>
