<svg width="12" height="12" viewBox="0 0 12 12" fill="none" xmlns="http://www.w3.org/2000/svg">
<mask id="mask0_65_829" style="mask-type:alpha" maskUnits="userSpaceOnUse" x="0" y="0" width="12" height="12">
<circle cx="6" cy="6" r="6" fill="#D9D9D9"/>
</mask>
<g mask="url(#mask0_65_829)">
<g clip-path="url(#clip0_65_829)">
<path d="M-1.95259 0H14.0287V12H-1.95259V0Z" fill="white"/>
<path d="M4.89653 4.8H-2.5614V7.2H4.89653V12H7.17957V7.2H14.6375V4.8H7.17957V0H4.89653V4.8Z" fill="#EB000E"/>
<path d="M9.38027 2.99648L9.26853 2.24561H9.82725L9.71551 2.99648L10.386 2.87134V3.49707L9.71551 3.37192L9.82725 4.1228H9.26853L9.38027 3.37192L8.70981 3.49707V2.87134L9.38027 2.99648ZM2.28451 2.99648L2.17277 2.24561H2.73149L2.61974 2.99648L3.29021 2.87134V3.49707L2.61974 3.37192L2.73149 4.1228H2.17277L2.28451 3.37192L1.61404 3.49707V2.87134L2.28451 2.99648ZM2.28451 8.62806L2.17277 7.87718H2.73149L2.61974 8.62806L3.29021 8.50292V9.12865L2.61974 9.0035L2.73149 9.75438H2.17277L2.28451 9.0035L1.61404 9.12865V8.50292L2.28451 8.62806ZM9.38027 8.62806L9.26853 7.87718H9.82725L9.71551 8.62806L10.386 8.50292V9.12865L9.71551 9.0035L9.82725 9.75438H9.26853L9.38027 9.0035L8.70981 9.12865V8.50292L9.38027 8.62806Z" fill="#EB000E"/>
<circle cx="6.00012" cy="6" r="6" stroke="#E1DED7"/>
</g>
</g>
<defs>
<clipPath id="clip0_65_829">
<rect width="17.1228" height="12" fill="white" transform="translate(-2.5614)"/>
</clipPath>
</defs>
</svg>
