<svg width="12" height="12" viewBox="0 0 12 12" fill="none" xmlns="http://www.w3.org/2000/svg">
<g clip-path="url(#clip0_244_3578)">
<rect width="12" height="12" rx="6" fill="#CE1126"/>
<g clip-path="url(#clip1_244_3578)">
<path d="M15 0H-3V11.6472H15V0Z" fill="#0052B4"/>
<path d="M7 6V8.44441C7 9.63513 8.67237 10 8.67237 10C8.67237 10 10.3447 9.63516 10.3447 8.44441V6H7Z" fill="#FFDA44"/>
<path d="M8.43345 6.88902C8.43345 7.13449 8.21953 7.77792 7.95565 7.77792C7.69176 7.77792 7.47784 7.13452 7.47784 6.88902C7.47784 6.64352 7.95565 6.44458 7.95565 6.44458C7.95565 6.44458 8.43345 6.64355 8.43345 6.88902Z" fill="#FF9811"/>
<path d="M9.7014 7.37308C9.77848 7.19808 9.83846 6.9423 9.83846 6.81496C9.83846 6.61039 9.55178 6.44458 9.55178 6.44458C9.55178 6.44458 9.2651 6.61039 9.2651 6.81496C9.2651 6.9423 9.32505 7.19808 9.40216 7.37308L9.23663 7.72067C9.33393 7.75749 9.44025 7.77789 9.55178 7.77789C9.66327 7.77789 9.76962 7.75745 9.86692 7.72067L9.7014 7.37308Z" fill="#A2001D"/>
<path d="M8.31401 8.44451C8.31401 8.44451 8.07507 8.88895 8.07507 9.33342C8.07507 9.33342 8.79181 9.33342 9.26961 9.33342C9.26961 8.88898 9.03068 8.44451 9.03068 8.44451L8.67233 8.22229L8.31401 8.44451Z" fill="#6DA544"/>
<path d="M9.03073 8.44441V8.33331C9.03073 8.14922 8.87029 8 8.67238 8C8.47446 8 8.31403 8.14925 8.31403 8.33331V8.44441H9.03073Z" fill="#D80027"/>
<path d="M6 0V1.04254L4.4121 1.89897H6V3.92444H3.92216L6 5.04484V5.82341H5.06203L2.47826 4.43033V5.82341H0.521742V4.16599L-2.55197 5.82341H-3V4.78084L-1.4121 3.92444H-3V1.89897H-0.92216L-3 0.778193V0H-2.06203L0.521742 1.39304V0H2.47826V1.65739L5.55197 0H6Z" fill="white"/>
<path d="M2.0625 -0.00012207H0.9375V2.36564H-3V3.45756H0.9375V5.82339H2.0625V3.45756H6V2.36564H2.0625V-0.00012207Z" fill="#D80027"/>
<path d="M2.47827 3.92444L6.00001 5.82341V5.28643L3.47414 3.92444H2.47827Z" fill="#0052B4"/>
<path d="M2.47827 3.92444L6.00001 5.82341V5.28643L3.47414 3.92444H2.47827Z" fill="white"/>
<path d="M2.47827 3.92444L6.00001 5.82341V5.28643L3.47414 3.92444H2.47827Z" fill="#D80027"/>
<path d="M-0.474164 3.92444L-3 5.28643V5.82341L0.521742 3.92444H-0.474164Z" fill="#D80027"/>
<path d="M0.521742 1.89885L-3 -0.00012207V0.53686L-0.474129 1.89885H0.521742Z" fill="#0052B4"/>
<path d="M0.521742 1.89885L-3 -0.00012207V0.53686L-0.474129 1.89885H0.521742Z" fill="white"/>
<path d="M0.521742 1.89885L-3 -0.00012207V0.53686L-0.474129 1.89885H0.521742Z" fill="#D80027"/>
<path d="M3.47418 1.89885L6.00001 0.53686V-0.00012207L2.47827 1.89885H3.47418Z" fill="#D80027"/>
</g>
</g>
<rect x="0.25" y="0.25" width="11.5" height="11.5" rx="5.75" stroke="#E1DED7" stroke-width="0.5"/>
<defs>
<clipPath id="clip0_244_3578">
<rect width="12" height="12" rx="6" fill="white"/>
</clipPath>
<clipPath id="clip1_244_3578">
<rect width="18" height="11.6471" fill="white" transform="translate(-3)"/>
</clipPath>
</defs>
</svg>
