<svg width="12" height="12" viewBox="0 0 12 12" fill="none" xmlns="http://www.w3.org/2000/svg">
<mask id="mask0_65_817" style="mask-type:alpha" maskUnits="userSpaceOnUse" x="0" y="0" width="12" height="12">
<circle cx="6" cy="6" r="6" fill="#D9D9D9"/>
</mask>
<g mask="url(#mask0_65_817)">
<g clip-path="url(#clip0_65_817)">
<path d="M14.8772 -0.0350342H-3.08771V11.9413H14.8772V-0.0350342Z" fill="white"/>
<path d="M14.8772 -0.0350342V5.95314H5.89475L-3.08771 -0.0350342H14.8772Z" fill="#0052B4"/>
<path d="M14.8772 5.95312V11.9413H-3.08771L5.89475 5.95312H14.8772Z" fill="#D80027"/>
<path d="M2.80725 5.96455L2.34129 5.74479L2.58944 5.29229L2.08345 5.38934L2.01933 4.87683L1.66689 5.25377L1.31447 4.87683L1.25035 5.38934L0.744384 5.29228L0.992509 5.74477L0.52655 5.96455L0.992509 6.18431L0.744384 6.63681L1.25038 6.53976L1.31447 7.05227L1.66689 6.67533L2.01933 7.05227L2.08345 6.53976L2.58942 6.63682L2.34128 6.18434L2.80725 5.96455Z" fill="#FFDA44"/>
<path d="M3.63837 5.61365L3.48296 5.83167L3.22833 5.75073L3.38694 5.96641L3.23153 6.18445L3.48496 6.09973L3.64357 6.3154L3.64157 6.04737L3.895 5.96264L3.64035 5.8817L3.63837 5.61365Z" fill="#FFDA44"/>
</g>
<circle cx="6" cy="6" r="6" stroke="#E1DED7"/>
</g>
<defs>
<clipPath id="clip0_65_817">
<rect width="17.9649" height="11.9766" fill="white" transform="translate(-3.08771 -0.0351562)"/>
</clipPath>
</defs>
</svg>
