<svg width="12" height="12" viewBox="0 0 12 12" fill="none" xmlns="http://www.w3.org/2000/svg">
<mask id="mask0_109_10311" style="mask-type:alpha" maskUnits="userSpaceOnUse" x="0" y="0" width="12" height="12">
<circle cx="6" cy="6" r="6" fill="#D9D9D9"/>
</mask>
<g mask="url(#mask0_109_10311)">
<g clip-path="url(#clip0_109_10311)">
<path d="M13 0H-1V12H13V0Z" fill="#496E2D"/>
<path d="M-1 3.88416V5.28766V6.69117V8.09468H13V6.69117V5.28766V3.88416H-1Z" fill="black"/>
<path d="M13 3.88416H-1V5.28766H13V3.88416Z" fill="#FFDA44"/>
<path d="M13 6.69128H-1V8.09479H13V6.69128Z" fill="white"/>
<path d="M7.62373 0H4.34888V12H7.62373V0Z" fill="black"/>
<path d="M5.44049 0H4.34888V12H5.44049V0Z" fill="#FFDA44"/>
<path d="M7.58832 0H6.4967V12H7.58832V0Z" fill="white"/>
<path d="M6 9C7.65685 9 9 7.65685 9 6C9 4.34315 7.65685 3 6 3C4.34315 3 3 4.34315 3 6C3 7.65685 4.34315 9 6 9Z" fill="#D80027"/>
<path d="M6.00024 3.26807L6.11235 3.61413H6.4779L6.18302 3.83102L6.29513 4.17708L6.00024 3.96262L5.70536 4.17708L5.81747 3.83102L5.52258 3.61413H5.88814L6.00024 3.26807Z" fill="#496E2D"/>
<path d="M4.3942 3.78955L4.69152 4.00401L4.98641 3.78955L4.8743 4.13805L5.16918 4.35251H4.80363L4.69152 4.69857L4.57698 4.35251H4.21143L4.50631 4.13805L4.3942 3.78955Z" fill="#496E2D"/>
<path d="M3.4021 5.15441H3.76766L3.87976 4.80835L3.9943 5.15441H4.35986L4.06254 5.36887L4.17708 5.71737L3.87976 5.50291L3.58488 5.71737L3.69698 5.36887L3.4021 5.15441Z" fill="#496E2D"/>
<path d="M3.4021 6.84323L3.69698 6.62877L3.58488 6.28027L3.87976 6.49473L4.17708 6.28027L4.06254 6.62877L4.35986 6.84323H3.9943L3.87976 7.19173L3.76766 6.84323H3.4021Z" fill="#496E2D"/>
<path d="M4.3942 8.2104L4.50631 7.86191L4.21143 7.64745H4.57698L4.69152 7.29895L4.80363 7.64745H5.16918L4.8743 7.86191L4.98641 8.2104L4.69152 7.99351L4.3942 8.2104Z" fill="#496E2D"/>
<path d="M6.00024 8.73189L5.88814 8.38339H5.52258L5.81747 8.16893L5.70536 7.82043L6.00024 8.03489L6.29513 7.82043L6.18302 8.16893L6.4779 8.38339H6.11235L6.00024 8.73189Z" fill="#496E2D"/>
<path d="M7.60616 8.2104L7.30884 7.99351L7.01395 8.2104L7.12606 7.86191L6.83118 7.64745H7.19673L7.30884 7.29895L7.42338 7.64745H7.78893L7.49405 7.86191L7.60616 8.2104Z" fill="#496E2D"/>
<path d="M8.59777 6.84323H8.23222L8.12011 7.19173L8.00557 6.84323H7.64001L7.93733 6.62877L7.82279 6.28027L8.12011 6.49473L8.41499 6.28027L8.30289 6.62877L8.59777 6.84323Z" fill="#496E2D"/>
<path d="M8.59777 5.15441L8.30289 5.36887L8.41499 5.71737L8.12011 5.50291L7.82279 5.71737L7.93733 5.36887L7.64001 5.15441H8.00557L8.12011 4.80835L8.23222 5.15441H8.59777Z" fill="#496E2D"/>
<path d="M7.60616 3.78955L7.49405 4.13805L7.78893 4.35251H7.42338L7.30884 4.69857L7.19673 4.35251H6.83118L7.12606 4.13805L7.01395 3.78955L7.30884 4.00401L7.60616 3.78955Z" fill="#496E2D"/>
<path d="M6.56776 5.95127C6.29968 5.43705 6.21439 5.33957 6.21439 5.33957C6.21439 5.33957 6.22414 5.10318 6.22414 4.95939C6.22414 4.74493 6.0438 4.57434 5.82202 4.57434C5.61244 4.57434 5.43941 4.64502 5.41991 4.84242C5.31756 4.86435 5.21033 4.94233 5.21033 5.10318C5.21033 5.22016 5.2347 5.28108 5.33705 5.32982C5.38823 5.21772 5.44185 5.21285 5.5637 5.17385C5.58319 5.18848 5.60513 5.24696 5.62706 5.25671L5.63437 5.28108C5.63437 5.28108 5.31025 5.44193 5.31025 6.03413C5.31025 6.75306 5.8464 7.14055 5.8464 7.14055L5.80253 7.14786L5.75622 7.32089H6.29237V7.14542L6.56045 7.5719C6.56776 7.56459 6.80903 6.41187 6.56776 5.95127Z" fill="#496E2D"/>
</g>
<circle cx="6" cy="6" r="6" stroke="#E1DED7"/>
</g>
<defs>
<clipPath id="clip0_109_10311">
<rect width="14" height="12" fill="white" transform="translate(-1)"/>
</clipPath>
</defs>
</svg>
