<svg width="12" height="12" viewBox="0 0 12 12" fill="none" xmlns="http://www.w3.org/2000/svg">
<mask id="mask0_109_9743" style="mask-type:alpha" maskUnits="userSpaceOnUse" x="0" y="0" width="12" height="12">
<circle cx="6" cy="6" r="6" fill="#D9D9D9"/>
</mask>
<g mask="url(#mask0_109_9743)">
<g clip-path="url(#clip0_109_9743)">
<path d="M15 0.00012207H-3V11.9999H15V0.00012207Z" fill="#FFDA44"/>
<path d="M15 0.00012207H-3V4.00003H15V0.00012207Z" fill="#6DA544"/>
<path d="M15 8H-3V11.9999H15V8Z" fill="#6DA544"/>
<path d="M6.00001 6.00018L-3 12V-0.00012207L6.00001 6.00018Z" fill="#D80027"/>
<path d="M7.61892 4.95654L7.87795 5.75368H8.71615L8.03805 6.24643L8.29702 7.04356L7.61892 6.55085L6.94086 7.04356L7.19982 6.24643L6.52173 5.75368H7.35992L7.61892 4.95654Z" fill="black"/>
<path d="M10.2276 4.95654L10.4866 5.75368H11.3248L10.6467 6.24643L10.9057 7.04356L10.2276 6.55085L9.54947 7.04356L9.80847 6.24643L9.13037 5.75368H9.96857L10.2276 4.95654Z" fill="black"/>
</g>
<circle cx="6" cy="6" r="6" stroke="#E1DED7"/>
</g>
<defs>
<clipPath id="clip0_109_9743">
<rect width="18" height="12" fill="white" transform="translate(-3)"/>
</clipPath>
</defs>
</svg>
