<svg width="12" height="12" viewBox="0 0 12 12" fill="none" xmlns="http://www.w3.org/2000/svg">
<mask id="mask0_65_822" style="mask-type:alpha" maskUnits="userSpaceOnUse" x="0" y="0" width="12" height="12">
<circle cx="6" cy="6" r="6" fill="#D9D9D9"/>
</mask>
<g mask="url(#mask0_65_822)">
<g clip-path="url(#clip0_65_822)">
<path d="M15.4035 0H-2.5965V12H15.4035V0Z" fill="#C60A0A"/>
<path d="M6.05262 5.87886L-1.10527 10.1403V1.61401L6.05262 5.87886Z" fill="#3E8446"/>
<path d="M6.04321 5.87988L13.1754 10.1423H-1.12282L6.04321 5.87988Z" fill="#FFDA44"/>
<path d="M13.1754 1.61401L6.04321 5.87983L-1.12282 1.61401H13.1754Z" fill="#FFDA44"/>
<path d="M13.1754 1.61401V10.1403L6.05263 5.87886L13.1754 1.61401Z" fill="#3E8446"/>
<path d="M6.01378 0.526367L6.09097 0.821262H6.38596L6.14887 1.0034L6.23984 1.2983L6.01378 1.11616L5.76014 1.2983L5.85112 1.0034L5.61403 0.821262H5.90902L6.01378 0.526367Z" fill="#FFDA44"/>
<path d="M3.56139 0.526367L3.6565 0.821262H3.9649L3.71703 1.0034L3.81214 1.2983L3.56139 1.11616L3.31064 1.2983L3.40575 1.0034L3.15788 0.821262H3.46628L3.56139 0.526367Z" fill="#FFDA44"/>
<path d="M8.43715 0.526367L8.53193 0.821262H8.8421L8.59224 1.0034L8.68701 1.2983L8.43715 1.11616L8.18729 1.2983L8.28207 1.0034L8.03508 0.821262H8.34238L8.43715 0.526367Z" fill="#FFDA44"/>
<path d="M5.98846 8.44964C7.41099 8.44964 8.56418 7.29646 8.56418 5.87393C8.56418 4.4514 7.41099 3.29822 5.98846 3.29822C4.56594 3.29822 3.41275 4.4514 3.41275 5.87393C3.41275 7.29646 4.56594 8.44964 5.98846 8.44964Z" fill="#C60A0A"/>
<path d="M5.98846 3.82556L6.44817 5.23848H7.93546L6.7321 6.11058L7.19181 7.5235L5.98846 6.65141L4.78849 7.5235L5.2482 6.11058L4.04485 5.23848H5.53213L5.98846 3.82556Z" fill="#FFDA44"/>
<path d="M2.027 5.79939C2.1764 6.02994 2.1051 6.33734 1.87082 6.48436C1.63655 6.63138 1.32418 6.56121 1.17479 6.33066C0.906557 5.91299 1.06274 5.22803 1.06274 5.22803C1.06274 5.22803 1.75538 5.38173 2.027 5.79939Z" fill="#FFDA44"/>
<path d="M1.66667 6.386C1.80231 6.386 1.91228 6.27604 1.91228 6.14039C1.91228 6.00474 1.80231 5.89478 1.66667 5.89478C1.53102 5.89478 1.42105 6.00474 1.42105 6.14039C1.42105 6.27604 1.53102 6.386 1.66667 6.386Z" fill="#A2001D"/>
<path d="M6.01378 10.421L6.09097 10.7159H6.38596L6.14887 10.8981L6.23984 11.193L6.01378 11.0108L5.76014 11.193L5.85112 10.8981L5.61403 10.7159H5.90902L6.01378 10.421Z" fill="#FFDA44"/>
<path d="M3.56139 10.421L3.6565 10.7159H3.9649L3.71703 10.8981L3.81214 11.193L3.56139 11.0108L3.31064 11.193L3.40575 10.8981L3.15788 10.7159H3.46628L3.56139 10.421Z" fill="#FFDA44"/>
<path d="M8.43715 10.421L8.53193 10.7159H8.8421L8.59224 10.8981L8.68701 11.193L8.43715 11.0108L8.18729 11.193L8.28207 10.8981L8.03508 10.7159H8.34238L8.43715 10.421Z" fill="#FFDA44"/>
<circle cx="6.00018" cy="6" r="6" stroke="#E1DED7"/>
</g>
</g>
<defs>
<clipPath id="clip0_65_822">
<rect width="18" height="12" fill="white" transform="translate(-2.5965)"/>
</clipPath>
</defs>
</svg>
