<svg width="12" height="12" viewBox="0 0 12 12" fill="none" xmlns="http://www.w3.org/2000/svg">
<mask id="mask0_76_1210" style="mask-type:alpha" maskUnits="userSpaceOnUse" x="0" y="0" width="12" height="12">
<circle cx="6" cy="6" r="6" fill="#D9D9D9"/>
</mask>
<g mask="url(#mask0_76_1210)">
<g clip-path="url(#clip0_76_1210)">
<path d="M14.9825 0H-3.01755V12H14.9825V0Z" fill="white"/>
<path d="M2.60265 5.54399C2.60265 5.54399 2.60772 7.24921 4.49607 7.20347L4.61014 7.55671H4.83572C4.83572 7.55671 4.64816 6.51223 6.35908 6.50207C6.35908 6.50207 6.35908 5.80066 7.05866 5.80066C7.75823 5.80066 8.11056 5.80066 8.11056 5.80066C8.11056 5.80066 6.43766 4.48426 9.6035 2.80191L9.64912 2.46899C9.64912 2.46899 6.35654 4.27333 4.6076 3.92263C4.6076 3.92263 4.87881 5.00269 4.33385 5.00269C4.06011 5.00269 4.08799 4.79684 3.51514 4.79684C3.04116 4.79684 3.07664 5.29748 2.84852 5.2924C2.62293 5.28732 2.372 4.97982 2.35172 5.03318C2.33397 5.08655 2.60265 5.54399 2.60265 5.54399Z" fill="#DB7D00"/>
<path d="M5.50521 9.57898C5.6803 9.45211 5.83509 9.41151 6.07362 9.36837C6.31215 9.32523 6.5659 9.25672 6.69786 9.22119C6.82981 9.18567 6.24871 9.38867 6.10153 9.43181C5.95436 9.47241 5.50521 9.57898 5.50521 9.57898Z" fill="#006651"/>
<path d="M6.46694 9.2059C6.41872 8.90393 6.53799 8.58928 6.80951 8.4624C6.87294 8.68063 6.67755 9.05111 6.46694 9.2059Z" fill="#006651"/>
<path d="M6.92876 9.04856C6.78159 8.79988 7.03027 8.47508 7.21043 8.31775C7.29417 8.47 7.14699 8.91915 6.92876 9.04856Z" fill="#006651"/>
<path d="M7.35761 8.85576C7.20028 8.64261 7.38552 8.26705 7.58091 8.11987C7.65958 8.32795 7.58345 8.70858 7.35761 8.85576Z" fill="#006651"/>
<path d="M7.78646 8.58675C7.64435 8.38375 7.74332 8.06909 7.94632 7.86609C8.0935 8.03357 7.96916 8.39897 7.78646 8.58675Z" fill="#006651"/>
<path d="M8.12902 8.31524C8.00976 8.12492 8.15694 7.6707 8.34725 7.54382C8.43099 7.7113 8.36755 8.18836 8.12902 8.31524Z" fill="#006651"/>
<path d="M8.40308 8.24421C8.36755 7.97015 8.84461 7.66819 9.04254 7.6758C9.0197 7.90164 8.8167 8.14778 8.40308 8.24421Z" fill="#006651"/>
<path d="M8.13664 8.55378C8.35995 8.32287 8.7964 8.32287 8.95119 8.37108C8.90806 8.50557 8.39547 8.79993 8.13664 8.55378Z" fill="#006651"/>
<path d="M7.82706 8.78463C8.14171 8.70089 8.34725 8.62984 8.53503 8.82777C8.40308 8.99525 7.8905 8.94703 7.82706 8.78463Z" fill="#006651"/>
<path d="M7.37792 8.98764C7.67989 8.82523 8.04529 9.06376 8.10112 9.20586C7.76362 9.34543 7.37284 9.02316 7.37792 8.98764Z" fill="#006651"/>
<path d="M6.96429 9.22115C7.23835 9.11711 7.553 9.25668 7.67988 9.41147C7.5327 9.47998 7.147 9.55611 6.96429 9.22115Z" fill="#006651"/>
<path d="M6.5862 9.34036C6.90085 9.30483 7.20536 9.54336 7.27133 9.68039C6.86786 9.71845 6.71307 9.59918 6.5862 9.34036Z" fill="#006651"/>
<path d="M6.4847 9.57898C6.30961 9.45211 6.15482 9.41151 5.91629 9.36837C5.67776 9.32523 5.424 9.25672 5.29205 9.22119C5.15756 9.18567 5.7412 9.38867 5.88837 9.43181C6.03555 9.47241 6.4847 9.57898 6.4847 9.57898Z" fill="#006651"/>
<path d="M5.52297 9.2059C5.57118 8.90393 5.45191 8.58928 5.1804 8.4624C5.11696 8.68063 5.31235 9.05111 5.52297 9.2059Z" fill="#006651"/>
<path d="M5.06114 9.04856C5.20831 8.79988 4.95963 8.47508 4.77947 8.31775C4.69573 8.47 4.84291 8.91915 5.06114 9.04856Z" fill="#006651"/>
<path d="M4.63229 8.85576C4.78962 8.64261 4.60438 8.26705 4.40899 8.11987C4.33032 8.32795 4.40645 8.70858 4.63229 8.85576Z" fill="#006651"/>
<path d="M4.20345 8.58675C4.34555 8.38375 4.24659 8.06909 4.04359 7.86609C3.89641 8.03357 4.02075 8.39897 4.20345 8.58675Z" fill="#006651"/>
<path d="M3.86088 8.31524C3.98014 8.12492 3.83297 7.6707 3.64265 7.54382C3.55891 7.7113 3.62235 8.18836 3.86088 8.31524Z" fill="#006651"/>
<path d="M3.58683 8.24421C3.62235 7.97015 3.14529 7.66819 2.94736 7.6758C2.9702 7.90164 3.17321 8.14778 3.58683 8.24421Z" fill="#006651"/>
<path d="M3.85327 8.55378C3.62997 8.32287 3.19351 8.32287 3.03872 8.37108C3.08186 8.50557 3.59444 8.79993 3.85327 8.55378Z" fill="#006651"/>
<path d="M4.16285 8.78463C3.84819 8.70089 3.64265 8.62984 3.45487 8.82777C3.58682 8.99525 4.09941 8.94703 4.16285 8.78463Z" fill="#006651"/>
<path d="M4.61199 8.98764C4.31003 8.82523 3.94462 9.06376 3.88879 9.20586C4.22629 9.34543 4.61707 9.02316 4.61199 8.98764Z" fill="#006651"/>
<path d="M5.02561 9.22115C4.75155 9.11711 4.4369 9.25668 4.31002 9.41147C4.4572 9.47998 4.8429 9.55611 5.02561 9.22115Z" fill="#006651"/>
<path d="M5.4037 9.34036C5.08905 9.30483 4.78454 9.54336 4.71857 9.68039C5.12204 9.71845 5.27683 9.59918 5.4037 9.34036Z" fill="#006651"/>
<circle cx="6.00003" cy="6" r="6" stroke="#E1DED7"/>
</g>
</g>
<defs>
<clipPath id="clip0_76_1210">
<rect width="18" height="12" fill="white" transform="translate(-3.01755)"/>
</clipPath>
</defs>
</svg>
