<svg width="12" height="12" viewBox="0 0 12 12" fill="none" xmlns="http://www.w3.org/2000/svg">
<mask id="mask0_98_8864" style="mask-type:alpha" maskUnits="userSpaceOnUse" x="0" y="0" width="12" height="12">
<circle cx="6" cy="6" r="6" fill="#D9D9D9"/>
</mask>
<g mask="url(#mask0_98_8864)">
<g clip-path="url(#clip0_98_8864)">
<path d="M15 0H-3V12.0001H15V0Z" fill="#496E2D"/>
<path d="M-3 11.9999V-0.00012207H15" fill="#0052B4"/>
<path d="M-3 10.9393V11.9999H-1.409L15 1.06054V-0.00012207H13.409L-3 10.9393Z" fill="#FFDA44"/>
<path d="M2.75831 1.82458L2.87831 2.19387H3.26658L2.95245 2.42208L3.07245 2.79138L2.75831 2.56315L2.44413 2.79138L2.56413 2.42208L2.25 2.19387H2.63829L2.75831 1.82458Z" fill="white"/>
<path d="M4.74166 1.82458L4.86169 2.19387H5.24998L4.93584 2.42208L5.05584 2.79138L4.74166 2.56315L4.42753 2.79138L4.54753 2.42208L4.2334 2.19387H4.62166L4.74166 1.82458Z" fill="white"/>
<path d="M2.75831 3.7583L2.87831 4.12758H3.26658L2.95245 4.35582L3.07245 4.72512L2.75831 4.49686L2.44413 4.72512L2.56413 4.35582L2.25 4.12758H2.63829L2.75831 3.7583Z" fill="white"/>
<path d="M4.74166 3.7583L4.86169 4.12758H5.24998L4.93584 4.35582L5.05584 4.72512L4.74166 4.49686L4.42753 4.72512L4.54753 4.35582L4.2334 4.12758H4.62166L4.74166 3.7583Z" fill="white"/>
<path d="M3.75001 2.79138L3.87001 3.16066H4.25832L3.94414 3.3889L4.06414 3.75823L3.75001 3.52997L3.43588 3.75823L3.55588 3.3889L3.2417 3.16066H3.63001L3.75001 2.79138Z" fill="white"/>
</g>
<circle cx="6" cy="6" r="6" stroke="#E1DED7"/>
</g>
<defs>
<clipPath id="clip0_98_8864">
<rect width="18" height="12" fill="white" transform="translate(-3)"/>
</clipPath>
</defs>
</svg>
