<svg width="12" height="12" viewBox="0 0 12 12" fill="none" xmlns="http://www.w3.org/2000/svg">
<mask id="mask0_97_8720" style="mask-type:alpha" maskUnits="userSpaceOnUse" x="0" y="0" width="12" height="12">
<circle cx="6" cy="6" r="6" fill="#D9D9D9"/>
</mask>
<g mask="url(#mask0_97_8720)">
<g clip-path="url(#clip0_97_8720)">
<path d="M18 0H0V12H18V0Z" fill="#0052B4"/>
<path d="M18 0H0V3H18V0Z" fill="#FFDA44"/>
<path d="M18 3H0V6H18V3Z" fill="white"/>
<path d="M18 6H0V9H18V6Z" fill="#D80027"/>
<path d="M9 6L0 12V0L9 6Z" fill="#6DA544"/>
<path d="M2.407 5.98951C2.407 5.11583 3.02103 4.38951 3.83858 4.21056C3.71226 4.18249 3.58244 4.16846 3.4491 4.16846C2.44209 4.16846 1.62805 4.986 1.62805 5.98951C1.62805 6.99302 2.4456 7.81056 3.4491 7.81056C3.58244 7.81056 3.71226 7.79653 3.83858 7.76846C3.02103 7.58951 2.407 6.85968 2.407 5.98951Z" fill="white"/>
<path d="M3.82105 4.42456L3.91579 4.72281H4.23158L3.97543 4.90877L4.07368 5.20702L3.82105 5.02456L3.56491 5.20702L3.66315 4.90877L3.41052 4.72281H3.7228L3.82105 4.42456Z" fill="white"/>
<path d="M3.82105 5.20703L3.91579 5.50528H4.23158L3.97543 5.69124L4.07368 5.98949L3.82105 5.80352L3.56491 5.98949L3.66315 5.69124L3.41052 5.50528H3.7228L3.82105 5.20703Z" fill="white"/>
<path d="M3.82105 5.9895L3.91579 6.28775H4.23158L3.97543 6.4702L4.07368 6.76845L3.82105 6.58599L3.56491 6.76845L3.66315 6.4702L3.41052 6.28775H3.7228L3.82105 5.9895Z" fill="white"/>
<path d="M3.82105 6.76843L3.91579 7.06668H4.23158L3.97543 7.25264L4.07368 7.55089L3.82105 7.36492L3.56491 7.55089L3.66315 7.25264L3.41052 7.06668H3.7228L3.82105 6.76843Z" fill="white"/>
</g>
<circle cx="6" cy="6" r="6" stroke="#E1DED7"/>
</g>
<defs>
<clipPath id="clip0_97_8720">
<rect width="18" height="12" fill="white"/>
</clipPath>
</defs>
</svg>
