<svg width="12" height="12" viewBox="0 0 12 12" fill="none" xmlns="http://www.w3.org/2000/svg">
<g clip-path="url(#clip0_3906_350)">
<mask id="mask0_3906_350" style="mask-type:alpha" maskUnits="userSpaceOnUse" x="0" y="0" width="12" height="12">
<path d="M6.00003 11.9999C9.31374 11.9999 12 9.31365 12 5.99994C12 2.68623 9.31374 -6.10352e-05 6.00003 -6.10352e-05C2.68632 -6.10352e-05 3.05176e-05 2.68623 3.05176e-05 5.99994C3.05176e-05 9.31365 2.68632 11.9999 6.00003 11.9999Z" fill="#F0F0F0"/>
</mask>
<g mask="url(#mask0_3906_350)">
<path fill-rule="evenodd" clip-rule="evenodd" d="M3 -0.5H9V12.5H3V-0.5Z" fill="#FFD018"/>
<path fill-rule="evenodd" clip-rule="evenodd" d="M0 -0.5H3V13H0V-0.5Z" fill="#2E42A5"/>
<path fill-rule="evenodd" clip-rule="evenodd" d="M9 0.5H12V12.5H9V0.5Z" fill="#E31D1C"/>
<path fill-rule="evenodd" clip-rule="evenodd" d="M6.11212 8.78399C6.195 8.76037 6.26625 8.61637 6.26625 8.61637C6.26625 8.61637 6.32025 8.65874 6.40612 8.70187C6.492 8.74462 6.58125 8.61637 6.58125 8.61637C6.58125 8.61637 6.70312 8.61637 6.75637 8.47274C6.81 8.32874 6.64987 8.26724 6.64987 8.26724C6.64987 8.26724 6.83737 8.07074 7.15312 8.07074C7.46887 8.07074 7.71487 8.07074 7.92112 7.98299C8.12738 7.89562 8.32763 7.74524 8.40263 7.43249C8.47763 7.12012 8.24025 6.92324 8.24025 6.92324C8.24025 6.92324 8.29275 6.93974 8.40263 6.85012C8.5125 6.76012 8.33512 6.47137 8.24025 6.47137C8.14537 6.47137 8.13375 6.52499 8.13375 6.52499C8.13375 6.52499 8.07525 6.47399 7.99463 6.30037C7.914 6.12712 8.07525 5.97487 8.07525 5.97487C8.07525 5.97487 8.16337 6.02549 8.24025 5.94187C8.3175 5.85862 8.2005 5.73074 8.2005 5.73074C8.2005 5.73074 8.571 5.60474 8.51737 5.13074C8.46375 4.65674 7.97512 4.68337 7.97512 4.68337C7.97512 4.68337 7.99013 4.60462 7.92112 4.55962C7.85213 4.51462 7.80113 4.60462 7.80113 4.60462C7.7475 4.47974 7.90575 4.30837 8.0325 4.17187C8.07188 4.12949 8.10787 4.09011 8.13375 4.05674C8.24363 3.91536 8.175 3.74062 7.77375 3.54974C7.37325 3.35887 7.155 3.61537 7.12275 3.70612C7.0905 3.79724 7.21462 3.85349 7.21462 3.85349C7.11337 3.94237 6.91725 3.97612 6.78337 3.91499C6.64987 3.85312 6.70913 3.66637 6.73688 3.61537L6.7485 3.59512C6.786 3.53174 6.86512 3.39899 6.78375 3.26999C6.69187 3.12487 6.53325 3.12487 6.40612 3.20699C6.29737 3.27749 6.14363 3.31499 6.10125 3.32436C6.05888 3.31499 5.90437 3.27749 5.796 3.20699C5.66925 3.12449 5.51025 3.12449 5.41875 3.26999C5.337 3.39899 5.41575 3.53174 5.45362 3.59512L5.46525 3.61537C5.493 3.66637 5.55225 3.85312 5.41875 3.91499C5.28487 3.97612 5.08875 3.94237 4.9875 3.85312C4.9875 3.85312 5.11162 3.79687 5.07975 3.70612C5.0475 3.61537 4.8285 3.35887 4.428 3.54974C4.0275 3.74062 3.9585 3.91536 4.068 4.05674C4.09425 4.09049 4.13025 4.12949 4.16962 4.17187C4.29637 4.30874 4.45462 4.47937 4.401 4.60462C4.401 4.60462 4.35 4.51462 4.281 4.55962C4.212 4.60462 4.227 4.68337 4.227 4.68337C4.227 4.68337 3.73837 4.65674 3.68475 5.13074C3.63112 5.60474 4.00162 5.73074 4.00162 5.73074C4.00162 5.73074 3.885 5.85824 3.96187 5.94187C4.03875 6.02549 4.12687 5.97487 4.12687 5.97487C4.12687 5.97487 4.28812 6.12712 4.2075 6.30037C4.12687 6.47399 4.06837 6.52499 4.06837 6.52499C4.06837 6.52499 4.05712 6.47137 3.96187 6.47137C3.86662 6.47137 3.68962 6.76012 3.7995 6.85012C3.90937 6.94012 3.96187 6.92324 3.96187 6.92324C3.96187 6.92324 3.7245 7.12012 3.7995 7.43249C3.8745 7.74524 4.07475 7.89562 4.281 7.98299C4.48725 8.07037 4.73325 8.07037 5.049 8.07037C5.36512 8.07037 5.55225 8.26724 5.55225 8.26724C5.55225 8.26724 5.39213 8.32874 5.44575 8.47274C5.499 8.61637 5.62087 8.61637 5.62087 8.61637C5.62087 8.61637 5.71012 8.74462 5.796 8.70187C5.88187 8.65874 5.93587 8.61637 5.93587 8.61637C5.93587 8.61637 6.00712 8.76037 6.09 8.78399V8.78699C6.09375 8.78699 6.0975 8.78699 6.10125 8.78624L6.11212 8.78699V8.78399Z" fill="#BF9937"/>
</g>
</g>
<defs>
<clipPath id="clip0_3906_350">
<rect width="12" height="12" fill="white"/>
</clipPath>
</defs>
</svg>
