<svg width="12" height="12" viewBox="0 0 12 12" fill="none" xmlns="http://www.w3.org/2000/svg">
<g clip-path="url(#clip0_14_1524)">
<mask id="mask0_14_1524" style="mask-type:alpha" maskUnits="userSpaceOnUse" x="0" y="0" width="12" height="12">
<circle cx="6" cy="6" r="6" fill="#D9D9D9"/>
</mask>
<g mask="url(#mask0_14_1524)">
<path d="M14.9824 0.00012207H-3.01758V11.9999H14.9824V0.00012207Z" fill="#D80027"/>
<path d="M3.89558 0.00012207V11.9999H-3.01758V0.00012207H3.89558Z" fill="#6DA544"/>
<path d="M3.89558 8.25C5.13822 8.25 6.14558 7.24264 6.14558 6C6.14558 4.75736 5.13822 3.75 3.89558 3.75C2.65294 3.75 1.64558 4.75736 1.64558 6C1.64558 7.24264 2.65294 8.25 3.89558 8.25Z" fill="#FFDA44"/>
<path d="M2.62985 4.875V6.28129C2.62985 6.98026 3.1965 7.54691 3.89548 7.54691C4.59445 7.54691 5.1611 6.98026 5.1611 6.28129V4.875H2.62985Z" fill="#D80027"/>
<path d="M3.89548 6.70313C3.66285 6.70313 3.4736 6.51388 3.4736 6.28125V5.71875H4.31739V6.28125C4.31735 6.51384 4.12807 6.70313 3.89548 6.70313Z" fill="white"/>
<circle cx="6" cy="6" r="6" stroke="#E1DED7"/>
</g>
</g>
<defs>
<clipPath id="clip0_14_1524">
<rect width="12" height="12" rx="1.12281" fill="white"/>
</clipPath>
</defs>
</svg>
