<svg width="12" height="12" viewBox="0 0 12 12" fill="none" xmlns="http://www.w3.org/2000/svg">
<mask id="mask0_65_825" style="mask-type:alpha" maskUnits="userSpaceOnUse" x="0" y="0" width="12" height="12">
<circle cx="6" cy="6" r="6" fill="#D9D9D9"/>
</mask>
<g mask="url(#mask0_65_825)">
<g clip-path="url(#clip0_65_825)">
<path d="M14.6667 0.0350342H-3.33333V12.035H14.6667V0.0350342Z" fill="white"/>
<path d="M14.6667 8.10522H-3.33333V12.035H14.6667V8.10522Z" fill="#D80027"/>
<path d="M9.40703 4.65963V3.51227H9.78948V2.74735H9.02106V3.12981H8.25615V2.74735H7.49124V3.51227H7.87369V4.65963H7.10878V1.98244H7.49124V1.21753H6.72632V1.59999H6.34387V1.21753H5.57896V1.59999H5.1965V1.21753H4.43159V1.98244H4.81404V4.65963H4.04913V3.51227H4.43159V2.74735H3.66668V3.12981H2.90176V2.74735H2.13685V3.51227H2.51931V4.65963H1.75439V7.71928H10.1719V4.65963H9.40703Z" fill="#D80027" stroke="black" stroke-width="0.0350877" stroke-miterlimit="10"/>
<path d="M5.96141 8.29822L5.11229 8.93681L5.78246 9.43857V10.5368H4.96843V10.8526H5.77545V11.1298H4.96843V11.4561H6.14036V9.43857L6.81053 8.93681L5.96141 8.29822ZM5.96141 9.18594L5.60703 8.93681L5.96141 8.68769L6.3158 8.93681L5.96141 9.18594Z" fill="#FFDA44" stroke="black" stroke-width="0.0350877" stroke-miterlimit="10"/>
<path d="M5.07368 7.39287V6.41393C5.07368 6.41393 5.07719 5.63147 5.95088 5.63147C6.82105 5.63147 6.85263 6.4034 6.85263 6.4034V7.39287H5.07368Z" fill="black"/>
<path d="M2.64912 7.39293V6.5403C2.64912 6.5403 2.65263 5.88416 3.33684 5.88416C4.02105 5.88416 4.04562 6.52977 4.04562 6.52977V7.38942H2.64912V7.39293Z" fill="black"/>
<path d="M2.60001 7.39293V6.5403C2.60001 6.5403 2.60351 5.88416 3.28773 5.88416C3.97194 5.88416 3.9965 6.52977 3.9965 6.52977V7.38942H2.60001V7.39293Z" fill="black"/>
<path d="M7.92632 7.39293V6.5403C7.92632 6.5403 7.92982 5.88416 8.61403 5.88416C9.29825 5.88416 9.32281 6.52977 9.32281 6.52977V7.38942H7.92632V7.39293Z" fill="black"/>
<path d="M8.22105 4.6666V4.11572C8.22105 4.11572 8.22456 3.69116 8.61755 3.69116C9.01404 3.69116 9.02807 4.10871 9.02807 4.10871V4.6666H8.22105Z" fill="black"/>
<path d="M5.45615 4.66656V3.83498C5.45615 3.83498 5.45965 3.19287 5.9579 3.19287C6.45615 3.19287 6.47369 3.82445 6.47369 3.82445V4.66656H5.45615Z" fill="black"/>
<path d="M2.89474 4.6666V4.11572C2.89474 4.11572 2.89825 3.69116 3.29124 3.69116C3.68422 3.69116 3.70176 4.10871 3.70176 4.10871V4.6666H2.89474Z" fill="black"/>
<circle cx="6.00017" cy="6" r="6" stroke="#E1DED7"/>
</g>
</g>
<defs>
<clipPath id="clip0_65_825">
<rect width="18" height="12" fill="white" transform="translate(-3.33333 0.0350342)"/>
</clipPath>
</defs>
</svg>
