<svg width="12" height="12" viewBox="0 0 12 12" fill="none" xmlns="http://www.w3.org/2000/svg">
<mask id="mask0_91_5766" style="mask-type:alpha" maskUnits="userSpaceOnUse" x="0" y="0" width="12" height="12">
<circle cx="6" cy="6" r="6" fill="#D9D9D9"/>
</mask>
<g mask="url(#mask0_91_5766)">
<g clip-path="url(#clip0_91_5766)">
<path d="M15 0H-3V12H15V0Z" fill="#232323"/>
<path d="M15 2.00061H-3V4.0012H15V2.00061Z" fill="#FFDA44"/>
<path d="M15 4.00122H-3V6.00181H15V4.00122Z" fill="#D32300"/>
<path d="M15 8.00232H-3V10.0029H15V8.00232Z" fill="#FFDA44"/>
<path d="M15 9.99939H-3V12H15V9.99939Z" fill="#D32300"/>
<path d="M6.00001 8.8392C7.5669 8.8392 8.83712 7.56886 8.83712 6.00182C8.83712 4.43477 7.5669 3.16443 6.00001 3.16443C4.43312 3.16443 3.1629 4.43477 3.1629 6.00182C3.1629 7.56886 4.43312 8.8392 6.00001 8.8392Z" fill="white"/>
<path d="M5.24414 4.48291C5.27578 4.43369 4.55508 4.41259 4.55508 4.41259C4.61485 4.32469 5.20196 4.04341 5.20196 4.04341C5.20196 4.04341 5.17031 3.83246 5.29688 3.69885L5.13867 3.35428C5.13867 3.35428 5.38477 3.23474 5.78555 3.23474C6.18633 3.23474 6.48516 3.48086 6.52383 3.69533L6.29883 3.81488C6.29532 3.98013 6.3586 4.22273 6.14766 4.42314C5.94024 4.62355 5.85586 4.66574 5.84883 5.08414C5.84883 5.22126 5.92969 5.37245 6.15821 5.49551C6.76992 5.82249 7.51524 6.48701 7.72617 6.68742C7.94063 6.88783 7.90547 7.36249 7.81758 7.57345C7.72969 7.7844 7.39219 8.07623 7.31485 8.05162C7.2375 8.03052 7.35703 7.72815 7.1918 7.64377C7.1918 7.64377 6.87891 7.37655 6.60117 7.66486C6.32344 7.95317 6.59414 8.55089 6.73828 8.64933C6.88242 8.74778 6.79805 8.82513 6.67149 8.82513H5.6836C5.55 8.82513 5.49375 8.74426 5.6168 8.64933C5.88399 8.51573 6.05274 8.11139 5.87696 7.93559C5.70469 7.76331 5.2336 7.98833 5.1211 8.1571C5.02266 8.25554 4.81172 8.28367 4.66758 8.10787C4.52344 7.93208 4.52344 7.74221 4.62891 7.66838C4.875 7.49961 4.62891 7.66838 4.63242 7.66486C4.63242 7.66486 5.05078 7.36249 5.6836 7.34842C5.82071 7.34842 5.85235 7.27107 5.76094 7.17966C5.76094 7.17966 4.67461 6.21628 4.77305 5.6256C4.87852 4.98218 5.47617 4.7009 5.24414 4.48291Z" fill="black"/>
</g>
<circle cx="6" cy="6" r="6" stroke="#E1DED7"/>
</g>
<defs>
<clipPath id="clip0_91_5766">
<rect width="18" height="12" fill="white" transform="translate(-3)"/>
</clipPath>
</defs>
</svg>
