<svg width="24" height="24" viewBox="0 0 24 24" fill="none" xmlns="http://www.w3.org/2000/svg">
<g clip-path="url(#clip0_3906_372)">
<mask id="mask0_3906_372" style="mask-type:alpha" maskUnits="userSpaceOnUse" x="0" y="0" width="24" height="24">
<path d="M12 23.9999C18.6274 23.9999 24 18.6274 24 11.9999C24 5.37252 18.6274 -6.10352e-05 12 -6.10352e-05C5.37261 -6.10352e-05 3.05176e-05 5.37252 3.05176e-05 11.9999C3.05176e-05 18.6274 5.37261 23.9999 12 23.9999Z" fill="#F0F0F0"/>
</mask>
<g mask="url(#mask0_3906_372)">
<path fill-rule="evenodd" clip-rule="evenodd" d="M6 -1H18V25H6V-1Z" fill="#FFD018"/>
<path fill-rule="evenodd" clip-rule="evenodd" d="M0 -1H6V26H0V-1Z" fill="#2E42A5"/>
<path fill-rule="evenodd" clip-rule="evenodd" d="M18 1H24V25H18V1Z" fill="#E31D1C"/>
<path fill-rule="evenodd" clip-rule="evenodd" d="M12.2242 17.568C12.39 17.5208 12.5325 17.2328 12.5325 17.2328C12.5325 17.2328 12.6405 17.3175 12.8122 17.4038C12.984 17.4893 13.1625 17.2328 13.1625 17.2328C13.1625 17.2328 13.4062 17.2328 13.5127 16.9455C13.62 16.6575 13.2997 16.5345 13.2997 16.5345C13.2997 16.5345 13.6747 16.1415 14.3062 16.1415C14.9377 16.1415 15.4297 16.1415 15.8422 15.966C16.2547 15.7913 16.6552 15.4905 16.8052 14.865C16.9552 14.2403 16.4805 13.8465 16.4805 13.8465C16.4805 13.8465 16.5855 13.8795 16.8052 13.7003C17.025 13.5203 16.6702 12.9428 16.4805 12.9428C16.2907 12.9428 16.2675 13.05 16.2675 13.05C16.2675 13.05 16.1505 12.948 15.9892 12.6008C15.828 12.2543 16.1505 11.9498 16.1505 11.9498C16.1505 11.9498 16.3267 12.051 16.4805 11.8838C16.635 11.7173 16.401 11.4615 16.401 11.4615C16.401 11.4615 17.142 11.2095 17.0347 10.2615C16.9275 9.31351 15.9502 9.36676 15.9502 9.36676C15.9502 9.36676 15.9802 9.20926 15.8422 9.11926C15.7042 9.02926 15.6022 9.20926 15.6022 9.20926C15.495 8.95951 15.8115 8.61676 16.065 8.34376C16.1437 8.25901 16.2157 8.18026 16.2675 8.11351C16.4872 7.83076 16.35 7.48126 15.5475 7.09951C14.7465 6.71776 14.31 7.23076 14.2455 7.41226C14.181 7.59451 14.4292 7.70701 14.4292 7.70701C14.2267 7.88476 13.8345 7.95226 13.5667 7.83001C13.2997 7.70626 13.4182 7.33276 13.4737 7.23076L13.497 7.19026C13.572 7.06351 13.7302 6.79801 13.5675 6.54001C13.3837 6.24976 13.0665 6.24976 12.8122 6.41401C12.5947 6.55501 12.2872 6.63001 12.2025 6.64876C12.1177 6.63001 11.8087 6.55501 11.592 6.41401C11.3385 6.24901 11.0205 6.24901 10.8375 6.54001C10.674 6.79801 10.8315 7.06351 10.9072 7.19026L10.9305 7.23076C10.986 7.33276 11.1045 7.70626 10.8375 7.83001C10.5697 7.95226 10.1775 7.88476 9.975 7.70626C9.975 7.70626 10.2232 7.59376 10.1595 7.41226C10.095 7.23076 9.657 6.71776 8.856 7.09951C8.055 7.48126 7.917 7.83076 8.136 8.11351C8.1885 8.18101 8.2605 8.25901 8.33925 8.34376C8.59275 8.61751 8.90925 8.95876 8.802 9.20926C8.802 9.20926 8.7 9.02926 8.562 9.11926C8.424 9.20926 8.454 9.36676 8.454 9.36676C8.454 9.36676 7.47675 9.31351 7.3695 10.2615C7.26225 11.2095 8.00325 11.4615 8.00325 11.4615C8.00325 11.4615 7.77 11.7165 7.92375 11.8838C8.0775 12.051 8.25375 11.9498 8.25375 11.9498C8.25375 11.9498 8.57625 12.2543 8.415 12.6008C8.25375 12.948 8.13675 13.05 8.13675 13.05C8.13675 13.05 8.11425 12.9428 7.92375 12.9428C7.73325 12.9428 7.37925 13.5203 7.599 13.7003C7.81875 13.8803 7.92375 13.8465 7.92375 13.8465C7.92375 13.8465 7.449 14.2403 7.599 14.865C7.749 15.4905 8.1495 15.7913 8.562 15.966C8.9745 16.1408 9.4665 16.1408 10.098 16.1408C10.7302 16.1408 11.1045 16.5345 11.1045 16.5345C11.1045 16.5345 10.7842 16.6575 10.8915 16.9455C10.998 17.2328 11.2417 17.2328 11.2417 17.2328C11.2417 17.2328 11.4202 17.4893 11.592 17.4038C11.7637 17.3175 11.8717 17.2328 11.8717 17.2328C11.8717 17.2328 12.0142 17.5208 12.18 17.568V17.574C12.1875 17.574 12.195 17.574 12.2025 17.5725L12.2242 17.574V17.568Z" fill="#BF9937"/>
</g>
</g>
<defs>
<clipPath id="clip0_3906_372">
<rect width="24" height="24" fill="white"/>
</clipPath>
</defs>
</svg>
