<svg width="12" height="12" viewBox="0 0 12 12" fill="none" xmlns="http://www.w3.org/2000/svg">
<mask id="mask0_66_1012" style="mask-type:alpha" maskUnits="userSpaceOnUse" x="0" y="0" width="12" height="12">
<circle cx="6" cy="6" r="6" fill="#D9D9D9"/>
</mask>
<g mask="url(#mask0_66_1012)">
<g clip-path="url(#clip0_66_1012)">
<path d="M14.9824 0.0351562H-2.98248V12.0115H14.9824V0.0351562Z" fill="white"/>
<path d="M14.9824 4.02722H-2.98248V8.01933H14.9824V4.02722Z" fill="#0052B4"/>
<path d="M14.9824 8.01941H-2.98248V12.0115H14.9824V8.01941Z" fill="#D80027"/>
<path d="M5.21422 3.94053V4.46112C5.21422 5.65695 3.65204 6.0233 3.65204 6.0233C3.65204 6.0233 2.08987 5.65698 2.08987 4.46112V3.94053L2.08478 2.39007L5.20909 2.38074L5.21422 3.94053Z" fill="white"/>
<path d="M5.21422 3.94053V4.46112C5.21422 5.65695 3.65204 6.0233 3.65204 6.0233C3.65204 6.0233 2.08987 5.65698 2.08987 4.46112V3.94053L2.08478 2.39007L5.20909 2.38074L5.21422 3.94053Z" fill="#0052B4"/>
<path d="M5.21419 3.94055V4.46114C5.21419 5.65697 3.65202 6.02332 3.65202 6.02332C3.65202 6.02332 2.08984 5.657 2.08984 4.46114V3.94055L2.61083 4.46114L3.65202 3.68005L4.6936 4.46114L5.21419 3.94055Z" fill="white"/>
</g>
<circle cx="6" cy="6" r="6" stroke="#E1DED7"/>
</g>
<defs>
<clipPath id="clip0_66_1012">
<rect width="17.9649" height="11.9766" fill="white" transform="translate(-2.98248 0.0350342)"/>
</clipPath>
</defs>
</svg>
