<svg width="12" height="12" viewBox="0 0 12 12" fill="none" xmlns="http://www.w3.org/2000/svg">
<g clip-path="url(#clip0_186_2733)">
<g clip-path="url(#clip1_186_2733)">
<path d="M14.9999 0H-3.00012V12H14.9999V0Z" fill="#496E2D"/>
<path d="M-3.00012 3.88416V5.28766V6.69117V8.09468H14.9999V6.69117V5.28766V3.88416H-3.00012Z" fill="black"/>
<path d="M14.9999 3.88416H-3.00012V5.28766H14.9999V3.88416Z" fill="#FFDA44"/>
<path d="M14.9999 6.69128H-3.00012V8.09479H14.9999V6.69128Z" fill="white"/>
<path d="M8.08759 0H3.87707V12H8.08759V0Z" fill="black"/>
<path d="M5.28058 0H3.87707V12H5.28058V0Z" fill="#FFDA44"/>
<path d="M8.04198 0H6.63847V12H8.04198V0Z" fill="white"/>
<path d="M5.98233 10.3088C8.36781 10.3088 10.3016 8.37495 10.3016 5.98946C10.3016 3.60398 8.36781 1.67017 5.98233 1.67017C3.59685 1.67017 1.66303 3.60398 1.66303 5.98946C1.66303 8.37495 3.59685 10.3088 5.98233 10.3088Z" fill="#D80027"/>
<path d="M5.98234 2.05615L6.14374 2.5544H6.67006L6.24549 2.86668L6.4069 3.36492L5.98234 3.05615L5.55777 3.36492L5.71918 2.86668L5.29462 2.5544H5.82093L5.98234 2.05615Z" fill="#496E2D"/>
<path d="M3.67005 2.80701L4.09812 3.11578L4.52268 2.80701L4.36128 3.30876L4.78584 3.61753H4.25952L4.09812 4.11578L3.93321 3.61753H3.40689L3.83145 3.30876L3.67005 2.80701Z" fill="#496E2D"/>
<path d="M2.24198 4.77193H2.7683L2.9297 4.27368L3.09461 4.77193H3.62093L3.19286 5.0807L3.35777 5.58245L2.9297 5.27368L2.50514 5.58245L2.66654 5.0807L2.24198 4.77193Z" fill="#496E2D"/>
<path d="M2.24198 7.20347L2.66654 6.8947L2.50514 6.39294L2.9297 6.70172L3.35777 6.39294L3.19286 6.8947L3.62093 7.20347H3.09461L2.9297 7.70523L2.7683 7.20347H2.24198Z" fill="#496E2D"/>
<path d="M3.67005 9.1719L3.83145 8.67015L3.40689 8.36137H3.93321L4.09812 7.85962L4.25952 8.36137H4.78584L4.36128 8.67015L4.52268 9.1719L4.09812 8.85962L3.67005 9.1719Z" fill="#496E2D"/>
<path d="M5.98234 9.92288L5.82093 9.42112H5.29462L5.71918 9.11235L5.55777 8.6106L5.98234 8.91937L6.4069 8.6106L6.24549 9.11235L6.67006 9.42112H6.14374L5.98234 9.92288Z" fill="#496E2D"/>
<path d="M8.29461 9.1719L7.86654 8.85962L7.44198 9.1719L7.60339 8.67015L7.17883 8.36137H7.70514L7.86654 7.85962L8.03146 8.36137H8.55777L8.13321 8.67015L8.29461 9.1719Z" fill="#496E2D"/>
<path d="M9.72268 7.20347H9.19637L9.03496 7.70523L8.87005 7.20347H8.34373L8.77181 6.8947L8.60689 6.39294L9.03496 6.70172L9.45952 6.39294L9.29812 6.8947L9.72268 7.20347Z" fill="#496E2D"/>
<path d="M9.72268 4.77193L9.29812 5.0807L9.45952 5.58245L9.03496 5.27368L8.60689 5.58245L8.77181 5.0807L8.34373 4.77193H8.87005L9.03496 4.27368L9.19637 4.77193H9.72268Z" fill="#496E2D"/>
<path d="M8.29461 2.80701L8.13321 3.30876L8.55777 3.61753H8.03146L7.86654 4.11578L7.70514 3.61753H7.17883L7.60339 3.30876L7.44198 2.80701L7.86654 3.11578L8.29461 2.80701Z" fill="#496E2D"/>
<path d="M6.79987 5.91935C6.41391 5.17899 6.2911 5.03864 6.2911 5.03864C6.2911 5.03864 6.30514 4.69829 6.30514 4.49128C6.30514 4.1825 6.04549 3.93689 5.72619 3.93689C5.42444 3.93689 5.17531 4.03864 5.14724 4.32285C4.99988 4.35443 4.84549 4.46671 4.84549 4.69829C4.84549 4.86671 4.88058 4.95443 5.02795 5.02461C5.10163 4.86321 5.17882 4.85619 5.35426 4.80005C5.38233 4.8211 5.41391 4.90531 5.44549 4.91935L5.45602 4.95443C5.45602 4.95443 4.98935 5.18601 4.98935 6.03864C4.98935 7.07373 5.76128 7.63163 5.76128 7.63163L5.69812 7.64215L5.63145 7.89128H6.40338V7.63864L6.78935 8.25268C6.79988 8.24215 7.14724 6.5825 6.79987 5.91935Z" fill="#496E2D"/>
</g>
</g>
<rect x="0.25" y="0.25" width="11.5" height="11.5" rx="5.75" stroke="#E1DED7" stroke-width="0.5"/>
<defs>
<clipPath id="clip0_186_2733">
<rect width="12" height="12" rx="6" fill="white"/>
</clipPath>
<clipPath id="clip1_186_2733">
<rect width="18" height="12" fill="white" transform="translate(-3.00012)"/>
</clipPath>
</defs>
</svg>
