<svg width="12" height="12" viewBox="0 0 12 12" fill="none" xmlns="http://www.w3.org/2000/svg">
<mask id="mask0_105_8893" style="mask-type:alpha" maskUnits="userSpaceOnUse" x="0" y="0" width="12" height="12">
<circle cx="6" cy="6" r="6" fill="#D9D9D9"/>
</mask>
<g mask="url(#mask0_105_8893)">
<g clip-path="url(#clip0_105_8893)">
<path d="M15 0H-3V12H15V0Z" fill="#E6BE53"/>
<path d="M14.2983 0.701782H-2.29822V11.2983H14.2983V0.701782Z" fill="#E01D24"/>
<path d="M5.71928 3.96139C5.87366 4.11577 6.12629 4.11577 6.28068 3.96139L6.11577 4.1263L6.91226 3.32981C7.08419 3.17191 7.33682 3.13332 7.55086 3.23156L7.62454 3.26665C7.82454 3.36841 7.85963 3.57191 7.70524 3.7263L7.87015 3.56139L7.07015 4.36139C6.91226 4.53332 6.87366 4.78595 6.97191 4.99998L7.007 5.07367C7.10875 5.27367 7.18594 5.61402 7.18594 5.83156V5.43507C7.18594 5.65262 7.34033 5.75437 7.54384 5.65262L7.61752 5.61753C7.81752 5.51577 7.85261 5.31227 7.69822 5.15788L7.86314 5.32279C7.70875 5.16841 7.70875 4.91577 7.86314 4.76139L7.69822 4.9263C7.88068 4.73332 8.03507 4.51928 8.15787 4.2877L8.19296 4.21402C8.29471 4.01402 8.41401 3.6842 8.47015 3.47016L8.67366 2.65262C8.72629 2.44209 8.88068 2.41402 9.0105 2.58946L9.71928 3.53332C9.85261 3.71227 9.96138 4.02455 9.96138 4.25613V5.04209C9.96138 5.26314 9.88419 5.59648 9.78243 5.80349L9.74735 5.87718C9.62454 6.10876 9.47015 6.32279 9.2877 6.51577L9.0491 6.75437C8.85963 6.93683 8.64559 7.09121 8.4105 7.21402L8.33682 7.24911C8.13682 7.35086 7.79296 7.42806 7.57893 7.42806C7.36138 7.42806 7.33682 7.50525 7.54033 7.607L7.61401 7.64209C7.81401 7.74384 8.09822 7.94735 8.25261 8.10174L8.0877 7.93683C8.24208 8.09121 8.49471 8.09121 8.6491 7.93683L8.48419 8.10174C8.63857 7.94735 8.89121 7.94735 9.04559 8.10174L8.89471 7.92981C9.05612 8.10174 9.09471 8.35437 8.99647 8.56841L8.96138 8.64209C8.85963 8.84209 8.59647 8.99999 8.38594 8.99999C8.12278 8.98946 7.86664 8.92981 7.62805 8.82104L7.55436 8.78595C7.32629 8.65963 7.14033 8.47367 7.01401 8.2456L6.97892 8.17191C6.87717 7.97191 6.67366 7.93683 6.51928 8.09121L6.68419 7.9263C6.5298 8.09121 6.50173 8.34034 6.62103 8.53332L6.98243 9.07367C7.10173 9.25262 7.05261 9.49823 6.87366 9.61753L6.33331 9.97893C6.13331 10.0982 5.88419 10.0982 5.68068 9.97893L5.14033 9.61753C4.96138 9.49823 4.91226 9.25613 5.03156 9.07367L5.39296 8.53332C5.51226 8.34034 5.48419 8.09121 5.3298 7.9263L5.49471 8.09121C5.34033 7.93683 5.13682 7.9649 5.03507 8.17191L4.99998 8.2456C4.89822 8.4456 4.66664 8.68069 4.45963 8.78595L4.38594 8.82104C4.18594 8.92279 3.84208 8.99999 3.62805 8.99999C3.38594 8.98946 3.1684 8.85262 3.05261 8.64209L3.01752 8.56841C2.91928 8.35437 2.96138 8.10174 3.11928 7.92981L2.95436 8.09472C3.10875 7.94034 3.36138 7.94034 3.51577 8.09472L3.35085 7.92981C3.50524 8.0842 3.75787 8.0842 3.91226 7.92981L3.74735 8.09472C3.94033 7.91227 4.15436 7.75788 4.38594 7.63507L4.45963 7.59999C4.65963 7.49823 4.63507 7.42104 4.42103 7.42104C4.15787 7.41051 3.90173 7.35086 3.66314 7.24209L3.58945 7.207C3.35787 7.0842 3.14384 6.92981 2.95085 6.74735L2.71226 6.50876C2.5298 6.31928 2.37542 6.10525 2.25261 5.87016L2.21752 5.79648C2.10875 5.55788 2.04559 5.29823 2.03857 5.03507V4.2456C2.03857 4.02455 2.14735 3.69823 2.28068 3.52279L2.98945 2.57893C3.12278 2.39999 3.27366 2.42806 3.32629 2.64209L3.5298 3.45963C3.59998 3.71577 3.69121 3.9649 3.807 4.20349L3.84208 4.27718C3.94384 4.47718 4.14735 4.76139 4.30173 4.91577L4.13682 4.75086C4.29121 4.90525 4.29121 5.15788 4.13682 5.31227L4.30173 5.14735C4.14735 5.30174 4.17542 5.50525 4.38243 5.607L4.45612 5.64209C4.65612 5.74384 4.81401 5.64209 4.81401 5.42455V5.82104C4.81401 5.60349 4.89121 5.27016 4.99296 5.06314L5.02805 4.98946C5.12629 4.77542 5.0877 4.5263 4.9298 4.35086L4.13331 3.55437L4.29822 3.71928C4.14384 3.5649 4.17191 3.36139 4.37893 3.25963L4.45261 3.22455C4.66664 3.1263 4.91577 3.1649 5.09121 3.32279L5.8877 4.11928L5.71928 3.96139ZM5.0877 2.53332C4.93331 2.37893 4.97542 2.19999 5.18594 2.12981L5.62103 1.98244C5.83156 1.91227 6.16489 1.91227 6.37542 1.98244L6.8105 2.12981C7.02103 2.19999 7.06314 2.37893 6.90875 2.53332L6.67015 2.77191C6.48419 2.93683 6.24559 3.03507 5.99647 3.04911C5.77892 3.04911 5.47717 2.9263 5.32278 2.77191C5.32629 2.77191 5.0877 2.53332 5.0877 2.53332Z" fill="#E6BE53"/>
<path d="M5.20703 7.02453C5.20703 7.24208 5.26668 7.24909 5.3544 7.04208C5.3544 7.04208 5.60352 6.22804 6.00001 6.22804C6.39651 6.22804 6.65265 7.05611 6.65265 7.05611C6.72984 7.25611 6.793 7.24208 6.793 7.01751V6.62453C6.793 5.96839 6.43861 5.43506 6.00001 5.43506C5.56142 5.43506 5.20703 5.96839 5.20703 6.62453V7.02453Z" fill="#215F90"/>
</g>
<circle cx="6" cy="6" r="6" stroke="#E1DED7"/>
</g>
<defs>
<clipPath id="clip0_105_8893">
<rect width="18" height="12" fill="white" transform="translate(-3)"/>
</clipPath>
</defs>
</svg>
