<svg width="12" height="12" viewBox="0 0 12 12" fill="none" xmlns="http://www.w3.org/2000/svg">
<mask id="mask0_47_378" style="mask-type:alpha" maskUnits="userSpaceOnUse" x="0" y="0" width="12" height="12">
<circle cx="6" cy="6" r="6" fill="#D9D9D9"/>
</mask>
<g mask="url(#mask0_47_378)">
<g clip-path="url(#clip0_47_378)">
<path fill-rule="evenodd" clip-rule="evenodd" d="M-3.1228 -0.432373H15.1228V12.5376H-3.1228V-0.432373Z" fill="white"/>
<path fill-rule="evenodd" clip-rule="evenodd" d="M-3.1228 -0.432373H15.1228V12.5376H-3.1228V-0.432373Z" fill="#EE1C25"/>
<path fill-rule="evenodd" clip-rule="evenodd" d="M7.1625 5.76573C6.46917 5.3334 6.29367 6.11938 6.29367 5.76573C6.29367 5.04979 7.07128 4.46874 8.03134 4.46874C8.99141 4.46874 9.76902 5.04979 9.76902 5.76573C8.94449 5.76573 8.86195 6.19806 8.46576 6.19806C7.97921 6.19806 7.85584 6.19806 7.1625 5.76573ZM8.24855 5.60144C8.30616 5.60144 8.36141 5.57867 8.40214 5.53813C8.44288 5.49759 8.46576 5.44261 8.46576 5.38528C8.46576 5.32795 8.44288 5.27297 8.40214 5.23243C8.36141 5.19189 8.30616 5.16911 8.24855 5.16911C8.19095 5.16911 8.1357 5.19189 8.09496 5.23243C8.05423 5.27297 8.03134 5.32795 8.03134 5.38528C8.03134 5.44261 8.05423 5.49759 8.09496 5.53813C8.1357 5.57867 8.19095 5.60144 8.24855 5.60144ZM6.67595 7.29791C6.87405 6.50847 6.06951 6.58543 6.40662 6.47648C7.09126 6.25426 7.88625 6.81111 8.18339 7.71987C8.47966 8.62776 8.16514 9.5443 7.4805 9.76565C7.22593 8.98487 6.78717 9.04107 6.66466 8.66581C6.51435 8.20494 6.47699 8.08821 6.67595 7.29791ZM7.16772 8.27498C7.1765 8.302 7.19055 8.32704 7.20906 8.34866C7.22757 8.37028 7.25017 8.38807 7.27559 8.40099C7.301 8.41392 7.32873 8.42174 7.35718 8.424C7.38563 8.42627 7.41425 8.42293 7.4414 8.41419C7.46856 8.40545 7.49372 8.39147 7.51544 8.37305C7.53717 8.35463 7.55504 8.33213 7.56803 8.30684C7.58101 8.28154 7.58887 8.25395 7.59115 8.22564C7.59342 8.19733 7.59007 8.16884 7.58129 8.14182C7.56354 8.08724 7.52474 8.04191 7.47341 8.01581C7.42209 7.9897 7.36244 7.98495 7.3076 8.00261C7.25276 8.02027 7.20721 8.05888 7.18098 8.10996C7.15474 8.16104 7.14997 8.2204 7.16772 8.27498ZM5.05992 7.31088C5.87662 7.25468 5.55515 6.51626 5.76367 6.80246C6.18593 7.38178 5.90008 8.30697 5.12334 8.86814C4.3466 9.43017 3.37437 9.4146 2.95124 8.83528C3.61851 8.3528 3.4291 7.95505 3.75058 7.72332C4.14416 7.43799 4.24408 7.36622 5.05992 7.31088ZM4.27883 8.0787C4.25572 8.09539 4.23615 8.11645 4.22122 8.14067C4.20629 8.16489 4.19631 8.1918 4.19183 8.21986C4.18735 8.24792 4.18847 8.27659 4.19512 8.30422C4.20178 8.33185 4.21384 8.35791 4.23061 8.3809C4.24738 8.40389 4.26854 8.42337 4.29288 8.43823C4.31722 8.45309 4.34425 8.46302 4.37245 8.46748C4.40065 8.47194 4.42945 8.47082 4.45722 8.4642C4.48498 8.45758 4.51116 8.44558 4.53427 8.42889C4.58093 8.39518 4.61223 8.3444 4.62127 8.28773C4.63031 8.23105 4.61636 8.17313 4.58249 8.12669C4.54862 8.08025 4.49759 8.04911 4.44065 8.04011C4.3837 8.03111 4.32549 8.04499 4.27883 8.0787ZM4.54991 5.78562C4.85487 6.54133 5.46132 6.0087 5.2528 6.29404C4.82967 6.87336 3.85744 6.88806 3.0807 6.3269C2.30396 5.76487 2.01811 4.84054 2.44124 4.26035C3.10763 4.7437 3.42997 4.44193 3.75058 4.67366C4.14416 4.959 4.24408 5.03077 4.54991 5.78562ZM3.57333 5.28411C3.55044 5.26537 3.52394 5.25148 3.49546 5.24331C3.46698 5.23514 3.43711 5.23285 3.40771 5.2366C3.37831 5.24034 3.34999 5.25004 3.32449 5.26509C3.29899 5.28014 3.27686 5.30022 3.25946 5.3241C3.24206 5.34798 3.22975 5.37516 3.22329 5.40395C3.21684 5.43274 3.21638 5.46255 3.22193 5.49153C3.22749 5.5205 3.23894 5.54804 3.2556 5.57245C3.27225 5.59685 3.29375 5.61761 3.31876 5.63344C3.36544 5.66297 3.42167 5.67366 3.476 5.66335C3.53033 5.65303 3.57866 5.62248 3.61113 5.57792C3.6436 5.53337 3.65777 5.47816 3.65075 5.42356C3.64372 5.36897 3.61604 5.31909 3.57333 5.28411ZM5.84882 4.83103C5.22152 5.35415 5.91833 5.76314 5.58035 5.65332C4.8957 5.43197 4.58118 4.51629 4.87746 3.6084C5.1746 2.7005 5.96959 2.1428 6.65423 2.36415C6.39966 3.14494 6.78717 3.35592 6.66466 3.73118C6.51435 4.19205 6.47612 4.30878 5.84882 4.83103ZM6.02693 3.7528C6.03703 3.72552 6.04149 3.6965 6.04005 3.66746C6.03861 3.63843 6.03131 3.60999 6.01857 3.58383C6.00583 3.55767 5.98792 3.53434 5.96592 3.51522C5.94391 3.49611 5.91825 3.48161 5.89049 3.4726C5.86272 3.46358 5.83341 3.46023 5.80431 3.46274C5.77521 3.46526 5.74692 3.47359 5.72113 3.48723C5.69534 3.50088 5.67258 3.51956 5.65422 3.54217C5.63585 3.56477 5.62225 3.59082 5.61423 3.61878C5.59881 3.67256 5.60493 3.7302 5.63132 3.77958C5.6577 3.82896 5.70229 3.86625 5.75572 3.8836C5.80915 3.90095 5.86726 3.89702 5.91783 3.87262C5.9684 3.84823 6.00751 3.80528 6.02693 3.7528Z" fill="white"/>
<circle cx="6" cy="6" r="6" stroke="#E1DED7"/>
</g>
</g>
<defs>
<clipPath id="clip0_47_378">
<rect width="18.2456" height="12.1053" fill="white" transform="translate(-3.1228)"/>
</clipPath>
</defs>
</svg>
