<svg width="12" height="12" viewBox="0 0 12 12" fill="none" xmlns="http://www.w3.org/2000/svg">
<g clip-path="url(#clip0_14_1719)">
<mask id="mask0_14_1719" style="mask-type:alpha" maskUnits="userSpaceOnUse" x="0" y="0" width="12" height="12">
<circle cx="6" cy="6" r="6" fill="#D9D9D9"/>
</mask>
<g mask="url(#mask0_14_1719)">
<path d="M14.9829 0.000244141H-3.01709V12H14.9829V0.000244141Z" fill="white"/>
<path d="M14.9829 0.000244141H-3.01709V4.00015H14.9829V0.000244141Z" fill="#D80027"/>
<path d="M14.9829 8H-3.01709V11.9999H14.9829V8Z" fill="#0052B4"/>
<path d="M7.16304 4.61975L6.72035 5.06244C6.90914 5.2513 7.02596 5.51216 7.02596 5.8003C7.02596 6.37658 6.55877 6.84374 5.98252 6.84374C5.40624 6.84374 4.93909 6.37655 4.93909 5.8003C4.93909 5.51219 5.05587 5.2513 5.2447 5.06244L4.80201 4.61975C4.49988 4.92188 4.31299 5.33926 4.31299 5.80026C4.31299 6.72234 5.06045 7.4698 5.98252 7.4698C6.9046 7.4698 7.65206 6.72234 7.65206 5.80026C7.65206 5.33929 7.46517 4.92188 7.16304 4.61975Z" fill="#6DA544"/>
<path d="M5.98252 5.17432L6.13795 5.65262H6.64082L6.23396 5.94821L6.38938 6.42648L5.98252 6.13088L5.57566 6.42648L5.73108 5.94821L5.32422 5.65262H5.82709L5.98252 5.17432Z" fill="#FFDA44"/>
<circle cx="6" cy="6" r="6" stroke="#E1DED7"/>
</g>
</g>
<defs>
<clipPath id="clip0_14_1719">
<rect width="12" height="12" rx="1.12281" fill="white"/>
</clipPath>
</defs>
</svg>
