<svg width="12" height="12" viewBox="0 0 12 12" fill="none" xmlns="http://www.w3.org/2000/svg">
<mask id="mask0_92_6545" style="mask-type:alpha" maskUnits="userSpaceOnUse" x="0" y="0" width="12" height="12">
<circle cx="6" cy="6" r="6" fill="#D9D9D9"/>
</mask>
<g mask="url(#mask0_92_6545)">
<g clip-path="url(#clip0_92_6545)">
<path d="M-3 0H15V12H-3V0Z" fill="#36B6CC"/>
<path d="M5.99998 8.39644C7.32546 8.39644 8.39998 7.32192 8.39998 5.99644C8.39998 4.67095 7.32546 3.59644 5.99998 3.59644C4.67449 3.59644 3.59998 4.67095 3.59998 5.99644C3.59998 7.32192 4.67449 8.39644 5.99998 8.39644Z" fill="#FFD400"/>
<path d="M5.99999 8.82455L5.02104 10.2877L4.77192 8.54385L3.25613 9.43858L3.78946 7.76139L2.03508 7.90876L3.24209 6.62806L1.59648 5.99648L3.23858 5.3649L2.03157 4.0842L3.78595 4.23157L3.25262 2.55437L4.76841 3.4456L5.01753 1.70174L5.99648 3.1649L6.97543 1.70174L7.22455 3.4456L8.74034 2.55437L8.20701 4.23157L9.96139 4.0842L8.75788 5.36841L10.4 5.99648L8.75788 6.62806L9.9649 7.90876L8.21052 7.76139L8.74385 9.43858L7.22806 8.54735L6.97894 10.2912C6.97894 10.2877 5.99999 8.82455 5.99999 8.82455ZM5.99999 8.79648C7.54736 8.79648 8.8035 7.54034 8.8035 5.99297C8.8035 4.4456 7.54736 3.19297 5.99999 3.19297C4.45262 3.19297 3.19648 4.44911 3.19648 5.99648C3.19648 7.54385 4.45262 8.79648 5.99999 8.79648ZM-2.20001 0.992969C-2.20001 0.880688 -2.1158 0.792969 -2.00001 0.792969H-1.60352C-1.49124 0.792969 -1.40352 0.877179 -1.40352 0.992969V1.38946C-1.40001 1.49823 -1.48773 1.58946 -1.60001 1.58946C-1.60352 1.58946 -1.60352 1.58946 -1.60703 1.58946H-2.00001C-2.10878 1.58946 -2.20001 1.50174 -2.20001 1.39297V1.38946C-2.20001 1.39297 -2.20001 0.992969 -2.20001 0.992969ZM-2.20001 2.59648C-2.20001 2.4842 -2.1158 2.39648 -2.00001 2.39648H-1.60352C-1.49124 2.39648 -1.40352 2.48069 -1.40352 2.59648V2.99297C-1.40001 3.10174 -1.48773 3.19297 -1.60001 3.19297C-1.60352 3.19297 -1.60352 3.19297 -1.60703 3.19297H-2.00001C-2.10878 3.19297 -2.20001 3.10525 -2.20001 2.99648V2.99297V2.59648ZM-2.20001 4.19648C-2.20001 4.0842 -2.1158 3.99648 -2.00001 3.99648H-1.60352C-1.49124 3.99648 -1.40352 4.08069 -1.40352 4.19648V4.59297C-1.40001 4.70174 -1.48773 4.79297 -1.60001 4.79297C-1.60352 4.79297 -1.60352 4.79297 -1.60703 4.79297H-2.00001C-2.10878 4.79297 -2.20001 4.70525 -2.20001 4.59648V4.59297V4.19648ZM-2.20001 5.79648C-2.20001 5.6842 -2.1158 5.59648 -2.00001 5.59648H-1.60352C-1.49124 5.59648 -1.40352 5.68069 -1.40352 5.79648V6.19297C-1.40001 6.30174 -1.48773 6.39297 -1.60001 6.39297C-1.60352 6.39297 -1.60352 6.39297 -1.60703 6.39297H-2.00001C-2.10878 6.39297 -2.20001 6.30525 -2.20001 6.19648V6.19297V5.79648ZM-2.20001 7.39999C-2.20001 7.28771 -2.1158 7.19999 -2.00001 7.19999H-1.60352C-1.49124 7.19999 -1.40352 7.2842 -1.40352 7.39999V7.79648C-1.40001 7.90525 -1.48773 7.99648 -1.60001 7.99648C-1.60352 7.99648 -1.60352 7.99648 -1.60703 7.99648H-2.00001C-2.10878 7.99648 -2.20001 7.90876 -2.20001 7.79999V7.79648V7.39999ZM-2.20001 8.99999C-2.20001 8.88771 -2.1158 8.79999 -2.00001 8.79999H-1.60352C-1.49124 8.79999 -1.40352 8.8842 -1.40352 8.99999V9.39648C-1.40001 9.50525 -1.48773 9.59648 -1.60001 9.59648C-1.60352 9.59648 -1.60352 9.59648 -1.60703 9.59648H-2.00001C-2.10878 9.59648 -2.20001 9.50876 -2.20001 9.39999V9.39648V8.99999ZM-2.20001 10.6C-2.20001 10.4877 -2.1158 10.4 -2.00001 10.4H-1.60352C-1.49124 10.4 -1.40352 10.4842 -1.40352 10.6V10.9965C-1.40001 11.1052 -1.48773 11.1965 -1.60001 11.1965C-1.60352 11.1965 -1.60352 11.1965 -1.60703 11.1965H-2.00001C-2.10878 11.1965 -2.20001 11.1088 -2.20001 11V10.9965V10.6ZM-1.40001 9.79999C-1.40001 9.68771 -1.3158 9.59999 -1.20001 9.59999H-0.803521C-0.69124 9.59999 -0.603521 9.6842 -0.603521 9.79999V10.1965C-0.600012 10.3052 -0.687731 10.3965 -0.800012 10.3965C-0.803521 10.3965 -0.803521 10.3965 -0.80703 10.3965H-1.20001C-1.30878 10.3965 -1.40001 10.3088 -1.40001 10.2V10.1965V9.79999ZM-1.40001 8.19999C-1.40001 8.08771 -1.3158 7.99999 -1.20001 7.99999H-0.803521C-0.69124 7.99999 -0.603521 8.0842 -0.603521 8.19999V8.59648C-0.600012 8.70525 -0.687731 8.79648 -0.800012 8.79648C-0.803521 8.79648 -0.803521 8.79648 -0.80703 8.79648H-1.20001C-1.30878 8.79648 -1.40001 8.70876 -1.40001 8.59999V8.59648V8.19999ZM-1.40001 6.59648C-1.40001 6.4842 -1.3158 6.39648 -1.20001 6.39648H-0.803521C-0.69124 6.39648 -0.603521 6.48069 -0.603521 6.59648V6.99297C-0.600012 7.10174 -0.687731 7.19297 -0.800012 7.19297C-0.803521 7.19297 -0.803521 7.19297 -0.80703 7.19297H-1.20001C-1.30878 7.19297 -1.40001 7.10525 -1.40001 6.99648V6.99297V6.59648ZM-1.40001 4.99648C-1.40001 4.8842 -1.3158 4.79648 -1.20001 4.79648H-0.803521C-0.69124 4.79648 -0.603521 4.88069 -0.603521 4.99648V5.39297C-0.600012 5.50174 -0.687731 5.59297 -0.800012 5.59297C-0.803521 5.59297 -0.803521 5.59297 -0.80703 5.59297H-1.20001C-1.30878 5.59297 -1.40001 5.50525 -1.40001 5.39648V5.39297V4.99648ZM-1.40001 3.39648C-1.40001 3.2842 -1.3158 3.19648 -1.20001 3.19648H-0.803521C-0.69124 3.19648 -0.603521 3.28069 -0.603521 3.39648V3.79297C-0.600012 3.90174 -0.687731 3.99297 -0.800012 3.99297C-0.803521 3.99297 -0.803521 3.99297 -0.80703 3.99297H-1.20001C-1.30878 3.99297 -1.40001 3.90525 -1.40001 3.79648V3.79297V3.39648ZM-1.40001 1.79648C-1.40001 1.6842 -1.3158 1.59648 -1.20001 1.59648H-0.803521C-0.69124 1.59648 -0.603521 1.68069 -0.603521 1.79648V2.19297C-0.600012 2.30174 -0.687731 2.39297 -0.800012 2.39297C-0.803521 2.39297 -0.803521 2.39297 -0.80703 2.39297H-1.20001C-1.30878 2.39297 -1.40001 2.30525 -1.40001 2.19648V2.19297V1.79648Z" fill="#FFD400"/>
</g>
<circle cx="6" cy="6" r="6" stroke="#E1DED7"/>
</g>
<defs>
<clipPath id="clip0_92_6545">
<rect width="18" height="12" fill="white" transform="translate(-3)"/>
</clipPath>
</defs>
</svg>
