<svg width="12" height="12" viewBox="0 0 12 12" fill="none" xmlns="http://www.w3.org/2000/svg">
<mask id="mask0_91_5929" style="mask-type:alpha" maskUnits="userSpaceOnUse" x="0" y="0" width="12" height="12">
<circle cx="6" cy="6" r="6" fill="#D9D9D9"/>
</mask>
<g mask="url(#mask0_91_5929)">
<g clip-path="url(#clip0_91_5929)">
<path d="M15 6H-3V12H15V6Z" fill="black"/>
<path d="M15 0H-3V6H15V0Z" fill="#D80027"/>
<path d="M8.24475 4.50189L8.77869 4.2395L8.55291 3.65979L7.98236 3.84896L8.24475 4.50189Z" fill="#FFDA44"/>
<path d="M6.85337 2.79328L7.02118 2.21968L6.43842 2L6.19434 2.5492L6.85337 2.79328Z" fill="#FFDA44"/>
<path d="M7.7508 3.50115L8.12304 3.03433L7.66842 2.61023L7.23517 3.02518L7.7508 3.50115Z" fill="#FFDA44"/>
<path d="M8.34245 5.60325L8.93741 5.57884V4.92896L8.23871 4.93506L8.34245 5.60325Z" fill="#FFDA44"/>
<path d="M7.95795 6.76573L8.53155 6.93353L8.75428 6.35383L8.20509 6.10974L7.95795 6.76573Z" fill="#FFDA44"/>
<path d="M7.07349 7.75441L7.5281 8.14189L7.96746 7.70254L7.56776 7.25403L7.07349 7.75441Z" fill="#FFDA44"/>
<path d="M5.63919 3.24792L5.9382 3.85509L6.60639 3.95578L6.12126 4.4287L6.2311 5.09688L5.63309 4.77957L5.03202 5.09078L5.14797 4.42259L4.66589 3.94967L5.33713 3.85509L5.63919 3.24792Z" fill="#FFDA44"/>
<path d="M5.74598 2.23486L5.6636 2.79321C6.97862 2.89085 8.01294 3.98924 8.01294 5.32867C8.01294 6.73217 6.87488 7.85802 5.46833 7.87327C4.57741 7.88243 3.90312 7.42171 3.4241 6.84506L3 7.22034C3.45766 7.80005 4.24484 8.43772 5.46833 8.43772C7.18609 8.43772 8.57739 7.04643 8.57739 5.32867C8.58044 3.70549 7.3356 2.37216 5.74598 2.23486Z" fill="#FFDA44"/>
<path d="M7.00016 7.18079L6.64014 7.60794C6.64014 7.60794 8.22365 8.79481 8.27552 8.84058C8.32739 8.88634 8.43418 8.9016 8.55317 8.7582C8.66606 8.6209 8.6386 8.51106 8.58063 8.46224C8.51961 8.41648 7.00016 7.18079 7.00016 7.18079Z" fill="black"/>
<path d="M4.38214 5.16089C4.1472 5.47515 4.1533 5.86569 4.46757 6.10368C4.46757 6.10368 8.59264 9.20053 8.64451 9.2463C8.69637 9.29206 8.80316 9.30732 8.92215 9.16392C9.03504 9.02662 9.00758 8.91678 8.94961 8.86796C8.89164 8.82219 4.38214 5.16089 4.38214 5.16089Z" fill="#FFDA44"/>
<path d="M5.83759 8.1844L6.06031 8.7397L6.65528 8.55663L6.50882 7.97388L5.83759 8.1844Z" fill="#FFDA44"/>
<path d="M4.60497 8.07153L4.54395 8.6665L5.15721 8.77633L5.29451 8.19358L4.60497 8.07153Z" fill="#FFDA44"/>
<path d="M3.51574 7.42468L3.20148 7.93116L3.70186 8.30035L4.08324 7.83658L3.51574 7.42468Z" fill="#FFDA44"/>
</g>
<circle cx="6" cy="6" r="6" stroke="#E1DED7"/>
</g>
<defs>
<clipPath id="clip0_91_5929">
<rect width="18" height="12" fill="white" transform="translate(-3)"/>
</clipPath>
</defs>
</svg>
