<svg width="12" height="12" viewBox="0 0 12 12" fill="none" xmlns="http://www.w3.org/2000/svg">
<mask id="mask0_66_1010" style="mask-type:alpha" maskUnits="userSpaceOnUse" x="0" y="0" width="12" height="12">
<circle cx="6" cy="6" r="6" fill="#D9D9D9"/>
</mask>
<g mask="url(#mask0_66_1010)">
<g clip-path="url(#clip0_66_1010)">
<path d="M15.2281 -0.315796H-3.22809V3.78947H15.2281V-0.315796Z" fill="#FFCE00"/>
<path d="M15.2281 3.78943H-3.22809V7.89469H15.2281V3.78943Z" fill="#203899"/>
<path d="M15.2281 7.89478H-3.22809V12H15.2281V7.89478Z" fill="#D82B2B"/>
<path d="M6.72183 4.10144L6.83667 4.47912L7.20579 4.59407L6.88589 4.81576L6.89409 5.20986L6.58239 4.97176L6.21326 5.09491L6.3363 4.73365L6.10663 4.42165H6.49216L6.72183 4.10144Z" fill="white"/>
<path d="M5.26993 4.10144L5.49141 4.42165H5.87694L5.64726 4.73365L5.7703 5.10312L5.40118 4.97176L5.08947 5.20165L5.09768 4.81576L4.77777 4.58586L5.14689 4.47912L5.26993 4.10144Z" fill="white"/>
<path d="M8.09169 4.56128L8.08348 4.95538L8.40339 5.17707L8.02606 5.29202L7.91123 5.66149L7.68975 5.34949H7.29602L7.5339 5.03749L7.41086 4.66802L7.77998 4.79938L8.09169 4.56128Z" fill="white"/>
<path d="M3.90011 4.57764L4.22822 4.79932L4.58914 4.65153L4.4825 5.02922L4.72858 5.32479L4.34306 5.34122L4.12978 5.66964L3.99854 5.30837L3.62122 5.20985L3.92472 4.96353L3.90011 4.57764Z" fill="white"/>
<path d="M9.27286 5.53836L9.10881 5.89962L9.31388 6.22804L8.92835 6.18699L8.67406 6.48257L8.59204 6.10488L8.23932 5.95709L8.57563 5.76004L8.60024 5.37415L8.88734 5.62867L9.27286 5.53836Z" fill="white"/>
<path d="M9.4287 6.45789L9.60095 6.81094L9.98648 6.86841L9.70759 7.13936L9.77321 7.51704L9.4287 7.33641L9.08418 7.51704L9.1498 7.13936L8.87091 6.86841L9.25644 6.81094L9.4287 6.45789Z" fill="white"/>
<path d="M2.51384 6.41687L2.6861 6.76992L3.07163 6.81919L2.79273 7.09013L2.85835 7.47603L2.51384 7.2954L2.16933 7.47603L2.23495 7.09013L1.95605 6.81919L2.34158 6.76992L2.51384 6.41687Z" fill="white"/>
<path d="M2.76809 5.47265L3.13721 5.58759L3.44891 5.34949V5.74359L3.76882 5.95707L3.3997 6.08022L3.29306 6.45791L3.06338 6.14591L2.67786 6.15412L2.89933 5.84212L2.76809 5.47265Z" fill="white"/>
<circle cx="5.99994" cy="6" r="6" stroke="#E1DED7"/>
</g>
</g>
<defs>
<clipPath id="clip0_66_1010">
<rect width="18.4561" height="12.3158" fill="white" transform="translate(-3.22809 -0.315796)"/>
</clipPath>
</defs>
</svg>
