<svg width="12" height="12" viewBox="0 0 12 12" fill="none" xmlns="http://www.w3.org/2000/svg">
<mask id="mask0_109_10814" style="mask-type:alpha" maskUnits="userSpaceOnUse" x="0" y="0" width="12" height="12">
<circle cx="6" cy="6" r="6" fill="#D9D9D9"/>
</mask>
<g mask="url(#mask0_109_10814)">
<g clip-path="url(#clip0_109_10814)">
<path d="M15 -0.00012207H-3V11.9996H15V-0.00012207Z" fill="#FFDA44"/>
<path d="M15 -0.00012207H6V12H15V-0.00012207Z" fill="white"/>
<path d="M8.29762 5.22082L9.42519 6.7125C9.24755 6.98148 9.2485 7.34394 9.45391 7.61573C9.71456 7.96051 10.2053 8.02875 10.5502 7.76813C10.8949 7.50749 10.9632 7.0167 10.7025 6.67189C10.4971 6.4001 10.1486 6.30036 9.84137 6.39785L8.08398 4.073L7.6678 4.38761L7.04346 4.85955L7.67272 5.69194L8.29762 5.22082ZM9.92096 6.93574C10.0359 6.84883 10.1995 6.87161 10.2864 6.98654C10.3733 7.10147 10.3505 7.26508 10.2356 7.35199C10.1207 7.43883 9.95707 7.41611 9.8702 7.30115C9.78333 7.18626 9.80604 7.02261 9.92096 6.93574Z" fill="#ACABB1"/>
<path d="M10.2316 5.69207L10.8609 4.85967L10.2365 4.38773L9.82035 4.07312L8.06296 6.39797C7.75569 6.30041 7.40726 6.40019 7.20181 6.67201C6.94116 7.01683 7.00939 7.50761 7.35417 7.76826C7.69898 8.0289 8.18977 7.96067 8.45042 7.61585C8.6559 7.34406 8.65682 6.9816 8.47914 6.71262L9.60671 5.22094L10.2316 5.69207ZM8.0342 7.3012C7.94733 7.41617 7.78371 7.43888 7.66879 7.35204C7.55382 7.26513 7.53111 7.10152 7.61798 6.98659C7.70486 6.8717 7.86847 6.84892 7.98344 6.93579C8.09833 7.02266 8.12107 7.18631 8.0342 7.3012Z" fill="#FFDA44"/>
</g>
<circle cx="6" cy="6" r="6" stroke="#E1DED7"/>
</g>
<defs>
<clipPath id="clip0_109_10814">
<rect width="18" height="12" fill="white" transform="translate(-3)"/>
</clipPath>
</defs>
</svg>
