<svg width="12" height="12" viewBox="0 0 12 12" fill="none" xmlns="http://www.w3.org/2000/svg">
<mask id="mask0_89_4801" style="mask-type:alpha" maskUnits="userSpaceOnUse" x="0" y="0" width="12" height="12">
<circle cx="6" cy="6" r="6" fill="#D9D9D9"/>
</mask>
<g mask="url(#mask0_89_4801)">
<g clip-path="url(#clip0_89_4801)">
<path d="M15 0H-3V12H15V0Z" fill="white"/>
<path d="M15 0.00695801H-3V3.18941H15V0.00695801Z" fill="#D80027"/>
<path d="M15 8.8175H-2.98245V12H15V8.8175Z" fill="#D80027"/>
<path d="M7.18598 6.78945L5.98247 4.58594L4.77896 6.78945H5.68072V7.39296H6.28422V6.78945H7.18598Z" fill="#6DA544"/>
<path d="M5.37964 7.46108C5.52043 7.30087 5.52043 7.03869 5.37644 6.87847L5.52683 7.04961C5.36044 6.87847 5.13645 6.80929 4.91565 6.85662L4.16368 7.07146C3.96849 7.12608 3.94609 7.0569 4.10608 6.91853L4.97325 6.17934C5.13645 6.04096 5.10765 5.92808 4.89966 5.92808H4.54767C4.34288 5.92808 4.32368 5.84433 4.49967 5.74238L5.30924 5.27993C5.48843 5.17797 5.47243 5.09422 5.26124 5.09422H4.90925C4.70446 5.09422 4.67246 4.98134 4.83566 4.84297L5.70283 4.10378C5.88202 3.96541 6.11561 3.96541 6.2948 4.10378L7.16197 4.84297C7.32517 4.98134 7.29637 5.09422 7.08838 5.09422H6.73639C6.5316 5.09422 6.5124 5.17797 6.68839 5.27993L7.49796 5.74238C7.67715 5.84433 7.66115 5.92808 7.44996 5.92808H7.09798C6.89318 5.92808 6.86118 6.04096 7.02438 6.17934L7.89155 6.91853C8.05474 7.0569 8.03234 7.12608 7.83395 7.07146L7.08198 6.85662C6.86438 6.80929 6.63719 6.87847 6.4708 7.04961L6.62119 6.87847C6.4804 7.03869 6.4772 7.29722 6.61799 7.46108L6.83558 7.70869C6.97638 7.86891 6.93478 8 6.72999 8H5.26444C5.06605 8 5.01805 7.86891 5.15885 7.70869C5.16205 7.71233 5.37964 7.46108 5.37964 7.46108Z" fill="#14AF5A"/>
</g>
<circle cx="6" cy="6" r="6" stroke="#E1DED7"/>
</g>
<defs>
<clipPath id="clip0_89_4801">
<rect width="18" height="12" fill="white" transform="translate(-3)"/>
</clipPath>
</defs>
</svg>
