<svg viewBox="0 0 24 24" xmlns="http://www.w3.org/2000/svg" id="Footwear-Sneakers-1--Streamline-Ultimate" height="24" width="24"><desc>Footwear Sneakers 1 Streamline Icon: https://streamlinehq.com</desc><path d="M10.5 5.25a3.751 3.751 0 0 1 -7.391 0.9 1.185 1.185 0 0 0 -1.15 -0.9A1.209 1.209 0 0 0 0.75 6.459v9.291a1.5 1.5 0 0 0 1.5 1.5h19.5a1.5 1.5 0 0 0 1.5 -1.5v-1.284a3 3 0 0 0 -1.479 -2.586Z" fill="none" stroke="#000000" stroke-linecap="round" stroke-linejoin="round" stroke-width="1.5"></path><path d="m0.75 14.25 22.5 0" fill="none" stroke="#000000" stroke-linecap="round" stroke-linejoin="round" stroke-width="1.5"></path><path d="m12.75 9 1.528 -1.528" fill="none" stroke="#000000" stroke-linecap="round" stroke-linejoin="round" stroke-width="1.5"></path><path d="m15.75 10.5 1.361 -1.361" fill="none" stroke="#000000" stroke-linecap="round" stroke-linejoin="round" stroke-width="1.5"></path><path d="m3.75 17.25 0 1.5" fill="none" stroke="#000000" stroke-linecap="round" stroke-linejoin="round" stroke-width="1.5"></path><path d="m8.25 17.25 0 1.5" fill="none" stroke="#000000" stroke-linecap="round" stroke-linejoin="round" stroke-width="1.5"></path><path d="m17.25 17.25 0 1.5" fill="none" stroke="#000000" stroke-linecap="round" stroke-linejoin="round" stroke-width="1.5"></path><path d="m14.25 17.25 0 1.5" fill="none" stroke="#000000" stroke-linecap="round" stroke-linejoin="round" stroke-width="1.5"></path><path d="m20.25 17.25 0 1.5" fill="none" stroke="#000000" stroke-linecap="round" stroke-linejoin="round" stroke-width="1.5"></path></svg>