<svg viewBox="0 0 24 24" xmlns="http://www.w3.org/2000/svg" id="Fitness-Dumbbell-Lift--Streamline-Ultimate.svg" height="24" width="24"><desc>Fitness Dumbbell Lift Streamline Icon: https://streamlinehq.com</desc><path d="M4 6.5h4.5v3H4z" fill="none" stroke="#000000" stroke-linecap="round" stroke-linejoin="round" stroke-width="1.5"></path><path d="m8.5 21.5 1.244 -4.974a1.5 1.5 0 0 0 -0.624 -1.612 3.8 3.8 0 0 1 -1.641 -2.539L7 9.5h1.5v-3A1.5 1.5 0 0 1 10 5h6a1.5 1.5 0 0 1 1.5 1.5v5.25a9.349 9.349 0 0 1 -0.544 2.926 3.4 3.4 0 0 0 0 1.648L18.25 21.5" fill="none" stroke="#000000" stroke-linecap="round" stroke-linejoin="round" stroke-width="1.5"></path><path d="M2.5 2.75A1.5 1.5 0 0 0 1 4.25v8.25a1.5 1.5 0 0 0 3 0V4.25a1.5 1.5 0 0 0 -1.5 -1.5Z" fill="none" stroke="#000000" stroke-linecap="round" stroke-linejoin="round" stroke-width="1.5"></path><path d="M22 2.75a1.5 1.5 0 0 0 -1.5 1.5v8.25a1.5 1.5 0 0 0 3 0V4.25a1.5 1.5 0 0 0 -1.5 -1.5Z" fill="none" stroke="#000000" stroke-linecap="round" stroke-linejoin="round" stroke-width="1.5"></path><path d="M17.5 6.5h3v3h-3z" fill="none" stroke="#000000" stroke-linecap="round" stroke-linejoin="round" stroke-width="1.5"></path><path d="m11.5 8 0 -3" fill="none" stroke="#000000" stroke-linecap="round" stroke-linejoin="round" stroke-width="1.5"></path><path d="m14.5 8 0 -3" fill="none" stroke="#000000" stroke-linecap="round" stroke-linejoin="round" stroke-width="1.5"></path></svg>