<svg xmlns="http://www.w3.org/2000/svg" height="24" width="24" viewBox="0 0 24 24"><path d="M2.043 2.045c-.382.064-.787.29-1.126.631C.57 3.023.393 3.341.3 3.78c-.087.412-.088 8.782-.001 9.191.092.434.278.768.62 1.11.709.708 1.691.872 2.592.431.366-.178.823-.635 1.001-1.001.22-.45.247-.667.247-2.041l.001-1.23h1.594l.022.11c.013.06.104.596.202 1.19.099.594.218 1.224.264 1.4.254.969.827 1.804 1.691 2.468.172.132.347.296.389.365.166.273.165.281-.519 3.018-.354 1.414-.643 2.643-.643 2.731 0 .793 1.137.991 1.434.25.024-.062.333-1.271.686-2.687.704-2.824.723-2.941.581-3.485-.139-.532-.414-.918-.938-1.317-.564-.43-.934-.903-1.146-1.468-.102-.27-.509-2.51-.464-2.554.011-.012.187-.021.391-.021.204 0 .421-.019.483-.043a.951.951 0 0 0 .386-.337c.033-.056.053-.602.067-1.82.022-1.903.015-1.85.266-2.087.172-.163.297-.193.797-.193h.457v1.197c0 .749.016 1.24.043 1.31.093.249.438.491.697.491.259 0 .604-.242.697-.491.027-.07.043-.561.043-1.31V5.76h1.52v1.197c0 .749.016 1.24.043 1.31.093.249.438.491.697.491.259 0 .604-.242.697-.491.027-.07.043-.561.043-1.31V5.76h.461c.297 0 .508.019.591.054.155.065.375.305.417.457.017.06.031 1.423.031 3.029 0 3.06-.004 3.142-.187 4.02-.043.209-.139.578-.212.82a8.836 8.836 0 0 0-.179.688 5.204 5.204 0 0 0-.001 1.343c.054.301 1.338 5.447 1.4 5.612.2.53.987.615 1.301.141.198-.299.203-.271-.535-3.224-.374-1.496-.692-2.839-.707-2.984-.034-.316.025-.736.165-1.176.328-1.038.419-1.674.444-3.11l.02-1.19h1.506l.014 1.39c.013 1.319.018 1.402.103 1.627.221.591.751 1.131 1.317 1.343a2.31 2.31 0 0 0 1.622 0c.394-.148.839-.511 1.075-.878l.114-.178V8.362l-.001-5.182-.204-.273a2.23 2.23 0 0 0-2.125-.876 2.288 2.288 0 0 0-1.851 1.649c-.043.163-.058.462-.059 1.15v.93h-1.634l-.043-.13c-.105-.317-.511-.784-.901-1.038a2.522 2.522 0 0 0-.52-.243C16.38 4.26 16.378 4.26 13 4.26s-3.38 0-3.662.089a2.437 2.437 0 0 0-.934.575c-.201.2-.463.585-.5.735l-.026.101H4.76l-.001-.85c-.001-1.298-.114-1.671-.676-2.234-.559-.561-1.223-.766-2.04-.631m.794 1.545a.97.97 0 0 1 .26.224l.123.153.011 4.358c.009 3.965.004 4.369-.055 4.486-.157.309-.397.446-.739.421a.688.688 0 0 1-.598-.394c-.079-.155-.08-.222-.07-4.514l.011-4.357.123-.153a.97.97 0 0 1 .26-.224.875.875 0 0 1 .674 0m19.531.02a.8.8 0 0 1 .266.27l.106.18v4.28c0 2.354-.014 4.329-.031 4.389-.042.152-.262.392-.417.457a.85.85 0 0 1-.584 0c-.155-.065-.375-.305-.417-.457-.017-.06-.031-2.044-.031-4.409v-4.3l.094-.15a.776.776 0 0 1 1.014-.26M7.74 8v.74l-1.49.01-1.49.011V7.239l1.49.011 1.49.01V8m12 0v.74h-1.48l-.011-.699c-.006-.384-.002-.722.009-.751.016-.041.178-.049.751-.041l.731.011V8" fill-rule="evenodd"/></svg>