<svg xmlns="http://www.w3.org/2000/svg" height="24" width="24"><path d="M4.538.078c-.751.267-1.264.825-1.459 1.585C3.008 1.941 3 2.109 3 3.291v1.318l-.11-.027c-.223-.056-.917-.07-1.144-.023-.313.065-.723.279-.989.516A2.152 2.152 0 0 0 .012 6.62c-.038.67.177 1.233.656 1.712a2.136 2.136 0 0 0 1.712.656c.95-.055 1.717-.655 2.03-1.588.085-.254.088-.323.109-2.86l.021-2.6.092-.148c.064-.103.161-.18.32-.254.383-.177.424-.205.541-.367.271-.378.124-.898-.311-1.096-.201-.091-.383-.09-.644.003m11.305.363c-1.047.219-1.977.952-2.403 1.894-.233.512-.298.83-.295 1.425.002.465.017.589.109.892.598 1.974 2.598 2.96 4.509 2.224.937-.361 1.666-1.178 1.983-2.224.092-.303.107-.427.109-.892.003-.445-.013-.595-.086-.852C19.43 1.728 18.623.892 17.46.52c-.225-.073-.394-.093-.86-.103-.319-.007-.66.004-.757.024m1.136 1.5c.516.135.96.505 1.21 1.009.128.259.145.333.162.686.024.503-.068.843-.326 1.192-.325.443-.721.688-1.25.775-.886.146-1.797-.425-2.06-1.292-.07-.231-.082-.348-.066-.675.017-.353.034-.427.162-.686.165-.332.494-.685.786-.845a1.971 1.971 0 0 1 1.382-.164M2.444 6.027c.083.016.204.098.321.215.153.152.194.224.217.377.073.49-.268.878-.766.871-.207-.003-.368-.085-.529-.269-.152-.172-.182-.278-.159-.56.038-.454.436-.73.916-.634M10 6.383c-.419.09-.742.274-1.082.615-.552.551-.771 1.239-.634 1.985.1.546.37.965.967 1.501.98.88 1.978 1.501 3.075 1.913l.414.155.011.802.011.801-1.191.851c-.708.507-1.305.966-1.473 1.133a3.748 3.748 0 0 0-1.022 1.916c-.067.326-.075.558-.075 2.165 0 1.464.011 1.848.06 2.056.187.792.879 1.478 1.684 1.668a2.45 2.45 0 0 0 1.27-.078 2.313 2.313 0 0 0 1.394-1.466c.079-.243.086-.36.102-1.76l.016-1.5.7-.5c.385-.275.714-.505.731-.511.016-.007.042.125.056.293.058.687.315 1.372.726 1.938.104.143.858.927 1.675 1.742 1.318 1.315 1.517 1.499 1.77 1.629.4.207.75.282 1.195.257.978-.057 1.763-.692 2.042-1.65.098-.336.09-.918-.018-1.261-.147-.466-.342-.705-1.649-2.019l-1.236-1.242.011-2.636.01-2.636.38-.145c1.025-.39 1.935-.935 2.84-1.7.889-.752 1.18-1.227 1.227-1.999.041-.685-.16-1.202-.662-1.704-.229-.228-.38-.34-.605-.446-.882-.417-1.797-.26-2.57.442-.938.853-1.856 1.314-3.01 1.514-.479.082-1.856.056-2.3-.044-1.023-.231-1.825-.656-2.691-1.424-.454-.403-.749-.569-1.169-.658a2.22 2.22 0 0 0-.98.003m.83 1.527c.071.039.26.188.42.333a7.09 7.09 0 0 0 3.73 1.763c.47.07 1.851.07 2.3-.001a6.997 6.997 0 0 0 3.7-1.749c.383-.341.518-.416.755-.416.305 0 .552.147.689.408.064.124.074.459.018.607-.092.242-.777.854-1.488 1.329a8.36 8.36 0 0 1-1.989.96c-.625.206-.774.298-.89.554-.069.153-.073.343-.074 3.342-.001 1.982.014 3.233.039 3.319.029.104.382.482 1.433 1.539.843.848 1.42 1.46 1.46 1.548a.733.733 0 0 1-.009.614.665.665 0 0 1-.478.402.714.714 0 0 1-.641-.119c-.264-.182-2.785-2.749-2.932-2.983-.319-.512-.352-.681-.353-1.8 0-.554-.018-1.006-.044-1.1-.122-.448-.606-.699-1.007-.524-.071.031-.839.567-1.707 1.19-1.383.994-1.589 1.156-1.67 1.31-.092.176-.092.184-.093 1.82-.001 1.513-.007 1.657-.075 1.804a.935.935 0 0 1-.177.255c-.102.095-.464.215-.559.186a2.702 2.702 0 0 0-.157-.038c-.134-.029-.374-.235-.453-.387-.048-.093-.058-.411-.058-1.852 0-1.101.016-1.818.044-1.952a2.36 2.36 0 0 1 .553-1.031c.124-.127.758-.61 1.423-1.082 1.453-1.031 1.521-1.085 1.621-1.281.074-.146.079-.24.079-1.598 0-1.121-.012-1.471-.054-1.572-.097-.231-.304-.369-.793-.526a8.094 8.094 0 0 1-2.954-1.65c-.525-.451-.646-.615-.67-.907-.037-.441.284-.784.732-.785.115 0 .255.03.329.07m-4.259 3.368c-.177.043-.305.134-.438.308l-.113.148-.013.937-.012.937-.108-.027c-.22-.055-.915-.069-1.141-.022-.313.065-.723.279-.989.516a2.152 2.152 0 0 0-.745 1.545c-.038.67.177 1.233.656 1.712a2.136 2.136 0 0 0 1.712.656c.96-.056 1.736-.67 2.032-1.608.086-.274.088-.324.088-2.42v-2.14l-.106-.18c-.166-.283-.518-.438-.823-.362m-1.127 3.749c.083.016.204.098.321.215.153.152.194.224.217.377.073.49-.268.878-.766.871-.207-.003-.368-.085-.529-.269-.152-.172-.182-.278-.159-.56.038-.454.436-.73.916-.634" fill-rule="evenodd"/></svg>