<svg viewBox="0 0 24 24" xmlns="http://www.w3.org/2000/svg" id="Party-Music-Dance--Streamline-Ultimate.svg" height="24" width="24"><desc>Party Music Dance Streamline Icon: https://streamlinehq.com</desc><path d="M18.75 12a9.129 9.129 0 0 0 4.061 -2.366 1.5 1.5 0 1 0 -2.122 -2.121 6.227 6.227 0 0 1 -4.371 1.811h-0.386a6.227 6.227 0 0 1 -4.371 -1.811 1.5 1.5 0 1 0 -2.122 2.121A9.129 9.129 0 0 0 13.5 12v2.55l-2.493 1.782a3 3 0 0 0 -1.257 2.44v2.978a1.5 1.5 0 0 0 3 0v-2.978l3 -2.143v1.5a3.023 3.023 0 0 0 0.879 2.121l2.56 2.561a1.5 1.5 0 0 0 2.122 -2.122l-2.561 -2.56Z" fill="none" stroke="#000000" stroke-linecap="round" stroke-linejoin="round" stroke-width="1.5"></path><path d="M13.875 3.75a2.625 2.625 0 1 0 5.25 0 2.625 2.625 0 1 0 -5.25 0Z" fill="none" stroke="#000000" stroke-linecap="round" stroke-linejoin="round" stroke-width="1.5"></path><path d="M0.75 6.75a1.5 1.5 0 1 0 3 0 1.5 1.5 0 1 0 -3 0Z" fill="none" stroke="#000000" stroke-linecap="round" stroke-linejoin="round" stroke-width="1.5"></path><path d="M4.886 0.75A1.5 1.5 0 0 0 3.75 2.205V6.75" fill="none" stroke="#000000" stroke-linecap="round" stroke-linejoin="round" stroke-width="1.5"></path><path d="M3.75 15.75a1.5 1.5 0 1 0 3 0 1.5 1.5 0 1 0 -3 0Z" fill="none" stroke="#000000" stroke-linecap="round" stroke-linejoin="round" stroke-width="1.5"></path><path d="m6.75 12 0 3.75" fill="none" stroke="#000000" stroke-linecap="round" stroke-linejoin="round" stroke-width="1.5"></path></svg>