<svg width="24" height="24" viewBox="0 0 24 24" xmlns="http://www.w3.org/2000/svg">
<path fill-rule="evenodd" clip-rule="evenodd" d="M3 5C3 3.89543 3.89543 3 5 3H7C7.55228 3 8 3.44772 8 4C8 4.55228 7.55228 5 7 5H6.41421L7.5 6.08579L8.29289 5.29289C8.68342 4.90237 9.31658 4.90237 9.70711 5.29289C10.0976 5.68342 10.0976 6.31658 9.70711 6.70711L8.91421 7.5L9.24261 7.8284C10.033 7.30488 10.9809 7 12 7C13.0191 7 13.967 7.30488 14.7574 7.8284L17.5858 5H17C16.4477 5 16 4.55228 16 4C16 3.44772 16.4477 3 17 3H19C20.1046 3 21 3.89543 21 5V7C21 7.55228 20.5523 8 20 8C19.4477 8 19 7.55228 19 7V6.41421L16.1716 9.24261C16.6951 10.033 17 10.9809 17 12C17 14.419 15.2822 16.4367 13 16.9V18H14C14.5523 18 15 18.4477 15 19C15 19.5523 14.5523 20 14 20H13V21C13 21.5523 12.5523 22 12 22C11.4477 22 11 21.5523 11 21V20H10C9.44772 20 9 19.5523 9 19C9 18.4477 9.44772 18 10 18H11V16.9C8.71776 16.4367 7 14.419 7 12C7 10.9809 7.30488 10.033 7.8284 9.24261L7.5 8.91421L6.70711 9.70711C6.31658 10.0976 5.68342 10.0976 5.29289 9.70711C4.90237 9.31658 4.90237 8.68342 5.29289 8.29289L6.08579 7.5L5 6.41421V7C5 7.55228 4.55228 8 4 8C3.44772 8 3 7.55228 3 7V5ZM15 12C15 13.6569 13.6569 15 12 15C10.3431 15 9 13.6569 9 12C9 10.3431 10.3431 9 12 9C13.6569 9 15 10.3431 15 12Z" />
</svg>
