<svg width="12" height="12" viewBox="0 0 12 12"  xmlns="http://www.w3.org/2000/svg">
<path d="M7.91128 3.73642C7.3931 3.24097 6.73401 2.9887 5.99992 2.9887C4.69774 2.9887 3.59552 3.86812 3.20227 5.04982C3.10227 5.34982 3.04545 5.67049 3.04545 6.00003C3.04545 6.32958 3.10227 6.65003 3.20227 6.95003C3.59546 8.13184 4.69765 9.01144 5.99992 9.01144C6.67265 9.01144 7.24537 8.83416 7.6931 8.53416C8.22265 8.17962 8.575 7.65003 8.69091 7.02503H6V5.09094H10.7091C10.7682 5.41822 10.8 5.75912 10.8 6.11367C10.8 7.6364 10.2545 8.91821 9.30909 9.78867C8.48182 10.5523 7.34992 11.0001 5.99992 11.0001C4.04537 11.0001 2.35447 9.87962 1.53174 8.24553C1.19315 7.57057 1 6.80679 1 6.00003C1 5.19324 1.19317 4.42963 1.53179 3.75464C2.35451 2.12055 4.04537 1.00006 5.99992 1.00006C7.34765 1.00006 8.47946 1.49552 9.34537 2.30233L7.91128 3.73642Z" />
</svg>
