<svg xmlns="http://www.w3.org/2000/svg" height="24" width="24" viewBox="0 0 24 24"><path d="M3.808.043c-.421.083-.852.425-1.04.826L2.66 1.1v13.88l.111.4c.136.49.47 1.184.751 1.56.273.366 5.813 5.904 6.178 6.175.388.29 1.082.624 1.56.752.354.094.476.107 1.06.109.692.003.901-.026 1.456-.201 1.273-.403 2.374-1.473 2.834-2.755.183-.509.248-.911.248-1.54 0-.957-.202-1.64-.728-2.46-.133-.208-.733-.836-2.335-2.441l-2.155-2.162-.001-5.478c0-6.074.009-5.843-.256-6.242a1.468 1.468 0 0 0-.935-.652c-.254-.054-6.368-.056-6.64-.002m9.77.03c-.436.205-.581.717-.311 1.1.181.256.351.32.901.34l.472.017v5.672c0 3.89.013 5.708.042 5.785.024.062 1.063 1.139 2.311 2.393 2.016 2.026 2.289 2.316 2.456 2.602.506.871.547 1.946.108 2.838-.282.571-.706 1.003-1.327 1.349-.401.223-.507.331-.57.578a.74.74 0 0 0 .721.932c.331.002 1.126-.471 1.631-.97.619-.613.995-1.269 1.235-2.156.077-.287.09-.432.09-1.053 0-.615-.013-.767-.088-1.042a4.782 4.782 0 0 0-.767-1.639c-.095-.131-1.116-1.185-2.268-2.34l-2.094-2.101V6.819c-.001-6.017.009-5.736-.215-6.091a1.557 1.557 0 0 0-.665-.582c-.25-.119-.284-.124-.88-.136-.543-.012-.64-.004-.782.063M10.12 7.145c0 4.185.012 5.668.047 5.79.04.141.323.442 1.919 2.046l1.873 1.881-.21.073c-.347.121-1.058.493-1.425.745a6.783 6.783 0 0 0-1.81 1.835c-.282.422-.624 1.087-.716 1.395-.028.093-.061.17-.074.17-.037 0-2.684-2.656-2.684-2.693 0-.018.052-.108.115-.2.57-.831.84-2.103.664-3.132-.246-1.448-1.113-2.641-2.4-3.302a4.953 4.953 0 0 0-1.15-.414l-.149-.028V1.52h6v5.625m-5.533 5.876c.839.382 1.375.996 1.659 1.9.124.393.132 1.24.017 1.619-.095.311-.288.74-.334.74-.044 0-.977-.952-1.176-1.2a3.124 3.124 0 0 1-.515-1c-.075-.259-.09-.433-.107-1.268l-.021-.967.095.023c.052.013.224.082.382.153m10.474 5.221c.223.432.289 1.35.139 1.942-.424 1.672-2.167 2.623-3.844 2.097-.396-.124-.382-.097-.259-.526.472-1.648 1.862-3.045 3.513-3.533a6 6 0 0 1 .359-.1c.016-.001.057.053.092.12" fill-rule="evenodd"/></svg>