<svg width="12" height="12" viewBox="0 0 12 12"  xmlns="http://www.w3.org/2000/svg">
<path fill-rule="evenodd" clip-rule="evenodd" d="M6 2.5C4.067 2.5 2.5 4.067 2.5 6H3C3.82843 6 4.5 6.67157 4.5 7.5V8.7C4.5 9.41797 3.91797 10 3.2 10C2.26112 10 1.5 9.23888 1.5 8.3V6C1.5 3.51472 3.51472 1.5 6 1.5C8.48528 1.5 10.5 3.51472 10.5 6V8.3C10.5 9.23888 9.73888 10 8.8 10C8.08203 10 7.5 9.41797 7.5 8.7V7.5C7.5 6.67157 8.17157 6 9 6H9.5C9.5 4.067 7.933 2.5 6 2.5ZM9.5 7H9C8.72386 7 8.5 7.22386 8.5 7.5V8.7C8.5 8.86569 8.63431 9 8.8 9C9.1866 9 9.5 8.6866 9.5 8.3V7ZM2.5 7V8.3C2.5 8.6866 2.8134 9 3.2 9C3.36569 9 3.5 8.86569 3.5 8.7V7.5C3.5 7.22386 3.27614 7 3 7H2.5Z" />
</svg>
