<svg width="12" height="12" viewBox="0 0 12 12"  xmlns="http://www.w3.org/2000/svg">
<path fill-rule="evenodd" clip-rule="evenodd" d="M7.03016 1.7232C7.37892 1.57593 7.75306 1.5 8.13115 1.5C8.50923 1.5 8.88338 1.57593 9.23213 1.7232C9.58086 1.87046 9.89709 2.08604 10.163 2.35715C10.4289 2.62809 10.6394 2.94924 10.7828 3.30203C10.9263 3.65488 11 4.03276 11 4.41416C11 4.79557 10.9263 5.17345 10.7828 5.5263C10.6394 5.87913 10.4289 6.20031 10.1629 6.47126L6.35677 10.3502C6.2637 10.445 6.13669 10.4989 6.0038 10.5C5.87091 10.501 5.74308 10.4491 5.64853 10.3557L2.94864 7.68907C2.75217 7.49502 2.75022 7.17844 2.94426 6.98198C3.13831 6.78551 3.45489 6.78355 3.65136 6.9776L5.99434 9.29175L9.44913 5.77088C9.62315 5.59362 9.76177 5.38255 9.85645 5.14966C9.95115 4.91676 10 4.66681 10 4.41416C10 4.16152 9.95115 3.91157 9.85645 3.67867C9.76177 3.44578 9.62323 3.2348 9.44921 3.05753C9.27529 2.8802 9.06914 2.73988 8.84311 2.64443C8.61711 2.54899 8.37521 2.5 8.13115 2.5C7.88708 2.5 7.64518 2.54899 7.41918 2.64443C7.19315 2.73988 6.98717 2.88003 6.81324 3.05736L6.35677 3.52257C6.26275 3.61839 6.13414 3.67238 5.99989 3.67238C5.86563 3.67238 5.73702 3.61839 5.643 3.52257L5.18661 3.05745C4.83541 2.69953 4.36112 2.50023 3.86862 2.50023C3.37612 2.50023 2.90184 2.69953 2.55064 3.05745C2.19913 3.41568 2 3.90353 2 4.41416C2 4.60406 2.02755 4.79092 2.08031 4.96923C2.15867 5.23402 2.00754 5.5122 1.74275 5.59056C1.47796 5.66892 1.19978 5.51779 1.12142 5.25299C1.04158 4.98322 1 4.70081 1 4.41416C1 3.64437 1.29997 2.90423 1.83687 2.35707C2.37408 1.80958 3.10473 1.50023 3.86862 1.50023C4.63252 1.50023 5.36317 1.80958 5.90038 2.35707L5.99988 2.45848L6.09931 2.35715C6.36519 2.08608 6.68147 1.87045 7.03016 1.7232Z" />
<path fill-rule="evenodd" clip-rule="evenodd" d="M4.0625 3.5C4.24033 3.5 4.40478 3.59446 4.49439 3.74806L5.85906 6.0875L6.50225 5.20541C6.59637 5.07633 6.7465 5 6.90625 5H8C8.27614 5 8.5 5.22386 8.5 5.5C8.5 5.77614 8.27614 6 8 6H7.16047L6.2165 7.29459C6.11707 7.43095 5.95556 7.50795 5.78702 7.49935C5.61848 7.49075 5.46565 7.39771 5.38061 7.25194L4.0625 4.99232L3.61939 5.75194C3.52978 5.90554 3.36533 6 3.1875 6H1C0.723858 6 0.5 5.77614 0.5 5.5C0.5 5.22386 0.723858 5 1 5H2.90031L3.63061 3.74806C3.72022 3.59446 3.88467 3.5 4.0625 3.5Z" />
</svg>
