<svg width="24" height="24" viewBox="0 0 24 24"  xmlns="http://www.w3.org/2000/svg">
<path fill-rule="evenodd" clip-rule="evenodd" d="M7.44721 4.10555C7.94119 4.35254 8.14141 4.95321 7.89442 5.44719L7.45449 6.32706C6.66307 7.90989 6.81966 9.80182 7.86052 11.233C9.27621 13.1796 9.54609 15.7335 8.56855 17.933L7.91381 19.4061C7.6895 19.9108 7.09854 20.1381 6.59386 19.9138C6.08917 19.6895 5.86188 19.0985 6.08619 18.5938L6.74092 17.1207C7.42832 15.574 7.23854 13.7782 6.24305 12.4094C4.76284 10.3741 4.54017 7.68356 5.66563 5.43263L6.10557 4.55276C6.35256 4.05878 6.95323 3.85856 7.44721 4.10555ZM12.4472 4.10555C12.9412 4.35254 13.1414 4.95321 12.8944 5.44719L12.4545 6.32706C11.6631 7.90989 11.8197 9.80182 12.8605 11.233C14.2762 13.1796 14.5461 15.7335 13.5685 17.933L12.9138 19.4061C12.6895 19.9108 12.0985 20.1381 11.5939 19.9138C11.0892 19.6895 10.8619 19.0985 11.0862 18.5938L11.7409 17.1207C12.4283 15.574 12.2385 13.7782 11.243 12.4094C9.76284 10.3741 9.54017 7.68356 10.6656 5.43263L11.1056 4.55276C11.3526 4.05878 11.9532 3.85856 12.4472 4.10555ZM17.8944 5.44719C18.1414 4.95321 17.9412 4.35254 17.4472 4.10555C16.9532 3.85856 16.3526 4.05878 16.1056 4.55276L15.6656 5.43263C14.5402 7.68356 14.7628 10.3741 16.243 12.4094C17.2385 13.7782 17.4283 15.574 16.7409 17.1207L16.0862 18.5938C15.8619 19.0985 16.0892 19.6895 16.5939 19.9138C17.0985 20.1381 17.6895 19.9108 17.9138 19.4061L18.5685 17.933C19.5461 15.7335 19.2762 13.1796 17.8605 11.233C16.8197 9.80182 16.6631 7.90989 17.4545 6.32706L17.8944 5.44719Z"/>
</svg>
