<svg width="12" height="12" viewBox="0 0 12 12"  xmlns="http://www.w3.org/2000/svg">
<path fill-rule="evenodd" clip-rule="evenodd" d="M6 1.5C3.51472 1.5 1.5 3.51472 1.5 6C1.5 8.48528 3.51472 10.5 6 10.5C8.48528 10.5 10.5 8.48528 10.5 6C10.5 3.51472 8.48528 1.5 6 1.5ZM0.5 6C0.5 2.96243 2.96243 0.5 6 0.5C9.03757 0.5 11.5 2.96243 11.5 6C11.5 9.03757 9.03757 11.5 6 11.5C2.96243 11.5 0.5 9.03757 0.5 6Z" />
<path fill-rule="evenodd" clip-rule="evenodd" d="M6.12906 4.01216C5.8963 3.97223 5.65692 4.01597 5.45332 4.13563C5.24972 4.25529 5.09504 4.44314 5.01667 4.66592C4.92503 4.92642 4.63957 5.0633 4.37908 4.97167C4.11858 4.88003 3.9817 4.59457 4.07333 4.33408C4.23007 3.88852 4.53943 3.51282 4.94664 3.2735C5.35384 3.03418 5.8326 2.9467 6.29812 3.02655C6.76364 3.1064 7.18588 3.34843 7.49005 3.70976C7.79416 4.07103 7.96064 4.52824 7.96 5.00046C7.95977 5.76563 7.39247 6.27095 6.98735 6.54103C6.76953 6.68624 6.55528 6.79301 6.39744 6.86316C6.31782 6.89855 6.25077 6.9254 6.20245 6.94381C6.17825 6.95303 6.15863 6.96017 6.14435 6.96525L6.12698 6.97133L6.12145 6.97322L6.11951 6.97388L6.11874 6.97413C6.11874 6.97413 6.11811 6.97434 5.96 6.5L6.11811 6.97434C5.85614 7.06167 5.57298 6.92009 5.48566 6.65811C5.39839 6.39632 5.53973 6.11336 5.80136 6.02583L5.80072 6.02605L5.80136 6.02583L5.80934 6.02303C5.81703 6.0203 5.82964 6.01572 5.84646 6.00932C5.88017 5.99647 5.93031 5.97645 5.99131 5.94934C6.11472 5.89449 6.27547 5.81376 6.43265 5.70897C6.77745 5.47911 6.96 5.23457 6.96 5L6.96 4.99926C6.96035 4.7631 6.87711 4.53443 6.72503 4.35376C6.57294 4.1731 6.36182 4.05208 6.12906 4.01216Z" />
<path fill-rule="evenodd" clip-rule="evenodd" d="M5.5 8.5C5.5 8.22386 5.72386 8 6 8H6.005C6.28114 8 6.505 8.22386 6.505 8.5C6.505 8.77614 6.28114 9 6.005 9H6C5.72386 9 5.5 8.77614 5.5 8.5Z" />
</svg>
