<svg width="12" height="12" viewBox="0 0 12 12"  xmlns="http://www.w3.org/2000/svg">
<path d="M6.50011 1.5C4.01511 1.5 2.00011 3.515 2.00011 6H1.34509C1.03327 6 0.877111 6.377 1.0976 6.59749L2.44511 7.945L2.48011 8.015L3.90083 6.59779C4.12174 6.37743 3.96568 6 3.65365 6H3.00011C3.00011 4.065 4.56511 2.5 6.50011 2.5C8.43511 2.5 10.0001 4.065 10.0001 6C10.0001 7.935 8.43511 9.5 6.50011 9.5C5.53511 9.5 4.66011 9.105 4.03011 8.47L3.32011 9.18C4.13511 9.995 5.25511 10.5 6.50011 10.5C8.98511 10.5 11.0001 8.485 11.0001 6C11.0001 3.515 8.98511 1.5 6.50011 1.5ZM6.37511 4C6.168 4 6.00011 4.16789 6.00011 4.375V6.5L7.83766 7.59051C8.00476 7.68967 8.2206 7.63474 8.31996 7.46776C8.41944 7.30058 8.36449 7.0844 8.19725 6.98501L6.75011 6.125V4.375C6.75011 4.16789 6.58222 4 6.37511 4Z" />
</svg>
