<svg width="24" height="24" viewBox="0 0 24 24" fill="none" xmlns="http://www.w3.org/2000/svg">
<path fill-rule="evenodd" clip-rule="evenodd" d="M8.95407 5C8.2466 5 7.76285 5.71453 8.02559 6.37139L8.49129 7.53564C9.33505 7.19034 10.2586 7 11.2267 7H12.7733C13.7414 7 14.665 7.19034 15.5087 7.53565L15.9744 6.37139C16.2372 5.71453 15.7534 5 15.0459 5H8.95407ZM6.16864 7.11417L6.74563 8.55665C5.0731 9.88026 4 11.9282 4 14.2267C4 16.3323 4.7879 18.3618 6.20872 19.9158L6.41636 20.1429C6.91562 20.689 7.62144 21 8.36134 21H15.6387C16.3786 21 17.0844 20.689 17.5836 20.1429L17.7913 19.9158C19.2121 18.3618 20 16.3323 20 14.2267C20 11.9282 18.9269 9.88027 17.2544 8.55666L17.8314 7.11417C18.6196 5.14358 17.1683 3 15.0459 3H8.95407C6.83167 3 5.3804 5.14358 6.16864 7.11417ZM12.7733 9H11.2267C8.34008 9 6 11.3401 6 14.2267C6 15.8328 6.601 17.3809 7.68478 18.5662L7.89242 18.7934C8.01279 18.925 8.18296 19 8.36134 19H15.6387C15.817 19 15.9872 18.925 16.1076 18.7934L16.3152 18.5662C17.399 17.3809 18 15.8329 18 14.2267C18 11.3401 15.6599 9 12.7733 9ZM11.1344 11C8.85106 11 7 12.8511 7 15.1344C7 15.9539 7.32551 16.7397 7.90493 17.3191L8.09289 17.5071C8.40849 17.8227 8.83653 18 9.28284 18H14.7172C15.1635 18 15.5915 17.8227 15.9071 17.5071L16.0951 17.3191C16.6745 16.7397 17 15.9539 17 15.1344C17 12.8511 15.1489 11 12.8656 11H11.1344ZM9 15.1344C9 13.9556 9.95562 13 11.1344 13H12.8656C14.0444 13 15 13.9556 15 15.1344C15 15.4234 14.8852 15.7006 14.6809 15.9049L14.5858 16H9.41421L9.31915 15.9049C9.1148 15.7006 9 15.4234 9 15.1344Z" fill="black"/>
</svg>
