<svg width="12" height="12" viewBox="0 0 12 12"  xmlns="http://www.w3.org/2000/svg">
<path fill-rule="evenodd" clip-rule="evenodd" d="M1.12509 6.3959C0.976598 6.54018 0.742178 6.53368 0.6015 6.38139C0.460822 6.2291 0.467157 5.98868 0.615651 5.84441L5.33773 1.27065C5.70914 0.909784 6.29086 0.909784 6.66227 1.27065L11.3843 5.84441C11.5328 5.98868 11.5392 6.2291 11.3985 6.38139C11.2578 6.53368 11.0234 6.54018 10.8749 6.3959L10.75 6.27492V10.25C10.75 10.6642 10.4142 11 10 11C9 11 8 11 7 11V7.5H5V11C4 11 3 11 2 11C1.58579 11 1.25 10.6642 1.25 10.25V6.27492L1.12509 6.3959Z" />
</svg>
