<svg width="12" height="12" viewBox="0 0 12 12"  xmlns="http://www.w3.org/2000/svg">
<path fill-rule="evenodd" clip-rule="evenodd" d="M5.33773 1.27065L0.615651 5.84441C0.611382 5.84856 0.607231 5.85278 0.603197 5.85708C0.602932 5.85737 0.602666 5.85765 0.602402 5.85794C0.496409 5.97168 0.472244 6.13745 0.532026 6.27492C0.548666 6.31318 0.571808 6.34925 0.6015 6.38139C0.742178 6.53368 0.976598 6.54018 1.12509 6.3959L1.25 6.27492V10.25C1.25 10.6642 1.58579 11 2 11H5V7.5H7V11H10C10.4142 11 10.75 10.6642 10.75 10.25V6.27492L10.8749 6.3959C11.0234 6.54018 11.2578 6.53368 11.3985 6.38139C11.4282 6.34925 11.4513 6.31318 11.468 6.27492C11.5278 6.13745 11.5036 5.97168 11.3976 5.85794C11.3973 5.85765 11.3971 5.85737 11.3968 5.85708C11.3928 5.85278 11.3886 5.84856 11.3843 5.84441L6.66227 1.27065C6.29086 0.909784 5.70914 0.909784 5.33773 1.27065ZM9.75 5.65357L6 2.02136L2.25 5.65357V10H4V6.5H8V10H9.75V5.65357Z" />
</svg>
