<svg xmlns="http://www.w3.org/2000/svg" height="24" width="24"><path d="M2.5.815c-.267.124-.399.334-.559.884-.294 1.014-.096 2.134.544 3.084.171.255.275.613.275.946-.001.39-.077.651-.296 1.02-.214.36-.251.51-.185.748.054.192.271.432.454.501a.867.867 0 0 0 .56-.013c.197-.082.455-.403.647-.805.511-1.065.436-2.229-.208-3.244-.301-.474-.379-.706-.401-1.196-.017-.366-.008-.433.105-.784.068-.211.124-.428.124-.482 0-.163-.188-.487-.343-.592C3.041.763 2.682.73 2.5.815m4.4 0c-.267.124-.399.334-.559.884-.294 1.014-.096 2.134.544 3.084.171.255.275.613.275.946-.001.39-.077.651-.296 1.02-.214.36-.251.51-.185.748.054.192.271.432.454.501a.867.867 0 0 0 .56-.013c.197-.082.455-.403.647-.805.511-1.065.436-2.229-.208-3.244-.339-.534-.391-.704-.391-1.276 0-.424.013-.515.11-.777.06-.163.109-.344.109-.402 0-.169-.185-.492-.343-.599C7.441.763 7.082.73 6.9.815m4.3.009c-.214.092-.307.202-.435.512a3.385 3.385 0 0 0-.245 1.324c0 .699.172 1.316.526 1.89.379.614.474.969.394 1.468-.051.324-.099.446-.316.806-.132.218-.164.309-.164.465a.73.73 0 0 0 .74.751c.375 0 .639-.24.943-.859.23-.468.317-.859.317-1.417-.001-.701-.158-1.265-.495-1.774-.471-.712-.57-1.336-.324-2.049.054-.158.099-.363.099-.456 0-.523-.55-.873-1.04-.661m7.22 4.6c-1.212.269-2.134 1.108-2.525 2.296-.103.315-.111.387-.111.98s.008.665.111.98c.356 1.083 1.155 1.881 2.225 2.221.264.084.45.113.83.129l.49.021-.001.184c-.002.615-.377 1.34-.888 1.717-.681.502-2.022 1.386-2.23 1.471a2.343 2.343 0 0 1-1.654.016c-.184-.069-2.042-1.186-2.528-1.52-.22-.151-.353-.425-.356-.738-.007-.636.534-1.091 1.124-.944.106.026.682.316 1.28.645.597.328 1.164.617 1.26.642a.673.673 0 0 0 .681-.208c.314-.33.287-.831-.058-1.089-.252-.188-2.355-1.317-2.601-1.396a2.99 2.99 0 0 0-.634-.1c-.731-.04-1.357.188-1.834.666-.758.761-.936 1.9-.454 2.915.233.493.466.689 1.773 1.494.627.387 1.257.766 1.4.844 1.059.574 2.522.568 3.556-.016.303-.17 1.958-1.311 2.294-1.581.919-.737 1.389-1.819 1.39-3.196v-.363l.258-.206a3.456 3.456 0 0 0 1.087-1.608c.103-.315.111-.388.112-.98 0-.609-.006-.658-.123-1.007a3.308 3.308 0 0 0-.641-1.15 3.464 3.464 0 0 0-1.663-1.066c-.392-.114-1.178-.14-1.57-.053m1.242 1.516c.111.032.31.127.441.212.986.637 1.127 2.022.292 2.859a1.828 1.828 0 0 1-2.59 0 1.845 1.845 0 0 1-.008-2.614c.487-.486 1.169-.654 1.865-.457M.5 11.617a.89.89 0 0 0-.215.144c-.111.107-.243.381-.244.508-.002.171 1.271 5.272 1.396 5.597.519 1.346 1.742 2.443 3.374 3.027.068.024.067.033-.008.181-.197.386-.388.517-.836.573-.349.043-.47.098-.639.29-.205.234-.223.617-.041.886.118.175.434.337.657.337a3.02 3.02 0 0 0 1.075-.253c.499-.238.953-.749 1.241-1.396l.12-.269 5.348-.001 5.348-.001.156.333c.507 1.081 1.243 1.618 2.241 1.636.37.007.593-.089.745-.32a.754.754 0 0 0-.638-1.168c-.366-.003-.617-.148-.825-.475l-.112-.176.469-.157c1.642-.548 2.924-1.679 3.451-3.047.069-.178.412-1.495.763-2.925.485-1.978.632-2.635.613-2.741a.834.834 0 0 0-.328-.521c-.135-.092-.184-.1-.714-.112-.511-.011-.585-.004-.731.07-.312.159-.46.485-.389.861.026.14.242.406.398.49.07.038.048.147-.415 2.036a95.213 95.213 0 0 1-.549 2.176c-.428 1.296-1.874 2.305-3.61 2.518-.48.059-10.735.057-11.221-.002-1.53-.187-2.834-.995-3.419-2.118a4.096 4.096 0 0 1-.3-.868c-.224-.898-.901-3.659-.901-3.675 0-.008 1.558-.015 3.462-.015 3.721 0 3.561.008 3.792-.195.291-.255.291-.835 0-1.09-.233-.205-.02-.195-4.362-.193-3.288.001-4.054.011-4.152.055" fill-rule="evenodd"/></svg>