<svg xmlns="http://www.w3.org/2000/svg" fill="none" viewBox="0 0 24 24" id="Take-Bath--Streamline-Ultimate" height="24" width="24"><desc>Take Bath Streamline Icon: https://streamlinehq.com</desc><path stroke="#000000" stroke-linecap="round" stroke-linejoin="round" stroke-miterlimit="10" d="m15.6 12.8 -2 -1.1c-0.9 -0.5 -2 -0.2 -2.4 0.7 -0.4 0.8 -0.1 1.8 0.6 2.2l2.1 1.3c1 0.6 2.3 0.6 3.3 -0.1l1.6 -1.1c0.9 -0.6 1.4 -1.5 1.4 -2.6v-1.0435m1.5 -2.35652C21.7 10.1359 20.5359 11.3 19.1 11.3c-1.4359 0 -2.6 -1.1641 -2.6 -2.60002 0 -1.43594 1.1641 -2.6 2.6 -2.6 1.4359 0 2.6 1.16406 2.6 2.6Z" stroke-width="1.5"></path><path stroke="#000000" stroke-linecap="round" stroke-linejoin="round" stroke-miterlimit="10" d="M8.49998 12.3H0.799988l1.199992 4.9c0.5 1.9 2.6 3.3 5 3.3H17c2.4 0 4.5 -1.4 5 -3.3l1.2 -4.9h-0.7M5.89996 20.4005c-0.5 1.5 -1 2 -2 2M17.6 20.4707c0.5 1.5 1 2 2 2" stroke-width="1.5"></path><path stroke="#000000" stroke-linecap="round" stroke-linejoin="round" stroke-miterlimit="10" d="M2.79998 1.5c-0.4 0.9 -0.3 1.89998 0.2 2.69998 0.7 0.9 0.7 2.20001 0 3.10001" stroke-width="1.5"></path><path stroke="#000000" stroke-linecap="round" stroke-linejoin="round" stroke-miterlimit="10" d="M7.19994 1.5c-0.4 0.9 -0.3 1.89998 0.2 2.69998 0.7 0.9 0.7 2.20001 0 3.10001" stroke-width="1.5"></path><path stroke="#000000" stroke-linecap="round" stroke-linejoin="round" stroke-miterlimit="10" d="M11.5 1.5c-0.4 0.9 -0.3 1.89998 0.2 2.69998 0.7 0.9 0.7 2.20001 0 3.10001" stroke-width="1.5"></path></svg>