<svg width="32" height="32" viewBox="0 0 32 32" fill="white" xmlns="http://www.w3.org/2000/svg">
  <path d="M17.7034 15.1737L17.6974 15.1559C17.6312 14.9871 17.6613 14.7976 17.7725 14.6525C20.7708 10.7972 17.1139 3.08051 14.7683 0.853755C14.0495 0.1727 13.0752 -0.120463 12.0918 0.04536C11.1054 0.214143 10.2844 0.815252 9.83632 1.6947L9.59273 2.18329L9.64085 2.16553C9.23487 3.424 9.77918 4.83052 11.0783 5.78103C11.3069 5.94982 11.5715 6.13637 11.8602 6.34069C13.7247 7.65838 16.8493 9.8644 17.1711 11.8868C17.2613 12.4583 17.129 12.9706 16.7651 13.4592C16.6208 13.6517 16.3621 13.7316 16.1366 13.6546L16.1185 13.6487C15.9261 13.5836 15.7847 13.4414 15.7396 13.2727C14.4736 8.61483 6.09827 6.64271 2.90153 7.05727C1.91213 7.1846 1.07009 7.75313 0.591933 8.61186C0.110768 9.4765 0.0776879 10.4803 0.501715 11.3716L0.531788 11.4338C1.17835 12.8048 2.78424 13.4207 4.52847 12.9706C4.80514 12.8996 5.11789 12.8107 5.45772 12.716C8.36877 11.9076 13.2406 10.5573 14.1397 13.243C14.227 13.5066 14.1247 13.7908 13.8992 13.9419L13.8721 13.9596C13.7097 14.0692 13.4992 14.087 13.3157 14.0129C8.82287 12.183 2.08655 17.359 0.447584 20.0329C-0.0666613 20.8709 -0.141843 21.8688 0.243089 22.7749C0.628021 23.6869 1.40991 24.3413 2.38427 24.5723L2.45044 24.5871C3.94505 24.9424 5.43667 24.0925 6.16142 22.4728C6.27871 22.2152 6.40501 21.9161 6.54335 21.5934C7.72521 18.8307 9.704 14.2113 12.4286 15.2773C12.6632 15.3691 12.8105 15.609 12.7955 15.8784C12.7835 16.0828 12.6692 16.2663 12.4948 16.3581C8.20938 18.65 8.12518 27.0714 9.23487 30.0148C9.5807 30.9327 10.3295 31.6108 11.2888 31.8803C12.2542 32.1497 13.2586 31.9602 14.0555 31.3532L14.1067 31.3147C15.3216 30.3879 15.5772 28.7119 14.7412 27.1425C14.6089 26.8938 14.4525 26.6125 14.2811 26.3045C12.8135 23.6573 10.3566 19.2245 12.9669 17.8209C13.1744 17.7084 13.439 17.741 13.6225 17.9038L13.6435 17.9216C13.7939 18.0608 13.8631 18.2621 13.827 18.4605C12.9699 23.1776 19.616 28.5046 22.6534 29.4877C23.6007 29.7956 24.6111 29.6417 25.4231 29.0702C26.238 28.4987 26.7102 27.6044 26.7252 26.6213L26.7252 26.5592C26.7252 26.5592 26.7252 26.5296 26.7252 26.5177C26.7252 25.0253 25.5584 23.8024 23.8052 23.4707C23.5225 23.4174 23.2007 23.3612 22.8488 23.299C20.5573 22.9022 16.72 22.2389 15.5802 20.5185C15.2494 20.0181 15.1622 19.4673 15.3216 18.8336C15.3667 18.653 15.5291 18.5109 15.7216 18.4842L15.7727 18.4753C15.9471 18.4487 16.1246 18.5168 16.2448 18.6589C19.4025 22.3899 27.871 20.6044 30.5986 18.8484C31.4316 18.3125 31.9399 17.4449 31.994 16.4647C31.997 16.4085 32 16.3522 32 16.293C32 15.3721 31.591 14.5193 30.8482 13.9241L30.8061 13.8915C29.6182 12.9321 27.8981 13.0595 26.5298 14.2113C26.3132 14.3949 26.0696 14.6052 25.802 14.8361C24.0578 16.3522 21.1347 18.8869 19.0536 18.6915C18.4462 18.6352 17.956 18.3569 17.55 17.8387C17.4267 17.6818 17.4147 17.4567 17.5199 17.279C17.6132 17.1221 17.7876 17.0244 17.9831 17.0185C22.927 16.9267 26.7854 9.29885 27.0921 6.10677C27.1853 5.13256 26.8124 4.1998 26.0696 3.54836C25.3208 2.89099 24.3284 2.63337 23.348 2.84065L23.2789 2.85545C21.7752 3.17229 20.8099 4.56106 20.864 6.34069C20.8731 6.62199 20.8911 6.9418 20.9091 7.29121C21.0234 9.57127 21.2189 13.3881 19.7724 14.8687C19.3514 15.301 18.8281 15.5053 18.1695 15.4994C17.962 15.4994 17.7786 15.3662 17.7064 15.1678L17.7034 15.1737Z" />
</svg>
