<svg width="12" height="12" viewBox="0 0 12 12"  xmlns="http://www.w3.org/2000/svg">
<path fill-rule="evenodd" clip-rule="evenodd" d="M2.5 2C2.22386 2 2 2.22386 2 2.5V9.5C2 9.77614 2.22386 10 2.5 10H9.5C9.77614 10 10 9.77614 10 9.5V2.5C10 2.22386 9.77614 2 9.5 2H2.5ZM1 2.5C1 1.67157 1.67157 1 2.5 1H9.5C10.3284 1 11 1.67157 11 2.5V9.5C11 10.3284 10.3284 11 9.5 11H2.5C1.67157 11 1 10.3284 1 9.5V2.5Z" />
<path fill-rule="evenodd" clip-rule="evenodd" d="M4.25 4C4.11193 4 4 4.11193 4 4.25C4 4.38807 4.11193 4.5 4.25 4.5C4.38807 4.5 4.5 4.38807 4.5 4.25C4.5 4.11193 4.38807 4 4.25 4ZM3 4.25C3 3.55964 3.55964 3 4.25 3C4.94036 3 5.5 3.55964 5.5 4.25C5.5 4.94036 4.94036 5.5 4.25 5.5C3.55964 5.5 3 4.94036 3 4.25Z" />
<path fill-rule="evenodd" clip-rule="evenodd" d="M7.64645 4.64645C7.84171 4.45118 8.15829 4.45118 8.35355 4.64645L10.8536 7.14645C11.0488 7.34171 11.0488 7.65829 10.8536 7.85355C10.6583 8.04882 10.3417 8.04882 10.1464 7.85355L8 5.70711L2.85355 10.8536C2.65829 11.0488 2.34171 11.0488 2.14645 10.8536C1.95118 10.6583 1.95118 10.3417 2.14645 10.1464L7.64645 4.64645Z" />
</svg>
