<svg width="12" height="12" viewBox="0 0 12 12"  xmlns="http://www.w3.org/2000/svg">
<path fill-rule="evenodd" clip-rule="evenodd" d="M5.995 11C3.235 11 1 8.76 1 6C1 3.24 3.235 1 5.995 1C8.76 1 11 3.24 11 6C11 8.76 8.76 11 5.995 11ZM6 8.5C5.72386 8.5 5.5 8.27614 5.5 8V6C5.5 5.72386 5.72386 5.5 6 5.5C6.27614 5.5 6.5 5.72386 6.5 6V8C6.5 8.27614 6.27614 8.5 6 8.5ZM6 4.5C5.72386 4.5 5.5 4.27614 5.5 4C5.5 3.72386 5.72386 3.5 6 3.5C6.27614 3.5 6.5 3.72386 6.5 4C6.5 4.27614 6.27614 4.5 6 4.5ZM2 6C2 3.79 3.79 2 6 2C8.21 2 10 3.79 10 6C10 8.21 8.21 10 6 10C3.79 10 2 8.21 2 6Z" />
</svg>
