<svg width="12" height="12" viewBox="0 0 12 12"  xmlns="http://www.w3.org/2000/svg">
<path d="M4.50962 6C4.50962 6.82307 5.17687 7.49033 5.99995 7.49033C6.82302 7.49033 7.49028 6.82307 7.49028 6C7.49028 5.17692 6.82302 4.50969 5.99995 4.50969C5.17687 4.50969 4.50962 5.17692 4.50962 6Z" />
<path fill-rule="evenodd" clip-rule="evenodd" d="M4.14463 1.52708C4.62458 1.50518 4.77784 1.5 5.99995 1.5C7.22207 1.5 7.3753 1.50518 7.85527 1.52708C8.33425 1.54893 8.66136 1.625 8.9476 1.73625C9.24352 1.85123 9.49447 2.0051 9.74463 2.25527C9.99482 2.50545 10.1487 2.7564 10.2637 3.0523C10.3749 3.33855 10.451 3.66565 10.4728 4.14463C10.4947 4.6246 10.4999 4.77784 10.4999 5.99995C10.4999 7.22207 10.4947 7.37532 10.4728 7.85529C10.451 8.33425 10.3749 8.66137 10.2637 8.9476C10.1487 9.24352 9.99482 9.49447 9.74463 9.74463C9.49447 9.99482 9.24352 10.1487 8.9476 10.2637C8.66136 10.3749 8.33425 10.451 7.85527 10.4729C7.3753 10.4947 7.22207 10.4999 5.99995 10.4999C4.77784 10.4999 4.62458 10.4947 4.14463 10.4729C3.66565 10.451 3.33855 10.3749 3.0523 10.2637C2.7564 10.1487 2.50543 9.99482 2.25527 9.74463C2.00508 9.49447 1.85123 9.2435 1.73623 8.9476C1.62498 8.66137 1.54893 8.33425 1.52706 7.85529C1.50516 7.37532 1.5 7.22207 1.5 5.99995C1.5 4.77783 1.50516 4.6246 1.52706 4.14463C1.54893 3.66565 1.62498 3.33855 1.73623 3.0523C1.85123 2.7564 2.00508 2.50545 2.25527 2.25527C2.50543 2.0051 2.7564 1.85123 3.0523 1.73625C3.33855 1.625 3.66565 1.54893 4.14463 1.52708ZM8.84684 3.52038C8.84684 3.8247 8.60015 4.07139 8.29583 4.07139C7.99151 4.07139 7.74481 3.8247 7.74481 3.52038C7.74481 3.21605 7.99151 2.96936 8.29583 2.96936C8.60015 2.96936 8.84684 3.21605 8.84684 3.52038ZM3.70407 5.99997C3.70407 4.73198 4.73199 3.70408 5.99998 3.70408C7.26797 3.70408 8.29587 4.73198 8.29587 5.99997C8.29587 7.26797 7.26797 8.29587 5.99998 8.29587C4.73199 8.29587 3.70407 7.26797 3.70407 5.99997Z" />
</svg>
