<svg width="12" height="12" viewBox="0 0 12 12"  xmlns="http://www.w3.org/2000/svg">
<path fill-rule="evenodd" clip-rule="evenodd" d="M11 2.5V4C11 4.65311 10.5826 5.20873 10 5.41465V7.25C10 8.49264 8.99264 9.5 7.75 9.5C6.50736 9.5 5.5 8.49264 5.5 7.25V4.75C5.5 4.05964 4.94036 3.5 4.25 3.5C3.55964 3.5 3 4.05964 3 4.75V6.58535C3.5826 6.79127 4 7.34689 4 8V9.5C4 10.3284 3.32843 11 2.5 11C1.67157 11 1 10.3284 1 9.5V8C1 7.34689 1.4174 6.79127 2 6.58535V4.75C2 3.50736 3.00736 2.5 4.25 2.5C5.49264 2.5 6.5 3.50736 6.5 4.75V7.25C6.5 7.94036 7.05964 8.5 7.75 8.5C8.44036 8.5 9 7.94036 9 7.25V5.41465C8.4174 5.20873 8 4.65311 8 4V2.5C8 1.67157 8.67157 1 9.5 1C10.3284 1 11 1.67157 11 2.5ZM10 2.5V4C10 4.27614 9.77614 4.5 9.5 4.5C9.22386 4.5 9 4.27614 9 4V2.5C9 2.22386 9.22386 2 9.5 2C9.77614 2 10 2.22386 10 2.5ZM3 8V9.5C3 9.77614 2.77614 10 2.5 10C2.22386 10 2 9.77614 2 9.5V8C2 7.72386 2.22386 7.5 2.5 7.5C2.77614 7.5 3 7.72386 3 8Z" />
</svg>
