<svg width="12" height="12" viewBox="0 0 12 12"  xmlns="http://www.w3.org/2000/svg">
<path fill-rule="evenodd" clip-rule="evenodd" d="M5.6153 1C5.41879 1 5.2405 1.11511 5.15961 1.29421L3.46346 5.04997H2.41451C2.04192 5.04997 1.683 5.19556 1.41714 5.45721C1.151 5.71912 1 6.07606 1 6.44997V9.59995C1 9.97385 1.151 10.3308 1.41714 10.5927C1.68301 10.8544 2.04192 10.9999 2.41451 10.9999H8.94159C9.27939 11.003 9.60817 10.8862 9.86755 10.6693C10.1277 10.4516 10.3008 10.1474 10.3527 9.81169L10.3528 9.8111L10.9837 5.76195L10.9838 5.76119C11.0149 5.55938 11.0011 5.35334 10.9433 5.15751C10.8855 4.9617 10.7854 4.78119 10.6503 4.62829C10.5152 4.47542 10.3485 4.35383 10.162 4.27145C9.97642 4.1895 9.77541 4.14816 9.57264 4.14998H7.48707V2.84999C7.48707 2.35674 7.28789 1.88534 6.936 1.53903C6.58438 1.193 6.10916 1 5.6153 1ZM5.91476 2.05173L4.28628 5.65764V9.99994L8.94968 9.99997C9.05191 10.0011 9.14997 9.96577 9.22593 9.90224C9.30169 9.83886 9.35009 9.7521 9.36446 9.6588L9.36459 9.65797L9.99549 5.60876L9.99556 5.60826C10.0041 5.55225 10.0003 5.49506 9.98417 5.44046C9.96801 5.38569 9.93977 5.33443 9.90089 5.29043C9.86199 5.2464 9.81332 5.21066 9.75793 5.1862C9.70252 5.16173 9.64202 5.14927 9.5807 5.14995L9.57513 5.14998H6.98707C6.71092 5.14998 6.48707 4.92612 6.48707 4.64998V2.84999C6.48707 2.62716 6.3972 2.41182 6.23457 2.25177C6.14373 2.16237 6.03432 2.09439 5.91476 2.05173Z" />
</svg>
