<svg width="12" height="12" viewBox="0 0 12 12"  xmlns="http://www.w3.org/2000/svg">
<path d="M7.0989 2.84999V4.64998H9.60457C9.73292 4.6485 9.86004 4.67541 9.97714 4.72883C10.0942 4.78225 10.1985 4.86091 10.2827 4.95936C10.3669 5.05781 10.4291 5.1737 10.4649 5.29899C10.5007 5.42428 10.5092 5.55598 10.49 5.68497L9.87905 9.73495C9.84703 9.94955 9.73979 10.1452 9.57709 10.2857C9.41438 10.4263 9.20718 10.5024 8.99365 10.4999H4V5.54997L5.7708 1.5C6.12303 1.5 6.46084 1.64223 6.70991 1.8954C6.95897 2.14858 7.0989 2.49195 7.0989 2.84999Z" />
<path d="M2.41451 10.5C2.17197 10.5 1.93936 10.4042 1.76785 10.2337C1.59635 10.0632 1.5 9.83201 1.5 9.59091V6.40909C1.5 6.16798 1.59635 5.93675 1.76785 5.76627C1.93936 5.59578 2.17197 5.5 2.41451 5.5H3.5V10.5H2.41451Z" />
</svg>
