<svg width="12" height="12" viewBox="0 0 12 12"  xmlns="http://www.w3.org/2000/svg">
<path fill-rule="evenodd" clip-rule="evenodd" d="M6.38774 1.37534C6.95355 0.828864 7.71136 0.526481 8.49795 0.533317C9.28454 0.540152 10.037 0.855658 10.5932 1.41188C11.1494 1.96811 11.4649 2.72054 11.4718 3.50713C11.4786 4.29373 11.1762 5.05153 10.6297 5.61734L10.6237 5.62354L9.12372 7.12347C8.81959 7.42771 8.45358 7.66299 8.05052 7.81334C7.64747 7.96369 7.21679 8.0256 6.78771 7.99487C6.35862 7.96414 5.94116 7.84149 5.56365 7.63524C5.18613 7.42898 4.85739 7.14395 4.59972 6.79947C4.43431 6.57835 4.47949 6.265 4.70061 6.0996C4.92174 5.9342 5.23508 5.97937 5.40048 6.20049C5.57226 6.43014 5.79143 6.62017 6.0431 6.75767C6.29478 6.89517 6.57308 6.97694 6.85914 6.99743C7.1452 7.01791 7.43232 6.97664 7.70102 6.87641C7.96972 6.77617 8.21373 6.61932 8.41648 6.41649L9.9133 4.91967C10.2758 4.54279 10.4763 4.03885 10.4718 3.51582C10.4672 2.99143 10.2569 2.48981 9.88609 2.11899C9.51528 1.74817 9.01365 1.53784 8.48926 1.53328C7.96601 1.52873 7.46186 1.72943 7.08492 2.09225L6.22762 2.94457C6.03179 3.13926 5.71521 3.13833 5.52052 2.9425C5.32582 2.74667 5.32675 2.43009 5.52258 2.2354L6.38258 1.3804L6.38774 1.37534Z" />
<path fill-rule="evenodd" clip-rule="evenodd" d="M3.94968 4.18662C4.35273 4.03627 4.78341 3.97436 5.21249 4.00509C5.64158 4.03582 6.05904 4.15848 6.43655 4.36473C6.81407 4.57098 7.14281 4.85602 7.40048 5.20049C7.56589 5.42162 7.52071 5.73496 7.29959 5.90037C7.07846 6.06577 6.76512 6.0206 6.59972 5.79947C6.42794 5.56982 6.20877 5.3798 5.9571 5.2423C5.70542 5.10479 5.42711 5.02303 5.14106 5.00254C4.855 4.98205 4.56788 5.02332 4.29918 5.12356C4.03048 5.22379 3.78647 5.38064 3.58372 5.58347L2.0869 7.08029C1.72438 7.45718 1.52385 7.96112 1.5284 8.48414C1.53295 9.00854 1.74329 9.51016 2.11411 9.88098C2.48492 10.2518 2.98655 10.4621 3.51094 10.4667C4.03396 10.4712 4.5379 10.2707 4.91478 9.90819L5.76655 9.05643C5.96181 8.86117 6.27839 8.86117 6.47365 9.05643C6.66892 9.25169 6.66892 9.56827 6.47365 9.76354L5.61865 10.6185L5.61246 10.6246C5.04665 11.1711 4.28884 11.4735 3.50225 11.4666C2.71566 11.4598 1.96322 11.1443 1.407 10.5881C0.850776 10.0319 0.535269 9.27942 0.528434 8.49283C0.521598 7.70624 0.823982 6.94843 1.37046 6.38263L1.37655 6.37643L2.87648 4.87649C2.8765 4.87647 2.87646 4.87651 2.87648 4.87649C3.1806 4.57228 3.54665 4.33697 3.94968 4.18662Z" />
</svg>
