<svg width="12" height="12" viewBox="0 0 12 12"  xmlns="http://www.w3.org/2000/svg">
<path d="M2.94766 3.89472C2.42387 3.89472 2 3.47019 2 2.94713C2 2.42453 2.42387 2 2.94766 2C3.47016 2 3.89472 2.42453 3.89472 2.94713C3.89472 3.47019 3.47016 3.89472 2.94766 3.89472Z" />
<path d="M9.99994 9.99992H8.31327V7.40261C8.31327 6.78328 8.30173 5.9866 7.43619 5.9866C6.55801 5.9866 6.4232 6.66126 6.4232 7.35784V9.99992H4.73684V4.65903H6.35563V5.3888H6.37823C6.60361 4.96897 7.15416 4.52629 7.97529 4.52629C9.6844 4.52629 9.99994 5.63252 9.99994 7.07044V9.99992Z" />
<path d="M3.89474 9.99991H2.21055V4.7368H3.89474V9.99991Z" />
</svg>
