<svg width="12" height="12" viewBox="0 0 12 12"  xmlns="http://www.w3.org/2000/svg">
<path fill-rule="evenodd" clip-rule="evenodd" d="M5.99999 1C6.27614 1.00001 6.49999 1.22387 6.49998 1.50002L6.49996 2.03095C8.30935 2.25657 9.74344 3.69066 9.96905 5.50004L10.5 5.50006C10.7762 5.50007 11 5.72393 11 6.00008C11 6.27622 10.7761 6.50007 10.5 6.50006L9.96904 6.50004C9.7434 8.30941 8.30931 9.74347 6.49993 9.96907L6.49992 10.5C6.49991 10.7762 6.27605 11 5.9999 11C5.72376 11 5.49991 10.7761 5.49992 10.5L5.49993 9.96906C3.6906 9.74341 2.25656 8.30935 2.03094 6.50002L1.49998 6.5C1.22384 6.49999 0.999991 6.27613 1 5.99998C1.00001 5.72384 1.22387 5.49999 1.50002 5.5L2.03094 5.50002C2.25656 3.69066 3.69061 2.2566 5.49996 2.03096L5.49998 1.49998C5.49999 1.22384 5.72385 0.999991 5.99999 1ZM5.49993 3.0415C4.24369 3.25228 3.25221 4.2438 3.04146 5.50005L3.50002 5.50006C3.77616 5.50007 4.00001 5.72393 4 6.00008C3.99999 6.27622 3.77613 6.50007 3.49998 6.50006L3.04147 6.50005C3.25225 7.75627 4.24374 8.74776 5.49997 8.95853L5.49998 8.49998C5.49999 8.22384 5.72385 7.99999 5.99999 8C6.27614 8.00001 6.49999 8.22387 6.49998 8.50002L6.49997 8.95853C7.75623 8.74778 8.74775 7.75627 8.95851 6.50001L8.49998 6.5C8.22384 6.49999 7.99999 6.27613 8 5.99998C8.00001 5.72384 8.22387 5.49999 8.50002 5.5L8.95851 5.50001C8.74775 4.24374 7.75621 3.25222 6.49993 3.04148L6.49992 3.50002C6.49991 3.77616 6.27605 4.00001 5.9999 4C5.72376 3.99999 5.49991 3.77613 5.49992 3.49998L5.49993 3.0415Z" />
</svg>
