<svg width="24" height="24" viewBox="0 0 24 24"  xmlns="http://www.w3.org/2000/svg">
<path fill-rule="evenodd" clip-rule="evenodd" d="M13 5H20V18H19H13V5ZM12 3H20C21.1046 3 22 3.89543 22 5V19C22 19.5523 21.5523 20 21 20H20V21C20 21.5523 19.5523 22 19 22C18.4477 22 18 21.5523 18 21V20H13V21C13 21.5523 12.5523 22 12 22C11.4477 22 11 21.5523 11 21V20H6V21C6 21.5523 5.55228 22 5 22C4.44772 22 4 21.5523 4 21V20H3C2.44772 20 2 19.5523 2 19V5C2 3.89543 2.89543 3 4 3H12ZM5 18H4V5H11V18H5ZM5 7C5 6.44772 5.44772 6 6 6H9C9.55228 6 10 6.44772 10 7C10 7.55228 9.55228 8 9 8H6C5.44772 8 5 7.55228 5 7ZM14 7C14 6.44772 14.4477 6 15 6H18C18.5523 6 19 6.44772 19 7C19 7.55228 18.5523 8 18 8H15C14.4477 8 14 7.55228 14 7ZM5 10C5 9.44772 5.44772 9 6 9H9C9.55228 9 10 9.44772 10 10C10 10.5523 9.55228 11 9 11H6C5.44772 11 5 10.5523 5 10ZM15 9C14.4477 9 14 9.44772 14 10C14 10.5523 14.4477 11 15 11H18C18.5523 11 19 10.5523 19 10C19 9.44772 18.5523 9 18 9H15Z"/>
</svg>
