<svg width="12" height="12" viewBox="0 0 12 12"  xmlns="http://www.w3.org/2000/svg">
<path d="M6 6.5C6.27614 6.5 6.5 6.72386 6.5 7V8C6.5 8.27614 6.27614 8.5 6 8.5C5.72386 8.5 5.5 8.27614 5.5 8V7C5.5 6.72386 5.72386 6.5 6 6.5Z" />
<path fill-rule="evenodd" clip-rule="evenodd" d="M3 4.5V4C3 2.34315 4.34315 1 6 1C7.65685 1 9 2.34315 9 4V4.5C9.55228 4.5 10 4.94772 10 5.5V10C10 10.5523 9.55228 11 9 11H3C2.44772 11 2 10.5523 2 10V5.5C2 4.94772 2.44772 4.5 3 4.5ZM8 4V4.5H4V4C4 2.89543 4.89543 2 6 2C7.10457 2 8 2.89543 8 4ZM9 5.5H3V10H9V5.5Z" />
</svg>
