<svg width="12" height="12" viewBox="0 0 12 12"  xmlns="http://www.w3.org/2000/svg">
<path d="M6 6.5C6.27614 6.5 6.5 6.72386 6.5 7V8C6.5 8.27614 6.27614 8.5 6 8.5C5.72386 8.5 5.5 8.27614 5.5 8V7C5.5 6.72386 5.72386 6.5 6 6.5Z" />
<path fill-rule="evenodd" clip-rule="evenodd" d="M4.22097 2.99519C4.54809 2.41381 5.21382 2 6 2C7.13762 2 8 2.85274 8 3.83333V4.5H3C2.44772 4.5 2 4.94772 2 5.5V10C2 10.5523 2.44772 11 3 11H9C9.55228 11 10 10.5523 10 10V5.5C10 4.94772 9.55228 4.5 9 4.5V3.83333C9 2.2366 7.6238 1 6 1C4.86268 1 3.85861 1.59993 3.34946 2.50481C3.21404 2.74548 3.29937 3.05034 3.54003 3.18576C3.78069 3.32117 4.08556 3.23585 4.22097 2.99519ZM3 5.5V10H9V5.5H3Z" />
</svg>
