<svg width="12" height="12" viewBox="0 0 12 12"  xmlns="http://www.w3.org/2000/svg">
<path d="M5.50004 3.5C5.50004 3.22386 5.72389 3 6.00004 3C6.27618 3 6.50004 3.22386 6.50004 3.5C6.50004 3.77614 6.27618 4 6.00004 4C5.7239 4 5.50004 4.22386 5.50004 4.5V5.33302L1.93961 7.16643C0.54096 7.88665 1.05314 10 2.62633 10L9.38042 10C10.953 10 11.4657 7.88792 10.0681 7.16693L8.03963 6.12048C7.79421 5.99388 7.49264 6.09019 7.36604 6.3356C7.23943 6.58101 7.33575 6.88259 7.58116 7.00919L9.60965 8.05564C10.0755 8.29597 9.90462 9 9.38042 9L2.62633 9C2.10193 9 1.93121 8.29555 2.39742 8.05548L6.22895 6.08246C6.39542 5.99674 6.50005 5.82519 6.50005 5.63794V5.5C6.50005 5.49896 6.50004 5.49792 6.50004 5.49688V4.91465C7.08263 4.70873 7.50004 4.15311 7.50004 3.5C7.50004 2.67157 6.82846 2 6.00004 2C5.17161 2 4.50004 2.67157 4.50004 3.5H5.50004Z" />
</svg>
