<svg width="24" height="24" viewBox="0 0 24 24" xmlns="http://www.w3.org/2000/svg">
<path d="M12 13C12.5523 13 13 13.4477 13 14V16C13 16.5523 12.5523 17 12 17C11.4477 17 11 16.5523 11 16V14C11 13.4477 11.4477 13 12 13Z" />
<path fill-rule="evenodd" clip-rule="evenodd" d="M6 9V8C6 4.68629 8.68629 2 12 2C15.3137 2 18 4.68629 18 8V9C19.1046 9 20 9.89543 20 11V20C20 21.1046 19.1046 22 18 22H6C4.89543 22 4 21.1046 4 20V11C4 9.89543 4.89543 9 6 9ZM16 8V9H8V8C8 5.79086 9.79086 4 12 4C14.2091 4 16 5.79086 16 8ZM18 11H6V20H18V11Z" />
</svg>
