<svg width="12" height="12" viewBox="0 0 12 12"  xmlns="http://www.w3.org/2000/svg">
<path fill-rule="evenodd" clip-rule="evenodd" d="M2.5 2C2.36739 2 2.24021 2.05268 2.14645 2.14645C2.05268 2.24021 2 2.36739 2 2.5V9.5C2 9.63261 2.05268 9.75978 2.14645 9.85355C2.24021 9.94732 2.36739 10 2.5 10H4.5C4.77614 10 5 10.2239 5 10.5C5 10.7761 4.77614 11 4.5 11H2.5C2.10217 11 1.72064 10.842 1.43934 10.5607C1.15804 10.2794 1 9.89783 1 9.5V2.5C1 2.10218 1.15804 1.72064 1.43934 1.43934C1.72064 1.15804 2.10218 1 2.5 1H4.5C4.77614 1 5 1.22386 5 1.5C5 1.77614 4.77614 2 4.5 2H2.5ZM7.64646 3.14646C7.84172 2.95119 8.1583 2.95119 8.35356 3.14646L10.8536 5.64646C11.0488 5.84172 11.0488 6.1583 10.8536 6.35356L8.35356 8.85356C8.1583 9.04883 7.84172 9.04883 7.64646 8.85356C7.45119 8.6583 7.45119 8.34172 7.64646 8.14646L9.29291 6.5H4.46429C4.20787 6.5 4 6.27614 4 6C4 5.72386 4.20787 5.5 4.46429 5.5H9.29289L7.64646 3.85356C7.45119 3.6583 7.45119 3.34172 7.64646 3.14646Z" />
</svg>
