<svg width="12" height="12" viewBox="0 0 12 12"  xmlns="http://www.w3.org/2000/svg">
<path d="M6 2.00005V1.25003C6 1.02503 5.73 0.915035 5.575 1.07503L4.175 2.32505C4.075 2.42505 4.075 2.58005 4.175 2.68005L5.57 3.93003C5.73 4.08503 6 3.97503 6 3.75003V3.00005C7.655 3.00005 9 4.34505 9 6.00005C9 6.39505 8.925 6.78005 8.78 7.12505C8.705 7.30505 8.76 7.51005 8.895 7.64505C9.15 7.90005 9.58 7.81005 9.715 7.47505C9.9 7.02005 10 6.52005 10 6.00005C10 3.79005 8.21 2.00005 6 2.00005ZM6 9.00005C4.345 9.00005 3 7.65505 3 6.00005C3 5.60505 3.075 5.22005 3.22 4.87505C3.295 4.69505 3.24 4.49005 3.105 4.35505C2.85 4.10005 2.42 4.19005 2.285 4.52505C2.1 4.98005 2 5.48005 2 6.00005C2 8.21005 3.79 10 6 10V10.7501C6 10.9751 6.27 11.0851 6.425 10.9251L7.82 9.67505C7.92 9.57505 7.92 9.42005 7.82 9.32005L6.425 8.07004C6.27 7.91504 6 8.02503 6 8.25003V9.00005Z" />
</svg>
