<svg width="12" height="12" viewBox="0 0 12 12"  xmlns="http://www.w3.org/2000/svg">
<path fill-rule="evenodd" clip-rule="evenodd" d="M1 4.56626C1 4.215 1.1843 3.88949 1.4855 3.70877L5.4855 1.30877C5.80219 1.11876 6.19781 1.11876 6.5145 1.30877L10.5145 3.70877C10.8157 3.88949 11 4.215 11 4.56626V9.50007C11 10.0524 10.5523 10.5001 10 10.5001H2C1.44772 10.5001 1 10.0524 1 9.50007V4.56626ZM10 5.93433V9.50007H2V5.93432L5.72266 8.4161C5.89061 8.52806 6.10941 8.52806 6.27736 8.4161L10 5.93433ZM10 4.73248V4.56626L6 2.16626L2 4.56626V4.73247L6.00001 7.39915L10 4.73248Z" />
</svg>
