<svg width="24" height="24" viewBox="0 0 24 24" fill="none" xmlns="http://www.w3.org/2000/svg">
<path fill-rule="evenodd" clip-rule="evenodd" d="M4.00009 5.45417C4.00009 4.45001 4.81412 3.63599 5.81827 3.63599H20.3637C21.3679 3.63599 22.1819 4.45001 22.1819 5.45417V16.3633C22.1819 17.3674 21.3679 18.1814 20.3637 18.1814H13.051C13.0774 17.9428 13.0909 17.7002 13.0909 17.4545C13.0909 17.0827 13.0599 16.7182 13.0004 16.3633H20.3637V7.15283L13.5953 11.6651C13.2899 11.8687 12.8921 11.8687 12.5867 11.6651L5.81827 7.15281V10.949C5.18006 11.0196 4.56951 11.1819 4.00009 11.4225V5.45417ZM13.091 9.81612L6.54808 5.45417L19.6339 5.45417L13.091 9.81612Z" fill="#000000"/>
<path d="M9.16712 15.0413C9.36374 14.8447 9.36374 14.5259 9.16712 14.3292C8.97049 14.1326 8.6517 14.1326 8.45507 14.3292L6.29365 16.4907L4.13224 14.3292C3.93561 14.1326 3.61682 14.1326 3.42019 14.3292C3.22356 14.5259 3.22356 14.8447 3.42019 15.0413L5.58161 17.2027L3.42014 19.3642C3.22352 19.5608 3.22352 19.8796 3.42014 20.0763C3.61677 20.2729 3.93556 20.2729 4.13219 20.0763L6.29365 17.9148L8.45512 20.0763C8.65174 20.2729 8.97054 20.2729 9.16716 20.0763C9.36379 19.8796 9.36379 19.5608 9.16716 19.3642L7.0057 17.2027L9.16712 15.0413Z" fill="#000000" stroke="#000000" stroke-width="0.545455" stroke-linecap="round" stroke-linejoin="round"/>
</svg>
