<svg xmlns="http://www.w3.org/2000/svg" viewBox="0 0 24 24" id="Maps--Streamline-Ultimate" height="24" width="24">
  <desc>
    Maps Streamline Icon: https://streamlinehq.com
  </desc>
  <path d="M24 7a1.51 1.51 0 0 0 -0.66 -1.24l-7 -4.76a1.48 1.48 0 0 0 -1.67 0L8.82 5.31a0.51 0.51 0 0 1 -0.6 0L2.39 1A1.5 1.5 0 0 0 0 2.25V17a1.51 1.51 0 0 0 0.66 1.24l7 4.76a1.48 1.48 0 0 0 1.67 0l5.83 -4.29a0.51 0.51 0 0 1 0.6 0L21.61 23a1.55 1.55 0 0 0 0.89 0.29 1.49 1.49 0 0 0 1.5 -1.5Zm-14.5 0.53a0.48 0.48 0 0 1 0.2 -0.4l4.4 -3.29a0.25 0.25 0 0 1 0.26 0 0.25 0.25 0 0 1 0.14 0.16v12.47a0.48 0.48 0 0 1 -0.2 0.4l-4.4 3.29a0.25 0.25 0 0 1 -0.26 0A0.25 0.25 0 0 1 9.5 20ZM2 3.73a0.25 0.25 0 0 1 0.14 -0.23 0.25 0.25 0 0 1 0.26 0l4.9 3.61a0.51 0.51 0 0 1 0.2 0.4V20a0.25 0.25 0 0 1 -0.13 0.22 0.27 0.27 0 0 1 -0.26 0l-4.89 -3.35a0.49 0.49 0 0 1 -0.22 -0.41Zm20 16.54a0.25 0.25 0 0 1 -0.14 0.23 0.25 0.25 0 0 1 -0.26 0l-4.9 -3.58a0.51 0.51 0 0 1 -0.2 -0.4V4a0.25 0.25 0 0 1 0.13 -0.22 0.27 0.27 0 0 1 0.26 0l4.89 3.33a0.49 0.49 0 0 1 0.22 0.41Z" fill="#000000" stroke-width="1"></path>
</svg>