<svg width="12" height="12" viewBox="0 0 12 12"  xmlns="http://www.w3.org/2000/svg">
<path d="M7.5 5C7.5 5.82843 6.82843 6.5 6 6.5C5.17157 6.5 4.5 5.82843 4.5 5C4.5 4.17157 5.17157 3.5 6 3.5C6.82843 3.5 7.5 4.17157 7.5 5Z" />
<path fill-rule="evenodd" clip-rule="evenodd" d="M10 5.09091C10 8.27273 6 11 6 11C6 11 2 8.27273 2 5.09091C2 4.00593 2.42143 2.96539 3.17157 2.1982C3.92172 1.43101 4.93913 1 6 1C7.06087 1 8.07828 1.43101 8.82843 2.1982C9.57857 2.96539 10 4.00593 10 5.09091ZM9 5.09091C9 6.28825 8.22493 7.52428 7.26638 8.55907C6.80906 9.05277 6.34856 9.45923 6 9.74347C5.65144 9.45923 5.19094 9.05277 4.73362 8.55907C3.77507 7.52428 3 6.28825 3 5.09091C3 4.26399 3.3214 3.47534 3.88658 2.89732C4.45101 2.32006 5.21169 2 6 2C6.78831 2 7.54899 2.32006 8.11342 2.89732C8.6786 3.47534 9 4.26399 9 5.09091Z" />
</svg>
