<svg width="24" height="24" viewBox="0 0 24 24" xmlns="http://www.w3.org/2000/svg">
<path fill-rule="evenodd" clip-rule="evenodd" d="M7.10795 6.30676L7.84239 5.57233L10.8679 9.20291L8.68827 12.628L7.10795 6.30676ZM5.95841 9.95482L6.98284 14.0525L6.70464 16H4.30973L5.95841 9.95482ZM6.41892 18H4.30973C2.99098 18 2.03321 16.7461 2.3802 15.4738L5.03571 5.73689C5.10552 5.48091 5.26868 5.27541 5.47845 5.14707C5.54241 5.05721 5.61428 4.97201 5.69374 4.89255L7.2478 3.33849C7.51228 2.59039 8.20907 2 9.13554 2H14.1788C15.0032 2 15.6579 2.47538 15.9745 3.11928C16.0267 3.14747 16.0772 3.18072 16.1252 3.21911L18.1241 4.81824C18.224 4.89817 18.3148 4.98643 18.3959 5.08148C18.6657 5.19782 18.8819 5.43141 18.9653 5.73689L21.6208 15.4738C21.9678 16.7461 21.01 18 19.6912 18H17.5821L17.8274 19.7172C17.9995 20.922 17.0646 22 15.8475 22H8.15351C6.93642 22 6.00149 20.922 6.17361 19.7172L6.41892 18ZM17.2964 16H19.6912L18.0425 9.95478L17.0181 14.0524L17.2964 16ZM16.8747 6.37998L15.6556 5.40468L10.8222 13H10.9784C10.9931 12.9997 11.0077 12.9997 11.0224 13H15.2197L16.8747 6.37998ZM11.0276 16.9201L11.5642 18.3512C11.7581 18.8683 12.3345 19.1303 12.8516 18.9364C13.3688 18.7424 13.6308 18.166 13.4368 17.6489L12.4435 15H15.1332L15.8475 20H8.15351L8.8678 15H9.32L9.01407 16.8356C8.92327 17.3803 9.29129 17.8956 9.83606 17.9864C10.3808 18.0772 10.8961 17.7091 10.9869 17.1644L11.0276 16.9201ZM9.13554 4H14.1788L14.525 4.22029L14.1788 4L11.9951 7.43151L9.13554 4Z"/>
</svg>
