<svg xmlns="http://www.w3.org/2000/svg" height="24" width="24"><path d="M7.66 2.747c-.461.244-1.991 1.194-2.056 1.277a.756.756 0 0 0-.15.551c.013.091.168.524.344.962.177.439.317.801.312.806-.006.005-.398.197-.873.427-1.316.636-1.292.563-.783 2.364.185.657.372 1.242.415 1.3a.745.745 0 0 0 1.237-.026c.171-.254.162-.369-.106-1.33-.135-.487-.24-.891-.233-.897.007-.007.382-.188.833-.403.451-.215.868-.424.927-.465a.773.773 0 0 0 .296-.54c.019-.173-.016-.284-.337-1.083l-.358-.89.546-.327c.821-.491.885-.54.975-.744.161-.364.003-.815-.342-.971-.203-.092-.485-.097-.647-.011m6.24.894c-.241.038-.474.12-.658.232-.33.201-.503.441-1.562 2.169a82.961 82.961 0 0 0-1.187 1.977 1.714 1.714 0 0 0-.009 1.608c.17.335.454.593 1.047.947l.506.304c.033.021-.084.247-.388.746l-.436.716-2.137.021-2.136.021-.36.111c-.907.281-1.737.932-2.17 1.703-.273.487-.409.904-.51 1.564-.021.14-.021.14-.379.227-.405.098-.988.36-1.366.615-.691.466-1.329 1.262-1.618 2.018-.291.762-.348 1.321-.33 3.26.013 1.377.013 1.38.11 1.549.053.094.169.22.257.28l.159.111 7.142.01 7.142.011.202-.099c.12-.06.241-.16.301-.248l.1-.148.011-1.9.011-1.9.21-.263c.824-1.03 1.756-2.593 2.372-3.973 1.042-2.339 1.577-4.331 1.993-7.43.261-1.944.256-2.293-.048-2.9a2.458 2.458 0 0 0-2.242-1.38c-.656 0-1.201.21-1.66.639l-.257.241-.095-.074c-.225-.173-1.051-.645-1.225-.699a1.812 1.812 0 0 0-.79-.066m4.487 1.564c.225.116.432.369.497.607.051.189.002.71-.208 2.208-.388 2.778-.863 4.522-1.812 6.65-.316.708-1.049 2.086-1.183 2.224-.018.018-.041-.315-.051-.74-.021-.841-.067-1.085-.31-1.62-.415-.916-1.346-1.748-2.255-2.017l-.17-.05 1.618-2.664c.89-1.464 1.841-3.032 2.113-3.483.525-.87.734-1.119 1.003-1.194a1.13 1.13 0 0 1 .758.079m-3.765.157c.42.255.498.325.498.45 0 .09-2.092 3.536-2.209 3.638-.123.107-.199.088-.6-.154-.463-.28-.511-.323-.511-.455 0-.07.37-.713 1.058-1.839.583-.953 1.089-1.766 1.127-1.807.107-.119.211-.091.637.167m7.478 6.024a.867.867 0 0 0-.359.334c-.126.245-.116.332.142 1.261.137.495.242.905.233.912-.009.007-.403.197-.876.421-.598.285-.899.45-.987.544a.844.844 0 0 0-.212.522c0 .044.161.484.358.978.198.494.351.905.343.914-.009.009-.319.199-.688.422-.7.423-.827.54-.877.81-.094.501.378.973.88.879.127-.024 1.991-1.108 2.159-1.256.114-.101.222-.367.222-.547.001-.108-.109-.434-.336-1l-.336-.84.872-.427c.938-.458 1.031-.529 1.118-.856.05-.188.045-.211-.396-1.765-.166-.585-.31-1.016-.364-1.089-.183-.247-.632-.356-.896-.217M12.38 13.9c.782.165 1.408.752 1.684 1.58.069.205.075.445.087 3.53l.012 3.31H5.397l.012-3.37.011-3.37.104-.266c.276-.71.904-1.26 1.616-1.415.371-.081 4.854-.08 5.24.001m-8.5 5.98v2.44H1.713l.016-1.31c.016-1.276.019-1.318.118-1.617.056-.168.171-.429.254-.58.188-.338.747-.907 1.074-1.092.243-.137.568-.276.655-.279.039-.002.05.512.05 2.438" fill-rule="evenodd"/></svg>