<svg xmlns="http://www.w3.org/2000/svg" fill="none" viewBox="0 0 24 24" id="Massage-Chair-Vibrate--Streamline-Ultimate.svg" height="24" width="24"><desc>Massage Chair Vibrate Streamline Icon: https://streamlinehq.com</desc><path stroke="#000000" stroke-linecap="round" stroke-linejoin="round" stroke-miterlimit="10" d="m5.47942 10.0044 -0.62285 -2.22441 2.22446 -1.06775 -0.88979 -2.22446 1.77957 -1.06774" stroke-width="1.5"></path><path stroke="#000000" stroke-linecap="round" stroke-linejoin="round" d="M4.64091 16.5807c-2.02633 0 -3.668986 1.6426 -3.668986 3.669l0 2.8303H4.64091l0 -6.4993Z" stroke-width="1.5"></path><path stroke="#000000" stroke-linecap="round" stroke-linejoin="round" d="M11.5101 9.68106c-0.4711 -0.28823 -0.6193 -0.90379 -0.3311 -1.3749l2.1189 -3.46336c0.2882 -0.47111 0.9038 -0.61937 1.3749 -0.33114l0.7272 0.44494c0.4712 0.28823 0.6194 0.90379 0.3312 1.3749l-2.1189 3.46336c-0.2882 0.47114 -0.9038 0.61934 -1.3749 0.33114l-0.7273 -0.44494Z" stroke-width="1.5"></path><path stroke="#000000" stroke-linecap="round" stroke-linejoin="round" d="M4.64093 16.0883c0 -1.6569 1.34315 -3 3 -3h4.26017c1.6569 0 3 1.3431 3 3V23.08H4.64093v-6.9917Z" stroke-width="1.5"></path><path stroke="#000000" stroke-linecap="round" stroke-linejoin="round" d="M18.243 4.35949c-0.7058 -0.13356 -1.4125 0.17904 -1.7827 0.78855l-4.8225 7.94026h0.2633c1.6569 0 3 1.3431 3 3v3.1894c0.9678 -1.1603 2.4714 -3.3382 3.5712 -6.6712 0.6337 -1.9206 1.0034 -4.65759 1.1866 -6.36782 0.0962 -0.89771 -0.5299 -1.71152 -1.4159 -1.87919Z" stroke-width="1.5"></path><path stroke="#000000" stroke-linecap="round" stroke-linejoin="round" stroke-miterlimit="10" d="m22.4052 12.063 0.6229 2.2244 -2.2245 1.0678 0.8898 2.2244 -1.7796 1.0678" stroke-width="1.5"></path></svg>