<svg width="12" height="12" viewBox="0 0 12 12"  xmlns="http://www.w3.org/2000/svg">
<path d="M2 3C2 2.72386 2.22386 2.5 2.5 2.5H10C10.2761 2.5 10.5 2.72386 10.5 3C10.5 3.27614 10.2761 3.5 10 3.5H2.5C2.22386 3.5 2 3.27614 2 3Z" />
<path d="M2 6C2 5.72386 2.22386 5.5 2.5 5.5H10C10.2761 5.5 10.5 5.72386 10.5 6C10.5 6.27614 10.2761 6.5 10 6.5H2.5C2.22386 6.5 2 6.27614 2 6Z" />
<path d="M2.5 8.5C2.22386 8.5 2 8.72386 2 9C2 9.27614 2.22386 9.5 2.5 9.5H10C10.2761 9.5 10.5 9.27614 10.5 9C10.5 8.72386 10.2761 8.5 10 8.5H2.5Z" />
</svg>
