<svg width="24" height="24" viewBox="0 0 24 24" xmlns="http://www.w3.org/2000/svg">
<path d="M12.1745 15.3007C11.9038 15.3007 11.6311 15.3047 11.3625 15.2701C11.4256 15.2783 11.4887 15.2864 11.5517 15.2966C11.2526 15.2559 10.9616 15.1765 10.6828 15.0605C10.7398 15.0849 10.7967 15.1094 10.8537 15.1317C10.583 15.0157 10.3287 14.8672 10.0946 14.6861C10.1435 14.7227 10.1903 14.7593 10.2391 14.798C10.0153 14.623 9.81582 14.4215 9.63877 14.1976C9.6754 14.2465 9.71203 14.2933 9.7507 14.3421C9.57161 14.1081 9.42102 13.8537 9.30502 13.583C9.32944 13.64 9.35386 13.697 9.37625 13.754C9.26025 13.4752 9.18088 13.1842 9.14018 12.885C9.14832 12.9481 9.15646 13.0112 9.16663 13.0743C9.12797 12.7812 9.13611 12.4861 9.13611 12.191C9.13611 11.7332 9.13611 11.2753 9.13611 10.8174C9.13611 9.76319 9.13611 8.70902 9.13611 7.65688C9.13611 7.32109 9.12186 6.9792 9.16663 6.64545C9.15849 6.70853 9.15035 6.77162 9.14018 6.83471C9.18088 6.53555 9.26025 6.24453 9.37625 5.96573C9.35182 6.02271 9.3274 6.07969 9.30502 6.13667C9.42102 5.86601 9.56958 5.61162 9.7507 5.37759C9.71407 5.42643 9.67744 5.47324 9.63877 5.52208C9.81379 5.29822 10.0153 5.09878 10.2391 4.92173C10.1903 4.95836 10.1435 4.99499 10.0946 5.03366C10.3287 4.85457 10.583 4.70398 10.8537 4.58798C10.7967 4.6124 10.7398 4.63682 10.6828 4.6592C10.9616 4.5432 11.2526 4.46384 11.5517 4.42313C11.4887 4.43128 11.4256 4.43942 11.3625 4.44959C11.7695 4.39668 12.2172 4.39668 12.6263 4.44959C12.5632 4.44145 12.5001 4.43331 12.437 4.42313C12.7362 4.46384 13.0272 4.5432 13.306 4.6592C13.249 4.63478 13.192 4.61036 13.135 4.58798C13.4057 4.70398 13.6601 4.85254 13.8941 5.03366C13.8453 4.99703 13.7985 4.9604 13.7496 4.92173C13.9735 5.09675 14.1729 5.29822 14.35 5.52208C14.3134 5.47324 14.2767 5.42643 14.2381 5.37759C14.4171 5.61162 14.5677 5.86601 14.6837 6.13667C14.6593 6.07969 14.6349 6.02271 14.6125 5.96573C14.7285 6.24453 14.8079 6.53555 14.8486 6.83471C14.8404 6.77162 14.8323 6.70853 14.8221 6.64545C14.8608 6.9385 14.8527 7.23358 14.8527 7.52867C14.8527 7.98656 14.8527 8.44446 14.8527 8.90235C14.8527 9.95652 14.8527 11.0107 14.8527 12.0628C14.8527 12.3986 14.8669 12.7405 14.8221 13.0743C14.8303 13.0112 14.8384 12.9481 14.8486 12.885C14.8079 13.1842 14.7285 13.4752 14.6125 13.754C14.6369 13.697 14.6614 13.64 14.6837 13.583C14.5677 13.8537 14.4192 14.1081 14.2381 14.3421C14.2747 14.2933 14.3113 14.2465 14.35 14.1976C14.175 14.4215 13.9735 14.6209 13.7496 14.798C13.7985 14.7614 13.8453 14.7247 13.8941 14.6861C13.6601 14.8651 13.4057 15.0157 13.135 15.1317C13.192 15.1073 13.249 15.0829 13.306 15.0605C13.0272 15.1765 12.7362 15.2559 12.437 15.2966C12.5001 15.2884 12.5632 15.2803 12.6263 15.2701C12.4757 15.2905 12.3251 15.3007 12.1745 15.3007C11.8021 15.3027 11.4459 15.6263 11.4622 16.0129C11.4785 16.3976 11.7756 16.7272 12.1745 16.7252C13.0211 16.7211 13.8901 16.4606 14.5698 15.9478C14.9524 15.6609 15.2678 15.3434 15.5466 14.9547C15.7908 14.6148 15.9719 14.2261 16.0961 13.8273C16.3423 13.0417 16.2752 12.1809 16.2752 11.3668C16.2752 10.3167 16.2752 9.2646 16.2752 8.21449C16.2752 7.37197 16.3342 6.50095 16.0289 5.69913C15.7094 4.86271 15.164 4.16264 14.4171 3.66201C13.7395 3.20819 12.9254 2.99451 12.1134 2.99451C11.7573 2.99451 11.4134 3.00672 11.0613 3.06573C10.6441 3.13493 10.2391 3.28756 9.8667 3.48496C9.14018 3.86959 8.51541 4.50657 8.15316 5.24531C7.86011 5.84362 7.71155 6.48264 7.71155 7.15015C7.71155 7.44116 7.71155 7.73014 7.71155 8.02116C7.71155 9.06516 7.71155 10.1092 7.71155 11.1552C7.71155 11.548 7.71155 11.9428 7.71155 12.3355C7.71155 12.7222 7.72579 13.1007 7.80313 13.4833C7.96593 14.2974 8.41569 15.0768 9.02825 15.6344C9.33554 15.9132 9.68151 16.1595 10.06 16.3304C10.5098 16.5339 10.9534 16.654 11.4459 16.7069C11.6881 16.7333 11.9323 16.7272 12.1745 16.7272C12.5469 16.7272 12.903 16.3996 12.8868 16.015C12.8684 15.6263 12.5734 15.3007 12.1745 15.3007Z"/>
<path d="M16.961 11.1958C16.961 11.8471 16.9956 12.5105 16.9101 13.1577C16.9183 13.0946 16.9264 13.0315 16.9366 12.9684C16.8694 13.467 16.7351 13.9534 16.5418 14.4174C16.5662 14.3604 16.5906 14.3034 16.613 14.2464C16.4197 14.6982 16.1714 15.1236 15.8702 15.5143C15.9068 15.4655 15.9435 15.4186 15.9821 15.3698C15.687 15.7483 15.3472 16.0882 14.9687 16.3833C15.0175 16.3466 15.0643 16.31 15.1132 16.2713C14.7245 16.5725 14.2991 16.8208 13.8453 17.0142C13.9023 16.9897 13.9593 16.9653 14.0162 16.9429C13.5522 17.1383 13.0659 17.2706 12.5673 17.3377C12.6304 17.3296 12.6934 17.3214 12.7565 17.3113C12.2498 17.3784 11.739 17.3784 11.2322 17.3113C11.2953 17.3194 11.3584 17.3276 11.4215 17.3377C10.9229 17.2706 10.4365 17.1363 9.97253 16.9429C10.0295 16.9673 10.0865 16.9918 10.1435 17.0142C9.69169 16.8208 9.26636 16.5725 8.87562 16.2713C8.92446 16.308 8.97127 16.3446 9.02011 16.3833C8.64159 16.0882 8.30173 15.7483 8.00664 15.3698C8.04327 15.4186 8.07991 15.4655 8.11857 15.5143C7.81738 15.1256 7.5691 14.7003 7.37577 14.2464C7.40019 14.3034 7.42461 14.3604 7.447 14.4174C7.25163 13.9534 7.11935 13.467 7.05219 12.9684C7.06033 13.0315 7.06847 13.0946 7.07865 13.1577C6.99317 12.5105 7.02777 11.8471 7.02777 11.1958C7.02777 10.8234 6.70012 10.4673 6.31549 10.4836C5.92882 10.4999 5.60321 10.797 5.60321 11.1958C5.60321 11.5907 5.60321 11.9855 5.60321 12.3803C5.60321 13.1475 5.73549 13.929 6.0143 14.6453C6.31956 15.4309 6.75303 16.1431 7.32896 16.7618C7.86215 17.3377 8.51948 17.8221 9.22973 18.1558C10.0193 18.5262 10.8537 18.7399 11.7268 18.7806C12.5327 18.8193 13.363 18.6972 14.1221 18.4245C15.6545 17.8689 16.9712 16.7496 17.7018 15.2843C18.0925 14.5008 18.3184 13.6664 18.3774 12.7934C18.41 12.3151 18.3917 11.8288 18.3917 11.3505C18.3917 11.2996 18.3917 11.2467 18.3917 11.1958C18.3917 10.8234 18.064 10.4673 17.6794 10.4836C17.2887 10.5019 16.961 10.797 16.961 11.1958Z"/>
<path d="M11.2811 18.1152C11.2811 18.7501 11.2811 19.3851 11.2811 20.022C11.2811 20.1116 11.2811 20.2032 11.2811 20.2927C11.2811 20.6651 11.6087 21.0213 11.9933 21.005C12.38 20.9887 12.7056 20.6916 12.7056 20.2927C12.7056 19.6578 12.7056 19.0228 12.7056 18.3858C12.7056 18.2963 12.7056 18.2047 12.7056 18.1152C12.7056 17.7427 12.378 17.3866 11.9933 17.4029C11.6067 17.4212 11.2811 17.7163 11.2811 18.1152Z"/>
<path d="M9.63469 21.005C10.1679 21.005 10.699 21.005 11.2322 21.005C12.0768 21.005 12.9213 21.005 13.7679 21.005C13.9633 21.005 14.1566 21.005 14.352 21.005C14.7244 21.005 15.0806 20.6774 15.0643 20.2927C15.048 19.9061 14.7509 19.5804 14.352 19.5804C13.8188 19.5804 13.2877 19.5804 12.7545 19.5804C11.9099 19.5804 11.0654 19.5804 10.2188 19.5804C10.0234 19.5804 9.83006 19.5804 9.63469 19.5804C9.26227 19.5804 8.90613 19.9081 8.92241 20.2927C8.94073 20.6794 9.23582 21.005 9.63469 21.005Z"/>
</svg>
