<svg width="12" height="12" viewBox="0 0 12 12"  xmlns="http://www.w3.org/2000/svg">
<path d="M5.33088 8.19691C5.46814 8.23295 5.6152 8.25869 5.77206 8.27413V9.19853C5.77206 9.36503 5.90703 9.5 6.07353 9.5C6.24003 9.5 6.375 9.36503 6.375 9.19853V8.24324C6.56127 8.20206 6.72304 8.13771 6.86029 8.05019C7.00245 7.95753 7.1201 7.84942 7.21324 7.72587C7.31127 7.60232 7.38235 7.46847 7.42647 7.32432C7.47549 7.18018 7.5 7.03089 7.5 6.87645C7.5 6.69627 7.47304 6.53925 7.41912 6.40541C7.3701 6.27156 7.29657 6.15315 7.19853 6.05019C7.10049 5.94723 6.98039 5.85457 6.83824 5.7722C6.69608 5.68983 6.53431 5.61004 6.35294 5.53282C6.21569 5.48134 6.09314 5.42986 5.98529 5.37838C5.88235 5.32175 5.79412 5.26255 5.72059 5.20077C5.65196 5.139 5.59804 5.0695 5.55882 4.99228C5.52451 4.90991 5.50735 4.81725 5.50735 4.71429C5.50735 4.54955 5.57108 4.43372 5.69853 4.3668C5.83088 4.29472 5.98039 4.25869 6.14706 4.25869C6.25 4.25869 6.35294 4.27156 6.45588 4.2973C6.55882 4.32304 6.65441 4.35392 6.74265 4.38996C6.83088 4.426 6.90931 4.46203 6.97794 4.49807C7.05147 4.52896 7.10784 4.5547 7.14706 4.57529L7.44118 3.94208C7.41176 3.92664 7.36274 3.90347 7.29412 3.87259C7.23039 3.83655 7.15196 3.80051 7.05882 3.76448C6.96569 3.72844 6.86029 3.69498 6.74265 3.66409C6.625 3.6332 6.50245 3.61004 6.375 3.59459V2.80147C6.375 2.63497 6.24003 2.5 6.07353 2.5C5.90703 2.5 5.77206 2.63497 5.77206 2.80147V3.61004C5.60539 3.64093 5.45343 3.69498 5.31618 3.7722C5.17892 3.84427 5.06127 3.93436 4.96324 4.04247C4.8652 4.14543 4.78922 4.26383 4.73529 4.39768C4.68137 4.53153 4.65441 4.67053 4.65441 4.81467C4.65441 5 4.68382 5.16474 4.74265 5.30888C4.80147 5.45302 4.88725 5.58172 5 5.69498C5.11275 5.80824 5.24755 5.9112 5.40441 6.00386C5.56618 6.09138 5.75 6.17632 5.95588 6.25869C6.06373 6.29987 6.15931 6.34105 6.24265 6.38224C6.33088 6.41828 6.40441 6.46203 6.46323 6.51351C6.52696 6.55985 6.57353 6.61647 6.60294 6.6834C6.63726 6.75032 6.65441 6.83526 6.65441 6.93822C6.65441 7.36551 6.40931 7.57915 5.91912 7.57915C5.82108 7.57915 5.71569 7.56113 5.60294 7.5251C5.4902 7.48906 5.3799 7.44788 5.27206 7.40154C5.16912 7.35006 5.07598 7.30116 4.99265 7.25483C4.90931 7.20849 4.85049 7.17246 4.81618 7.14672L4.5 7.82625C4.53922 7.85199 4.59804 7.88803 4.67647 7.93436C4.7598 7.97555 4.85539 8.0193 4.96324 8.06564C5.07598 8.11197 5.19853 8.15573 5.33088 8.19691Z" />
<path fill-rule="evenodd" clip-rule="evenodd" d="M1 6C1 3.24 3.24 1 6 1C8.76 1 11 3.24 11 6C11 8.76 8.76 11 6 11C3.24 11 1 8.76 1 6ZM2 6C2 8.205 3.795 10 6 10C8.205 10 10 8.205 10 6C10 3.795 8.205 2 6 2C3.795 2 2 3.795 2 6Z" />
</svg>
