<svg width="12" height="12" viewBox="0 0 12 12"  xmlns="http://www.w3.org/2000/svg">
<path fill-rule="evenodd" clip-rule="evenodd" d="M2 2C1.72386 2 1.5 2.22386 1.5 2.5V7.5C1.5 7.77614 1.72386 8 2 8H10C10.2761 8 10.5 7.77614 10.5 7.5V2.5C10.5 2.22386 10.2761 2 10 2H2ZM0.5 2.5C0.5 1.67157 1.17157 1 2 1H10C10.8284 1 11.5 1.67157 11.5 2.5V7.5C11.5 8.32843 10.8284 9 10 9H6.50001V10H8C8.27614 10 8.5 10.2239 8.5 10.5C8.5 10.7761 8.27614 11 8 11H6.00243C6.00162 11 6.00082 11 6.00001 11C5.9992 11 5.9984 11 5.99759 11H4C3.72386 11 3.5 10.7761 3.5 10.5C3.5 10.2239 3.72386 10 4 10H5.50001V9H2C1.17157 9 0.5 8.32843 0.5 7.5V2.5Z" />
</svg>
