<svg width="64" height="64" viewBox="0 0 64 64" fill="none" xmlns="http://www.w3.org/2000/svg">
<path d="M35.0752 5C50.0149 5.00014 62.1258 17.1111 62.126 32.0508C62.126 46.9906 50.015 59.1024 35.0752 59.1025C34.0354 59.1025 33.0093 59.041 32 58.9268C45.4919 57.4001 55.9766 45.9508 55.9766 32.0508C55.9764 18.1508 45.4918 6.70148 32 5.1748C33.0093 5.0606 34.0354 5 35.0752 5Z" fill="#FF809F"/>
<path d="M35.0752 5L35.0752 3.70569H35.0752V5ZM62.126 32.0508H63.4203V32.0508L62.126 32.0508ZM35.0752 59.1025V60.3968H35.0752L35.0752 59.1025ZM32 58.9268L31.8545 57.6407V60.2129L32 58.9268ZM55.9766 32.0508H57.2709V32.0508L55.9766 32.0508ZM32 5.1748L31.8545 3.8887V6.4609L32 5.1748ZM35.0752 5L35.0752 6.29431C49.3 6.29444 60.8315 17.8259 60.8317 32.0508L62.126 32.0508L63.4203 32.0508C63.4202 16.3963 50.7297 3.70584 35.0752 3.70569L35.0752 5ZM62.126 32.0508H60.8317C60.8317 46.2758 49.3001 57.8081 35.0752 57.8082L35.0752 59.1025L35.0752 60.3968C50.7298 60.3967 63.4203 47.7053 63.4203 32.0508H62.126ZM35.0752 59.1025V57.8082C34.0865 57.8082 33.1091 57.7497 32.1455 57.6407L32 58.9268L31.8545 60.2129C32.9095 60.3322 33.9842 60.3968 35.0752 60.3968V59.1025ZM32 58.9268L32.1455 60.2129C46.2841 58.613 57.2709 46.617 57.2709 32.0508H55.9766H54.6823C54.6823 45.2847 44.6996 56.1871 31.8545 57.6407L32 58.9268ZM55.9766 32.0508L57.2709 32.0508C57.2707 17.4847 46.2841 5.48856 32.1455 3.8887L32 5.1748L31.8545 6.4609C44.6995 7.91439 54.6821 18.8169 54.6823 32.0508L55.9766 32.0508ZM32 5.1748L32.1455 6.4609C33.1082 6.35197 34.0857 6.29431 35.0752 6.29431V5V3.70569C33.9851 3.70569 32.9103 3.76923 31.8545 3.8887L32 5.1748Z" fill="#590931"/>
<circle cx="28.926" cy="32.051" r="27.051" stroke="#590931" stroke-width="2.58861"/>
<mask id="mask0_19540_41388" style="mask-type:alpha" maskUnits="userSpaceOnUse" x="12" y="21" width="28" height="27">
<path d="M29.2865 48C28.6752 48 28.125 47.629 27.8959 47.0622L24.0802 37.6233C23.9277 37.2463 23.6287 36.9473 23.2517 36.7948L13.8128 32.9791C13.246 32.75 12.875 32.1998 12.875 31.5885V31.4644C12.875 30.8378 13.2645 30.2772 13.8517 30.0587L37.8022 21.1438C39.0059 20.6957 40.1793 21.8691 39.7312 23.0728L30.8163 47.0233C30.5978 47.6105 30.0372 48 29.4106 48H29.2865ZM27.9947 41.662C28.4334 43.0407 30.3771 43.0606 30.8439 41.6912L35.8903 26.8885C36.2922 25.7096 35.1654 24.5828 33.9865 24.9847L19.1838 30.0311C17.8144 30.4979 17.8343 32.4416 19.213 32.8803L25.1357 34.7648C25.5994 34.9123 25.9627 35.2756 26.1102 35.7393L27.9947 41.662Z" fill="#1B1340"/>
</mask>
<g mask="url(#mask0_19540_41388)">
<path d="M29.2865 48C28.6752 48 28.125 47.629 27.8959 47.0622L24.0802 37.6233C23.9277 37.2463 23.6287 36.9473 23.2517 36.7948L13.8128 32.9791C13.246 32.75 12.875 32.1998 12.875 31.5885V31.4644C12.875 30.8378 13.2645 30.2772 13.8517 30.0587L37.8022 21.1438C39.0059 20.6957 40.1793 21.8691 39.7312 23.0728L30.8163 47.0233C30.5978 47.6105 30.0372 48 29.4106 48H29.2865ZM27.9947 41.662C28.4334 43.0407 30.3771 43.0606 30.8439 41.6912L35.8903 26.8885C36.2922 25.7096 35.1654 24.5828 33.9865 24.9847L19.1838 30.0311C17.8144 30.4979 17.8343 32.4416 19.213 32.8803L25.1357 34.7648C25.5994 34.9123 25.9627 35.2756 26.1102 35.7393L27.9947 41.662Z" fill="#590931"/>
<path d="M27.9947 41.662C28.4334 43.0407 30.3771 43.0606 30.8439 41.6912L35.8903 26.8885C36.2922 25.7096 35.1654 24.5828 33.9865 24.9847L19.1838 30.0311C17.8144 30.4979 17.8343 32.4416 19.213 32.8803L25.1357 34.7648C25.5994 34.9123 25.9627 35.2756 26.1102 35.7393L27.9947 41.662Z" fill="#590931"/>
</g>
<path d="M34.4147 25.1861L19.2111 30.5074C18.3035 30.825 18.3234 32.1153 19.2403 32.4048L25.3976 34.3493C25.6981 34.4441 25.9363 34.6751 26.0404 34.9725L28.4311 41.8033C28.7436 42.6961 30.0064 42.6961 30.3189 41.8033L35.6889 26.4603C35.9657 25.6695 35.2055 24.9093 34.4147 25.1861Z" fill="#FF809F" stroke="#FF809F"/>
</svg>
