<svg xmlns="http://www.w3.org/2000/svg" width="12" height="12" viewBox="0 0 12 12" version="1.1">
  <path d="M9.8416 1.3728C9.7335 1.3963 10.1824 1.2122 5.524 3.1434C3.3103 4.0612 1.4664 4.8315 1.4266 4.8553C1.2593 4.9553 1.121 5.1231 1.0585 5.302C1.0214 5.4079 1.0061 5.6205 1.0274 5.734C1.0831 6.0316 1.3031 6.2868 1.5837 6.3794C1.6258 6.3933 2.4374 6.5601 3.3874 6.7501L5.1145 7.0955L5.4599 8.8226C5.6499 9.7726 5.8167 10.5842 5.8306 10.6263C5.9232 10.9069 6.1784 11.1269 6.476 11.1826C6.59 11.204 6.8021 11.1886 6.9091 11.1512C7.0873 11.0889 7.2903 10.9168 7.3723 10.7585C7.4186 10.6692 10.7989 2.5079 10.8252 2.4219C10.8606 2.306 10.8579 2.0767 10.8196 1.9586C10.6835 1.5384 10.2563 1.2826 9.8416 1.3728M6.0891 3.9961C4.1091 4.8178 2.4711 5.4986 2.4491 5.5091C2.4121 5.5267 2.5347 5.5534 4.0628 5.8598C5.8513 6.2184 5.7796 6.2005 5.8945 6.3155C6.0095 6.4304 5.9916 6.3584 6.3497 8.1472C6.6119 9.4568 6.684 9.7952 6.6958 9.773C6.7074 9.7512 9.6734 2.6031 9.7053 2.5201C9.7095 2.509 9.7076 2.5005 9.701 2.5011C9.6944 2.5017 8.069 3.1745 6.0891 3.9961" fill-rule="evenodd" stroke-width="0.014"></path>
</svg>