<svg width="12" height="12" viewBox="0 0 12 12"  xmlns="http://www.w3.org/2000/svg">
<path fill-rule="evenodd" clip-rule="evenodd" d="M3.57089 7C3.52417 6.6734 3.5 6.33952 3.5 6C3.5 5.66048 3.52417 5.3266 3.57089 5H2.12602C2.04375 5.31962 2 5.6547 2 6C2 6.3453 2.04375 6.68038 2.12602 7H3.57089ZM3.78988 8H2.53513C2.99366 8.79266 3.71639 9.41337 4.5829 9.74172C4.24344 9.20603 3.97472 8.62108 3.78988 8ZM4.84141 8H7.15859C6.89993 8.73182 6.50332 9.39848 6 9.96874C5.49669 9.39848 5.10008 8.73182 4.84141 8ZM7.41704 7H4.58296C4.5284 6.67479 4.5 6.34071 4.5 6C4.5 5.65929 4.5284 5.32521 4.58296 5H7.41704C7.4716 5.32521 7.5 5.65929 7.5 6C7.5 6.34071 7.4716 6.67479 7.41704 7ZM8.21012 8C8.02528 8.62108 7.75656 9.20603 7.4171 9.74172C8.28362 9.41337 9.00634 8.79266 9.46487 8H8.21012ZM9.87398 7H8.42911C8.47583 6.6734 8.5 6.33952 8.5 6C8.5 5.66048 8.47583 5.3266 8.42911 5H9.87398C9.95625 5.31962 10 5.6547 10 6C10 6.3453 9.95625 6.68038 9.87398 7ZM6 2.03126C5.49669 2.60152 5.10008 3.26818 4.84141 4H7.15859C6.89993 3.26818 6.50332 2.60152 6 2.03126ZM8.21012 4H9.46487C9.00634 3.20734 8.28362 2.58663 7.4171 2.25828C7.75656 2.79397 8.02528 3.37892 8.21012 4ZM2.53513 4H3.78988C3.97472 3.37892 4.24344 2.79397 4.5829 2.25828C3.71638 2.58663 2.99366 3.20734 2.53513 4ZM11 6C11 8.76142 8.76142 11 6 11C3.23858 11 1 8.76142 1 6C1 3.23858 3.23858 1 6 1C8.76142 1 11 3.23858 11 6Z" />
</svg>
