<svg width="12" height="12" viewBox="0 0 12 12"  xmlns="http://www.w3.org/2000/svg">
<path fill-rule="evenodd" clip-rule="evenodd" d="M4.58296 5H5L6 4H4.84141C5.10008 3.26818 5.49669 2.60152 6 2.03126C6.31184 2.38458 6.58272 2.7749 6.80521 3.19479L7.54013 2.45987C7.50023 2.39193 7.45921 2.32473 7.4171 2.25828C7.49475 2.2877 7.57124 2.31947 7.6465 2.3535L8.39186 1.60814C7.68138 1.22038 6.86643 1 6 1C3.23858 1 1 3.23858 1 6C1 6.86643 1.22038 7.68138 1.60814 8.39186L3 7H2.12602C2.04375 6.68038 2 6.3453 2 6C2 5.6547 2.04375 5.31962 2.12602 5H3.57089C3.52417 5.3266 3.5 5.66048 3.5 6C3.5 6.16254 3.50554 6.32379 3.51644 6.48356L4.52243 5.47757C4.53632 5.31648 4.55659 5.1572 4.58296 5ZM2.53513 4H3.78988C3.97472 3.37892 4.24344 2.79397 4.5829 2.25828C3.71638 2.58663 2.99366 3.20734 2.53513 4Z" />
<path fill-rule="evenodd" clip-rule="evenodd" d="M2.72331 9.77678L1.88644 10.6136C1.68169 10.8184 1.35741 10.8261 1.16215 10.6308C0.966885 10.4356 0.97458 10.1113 1.17933 9.90654L9.87535 1.21052C10.0801 1.00577 10.4044 0.998074 10.5996 1.19334C10.7949 1.3886 10.7872 1.71288 10.5825 1.91763L9.77678 2.72331C10.5388 3.60084 11 4.74656 11 6C11 8.76142 8.76142 11 6 11C4.74656 11 3.60084 10.5388 2.72331 9.77678ZM9.06747 3.43262L8.50009 4H9.46487C9.34871 3.79919 9.21559 3.60941 9.06747 3.43262ZM7.42859 5.0715L5.50009 7H7.41704C7.4716 6.67479 7.5 6.34071 7.5 6C7.5 5.68421 7.4756 5.37411 7.42859 5.0715ZM3.97088 8.52921C4.13598 8.95513 4.34157 9.36088 4.5829 9.74172C4.1607 9.58174 3.77263 9.35234 3.43262 9.06746L3.97088 8.52921ZM7.15859 8C6.89993 8.73182 6.50332 9.39848 6 9.96874C5.49669 9.39848 5.10008 8.73182 4.84141 8H7.15859ZM8.21012 8C8.02528 8.62108 7.75656 9.20603 7.4171 9.74172C8.28362 9.41337 9.00634 8.79266 9.46487 8H8.21012ZM9.87398 7H8.42911C8.47583 6.6734 8.5 6.33952 8.5 6C8.5 5.66048 8.47583 5.3266 8.42911 5H9.87398C9.95625 5.31962 10 5.6547 10 6C10 6.3453 9.95625 6.68038 9.87398 7Z" />
</svg>
