<svg width="12" height="12" viewBox="0 0 12 12"  xmlns="http://www.w3.org/2000/svg">
<path fill-rule="evenodd" clip-rule="evenodd" d="M6 1C6.27614 1 6.5 1.22386 6.5 1.5V2C6.5 2.0137 6.49945 2.02726 6.49837 2.04068C7.91802 2.27501 8.99998 3.49354 8.99998 4.96154V6.84311L10.2211 8.16003C10.5179 8.48004 10.2909 9 9.85449 9H2.14552C1.7091 9 1.48215 8.48004 1.77889 8.16003L2.99998 6.84316V4.96154C2.99998 3.49353 4.08196 2.27499 5.50163 2.04067C5.50055 2.02726 5.5 2.01369 5.5 2V1.5C5.5 1.22386 5.72386 1 6 1ZM8.26671 7.52305C8.09525 7.33814 7.99998 7.09528 7.99998 6.84311V4.96154C7.99998 3.89034 7.11675 3 5.99998 3C4.88321 3 3.99998 3.89034 3.99998 4.96154V6.84316C3.99998 7.09533 3.90471 7.33819 3.73325 7.5231L3.29104 8H8.70897L8.26671 7.52305Z" />
<path d="M6.5 9.5C6.5 9.77614 6.27614 10 6 10C5.72386 10 5.5 9.77614 5.5 9.5H4.5C4.5 10.3284 5.17157 11 6 11C6.82843 11 7.5 10.3284 7.5 9.5H6.5Z" />
</svg>
