<svg width="12" height="12" viewBox="0 0 12 12"  xmlns="http://www.w3.org/2000/svg">
<path d="M2.77968 1.0553C3.04005 0.926915 3.35733 1.02968 3.48834 1.28483L3.72555 1.74683C3.73205 1.75948 3.73796 1.77226 3.74331 1.78515C5.19304 1.34166 6.7913 1.96455 7.48776 3.32095L8.38043 5.0595L10.1566 5.70859C10.5882 5.86632 10.6209 6.45227 10.2094 6.65517L2.94074 10.2392C2.52925 10.4421 2.06857 10.0672 2.19654 9.63356L2.72313 7.84907L1.83043 6.11047C1.13396 4.75404 1.57605 3.12508 2.80348 2.24854C2.79611 2.23666 2.78916 2.22439 2.78267 2.21175L2.54545 1.74975C2.41444 1.4946 2.51931 1.18368 2.77968 1.0553Z" />
<path d="M6.62834 9.21566C6.75935 9.47081 6.65448 9.78173 6.39411 9.91011C6.13374 10.0385 5.81646 9.93573 5.68545 9.68058L4.74256 10.1455C5.13559 10.911 6.08742 11.2193 6.86854 10.8341C7.64965 10.4489 7.96425 9.51619 7.57122 8.75074L6.62834 9.21566Z" />
</svg>
