<svg width="24" height="24" viewBox="0 0 24 24" fill="none" xmlns="http://www.w3.org/2000/svg">
<path fill-rule="evenodd" clip-rule="evenodd" d="M14.7071 4.70711C15.0976 4.31658 15.0976 3.68342 14.7071 3.29289C14.3166 2.90237 13.6834 2.90237 13.2929 3.29289L11.2929 5.29289C10.9024 5.68342 10.9024 6.31658 11.2929 6.70711C11.6834 7.09763 12.3166 7.09763 12.7071 6.70711L14.7071 4.70711ZM7.0077 16.5218L6.34187 12.9707C5.94831 10.8718 7.8117 9.04539 9.90235 9.48094L11.1842 9.74799C11.7223 9.86009 12.2777 9.86009 12.8158 9.74799L14.0977 9.48094C16.1883 9.04539 18.0517 10.8718 17.6581 12.9707L16.9923 16.5218C16.6607 18.2902 14.9755 19.4683 13.2009 19.1726C12.4058 19.0401 11.5942 19.0401 10.7991 19.1726C9.02446 19.4683 7.33926 18.2901 7.0077 16.5218ZM10.3103 7.52298C6.82585 6.79706 3.7202 9.84107 4.37612 13.3393L5.04195 16.8904C5.57417 19.7289 8.27924 21.6201 11.1279 21.1454C11.7053 21.0491 12.2947 21.0491 12.8721 21.1454C15.7208 21.6201 18.4258 19.7289 18.9581 16.8904L19.6239 13.3393C20.2798 9.84107 17.1742 6.79706 13.6897 7.52298L12.4079 7.79003C12.1389 7.84608 11.8611 7.84608 11.5921 7.79003L10.3103 7.52298Z" fill="#231B22"/>
</svg>
