<svg width="28" height="28" viewBox="60 15 145 145" xmlns="http://www.w3.org/2000/svg">
    <g >
        <path d="M107.545990,127.439804 C115.556999,132.015396 123.761925,134.461243 132.677246,133.726791 C136.511520,133.410904 138.050903,134.876236 138.363770,138.671387 C138.993805,146.313980 138.381470,147.194824 130.711212,147.005417 C101.547646,146.285294 79.550674,126.577019 73.549713,100.725876 C65.567734,66.340904 90.837502,32.055237 126.026253,29.568043 C129.358139,29.332539 132.606262,29.096878 135.938278,29.600954 C138.528625,29.992832 139.188599,31.091141 138.861557,33.639870 C137.778214,42.082626 137.865601,42.093838 129.041489,42.274559 C105.582771,42.754997 85.777153,62.692867 85.263687,86.230782 C84.874557,104.069145 92.385178,117.610931 107.545990,127.439804 z"/>
        <path d="M137.252960,78.923935 C136.392532,85.155922 138.267014,89.640450 142.853119,93.383408 C146.048477,95.991302 148.874634,99.157555 151.430191,102.415962 C154.472015,106.294357 153.890121,111.308426 150.574921,114.091385 C147.211273,116.914993 143.132370,116.699814 139.363113,113.098907 C133.821533,107.804802 128.498108,102.283073 123.019127,96.922310 C121.355125,95.294220 120.624512,93.481934 120.654579,91.147575 C120.744713,84.149261 120.614769,77.147926 120.720657,70.150040 C120.805435,64.547813 123.738594,61.152771 128.460754,60.850082 C132.724701,60.576759 136.504974,64.182472 137.081070,69.457253 C137.405121,72.424400 137.212708,75.447952 137.252960,78.923935 z"/>
        <path d="M177.188202,93.381561 C176.946930,91.652122 176.849609,90.330444 176.853821,89.009102 C176.877991,81.421349 176.942871,81.731049 184.376526,80.369453 C188.328812,79.645523 189.541718,80.939453 189.642914,84.449669 C189.652344,84.776443 189.792770,85.097595 189.822891,85.425903 C190.142105,88.904045 190.710602,93.611603 188.095810,95.136078 C185.257477,96.790878 180.771164,95.954132 177.188202,93.381561 z"/>
        <path d="M174.908478,53.620117 C177.056396,52.325546 178.391510,53.043854 179.460892,54.614117 C180.210541,55.714870 181.013702,56.795464 181.622864,57.973053 C186.428055,67.262276 185.979568,65.674065 176.580963,69.822609 C174.991623,70.524139 173.653717,70.222862 172.756836,68.623016 C172.430969,68.041710 172.113205,67.455864 171.791626,66.872147 C167.565536,59.201218 167.565521,59.201225 174.908478,53.620117 z"/>
        <path d="M166.098663,134.673981 C162.324860,138.183182 158.193665,140.458633 153.466812,141.899109 C151.150223,139.380249 150.617096,136.169235 149.219070,133.410980 C148.420044,131.834503 148.947311,130.527878 150.530716,129.687057 C151.115356,129.376602 151.693527,129.053833 152.272293,128.732452 C160.465485,124.182816 162.822510,125.134544 166.098663,134.673981 z"/>
        <path d="M155.387711,34.447258 C157.230667,35.324066 158.778107,35.962872 160.203217,36.807964 C167.639313,41.217590 167.683685,41.792381 162.270905,48.458565 C160.404556,50.757095 158.597778,51.738693 156.061874,49.514786 C155.316940,48.861504 154.413300,48.392563 153.637115,47.770840 C152.035522,46.487972 148.770065,46.368984 149.114410,43.779556 C149.563080,40.405544 151.012772,37.135712 153.174530,34.362541 C153.418427,34.049667 154.397568,34.309937 155.387711,34.447258 z"/>
        <path d="M169.630524,118.387909 C166.531616,112.970139 172.032211,110.703651 173.459183,107.051361 C174.444061,104.530647 177.047943,106.638794 178.707504,107.217010 C180.837799,107.959251 183.176941,108.520851 185.070297,110.473854 C183.676178,115.420883 181.010056,119.643486 177.549530,123.395119 C174.155640,122.891525 172.551453,119.919998 169.630524,118.387909 z"/>
    </g>
</svg>
