<svg width="28" height="28" viewBox="0 0 28 28" fill="none" xmlns="http://www.w3.org/2000/svg">
<path fill-rule="evenodd" clip-rule="evenodd" d="M13.8318 4.66852C8.76001 4.76073 4.67122 8.90664 4.67122 14.0003C4.67122 19.0711 8.72348 23.2027 13.7637 23.3306C13.8438 23.3326 13.924 23.3336 14.0045 23.3336C14.4195 23.3336 14.8272 23.3067 15.2259 23.2545L15.5281 25.5682C15.0294 25.6333 14.5209 25.6669 14.0045 25.6669C13.4881 25.6669 12.9796 25.6333 12.4809 25.5682C6.75993 24.8209 2.33789 19.9239 2.33789 14.0003C2.33789 8.07665 6.75993 3.17959 12.4809 2.43235L12.5193 2.4274C13.0056 2.36552 13.5014 2.33362 14.0045 2.33362C14.5209 2.33362 15.0294 2.36722 15.5281 2.43235L15.2259 4.74603C14.8272 4.69395 14.4195 4.66695 14.0045 4.66695C13.9468 4.66695 13.8892 4.66747 13.8318 4.66852ZM21.1059 23.2554C20.3031 23.8724 19.418 24.3873 18.4698 24.7809L17.5754 22.6257C18.3326 22.3114 19.0409 21.8997 19.6838 21.4055L21.1059 23.2554ZM21.4097 19.6796L23.2596 21.1017C23.8766 20.2989 24.3917 19.4138 24.7851 18.4656L22.6299 17.5712C22.3156 18.3284 21.9039 19.0367 21.4097 19.6796ZM23.2587 15.2217L25.5724 15.5239C25.6375 15.0252 25.6711 14.5166 25.6711 14.0003C25.6711 13.4839 25.6375 12.9753 25.5724 12.4766L23.2587 12.7788C23.3109 13.1776 23.3378 13.5852 23.3378 14.0003C23.3378 14.4153 23.3109 14.8229 23.2587 15.2217ZM22.6299 10.4294L24.7851 9.53499C24.3917 8.58681 23.8766 7.70162 23.2596 6.8989L21.4097 8.32088C21.9039 8.96395 22.3156 9.67209 22.6299 10.4294ZM19.6838 6.59517L21.1059 4.74521C20.3031 4.12817 19.418 3.61318 18.4698 3.21968L17.5754 5.37479C18.3326 5.68907 19.0409 6.10088 19.6838 6.59517Z" fill="#1D1D1F"/>
<path fill-rule="evenodd" clip-rule="evenodd" d="M13.8318 4.66852C8.76001 4.76073 4.67122 8.90664 4.67122 14.0003C4.67122 19.0711 8.72348 23.2027 13.7637 23.3306C13.8438 23.3326 13.924 23.3336 14.0045 23.3336C14.4195 23.3336 14.8272 23.3067 15.2259 23.2545L15.5281 25.5682C15.0294 25.6333 14.5209 25.6669 14.0045 25.6669C13.4881 25.6669 12.9796 25.6333 12.4809 25.5682C6.75993 24.8209 2.33789 19.9239 2.33789 14.0003C2.33789 8.07665 6.75993 3.17959 12.4809 2.43235L12.5192 2.4274C13.0056 2.36552 13.5014 2.33362 14.0045 2.33362C14.5209 2.33362 15.0294 2.36722 15.5281 2.43235L15.2259 4.74603C14.8272 4.69395 14.4195 4.66695 14.0045 4.66695C13.9468 4.66695 13.8892 4.66747 13.8318 4.66852ZM21.1059 23.2554C20.3031 23.8724 19.418 24.3873 18.4698 24.7809L17.5754 22.6257C18.3326 22.3114 19.0409 21.8997 19.6838 21.4055L21.1059 23.2554ZM21.4097 19.6796L23.2596 21.1017C23.8766 20.2989 24.3917 19.4138 24.7851 18.4656L22.6299 17.5712C22.3156 18.3284 21.9039 19.0367 21.4097 19.6796ZM23.2587 15.2217L25.5724 15.5239C25.6375 15.0252 25.6711 14.5166 25.6711 14.0003C25.6711 13.4839 25.6375 12.9753 25.5724 12.4766L23.2587 12.7788C23.3109 13.1776 23.3378 13.5852 23.3378 14.0003C23.3378 14.4153 23.3109 14.8229 23.2587 15.2217ZM22.6299 10.4294L24.7851 9.53499C24.3917 8.58681 23.8766 7.70162 23.2596 6.8989L21.4097 8.32088C21.9039 8.96395 22.3156 9.67209 22.6299 10.4294ZM19.6838 6.59517L21.1059 4.74521C20.3031 4.12817 19.418 3.61318 18.4698 3.21968L17.5754 5.37479C18.3326 5.68907 19.0409 6.10088 19.6838 6.59517Z" fill="#1D1D1F"/>
<path d="M13.5757 10.1819V14.6364C14.4667 15.5273 16.5454 17.6061 16.9166 17.9773" stroke="#1D1D1F" stroke-width="3.06251" stroke-linecap="round"/>
</svg>
