<svg width="24" height="24" viewBox="0 0 24 24" xmlns="http://www.w3.org/2000/svg">
<path d="M8.41918 18.7111C9.74514 19.4685 11.1032 19.8733 12.5788 19.7517C13.2135 19.6995 13.4683 19.942 13.52 20.5702C13.6243 21.8351 13.523 21.9809 12.2534 21.9496C7.42636 21.8304 3.78549 18.5683 2.79223 14.2895C1.47107 8.59825 5.65365 2.92339 11.478 2.51172C12.0295 2.47274 12.5671 2.43373 13.1186 2.51717C13.5473 2.58203 13.6566 2.76382 13.6024 3.18568C13.4231 4.58309 13.4376 4.58495 11.9771 4.61486C8.09424 4.69438 4.81607 7.99444 4.73109 11.8904C4.66668 14.8429 5.90981 17.0843 8.41918 18.7111Z" />
<path d="M13.3362 10.6809C13.1938 11.7124 13.504 12.4547 14.2631 13.0742C14.792 13.5059 15.2598 14.03 15.6828 14.5693C16.1862 15.2112 16.0899 16.0411 15.5412 16.5018C14.9845 16.9691 14.3093 16.9335 13.6855 16.3375C12.7682 15.4612 11.8871 14.5473 10.9802 13.66C10.7048 13.3905 10.5839 13.0905 10.5889 12.7042C10.6038 11.5458 10.5823 10.387 10.5998 9.22872C10.6138 8.30146 11.0993 7.73952 11.8809 7.68942C12.5867 7.64418 13.2124 8.24099 13.3077 9.11405C13.3614 9.60516 13.3295 10.1056 13.3362 10.6809Z" />
<path d="M19.9461 13.074C19.9062 12.7877 19.8901 12.5689 19.8908 12.3502C19.8948 11.0943 19.9055 11.1456 21.1359 10.9202C21.7901 10.8004 21.9909 11.0146 22.0076 11.5956C22.0092 11.6497 22.0324 11.7028 22.0374 11.7572C22.0902 12.3329 22.1843 13.112 21.7515 13.3644C21.2817 13.6383 20.5392 13.4998 19.9461 13.074Z" />
<path d="M19.5688 6.49274C19.9243 6.27847 20.1453 6.39736 20.3223 6.65727C20.4464 6.83946 20.5793 7.01832 20.6801 7.21323C21.4755 8.75075 21.4013 8.48788 19.8456 9.17453C19.5826 9.29064 19.3611 9.24078 19.2127 8.97598C19.1587 8.87976 19.1061 8.78279 19.0529 8.68618C18.3534 7.41651 18.3534 7.41651 19.5688 6.49274Z" />
<path d="M18.1106 19.9086C17.486 20.4894 16.8022 20.866 16.0198 21.1045C15.6364 20.6876 15.5482 20.1561 15.3168 19.6995C15.1845 19.4386 15.2718 19.2223 15.5339 19.0832C15.6306 19.0318 15.7263 18.9784 15.8221 18.9252C17.1782 18.1721 17.5684 18.3296 18.1106 19.9086Z"/>
<path d="M16.3378 3.31936C16.6428 3.46449 16.899 3.57022 17.1348 3.7101C18.3656 4.43997 18.373 4.5351 17.4771 5.63847C17.1682 6.01891 16.8691 6.18139 16.4494 5.81329C16.3261 5.70516 16.1765 5.62754 16.048 5.52464C15.783 5.3123 15.2425 5.29261 15.2995 4.86401C15.3737 4.30556 15.6137 3.76435 15.9715 3.30534C16.0118 3.25355 16.1739 3.29663 16.3378 3.31936Z" />
<path d="M18.6952 17.2129C18.1823 16.3162 19.0927 15.941 19.3289 15.3365C19.4919 14.9193 19.9229 15.2682 20.1976 15.3639C20.5502 15.4868 20.9374 15.5797 21.2508 15.903C21.02 16.7218 20.5787 17.4207 20.006 18.0417C19.4442 17.9583 19.1787 17.4665 18.6952 17.2129Z" />
</svg>
