<svg version="1.2" xmlns="http://www.w3.org/2000/svg" viewBox="0 0 16 16" width="24" height="24">
	<style>
		.s0 { fill: #1d1d1f } 
		.s1 { fill: none;stroke: #000000;stroke-linecap: round;stroke-width: 1.3 } 
	</style>
	<path fill-rule="evenodd" class="s0" d="m7.9 2.67c-2.89 0.05-5.23 2.42-5.23 5.33 0 2.9 2.31 5.26 5.2 5.33q0.06 0 0.13 0 0.36 0 0.7-0.04l0.17 1.32q-0.42 0.06-0.87 0.06-0.44 0-0.87-0.06c-3.27-0.43-5.79-3.22-5.79-6.61 0-3.38 2.52-6.18 5.79-6.61h0.02q0.42-0.06 0.85-0.06 0.45 0 0.87 0.06l-0.17 1.32q-0.34-0.04-0.7-0.04-0.05 0-0.1 0zm4.16 10.62q-0.69 0.53-1.51 0.87l-0.51-1.23q0.65-0.27 1.21-0.7zm0.87-3.25l1.23 0.51q-0.34 0.82-0.87 1.51l-1.06-0.81q0.43-0.56 0.7-1.21zm0.4-2.04q0-0.35-0.04-0.69l1.32-0.18q0.06 0.43 0.06 0.87 0 0.45-0.06 0.87l-1.32-0.17q0.04-0.34 0.04-0.7zm-1.1-3.24l1.06-0.81q0.53 0.69 0.87 1.5l-1.23 0.51q-0.27-0.65-0.7-1.2zm-2.19-1.69l0.51-1.23q0.82 0.34 1.51 0.87l-0.81 1.06q-0.56-0.42-1.21-0.7z"/>
	<path class="s1" d="m8.34 5.33v2.55c0.51 0.51 1.69 1.7 1.9 1.91"/>
</svg>