<svg width="16" height="16" viewBox="0 0 16 16" fill="none" xmlns="http://www.w3.org/2000/svg">
<path fill-rule="evenodd" clip-rule="evenodd" d="M7.90388 2.66773C5.00572 2.72042 2.66927 5.08951 2.66927 8.00016C2.66927 10.8978 4.98485 13.2587 7.865 13.3318C7.91072 13.3329 7.95657 13.3335 8.00257 13.3335C8.23973 13.3335 8.47266 13.3181 8.70053 13.2883L8.87322 14.6104C8.58825 14.6476 8.29764 14.6668 8.00257 14.6668C7.7075 14.6668 7.41689 14.6476 7.13192 14.6104C3.86282 14.1834 1.33594 11.3851 1.33594 8.00016C1.33594 4.61523 3.86282 1.81691 7.13192 1.38992L7.15386 1.38709C7.4318 1.35173 7.71507 1.3335 8.00257 1.3335C8.29764 1.3335 8.58825 1.3527 8.87322 1.38992L8.70053 2.71202C8.47266 2.68226 8.23973 2.66683 8.00257 2.66683C7.9696 2.66683 7.93671 2.66713 7.90388 2.66773ZM12.0605 13.2888C11.6018 13.6414 11.096 13.9356 10.5542 14.1605L10.0431 12.929C10.4758 12.7494 10.8805 12.5141 11.2479 12.2317L12.0605 13.2888ZM12.2341 11.2455L13.2912 12.0581C13.6438 11.5994 13.9381 11.0936 14.1629 10.5518L12.9314 10.0407C12.7518 10.4734 12.5165 10.8781 12.2341 11.2455ZM13.2907 8.69813L14.6128 8.87081C14.65 8.58584 14.6692 8.29523 14.6692 8.00016C14.6692 7.70509 14.65 7.41448 14.6128 7.12951L13.2907 7.3022C13.3205 7.53007 13.3359 7.763 13.3359 8.00016C13.3359 8.23732 13.3205 8.47025 13.2907 8.69813ZM12.9314 5.95965L14.1629 5.44857C13.9381 4.90675 13.6438 4.40093 13.2912 3.94223L12.2341 4.75479C12.5165 5.12226 12.7518 5.52691 12.9314 5.95965ZM11.2479 3.76867L12.0605 2.71155C11.6018 2.35896 11.096 2.06468 10.5542 1.83982L10.0431 3.07131C10.4758 3.2509 10.8805 3.48622 11.2479 3.76867Z" fill="#1D1D1F"/>
<path d="M8.33594 5.3335V7.87895C8.84503 8.38804 10.0329 9.57592 10.245 9.78805" stroke="black" stroke-width="1.27273" stroke-linecap="round"/>
</svg>
