<svg xmlns="http://www.w3.org/2000/svg" fill="none" viewBox="0 0 24 24" id="Paddle-Board--Streamline-Ultimate" height="24" width="24"><desc>Paddle Board Streamline Icon: https://streamlinehq.com</desc><path stroke="#000000" stroke-linecap="round" stroke-linejoin="round" stroke-miterlimit="10" d="M9.75 23.25c0.4 0 0.7 -0.2 0.9 -0.5 1.4 -2.7 2.2 -5.9 2.2 -9.4 0 -4.79999 -1.5 -9.20001 -4 -12.20001C8.65 0.949994 8.35 0.75 8.05 0.75c-0.3 0 -0.6 0.099994 -0.8 0.39999 -2.4 3 -4 7.40002 -4 12.20001 0 3.5 0.8 6.7 2.2 9.4 0.2 0.3 0.5 0.5 0.9 0.5h3.4Z" stroke-width="1.5"></path><path stroke="#000000" stroke-linecap="round" stroke-linejoin="round" stroke-miterlimit="10" d="m3.30304 14.7891 4.74381 -3.9453 4.75015 3.9453" stroke-width="1.5"></path><path stroke="#000000" stroke-linecap="round" stroke-linejoin="round" stroke-miterlimit="10" d="M4.11334 19.4219 8.04738 16.15l3.93932 3.2719" stroke-width="1.5"></path><path stroke="#000000" stroke-linecap="round" stroke-linejoin="round" stroke-miterlimit="10" d="M19.75 23.25c0.3 0 0.6 -0.1 0.7 -0.3 0.2 -0.2 0.3 -0.5 0.3 -0.8 -0.2 -2.4 -1.2 -4.5 -2.7 -6.2 -1.5 1.7 -2.5 3.8 -2.7 6.2 0 0.3 0.1 0.6 0.3 0.8 0.2 0.2 0.5 0.3 0.7 0.3h3.4Z" stroke-width="1.5"></path><path stroke="#000000" stroke-linecap="round" stroke-linejoin="round" stroke-miterlimit="10" d="M18.05 15.95V0.75" stroke-width="1.5"></path><path stroke="#000000" stroke-linecap="round" stroke-linejoin="round" stroke-miterlimit="10" d="M16.55 0.75h3" stroke-width="1.5"></path></svg>