<svg width="12" height="12" viewBox="0 0 12 12"  xmlns="http://www.w3.org/2000/svg">
<path fill-rule="evenodd" clip-rule="evenodd" d="M7.67058 2.5C7.3572 2.5 7.06212 2.61768 6.84893 2.81875L3.06672 6.38585C2.70007 6.73164 2.5 7.19416 2.5 7.6698C2.5 8.14544 2.70007 8.60796 3.06672 8.95375C3.43435 9.30048 3.93891 9.5 4.47072 9.5C5.00253 9.5 5.50709 9.30048 5.87473 8.95375L9.65694 5.38665C9.85783 5.19719 10.1743 5.20645 10.3637 5.40734C10.5532 5.60823 10.5439 5.92468 10.3431 6.11414L6.56084 9.68125C6.00178 10.2085 5.24946 10.5 4.47072 10.5C3.69198 10.5 2.93966 10.2085 2.3806 9.68125C1.82054 9.15304 1.5 8.43018 1.5 7.6698C1.5 6.90942 1.82054 6.18656 2.3806 5.65836L6.16282 2.09125C6.56743 1.70965 7.11026 1.5 7.67058 1.5C8.2309 1.5 8.77374 1.70965 9.17835 2.09125C9.58395 2.47379 9.81773 2.99909 9.81773 3.55347C9.81773 4.10784 9.58396 4.63314 9.17835 5.01568L5.39202 8.58278C5.14185 8.81872 4.8085 8.94653 4.4666 8.94653C4.12471 8.94653 3.79135 8.81872 3.54119 8.58278C3.29004 8.34591 3.14303 8.01817 3.14303 7.6698C3.14303 7.32143 3.29004 6.99369 3.54119 6.75682L7.03553 3.4651C7.23654 3.27576 7.55298 3.28521 7.74232 3.48621C7.93167 3.68721 7.92222 4.00365 7.72122 4.193L4.22731 7.48431C4.16966 7.53875 4.14303 7.60622 4.14303 7.6698C4.14303 7.73343 4.16956 7.80083 4.22731 7.85529C4.28605 7.91069 4.37165 7.94653 4.4666 7.94653C4.56156 7.94653 4.64716 7.91069 4.7059 7.85529L8.49223 4.28819C8.7043 4.08808 8.81773 3.82302 8.81773 3.55347C8.81773 3.28383 8.70443 3.01887 8.49223 2.81875C8.27905 2.61768 7.98396 2.5 7.67058 2.5Z" />
</svg>
