<svg width="12" height="12" viewBox="0 0 12 12"  xmlns="http://www.w3.org/2000/svg">
<path fill-rule="evenodd" clip-rule="evenodd" d="M9.95066 6.71659C9.8674 6.88983 9.69221 7 9.5 7H2.5C2.3078 7 2.13261 6.88983 2.04935 6.71659C1.96609 6.54336 1.9895 6.33774 2.10957 6.18765L4 3.82461L4.00001 2C4.00001 1.72386 4.22386 1.5 4.50001 1.5L7.5 1.5C7.77615 1.5 8 1.72386 8 2V3.82461L9.89044 6.18765C10.0105 6.33774 10.0339 6.54336 9.95066 6.71659ZM8.45969 6L7.10957 4.31235C7.03865 4.22369 7 4.11353 7 4V2.5L5.00001 2.5L5 4C5 4.11353 4.96136 4.22369 4.89044 4.31235L3.54032 6H8.45969Z" />
<path fill-rule="evenodd" clip-rule="evenodd" d="M6 6.5C6.27615 6.5 6.5 6.72386 6.5 7V9.5C6.5 9.77614 6.27615 10 6 10C5.72386 10 5.5 9.77614 5.5 9.5L5.50001 7C5.50001 6.72386 5.72386 6.5 6 6.5Z" />
<path fill-rule="evenodd" clip-rule="evenodd" d="M2.5 2C2.5 1.72386 2.72386 1.5 3 1.5L9 1.5C9.27615 1.5 9.5 1.72386 9.5 2C9.5 2.27614 9.27615 2.5 9 2.5L3 2.5C2.72386 2.5 2.5 2.27614 2.5 2Z" />
</svg>
