<svg width="24" height="24" viewBox="0 0 24 24" fill="none" xmlns="http://www.w3.org/2000/svg">
<path fill-rule="evenodd" clip-rule="evenodd" d="M7 5H17C18.1046 5 19 5.89543 19 7V17C19 18.1046 18.1046 19 17 19H7C5.89543 19 5 18.1046 5 17V7C5 5.89543 5.89543 5 7 5ZM3 7C3 4.79086 4.79086 3 7 3H17C19.2091 3 21 4.79086 21 7V17C21 19.2091 19.2091 21 17 21H7C4.79086 21 3 19.2091 3 17V7ZM8.36 16.888C8.43467 16.9627 8.52533 17 8.632 17H10.168C10.2853 17 10.3813 16.968 10.456 16.904C10.5307 16.8293 10.568 16.7333 10.568 16.616V13.872H12.92C14.2107 13.872 15.224 13.5787 15.96 12.992C16.696 12.3947 17.064 11.52 17.064 10.368C17.064 9.20532 16.696 8.31999 15.96 7.71199C15.224 7.10399 14.2107 6.79999 12.92 6.79999H8.632C8.51467 6.79999 8.41867 6.83732 8.344 6.91199C8.28 6.98665 8.248 7.08265 8.248 7.19999V16.616C8.248 16.7227 8.28533 16.8133 8.36 16.888ZM14.248 11.648C13.928 11.936 13.4587 12.08 12.84 12.08H10.536V8.59199H12.84C13.48 8.59199 13.9547 8.74665 14.264 9.05599C14.584 9.36532 14.744 9.79732 14.744 10.352C14.744 10.9173 14.5787 11.3493 14.248 11.648Z" fill="#231B22"/>
</svg>
