<svg width="12" height="12" viewBox="0 0 12 12"  xmlns="http://www.w3.org/2000/svg">
<path fill-rule="evenodd" clip-rule="evenodd" d="M5.22825 6.1684L4.69472 6.28975C3.96866 6.45489 3.18081 6.25745 2.61397 5.69929C1.72853 4.82742 1.71753 3.40285 2.5894 2.51741C3.46127 1.63197 4.88585 1.62097 5.77129 2.49285C6.4371 3.14846 6.60992 4.11837 6.28025 4.93759L6.03145 5.55586L9.53398 9.00473C9.73074 9.19848 9.73319 9.51505 9.53944 9.71182C9.34569 9.90858 9.02912 9.91102 8.83235 9.71727L8.11981 9.01565L7.41818 9.72819C7.22443 9.92496 6.90786 9.9274 6.7111 9.73365C6.51433 9.5399 6.51189 9.22333 6.70564 9.02656L7.40727 8.31402L5.22825 6.1684ZM5.99309 8.32494L4.9165 7.26484C3.87206 7.5024 2.7322 7.21913 1.91234 6.41184C0.633376 5.15247 0.61749 3.09475 1.87686 1.81578C3.13623 0.536818 5.19395 0.520933 6.47292 1.7803C7.43626 2.72888 7.683 4.13041 7.20795 5.31092L10.2356 8.29219C10.8259 8.87343 10.8332 9.82315 10.252 10.4134C9.67074 11.0037 8.72102 11.0111 8.13073 10.4298C7.54948 11.0201 6.59976 11.0274 6.00947 10.4462C5.41918 9.86495 5.41185 8.91523 5.99309 8.32494ZM3.6965 4.59992C3.97477 4.87392 4.42247 4.87047 4.69648 4.5922C4.97048 4.31393 4.96702 3.86623 4.68876 3.59223C4.41049 3.31822 3.96278 3.32168 3.68878 3.59994C3.41478 3.87821 3.41823 4.32592 3.6965 4.59992Z" />
</svg>
