<svg width="12" height="12" viewBox="0 0 12 12" xmlns="http://www.w3.org/2000/svg">
<path fill-rule="evenodd" clip-rule="evenodd" d="M4.5001 2H3.1001L3.1001 10H4.5001L4.5001 2ZM3.1001 1C2.54781 1 2.1001 1.44772 2.1001 2V10C2.1001 10.5523 2.54781 11 3.1001 11H4.5001C5.05238 11 5.5001 10.5523 5.5001 10V2C5.5001 1.44772 5.05238 1 4.5001 1H3.1001Z" />
<path fill-rule="evenodd" clip-rule="evenodd" d="M8.90012 2H7.50012L7.50012 10H8.90012L8.90012 2ZM7.50012 1C6.94784 1 6.50012 1.44772 6.50012 2V10C6.50012 10.5523 6.94784 11 7.50012 11H8.90012C9.4524 11 9.90012 10.5523 9.90012 10V2C9.90012 1.44772 9.4524 1 8.90012 1H7.50012Z" />
</svg>
