<svg width="12" height="12" viewBox="0 0 12 12"  xmlns="http://www.w3.org/2000/svg">
<path fill-rule="evenodd" clip-rule="evenodd" d="M4.88907 5.01542L6.85139 6.97774L7.3683 6.46086C7.78965 6.03988 8.48334 6.04681 8.91364 6.47712L10.0549 7.6184C10.4854 8.04869 10.4925 8.74242 10.0712 9.16375L9.25461 9.98047C8.53764 10.6973 7.35504 10.685 6.62291 9.95286L1.91395 5.2439C1.18181 4.51177 1.1695 3.32916 1.88634 2.6122L2.70305 1.79559C3.12438 1.37426 3.81812 1.38144 4.2484 1.8119L5.38969 2.95316C5.82 3.38347 5.82693 4.07716 5.40594 4.4985L4.88907 5.01542ZM7.26363 9.31214C7.58806 9.63658 8.2961 9.65753 8.61395 9.3398L9.51259 8.44105C9.53343 8.42021 9.53284 8.37776 9.5117 8.35663L8.18194 7.02686C8.16089 7.00581 8.11827 7.00529 8.09729 7.02612L6.95092 8.17236L3.69444 4.91589L4.84069 3.76951C4.86152 3.74853 4.86101 3.70591 4.83996 3.68486L3.51024 2.35515C3.4891 2.33401 3.44666 2.33342 3.42582 2.35427L2.52706 3.25291C2.20933 3.57076 2.23023 4.27875 2.55467 4.60318L7.26363 9.31214Z" />
</svg>
