<svg viewBox="0 0 24 24" xmlns="http://www.w3.org/2000/svg" id="Medical-Specialty-Rehabilitation--Streamline-Ultimate" height="24" width="24"><desc>Medical Specialty Rehabilitation Streamline Icon: https://streamlinehq.com</desc><path d="M10.5 3.375a2.625 2.625 0 1 0 5.25 0 2.625 2.625 0 1 0 -5.25 0Z" fill="none" stroke="#000000" stroke-linecap="round" stroke-linejoin="round" stroke-width="1.5"></path><path d="M17.25 20.625a2.625 2.625 0 1 0 5.25 0 2.625 2.625 0 1 0 -5.25 0Z" fill="none" stroke="#000000" stroke-linecap="round" stroke-linejoin="round" stroke-width="1.5"></path><path d="M13.875 23.25h-5.25a1.5 1.5 0 0 1 -1.286 -0.728L5.525 19.5h-2.9a1.5 1.5 0 0 1 0 -3h3.75a1.5 1.5 0 0 1 1.286 0.728l1.814 3.022h4.4a1.5 1.5 0 0 1 0 3Z" fill="none" stroke="#000000" stroke-linecap="round" stroke-linejoin="round" stroke-width="1.5"></path><path d="M8.625 23.25h-6a1.5 1.5 0 0 1 -1.5 -1.5" fill="none" stroke="#000000" stroke-linecap="round" stroke-linejoin="round" stroke-width="1.5"></path><path d="M15.375 12.658a1.5 1.5 0 0 1 -1.135 1.454l-0.728 0.182a1.5 1.5 0 0 0 0.362 2.956 1.568 1.568 0 0 0 0.364 -0.044l0.73 -0.183a4.493 4.493 0 0 0 3.407 -4.365V12a3 3 0 0 0 -3 -3h-4.342a4.5 4.5 0 0 0 -3.744 2l-1.664 2.5" fill="none" stroke="#000000" stroke-linecap="round" stroke-linejoin="round" stroke-width="1.5"></path></svg>