<svg xmlns="http://www.w3.org/2000/svg" height="24" width="24"><path d="M12.7.026c-.83.133-1.491.477-2.032 1.055a3.242 3.242 0 0 0-.852 1.649c-.097.476-.061 1.177.083 1.63.364 1.145 1.23 1.969 2.401 2.285.459.124 1.198.125 1.633.002.647-.183 1.073-.419 1.522-.845 1.553-1.472 1.328-4.032-.461-5.225a3.05 3.05 0 0 0-1.018-.459C13.666.037 12.95-.014 12.7.026m1.222 1.662c.953.472 1.336 1.555.886 2.506-.121.256-.421.594-.678.764-.566.375-1.427.376-2.01.002-1.017-.652-1.155-2.123-.277-2.937.433-.401.719-.506 1.339-.492.42.009.457.016.74.157M10.52 8.282c-.87.079-1.802.429-2.56.961-.635.447-.942.815-1.999 2.396-.533.798-.994 1.511-1.025 1.585a.798.798 0 0 0 .136.789c.233.258.711.301.989.089.099-.076.427-.535.966-1.353.449-.681.925-1.381 1.057-1.554.542-.713 1.375-1.212 2.296-1.377.476-.086 5.167-.084 5.53.002.774.183 1.465.869 1.654 1.641.064.262.064 1.564 0 1.879-.165.807-.494 1.417-1.073 1.986-.581.572-1.028.801-2.045 1.051-.672.165-.839.15-1.088-.099-.236-.236-.294-.53-.163-.82a.792.792 0 0 1 .538-.434c.8-.22.974-.276 1.185-.383.301-.152.701-.526.879-.821.169-.281.323-.797.323-1.086 0-.227-.076-.459-.192-.587-.231-.256-.712-.301-.985-.092-.202.154-.259.256-.307.55-.058.354-.103.454-.274.608-.125.114-.231.155-.684.268-.669.166-1.059.355-1.37.663-.634.629-.833 1.437-.571 2.316.148.493.635 1.057 1.12 1.296.606.298 1.1.308 2.103.043 1.237-.326 1.917-.709 2.69-1.514a5.145 5.145 0 0 0 1.375-2.565c.062-.282.075-.512.075-1.34 0-.926-.007-1.024-.092-1.319-.453-1.564-1.706-2.628-3.275-2.781-.46-.044-4.715-.043-5.213.002m-8.449 7.54c-.514.125-1.048.516-1.359.996-.445.686-.445 1.677-.001 2.364.196.302.619.691.903.83.437.214.565.228 2.084.229l1.402.001.66 1.105c.363.607.666 1.12.673 1.139.021.052-3.708.043-3.952-.01a.893.893 0 0 1-.328-.148.85.85 0 0 1-.273-.568.89.89 0 0 0-.076-.3c-.181-.392-.605-.558-.986-.385-.332.151-.485.467-.438.901.096.864.674 1.59 1.523 1.914l.237.09 5.99.011c6.519.011 6.23.02 6.717-.21.418-.198.896-.679 1.077-1.084.187-.416.246-.971.152-1.425-.146-.705-.706-1.348-1.43-1.641-.224-.09-.248-.091-2.483-.111l-2.258-.02-.852-1.42c-.748-1.247-.885-1.452-1.126-1.685a2.248 2.248 0 0 0-1.025-.574c-.335-.086-4.477-.085-4.831.001M6.7 17.326c.066.037.159.109.206.16.047.052.503.787 1.013 1.634.51.847.967 1.582 1.014 1.634.048.052.154.128.235.17.141.072.267.076 2.492.076 2.024 0 2.363.008 2.491.062.309.129.449.341.449.682 0 .294-.125.518-.366.656l-.174.1h-2.78c-1.529 0-2.828-.013-2.887-.03a.765.765 0 0 1-.23-.134c-.071-.059-.528-.778-1.07-1.681-.52-.867-.992-1.624-1.049-1.681-.209-.211-.238-.214-1.954-.214-1.573 0-1.595-.001-1.769-.09a1.1 1.1 0 0 1-.299-.244c-.109-.137-.122-.183-.122-.423 0-.234.015-.289.113-.417.133-.175.261-.265.438-.308.071-.017 1.029-.029 2.129-.025 1.778.006 2.013.014 2.12.073m12.791-.045c-1.311.138-2.465 1.103-2.847 2.38a3.403 3.403 0 0 0 .417 2.819 3.38 3.38 0 0 0 3.896 1.336c.505-.168.861-.394 1.283-.816.401-.401.573-.653.763-1.12.364-.894.305-1.999-.15-2.837a3.354 3.354 0 0 0-2.633-1.762 5.004 5.004 0 0 0-.4-.035l-.329.035m.824 1.521c.702.162 1.293.808 1.406 1.535.219 1.415-1.202 2.556-2.533 2.035-.834-.326-1.33-1.254-1.143-2.14.136-.65.687-1.24 1.315-1.408.258-.069.706-.079.955-.022" fill-rule="evenodd"/></svg>