<svg width="12" height="12" viewBox="0 0 12 12"  xmlns="http://www.w3.org/2000/svg">
<path fill-rule="evenodd" clip-rule="evenodd" d="M4.45822 1.21502C4.56867 1.46811 4.45303 1.76282 4.19994 1.87327C3.52623 2.16726 2.93481 2.62181 2.47736 3.19718C2.01991 3.77255 1.71037 4.45122 1.57581 5.17385C1.44124 5.89648 1.48574 6.64108 1.70542 7.34254C1.9251 8.04401 2.31327 8.68097 2.836 9.19776C3.35872 9.71455 4.00008 10.0954 4.704 10.3071C5.40793 10.5187 6.15298 10.5547 6.87403 10.4119C7.59508 10.2691 8.27017 9.95184 8.84028 9.48785C9.41039 9.02386 9.85816 8.42728 10.1444 7.75027C10.252 7.49593 10.5454 7.37693 10.7997 7.48448C11.054 7.59203 11.173 7.8854 11.0655 8.13973C10.7156 8.9672 10.1683 9.69635 9.47151 10.2634C8.77471 10.8305 7.9496 11.2183 7.06832 11.3929C6.18703 11.5674 5.27641 11.5234 4.41606 11.2647C3.55571 11.006 2.77182 10.5405 2.13294 9.90889C1.49406 9.27727 1.01963 8.49875 0.751127 7.64141C0.482628 6.78406 0.428236 5.874 0.592706 4.99078C0.757176 4.10756 1.1355 3.27808 1.6946 2.57485C2.25371 1.87162 2.97656 1.31606 3.79998 0.956734C4.05307 0.846288 4.34778 0.961927 4.45822 1.21502Z" />
<path fill-rule="evenodd" clip-rule="evenodd" d="M5.6464 0.646447C5.74017 0.552678 5.86735 0.5 5.99996 0.5C6.72223 0.5 7.43743 0.642262 8.10472 0.918663C8.77201 1.19506 9.37832 1.60019 9.88904 2.11091C10.3998 2.62163 10.8049 3.22795 11.0813 3.89524C11.3577 4.56253 11.5 5.27773 11.5 6C11.5 6.27614 11.2761 6.5 11 6.5H5.99996C5.72382 6.5 5.49996 6.27614 5.49996 6V1C5.49996 0.867392 5.55264 0.740215 5.6464 0.646447ZM6.49996 1.52786V5.5H10.4721C10.4252 5.08071 10.3195 4.66925 10.1574 4.27792C9.93127 3.73196 9.5998 3.23588 9.18194 2.81802C8.76407 2.40016 8.268 2.06869 7.72203 1.84254C7.33071 1.68045 6.91925 1.57474 6.49996 1.52786Z" />
</svg>
