<svg width="24" height="24" viewBox="0 0 24 24" xmlns="http://www.w3.org/2000/svg">
<path fill-rule="evenodd" clip-rule="evenodd" d="M19.5015 14.786C19.2586 15.4399 18.9326 16.0534 18.5364 16.6137C18.4488 16.6596 18.3665 16.7193 18.2929 16.7929C17.398 17.6878 15.9862 18.0984 14.3065 17.8449C12.6318 17.5923 10.7626 16.6806 9.12406 15.0421C7.47127 13.3893 6.45208 11.4802 6.10419 9.76793C5.75448 8.04673 6.09549 6.65102 6.95683 5.78969L6.95793 5.78859C7.77862 5.12158 8.73406 4.61396 9.77709 4.31288C9.49342 5.20895 9.48434 6.20339 9.68187 7.17557C10.0191 8.83515 10.9713 10.5592 12.4138 12.0018C13.8563 13.4443 15.5804 14.3965 17.24 14.7337C17.9994 14.888 18.7724 14.9162 19.5015 14.786ZM19.9838 12.5133C19.9945 12.3436 20 12.1724 20 12C20 11.3925 19.9323 10.8007 19.804 10.232C18.641 10.9905 16.656 10.4844 15.1496 8.97801C13.6065 7.43497 13.1131 5.38964 13.9533 4.24016C13.3826 4.09696 12.7875 4.01507 12.1756 4.00189L12.2095 4.0358C11.6453 4.60001 11.3914 5.54487 11.6418 6.77735C11.8904 8.00089 12.6239 9.38339 13.828 10.5875C15.0322 11.7917 16.4147 12.5251 17.6382 12.7737C18.617 12.9726 19.4144 12.8534 19.9838 12.5133ZM12 20C12.626 20 13.2352 19.9281 13.8198 19.7921C11.7329 19.4319 9.5596 18.3061 7.70985 16.4563C5.86368 14.6101 4.64002 12.4214 4.17676 10.3197C4.06095 10.8615 4 11.4236 4 12C4 16.4183 7.58172 20 12 20ZM22 12C22 17.5228 17.5228 22 12 22C6.47715 22 2 17.5228 2 12C2 6.47715 6.47715 2 12 2C17.5228 2 22 6.47715 22 12ZM18.723 8.54783C18.7231 8.5481 18.7205 8.55009 18.7144 8.55298C18.7198 8.54901 18.7228 8.54756 18.723 8.54783ZM18.6712 8.11313C18.7231 8.36888 18.7036 8.50459 18.6861 8.56355C18.6271 8.58109 18.4914 8.60064 18.2356 8.54868C17.7744 8.45497 17.1491 8.14912 16.5638 7.5638C15.9785 6.97847 15.6726 6.35321 15.5789 5.89196C15.5269 5.63621 15.5465 5.5005 15.564 5.44154C15.623 5.424 15.7587 5.40445 16.0145 5.45641C16.4757 5.55013 17.101 5.85598 17.6863 6.4413C18.2716 7.02662 18.5775 7.65188 18.6712 8.11313ZM15.5798 5.40461C15.58 5.40477 15.5786 5.40778 15.5746 5.41316C15.5775 5.40714 15.5795 5.40445 15.5798 5.40461ZM15.5271 5.45727C15.527 5.457 15.5296 5.45501 15.5357 5.45211C15.5303 5.45609 15.5273 5.45754 15.5271 5.45727ZM18.6755 8.59194C18.6726 8.59795 18.6706 8.60064 18.6703 8.60048C18.6701 8.60032 18.6715 8.59732 18.6755 8.59194Z"/>
</svg>
