<svg width="12" height="12" viewBox="0 0 12 12"  xmlns="http://www.w3.org/2000/svg">
<path fill-rule="evenodd" clip-rule="evenodd" d="M4.03479 1.57758C3.71349 1.45124 3.35599 1.47944 3.05305 1.66046C2.70662 1.86756 2.5 2.2334 2.5 2.63946V9.36069L2.5095 9.5102C2.55351 9.8537 2.74836 10.156 3.04945 10.3373C3.22913 10.4457 3.42833 10.5 3.62792 10.5C3.81081 10.5 3.99407 10.4544 4.16281 10.3628L8.90594 7.03148L9.03612 6.94891C9.32408 6.73744 9.49854 6.39904 9.49999 6.03347C9.50149 5.61568 9.27664 5.23162 8.91301 5.03097L4.29159 1.72809C4.2107 1.67028 4.12475 1.61991 4.03479 1.57758Z" />
</svg>
