<svg width="24" height="24" viewBox="0 0 24 24"  xmlns="http://www.w3.org/2000/svg">
<path fill-rule="evenodd" clip-rule="evenodd" d="M13 6C13 3.79086 14.7909 2 17 2C19.2091 2 21 3.79086 21 6V8C21 8.55228 20.5523 9 20 9C19.4477 9 19 8.55228 19 8V6C19 4.89543 18.1046 4 17 4C15.8954 4 15 4.89543 15 6V8V12V14.523C15.8777 14.436 16.7761 14.6489 17.537 15.1561C18.1422 15.5596 18.9259 15.5783 19.5497 15.204L20.4855 14.6425C20.9591 14.3584 21.5733 14.5119 21.8575 14.9855C22.1416 15.4591 21.9881 16.0733 21.5145 16.3575L20.5786 16.919C19.2921 17.6909 17.6759 17.6525 16.4276 16.8202C15.8343 16.4247 15.0685 16.3983 14.4494 16.7521L14.1776 16.9074C12.8282 17.6785 11.1718 17.6785 9.82243 16.9074L9.63187 16.7985C8.93051 16.3978 8.06949 16.3978 7.36812 16.7985C5.88551 17.6457 4.04123 17.5309 2.67515 16.5064L2.4 16.3C1.95817 15.9686 1.86863 15.3418 2.2 14.9C2.53137 14.4582 3.15817 14.3686 3.6 14.7L3.87515 14.9064C4.60308 15.4523 5.58582 15.5135 6.37584 15.0621C6.57758 14.9468 6.78635 14.8492 7 14.7692V12V8V6C7 3.79086 8.79086 2 11 2H12C12.5523 2 13 2.44772 13 3C13 3.55228 12.5523 4 12 4H11C9.89543 4 9 4.89543 9 6V7H13V6ZM9 13V14.5272C9.56305 14.5934 10.1159 14.7716 10.6242 15.0621L10.8147 15.1709C11.4885 15.556 12.303 15.5878 13 15.2664V13H9ZM13 11H9V9H13V11ZM7.36812 20.7985C8.06949 20.3978 8.93051 20.3978 9.63187 20.7985L9.82243 20.9074C11.1718 21.6785 12.8282 21.6785 14.1776 20.9074L14.4494 20.7521C15.0685 20.3983 15.8343 20.4247 16.4276 20.8202C17.6759 21.6525 19.2921 21.6909 20.5786 20.919L21.5145 20.3575C21.9881 20.0733 22.1416 19.4591 21.8575 18.9855C21.5733 18.5119 20.9591 18.3584 20.4855 18.6425L19.5497 19.204C18.9259 19.5783 18.1422 19.5597 17.537 19.1561C16.3134 18.3404 14.7339 18.286 13.4571 19.0156L13.1853 19.1709C12.4508 19.5906 11.5492 19.5906 10.8147 19.1709L10.6242 19.0621C9.30792 18.3099 7.69208 18.3099 6.37584 19.0621C5.58582 19.5135 4.60308 19.4523 3.87515 18.9064L3.6 18.7C3.15817 18.3686 2.53137 18.4582 2.2 18.9C1.86863 19.3418 1.95817 19.9686 2.4 20.3L2.67515 20.5064C4.04123 21.5309 5.88551 21.6457 7.36812 20.7985Z"/>
</svg>
