<svg width="12" height="12" viewBox="0 0 12 12"  xmlns="http://www.w3.org/2000/svg">
<path fill-rule="evenodd" clip-rule="evenodd" d="M0.5 1C0.5 0.723858 0.723858 0.5 1 0.5H6C6.13261 0.5 6.25979 0.552678 6.35355 0.646447L10.6496 4.9425C10.929 5.22354 11.0858 5.60372 11.0858 6C11.0858 6.39628 10.929 6.77646 10.6496 7.0575L10.295 6.705L10.6486 7.05855L7.06375 10.6434C6.92448 10.7827 6.75892 10.8935 6.57691 10.9689C6.39481 11.0444 6.19962 11.0833 6.0025 11.0833C5.80538 11.0833 5.61019 11.0444 5.42809 10.9689C5.24604 10.8935 5.08064 10.7829 4.94136 10.6435L0.646653 6.35376C0.552758 6.25997 0.5 6.13271 0.5 6V1ZM9.9404 6.3525L9.94086 6.35204C10.0337 6.2584 10.0858 6.13188 10.0858 6C10.0858 5.86812 10.0337 5.7416 9.94086 5.64796L9.9404 5.6475L5.79289 1.5H1.5V5.79272L5.64835 9.93624L5.64875 9.93664C5.69519 9.98313 5.75033 10.02 5.81103 10.0452C5.87173 10.0703 5.93679 10.0833 6.0025 10.0833C6.06821 10.0833 6.13327 10.0703 6.19397 10.0452C6.25467 10.02 6.30981 9.98313 6.35625 9.93664L9.9404 6.3525Z" />
<path d="M4 3.5C4 3.77614 3.77614 4 3.5 4C3.22386 4 3 3.77614 3 3.5C3 3.22386 3.22386 3 3.5 3C3.77614 3 4 3.22386 4 3.5Z" />
</svg>
