<svg width="12" height="12" viewBox="0 0 12 12"  xmlns="http://www.w3.org/2000/svg">
<path fill-rule="evenodd" clip-rule="evenodd" d="M2.5 1.5C1.94772 1.5 1.5 1.94772 1.5 2.5V4.5C1.5 5.05228 1.94772 5.5 2.5 5.5H4.5C5.05228 5.5 5.5 5.05228 5.5 4.5V2.5C5.5 1.94772 5.05228 1.5 4.5 1.5H2.5ZM4.5 2.5H2.5V4.5H4.5V2.5Z" />
<path fill-rule="evenodd" clip-rule="evenodd" d="M6.5 2.5C6.5 1.94772 6.94772 1.5 7.5 1.5H9.5C10.0523 1.5 10.5 1.94772 10.5 2.5V4.5C10.5 5.05228 10.0523 5.5 9.5 5.5H7.5C6.94772 5.5 6.5 5.05228 6.5 4.5V2.5ZM7.5 2.5H9.5V4.5H7.5V2.5Z" />
<path fill-rule="evenodd" clip-rule="evenodd" d="M2.5 6C1.94772 6 1.5 6.44772 1.5 7V9C1.5 9.55228 1.94772 10 2.5 10H4.5C5.05228 10 5.5 9.55228 5.5 9V7C5.5 6.44772 5.05228 6 4.5 6H2.5ZM4.5 7H2.5V9H4.5V7Z" />
<path d="M10.5 6.5C10.5 6.22386 10.2761 6 10 6C9.72386 6 9.5 6.22386 9.5 6.5V9.5C9.5 9.77614 9.72386 10 10 10C10.2761 10 10.5 9.77614 10.5 9.5V6.5Z" />
<path d="M8.5 8C8.77614 8 9 8.22386 9 8.5V9.5C9 9.77614 8.77614 10 8.5 10C8.22386 10 8 9.77614 8 9.5V8.5C8 8.22386 8.22386 8 8.5 8Z" />
<path d="M7.5 7.5C7.5 7.22386 7.27614 7 7 7C6.72386 7 6.5 7.22386 6.5 7.5V9.5C6.5 9.77614 6.72386 10 7 10C7.27614 10 7.5 9.77614 7.5 9.5V7.5Z" />
</svg>
