<svg width="12" height="12" viewBox="0 0 12 12"  xmlns="http://www.w3.org/2000/svg">
<path d="M1.5 7.5H2.5V9.5H4.5V10.5H2.5C1.95 10.5 1.5 10.05 1.5 9.5V7.5Z" />
<path d="M4.5 2.5H2.5V4.5H1.5V2.5C1.5 1.95 1.95 1.5 2.5 1.5H4.5V2.5Z" />
<path d="M7.5 1.5H9.5C10.05 1.5 10.5 1.95 10.5 2.5V4.5H9.5V2.5H7.5V1.5Z" />
<path d="M7.5 9.5H9.5V7.5H10.5V9.5C10.5 10.05 10.05 10.5 9.5 10.5H7.5V9.5Z" />
<path d="M10.5 6.5C10.7761 6.5 11 6.27614 11 6C11 5.72386 10.7761 5.5 10.5 5.5H1.5C1.22386 5.5 1 5.72386 1 6C1 6.27614 1.22386 6.5 1.5 6.5H10.5Z" />
</svg>
