<svg width="24" height="24" viewBox="0 0 24 24" fill="none" xmlns="http://www.w3.org/2000/svg">
<g clip-path="url(#clip0_6850_5889)">
<path d="M3.31099 22.811C3.17166 22.9503 3.00625 23.0608 2.8242 23.1362C2.64215 23.2116 2.44704 23.2504 2.24999 23.2504C1.85204 23.2504 1.47039 23.0923 1.18899 22.811C0.907598 22.5296 0.749512 22.1479 0.749512 21.75C0.749512 21.352 0.907598 20.9703 1.18899 20.6889L4.68199 17.2L6.79999 19.318L3.31099 22.811Z" stroke="black" stroke-width="1.5" stroke-linecap="round" stroke-linejoin="round"/>
<path d="M8.24992 15.75L5.74292 18.257" stroke="black" stroke-width="1.5" stroke-linecap="round" stroke-linejoin="round"/>
<path d="M11.2082 12.7926C12.4017 13.9861 14.0921 14.585 15.9075 14.4574C16.8064 14.3942 17.7089 14.1546 18.5636 13.7523C19.4182 13.3499 20.2082 12.7927 20.8885 12.1124C21.5688 11.4321 22.126 10.6421 22.5284 9.78746C22.9307 8.93282 23.1703 8.03028 23.2335 7.13138C23.2967 6.23248 23.1822 5.35483 22.8965 4.54853C22.6109 3.74223 22.1597 3.02307 21.5688 2.43212C20.3753 1.23864 18.6849 0.639812 16.8695 0.767381C15.0541 0.89495 13.2624 1.73846 11.8885 3.11235C10.5146 4.48625 9.67107 6.27797 9.5435 8.09338C9.41594 9.90879 10.0148 11.5992 11.2082 12.7926Z" stroke="black" stroke-width="1.5" stroke-linecap="round" stroke-linejoin="round"/>
<path d="M9.664 9.91211L8.25 15.7501L14.088 14.3361" stroke="black" stroke-width="1.5" stroke-linecap="round" stroke-linejoin="round"/>
<path d="M22.3581 10.1291L13.8711 1.64209" stroke="black" stroke-width="1.5" stroke-linecap="round" stroke-linejoin="round"/>
<path d="M10.418 5.09497L18.905 13.582" stroke="black" stroke-width="1.5" stroke-linecap="round" stroke-linejoin="round"/>
<path d="M19.7729 1.22705L10.0029 10.9971" stroke="black" stroke-width="1.5" stroke-linecap="round" stroke-linejoin="round"/>
<path d="M13.0029 13.9971L22.7729 4.22705" stroke="black" stroke-width="1.5" stroke-linecap="round" stroke-linejoin="round"/>
</g>
<defs>
<clipPath id="clip0_6850_5889">
<rect width="24" height="24" fill="white"/>
</clipPath>
</defs>
</svg>
