<svg xmlns="http://www.w3.org/2000/svg" height="24" width="24"><path d="m10.1.022-.3.062c-.298.06-.828.311-1.109.528a3.02 3.02 0 0 0-1.115 1.699c-.082.349-.082 1.029 0 1.378a3.117 3.117 0 0 0 1.325 1.853c.95.608 2.248.608 3.198 0a3.117 3.117 0 0 0 1.325-1.853c.082-.349.082-1.029 0-1.378-.243-1.043-1.102-1.926-2.153-2.216-.21-.058-1.019-.108-1.171-.073m5.08.175a1.26 1.26 0 0 0-.246.096c-.453.235-.481.918-.051 1.236.056.042.381.145.721.23 1.669.414 3.058 1.187 4.214 2.343 1.314 1.313 2.131 2.826 2.498 4.62.244 1.195.229 2.599-.041 3.756-.235 1.008-.754 2.215-1.312 3.048-.885 1.322-2.225 2.466-3.698 3.156l-.356.167-5.878-5.878-5.878-5.878.243-.496c.133-.273.386-.72.562-.993.176-.272.332-.557.346-.632a.744.744 0 0 0-1.014-.83c-.204.085-.268.15-.528.538a10.57 10.57 0 0 0-1.617 7.58c.155.916.444 1.837.848 2.7l.159.34-1.709 1.72C.55 18.925.429 19.072.196 19.751c-.127.372-.133.415-.134.989-.001.691.049.929.301 1.443.387.789 1.184 1.452 2.017 1.677.608.165 1.48.113 2.062-.124.546-.222.745-.392 2.538-2.177l1.72-1.712.34.16a10.112 10.112 0 0 0 4.7.98c1.856-.053 3.489-.504 4.974-1.373a10.782 10.782 0 0 0 3.544-3.314c.558-.832 1.173-2.238 1.443-3.303.331-1.308.389-2.874.156-4.232-.22-1.282-.733-2.67-1.369-3.702-1.38-2.24-3.527-3.9-5.968-4.614-.358-.105-1.176-.298-1.209-.285a4.97 4.97 0 0 1-.131.033m-4.133 1.418c.682.281 1.037.929.913 1.666-.182 1.078-1.494 1.57-2.38.893-.743-.567-.755-1.752-.023-2.331.414-.328 1.02-.421 1.49-.228m4.193 17.707c0 .032-.582.111-1.168.159a9.507 9.507 0 0 1-2.692-.226c-.709-.178-1.243-.382-2.036-.778-.676-.337-.791-.365-1.055-.255-.102.042-.761.672-2.089 1.997-1.781 1.777-1.962 1.946-2.206 2.061-.702.328-1.426.208-1.96-.323-.508-.506-.632-1.27-.315-1.947.116-.249.276-.42 2.059-2.21 1.063-1.067 1.962-1.998 1.998-2.068.109-.217.082-.428-.101-.787a6.154 6.154 0 0 0-.194-.365 9.095 9.095 0 0 1-.925-3.1c-.075-.684-.009-2.298.11-2.678.011-.037 1.939 1.863 5.296 5.22 2.903 2.903 5.278 5.288 5.278 5.3" fill-rule="evenodd"/></svg>