<svg width="24" height="24" viewBox="0 0 24 24" xmlns="http://www.w3.org/2000/svg">
  <path d="M12 18C13.6667 18 15.075 17.4167 16.225 16.25C17.375 15.0833 17.9667 13.6667 18 12V6H12C10.3333 6.03333 8.91667 6.625 7.75 7.775C6.58333 8.925 6 10.3333 6 12C6 13.6667 6.58333 15.0833 7.75 16.25C8.91667 17.4167 10.3333 18 12 18ZM10.825 16.325L15.425 12.225C15.575 12.0917 15.6167 11.9333 15.55 11.75C15.4833 11.5667 15.35 11.4583 15.15 11.425L11.55 11.075L13.7 8.1C13.75 8.01667 13.7792 7.9375 13.7875 7.8625C13.7958 7.7875 13.7667 7.71667 13.7 7.65C13.6333 7.56667 13.55 7.52917 13.45 7.5375C13.35 7.54583 13.2583 7.58333 13.175 7.65L8.6 11.75C8.45 11.8833 8.40833 12.0417 8.475 12.225C8.54167 12.4083 8.675 12.5167 8.875 12.55L12.475 12.9L10.3 15.875C10.25 15.9583 10.225 16.0375 10.225 16.1125C10.225 16.1875 10.2583 16.2583 10.325 16.325C10.3917 16.3917 10.4708 16.425 10.5625 16.425C10.6542 16.425 10.7417 16.3917 10.825 16.325ZM12 20C11.0667 20 10.1875 19.8542 9.3625 19.5625C8.5375 19.2708 7.78333 18.8583 7.1 18.325L5.725 19.7C5.625 19.8 5.5125 19.875 5.3875 19.925C5.2625 19.975 5.13333 20 5 20C4.71667 20 4.47917 19.9042 4.2875 19.7125C4.09583 19.5208 4 19.2833 4 19C4 18.8667 4.025 18.7375 4.075 18.6125C4.125 18.4875 4.2 18.375 4.3 18.275L5.675 16.9C5.14167 16.2167 4.72917 15.4625 4.4375 14.6375C4.14583 13.8125 4 12.9333 4 12C4 9.76667 4.775 7.875 6.325 6.325C7.875 4.775 9.76667 4 12 4H20V12C20 14.2333 19.225 16.125 17.675 17.675C16.125 19.225 14.2333 20 12 20Z"/>
</svg>
