<svg xmlns="http://www.w3.org/2000/svg" width="28" height="28" viewBox="-2 -2 28 28" version="1.1">
  <path d="M6.4828 0.017C5.9755 0.0824 5.4484 0.4545 5.2066 0.9181C5.0227 1.2706 5.0227 1.2704 5.0071 2.172L4.993 2.991L4.031 3.0064C3.0361 3.0224 3.0255 3.0234 2.6964 3.1439C2.2202 3.3183 1.7591 3.7295 1.513 4.1992C1.3587 4.4937 1.2944 4.7151 1.2611 5.0661C1.2421 5.2665 1.2362 7.9561 1.2421 13.716C1.2503 21.7177 1.2527 22.0826 1.2983 22.254C1.531 23.1297 2.1602 23.7493 3.0219 23.9514C3.2123 23.996 3.4035 23.999 6.072 23.999H8.919L9.0518 23.9389C9.2072 23.8686 9.3451 23.7342 9.4303 23.57C9.5104 23.4157 9.5163 23.0857 9.4416 22.946C9.3535 22.7814 9.2499 22.6715 9.1094 22.5937L8.971 22.517L6.15 22.504C3.5168 22.4919 3.3222 22.4879 3.2264 22.4447C2.9664 22.3274 2.8171 22.1351 2.7713 21.8586C2.7506 21.7336 2.7445 19.3618 2.7498 13.391L2.757 5.097L2.8244 4.954C2.9009 4.7918 3.021 4.6634 3.173 4.5812L3.277 4.525H8.75H14.223L14.327 4.5812C14.479 4.6634 14.5991 4.7918 14.6756 4.954L14.743 5.097L14.756 8.6743L14.769 12.2515L14.8676 12.4C15.0311 12.6462 15.2834 12.772 15.5636 12.7468C15.8368 12.7223 16.0751 12.5492 16.1962 12.2873C16.2509 12.1692 16.251 12.163 16.2589 8.763C16.2641 6.4928 16.2575 5.26 16.239 5.0661C16.2056 4.715 16.1412 4.4936 15.987 4.1992C15.7409 3.7295 15.2798 3.3183 14.8036 3.1439C14.4745 3.0234 14.4639 3.0224 13.469 3.0064L12.507 2.991L12.4929 2.172C12.4773 1.2704 12.4773 1.2706 12.2934 0.9181C12.1147 0.5755 11.7386 0.2455 11.3682 0.106C11.275 0.0709 11.1014 0.03 10.9825 0.0151C10.7198 -0.0178 6.7401 -0.0161 6.4828 0.017M6.6526 1.5339C6.6072 1.5536 6.5575 1.5933 6.5421 1.6222C6.5241 1.6557 6.514 1.9098 6.514 2.3263V2.978H8.75H10.986V2.3263C10.986 1.9092 10.9759 1.6557 10.9579 1.6221C10.8904 1.4959 10.8913 1.4959 8.7443 1.497C7.0952 1.4978 6.7202 1.5045 6.6526 1.5339M17.889 13.4994C16.4328 13.5456 15.0717 13.8906 13.7905 14.5381C12.624 15.1276 11.8552 16.0088 11.5932 17.057C11.4961 17.4451 11.4802 18.0338 11.5549 18.4706C11.6531 19.0444 11.9013 19.6619 12.2695 20.2485C12.3644 20.3996 12.442 20.5309 12.442 20.5402C12.442 20.5496 12.3366 20.7315 12.2077 20.9445C11.8205 21.5844 11.3278 22.582 11.182 23.0211C11.023 23.4997 11.3857 23.9936 11.896 23.9936C12.2239 23.9936 12.4502 23.8349 12.605 23.4962C12.6551 23.3866 12.7679 23.139 12.8556 22.946C13.0451 22.5292 13.3615 21.9237 13.394 21.9156C13.4067 21.9124 13.4989 22.0152 13.599 22.1439C13.831 22.4423 14.3147 22.9132 14.6012 23.1198C15.3362 23.6496 16.169 23.8906 16.9672 23.8045C18.4869 23.6405 19.6496 22.8927 20.4905 21.5382C20.9814 20.7474 21.2936 19.9637 21.8776 18.0558C22.261 16.8033 22.4568 16.2842 22.686 15.9127C22.7477 15.8128 22.8368 15.6682 22.8839 15.5914C22.9794 15.4362 23.0121 15.282 22.9898 15.0933C22.9572 14.8185 22.7728 14.6122 22.4072 14.4418C21.4205 13.9819 20.4781 13.7071 19.4287 13.5732C19.0331 13.5227 18.2847 13.4869 17.889 13.4994M17.7117 15.0184C16.8895 15.0651 16.0371 15.2437 15.2765 15.5284C14.0198 15.9988 13.3321 16.5628 13.0848 17.3256C13.0382 17.4693 13.0285 17.5613 13.0283 17.863C13.028 18.1862 13.0361 18.2547 13.1009 18.474C13.1409 18.6098 13.2333 18.8469 13.3061 19.0009L13.4385 19.2808L13.6357 19.0913C14.3819 18.3744 15.0739 17.9133 15.822 17.6345C16.433 17.4068 16.7404 17.4164 17.0319 17.6723C17.1874 17.8088 17.2622 17.9851 17.2618 18.214C17.2614 18.4476 17.22 18.5552 17.0666 18.7216C16.9368 18.8625 16.826 18.9243 16.628 18.9663C16.0134 19.0965 15.1046 19.6944 14.5076 20.3615L14.3319 20.5578L14.3866 20.6534C14.5145 20.8774 14.7834 21.2277 15.0111 21.4671C15.6555 22.1449 16.2477 22.3948 16.953 22.2866C18.107 22.1096 18.8829 21.4752 19.5011 20.203C19.8133 19.5605 19.952 19.1684 20.5539 17.226C20.6846 16.8042 20.8673 16.2718 20.9599 16.043C21.0525 15.8142 21.1347 15.6075 21.1426 15.5837C21.1682 15.5064 20.2469 15.2326 19.5823 15.1201C19.0178 15.0245 18.2954 14.9852 17.7117 15.0184" stroke="none" fill="#000000" fill-rule="evenodd" stroke-width="0.026"></path>
</svg>