<svg width="12" height="12" viewBox="0 0 12 12" xmlns="http://www.w3.org/2000/svg">
<path fill-rule="evenodd" clip-rule="evenodd" d="M9.49982 1.00006C9.32858 1.00006 9.16137 1.01728 8.99982 1.05007C7.8587 1.28171 6.99982 2.29058 6.99982 3.50006V5.52793C6.99982 5.83842 7.07211 6.14464 7.21096 6.42235L7.44703 6.89449C7.48174 6.96392 7.49982 7.04047 7.49982 7.11809V10.0001C7.49982 10.5523 7.94753 11.0001 8.49982 11.0001H8.99982C9.5521 11.0001 9.99982 10.5523 9.99982 10.0001V1.00006H9.49982ZM8.99982 10.0001V2.08541C8.41722 2.29133 7.99982 2.84695 7.99982 3.50006V5.52793C7.99982 5.68317 8.03596 5.83628 8.10539 5.97514L8.34146 6.44727C8.4456 6.65556 8.49982 6.88523 8.49982 7.11809V10.0001H8.99982Z" />
<path d="M2.99976 2.00003C2.99976 1.72389 2.7759 1.50003 2.49976 1.50003C2.22361 1.50003 1.99976 1.72389 1.99976 2.00003V5.29292C1.99976 5.55814 2.10511 5.81249 2.29265 6.00003L2.99976 6.70714L2.99976 10C2.99976 10.5523 3.44747 11 3.99976 11H4.49976C5.05204 11 5.49976 10.5523 5.49976 10V6.70714L6.20686 6.00003C6.3944 5.81249 6.49976 5.55814 6.49976 5.29292V2.00003C6.49976 1.72389 6.2759 1.50003 5.99976 1.50003C5.72361 1.50003 5.49976 1.72389 5.49976 2.00003V5.29292L4.79265 6.00003C4.60511 6.18757 4.49976 6.44192 4.49976 6.70714V10H3.99976V6.70714C3.99976 6.44192 3.8944 6.18757 3.70686 6.00003L2.99976 5.29292V2.00003Z" />
<path d="M4.74976 2.00003C4.74976 1.72389 4.5259 1.50003 4.24976 1.50003C3.97361 1.50003 3.74976 1.72389 3.74976 2.00003V4.75003C3.74976 5.02617 3.97361 5.25003 4.24976 5.25003C4.5259 5.25003 4.74976 5.02617 4.74976 4.75003V2.00003Z" />
</svg>
