<svg width="18" height="18" viewBox="0 0 18 18" xmlns="http://www.w3.org/2000/svg">
  <path fill-rule="evenodd" clip-rule="evenodd" d="M3.70837 7.35438L5.33337 8.04188C5.52782 7.65299 5.72921 7.27799 5.93754 6.91688C6.14587 6.55577 6.37504 6.19465 6.62504 5.83354L5.45837 5.60438L3.70837 7.35438ZM6.66671 9.08354L9.04171 11.4377C9.62504 11.2155 10.25 10.8752 10.9167 10.4169C11.5834 9.95854 12.2084 9.43771 12.7917 8.85438C13.7639 7.88215 14.5243 6.80229 15.073 5.61479C15.6216 4.42729 15.8612 3.33354 15.7917 2.33354C14.7917 2.2641 13.6945 2.50368 12.5 3.05229C11.3056 3.6009 10.2223 4.36132 9.25004 5.33354C8.66671 5.91688 8.14587 6.54188 7.68754 7.20854C7.22921 7.87521 6.88893 8.50021 6.66671 9.08354ZM10.375 7.72938C10.0556 7.40993 9.89587 7.01757 9.89587 6.55229C9.89587 6.08702 10.0556 5.69465 10.375 5.37521C10.6945 5.05577 11.0903 4.89604 11.5625 4.89604C12.0348 4.89604 12.4306 5.05577 12.75 5.37521C13.0695 5.69465 13.2292 6.08702 13.2292 6.55229C13.2292 7.01757 13.0695 7.40993 12.75 7.72938C12.4306 8.04882 12.0348 8.20854 11.5625 8.20854C11.0903 8.20854 10.6945 8.04882 10.375 7.72938ZM10.7709 14.4169L12.5209 12.6669L12.2917 11.5002C11.9306 11.7502 11.5695 11.9759 11.2084 12.1773C10.8473 12.3787 10.4723 12.5766 10.0834 12.771L10.7709 14.4169ZM17.2917 0.81271C17.5556 2.49327 17.3924 4.12868 16.8021 5.71896C16.2118 7.30924 15.1945 8.8266 13.75 10.271L14.1667 12.3335C14.2223 12.6113 14.2084 12.8822 14.125 13.146C14.0417 13.4099 13.9028 13.6391 13.7084 13.8335L10.2084 17.3335L8.45837 13.2294L4.89587 9.66688L0.791707 7.91688L4.27087 4.41688C4.46532 4.22243 4.69796 4.08354 4.96879 4.00021C5.23962 3.91688 5.51393 3.90299 5.79171 3.95854L7.85421 4.37521C9.29865 2.93077 10.8125 1.90993 12.3959 1.31271C13.9792 0.715488 15.6112 0.548821 17.2917 0.81271ZM2.27087 12.3127C2.75699 11.8266 3.35074 11.5801 4.05212 11.5731C4.75351 11.5662 5.34726 11.8058 5.83337 12.2919C6.31949 12.778 6.55907 13.3717 6.55212 14.0731C6.54518 14.7745 6.29865 15.3683 5.81254 15.8544C5.46532 16.2016 4.88546 16.5002 4.07296 16.7502C3.26046 17.0002 2.13893 17.2224 0.708374 17.4169C0.902818 15.9863 1.12504 14.8648 1.37504 14.0523C1.62504 13.2398 1.92365 12.6599 2.27087 12.3127ZM3.45837 13.4794C3.31948 13.6183 3.1806 13.8717 3.04171 14.2398C2.90282 14.6078 2.8056 14.9794 2.75004 15.3544C3.12504 15.2988 3.49657 15.2051 3.86462 15.0731C4.23268 14.9412 4.48615 14.8058 4.62504 14.6669C4.79171 14.5002 4.88199 14.2988 4.89587 14.0627C4.90976 13.8266 4.83337 13.6252 4.66671 13.4585C4.50004 13.2919 4.29865 13.212 4.06254 13.219C3.82643 13.2259 3.62504 13.3127 3.45837 13.4794Z" />
</svg>
