<svg xmlns="http://www.w3.org/2000/svg" viewBox="0 0 24 24" id="Sauna-Heat--Streamline-Ultimate" height="24" width="24"><desc>Sauna Heat Streamline Icon: https://streamlinehq.com</desc><defs></defs><title>sauna-heat</title><path d="m20 7.074 0 15.053 -16.5 0 0 -15.053" fill="none" stroke="#000000" stroke-linecap="round" stroke-linejoin="round" stroke-width="1.5"></path><path d="m0.5 9.074 10.418 -6.946a1.5 1.5 0 0 1 1.664 0L23 9.074" fill="none" stroke="#000000" stroke-linecap="round" stroke-linejoin="round" stroke-width="1.5"></path><path d="M14.823 10.094A3.725 3.725 0 0 0 14 12.231c0 1.337 0.823 2.673 0.823 4.008A3.737 3.737 0 0 1 14 18.377" fill="none" stroke="#000000" stroke-linecap="round" stroke-linejoin="round" stroke-width="1.5"></path><path d="M9.573 10.094a3.725 3.725 0 0 0 -0.823 2.137c0 1.337 0.823 2.673 0.823 4.008a3.737 3.737 0 0 1 -0.823 2.138" fill="none" stroke="#000000" stroke-linecap="round" stroke-linejoin="round" stroke-width="1.5"></path></svg>