<svg xmlns="http://www.w3.org/2000/svg" height="24" width="24" viewBox="0 0 24 24"><path d="M11.398 1.161a2.849 2.849 0 0 0-.457.122c-.153.057-1.562.973-4.058 2.635a6757.846 6757.846 0 0 1-5.352 3.565L.002 8.5l-.001.565c-.001.626-.006.615.277.714.31.11.409.067 1.48-.645l.982-.653.02 6.953.02 6.952.107.162a.766.766 0 0 0 .283.247l.175.085h8.389c7.481 0 8.405-.007 8.537-.062a.734.734 0 0 0 .413-.398c.071-.154.074-.437.075-7.05l.001-6.889.959.638c.528.35 1.032.657 1.12.681.3.081.657-.078.797-.353.155-.307.14-.594-.042-.826-.096-.121-10.508-7.078-10.868-7.261-.364-.185-.9-.266-1.328-.199m.654 1.542c.07.035 1.716 1.12 3.657 2.41l3.529 2.347.001 6.97.001 6.97-7.49-.01-7.49-.01-.01-6.95-.01-6.95 3.49-2.327a437.795 437.795 0 0 1 3.65-2.42.782.782 0 0 1 .672-.03M9.259 9.416c-.14.061-.306.241-.542.588-.346.509-.599 1.203-.682 1.869-.085.684.009 1.26.441 2.691.236.779.322 1.207.323 1.596 0 .595-.145 1.029-.543 1.621-.279.415-.319.624-.176.919.122.252.338.391.634.409.303.019.484-.088.756-.45.576-.764.885-1.758.834-2.679-.029-.533-.108-.897-.425-1.963-.286-.961-.359-1.315-.358-1.731.001-.562.177-1.071.56-1.62.29-.416.313-.74.073-1.045-.183-.233-.608-.33-.895-.205m5.226.01c-.381.194-.984 1.282-1.14 2.054-.179.892-.109 1.466.37 3.048.258.851.334 1.218.336 1.632.004.554-.181 1.103-.546 1.616-.239.337-.288.5-.228.767a.605.605 0 0 0 .222.371c.253.234.652.277.898.095.432-.319.947-1.317 1.103-2.139.14-.743.059-1.401-.342-2.757-.309-1.043-.358-1.259-.384-1.673-.037-.575.157-1.212.524-1.723.209-.29.262-.417.262-.625a.714.714 0 0 0-.291-.587c-.126-.1-.195-.124-.4-.135-.178-.009-.288.007-.384.056" fill-rule="evenodd"/></svg>