<svg width="12" height="12" viewBox="0 0 12 12"  xmlns="http://www.w3.org/2000/svg">
<path fill-rule="evenodd" clip-rule="evenodd" d="M5.25 8.5C7.04493 8.5 8.5 7.04493 8.5 5.25C8.5 3.45507 7.04493 2 5.25 2C3.45507 2 2 3.45507 2 5.25C2 7.04493 3.45507 8.5 5.25 8.5ZM5.25 9.5C7.59721 9.5 9.5 7.59721 9.5 5.25C9.5 2.90279 7.59721 1 5.25 1C2.90279 1 1 2.90279 1 5.25C1 7.59721 2.90279 9.5 5.25 9.5Z" />
<path fill-rule="evenodd" clip-rule="evenodd" d="M7.64645 7.64646C7.84171 7.4512 8.15829 7.4512 8.35355 7.64646L10.8536 10.1465C11.0488 10.3417 11.0488 10.6583 10.8536 10.8536C10.6583 11.0488 10.3417 11.0488 10.1464 10.8536L7.64645 8.35357C7.45118 8.15831 7.45118 7.84172 7.64645 7.64646Z" />
</svg>
