<svg width="12" height="12" viewBox="0 0 12 12"  xmlns="http://www.w3.org/2000/svg">
<path fill-rule="evenodd" clip-rule="evenodd" d="M7.5151 8.54991C6.8436 9.01811 6.02705 9.29268 5.14636 9.29268C2.85639 9.29268 1 7.4363 1 5.14634C1 2.85638 2.85639 1 5.14636 1C7.43633 1 9.29272 2.85638 9.29272 5.14634C9.29272 6.02705 9.01814 6.84362 8.5499 7.51513L10.7857 9.7509C11.0714 10.0366 11.0714 10.4999 10.7857 10.7857C10.4999 11.0714 10.0366 11.0714 9.75089 10.7857L7.5151 8.54991ZM7.8293 5.14634C7.8293 6.62808 6.62811 7.82926 5.14636 7.82926C3.66461 7.82926 2.46342 6.62808 2.46342 5.14634C2.46342 3.6646 3.66461 2.46341 5.14636 2.46341C6.62811 2.46341 7.8293 3.6646 7.8293 5.14634Z" />
</svg>
