<svg width="24" height="24" viewBox="0 0 24 24" xmlns="http://www.w3.org/2000/svg">
<path fill-rule="evenodd" clip-rule="evenodd" d="M11.2084 3C8.55699 3 6.13315 4.49802 4.94741 6.8695L4.10933 8.54566C3.30743 10.1495 4.08224 12.0939 5.76738 12.7067L6.00691 12.7938C4.64702 14.6764 3.68248 16.82 3.17689 19.0952L3.02403 19.7831C2.90422 20.3222 3.24415 20.8564 3.78328 20.9762C4.32242 21.096 4.85659 20.7561 4.9764 20.2169L5.12926 19.5291C5.64163 17.2234 6.68778 15.0708 8.18283 13.2438C9.49598 13.0857 10.6255 12.0597 10.8035 10.6354L10.9925 9.12403C11.061 8.57601 10.6722 8.07622 10.1242 8.00772C9.57621 7.93922 9.07642 8.32795 9.00792 8.87597L8.81899 10.3874C8.73935 11.0245 8.08842 11.4226 7.48497 11.2031L6.45087 10.8271C5.88916 10.6228 5.63089 9.97468 5.89819 9.44008L6.73626 7.76393C7.58322 6.07001 9.31454 5 11.2084 5H13.9298C14.2642 5 14.5764 5.1671 14.7619 5.4453L15.9143 7.17389C16.2367 7.65751 16.7535 7.97695 17.3303 8.04905L18.0002 8.13279V8.71922C18.0002 9.17809 18.3125 9.57807 18.7577 9.68937L19.3779 9.84441C18.9877 10.635 18.2162 11.1921 17.312 11.2925L16.7623 11.3536C15.5379 11.4897 14.5044 12.3252 14.1148 13.4939L14.0002 13.8377C13.3379 15.8247 13.0002 17.9055 13.0002 20C13.0002 20.5523 13.4479 21 14.0002 21C14.5525 21 15.0002 20.5523 15.0002 20C15.0002 18.1205 15.3032 16.2532 15.8976 14.4702L16.0122 14.1263C16.155 13.6977 16.5341 13.3913 16.9832 13.3414L17.5329 13.2803C19.4996 13.0618 21.1097 11.6168 21.539 9.68507L21.7724 8.63465C22.0097 7.56698 21.2767 6.52678 20.1914 6.39112L17.5784 6.06449L16.426 4.3359C15.8696 3.5013 14.9329 3 13.9298 3H11.2084ZM14.0002 7C14.0002 6.72386 13.7764 6.5 13.5002 6.5C13.2241 6.5 13.0002 6.72386 13.0002 7V8C13.0002 8.27614 13.2241 8.5 13.5002 8.5C13.7764 8.5 14.0002 8.27614 14.0002 8V7Z" />
</svg>
