<svg width="12" height="12" viewBox="0 0 12 12"  xmlns="http://www.w3.org/2000/svg">
<path fill-rule="evenodd" clip-rule="evenodd" d="M5.30423 2L5.12586 3.23448L4.86395 3.34365C4.62149 3.44472 4.3945 3.57228 4.19333 3.72447L3.97012 3.89333L2.77049 3.42392L2.0878 4.57172L3.09897 5.34258L3.05835 5.63228C3.04083 5.75725 3.03015 5.88115 3.03015 6C3.03015 6.11866 3.04078 6.24308 3.05876 6.37711L3.09737 6.66507L2.0878 7.43471L2.77049 8.58251L3.97012 8.1131L4.19333 8.28196C4.397 8.43604 4.61681 8.56213 4.86012 8.6612L5.12547 8.76923L5.3033 10H6.69588L6.87425 8.76552L7.13615 8.65635C7.37862 8.55528 7.60561 8.42772 7.80678 8.27553L8.02999 8.10667L9.22961 8.57608L9.91231 7.42828L8.90114 6.65742L8.94176 6.36772C8.95928 6.24275 8.96996 6.11885 8.96996 6C8.96996 5.88134 8.95933 5.75692 8.94135 5.62289L8.90274 5.33494L9.91231 4.56529L9.22962 3.41749L8.02999 3.8869L7.80678 3.71804C7.60311 3.56396 7.38329 3.43787 7.13999 3.3388L6.87464 3.23077L6.69681 2H5.30423ZM4.35145 1.6036C4.41428 1.25728 4.71986 1 5.07475 1H6.92536C7.27291 1 7.58162 1.24926 7.64765 1.59178L7.64987 1.60331L7.7842 2.53296C7.91988 2.60022 8.05021 2.67462 8.17569 2.75606L9.08168 2.40155L9.08713 2.39956C9.40682 2.28295 9.77919 2.39679 9.96821 2.70321L9.97033 2.70665L10.8962 4.26328C11.0951 4.59066 10.9928 4.98284 10.7328 5.19678L10.7256 5.2027L9.96261 5.78439C9.96728 5.8551 9.96996 5.92706 9.96996 6C9.96996 6.07082 9.96743 6.14083 9.96299 6.20947L10.7256 6.79087L10.7328 6.79679C10.9928 7.01074 11.0951 7.40292 10.8962 7.7303L9.97033 9.28693L9.96821 9.29036C9.77919 9.59678 9.40683 9.71062 9.08713 9.59402L9.08168 9.59203L8.17499 9.23724C8.04868 9.31864 7.91804 9.39252 7.78442 9.45907L7.65026 10.3876L7.64866 10.3964C7.58582 10.7427 7.28024 11 6.92536 11H5.07475C4.7272 11 4.41849 10.7507 4.35246 10.4082L4.35024 10.3967L4.21591 9.46704C4.08023 9.39978 3.9499 9.32538 3.82442 9.24394L2.91843 9.59845L2.91298 9.60044C2.59328 9.71705 2.22091 9.6032 2.0319 9.29679L2.02978 9.29335L1.10393 7.73674C0.905002 7.40936 1.00732 7.01717 1.26728 6.80322L1.27447 6.7973L2.0375 6.21561C2.03283 6.1449 2.03015 6.07294 2.03015 6C2.03015 5.92918 2.03267 5.85916 2.03712 5.79053L1.27447 5.20913L1.26728 5.20321C1.00733 4.98927 0.905007 4.59709 1.10392 4.26971L2.02978 2.71307L2.0319 2.70964C2.22092 2.40322 2.59329 2.28938 2.91298 2.40598L2.91843 2.40797L3.82511 2.76276C3.95143 2.68136 4.08207 2.60748 4.21568 2.54093L4.34984 1.61245L4.35145 1.6036ZM4.17818 6C4.17818 5.00373 5.01005 4.21429 6.00005 4.21429C6.99006 4.21429 7.82192 5.00373 7.82192 6C7.82192 6.99627 6.99006 7.78571 6.00005 7.78571C5.01005 7.78571 4.17818 6.99627 4.17818 6ZM6.00005 5.21429C5.53601 5.21429 5.17818 5.58198 5.17818 6C5.17818 6.41802 5.53601 6.78571 6.00005 6.78571C6.4641 6.78571 6.82192 6.41802 6.82192 6C6.82192 5.58198 6.4641 5.21429 6.00005 5.21429Z" />
</svg>
