<svg width="12" height="12" viewBox="0 0 12 12"  xmlns="http://www.w3.org/2000/svg">
<path d="M8 4.25C7.72386 4.25 7.5 4.47386 7.5 4.75C7.5 5.02614 7.72386 5.25 8 5.25H8.5C8.77614 5.25 9 5.47386 9 5.75V9.5C9 9.77614 8.77614 10 8.5 10H3.5C3.22386 10 3 9.77614 3 9.5V5.75C3 5.47386 3.22386 5.25 3.5 5.25H4C4.27614 5.25 4.5 5.02614 4.5 4.75C4.5 4.47386 4.27614 4.25 4 4.25H3.5C2.67157 4.25 2 4.92157 2 5.75V9.5C2 10.3284 2.67157 11 3.5 11H8.5C9.32843 11 10 10.3284 10 9.5V5.75C10 4.92157 9.32843 4.25 8.5 4.25H8Z" />
<path d="M4.14645 3.35355C3.95118 3.15829 3.95118 2.84171 4.14645 2.64645L5.64645 1.14645C5.74022 1.05268 5.86739 1 6 1C6.13261 1 6.25979 1.05268 6.35355 1.14645L7.85355 2.64645C8.04882 2.84171 8.04882 3.15829 7.85355 3.35355C7.65829 3.54882 7.34171 3.54882 7.14645 3.35355L6.5 2.70711V7C6.5 7.27614 6.27614 7.5 6 7.5C5.72386 7.5 5.5 7.27614 5.5 7V2.70711L4.85355 3.35355C4.65829 3.54882 4.34171 3.54882 4.14645 3.35355Z" />
</svg>
