<svg width="12" height="12" viewBox="0 0 12 12"  xmlns="http://www.w3.org/2000/svg">
<path fill-rule="evenodd" clip-rule="evenodd" d="M7 3C7 1.89543 7.89543 1 9 1C10.1046 1 11 1.89543 11 3C11 4.10457 10.1046 5 9 5C8.34526 5 7.764 4.68538 7.39916 4.19908L4.9425 5.5219C4.98007 5.67509 5 5.83522 5 6C5 6.162 4.98074 6.3195 4.94438 6.47034L7.61219 7.89317C7.97185 7.54651 8.46103 7.33331 9 7.33331C10.1046 7.33331 11 8.22874 11 9.33331C11 10.4379 10.1046 11.3333 9 11.3333C7.89543 11.3333 7 10.4379 7 9.33331C7 9.12916 7.03059 8.93216 7.08743 8.74663L4.47338 7.35248C4.10781 7.75051 3.58304 8 3 8C1.89543 8 1 7.10457 1 6C1 4.89543 1.89543 4 3 4C3.58017 4 4.10265 4.24704 4.46797 4.64166L7.01789 3.26863C7.00609 3.18076 7 3.09109 7 3ZM9 2C8.44772 2 8 2.44772 8 3C8 3.55228 8.44772 4 9 4C9.55228 4 10 3.55228 10 3C10 2.44772 9.55228 2 9 2ZM3 5C2.44772 5 2 5.44772 2 6C2 6.55228 2.44772 7 3 7C3.55228 7 4 6.55228 4 6C4 5.44772 3.55228 5 3 5ZM8 9.33331C8 8.78103 8.44772 8.33331 9 8.33331C9.55228 8.33331 10 8.78103 10 9.33331C10 9.8856 9.55228 10.3333 9 10.3333C8.44772 10.3333 8 9.8856 8 9.33331Z" />
</svg>
