<svg width="12" height="12" viewBox="0 0 12 12"  xmlns="http://www.w3.org/2000/svg">
<path d="M5.50004 7.45702L7.75004 5.20702C7.9453 5.01176 7.9453 4.69518 7.75004 4.49992C7.55478 4.30465 7.23819 4.30465 7.04293 4.49992L5.50004 6.04281L4.95714 5.49992C4.76188 5.30465 4.4453 5.30465 4.25004 5.49992C4.05478 5.69518 4.05478 6.01176 4.25004 6.20702L5.50004 7.45702Z" />
<path fill-rule="evenodd" clip-rule="evenodd" d="M5.78215 10.8825C5.91935 10.9596 6.08065 10.9596 6.21785 10.8825C7.0525 10.4135 10 8.57518 10 5.99994V2.84644C10 2.63801 9.87071 2.45145 9.67556 2.37827L6.17556 1.06577C6.06237 1.02332 5.93763 1.02332 5.82444 1.06577L2.32444 2.37827C2.12929 2.45145 2 2.63801 2 2.84644V5.99994C2 8.57518 4.9475 10.4135 5.78215 10.8825ZM9 5.99994C9 6.89813 8.47979 7.75998 7.71527 8.52351C7.11166 9.12634 6.43814 9.58411 6 9.85118C5.56186 9.58411 4.88834 9.12634 4.28473 8.52351C3.52021 7.75998 3 6.89813 3 5.99994V3.19294L6 2.06794L9 3.19294V5.99994Z" />
</svg>
