<svg width="12" height="12" viewBox="0 0 12 12"  xmlns="http://www.w3.org/2000/svg">
<path d="M6.5 5.00006C6.5 4.72391 6.27614 4.50006 6 4.50006C5.72386 4.50006 5.5 4.72391 5.5 5.00006V6.00006C5.5 6.2762 5.72386 6.50006 6 6.50006C6.27614 6.50006 6.5 6.2762 6.5 6.00006V5.00006Z" />
<path fill-rule="evenodd" clip-rule="evenodd" d="M5.78215 10.8826C5.91935 10.9597 6.08065 10.9597 6.21785 10.8826C7.0525 10.4137 10 8.5753 10 6.00006V2.84656C10 2.63814 9.87071 2.45157 9.67556 2.37839L6.17556 1.06589C6.06237 1.02345 5.93763 1.02345 5.82444 1.06589L2.32444 2.37839C2.12929 2.45158 2 2.63814 2 2.84656V6.00006C2 8.5753 4.9475 10.4137 5.78215 10.8826ZM9 6.00006C9 6.89825 8.47979 7.7601 7.71527 8.52363C7.11166 9.12646 6.43814 9.58423 6 9.8513C5.56186 9.58423 4.88834 9.12646 4.28473 8.52363C3.52021 7.7601 3 6.89826 3 6.00006V3.19306L6 2.06806L9 3.19306V6.00006Z" />
</svg>
