<svg width="24" height="24" viewBox="0 0 24 24" fill="none" xmlns="http://www.w3.org/2000/svg">
<path fill-rule="evenodd" clip-rule="evenodd" d="M20 5C20 3.34315 18.6569 2 17 2H9C6.94968 2 5.1876 3.2341 4.41604 5H3C2.44772 5 2 5.44772 2 6C2 6.55228 2.44772 7 3 7H4V20C4 21.1046 4.89543 22 6 22H14C15.1046 22 16 21.1046 16 20V16H18C19.1046 16 20 15.1046 20 14V7H21C21.5523 7 22 6.55228 22 6C22 5.44772 21.5523 5 21 5H20ZM17 4C17.5523 4 18 4.44772 18 5H16C16 4.44772 16.4477 4 17 4ZM18 14V7H16V14H18ZM14 5V6V20H6V7C6 5.34315 7.34315 4 9 4H14.1707C14.0602 4.31278 14 4.64936 14 5Z" fill="#231B22"/>
</svg>
