<svg width="24" height="24" viewBox="0 0 24 24"  xmlns="http://www.w3.org/2000/svg">
<path fill-rule="evenodd" clip-rule="evenodd" d="M11.126 7H13C15.2091 7 17 8.79086 17 11V13C17 13.5523 16.5523 14 16 14H4C3.44772 14 3 13.5523 3 13V11C3 8.79086 4.79086 7 7 7H9.08296C9.55904 4.16229 12.027 2 15 2C18.3137 2 21 4.68629 21 8V21C21 21.5523 20.5523 22 20 22C19.4477 22 19 21.5523 19 21V8C19 5.79086 17.2091 4 15 4C13.1362 4 11.5701 5.27477 11.126 7ZM7 9H13C14.1046 9 15 9.89543 15 11V12H5V11C5 9.89543 5.89543 9 7 9ZM6 15C6.55228 15 7 15.4477 7 16V17C7 17.5523 6.55228 18 6 18C5.44772 18 5 17.5523 5 17V16C5 15.4477 5.44772 15 6 15ZM11 16C11 15.4477 10.5523 15 10 15C9.44772 15 9 15.4477 9 16V17C9 17.5523 9.44772 18 10 18C10.5523 18 11 17.5523 11 17V16ZM14 15C14.5523 15 15 15.4477 15 16V17C15 17.5523 14.5523 18 14 18C13.4477 18 13 17.5523 13 17V16C13 15.4477 13.4477 15 14 15ZM7 20C7 19.4477 6.55228 19 6 19C5.44772 19 5 19.4477 5 20V21C5 21.5523 5.44772 22 6 22C6.55228 22 7 21.5523 7 21V20ZM10 19C10.5523 19 11 19.4477 11 20V21C11 21.5523 10.5523 22 10 22C9.44772 22 9 21.5523 9 21V20C9 19.4477 9.44772 19 10 19ZM15 20C15 19.4477 14.5523 19 14 19C13.4477 19 13 19.4477 13 20V21C13 21.5523 13.4477 22 14 22C14.5523 22 15 21.5523 15 21V20Z"/>
</svg>
