<svg width="24" height="24" viewBox="0 0 24 24" xmlns="http://www.w3.org/2000/svg">
<path fill-rule="evenodd" clip-rule="evenodd" d="M9.85748 2.48566C10.1416 2.95924 9.98806 3.5735 9.51448 3.85764L9.32833 3.96933C8.47296 4.48256 7.69393 5.10819 7.01102 5.82737L8.16103 5.13737C8.75555 4.78066 9.37766 4.47207 10.0214 4.21458L11.6286 3.57168C12.1414 3.36657 12.7234 3.61598 12.9285 4.12877C13.1336 4.64155 12.8842 5.22352 12.3714 5.42864L10.7642 6.07153C10.2195 6.28941 9.69308 6.55052 9.19002 6.85236L8.61543 7.19711C10.085 7.60852 11.2939 8.63408 11.9099 9.98534C12.139 10.4879 11.9173 11.081 11.4148 11.3101C10.9123 11.5392 10.3192 11.3175 10.0901 10.815C9.61027 9.76245 8.49751 9.00015 7.17364 9.00015C5.38041 9.00015 4 10.3829 4 12.0002C4 13.6174 5.38041 15.0002 7.17364 15.0002C7.76154 15.0002 8.30773 14.8498 8.77559 14.5904C9.25861 14.3227 9.86726 14.4971 10.135 14.9802C10.4028 15.4632 10.2284 16.0718 9.74533 16.3396C8.98542 16.7609 8.10615 17.0002 7.17364 17.0002C4.35679 17.0002 2 14.8012 2 12.0002V8.91563C2 6.82665 2.56774 4.77694 3.64251 2.98566C3.92666 2.51208 4.54092 2.35851 5.0145 2.64266C5.48808 2.92681 5.64164 3.54107 5.35749 4.01465C5.05713 4.51525 4.80468 5.04028 4.60209 5.58272C5.60735 4.24747 6.86217 3.11665 8.29934 2.25435L8.48549 2.14266C8.95907 1.85851 9.57333 2.01208 9.85748 2.48566ZM6.00149 7.05775C6.00282 7.0813 6.005 7.10484 6.00803 7.12835C5.98577 7.13333 5.96358 7.13844 5.94143 7.14369C5.96132 7.11494 5.98134 7.08629 6.00149 7.05775ZM18.6425 19.9857C18.3584 20.4592 18.5119 21.0735 18.9855 21.3576C19.4591 21.6418 20.0733 21.4882 20.3575 21.0147C21.4323 19.2234 22 17.1737 22 15.0847V13.0002C22 10.1991 19.6432 8.00015 16.8264 8.00015C15.8938 8.00015 15.0146 8.2394 14.2547 8.6607C13.7716 8.92848 13.5972 9.53713 13.865 10.0202C14.1327 10.5032 14.7414 10.6777 15.2244 10.4099C15.6923 10.1505 16.2385 10.0002 16.8264 10.0002C18.6196 10.0002 20 11.3829 20 13.0002C20 14.6174 18.6196 16.0002 16.8264 16.0002C15.5025 16.0002 14.3897 15.2379 13.9099 14.1853C13.6808 13.6828 13.0877 13.4612 12.5852 13.6902C12.0827 13.9193 11.861 14.5124 12.0901 15.015C12.5568 16.0388 13.364 16.8756 14.3669 17.4C14.0003 17.5975 13.6227 17.774 13.2358 17.9288L11.6286 18.5717C11.1158 18.7768 10.8664 19.3588 11.0715 19.8715C11.2766 20.3843 11.8586 20.6337 12.3714 20.4286L13.9786 19.7857C14.6223 19.5282 15.2444 19.2197 15.839 18.8629L16.989 18.1729C16.3061 18.8921 15.527 19.5177 14.6717 20.031L14.4855 20.1427C14.0119 20.4268 13.8584 21.0411 14.1425 21.5147C14.4267 21.9882 15.0409 22.1418 15.5145 21.8576L15.7007 21.746C17.1378 20.8837 18.3927 19.7528 19.3979 18.4176C19.1953 18.96 18.9429 19.4851 18.6425 19.9857Z" />
</svg>
