<svg width="12" height="12" viewBox="0 0 12 12"  xmlns="http://www.w3.org/2000/svg">
<path d="M3.17157 3.17155C3.36684 2.97628 3.36684 2.6597 3.17157 2.46444C2.97631 2.26918 2.65973 2.26918 2.46447 2.46444C1.56019 3.36871 1 4.6194 1 5.99997C1 7.38055 1.56019 8.63123 2.46447 9.53551C2.65973 9.73077 2.97631 9.73077 3.17157 9.53551C3.36684 9.34025 3.36684 9.02366 3.17157 8.8284C2.44717 8.104 2 7.10468 2 5.99997C2 4.89527 2.44717 3.89595 3.17157 3.17155Z" />
<path d="M9.53553 2.46444C9.34027 2.26918 9.02369 2.26918 8.82843 2.46444C8.63316 2.6597 8.63316 2.97628 8.82843 3.17155C9.55283 3.89595 10 4.89527 10 5.99997C10 7.10468 9.55283 8.104 8.82843 8.8284C8.63316 9.02366 8.63316 9.34025 8.82843 9.53551C9.02369 9.73077 9.34027 9.73077 9.53553 9.53551C10.4398 8.63123 11 7.38055 11 5.99997C11 4.6194 10.4398 3.36871 9.53553 2.46444Z" />
<path d="M4.57169 4.60002C4.765 4.40283 4.76186 4.08626 4.56466 3.89295C4.36747 3.69964 4.0509 3.70278 3.85759 3.89998C3.32762 4.44059 3 5.18254 3 6C3 6.81746 3.32762 7.55941 3.85759 8.10002C4.0509 8.29722 4.36747 8.30036 4.56466 8.10705C4.76186 7.91374 4.765 7.59717 4.57169 7.39998C4.21754 7.03872 4 6.54526 4 6C4 5.45474 4.21754 4.96128 4.57169 4.60002Z" />
<path d="M8.14241 3.89998C7.9491 3.70278 7.63253 3.69964 7.43534 3.89295C7.23814 4.08626 7.235 4.40283 7.42831 4.60002C7.78246 4.96128 8 5.45474 8 6C8 6.54526 7.78246 7.03872 7.42831 7.39998C7.235 7.59717 7.23814 7.91374 7.43534 8.10705C7.63253 8.30036 7.9491 8.29722 8.14241 8.10002C8.67238 7.55941 9 6.81746 9 6C9 5.18254 8.67238 4.44059 8.14241 3.89998Z" />
<path d="M6 7C6.55228 7 7 6.55229 7 6C7 5.44772 6.55228 5 6 5C5.44772 5 5 5.44772 5 6C5 6.55229 5.44772 7 6 7Z" />
</svg>
