<svg xmlns="http://www.w3.org/2000/svg" viewBox="0 0 24 24" id="Single-Woman-Flag-2--Streamline-Ultimate" height="24" width="24"><desc>Single Woman Flag 2 Streamline Icon: https://streamlinehq.com</desc><g><g><path d="M3 3.75a3 3 0 1 0 6 0 3 3 0 1 0 -6 0" fill="none" stroke="#000000" stroke-linecap="round" stroke-linejoin="round" stroke-width="1.5"></path><path d="M9.76 9.83a5.94 5.94 0 0 0 -0.87 -0.72L6 13.5 3.11 9.11A5.26 5.26 0 0 0 0.75 13.5v2.25H3l0.75 7.5h4.5l0.75 -7.5h0.75" fill="none" stroke="#000000" stroke-linecap="round" stroke-linejoin="round" stroke-width="1.5"></path><path d="M3 3.75S3 7.5 0.75 7.5" fill="none" stroke="#000000" stroke-linecap="round" stroke-linejoin="round" stroke-width="1.5"></path><path d="M9 3.75s0 2.53 1.25 3.43" fill="none" stroke="#000000" stroke-linecap="round" stroke-linejoin="round" stroke-width="1.5"></path></g><g><path d="m12.75 17.27 0 5.98" fill="none" stroke="#000000" stroke-linecap="round" stroke-linejoin="round" stroke-width="1.5"></path><path d="m12.75 17.27 1.5 -0.51a4.23 4.23 0 0 1 3.75 0.51 4.3 4.3 0 0 0 3.75 0.51l1.5 -0.51V9l-1.5 0.51A4.23 4.23 0 0 1 18 9a4.3 4.3 0 0 0 -3.75 -0.51l-1.5 0.51Z" fill="none" stroke="#000000" stroke-linecap="round" stroke-linejoin="round" stroke-width="1.5"></path></g></g></svg>