<svg width="24" height="24" viewBox="0 0 24 24"  xmlns="http://www.w3.org/2000/svg">
<path fill-rule="evenodd" clip-rule="evenodd" d="M10 5C9.44772 5 9 5.44772 9 6V6.17071C9.37262 6.30241 9.71145 6.50564 10 6.76389C10.2885 6.50564 10.6274 6.30241 11 6.17071V6C11 5.44772 10.5523 5 10 5ZM12 3.7639C11.4692 3.28885 10.7684 3 10 3C8.34315 3 7 4.34315 7 6V6.17071C5.83481 6.58254 5 7.69378 5 9V10H4C3.44772 10 3 10.4477 3 11V13C3 17.4183 6.58172 21 11 21H13C17.4183 21 21 17.4183 21 13V11C21 10.4477 20.5523 10 20 10H19V9C19 7.69378 18.1652 6.58254 17 6.17071V6C17 4.34315 15.6569 3 14 3C13.2316 3 12.5308 3.28885 12 3.7639ZM15 6.17071V6C15 5.44772 14.5523 5 14 5C13.4477 5 13 5.44772 13 6V6.17071C13.3726 6.30241 13.7115 6.50564 14 6.7639C14.2886 6.50564 14.6274 6.30241 15 6.17071ZM12 8C11.4477 8 11 8.44772 11 9V10H13V9C13 8.44772 12.5523 8 12 8ZM7 9C7 8.44772 7.44772 8 8 8C8.55228 8 9 8.44772 9 9V10H7V9ZM17 10V9C17 8.44772 16.5523 8 16 8C15.4477 8 15 8.44772 15 9V10H17ZM18 12H19V13H5V12H6H10H14H18ZM11 19C8.38756 19 6.16508 17.3304 5.34141 15H18.6586C17.8349 17.3304 15.6124 19 13 19H11Z"/>
</svg>
