<svg width="12" height="12" viewBox="0 0 12 12"  xmlns="http://www.w3.org/2000/svg">
<path fill-rule="evenodd" clip-rule="evenodd" d="M1 6C1 5.72386 1.22386 5.5 1.5 5.5H5.5C5.77614 5.5 6 5.72386 6 6C6 6.27614 5.77614 6.5 5.5 6.5H1.5C1.22386 6.5 1 6.27614 1 6Z" />
<path fill-rule="evenodd" clip-rule="evenodd" d="M1 8C1 7.72386 1.22386 7.5 1.5 7.5H7C7.27614 7.5 7.5 7.72386 7.5 8C7.5 8.27614 7.27614 8.5 7 8.5H1.5C1.22386 8.5 1 8.27614 1 8Z" />
<path fill-rule="evenodd" clip-rule="evenodd" d="M1 4C1 3.72386 1.22386 3.5 1.5 3.5H3.5C3.77614 3.5 4 3.72386 4 4C4 4.27614 3.77614 4.5 3.5 4.5H1.5C1.22386 4.5 1 4.27614 1 4Z" />
<path fill-rule="evenodd" clip-rule="evenodd" d="M7.14645 4.35355C7.34171 4.54882 7.65829 4.54882 7.85355 4.35355L9 3.20711L10.1464 4.35355C10.3417 4.54882 10.6583 4.54882 10.8536 4.35355C11.0488 4.15829 11.0488 3.84171 10.8536 3.64645L9.35355 2.14645C9.15829 1.95118 8.84171 1.95118 8.64645 2.14645L7.14645 3.64645C6.95118 3.84171 6.95118 4.15829 7.14645 4.35355Z" />
<path fill-rule="evenodd" clip-rule="evenodd" d="M9 2.5C9.27614 2.5 9.5 2.72386 9.5 3V9.5C9.5 9.77614 9.27614 10 9 10C8.72386 10 8.5 9.77614 8.5 9.5V3C8.5 2.72386 8.72386 2.5 9 2.5Z" />
</svg>
