<svg width="12" height="12" viewBox="0 0 12 12"  xmlns="http://www.w3.org/2000/svg">
<path fill-rule="evenodd" clip-rule="evenodd" d="M1 5.5C1 5.22386 1.22386 5 1.5 5H5.5C5.77614 5 6 5.22386 6 5.5C6 5.77614 5.77614 6 5.5 6H1.5C1.22386 6 1 5.77614 1 5.5Z" />
<path fill-rule="evenodd" clip-rule="evenodd" d="M1 3.5C1 3.22386 1.22386 3 1.5 3H7C7.27614 3 7.5 3.22386 7.5 3.5C7.5 3.77614 7.27614 4 7 4H1.5C1.22386 4 1 3.77614 1 3.5Z" />
<path fill-rule="evenodd" clip-rule="evenodd" d="M1 7.5C1 7.22386 1.22386 7 1.5 7H3.5C3.77614 7 4 7.22386 4 7.5C4 7.77614 3.77614 8 3.5 8H1.5C1.22386 8 1 7.77614 1 7.5Z" />
<path fill-rule="evenodd" clip-rule="evenodd" d="M7.14645 7.64645C7.34171 7.45118 7.65829 7.45118 7.85355 7.64645L9 8.79289L10.1464 7.64645C10.3417 7.45118 10.6583 7.45118 10.8536 7.64645C11.0488 7.84171 11.0488 8.15829 10.8536 8.35355L9.35355 9.85355C9.15829 10.0488 8.84171 10.0488 8.64645 9.85355L7.14645 8.35355C6.95118 8.15829 6.95118 7.84171 7.14645 7.64645Z" />
<path fill-rule="evenodd" clip-rule="evenodd" d="M9 2C9.27614 2 9.5 2.22386 9.5 2.5V9C9.5 9.27614 9.27614 9.5 9 9.5C8.72386 9.5 8.5 9.27614 8.5 9V2.5C8.5 2.22386 8.72386 2 9 2Z" />
</svg>
