<svg width="12" height="12" viewBox="0 0 12 12" xmlns="http://www.w3.org/2000/svg">
<path fill-rule="evenodd" clip-rule="evenodd" d="M6.70024 1.90006L6.00024 1.37506L5.30024 1.90006C4.26639 2.67545 3.62067 3.85367 3.51546 5.12997C3.19127 5.04516 2.85103 5 2.50024 5H1.00024V6.5C1.00024 8.70914 2.79111 10.5 5.00024 10.5H7.00031C9.20944 10.5 11.0003 8.70914 11.0003 6.5V5H9.50031C9.1495 5 8.80924 5.04516 8.48503 5.12998C8.37982 3.85368 7.7341 2.67546 6.70024 1.90006ZM7.50024 5.53516V5.50006C7.50024 4.39841 6.98156 3.36105 6.10024 2.70006L6.00024 2.62506L5.90024 2.70006C5.01892 3.36105 4.50024 4.39841 4.50024 5.50006V5.53513C5.12807 5.89831 5.64802 6.42722 6.00028 7.06205C6.35252 6.42724 6.87245 5.89834 7.50024 5.53516ZM2.00024 6H2.50024C4.1571 6 5.50024 7.34315 5.50024 9V9.5H5.00024C3.34339 9.5 2.00024 8.15685 2.00024 6.5V6ZM10.0003 6H9.50031C7.84345 6 6.50031 7.34315 6.50031 9V9.5H7.00031C8.65716 9.5 10.0003 8.15685 10.0003 6.5V6Z" />
</svg>
