<svg width="24" height="24" viewBox="0 0 24 24" fill="none" xmlns="http://www.w3.org/2000/svg">
<path fill-rule="evenodd" clip-rule="evenodd" d="M6 5V6H18V5L6 5ZM4 5C4 3.89543 4.89543 3 6 3H18C19.1046 3 20 3.89543 20 5V6C20 6.20291 19.9698 6.39876 19.9136 6.5833L21.5609 9.46826C22.3755 10.8951 21.5177 12.6373 20 12.9506V19H21C21.5523 19 22 19.4477 22 20C22 20.5523 21.5523 21 21 21H19H15H9H5H3C2.44772 21 2 20.5523 2 20C2 19.4477 2.44772 19 3 19H4V12.9506C2.48228 12.6373 1.62446 10.8951 2.43915 9.46826L4.0864 6.5833C4.03022 6.39876 4 6.20291 4 6V5ZM18 19V12.7092C17.5643 12.5345 17.1641 12.2861 16.8161 11.9779C16.2712 12.5998 15.4705 13 14.5604 13H14C13.2316 13 12.5308 12.7112 12 12.2361C11.4692 12.7112 10.7684 13 10 13H9.43961C8.52954 13 7.72883 12.5998 7.1839 11.9779C6.83595 12.2861 6.43572 12.5345 6 12.7092V19H8V16C8 15.4477 8.44772 15 9 15H15C15.5523 15 16 15.4477 16 16V19H18ZM11 10V8H8.8198L8.47293 9.73436L8.45903 9.80389C8.33527 10.4227 8.80856 11 9.43961 11H10C10.5523 11 11 10.5523 11 10ZM13 8V10C13 10.5523 13.4477 11 14 11H14.5604C15.1914 11 15.6647 10.4227 15.541 9.80389L15.5271 9.73436L15.1802 8H13ZM17.2198 8L17.4882 9.34213C17.681 10.3061 18.5274 11 19.5105 11C19.7877 11 19.9615 10.7006 19.824 10.4599L18.397 7.96061C18.2687 7.98644 18.1359 8 18 8H17.2198ZM6 8H6.7802L6.51177 9.34213C6.31897 10.3061 5.47257 11 4.4895 11C4.21235 11 4.03855 10.7006 4.17598 10.4599L5.60304 7.96061C5.73134 7.98644 5.86409 8 6 8ZM10 17V19H14V17H10Z" fill="#231B22"/>
</svg>
