<svg width="24" height="24" viewBox="0 0 24 24" xmlns="http://www.w3.org/2000/svg">
<path fill-rule="evenodd" clip-rule="evenodd" d="M14.1252 3.21917C13.694 2.87416 13.0647 2.94408 12.7197 3.37534C12.3746 3.8066 12.4446 4.4359 12.8758 4.78091L14.0373 5.71006L4.75795 8.0299C4.22215 8.16384 3.89639 8.70678 4.03034 9.24257C4.16429 9.77837 4.70722 10.1041 5.24302 9.97018L14.3849 7.68472L14.0518 8.68381C13.8772 9.20775 14.1604 9.77407 14.6843 9.94872C15.2082 10.1234 15.7746 9.84021 15.9492 9.31626L16.7287 6.97777C16.9937 6.18285 16.735 5.30702 16.0807 4.78358L14.1252 3.21917ZM20.0004 12.8053L4.93558 18H20.0004V12.8053ZM22.0004 11.4026C22.0004 10.7157 21.3238 10.2334 20.6744 10.4573L4.2836 16.1093C2.1499 16.845 2.67859 20 4.93558 20H20.0004C21.105 20 22.0004 19.1046 22.0004 18V11.4026Z" />
</svg>
