<svg width="12" height="12" viewBox="0 0 12 12" xmlns="http://www.w3.org/2000/svg">
  <path fill-rule="evenodd" clip-rule="evenodd" d="M6 .5a.5.5 0 0 1 .45.28l1.43 2.9 3.2.46a.5.5 0 0 1 .27.85L9.04 7.24l.54 3.19a.5.5 0 0 1-.72.52L6 9.45l-2.86 1.5a.5.5 0 0 1-.72-.52l.54-3.18L.65 4.99a.5.5 0 0 1 .28-.85l3.2-.47L5.54.78A.5.5 0 0 1 6 .5Zm0 1.63L4.9 4.35a.5.5 0 0 1-.37.27l-2.46.36 1.78 1.73a.5.5 0 0 1 .14.44L3.58 9.6l2.19-1.15a.5.5 0 0 1 .46 0l2.2 1.16L8 7.15a.5.5 0 0 1 .14-.44l1.78-1.73-2.46-.36a.5.5 0 0 1-.37-.27L6 2.13Z" />
</svg>
