<svg width="24" height="24" viewBox="0 0 24 24" xmlns="http://www.w3.org/2000/svg">
<g clip-path="url(#clip0_1334_45212)">
<path d="M6.06202 1.78212C6.56136 0.918097 7.69279 0.644863 8.58546 1.16005L8.59034 1.16298L8.74561 1.26356L8.74952 1.26649L8.88135 1.37099C9.51414 1.91932 9.72793 2.82798 9.67042 3.6454V3.64735L9.63917 3.9872C9.61091 4.40252 9.66236 4.84418 9.8628 5.26454C10.0631 5.68457 10.4154 6.08975 11.0005 6.42763C12.4688 7.27522 13.8597 6.61601 14.7788 5.90126C15.0779 5.66877 15.4708 5.58025 15.8355 5.63173C16.2008 5.68342 16.5474 5.87732 16.7437 6.21962L22.9302 17.0184C23.6338 18.2472 23.6454 19.726 22.9575 20.9179L22.1196 22.369C21.5957 23.2764 20.4486 23.6027 19.4829 23.164L19.478 23.162L19.2964 23.0683L19.2925 23.0663L1.97217 13.0663L1.96827 13.0634L1.79639 12.953L1.79151 12.9501C0.98607 12.3742 0.679163 11.329 1.06788 10.454L1.07081 10.4501L1.15967 10.2743L1.16163 10.2694L6.06202 1.78212ZM2.63428 11.119C2.53153 11.297 2.59604 11.5358 2.79053 11.6483L20.1108 21.6483C20.3053 21.7603 20.5441 21.6973 20.647 21.5194L20.9556 20.9833L2.94288 10.5839L2.63428 11.119ZM7.7671 2.57899C7.68035 2.52891 7.57783 2.55805 7.53467 2.63173L3.76221 9.16493L21.7046 19.5243C21.8537 18.9551 21.7769 18.3348 21.4673 17.7938L19.4077 14.1962C19.3781 14.2078 19.3466 14.2184 19.314 14.2265L17.2964 14.7225C16.8509 14.8316 16.387 14.564 16.2583 14.1239C16.1291 13.6797 16.3903 13.2283 16.8394 13.1181L18.5483 12.6962L17.6216 11.08L14.9839 11.7265C14.5382 11.8355 14.0752 11.5682 13.9468 11.1278C13.8177 10.6838 14.0777 10.2332 14.5269 10.1229L16.7593 9.57411L15.5357 7.43837C14.3977 8.2265 12.3886 9.12014 10.1821 7.84657C9.25559 7.31163 8.62308 6.59663 8.27296 5.77821C7.93384 4.98494 7.90608 4.2046 7.98096 3.57606C8.01543 3.28662 7.98444 3.0126 7.91553 2.8163C7.85136 2.63372 7.78363 2.58871 7.7671 2.57899Z"/>
</g>
<defs>
<clipPath id="clip0_1334_45212">
<rect width="24" height="24" fill="white"/>
</clipPath>
</defs>
</svg>
