<svg xmlns="http://www.w3.org/2000/svg" fill="none" viewBox="0 0 24 24" id="Yoga-Seated-Forward-Fold-Pose--Streamline-Ultimate.svg" height="24" width="24"><desc>Yoga Seated Forward Fold Pose Streamline Icon: https://streamlinehq.com</desc><path stroke="#000000" stroke-linecap="round" stroke-linejoin="round" stroke-miterlimit="10" d="M17.75 10.3c0 4.0453 -3.4 7.4 -7.5 7.4H9.24998c-1.2 0 -2.19999 -0.9867 -2.19999 -2.1707 0 -1.184 0.99999 -2.1706 2.19999 -2.1706H10.879c0.6884 0 1.2723 -0.5055 1.371 -1.1868v0" stroke-width="1.5"></path><path stroke="#000000" stroke-linecap="round" stroke-linejoin="round" stroke-miterlimit="10" d="M5.25 13.3h-2.3c-1.2 0 -2.2 1 -2.2 2.2 0 1.2 1 2.2 2.2 2.2h14.8c3.3 0 5.5 -2.7 5.5 -6 0 -3.29999 -2.2 -5.49999 -5.5 -5.49999l-2 0c-2 0 -3.5 1 -3.5 3V12.2" stroke-width="1.5"></path><path stroke="#000000" stroke-linecap="round" stroke-linejoin="round" stroke-miterlimit="10" d="M9.62964 13.3625c-1.65686 0 -3 -1.3432 -3 -3 0 -1.65687 1.34314 -3.00001 3 -3.00001 1.13916 0 2.13006 0.63497 2.63806 1.57031" stroke-width="1.5"></path></svg>