<svg width="24" height="24" viewBox="0 0 24 24" xmlns="http://www.w3.org/2000/svg">
<path d="M21.2393 11.4658C21.7513 11.4659 22.1941 11.6408 22.5547 11.9902C22.9166 12.3412 23.0986 12.7795 23.0986 13.2891L23.0928 13.4482C23.0648 13.814 22.9389 14.1435 22.7129 14.4287C22.4579 14.7504 22.1262 14.9721 21.7256 15.0898L21.7119 15.0938H21.7109L18.1504 16.0479V20.7881C18.1503 21.1883 18.0619 21.5575 17.8789 21.8887C17.7007 22.2109 17.4593 22.4764 17.1602 22.6865L17.1582 22.6904L17.1504 22.6963C16.8421 22.9055 16.502 23.0362 16.1348 23.084C15.805 23.1268 15.4697 23.0865 15.1318 22.9707V22.9746L14.9951 22.9209L9.97656 20.9424H1.90039V16.8516C1.90047 15.3553 2.42501 14.0777 3.47266 13.0332C4.52016 11.9889 5.8011 11.4658 7.30176 11.4658H21.2393ZM8.83887 17.0557C8.63385 17.0557 8.47137 17.1132 8.33984 17.2207L8.28027 17.2744L8.18262 17.3906C8.09958 17.5116 8.05772 17.6471 8.05469 17.7998V17.8018C8.05094 17.9513 8.0899 18.1006 8.17676 18.251C8.25402 18.3844 8.38161 18.4942 8.57715 18.5732H8.57617L15.6201 21.3447C15.8248 21.4211 16.006 21.3993 16.1836 21.2793C16.3604 21.1595 16.4442 21.0025 16.4443 20.7881V17.0557H8.83887ZM7.30176 13.1689C6.27212 13.1689 5.40292 13.5271 4.68359 14.2441C3.96486 14.961 3.60652 15.8262 3.60645 16.8516V19.2393H6.97559C6.86121 19.1258 6.75649 19.002 6.66504 18.8652C6.4813 18.5907 6.37609 18.2919 6.35254 17.9736L6.34766 17.8359C6.34777 17.157 6.59516 16.5682 7.08203 16.083C7.56885 15.5978 8.15856 15.3535 8.83887 15.3535H13.9561L21.2666 13.4521C21.3501 13.4179 21.3833 13.3866 21.3945 13.3701L21.4033 13.3486C21.4045 13.3405 21.4044 13.3269 21.3994 13.3066C21.3855 13.2512 21.3631 13.2147 21.3389 13.1904V13.1914C21.3376 13.1901 21.3315 13.1838 21.3164 13.1787L21.2393 13.1689H7.30176ZM10.1113 1.9043C11.1545 1.95115 12.0556 2.34893 12.8037 3.09473C13.6015 3.89017 14.0018 4.85949 14.002 5.98926L13.998 6.19922C13.9511 7.23987 13.5522 8.13982 12.8037 8.88574C12.0557 9.63139 11.1544 10.0293 10.1113 10.0762L9.90039 10.0801C8.76764 10.0801 7.79593 9.68088 6.99805 8.88574C6.24963 8.13986 5.84976 7.23993 5.80273 6.19922L5.79883 5.98926C5.79895 4.8594 6.2002 3.89014 6.99805 3.09473C7.79599 2.29938 8.76749 1.90041 9.90039 1.90039L10.1113 1.9043ZM9.90039 3.60156C9.24005 3.60158 8.67901 3.83515 8.20801 4.30469C7.73773 4.77388 7.505 5.33202 7.50488 5.98926C7.50497 6.64666 7.7376 7.20556 8.20801 7.6748C8.6789 8.14415 9.24003 8.37694 9.90039 8.37695C10.5608 8.37695 11.1219 8.14417 11.5928 7.6748C12.0632 7.20555 12.2958 6.6467 12.2959 5.98926C12.2958 5.33198 12.0631 4.77389 11.5928 4.30469C11.1218 3.83513 10.5608 3.60156 9.90039 3.60156Z"/>
</svg>
