<svg xmlns="http://www.w3.org/2000/svg" fill="none" height="24" width="24"><path d="M15.4 5.466c-1.275.087-2.164.444-2.893 1.161-.15.148-.346.38-.436.517l-.163.248-.224-.151c-.617-.418-1.248-.605-2.044-.606a3.493 3.493 0 0 0-1.437.271c-1.129.467-1.887 1.356-2.229 2.614-.11.405-.099 1.313.021 1.76a3.76 3.76 0 0 0 1.022 1.754l.303.294-.275.295c-.317.34-.566.8-.668 1.237-.14.601-.06 1.361.199 1.9l.097.2-1.907-.001c-2.058 0-2.196-.012-2.538-.212a1.754 1.754 0 0 1-.596-.661c-.077-.156-.092-.25-.092-.586 0-.338.014-.429.093-.589.129-.261.401-.553.634-.68.294-.16.599-.19 1.93-.191 1.159 0 1.226-.004 1.393-.085.26-.126.39-.344.39-.655 0-.311-.13-.529-.39-.655-.168-.082-.231-.085-1.564-.085-1.625 0-1.799.023-2.385.31-.317.156-.439.246-.743.548-.403.401-.605.719-.771 1.215-.091.271-.103.372-.103.867s.012.596.103.867c.164.492.369.814.77 1.216.305.306.423.394.743.551.664.328-.01.305 8.795.305 6.876.001 7.907-.007 8.271-.061 2.537-.376 4.547-2.348 5.115-5.018.51-2.395-.083-4.708-1.585-6.191A5.349 5.349 0 0 0 20.74 6.12c-1.136-.548-1.982-.686-4.12-.672-.572.003-1.121.012-1.22.018m3.58 1.606c1.204.279 2.114.878 2.723 1.791.587.881.81 1.781.765 3.091-.041 1.189-.318 2.084-.935 3.018-.229.347-.823.952-1.153 1.175a5.167 5.167 0 0 1-1.774.737c-.277.054-3.644.098-3.586.047.022-.019.147-.115.278-.213.347-.259.989-.883 1.336-1.298 1.134-1.358 1.817-3.14 1.854-4.84.011-.51-.044-.672-.298-.874-.314-.251-.832-.162-1.059.181-.093.14-.11.226-.156.765-.06.703-.097.934-.212 1.348-.568 2.045-2.176 3.79-4.164 4.519-.792.29-1.362.389-2.44.425-1.19.039-1.519-.034-1.922-.427-.453-.441-.558-1.137-.251-1.663.13-.222.429-.496.674-.616.195-.095.231-.099 1.4-.122 1.083-.021 1.226-.032 1.466-.11.645-.21 1.167-.738 1.407-1.425.026-.074.052-.846.067-2.001.024-1.778.03-1.894.111-2.14.254-.768.866-1.236 1.862-1.422.219-.041.687-.051 1.967-.042 1.536.011 1.711.019 2.04.096M10.151 8.18c.437.103.958.426 1.219.757l.11.139v3.158l-.105.124c-.194.231-.247.242-1.205.242-1.247 0-1.543-.093-2.11-.66-.487-.487-.659-.898-.66-1.583 0-.651.196-1.124.656-1.578.455-.451.924-.649 1.544-.655.165-.002.413.024.551.056" fill-rule="evenodd"/></svg>