<svg width="64" height="64" viewBox="0 0 64 64" fill="none" xmlns="http://www.w3.org/2000/svg">
<path fill-rule="evenodd" clip-rule="evenodd" d="M32.126 58.9292C45.618 57.4026 56.1021 45.9512 56.1021 32.051C56.1021 18.1509 45.618 6.69941 32.126 5.17283C33.1352 5.05864 34.1612 4.99998 35.2009 4.99998C50.1408 4.99998 62.252 17.1111 62.252 32.051C62.252 46.9909 50.1408 59.1021 35.2009 59.1021C34.1612 59.1021 33.1352 59.0434 32.126 58.9292Z" fill="#DCFF79"/>
<path d="M32.126 58.9292L31.9805 57.6431L31.9805 60.2153L32.126 58.9292ZM32.126 5.17283L31.9805 3.88673L31.9805 6.45893L32.126 5.17283ZM54.8078 32.051C54.8078 45.2852 44.8255 56.1897 31.9805 57.6431L32.2715 60.2153C46.4104 58.6155 57.3964 46.6171 57.3964 32.051H54.8078ZM31.9805 6.45893C44.8255 7.91231 54.8078 18.8168 54.8078 32.051H57.3964C57.3964 17.4849 46.4104 5.4865 32.2715 3.88673L31.9805 6.45893ZM32.2715 6.45893C33.2325 6.3502 34.2099 6.29429 35.2009 6.29429V3.70567C34.1125 3.70567 33.0379 3.76708 31.9805 3.88673L32.2715 6.45893ZM35.2009 6.29429C49.426 6.29429 60.9576 17.826 60.9576 32.051H63.5463C63.5463 16.3963 50.8556 3.70567 35.2009 3.70567V6.29429ZM60.9576 32.051C60.9576 46.2761 49.426 57.8077 35.2009 57.8077V60.3964C50.8556 60.3964 63.5463 47.7057 63.5463 32.051H60.9576ZM35.2009 57.8077C34.2099 57.8077 33.2325 57.7518 32.2715 57.6431L31.9805 60.2153C33.0379 60.3349 34.1125 60.3964 35.2009 60.3964V57.8077Z" fill="#034036" stroke="none"/>
<circle cx="29.051" cy="32.051" r="27.051" stroke="#034036" stroke-width="2.58861" fill="none"/>
<path d="M37.4738 22.0829L38.4009 22.9861L37.4738 22.0829L23.9824 35.9293L19.4495 31.0187C18.3889 29.8697 16.5976 29.798 15.4486 30.8587C14.2996 31.9193 14.228 33.7105 15.2886 34.8595L21.8464 41.9638C22.3734 42.5347 23.1118 42.864 23.8886 42.8745C24.6655 42.8849 25.4125 42.5757 25.9547 42.0193L41.5296 26.0346C42.6208 24.9146 42.5975 23.1221 41.4776 22.0309C40.3576 20.9396 38.5651 20.9629 37.4738 22.0829Z" fill="#DCFF79" stroke="#034036" stroke-width="2.58861" stroke-linecap="round" stroke-linejoin="round"/>
</svg>
