<svg viewBox="0 0 24 24" xmlns="http://www.w3.org/2000/svg" id="School-Test-Physical-Education--Streamline-Ultimate.svg" height="24" width="24"><desc>School Test Physical Education Streamline Icon: https://streamlinehq.com</desc><path d="M6.75 17.25h-2.3a3.682 3.682 0 0 1 -3.7 -3.667V3.98A3.183 3.183 0 0 1 3.512 0.766a3.046 3.046 0 0 1 1.676 5.769 8.712 8.712 0 0 1 0 6.437 6.794 6.794 0 0 1 10.668 -1.838" fill="none" stroke="#000000" stroke-linecap="round" stroke-linejoin="round" stroke-width="1.5"></path><path d="m20.25 18.375 0 3.958 -3 0.917 -3 -0.917 0 -3.958" fill="none" stroke="#000000" stroke-linecap="round" stroke-linejoin="round" stroke-width="1.5"></path><path d="m23.25 17.25 -6 -2.25 -6 2.25 6 2.25 6 -2.25z" fill="none" stroke="#000000" stroke-linecap="round" stroke-linejoin="round" stroke-width="1.5"></path><path d="m11.25 17.25 0 3" fill="none" stroke="#000000" stroke-linecap="round" stroke-linejoin="round" stroke-width="1.5"></path></svg>