<svg xmlns="http://www.w3.org/2000/svg" height="24" width="24" viewBox="0 0 24 24"><path d="M3.196.059a3.956 3.956 0 0 0-3.12 3.08C.005 3.48.001 3.786.001 8.72c-.001 4.501.008 5.268.06 5.569a4.449 4.449 0 0 0 3.656 3.647c.298.05.673.064 1.78.063 1.278-.001 1.417-.007 1.563-.075a.935.935 0 0 0 .255-.177c.095-.102.215-.464.186-.559a2.702 2.702 0 0 1-.038-.157c-.029-.134-.235-.374-.387-.453-.091-.047-.349-.058-1.364-.058-1.393-.001-1.826-.035-2.239-.18A2.956 2.956 0 0 1 1.6 14.304c-.078-.308-.08-.456-.08-5.542 0-5.8-.017-5.428.27-5.978.211-.403.657-.841 1.05-1.031a2.108 2.108 0 0 1 1.076-.24 2.268 2.268 0 0 1 2.128 1.574c.125.38.134 1.015.021 1.353A2.467 2.467 0 0 1 5 5.778c-.345.205-.398.254-.485.442-.105.23-.093.401.062.846a8.124 8.124 0 0 1 .402 3.682 7.986 7.986 0 0 1-.385 1.646c-.187.564-.191.746-.021 1.002.292.441.952.418 1.247-.044l.38-.6c.337-.535 1.057-1.267 1.598-1.628.949-.632 1.923-.969 2.994-1.037 1.645-.104 3.113.38 4.381 1.446.35.294.515.366.772.336.498-.056.804-.619.578-1.063-.084-.165-.418-.472-.883-.812-2.253-1.645-5.291-1.89-7.81-.629a9.08 9.08 0 0 0-.824.489l-.434.293-.025-.663c-.034-.886-.117-1.439-.335-2.232l-.102-.368.345-.326c.671-.635 1.073-1.444 1.188-2.389.062-.516.006-.991-.187-1.569a3.503 3.503 0 0 0-.646-1.202C6.362.835 5.54.307 4.82.119 4.396.009 3.614-.02 3.196.059M16.9 14.338c-.775.269-6.032 2.261-6.119 2.317a.757.757 0 0 0-.19.236c-.089.166-.091.197-.103 1.724-.013 1.688.006 1.9.183 2.111.203.242.583.338.86.219a.982.982 0 0 0 .427-.438c.025-.068.042-.51.042-1.13 0-.559.013-1.017.03-1.018.017 0 .35.119.74.265l.71.266v1.725c0 1.123.016 1.781.044 1.885a.77.77 0 0 0 .412.501c.09.04.855.283 1.699.54 1.165.355 1.571.463 1.682.448.259-.034 3.218-.954 3.347-1.039.068-.046.167-.146.22-.223l.096-.141.011-1.847.011-1.846 1.318-.493c1.036-.387 1.345-.519 1.445-.616a.709.709 0 0 0 .173-.814.631.631 0 0 0-.342-.372c-.254-.129-6.099-2.308-6.261-2.334-.111-.017-.235.004-.435.074m2.23 2.168a76.67 76.67 0 0 1 1.92.733c.03.025-3.704 1.443-3.799 1.442-.027-.001-.63-.219-1.34-.487a521.72 521.72 0 0 0-2.208-.824l-.317-.118.177-.067c.279-.106 3.656-1.379 3.667-1.382.005-.002.86.315 1.9.703m-3.063 3.354c.671.251 1.069.38 1.176.38.108 0 .51-.129 1.182-.38.561-.209 1.027-.38 1.037-.38.01 0 .018.519.018 1.153v1.153l-1.09.333c-.599.183-1.111.333-1.136.334-.025 0-.543-.151-1.15-.336L15 21.78v-1.15c0-.632.012-1.15.027-1.15s.483.171 1.04.38" fill-rule="evenodd"/></svg>