<svg viewBox="0 0 24 24" xmlns="http://www.w3.org/2000/svg" height="24" width="24">
  <path d="M6.082 19a9.75 9.75 0 1 1 11.836 0" fill="none" stroke="#000000" stroke-linecap="round" stroke-linejoin="round" stroke-width="1.5"></path>
  <path d="M4.5 14.25a3.75 2.25 0 1 0 7.5 0 3.75 2.25 0 1 0 -7.5 0Z" fill="none" stroke="#000000" stroke-linecap="round" stroke-linejoin="round" stroke-width="1.5"></path>
  <path d="M12 14.25a3.75 2.25 0 1 0 7.5 0 3.75 2.25 0 1 0 -7.5 0Z" fill="none" stroke="#000000" stroke-linecap="round" stroke-linejoin="round" stroke-width="1.5"></path>
  <path d="M6.146 12.387a6.752 6.752 0 0 1 11.708 0" fill="none" stroke="#000000" stroke-linecap="round" stroke-linejoin="round" stroke-width="1.5"></path>
  <path d="m18.748 15.6 0 0.15a6.75 6.75 0 0 1 -13.5 0l0 -0.15" fill="none" stroke="#000000" stroke-linecap="round" stroke-linejoin="round" stroke-width="1.5"></path>
  <path d="m12 18 0 1.5" fill="none" stroke="#000000" stroke-linecap="round" stroke-linejoin="round" stroke-width="1.5"></path>
</svg>
