<svg xmlns="http://www.w3.org/2000/svg" fill="none" viewBox="0 0 24 24" height="24" width="24">
  <path stroke="#000000" stroke-linecap="round" stroke-linejoin="round" d="M12 22.5c3.7279 0 6.75 -3.0221 6.75 -6.75S15.7279 9 12 9c-3.72792 0 -6.75 3.0221 -6.75 6.75S8.27208 22.5 12 22.5Z" stroke-width="1.5"></path>
  <path stroke="#000000" stroke-linecap="round" stroke-linejoin="round" d="M19.855 5.50488c1.5328 2.1052 2.1735 4.73002 1.783 7.30462 -0.3906 2.5747 -1.7808 4.8914 -3.869 6.4474" stroke-width="1.5"></path>
  <path stroke="#000000" stroke-linecap="round" stroke-linejoin="round" d="M6.75 6.75c2.07107 0 3.75 -1.00736 3.75 -2.25S8.82107 2.25 6.75 2.25C4.67893 2.25 3 3.25736 3 4.5s1.67893 2.25 3.75 2.25Z" stroke-width="1.5"></path>
  <path stroke="#000000" stroke-linecap="round" stroke-linejoin="round" d="M16.5 6.75c2.0711 0 3.75 -1.00736 3.75 -2.25s-1.6789 -2.25 -3.75 -2.25 -3.75 1.00736 -3.75 2.25 1.6789 2.25 3.75 2.25Z" stroke-width="1.5"></path>
  <path stroke="#000000" stroke-linecap="round" stroke-linejoin="round" d="M12.75 4.5H10.5" stroke-width="1.5"></path>
  <path stroke="#000000" stroke-linecap="round" stroke-linejoin="round" d="M6.23099 19.256c-2.0154 -1.5013 -3.38354 -3.7137 -3.82637 -6.1874 -0.44282 -2.4738 0.07291 -5.02341 1.44237 -7.13061" stroke-width="1.5"></path>
  <path stroke="#000000" stroke-linecap="round" stroke-linejoin="round" d="M7.97601 2.37302c1.23047 -0.56029 2.56439 -0.85744 3.91629 -0.87242 1.352 -0.01499 2.6921 0.25253 3.9347 0.78542" stroke-width="1.5"></path>
  <path stroke="#000000" stroke-linecap="round" stroke-linejoin="round" d="M12 16.5V18" stroke-width="1.5"></path>
  <path stroke="#000000" d="M9.375 14.25c-0.20711 0 -0.375 -0.1679 -0.375 -0.375s0.16789 -0.375 0.375 -0.375" stroke-width="1.5"></path>
  <path stroke="#000000" d="M9.375 14.25c0.20711 0 0.375 -0.1679 0.375 -0.375s-0.16789 -0.375 -0.375 -0.375" stroke-width="1.5"></path>
  <g>
    <path stroke="#000000" d="M14.625 14.25c-0.2071 0 -0.375 -0.1679 -0.375 -0.375s0.1679 -0.375 0.375 -0.375" stroke-width="1.5"></path>
    <path stroke="#000000" d="M14.625 14.25c0.2071 0 0.375 -0.1679 0.375 -0.375s-0.1679 -0.375 -0.375 -0.375" stroke-width="1.5"></path>
  </g>
</svg>
