<svg width="12" height="12" viewBox="0 0 12 12" fill="none" xmlns="http://www.w3.org/2000/svg">
<path d="M0 3C0 2.72386 0.223858 2.5 0.5 2.5H4.5C4.77614 2.5 5 2.72386 5 3C5 3.27614 4.77614 3.5 4.5 3.5H0.5C0.223858 3.5 0 3.27614 0 3Z"/>
<path d="M0 0.5C0 0.223858 0.223858 0 0.5 0H6C6.27614 0 6.5 0.223858 6.5 0.5C6.5 0.776142 6.27614 1 6 1H0.5C0.223858 1 0 0.776142 0 0.5Z"/>
<path d="M0 5.5C0 5.22386 0.223858 5 0.5 5H2.5C2.77614 5 3 5.22386 3 5.5C3 5.77614 2.77614 6 2.5 6H0.5C0.223858 6 0 5.77614 0 5.5Z"/>
<path d="M1.91022 8.33179C1.90988 8.22877 1.94771 8.12942 2.01615 8.05356C2.08459 7.9777 2.1786 7.93092 2.27942 7.92255L4.20897 7.7999L4.95639 5.97267C5.00023 5.86706 5.07582 5.77833 5.17229 5.71922C5.26876 5.6601 5.38115 5.63366 5.49331 5.64368C5.60602 5.65383 5.71253 5.70067 5.79707 5.77726C5.88161 5.85386 5.93968 5.95614 5.9627 6.06896L6.55027 8.90495L7.73331 3.42327C7.75859 3.30516 7.82222 3.19919 7.91392 3.12244C8.00562 3.04569 8.12004 3.00266 8.23872 3.00027C8.35797 2.99637 8.47494 3.03416 8.57016 3.10737C8.66539 3.18057 8.73314 3.28477 8.76213 3.40263L9.9114 7.81938L11.6338 7.93975C11.735 7.95024 11.8287 7.99889 11.8964 8.07613C11.9642 8.15337 12.0011 8.25362 12 8.35718C11.9989 8.46075 11.9598 8.56014 11.8903 8.63583C11.8209 8.71152 11.7262 8.75804 11.6248 8.76624L9.5073 8.89348C9.38987 8.89419 9.27553 8.85518 9.18223 8.78257C9.08892 8.70995 9.02193 8.60785 8.99176 8.49227L8.29837 5.82823L7.06018 11.5793C7.0331 11.6992 6.96675 11.8062 6.87203 11.8827C6.77732 11.9592 6.65988 12.0005 6.53902 12C6.41834 11.9996 6.30142 11.9572 6.20765 11.8799C6.11388 11.8025 6.0489 11.6948 6.02348 11.5747L5.27832 7.98789L5.05319 8.54271C5.01309 8.64096 4.94527 8.72489 4.8583 8.78386C4.77134 8.84283 4.66915 8.8742 4.56467 8.87399L2.28618 8.74217C2.18424 8.73465 2.08886 8.68819 2.01914 8.61209C1.94942 8.53598 1.91052 8.43587 1.91022 8.33179Z"/>
</svg>
