<svg width="24" height="24" viewBox="0 0 24 24" xmlns="http://www.w3.org/2000/svg">
<path fill-rule="evenodd" clip-rule="evenodd" d="M7.5 5C8.32843 5 9 4.32843 9 3.5C9 2.67157 8.32843 2 7.5 2C6.67157 2 6 2.67157 6 3.5C6 4.32843 6.67157 5 7.5 5ZM8.5 17.5C8.5 16.9477 8.05228 16.5 7.5 16.5C6.94772 16.5 6.5 16.9477 6.5 17.5V21C6.5 21.5523 6.94772 22 7.5 22C8.05228 22 8.5 21.5523 8.5 21V17.5ZM13 17.5C13 16.9477 12.5523 16.5 12 16.5C11.4477 16.5 11 16.9477 11 17.5V21C11 21.5523 11.4477 22 12 22C12.5523 22 13 21.5523 13 21V17.5ZM16.5 16.5C17.0523 16.5 17.5 16.9477 17.5 17.5V21C17.5 21.5523 17.0523 22 16.5 22C15.9477 22 15.5 21.5523 15.5 21V17.5C15.5 16.9477 15.9477 16.5 16.5 16.5ZM9 8.5C9 9.32843 8.32843 10 7.5 10C6.67157 10 6 9.32843 6 8.5C6 7.67157 6.67157 7 7.5 7C8.32843 7 9 7.67157 9 8.5ZM7.5 15C8.32843 15 9 14.3284 9 13.5C9 12.6716 8.32843 12 7.5 12C6.67157 12 6 12.6716 6 13.5C6 14.3284 6.67157 15 7.5 15ZM13.5 3.5C13.5 4.32843 12.8284 5 12 5C11.1716 5 10.5 4.32843 10.5 3.5C10.5 2.67157 11.1716 2 12 2C12.8284 2 13.5 2.67157 13.5 3.5ZM12 10C12.8284 10 13.5 9.32843 13.5 8.5C13.5 7.67157 12.8284 7 12 7C11.1716 7 10.5 7.67157 10.5 8.5C10.5 9.32843 11.1716 10 12 10ZM13.5 13.5C13.5 14.3284 12.8284 15 12 15C11.1716 15 10.5 14.3284 10.5 13.5C10.5 12.6716 11.1716 12 12 12C12.8284 12 13.5 12.6716 13.5 13.5ZM16.5 10C17.3284 10 18 9.32843 18 8.5C18 7.67157 17.3284 7 16.5 7C15.6716 7 15 7.67157 15 8.5C15 9.32843 15.6716 10 16.5 10ZM18 3.5C18 4.32843 17.3284 5 16.5 5C15.6716 5 15 4.32843 15 3.5C15 2.67157 15.6716 2 16.5 2C17.3284 2 18 2.67157 18 3.5ZM16.5 15C17.3284 15 18 14.3284 18 13.5C18 12.6716 17.3284 12 16.5 12C15.6716 12 15 12.6716 15 13.5C15 14.3284 15.6716 15 16.5 15Z" />
</svg>
