<svg width="24" height="24" viewBox="0 0 24 24" xmlns="http://www.w3.org/2000/svg">
<path fill-rule="evenodd" clip-rule="evenodd" d="M19 12C19 15.866 15.866 19 12 19C8.13401 19 5 15.866 5 12C5 9.96465 5.86867 8.13219 7.2555 6.85313C7.53332 7.41798 7.5861 8.07939 7.3805 8.69619L6.83156 10.343C6.61196 11.0018 6.5 11.6917 6.5 12.3861V12.5182C6.5 15.5509 8.97778 18 12 18C15.0222 18 17.5 15.5509 17.5 12.5182V12.3861C17.5 11.6917 17.388 11.0018 17.1684 10.343L16.6195 8.69619C16.4139 8.07939 16.4667 7.41798 16.7445 6.85314C18.1313 8.13219 19 9.96465 19 12ZM15.0859 5.71514C14.155 5.2572 13.1075 5 12 5C10.8925 5 9.84504 5.2572 8.91415 5.71514C9.53691 6.79677 9.68392 8.11046 9.27786 9.32864L8.72892 10.9755C8.5773 11.4303 8.5 11.9067 8.5 12.3861V12.5182C8.5 14.4358 10.0718 16 12 16C13.9282 16 15.5 14.4358 15.5 12.5182V12.3861C15.5 11.9067 15.4227 11.4303 15.2711 10.9755L14.7221 9.32864C14.3161 8.11046 14.4631 6.79677 15.0859 5.71514ZM21 12C21 16.9706 16.9706 21 12 21C7.02944 21 3 16.9706 3 12C3 7.02944 7.02944 3 12 3C16.9706 3 21 7.02944 21 12Z"/>
</svg>
