<svg width="12" height="12" viewBox="0 0 12 12" xmlns="http://www.w3.org/2000/svg">
<path fill-rule="evenodd" clip-rule="evenodd" d="M6 0.999817C3.25 0.999817 1 3.24982 1 5.99982C1 8.74982 3.25 10.9998 6 10.9998C8.75 10.9998 11 8.74982 11 5.99982C11 3.24982 8.75 0.999817 6 0.999817ZM6.25 3.87482C6.25 3.66771 6.08211 3.49982 5.875 3.49982C5.66789 3.49982 5.5 3.66771 5.5 3.87482V6.49982L7.77683 7.90094C7.95531 8.01078 8.18904 7.95513 8.29888 7.77664C8.40959 7.59674 8.35207 7.36106 8.17094 7.25238L6.25 6.09982V3.87482Z"/>
</svg>
