<svg width="24" height="24" viewBox="0 0 24 24"  xmlns="http://www.w3.org/2000/svg">
<path fill-rule="evenodd" clip-rule="evenodd" d="M8 4L11 4C11.5523 4 12 3.55229 12 3C12 2.44772 11.5523 2 11 2H5C4.44772 2 4 2.44772 4 3C4 3.55228 4.44772 4 5 4L6 4V5C3.79086 5 2 6.79086 2 9V20C2 21.1046 2.89543 22 4 22H7C7.55228 22 8 21.5523 8 21C8 20.4477 7.55228 20 7 20H4V11H10V12C10 12.5523 10.4477 13 11 13C11.5523 13 12 12.5523 12 12V9C12 6.79086 10.2091 5 8 5V4ZM10 9C10 7.89543 9.10457 7 8 7H6C4.89543 7 4 7.89543 4 9L10 9ZM19 4C18.4477 4 18 4.44772 18 5C18 5.55228 18.4477 6 19 6C19.5523 6 20 5.55228 20 5C20 4.44772 19.5523 4 19 4ZM15.5 6C14.6716 6 14 6.67157 14 7.5C14 8.32843 14.6716 9 15.5 9C16.3284 9 17 8.32843 17 7.5C17 6.67157 16.3284 6 15.5 6ZM11 20V16H20V20H11ZM9 15C9 14.4477 9.44772 14 10 14H21C21.5523 14 22 14.4477 22 15V21C22 21.5523 21.5523 22 21 22H10C9.44772 22 9 21.5523 9 21V15ZM18 9.5C18 8.67157 18.6716 8 19.5 8C20.3284 8 21 8.67157 21 9.5C21 10.3284 20.3284 11 19.5 11C18.6716 11 18 10.3284 18 9.5Z"/>
</svg>
