<svg width="12" height="12" viewBox="0 0 12 12"  xmlns="http://www.w3.org/2000/svg">
<path d="M8 1H4V1.5H8V1Z" />
<path d="M8 2H4V3.5H8V2Z" />
<path d="M8 11H4V10.5H8V11Z" />
<path d="M8 10H4V8.5H8V10Z" />
<path d="M2.54134 7.66665H3.45508V4.33527H2.64388L1.5 5.26723L1.96712 5.84145L2.34538 5.52928C2.42893 5.45484 2.49881 5.38344 2.55501 5.31508C2.5459 5.49282 2.54134 5.68878 2.54134 5.90297V7.66665Z" />
<path d="M4.68197 7.66665H7.09961V6.92381H5.83952V6.90102C6.20866 6.56986 6.44981 6.34503 6.56299 6.22654C6.67616 6.10805 6.76693 5.99526 6.83529 5.88816C6.90365 5.78107 6.95416 5.67207 6.98682 5.56118C7.01948 5.45028 7.03581 5.32952 7.03581 5.19887C7.03581 5.02418 6.9891 4.86657 6.89567 4.72605C6.80225 4.58554 6.67084 4.4773 6.50146 4.40135C6.33208 4.32539 6.13954 4.28741 5.92383 4.28741C5.75217 4.28741 5.5976 4.30488 5.46012 4.33982C5.32264 4.37476 5.19542 4.42527 5.07845 4.49135C4.96148 4.55743 4.81717 4.66719 4.64551 4.82062L5.13997 5.39939C5.27517 5.28242 5.39632 5.19394 5.50342 5.13393C5.61051 5.07393 5.71647 5.04392 5.82129 5.04392C5.92307 5.04392 6.00206 5.06899 6.05827 5.11912C6.11447 5.16925 6.14258 5.23761 6.14258 5.3242C6.14258 5.39408 6.12853 5.46092 6.10042 5.52472C6.07232 5.58852 6.02257 5.66486 5.95117 5.75372C5.87977 5.84259 5.72787 6.00855 5.49544 6.25161L4.68197 7.0742V7.66665Z" />
<path d="M10.0332 5.58966C10.1593 5.44155 10.2223 5.26419 10.2223 5.0576C10.2223 4.81758 10.1244 4.62921 9.9284 4.49249C9.73243 4.35577 9.46203 4.28741 9.1172 4.28741C8.8787 4.28741 8.66717 4.31324 8.48259 4.36489C8.29802 4.41654 8.11763 4.50313 7.94142 4.62465L8.31511 5.22622C8.54298 5.08342 8.76325 5.01202 8.97592 5.01202C9.08985 5.01202 9.18062 5.03329 9.24822 5.07583C9.31582 5.11836 9.34962 5.18368 9.34962 5.27179C9.34962 5.50573 9.121 5.6227 8.66375 5.6227H8.45411V6.29946H8.65919C8.82781 6.29946 8.96453 6.31199 9.06935 6.33706C9.17416 6.36212 9.25012 6.39934 9.29721 6.44871C9.3443 6.49808 9.36785 6.56834 9.36785 6.65948C9.36785 6.77798 9.32266 6.86494 9.23227 6.92039C9.14188 6.97584 8.99795 7.00356 8.80047 7.00356C8.67286 7.00356 8.53349 6.98571 8.38233 6.95001C8.23118 6.91431 8.08269 6.85925 7.93686 6.78481V7.53221C8.11459 7.60057 8.27979 7.64766 8.43246 7.67348C8.58513 7.69931 8.75109 7.71222 8.93035 7.71222C9.36633 7.71222 9.70699 7.62335 9.95232 7.44562C10.1977 7.26788 10.3203 7.02407 10.3203 6.71417C10.3203 6.25844 10.0423 5.99564 9.48634 5.92576V5.91209C9.72484 5.84525 9.90713 5.73777 10.0332 5.58966Z" />
</svg>
