<svg width="24" height="24" viewBox="0 0 24 24"  xmlns="http://www.w3.org/2000/svg">
<path fill-rule="evenodd" clip-rule="evenodd" d="M6 3C4.34315 3 3 4.34315 3 6C3 6.53465 3.13986 7.03664 3.38499 7.47137C2.55209 8.00444 2 8.93774 2 10C2 11.0666 2.5566 12.0032 3.39519 12.5351C2.53117 13.4338 2 14.6549 2 16C2 18.7614 4.23858 21 7 21H19C20.6569 21 22 19.6569 22 18C22 16.9377 21.4479 16.0044 20.615 15.4714C20.8601 15.0366 21 14.5347 21 14C21 13.1794 20.6705 12.4357 20.1366 11.894C21.273 10.9775 22 9.57365 22 8C22 5.23858 19.7614 3 17 3H6ZM17 11C18.6569 11 20 9.65685 20 8C20 6.34315 18.6569 5 17 5H6C5.44772 5 5 5.44772 5 6C5 6.55228 5.44772 7 6 7H17C17.5523 7 18 7.44772 18 8C18 8.55228 17.5523 9 17 9H5C4.44772 9 4 9.44772 4 10C4 10.5523 4.44772 11 5 11H7H17ZM7 13C5.34315 13 4 14.3431 4 16C4 17.6569 5.34315 19 7 19H19C19.5523 19 20 18.5523 20 18C20 17.4477 19.5523 17 19 17H7C6.44771 17 6 16.5523 6 16C6 15.4477 6.44771 15 7 15H18C18.5523 15 19 14.5523 19 14C19 13.4477 18.5523 13 18 13H17H7Z"/>
</svg>
