<svg width="12" height="12" viewBox="0 0 12 12"  xmlns="http://www.w3.org/2000/svg">
<path fill-rule="evenodd" clip-rule="evenodd" d="M8.07353 2.46471L8.22222 3H10C10.2761 3 10.5 3.22386 10.5 3.5C10.5 3.77614 10.2761 4 10 4H2C1.72386 4 1.5 3.77614 1.5 3.5C1.5 3.22386 1.72386 3 2 3H3.77778L3.92647 2.46471C4.16692 1.59907 4.95509 1 5.8535 1H6.1465C7.04491 1 7.83308 1.59907 8.07353 2.46471ZM4.81564 3H7.18436L7.11001 2.73235C6.98979 2.29954 6.5957 2 6.1465 2H5.8535C5.4043 2 5.01021 2.29954 4.88999 2.73236L4.81564 3Z" />
<path d="M3.5 5V9.5C3.5 9.77614 3.72386 10 4 10H8C8.27614 10 8.5 9.77614 8.5 9.5V5H9.5V9.5C9.5 10.3284 8.82843 11 8 11H4C3.17157 11 2.5 10.3284 2.5 9.5V5H3.5Z" />
<path d="M6.5 9V5H7.5V9H6.5Z" />
<path d="M4.5 5L4.5 9H5.5L5.5 5H4.5Z" />
</svg>
