<svg width="12" height="12" viewBox="0 0 12 12"  xmlns="http://www.w3.org/2000/svg">
<path fill-rule="evenodd" clip-rule="evenodd" d="M11.8536 2.64645C12.0488 2.84171 12.0488 3.15829 11.8536 3.35355L7.10355 8.10355C6.90829 8.29882 6.59171 8.29882 6.39645 8.10355L4.25 5.95711L0.853553 9.35355C0.658291 9.54882 0.341709 9.54882 0.146447 9.35355C-0.0488155 9.15829 -0.0488155 8.84171 0.146447 8.64645L3.89645 4.89645C4.09171 4.70118 4.40829 4.70118 4.60355 4.89645L6.75 7.04289L11.1464 2.64645C11.3417 2.45118 11.6583 2.45118 11.8536 2.64645Z" />
<path fill-rule="evenodd" clip-rule="evenodd" d="M8 3C8 2.72386 8.22386 2.5 8.5 2.5H11.5C11.7761 2.5 12 2.72386 12 3V6C12 6.27614 11.7761 6.5 11.5 6.5C11.2239 6.5 11 6.27614 11 6V3.5H8.5C8.22386 3.5 8 3.27614 8 3Z" />
</svg>
