<svg width="12" height="10" viewBox="0 0 12 10" xmlns="http://www.w3.org/2000/svg">
  <path d="M6.00006 6.34617C6.30329 6.34617 6.54336 6.10577 6.54336 5.82932V3.64172C6.54336 3.35325 6.29066 3.12488 6.00006 3.12488C5.69682 3.12488 5.45675 3.36527 5.45675 3.64172V5.8173C5.45675 6.10577 5.69682 6.34617 6.00006 6.34617Z" />
  <path d="M6.66963 7.45186C6.66963 7.80366 6.36982 8.08886 5.99999 8.08886C5.63016 8.08886 5.33036 7.80366 5.33036 7.45186C5.33036 7.10005 5.63016 6.81486 5.99999 6.81486C6.36982 6.81486 6.66963 7.10005 6.66963 7.45186Z" />
  <path fill-rule="evenodd" clip-rule="evenodd" d="M7.23821 0.673077L11.7994 7.93269C12.0647 8.35337 12.0647 8.87019 11.812 9.30288C11.5467 9.73558 11.0792 10 10.5612 10H1.43882C0.908158 10 0.440669 9.73558 0.187972 9.30288C-0.0647247 8.87019 -0.0647247 8.35337 0.200607 7.93269L4.76179 0.661058C5.02712 0.252404 5.49461 0 6 0C6.50539 0 6.97288 0.252404 7.23821 0.673077ZM10.5609 9.03845C10.7884 9.03845 10.9021 8.89423 10.94 8.83413C10.9779 8.77403 11.0411 8.60577 10.9274 8.42548L6.36616 1.15396C6.25245 0.97367 6.07556 0.949632 5.99975 0.949632C5.92394 0.949632 5.74705 0.97367 5.63334 1.15396L1.0595 8.42548C0.945786 8.60577 1.0216 8.77403 1.0595 8.83413C1.09741 8.89423 1.21112 9.03845 1.43855 9.03845H10.5609Z" />
</svg>
