<svg width="12" height="12" viewBox="0 0 12 12"  xmlns="http://www.w3.org/2000/svg">
<path d="M4.33046 9.5C7.72681 9.5 9.58412 6.80715 9.58412 4.47213C9.58412 4.39561 9.5825 4.31944 9.57887 4.24368C9.93937 3.99428 10.2528 3.68307 10.5 3.32872C10.1692 3.46936 9.81308 3.56417 9.43962 3.60693C9.82082 3.38819 10.1135 3.04201 10.2516 2.6294C9.8947 2.83181 9.4997 2.97906 9.07912 3.0583C8.74216 2.71485 8.26228 2.5 7.73128 2.5C6.71147 2.5 5.88451 3.29141 5.88451 4.267C5.88451 4.40571 5.90075 4.54052 5.93243 4.66992C4.39786 4.59609 3.03702 3.89288 2.12644 2.82365C1.96771 3.08473 1.87634 3.38819 1.87634 3.71183C1.87634 4.32492 2.20236 4.86613 2.69804 5.18275C2.39518 5.17383 2.1106 5.09417 1.86173 4.96167C1.86133 4.96904 1.86133 4.97645 1.86133 4.9842C1.86133 5.84014 2.49788 6.55462 3.34273 6.71665C3.18764 6.75703 3.02446 6.77883 2.85598 6.77883C2.737 6.77883 2.62129 6.76753 2.50886 6.74693C2.74391 7.44901 3.42553 7.9599 4.23384 7.9743C3.60172 8.4483 2.80561 8.73074 1.9405 8.73074C1.79149 8.73074 1.64454 8.72258 1.5 8.70625C2.31724 9.20746 3.28751 9.5 4.33046 9.5Z" />
</svg>
