<svg width="12" height="12" viewBox="0 0 12 12"  xmlns="http://www.w3.org/2000/svg">
<path d="M7.49502 3.94777L7.24207 3.50586C6.89829 2.90524 6.24788 2.5 5.5 2.5C4.38881 2.5 3.5 3.39264 3.5 4.47903C3.5 4.52248 3.5014 4.56546 3.50414 4.60795L3.55035 5.32451L2.88616 5.59732C2.38314 5.80394 2 6.33011 2 6.97466C2 7.82589 2.6543 8.44932 3.38081 8.44932C3.48275 8.44932 3.65806 8.4573 3.83086 8.46516L3.86031 8.4665C4.05638 8.4754 4.28059 8.48553 4.5 8.4923V9.49275C4.25977 9.48567 4.0169 9.47464 3.81495 9.46547C3.61762 9.45651 3.45935 9.44932 3.38081 9.44932C2.06592 9.44932 1 8.34138 1 6.97466C1 5.92891 1.62406 5.03465 2.50621 4.67231C2.50209 4.60841 2.5 4.54396 2.5 4.47903C2.5 2.83376 3.84315 1.5 5.5 1.5C6.61854 1.5 7.5941 2.10787 8.10995 3.00909C9.73549 3.18694 11 4.55523 11 6.2168C11 7.99917 9.54493 9.44408 7.75 9.44408H7.5V8.44408H7.75C8.99927 8.44408 10 7.44029 10 6.2168C10 5.07658 9.13074 4.12674 8.00119 4.00315L7.49502 3.94777Z" />
<path d="M4.14645 7.35356C3.95118 7.1583 3.95118 6.84172 4.14645 6.64646L5.64646 5.14645C5.74022 5.05268 5.8674 5 6.00001 5C6.13262 5 6.2598 5.05268 6.35356 5.14645L7.85356 6.64646C8.04882 6.84172 8.04881 7.1583 7.85355 7.35356C7.65829 7.54882 7.34171 7.54882 7.14644 7.35356L6.5 6.70711V10.5C6.5 10.7762 6.27614 11 6 11C5.72386 11 5.5 10.7762 5.5 10.5V6.70712L4.85355 7.35356C4.65829 7.54883 4.34171 7.54883 4.14645 7.35356Z" />
</svg>
