<svg width="12" height="12" viewBox="0 0 12 12"  xmlns="http://www.w3.org/2000/svg">
<path fill-rule="evenodd" clip-rule="evenodd" d="M6 1C4.61929 1 3.5 2.11929 3.5 3.5C3.5 4.88071 4.61929 6 6 6C7.38071 6 8.5 4.88071 8.5 3.5C8.5 2.11929 7.38071 1 6 1ZM4.5 3.5C4.5 2.67157 5.17157 2 6 2C6.82843 2 7.5 2.67157 7.5 3.5C7.5 4.32843 6.82843 5 6 5C5.17157 5 4.5 4.32843 4.5 3.5Z" />
<path d="M4 7C3.33696 7 2.70107 7.26339 2.23223 7.73223C1.76339 8.20107 1.5 8.83696 1.5 9.5V10C1.5 10.2761 1.72386 10.5 2 10.5C2.27614 10.5 2.5 10.2761 2.5 10V9.5C2.5 9.10217 2.65804 8.72064 2.93934 8.43934C3.22064 8.15804 3.60218 8 4 8H6C6.27614 8 6.5 7.77614 6.5 7.5C6.5 7.22386 6.27614 7 6 7H4Z" />
<path d="M9.5 7.5C9.5 7.22386 9.27614 7 9 7C8.72386 7 8.5 7.22386 8.5 7.5V8.5H7.5C7.22386 8.5 7 8.72386 7 9C7 9.27614 7.22386 9.5 7.5 9.5H8.5V10.5C8.5 10.7761 8.72386 11 9 11C9.27614 11 9.5 10.7761 9.5 10.5V9.5H10.5C10.7761 9.5 11 9.27614 11 9C11 8.72386 10.7761 8.5 10.5 8.5H9.5V7.5Z" />
</svg>
