<svg width="22" height="23" viewBox="0 0 22 23" fill="none" xmlns="http://www.w3.org/2000/svg">
    <path fill-rule="evenodd" clip-rule="evenodd" d="M21.6791 2.06303C21.9876 2.08931 22.1126 2.46904 21.8787 2.66958L20.5938 3.7713L20.9779 5.40779C21.0479 5.70598 20.7205 5.94066 20.4553 5.78249L18.9989 4.91408L17.5438 5.78169C17.2784 5.93998 16.9509 5.70485 17.0213 5.40654L17.4075 3.7713L16.1215 2.67073C15.8871 2.47015 16.0124 2.08983 16.3214 2.06393L18.0139 1.92208L18.6764 0.377844C18.7971 0.0963774 19.2009 0.0962694 19.3218 0.377671L19.9839 1.91861L21.6791 2.06303ZM4 8.50002C4 5.73859 6.23858 3.50002 9 3.50002C11.7614 3.50002 14 5.73859 14 8.50002C14 11.2614 11.7614 13.5 9 13.5C6.23858 13.5 4 11.2614 4 8.50002ZM1.46447 16.9645C2.40215 16.0268 3.67392 15.5 5 15.5H13C14.3261 15.5 15.5979 16.0268 16.5355 16.9645C17.4732 17.9022 18 19.1739 18 20.5V21.5C18 22.0523 17.5523 22.5 17 22.5H1C0.447715 22.5 0 22.0523 0 21.5V20.5C0 19.1739 0.526784 17.9022 1.46447 16.9645Z" fill="black"/>
</svg>
