<svg width="12" height="12" viewBox="0 0 12 12"  xmlns="http://www.w3.org/2000/svg">
<path fill-rule="evenodd" clip-rule="evenodd" d="M11.7288 3.05542C11.8953 3.14112 12 3.31271 12 3.5V8.5C12 8.68729 11.8953 8.85888 11.7288 8.94458C11.5623 9.03029 11.3618 9.01573 11.2094 8.90687L7.70938 6.40687C7.57798 6.31301 7.5 6.16148 7.5 6C7.5 5.83852 7.57798 5.68699 7.70938 5.59313L11.2094 3.09313C11.3618 2.98427 11.5623 2.96971 11.7288 3.05542ZM8.86023 6L11 7.52841V4.47159L8.86023 6Z" />
<path fill-rule="evenodd" clip-rule="evenodd" d="M1.5 3C1.22386 3 1 3.22386 1 3.5V8.5C1 8.77614 1.22386 9 1.5 9H7C7.27614 9 7.5 8.77614 7.5 8.5V3.5C7.5 3.22386 7.27614 3 7 3H1.5ZM0 3.5C0 2.67157 0.671573 2 1.5 2H7C7.82843 2 8.5 2.67157 8.5 3.5V8.5C8.5 9.32843 7.82843 10 7 10H1.5C0.671573 10 0 9.32843 0 8.5V3.5Z" />
</svg>
