<svg width="24" height="24" viewBox="0 0 24 24" xmlns="http://www.w3.org/2000/svg">
<path d="M3.00006 7C3.55235 7 4.00006 7.44772 4.00006 8C4.00006 8.17231 4.11896 8.64251 4.51518 9.33589C4.88932 9.99064 5.44985 10.737 6.17214 11.4393C7.62302 12.8498 9.63624 14 12.0001 14C14.3639 14 16.3771 12.8498 17.828 11.4393C18.5503 10.737 19.1108 9.99064 19.4849 9.33589C19.8812 8.64251 20.0001 8.17231 20.0001 8C20.0001 7.44772 20.4478 7 21.0001 7C21.5523 7 22.0001 7.44772 22.0001 8C22.0001 8.70269 21.669 9.54499 21.2214 10.3282C21.0106 10.6971 20.758 11.0806 20.4665 11.4663L21.7072 12.707C22.0977 13.0975 22.0977 13.7307 21.7072 14.1212C21.3167 14.5118 20.6835 14.5118 20.293 14.1212L19.1319 12.9601C18.2852 13.7669 17.2502 14.5256 16.0549 15.0832L16.812 16.3944C17.0881 16.8727 16.9243 17.4843 16.446 17.7605C15.9677 18.0366 15.3561 17.8728 15.0799 17.3945L14.1321 15.7528C13.4568 15.9112 12.745 16 12.0001 16C11.1646 16 10.3708 15.8883 9.62348 15.692L8.92001 17.3435C8.70358 17.8516 8.11622 18.0881 7.60811 17.8717C7.1 17.6552 6.86355 17.0679 7.07999 16.5598L7.749 14.9891C6.63638 14.4417 5.66824 13.7224 4.86825 12.9601L3.70712 14.1213C3.3166 14.5118 2.68344 14.5119 2.29291 14.1213C1.90238 13.7308 1.90236 13.0977 2.29288 12.7071L3.53366 11.4663C3.24212 11.0806 2.98951 10.6971 2.7787 10.3282C2.33116 9.54499 2.00006 8.70269 2.00006 8C2.00006 7.44772 2.44778 7 3.00006 7Z" />
</svg>
