<svg width="12" height="12" viewBox="0 0 12 12" fill="none" xmlns="http://www.w3.org/2000/svg">
<path d="M1.50003 3.5C1.77617 3.5 2.00003 3.72386 2.00003 4C2.00003 4.08615 2.05948 4.32126 2.25759 4.66795C2.44466 4.99532 2.72493 5.36851 3.08607 5.71963C3.81151 6.42491 4.81812 7 6.00003 7C7.18194 7 8.18855 6.42491 8.91399 5.71963C9.27514 5.36851 9.5554 4.99532 9.74247 4.66795C9.94058 4.32125 10 4.08615 10 4C10 3.72386 10.2239 3.5 10.5 3.5C10.7762 3.5 11 3.72386 11 4C11 4.35135 10.8345 4.77249 10.6107 5.16409C10.5053 5.34855 10.379 5.54032 10.2332 5.73316L10.8536 6.3535C11.0489 6.54876 11.0489 6.86534 10.8536 7.06061C10.6583 7.25588 10.3418 7.25588 10.1465 7.06062L9.56593 6.48007C9.1426 6.88344 8.62509 7.26278 8.02744 7.54159L8.40599 8.19722C8.54406 8.43636 8.46213 8.74216 8.22299 8.88023C7.98384 9.01831 7.67805 8.93638 7.53997 8.69723L7.06605 7.87641C6.72842 7.95561 6.37249 8 6.00003 8C5.58231 8 5.18538 7.94417 4.81174 7.84602L4.46001 8.67177C4.35179 8.92582 4.05811 9.04405 3.80406 8.93583C3.55 8.82762 3.43178 8.53394 3.53999 8.27988L3.8745 7.49457C3.31819 7.22087 2.83412 6.86119 2.43413 6.48006L1.85356 7.06065C1.6583 7.25592 1.34172 7.25593 1.14645 7.06067C0.951188 6.86541 0.951181 6.54883 1.14644 6.35356L1.76683 5.73315C1.62106 5.54031 1.49476 5.34855 1.38935 5.16409C1.16558 4.77249 1.00003 4.35135 1.00003 4C1.00003 3.72386 1.22389 3.5 1.50003 3.5Z" fill="#9898A6"/>
</svg>
