<svg width="24" height="24" viewBox="0 0 24 24" xmlns="http://www.w3.org/2000/svg">
<path fill-rule="evenodd" clip-rule="evenodd" d="M12 15C13.6569 15 15 13.6569 15 12C15 10.3431 13.6569 9 12 9C10.3431 9 9 10.3431 9 12C9 13.6569 10.3431 15 12 15Z" />
<path fill-rule="evenodd" clip-rule="evenodd" d="M22 12C22 12.121 21.9854 12.2566 21.9565 12.4046L21.9543 12.4158L21.9529 12.4229C21.9223 12.5752 21.8768 12.7404 21.8171 12.9161C21.7637 13.0725 21.6926 13.2567 21.5974 13.4676C21.5327 13.6109 21.4569 13.7665 21.368 13.9341C21.3403 13.9861 21.3115 14.0394 21.2813 14.0937C20.8125 14.9375 20.125 15.875 19.25 16.75C17.4984 18.5016 14.9983 20 12 20C9.00171 20 6.50162 18.5016 4.75 16.75C3.875 15.875 3.1875 14.9375 2.71875 14.0938L2.71045 14.0788C2.59568 13.8713 2.49419 13.6696 2.40643 13.476C2.31767 13.2801 2.24296 13.0925 2.18279 12.9156C2.12311 12.7401 2.07773 12.5752 2.04711 12.423L2.04568 12.4159L2.04347 12.4047C2.01464 12.2566 2 12.121 2 12C2 11.879 2.01464 11.7434 2.04347 11.5953L2.04568 11.5841L2.04711 11.577C2.07772 11.4249 2.1231 11.2599 2.18276 11.0845C2.24294 10.9075 2.31766 10.7199 2.40643 10.524C2.49419 10.3304 2.59568 10.1287 2.71045 9.92122L2.71875 9.90625C3.1875 9.0625 3.875 8.125 4.75 7.25C6.49905 5.50095 8.99439 4.00439 11.9868 4.00001L12 4C12.0663 4 12.1323 4.00073 12.1982 4.00218C12.8764 4.01715 13.5284 4.10849 14.1514 4.26149C16.2016 4.76502 17.9363 5.93628 19.25 7.25C20.125 8.125 20.8125 9.06251 21.2813 9.90625C21.4011 10.122 21.5066 10.3316 21.5974 10.5324C21.6844 10.7252 21.7578 10.9098 21.8171 11.0842C21.8769 11.2598 21.9223 11.4249 21.9529 11.5771L21.9543 11.5842L21.9565 11.5954C21.9854 11.7434 22 11.879 22 12ZM19.5329 10.8775C19.9094 11.5551 19.9866 11.9355 19.9982 11.9929L19.9997 12L19.9982 12.0071C19.9866 12.0645 19.9094 12.4449 19.5329 13.1225C19.1563 13.8005 18.5821 14.5895 17.8358 15.3358C16.3281 16.8435 14.3075 18 12 18C9.69255 18 7.67189 16.8435 6.16421 15.3358C5.41791 14.5895 4.84373 13.8005 4.46706 13.1225C4.09063 12.4449 4.01342 12.0645 4.00177 12.0071L4.00025 12L4.00177 11.9929C4.01342 11.9355 4.09063 11.5551 4.46706 10.8775C4.84373 10.1995 5.41791 9.41051 6.16421 8.66421C7.67189 7.15654 9.69255 6 12 6C14.3075 6 16.3281 7.15654 17.8358 8.66421C18.5821 9.41051 19.1563 10.1995 19.5329 10.8775Z" />
</svg>
