<svg width="12" height="12" viewBox="0 0 12 12"  xmlns="http://www.w3.org/2000/svg">
<path fill-rule="evenodd" clip-rule="evenodd" d="M6 7.5C6.82843 7.5 7.5 6.82843 7.5 6C7.5 5.17157 6.82843 4.5 6 4.5C5.17157 4.5 4.5 5.17157 4.5 6C4.5 6.82843 5.17157 7.5 6 7.5Z" />
<path fill-rule="evenodd" clip-rule="evenodd" d="M11 6C11 6.06049 10.9927 6.1283 10.9783 6.20232L10.9772 6.20788L10.9765 6.21146C10.9611 6.2876 10.9384 6.37019 10.9085 6.45803C10.8818 6.53627 10.8463 6.62836 10.7987 6.73379C10.7663 6.80544 10.7284 6.88324 10.684 6.96704C10.6702 6.99307 10.6557 7.01969 10.6406 7.04687C10.4063 7.46875 10.0625 7.9375 9.625 8.375C8.74919 9.25081 7.49915 10 6 10C4.50085 10 3.25081 9.25081 2.375 8.375C1.9375 7.9375 1.59375 7.46875 1.35938 7.04688L1.35523 7.03939C1.29784 6.93566 1.24709 6.83481 1.20321 6.73799C1.15883 6.64006 1.12148 6.54626 1.09139 6.4578C1.06156 6.37007 1.03886 6.28758 1.02356 6.21152L1.02284 6.20794L1.02174 6.20234C1.00732 6.12831 1 6.0605 1 6C1 5.9395 1.00732 5.87169 1.02174 5.79766L1.02284 5.79206L1.02356 5.78848C1.03886 5.71243 1.06155 5.62996 1.09138 5.54224C1.12147 5.45377 1.15883 5.35996 1.20321 5.26201C1.24709 5.16519 1.29784 5.06434 1.35523 4.96061L1.35938 4.95312C1.59375 4.53125 1.9375 4.0625 2.375 3.625C3.24953 2.75047 4.49719 2.0022 5.99341 2L6 2C6.03315 2 6.06617 2.00037 6.09908 2.00109C6.43819 2.00857 6.76422 2.05425 7.0757 2.13075C8.10078 2.38251 8.96814 2.96814 9.625 3.625C10.0625 4.0625 10.4063 4.53125 10.6406 4.95313C10.7005 5.06098 10.7533 5.16578 10.7987 5.26621C10.8422 5.36258 10.8789 5.45492 10.9086 5.54209C10.9384 5.62989 10.9611 5.71243 10.9765 5.78854L10.9772 5.79212L10.9783 5.79768C10.9927 5.8717 11 5.93951 11 6ZM9.76647 5.43877C9.95468 5.77756 9.99329 5.96774 9.99911 5.99643L9.99987 6L9.99911 6.00357C9.99329 6.03226 9.95468 6.22244 9.76647 6.56123C9.57814 6.90023 9.29104 7.29474 8.91789 7.66789C8.16406 8.42173 7.15373 9 6 9C4.84627 9 3.83594 8.42173 3.08211 7.66789C2.70896 7.29474 2.42186 6.90023 2.23353 6.56123C2.04532 6.22244 2.00671 6.03226 2.00089 6.00357L2.00013 6L2.00089 5.99643C2.00671 5.96774 2.04532 5.77756 2.23353 5.43877C2.42186 5.09977 2.70896 4.70526 3.08211 4.33211C3.83594 3.57827 4.84627 3 6 3C7.15373 3 8.16406 3.57827 8.91789 4.33211C9.29104 4.70526 9.57814 5.09977 9.76647 5.43877Z" />
</svg>
