<svg width="12" height="10" viewBox="0 0 12 10" xmlns="http://www.w3.org/2000/svg">
  <path fill-rule="evenodd" clip-rule="evenodd" d="M6 6.875C6.99411 6.875 7.8 6.03553 7.8 5C7.8 3.96447 6.99411 3.125 6 3.125C5.00589 3.125 4.2 3.96447 4.2 5C4.2 6.03553 5.00589 6.875 6 6.875Z" />
  <path fill-rule="evenodd" clip-rule="evenodd" d="M12 5C12 5.07561 11.9912 5.16038 11.9739 5.2529L11.9726 5.25984L11.9717 5.26432C11.9534 5.35951 11.9261 5.46273 11.8902 5.57253C11.8582 5.67034 11.8155 5.78545 11.7584 5.91724C11.7196 6.0068 11.6741 6.10405 11.6208 6.2088C11.6042 6.24134 11.5869 6.27461 11.5688 6.30859C11.2875 6.83593 10.875 7.42187 10.35 7.96875C9.29903 9.06351 7.79898 10 6 10C4.20103 10 2.70097 9.06351 1.65 7.96875C1.125 7.42187 0.712498 6.83593 0.43125 6.30859L0.42627 6.29924C0.357411 6.16958 0.296513 6.04351 0.243857 5.92248C0.190602 5.80008 0.145777 5.68283 0.109672 5.57225C0.0738668 5.46259 0.0466373 5.35948 0.0282663 5.2644L0.0274064 5.25992L0.026084 5.25292C0.00878322 5.16039 0 5.07562 0 5C0 4.92438 0.00878326 4.83961 0.0260841 4.74708L0.0274064 4.74008L0.0282663 4.7356C0.0466341 4.64054 0.0738575 4.53745 0.109654 4.42781C0.145762 4.31721 0.190593 4.19994 0.243858 4.07752C0.296513 3.95649 0.357411 3.83042 0.42627 3.70076L0.43125 3.69141C0.712498 3.16407 1.125 2.57813 1.65 2.03125C2.69943 0.938091 4.19663 0.00274395 5.9921 6.02601e-06L6 0C6.03978 0 6.07941 0.000457843 6.11889 0.00136512C6.52583 0.010716 6.91707 0.0678083 7.29084 0.163432C8.52093 0.478136 9.56177 1.21018 10.35 2.03125C10.875 2.57813 11.2875 3.16407 11.5688 3.69141C11.6407 3.82623 11.704 3.95722 11.7584 4.08276C11.8107 4.20322 11.8547 4.31865 11.8903 4.42761C11.9261 4.53736 11.9534 4.64054 11.9717 4.73568L11.9726 4.74016L11.9739 4.7471C11.9912 4.83963 12 4.92439 12 5ZM10.5198 4.29846C10.7456 4.72194 10.7919 4.95968 10.7989 4.99553L10.7998 5L10.7989 5.00447C10.7919 5.04032 10.7456 5.27806 10.5198 5.70154C10.2938 6.12529 9.94925 6.61843 9.50147 7.08487C8.59687 8.02716 7.38447 8.75 6 8.75C4.61553 8.75 3.40313 8.02716 2.49853 7.08487C2.05075 6.61843 1.70624 6.12529 1.48024 5.70154C1.25438 5.27805 1.20805 5.04032 1.20106 5.00447L1.20015 5L1.20106 4.99553C1.20805 4.95968 1.25438 4.72194 1.48024 4.29846C1.70624 3.87471 2.05075 3.38157 2.49853 2.91513C3.40313 1.97284 4.61553 1.25 6 1.25C7.38447 1.25 8.59687 1.97284 9.50147 2.91513C9.94925 3.38157 10.2938 3.87471 10.5198 4.29846Z" />
</svg>
