<svg width="12" height="12" viewBox="0 0 12 12"  xmlns="http://www.w3.org/2000/svg">
<path d="M8 6.75C8.41421 6.75 8.75 6.41421 8.75 6C8.75 5.58579 8.41421 5.25 8 5.25C7.58579 5.25 7.25 5.58579 7.25 6C7.25 6.41421 7.58579 6.75 8 6.75Z" />
<path fill-rule="evenodd" clip-rule="evenodd" d="M10.5 2.5C10.5 1.95 10.05 1.5 9.5 1.5H2.5C1.945 1.5 1.5 1.95 1.5 2.5V9.5C1.5 10.05 1.945 10.5 2.5 10.5H9.5C10.05 10.5 10.5 10.05 10.5 9.5V8.5C10.7761 8.5 11 8.27614 11 8V4C11 3.72386 10.7761 3.5 10.5 3.5V2.5ZM9.5 3.5V2.5H2.5V9.5H9.5V8.5H8C6.61929 8.5 5.5 7.38071 5.5 6C5.5 4.61929 6.61929 3.5 8 3.5H9.5ZM10 4.5H8C7.17157 4.5 6.5 5.17157 6.5 6C6.5 6.82843 7.17157 7.5 8 7.5H10V4.5Z" />
</svg>
