<svg viewBox="0 0 24 24" xmlns="http://www.w3.org/2000/svg" id="Water-Bottle-1--Streamline-Ultimate" height="24" width="24"><desc>Water Bottle 1 Streamline Icon: https://streamlinehq.com</desc><path d="M14.441 4.97a1.5 1.5 0 0 1 -0.191 -0.732V1.5a0.75 0.75 0 0 0 -0.75 -0.75h-3a0.75 0.75 0 0 0 -0.75 0.75v2.738a1.5 1.5 0 0 1 -0.191 0.732L7.95 7.847A7.785 7.785 0 0 0 6.75 12h0v9.333a1.481 1.481 0 0 0 1.132 1.455 18.584 18.584 0 0 0 8.236 0 1.481 1.481 0 0 0 1.132 -1.455V12h0a7.785 7.785 0 0 0 -1.2 -4.153Z" fill="none" stroke="#000000" stroke-linecap="round" stroke-linejoin="round" stroke-width="1.5"></path><path d="m9.75 3.75 4.5 0" fill="none" stroke="#000000" stroke-linecap="round" stroke-linejoin="round" stroke-width="1.5"></path></svg>