<svg width="12" height="12" viewBox="0 0 12 12"  xmlns="http://www.w3.org/2000/svg">
<path style=" stroke:none;fill-rule:nonzero;fill:rgb(100%,100%,100%);fill-opacity:1;" d="M 5.394531 10.175781 C 5.804688 10.175781 6.21875 10.195312 6.628906 10.167969 C 7.003906 10.148438 7.398438 10.113281 7.765625 10.023438 C 10.675781 9.308594 12.234375 6.09375 10.960938 3.375 C 10.191406 1.734375 8.871094 0.800781 7.070312 0.609375 C 5.6875 0.460938 4.449219 0.875 3.40625 1.808594 C 2.378906 2.730469 1.847656 3.886719 1.8125 5.269531 C 1.804688 5.589844 1.8125 5.917969 1.8125 6.238281 C 1.804688 6.9375 1.410156 7.476562 0.742188 7.6875 C 0.730469 7.6875 0.714844 7.703125 0.703125 7.703125 C 0.960938 8.382812 2.003906 9.378906 2.652344 9.628906 C 3.46875 8.511719 5.117188 8.90625 5.394531 10.175781 Z M 5.394531 10.175781 "/>
<path style=" stroke:none;fill-rule:nonzero;fill:rgb(0%,0%,0%);fill-opacity:1;" d="M 5.375 10.789062 C 5.273438 11.25 5.027344 11.585938 4.625 11.796875 C 4.109375 12.0625 3.589844 12.054688 3.101562 11.742188 C 2.597656 11.421875 2.378906 10.9375 2.417969 10.339844 C 2.425781 10.242188 2.398438 10.203125 2.316406 10.15625 C 1.425781 9.691406 0.722656 9.039062 0.238281 8.160156 C 0.144531 7.988281 0.0742188 7.804688 0.0273438 7.613281 C -0.0390625 7.347656 0.0625 7.21875 0.339844 7.191406 C 0.667969 7.152344 0.960938 7.027344 1.109375 6.714844 C 1.171875 6.578125 1.207031 6.414062 1.207031 6.257812 C 1.226562 5.863281 1.207031 5.46875 1.226562 5.074219 C 1.328125 3.554688 1.960938 2.292969 3.113281 1.300781 C 4.175781 0.386719 5.421875 -0.0429688 6.820312 0.00390625 C 9.265625 0.09375 11.363281 1.816406 11.855469 4.226562 C 12.304688 6.40625 11.628906 8.226562 9.898438 9.644531 C 9.796875 9.726562 9.6875 9.8125 9.566406 9.882812 C 9.503906 9.929688 9.484375 9.964844 9.511719 10.039062 C 9.742188 10.734375 9.421875 11.503906 8.78125 11.835938 C 7.910156 12.265625 6.902344 11.824219 6.636719 10.890625 C 6.628906 10.855469 6.582031 10.808594 6.554688 10.808594 C 6.171875 10.78125 5.777344 10.789062 5.375 10.789062 Z M 5.394531 10.175781 C 5.804688 10.175781 6.21875 10.195312 6.628906 10.167969 C 7.003906 10.148438 7.398438 10.113281 7.765625 10.023438 C 10.675781 9.308594 12.234375 6.09375 10.960938 3.375 C 10.191406 1.734375 8.871094 0.800781 7.070312 0.609375 C 5.6875 0.460938 4.449219 0.875 3.40625 1.808594 C 2.378906 2.730469 1.847656 3.886719 1.8125 5.269531 C 1.804688 5.589844 1.8125 5.917969 1.8125 6.238281 C 1.804688 6.9375 1.410156 7.476562 0.742188 7.6875 C 0.730469 7.6875 0.714844 7.703125 0.703125 7.703125 C 0.960938 8.382812 2.003906 9.378906 2.652344 9.628906 C 3.46875 8.511719 5.117188 8.90625 5.394531 10.175781 Z M 5.394531 10.175781 "/>
<path style=" stroke:none;fill-rule:nonzero;fill:rgb(0%,0%,0%);fill-opacity:1;" d="M 7.324219 7.789062 C 6.242188 7.734375 5.53125 7.300781 5.070312 6.441406 C 4.960938 6.230469 5.0625 6.019531 5.273438 5.976562 C 5.402344 5.949219 5.519531 6.039062 5.613281 6.1875 C 5.730469 6.371094 5.851562 6.550781 6.003906 6.699219 C 6.867188 7.511719 8.277344 7.257812 8.816406 6.203125 C 8.882812 6.078125 8.964844 5.976562 9.117188 5.976562 C 9.347656 5.984375 9.476562 6.214844 9.375 6.425781 C 9.089844 7 8.644531 7.421875 8.039062 7.625 C 7.773438 7.714844 7.5 7.75 7.324219 7.789062 Z M 7.324219 7.789062 "/>
<path style=" stroke:none;fill-rule:nonzero;fill:rgb(0%,0%,0%);fill-opacity:1;" d="M 5.410156 4.785156 C 5.082031 4.785156 4.816406 4.519531 4.816406 4.1875 C 4.816406 3.859375 5.082031 3.59375 5.410156 3.59375 C 5.738281 3.59375 6.003906 3.859375 6.003906 4.1875 C 6.007812 4.507812 5.742188 4.785156 5.410156 4.785156 Z M 5.410156 4.785156 "/>
<path style=" stroke:none;fill-rule:nonzero;fill:rgb(0%,0%,0%);fill-opacity:1;" d="M 9.605469 4.179688 C 9.605469 4.507812 9.339844 4.773438 9.019531 4.785156 C 8.6875 4.785156 8.425781 4.527344 8.425781 4.1875 C 8.425781 3.859375 8.679688 3.59375 9.011719 3.585938 C 9.332031 3.585938 9.59375 3.851562 9.605469 4.179688 Z M 9.605469 4.179688 "/>
</svg>
