<svg viewBox="0 0 24 24" xmlns="http://www.w3.org/2000/svg" id="Fitness-Weightlift--Streamline-Ultimate.svg" height="24" width="24"><desc>Fitness Weightlift Streamline Icon: https://streamlinehq.com</desc><path d="M9.375 9.375a2.625 2.625 0 1 0 5.25 0 2.625 2.625 0 1 0 -5.25 0Z" fill="none" stroke="#000000" stroke-linecap="round" stroke-linejoin="round" stroke-width="1.5"></path><path d="M3.765 9a10.648 10.648 0 0 0 2.475 6.416A7.582 7.582 0 0 0 9 17.32v5.93" fill="none" stroke="#000000" stroke-linecap="round" stroke-linejoin="round" stroke-width="1.5"></path><path d="M18.079 6.158a1.5 1.5 0 0 0 -0.823 1.467c0 0.036 0.243 3.644 -1.7 5.759a4.538 4.538 0 0 1 -1.13 0.866H9.575a4.6 4.6 0 0 1 -1.118 -0.85C6.5 11.278 6.74 7.689 6.746 7.62a1.5 1.5 0 0 0 -0.825 -1.462" fill="none" stroke="#000000" stroke-linecap="round" stroke-linejoin="round" stroke-width="1.5"></path><path d="M15 23.25v-5.93a7.582 7.582 0 0 0 2.76 -1.9A10.648 10.648 0 0 0 20.235 9" fill="none" stroke="#000000" stroke-linecap="round" stroke-linejoin="round" stroke-width="1.5"></path><path d="M20.251 3.755a45.482 45.482 0 0 0 -16.5 0" fill="none" stroke="#000000" stroke-linecap="round" stroke-linejoin="round" stroke-width="1.5"></path><path d="M23.25 5.25a1.5 1.5 0 0 1 -3 0v-3a1.5 1.5 0 0 1 3 0Z" fill="none" stroke="#000000" stroke-linecap="round" stroke-linejoin="round" stroke-width="1.5"></path><path d="M3.75 5.25a1.5 1.5 0 0 1 -3 0v-3a1.5 1.5 0 0 1 3 0Z" fill="none" stroke="#000000" stroke-linecap="round" stroke-linejoin="round" stroke-width="1.5"></path></svg>