<svg width="24" height="24" viewBox="0 0 24 24" xmlns="http://www.w3.org/2000/svg">
<mask id="mask0_5077_15696" style="mask-type:alpha" maskUnits="userSpaceOnUse" x="1" y="2" width="22" height="20">
<path d="M7.04439 12.9638C7.48189 12.4282 8.34624 12.8223 8.22896 13.5038L7.8315 15.8134C7.79593 16.0209 7.85951 16.2329 8.00337 16.3866L9.64986 18.1434C10.0609 18.5819 9.73476 19.2987 9.13423 19.2763L6.72798 19.1854C6.5173 19.1775 6.31548 19.2692 6.18208 19.4325L4.69966 21.247C4.26216 21.7825 3.39781 21.3884 3.51509 20.7069L3.91255 18.3983C3.94828 18.1907 3.88464 17.9779 3.74068 17.8241L2.09419 16.0673C1.68314 15.6287 2.00922 14.9119 2.60982 14.9345L5.01607 15.0253C5.22675 15.0332 5.42859 14.9415 5.56197 14.7782L7.04439 12.9638ZM17.6967 2.56043C18.4025 1.69649 19.7959 2.33117 19.6069 3.43055L18.9653 7.15614C18.9077 7.49129 19.0111 7.83379 19.2436 8.08192L21.8999 10.9159C22.563 11.6234 22.0359 12.7796 21.0668 12.7431L17.185 12.5966C16.8452 12.5839 16.5193 12.7317 16.3042 12.995L13.9126 15.9218C13.2068 16.7857 11.8133 16.151 12.0024 15.0516L12.644 11.3261C12.7016 10.991 12.5982 10.6484 12.3657 10.4003L9.70943 7.56629C9.04626 6.85879 9.5734 5.70264 10.5424 5.73915L14.4233 5.88563C14.7632 5.89843 15.0899 5.75063 15.3051 5.48719L17.6967 2.56043Z" fill="#1D1D1F"/>
</mask>
<g mask="url(#mask0_5077_15696)">
<rect width="24" height="24"/>
</g>
</svg>
