<svg width="24" height="24" viewBox="0 0 24 24" fill="none" xmlns="http://www.w3.org/2000/svg">
<mask id="mask0_5077_15700" style="mask-type:alpha" maskUnits="userSpaceOnUse" x="1" y="2" width="21" height="20">
<path d="M5.50911 13.5296C6.32582 12.6726 7.7753 13.3433 7.67441 14.5315L7.65876 14.6522L7.34008 16.5279L8.65898 17.9564C9.43289 18.7951 8.81724 20.1654 7.68639 20.1221L5.76054 20.0482L4.5752 21.5226C3.75156 22.5464 2.12582 21.7938 2.34634 20.4907L2.66409 18.6141L1.3452 17.1865C0.571577 16.3479 1.18635 14.9779 2.31687 15.0208L4.24363 15.0947L5.4299 13.6203L5.50911 13.5296ZM5.29267 16.0611C5.04153 16.3733 4.66058 16.5478 4.26389 16.5326L2.62449 16.4699L3.74628 17.6861C4.01767 17.9801 4.13765 18.3871 4.07048 18.7844L3.83562 20.1698L4.71151 19.0809C4.96265 18.7688 5.34463 18.5942 5.7412 18.6094L7.37969 18.6712L6.25881 17.4559C5.9874 17.1617 5.86638 16.755 5.93369 16.3576L6.16855 14.9712L5.29267 16.0611ZM16.0805 2.74124C17.3595 1.15108 19.8855 2.32104 19.5426 4.34471L18.9384 7.91275C18.9341 7.93801 18.9414 7.96422 18.9587 7.98292L21.4638 10.6978C22.6653 11.9999 21.7108 14.1268 19.9552 14.06L16.2942 13.9206C16.2691 13.9197 16.2448 13.93 16.2288 13.9496L13.9732 16.7552C12.6942 18.3448 10.1684 17.1752 10.5111 15.1518L11.1172 11.5828C11.1213 11.5578 11.113 11.5321 11.096 11.5135L8.5899 8.79775C7.38928 7.49551 8.34396 5.36855 10.0994 5.43551L13.7605 5.57584C13.7855 5.57668 13.81 5.56555 13.8259 5.5459L16.0805 2.74124ZM17.5726 3.92466C17.5689 3.92693 17.5578 3.93425 17.5422 3.95366L15.2866 6.75833C14.8967 7.24293 14.3053 7.5143 13.6896 7.49084L10.0285 7.35051C10.011 7.34987 10.0002 7.35199 9.99537 7.35332C9.99058 7.35473 9.98612 7.35746 9.98248 7.35987C9.97421 7.3655 9.96139 7.37766 9.95208 7.39822C9.94272 7.41923 9.94247 7.43785 9.94379 7.4478C9.94443 7.45207 9.94538 7.4564 9.94748 7.4609C9.94959 7.46541 9.95465 7.47482 9.96682 7.48803L12.472 10.2038C12.8931 10.6604 13.08 11.2907 12.9758 11.9074L12.3707 15.4773C12.3665 15.5022 12.3681 15.5153 12.3688 15.5194C12.3695 15.5234 12.3702 15.5263 12.3716 15.5288C12.3754 15.5355 12.3893 15.5525 12.4167 15.5653C12.4441 15.5778 12.4654 15.577 12.4729 15.5755C12.4758 15.575 12.4786 15.5739 12.4821 15.5718C12.4857 15.5696 12.4968 15.5623 12.5125 15.5428L14.7681 12.7381C15.158 12.2534 15.7493 11.9821 16.3651 12.0056L20.0261 12.145C20.0436 12.1456 20.0536 12.1436 20.0584 12.1422C20.0633 12.1408 20.0676 12.1391 20.0713 12.1366C20.0796 12.1311 20.0922 12.1184 20.1017 12.0973C20.111 12.0764 20.1122 12.0586 20.1109 12.0487C20.1103 12.0443 20.1094 12.0392 20.1072 12.0346C20.105 12.0301 20.0996 12.0212 20.0879 12.0084L17.5818 9.29264C17.1606 8.83597 16.9745 8.20482 17.0789 7.58813L17.6831 4.01915C17.6873 3.99434 17.6856 3.98135 17.6849 3.97705C17.6842 3.97307 17.6836 3.97021 17.6822 3.96769C17.6784 3.96097 17.6653 3.94398 17.638 3.93121C17.6103 3.91844 17.5884 3.91941 17.5809 3.92092C17.5782 3.92152 17.5757 3.92274 17.5726 3.92466Z" fill="#1D1D1F"/>
</mask>
<g mask="url(#mask0_5077_15700)">
<rect width="24" height="24" fill="#1D1D1F"/>
</g>
</svg>
