<svg width="12" height="12" viewBox="0 0 12 12"  xmlns="http://www.w3.org/2000/svg">
<path d="M6.0188 1.5C7.2175 1.50049 8.34265 1.96494 9.1887 2.80792C10.0348 3.65085 10.5005 4.77129 10.5 5.963C10.4991 8.37804 8.55976 10.3511 6.15076 10.4207L6.017 10.4227C5.26705 10.4225 4.53014 10.2352 3.87557 9.8798L1.5 10.5L2.13574 8.18905C1.74358 7.5127 1.53726 6.7454 1.53759 5.9594C1.53858 3.50056 3.54881 1.5 6.0188 1.5ZM4.43228 3.8999C4.36831 3.8999 4.27004 3.92036 4.17862 3.9965L4.13367 4.03937L4.02847 4.15538C3.90392 4.30408 3.74183 4.55837 3.74183 4.96898C3.74183 5.38599 3.97375 5.79226 4.10954 5.99575L4.13902 6.03902L4.35817 6.34106C4.63817 6.70941 5.264 7.43999 6.11175 7.8043C6.22624 7.85354 6.32997 7.89426 6.42394 7.92876L6.59915 7.99015L6.7501 8.03905C7.01835 8.12385 7.2624 8.1119 7.45535 8.0832C7.6705 8.0512 8.11775 7.8136 8.21115 7.55335C8.3044 7.29305 8.3044 7.06995 8.2764 7.0234C8.26742 7.00846 8.25361 6.99545 8.23528 6.98282L8.20444 6.96396L7.73052 6.73141C7.63523 6.68543 7.53615 6.63812 7.45527 6.60056L7.38126 6.56666L7.2967 6.53075C7.19415 6.49355 7.1194 6.47505 7.04485 6.58655C7.00752 6.6423 6.93523 6.73294 6.86409 6.81892L6.81152 6.88193L6.6903 7.0234C6.63429 7.08717 6.57834 7.10315 6.49297 7.07128L6.28271 6.97816L6.169 6.92378C6.00363 6.84029 5.78585 6.71 5.54725 6.4982C5.32322 6.29934 5.14818 6.06902 5.03774 5.90566L4.99442 5.84004L4.92435 5.7263C4.88783 5.66383 4.89202 5.61925 4.9115 5.58136L4.92482 5.55934L5.0631 5.3866L5.14488 5.28001C5.19504 5.21274 5.2347 5.1549 5.25335 5.11775C5.28327 5.05823 5.27725 5.00467 5.25931 4.95708L5.23677 4.90699L4.89884 4.09507C4.84261 3.96079 4.78589 3.92074 4.73452 3.90893L4.71285 3.9054L4.57884 3.90135L4.43228 3.8999Z" />
</svg>
