<svg width="24" height="24" viewBox="0 0 24 24" fill="none" xmlns="http://www.w3.org/2000/svg">
<path fill-rule="evenodd" clip-rule="evenodd" d="M4 6C4 5.44772 4.44772 5 5 5H19C19.5523 5 20 5.44771 20 6V20C20 20.5523 20.4477 21 21 21C21.5523 21 22 20.5523 22 20V6C22 4.34315 20.6569 3 19 3H5C3.34315 3 2 4.34315 2 6V20C2 20.5523 2.44772 21 3 21C3.55228 21 4 20.5523 4 20V6ZM13.1875 8.125C13.1875 8.8844 12.5719 9.5 11.8125 9.5C11.0531 9.5 10.4375 8.8844 10.4375 8.125C10.4375 7.36561 11.0531 6.75 11.8125 6.75C12.5719 6.75 13.1875 7.36561 13.1875 8.125ZM10.4375 11.5938C10.4375 10.8465 11.0344 10.236 11.7816 10.2191C12.1007 10.212 12.3964 10.314 12.6334 10.4906C12.7645 10.5542 12.8764 10.6598 12.9469 10.7998L12.9506 10.8069C12.9551 10.8151 12.9633 10.8301 12.9754 10.8508C12.9996 10.8924 13.039 10.9567 13.0945 11.0366C13.206 11.197 13.3791 11.4157 13.6193 11.638C14.0957 12.0792 14.8302 12.5316 15.8919 12.586C16.2711 12.6055 16.5627 12.9286 16.5433 13.3078C16.5238 13.687 16.2007 13.9787 15.8215 13.9592C14.6975 13.9016 13.8278 13.5113 13.1875 13.0557V15.6875L14.8473 15.6875C15.0296 15.6875 15.2045 15.7599 15.3334 15.8889L17.7986 18.3541C18.0671 18.6226 18.0671 19.0579 17.7986 19.3264C17.5301 19.5949 17.0948 19.5949 16.8264 19.3264L14.5625 17.0625H11.8125C11.0563 17.0625 10.4375 16.4438 10.4375 15.6875V11.5938ZM12.3831 17.75C12.1013 18.5475 11.3381 19.125 10.4375 19.125C9.29625 19.125 8.375 18.2038 8.375 17.0625C8.375 16.1619 8.9525 15.4057 9.75 15.1169V13.6938C8.1825 14.01 7 15.3988 7 17.0625C7 18.96 8.54 20.5 10.4375 20.5C12.1013 20.5 13.49 19.3175 13.8063 17.75H12.3831Z" fill="#1D1D1F"/>
</svg>
