<svg width="24" height="24" viewBox="0 0 24 24"  xmlns="http://www.w3.org/2000/svg">
<path fill-rule="evenodd" clip-rule="evenodd" d="M19.2846 7.19099C14.7543 4.67413 9.24569 4.67413 4.71535 7.19099L3.48564 7.87416C3.00286 8.14237 2.39405 7.96843 2.12584 7.48564C1.85763 7.00286 2.03157 6.39406 2.51436 6.12584L3.74407 5.44267C8.87845 2.59024 15.1215 2.59024 20.2559 5.44267L21.4856 6.12584C21.9684 6.39406 22.1424 7.00286 21.8742 7.48564C21.6059 7.96843 20.9971 8.14237 20.5144 7.87416L19.2846 7.19099ZM6.87905 11.2827C10.1492 9.8812 13.8508 9.8812 17.121 11.2827L18.6061 11.9192C19.1137 12.1367 19.7016 11.9016 19.9191 11.3939C20.1367 10.8863 19.9016 10.2984 19.3939 10.0809L17.9088 9.44439C14.1356 7.82729 9.86444 7.82729 6.09121 9.44439L4.60608 10.0809C4.09845 10.2984 3.8633 10.8863 4.08086 11.3939C4.29841 11.9016 4.88629 12.1367 5.39392 11.9192L6.87905 11.2827ZM9.19101 15.6214C11.0021 14.9422 12.9979 14.9422 14.809 15.6214L15.6489 15.9363C16.166 16.1302 16.7424 15.8682 16.9363 15.3511C17.1302 14.834 16.8682 14.2576 16.3511 14.0637L15.5112 13.7487C13.2474 12.8998 10.7526 12.8998 8.48877 13.7487L7.64888 14.0637C7.13176 14.2576 6.86975 14.834 7.06367 15.3511C7.25759 15.8682 7.834 16.1302 8.35112 15.9363L9.19101 15.6214ZM12 21C12.8284 21 13.5 20.3284 13.5 19.5C13.5 18.6716 12.8284 18 12 18C11.1716 18 10.5 18.6716 10.5 19.5C10.5 20.3284 11.1716 21 12 21Z"/>
</svg>
