<svg xmlns="http://www.w3.org/2000/svg" fill="none" viewBox="0 0 24 24" id="Yoga-Mat--Streamline-Ultimate.svg" height="24" width="24"><desc>Yoga Mat Streamline Icon: https://streamlinehq.com</desc><path stroke="#000000" stroke-linecap="round" stroke-linejoin="round" d="M4.5 23.25c2.07107 0 3.75 -1.6789 3.75 -3.75s-1.67893 -3.75 -3.75 -3.75c-2.07107 0 -3.75 1.6789 -3.75 3.75s1.67893 3.75 3.75 3.75Z" stroke-width="1.5"></path><path stroke="#000000" stroke-linecap="round" stroke-linejoin="round" d="M0.75 19.5v-15c0 -0.99456 0.39509 -1.94839 1.09835 -2.65165S3.50544 0.75 4.5 0.75c0.99456 0 1.94839 0.39509 2.65165 1.09835S8.25 3.50544 8.25 4.5v15" stroke-width="1.5"></path><path stroke="#000000" stroke-linecap="round" stroke-linejoin="round" d="M11.25 4.5h10.5c0.3978 0 0.7794 0.15804 1.0607 0.43934S23.25 5.60218 23.25 6v15.75c0 0.3978 -0.158 0.7794 -0.4393 1.0607s-0.6629 0.4393 -1.0607 0.4393H4.5" stroke-width="1.5"></path><path stroke="#000000" d="M4.5 19.875c-0.20711 0 -0.375 -0.1679 -0.375 -0.375s0.16789 -0.375 0.375 -0.375" stroke-width="1.5"></path><path stroke="#000000" d="M4.5 19.875c0.20711 0 0.375 -0.1679 0.375 -0.375s-0.16789 -0.375 -0.375 -0.375" stroke-width="1.5"></path></svg>