<svg width="24" height="24" viewBox="0 0 24 24" xmlns="http://www.w3.org/2000/svg">
<path fill-rule="evenodd" clip-rule="evenodd" d="M12.0489 4C9.81279 4 8.00006 5.81273 8.00006 8.04884V8.26449C8.00006 8.85949 8.10453 9.44659 8.30567 10H4.04472C2.38042 10 1.44424 11.9142 2.46601 13.2279L7.61019 19.8418C8.17856 20.5726 9.05248 21 9.97825 21H17.0001C19.7615 21 22.0001 18.7614 22.0001 16V15.5C22.0001 14.3648 21.5797 13.3277 20.8861 12.536C20.8557 12.478 20.8191 12.4222 20.7762 12.3694L15.1913 5.49567C14.4224 4.54942 13.2681 4 12.0489 4ZM17.0866 11L13.639 6.75686C13.25 6.27802 12.6659 6 12.0489 6C10.9174 6 10.0001 6.9173 10.0001 8.04884V8.26449C10.0001 8.87268 10.1801 9.46726 10.5174 9.97331L10.808 10.4092L13.2569 13.4703C13.8139 12.0253 15.2158 11 16.8572 11H17.0866ZM13.5417 16.889C13.4204 16.8266 13.3099 16.7381 13.2192 16.6247L9.51929 11.9998C9.5129 11.9999 9.5065 12 9.50008 12H4.04472L9.1889 18.6139C9.37835 18.8575 9.66966 19 9.97825 19H17.0001C18.6569 19 20.0001 17.6569 20.0001 16V15.5C20.0001 14.1193 18.8808 13 17.5001 13H16.8572C15.8316 13 15.0001 13.8315 15.0001 14.8571V15.25C15.0001 15.6642 15.3359 16 15.7501 16H16.0001C16.2762 16 16.5001 15.7761 16.5001 15.5C16.5001 14.9477 16.9478 14.5 17.5001 14.5C18.0524 14.5 18.5001 14.9477 18.5001 15.5C18.5001 16.8807 17.3808 18 16.0001 18H15.7501C14.8455 18 14.0429 17.5632 13.5417 16.889Z"/>
</svg>
