<svg width="24" height="24" viewBox="0 0 24 24" xmlns="http://www.w3.org/2000/svg"><path fill-rule="evenodd" clip-rule="evenodd" d="M13.356 3.516L12.089 3.5h-.178l-1.113.014-1.678.034a95.178 95.178 0 00-4.32.19l-.35.043c-.909.131-1.583.422-2.28 1.198-.348.383-.604.93-.79 1.578-.076.27-.133.524-.172.746l-.046.304-.05.627c-.058.793-.105 1.761-.111 2.758L1 12.824l.002.395c.01.92.054 1.812.108 2.562l.049.605.019.162c.034.256.095.573.19.912.183.654.444 1.206.81 1.595.706.782 1.437 1.04 2.565 1.17l.256.034.498.04c.347.023.773.045 1.266.065l.96.036 2.667.07 1.629.03 1.2-.014 1.683-.035a93.526 93.526 0 004.299-.189l.396-.046c.668-.093 1.165-.266 1.73-.7.175-.136.344-.292.503-.47.347-.382.603-.929.789-1.578.077-.269.134-.525.173-.746l.046-.304.05-.626c.062-.855.112-1.911.112-2.968v-1.622l-.002-.396a42.434 42.434 0 00-.066-1.895l-.043-.674-.048-.597-.019-.162a6.998 6.998 0 00-.19-.927c-.184-.664-.446-1.221-.814-1.61-.743-.802-1.467-1.068-2.487-1.186l-.147-.017-.739-.049-.395-.022-.838-.04-.896-.036-1.44-.043-1.52-.032zM10.46 8.36a.851.851 0 00-.756.064.874.874 0 00-.426.757v5.196l.007.116a.872.872 0 00.862.765.86.86 0 00.412-.106l4.731-2.575.1-.064a.883.883 0 00.358-.708.88.88 0 00-.453-.775l-4.73-2.621-.105-.05z"/></svg>
