<svg width="24" height="24" viewBox="0 0 24 24" xmlns="http://www.w3.org/2000/svg"><path fill-rule="evenodd" clip-rule="evenodd" d="M13.11 5.013L12.072 5h-.146l-.91.011-1.373.029c-1.36.034-2.576.085-3.535.155l-.286.036c-.744.108-1.295.348-1.866.987-.284.315-.494.765-.645 1.3-.063.221-.11.431-.142.613l-.037.252-.042.516c-.047.653-.085 1.45-.09 2.27L3 12.68l.002.325c.008.757.044 1.492.088 2.11l.04.498.016.133c.028.212.078.472.155.752.15.538.364.992.662 1.313.578.644 1.177.856 2.1.963l.209.028.408.033c.283.02.631.037 1.035.054l.786.03 2.181.057 1.333.025.983-.012 1.376-.028a75.992 75.992 0 003.518-.156l.323-.038c.547-.076.954-.22 1.416-.577.144-.112.281-.24.412-.386.284-.315.493-.765.645-1.3.063-.221.11-.432.142-.614l.037-.25.042-.516c.05-.704.091-1.574.091-2.444v-1.337l-.002-.325a35.186 35.186 0 00-.053-1.56l-.036-.556-.039-.492-.015-.133a5.802 5.802 0 00-.156-.764c-.15-.546-.365-1.005-.666-1.326-.608-.66-1.2-.879-2.035-.976l-.12-.014-.604-.04a55.056 55.056 0 00-.324-.019l-.685-.033-.734-.029-1.178-.035-1.244-.027zm-2.37 3.99a.693.693 0 00-.618.052.721.721 0 00-.348.623v4.28l.006.095a.718.718 0 00.705.63.7.7 0 00.337-.087l3.87-2.121.083-.053a.728.728 0 00.292-.583.726.726 0 00-.37-.638l-3.87-2.158-.086-.04z"/></svg>
