<svg width="12" height="12" viewBox="0 0 12 12"  xmlns="http://www.w3.org/2000/svg">
<path fill-rule="evenodd" clip-rule="evenodd" d="M6.67792 1.7581L6.04431 1.75H5.95564L5.39913 1.75684L4.56005 1.77407C3.72905 1.79501 2.98607 1.82589 2.39975 1.86866L2.22496 1.89031C1.7705 1.95599 1.43372 2.10133 1.08509 2.48958C0.911247 2.68084 0.783236 2.95413 0.690426 3.27852C0.651928 3.41308 0.623703 3.54051 0.604131 3.65126L0.581062 3.80371L0.555697 4.11712C0.52715 4.51367 0.503698 4.99749 0.500356 5.49579L0.5 6.41191L0.501108 6.60954C0.506195 7.06916 0.528232 7.51533 0.555227 7.89032L0.5793 8.19296L0.588935 8.27402C0.606214 8.40214 0.636647 8.56052 0.684042 8.73004C0.77542 9.05688 0.906161 9.33292 1.08877 9.52732C1.44192 9.91861 1.80752 10.0472 2.3713 10.1125L2.49942 10.1294L2.74863 10.1493C2.92208 10.1609 3.1348 10.1718 3.38169 10.1821L3.8619 10.1998L5.19477 10.2351L6.00938 10.25L6.6097 10.2429L7.45082 10.2256C8.27955 10.2047 9.0192 10.1738 9.60041 10.131L9.79836 10.1078C10.1323 10.0617 10.3812 9.97486 10.6631 9.75767C10.7512 9.68976 10.8353 9.6118 10.9149 9.52317C11.0887 9.33186 11.2167 9.05855 11.3095 8.73417C11.348 8.59956 11.3763 8.47167 11.3959 8.36092L11.4189 8.20896L11.4443 7.89588C11.4752 7.46846 11.5 6.94034 11.5 6.41197V5.60081L11.4989 5.40289C11.4952 5.07374 11.4827 4.7498 11.4661 4.4557L11.4445 4.11868L11.4206 3.81977L11.4111 3.73878C11.3938 3.60809 11.3633 3.44726 11.3158 3.27538C11.2241 2.94374 11.0929 2.66486 10.9092 2.47029C10.5373 2.06946 10.1757 1.93642 9.66542 1.87767L9.5922 1.86909L9.22277 1.84463C9.15829 1.84079 9.09241 1.83707 9.02519 1.83347L8.60621 1.81323L8.15807 1.79566L7.4379 1.77407L6.67792 1.7581ZM5.23056 4.17989C5.10683 4.13105 4.96916 4.14195 4.8525 4.21193C4.7191 4.29199 4.63953 4.43341 4.63953 4.59039V7.18862L4.64318 7.24642C4.66013 7.3792 4.73517 7.49605 4.85112 7.56616C4.92031 7.60804 4.99702 7.62905 5.07388 7.62905C5.14431 7.62905 5.21489 7.61142 5.27986 7.57602L7.64554 6.28821L7.69568 6.2563C7.80657 6.17455 7.87375 6.04373 7.87431 5.90241C7.87489 5.74091 7.7883 5.59244 7.64827 5.51488L5.28264 4.20448L5.23056 4.17989Z" />
</svg>
