<svg width="276" height="283" viewBox="0 0 276 283" fill="none" xmlns="http://www.w3.org/2000/svg">
<path d="M169.263 260.218C169.257 260.21 169.251 260.201 169.245 260.193H144.304C141.275 260.535 136.989 261.141 133.314 262.114C128.134 263.485 122.083 267.273 120.285 268.446L119.703 281.594H170.46L169.26 260.279C169.26 260.258 169.263 260.239 169.263 260.218Z" fill="#FF4237"/>
<path d="M243.512 108.001C242.942 108.001 242.38 108.027 241.82 108.066C242.04 112.571 244.095 136.367 262.957 147.487C266.211 143.239 268.054 137.984 268.054 132.542C268.054 119.011 257.044 108.001 243.512 108.001Z" fill="#FFB0A8"/>
<path d="M144.819 117.696C144.802 117.696 144.784 117.696 144.767 117.695C144.464 117.675 144.197 117.488 144.075 117.211L135.893 98.5357L116.604 105.141C116.317 105.239 115.999 105.169 115.78 104.959C115.561 104.75 115.477 104.435 115.562 104.144L121.294 84.5807L102.274 77.2402C101.991 77.1311 101.793 76.8733 101.76 76.5718C101.727 76.2707 101.864 75.9756 102.117 75.8076L119.084 64.5048L109.23 46.6562C109.084 46.3908 109.097 46.0657 109.266 45.8133C109.434 45.5608 109.729 45.4229 110.03 45.457L130.295 47.7045L134.217 27.6984C134.276 27.401 134.495 27.1607 134.786 27.0755C135.078 26.9906 135.392 27.0747 135.601 27.2942L149.68 42.0422L165.547 29.2398C165.783 29.0495 166.106 29.0065 166.383 29.1286C166.661 29.2504 166.848 29.517 166.867 29.8198L168.171 50.166L188.556 50.5535C188.859 50.5592 189.134 50.7337 189.268 51.0057C189.403 51.2776 189.374 51.6018 189.195 51.8457L177.113 68.2735L192.479 81.6749C192.708 81.8737 192.806 82.1842 192.734 82.4789C192.663 82.7735 192.432 83.0036 192.137 83.075L172.327 87.8944L175.483 108.037C175.53 108.337 175.406 108.638 175.161 108.817C174.917 108.997 174.593 109.025 174.321 108.891L156.046 99.847L145.514 117.304C145.367 117.549 145.102 117.696 144.819 117.696ZM184.598 125.717C190.106 121.87 194.991 117.216 199.116 111.883C208.141 100.213 212.912 86.2264 212.912 71.4342C212.912 34.9444 183.225 5.25729 146.735 5.25729C110.242 5.25729 80.5535 34.9444 80.5535 71.4342C80.5535 86.379 85.6687 101 94.9605 112.653C95.1237 112.751 95.2499 112.906 95.3128 113.096C99.3627 118.086 104.09 122.449 109.369 126.064C120.397 133.621 133.318 137.615 146.735 137.615C160.371 137.615 173.464 133.5 184.598 125.717Z" fill="#D9385C"/>
<path d="M173.637 106.741L170.608 87.4078C170.543 86.991 170.808 86.5933 171.219 86.4935L190.231 81.8685L175.483 69.0056C175.165 68.7285 175.113 68.2536 175.363 67.9135L186.958 52.1469L167.393 51.7751C166.971 51.767 166.626 51.4367 166.598 51.0154L165.347 31.487L150.118 43.7747C149.79 44.0393 149.312 44.0089 149.021 43.7033L135.509 29.5487L131.744 48.7496C131.663 49.1643 131.276 49.4444 130.858 49.4005L111.409 47.2431L120.867 64.3737C121.071 64.7439 120.958 65.2078 120.606 65.4415L104.321 76.2901L122.575 83.3352C122.969 83.4874 123.18 83.9159 123.062 84.321L117.561 103.097L136.074 96.7577C136.161 96.728 136.25 96.7142 136.337 96.7142C136.651 96.7142 136.948 96.8977 137.081 97.2L144.934 115.123L155.042 98.3689C155.26 98.0077 155.718 97.8741 156.096 98.0604L173.637 106.741Z" fill="white"/>
<path d="M177.184 175.677C178.944 178.827 179.876 182.169 180.268 185.495C181.102 179.303 181.479 174.217 181.617 172.033C179.861 173.067 177.981 173.78 176.002 174.156C176.493 174.642 176.89 175.15 177.184 175.677Z" fill="#FF4237"/>
<path d="M173.251 174.057C170.406 172.269 165.602 170.807 158.565 169.588C155.309 169.024 152.039 168.586 149.154 168.199C147.248 167.944 145.449 167.703 143.977 167.467C143.585 167.403 143.195 167.405 142.815 167.472C141.264 167.75 139.908 169.174 139.276 171.19C138.571 173.437 138.722 176.731 141.208 179.315C141.305 179.379 141.386 179.46 141.446 179.554C142.066 180.155 142.796 180.688 143.63 181.138C149.917 184.522 162.585 187.383 162.712 187.412C163.091 187.497 163.357 187.839 163.346 188.228C163.334 188.617 163.048 188.943 162.664 189.005C162.442 189.041 140.357 192.767 135.704 206.181C135.557 206.604 135.095 206.829 134.671 206.682C134.247 206.534 134.023 206.072 134.17 205.649C135.668 201.331 138.743 197.977 142.33 195.387C143.347 193.532 144.421 190.506 142.863 187.629C141.473 185.062 139.543 184.053 138.114 183.661C137.596 183.806 137.041 183.885 136.446 183.885C135.133 183.885 133.645 183.534 132.037 182.836C130.54 182.185 129.252 180.666 128.184 178.315C127.767 179.966 126.953 180.976 126.178 181.581C125.169 182.369 123.871 182.769 122.446 182.769C121.371 182.77 120.224 182.542 119.072 182.082C117.882 181.608 116.76 180.575 115.723 179.007C114.248 193.485 117.451 206.392 117.485 206.527C119.349 214.597 120.65 220.353 121.065 222.197H168.624C169.256 221.233 173.647 214.359 175.983 206.262C176.373 204.911 176.707 203.684 177.003 202.51C178.787 195.472 180.599 185.116 175.767 176.469C175.294 175.621 174.447 174.81 173.251 174.057Z" fill="#FF4237"/>
<path d="M176.488 156.2C175.461 150.919 172.772 149.153 172.745 149.135C172.72 149.121 168.03 146.463 163.956 149.126C162.913 149.81 162.037 150.833 161.353 152.169C159.876 155.042 159.232 159.464 159.489 164.959C159.538 165.977 159.551 166.978 159.536 168.112C166.243 169.314 170.8 170.712 173.781 172.483C173.529 162.998 175.979 157.279 176.483 156.209C176.485 156.207 176.487 156.204 176.488 156.2Z" fill="#FF4237"/>
<path d="M118.912 258.569H171.079C173.088 257.441 173.284 254.864 172.837 251.102H117.15C116.704 254.865 116.9 257.441 118.912 258.569Z" fill="white"/>
<path d="M120.449 223.821C120.193 223.846 117.641 224.183 117.249 227.562C117.184 228.135 117.182 228.778 117.243 229.471C117.315 230.281 117.379 231.292 117.431 232.425H172.417C172.464 232.425 172.509 232.431 172.554 232.439C172.611 231.206 172.674 230.227 172.745 229.468C172.922 227.518 172.588 226.026 171.753 225.036C170.875 223.997 169.717 223.839 169.54 223.821H120.449Z" fill="white"/>
<path d="M172.648 249.478C172.324 245.953 172.307 239.289 172.489 234.04C172.465 234.043 172.441 234.048 172.417 234.048H117.497C117.684 239.285 117.669 245.938 117.34 249.478H172.648Z" fill="#D8365C"/>
<path d="M156.859 147.812C156.84 147.803 156.818 147.791 156.8 147.781C156.755 147.754 152.065 145.095 147.991 147.759C146.214 148.923 144.94 151.062 144.204 154.116C143.581 156.697 143.352 159.885 143.524 163.592C143.558 164.295 143.538 164.892 143.515 165.582C143.512 165.652 143.51 165.729 143.508 165.801C143.751 165.806 143.994 165.825 144.236 165.865C145.685 166.097 147.474 166.337 149.369 166.59C151.997 166.943 154.942 167.338 157.917 167.833C157.926 166.836 157.911 165.944 157.868 165.036C157.603 159.382 158.236 154.926 159.742 151.774C159.075 148.927 156.951 147.857 156.859 147.812Z" fill="#FF4237"/>
<path d="M138.999 148.36C138.967 148.344 137.705 147.71 136.029 147.523C133.875 147.282 132.058 147.863 130.633 149.248C130.086 149.781 129.591 150.39 129.164 151.057C126.738 154.849 126.692 160.317 126.868 164.099C126.999 166.87 127.429 169.978 128.041 172.631C128.113 172.727 128.166 172.839 128.19 172.965C128.237 173.218 128.274 173.466 128.306 173.708C129.407 177.885 130.961 180.598 132.684 181.347C134.949 182.33 136.853 182.529 138.19 181.921C138.922 181.588 139.468 181.009 139.817 180.201C137.054 177.146 136.903 173.33 137.726 170.704C138.457 168.377 140.013 166.653 141.876 166.043C141.881 165.862 141.887 165.691 141.892 165.527C141.916 164.846 141.933 164.308 141.902 163.67C141.728 159.924 141.956 156.675 142.571 153.993C141.655 149.701 139.108 148.413 138.999 148.36Z" fill="#FF4237"/>
<path d="M119.673 180.575C121.324 181.233 123.636 181.507 125.178 180.302C126.584 179.204 127.115 177.043 126.717 174.049C125.949 171.099 125.399 167.412 125.246 164.175C125.055 160.068 125.143 154.914 127.391 150.867C126.214 150.18 121.861 148.057 117.314 151.118C116.509 151.658 115.805 152.381 115.221 153.269C112.942 156.72 112.851 161.993 113 164.829C113.098 166.681 113.559 169.174 114.231 171.501C114.763 173.328 115.382 174.959 116.07 176.346C117.201 178.623 118.447 180.086 119.673 180.575Z" fill="#FF4237"/>
<path d="M77.4084 150.162V205.711C83.2185 202.848 87.3248 199.528 89.126 197.937C91.8265 192.689 93.3013 186.817 93.3013 180.797C93.3013 168.533 87.3869 157.193 77.4084 150.162Z" fill="white"/>
<path d="M75.7854 206.475V149.081C70.0427 145.459 63.4498 143.482 56.6377 143.336V210.737C56.6681 210.738 56.6982 210.739 56.729 210.739C64.0452 210.739 70.5237 208.851 75.7854 206.475Z" fill="#FE884E"/>
<path d="M55.0141 143.336C48.193 143.482 41.5925 145.463 35.8461 149.093L35.8461 205.634C41.1787 208.293 47.6572 210.412 55.0141 210.702L55.0141 143.336Z" fill="white"/>
<path d="M18.3505 180.797C18.3502 185.801 19.3563 190.682 21.2314 195.185C23.4428 197.378 27.9399 201.389 34.2231 204.79L34.2227 150.176C24.2569 157.21 18.3504 168.544 18.3505 180.797Z" fill="#FE884E"/>
<path d="M180.268 185.495C179.877 182.169 178.944 178.827 177.184 175.678C176.89 175.15 176.493 174.642 176.002 174.156C177.981 173.78 179.861 173.068 181.617 172.033C181.479 174.217 181.103 179.303 180.268 185.495ZM177.003 202.51C176.707 203.684 176.373 204.912 175.983 206.262C173.646 214.359 169.255 221.233 168.624 222.198H121.065C120.65 220.354 119.349 214.597 117.485 206.527C117.451 206.392 114.248 193.485 115.722 179.007C116.76 180.575 117.882 181.609 119.072 182.083C120.224 182.543 121.371 182.77 122.446 182.769C123.871 182.769 125.168 182.37 126.178 181.581C126.952 180.976 127.766 179.966 128.183 178.315C129.252 180.666 130.54 182.185 132.037 182.836C133.645 183.534 135.132 183.885 136.446 183.885C137.041 183.885 137.596 183.806 138.114 183.661C139.543 184.053 141.472 185.062 142.863 187.629C144.421 190.506 143.347 193.532 142.33 195.388C138.742 197.977 135.668 201.331 134.17 205.649C134.023 206.072 134.247 206.535 134.67 206.682C135.095 206.829 135.557 206.605 135.704 206.181C140.357 192.767 162.441 189.041 162.664 189.005C163.048 188.943 163.334 188.617 163.345 188.228C163.357 187.839 163.091 187.497 162.711 187.412C162.584 187.383 149.917 184.523 143.63 181.138C142.796 180.688 142.065 180.155 141.446 179.554C141.386 179.46 141.305 179.38 141.208 179.315C138.722 176.731 138.57 173.437 139.275 171.19C139.907 169.174 141.264 167.75 142.814 167.473C143.195 167.405 143.585 167.404 143.976 167.467C145.449 167.703 147.248 167.944 149.153 168.2C152.038 168.586 155.308 169.024 158.564 169.588C165.602 170.807 170.406 172.269 173.251 174.057C174.447 174.81 175.293 175.621 175.766 176.469C180.599 185.116 178.786 195.472 177.003 202.51ZM171.753 225.036C172.588 226.026 172.922 227.518 172.745 229.468C172.674 230.227 172.611 231.206 172.554 232.439C172.509 232.431 172.463 232.425 172.416 232.425H117.431C117.379 231.292 117.315 230.281 117.243 229.471C117.181 228.777 117.183 228.135 117.249 227.561C117.64 224.183 120.193 223.846 120.448 223.821H169.54C169.717 223.839 170.875 223.997 171.753 225.036ZM117.497 234.048H172.416C172.441 234.048 172.465 234.043 172.489 234.041C172.307 239.289 172.324 245.953 172.648 249.478H117.34C117.669 245.939 117.684 239.285 117.497 234.048ZM171.079 258.569H118.912C116.901 257.441 116.704 254.864 117.151 251.101H172.837C173.284 254.864 173.088 257.441 171.079 258.569ZM114.231 171.501C113.558 169.174 113.098 166.681 113 164.829C112.851 161.993 112.942 156.719 115.221 153.269C115.805 152.381 116.509 151.658 117.314 151.118C121.861 148.057 126.214 150.18 127.391 150.867C125.143 154.913 125.055 160.068 125.246 164.175C125.399 167.412 125.948 171.099 126.716 174.049C127.115 177.043 126.584 179.204 125.178 180.302C123.636 181.507 121.323 181.233 119.673 180.575C118.446 180.086 117.2 178.623 116.07 176.346C115.382 174.959 114.763 173.328 114.231 171.501ZM141.902 163.67C141.933 164.308 141.915 164.846 141.892 165.527C141.887 165.691 141.881 165.862 141.876 166.043C140.013 166.653 138.456 168.377 137.726 170.704C136.903 173.329 137.054 177.146 139.817 180.201C139.467 181.009 138.922 181.588 138.19 181.921C136.853 182.529 134.949 182.33 132.683 181.347C130.961 180.598 129.407 177.885 128.306 173.708C128.274 173.466 128.237 173.218 128.19 172.965C128.166 172.839 128.112 172.727 128.041 172.631C127.429 169.978 126.998 166.87 126.868 164.099C126.691 160.317 126.737 154.849 129.163 151.057C129.591 150.39 130.086 149.781 130.632 149.248C132.058 147.863 133.875 147.282 136.029 147.523C137.704 147.71 138.966 148.344 138.999 148.36C139.108 148.413 141.654 149.701 142.57 153.993C141.956 156.675 141.728 159.924 141.902 163.67ZM157.868 165.036C157.911 165.944 157.926 166.836 157.917 167.832C154.942 167.338 151.996 166.942 149.369 166.59C147.474 166.337 145.685 166.097 144.236 165.865C143.994 165.825 143.75 165.806 143.508 165.801C143.51 165.729 143.513 165.651 143.515 165.582C143.538 164.891 143.558 164.295 143.524 163.592C143.352 159.885 143.581 156.696 144.204 154.116C144.94 151.061 146.214 148.923 147.991 147.759C152.065 145.095 156.755 147.754 156.8 147.78C156.818 147.791 156.84 147.803 156.858 147.811C156.95 147.857 159.075 148.927 159.743 151.773C158.235 154.926 157.603 159.381 157.868 165.036ZM173.781 172.483C170.8 170.712 166.244 169.314 159.536 168.112C159.552 166.978 159.538 165.978 159.489 164.959C159.232 159.464 159.876 155.042 161.353 152.17C162.037 150.834 162.913 149.81 163.957 149.127C168.03 146.463 172.72 149.121 172.745 149.135C172.772 149.153 175.461 150.92 176.488 156.2C176.487 156.204 176.485 156.207 176.483 156.21C175.979 157.279 173.529 162.998 173.781 172.483ZM109.889 128.36C120.867 135.481 133.568 139.239 146.735 139.239C160.24 139.239 173.225 135.299 184.379 127.832C182.553 139.834 180.615 146.806 179.294 150.57C178.684 152.308 178.148 153.533 177.725 154.381C176.369 149.515 173.724 147.832 173.585 147.746C173.36 147.614 167.994 144.546 163.068 147.768C162.223 148.321 161.476 149.047 160.831 149.93C159.764 147.536 157.887 146.512 157.592 146.364C157.121 146.095 151.903 143.262 147.102 146.401C145.517 147.438 144.28 149.066 143.406 151.255C142.017 148.02 139.811 146.948 139.719 146.905C139.66 146.875 133.778 143.927 129.5 148.085C129.056 148.518 128.644 148.995 128.266 149.505C126.9 148.719 121.709 146.202 116.408 149.77C115.726 150.228 115.11 150.796 114.559 151.454C113.934 149.778 111.93 143.566 109.889 128.36ZM95.3129 113.097C95.25 112.906 95.1238 112.751 94.9606 112.653C85.6688 101.001 80.5536 86.379 80.5536 71.4342C80.5536 34.9444 110.242 5.25768 146.735 5.25768C183.225 5.25768 212.912 34.9444 212.912 71.4342C212.912 86.2264 208.141 100.213 199.116 111.883C194.991 117.216 190.106 121.87 184.598 125.717C173.464 133.501 160.371 137.615 146.735 137.615C133.318 137.615 120.397 133.621 109.369 126.064C104.09 122.449 99.3628 118.086 95.3129 113.097ZM193.595 153.636C197.002 139.724 201.016 113.149 201.056 112.882C201.092 112.645 201.149 112.26 201.185 111.902C209.922 100.3 214.535 86.3246 214.535 71.4342C214.535 34.0491 184.12 3.63431 146.735 3.63431C109.347 3.63431 78.9302 34.0491 78.9302 71.4342C78.9302 86.7987 84.207 101.831 93.7893 113.79C94.7739 120.142 98.1242 141.448 100.623 153.607C101.616 158.438 104.788 169.883 112.834 172.49C113.293 173.988 113.81 175.357 114.378 176.573C114.374 176.594 114.366 176.613 114.364 176.635C112.269 192.271 115.875 206.781 115.907 206.909C117.71 214.717 118.987 220.36 119.441 222.374C117.952 222.827 116.002 224.209 115.636 227.376V227.377C115.636 227.377 115.636 227.377 115.636 227.377C115.558 228.059 115.555 228.812 115.626 229.615C115.712 230.582 115.787 231.847 115.843 233.274C116.075 238.905 116.059 246.971 115.63 250.183C115.112 254.069 114.852 258.361 118.349 260.107C118.461 260.163 118.585 260.193 118.711 260.193H119.024L118.058 282.036C118.039 282.483 118.386 282.862 118.834 282.882C118.846 282.883 118.858 282.883 118.87 282.883C119.302 282.883 119.661 282.543 119.68 282.107L119.703 281.594L120.284 268.446C122.083 267.273 128.134 263.484 133.313 262.114C136.989 261.141 141.275 260.535 144.304 260.193H169.264C169.264 260.201 169.263 260.21 169.263 260.218C169.263 260.239 169.259 260.258 169.261 260.279L170.459 281.594L170.474 281.849C170.498 282.281 170.856 282.616 171.283 282.616C171.299 282.616 171.314 282.615 171.33 282.614C171.778 282.589 172.12 282.206 172.095 281.758L170.881 260.193H171.28C171.406 260.193 171.53 260.163 171.643 260.107C175.136 258.361 174.875 254.068 174.358 250.183C173.93 246.961 173.911 239.069 174.141 233.302C174.205 231.734 174.28 230.495 174.361 229.616C174.581 227.198 174.112 225.294 172.967 223.959C172.138 222.991 171.139 222.556 170.449 222.359C171.835 220.147 175.443 213.989 177.543 206.712C177.921 205.401 178.247 204.206 178.538 203.06C178.559 203.014 178.586 202.972 178.6 202.922C182.489 188.02 183.297 171.125 183.304 170.956C183.305 170.941 183.302 170.928 183.302 170.914C189.991 165.908 192.721 157.212 193.595 153.636Z" fill="#700051"/>
<path d="M89.126 197.936C87.3249 199.528 83.2185 202.848 77.4085 205.71V150.161C87.3869 157.193 93.3013 168.532 93.3013 180.797C93.3013 186.817 91.8265 192.689 89.126 197.936ZM66.098 235.781H65.8342C65.8399 235.742 65.8464 235.703 65.8464 235.663C65.8464 232.938 65.0428 231.517 64.171 230.775C65.3346 230.177 66.1345 228.967 66.1345 227.571C66.1345 225.581 64.5176 223.963 62.5306 223.963C60.5432 223.963 58.9267 225.581 58.9267 227.571C58.9267 228.646 59.404 229.641 60.1962 230.315C59.1585 230.969 57.4766 232.471 56.9304 235.52C56.9145 235.609 56.9174 235.696 56.9296 235.781H47.9706L36.1382 214.577C42.0988 218.06 48.8585 219.896 55.8261 219.896C63.2039 219.896 70.3488 217.838 76.5521 213.947L66.098 235.781ZM35.8464 149.092C41.5927 145.463 48.1934 143.482 55.0144 143.336V210.702C47.6572 210.412 41.1788 208.293 35.8464 205.634V149.092ZM56.6378 143.336C63.4494 143.481 70.0428 145.458 75.7851 149.081V206.475C70.5237 208.851 64.0448 210.738 56.7287 210.738C56.6982 210.738 56.6682 210.737 56.6378 210.737V143.336ZM34.223 204.789C27.9401 201.389 23.443 197.378 21.2315 195.185C19.3565 190.682 18.3504 185.801 18.3504 180.797C18.3504 168.544 24.2571 157.21 34.223 150.175V204.789ZM77.2981 148.123C77.1698 147.899 76.9405 147.745 76.671 147.72C70.4361 143.782 63.24 141.698 55.8261 141.698C48.4113 141.698 41.2169 143.781 34.9831 147.717C34.6962 147.736 34.4519 147.902 34.3224 148.142C23.2997 155.414 16.7271 167.594 16.7271 180.797C16.7271 193.464 22.8971 205.379 33.236 212.708L46.6995 236.834L47.753 249.718C47.7477 250.137 47.7912 252.722 49.5753 254.571C50.7542 255.794 52.4024 256.414 54.4746 256.414H60.9515C60.9973 256.416 61.0448 256.417 61.0935 256.417C62.6394 256.417 65.4348 255.293 65.9661 250.919C66.5611 246.017 67.2985 237.976 67.4044 236.811L79.2274 212.118C89.0602 204.76 94.9247 193.069 94.9247 180.797C94.9247 167.578 88.3403 155.389 77.2981 148.123Z" fill="#700051"/>
<path d="M241.82 108.066C242.38 108.028 242.943 108.001 243.512 108.001C257.045 108.001 268.054 119.01 268.054 132.543C268.054 137.984 266.211 143.239 262.957 147.487C244.095 136.368 242.04 112.571 241.82 108.066ZM250.14 168.679H249.564L248.719 166.566C249.342 166.201 249.767 165.531 249.767 164.758C249.767 163.601 248.824 162.66 247.664 162.66C246.508 162.66 245.566 163.601 245.566 164.758C245.566 165.329 245.796 165.847 246.166 166.226L244.882 168.679H244.576C244.436 168.06 243.843 166.629 243.054 165.711C243.561 165.328 243.894 164.726 243.894 164.044C243.894 162.885 242.951 161.941 241.792 161.941C240.635 161.941 239.693 162.885 239.693 164.044C239.693 164.649 239.955 165.191 240.366 165.574C239.53 166.482 238.687 168.03 238.498 168.388C238.462 168.456 238.44 168.527 238.425 168.598L231.19 155.628C234.962 157.648 239.166 158.707 243.512 158.707C248.163 158.707 252.63 157.503 256.59 155.208L250.14 168.679ZM243.512 106.378C229.085 106.378 217.348 118.115 217.348 132.543C217.348 140.996 221.456 148.95 228.346 153.861L237.199 169.732L237.891 178.195C237.889 178.539 237.943 180.307 239.174 181.583C240.008 182.448 241.166 182.887 242.616 182.887H246.898C246.93 182.889 246.963 182.889 246.997 182.889C248.113 182.889 250.123 182.097 250.499 179.012C250.885 175.822 251.362 170.635 251.446 169.709L259.225 153.463C265.773 148.536 269.677 140.733 269.677 132.543C269.677 118.115 257.94 106.378 243.512 106.378Z" fill="#700051"/>
<path d="M257.963 217.316C255.415 220.719 248.407 220.683 248.33 220.683H195.968C190.381 220.683 186.608 218.446 186.12 214.844C185.643 211.329 188.548 206.834 195.023 205.045C196.67 204.59 198.459 204.406 200.275 204.406C207.873 204.406 215.945 207.625 216.045 207.666C216.422 207.819 216.852 207.668 217.053 207.316C217.104 207.229 222.206 198.527 231.153 199.763C238.69 200.803 241.959 207.256 243.014 209.982C243.109 210.227 243.152 210.339 243.283 210.469C243.697 210.884 244.138 210.688 244.698 210.441C245.731 209.982 248.475 208.764 251.491 208.719C254.417 208.669 257.825 209.938 258.491 212.122C259.137 214.238 258.959 215.986 257.963 217.316ZM251.467 207.096C248.357 207.142 245.577 208.282 244.303 208.84C242.938 205.606 239.284 199.247 231.375 198.155C222.805 196.974 217.445 203.824 216.024 205.918C213.311 204.905 202.618 201.26 194.591 203.48C189.01 205.022 183.756 209.495 184.511 215.063C184.986 218.564 188.245 222.307 195.968 222.307H248.32C248.333 222.307 248.359 222.307 248.396 222.307C249.261 222.307 256.341 222.186 259.26 218.293C260.585 216.524 260.849 214.288 260.043 211.648C259.111 208.592 255.012 207.049 251.467 207.096Z" fill="#700051"/>
<path d="M12.2398 120.452C12.183 120.45 6.51212 120.508 3.62251 117.154C2.11439 115.404 1.60546 112.985 2.10911 109.965C2.66512 106.629 4.57543 104.108 7.78728 102.473C13.1911 99.7228 21.1757 100.237 24.2974 101.799C24.5012 101.901 24.7378 101.913 24.9504 101.831C25.1631 101.75 25.3319 101.583 25.4155 101.371C25.6128 100.874 30.3709 89.2341 42.7516 89.2341C42.7999 89.2341 42.8486 89.2341 42.8977 89.2346C53.5223 89.3137 56.3912 104.421 56.4188 104.574C56.4735 104.874 56.6923 105.118 56.9845 105.206C57.2767 105.293 57.5937 105.209 57.8051 104.989C57.8534 104.938 62.6976 99.9655 68.8043 101.888C74.739 103.754 74.004 109.913 73.9703 110.173C73.9362 110.421 74.0198 110.671 74.1951 110.85C74.3705 111.029 74.6188 111.116 74.868 111.088C74.9196 111.082 80.0442 110.519 82.6391 112.691C83.5369 113.442 84.0113 114.419 84.0904 115.677C84.1797 117.11 83.8713 118.178 83.1477 118.939C81.6574 120.508 78.6992 120.475 76.933 120.456C76.7516 120.454 76.5831 120.452 76.4305 120.452H12.2398ZM76.9151 122.079C77.1197 122.082 77.3433 122.084 77.5819 122.084C79.5572 122.084 82.56 121.915 84.3246 120.057C85.3615 118.965 85.8278 117.458 85.7106 115.576C85.6038 113.871 84.9196 112.48 83.6773 111.443C81.2739 109.435 77.4074 109.335 75.6257 109.407C75.6192 107.245 74.9792 102.128 69.2917 100.339C63.976 98.6688 59.6347 101.358 57.7037 102.907C57.3067 101.364 56.4967 98.7341 55.0641 96.0734C52.1034 90.5746 47.9005 87.6485 42.9094 87.6112C42.8571 87.6108 42.8063 87.6108 42.7544 87.6108C31.1724 87.6108 25.6294 97.2005 24.2544 100.011C20.3887 98.5308 12.5896 98.2065 7.05108 101.027C3.4066 102.882 1.14402 105.88 0.50806 109.698C-0.0796019 113.22 0.556355 116.087 2.39848 118.221C5.79296 122.152 12.0056 122.082 12.2544 122.075H76.4305C76.5774 122.075 76.7402 122.077 76.9151 122.079Z" fill="#700051"/>
<path d="M155.041 98.3689L144.934 115.123L137.081 97.2001C136.948 96.8977 136.651 96.7143 136.337 96.7143C136.249 96.7143 136.161 96.7281 136.074 96.7577L117.56 103.097L123.062 84.321C123.18 83.916 122.969 83.4874 122.575 83.3352L104.321 76.2901L120.606 65.4415C120.957 65.2078 121.071 64.7435 120.866 64.3738L111.409 47.2431L130.858 49.4005C131.276 49.4444 131.663 49.1643 131.744 48.7496L135.509 29.5487L149.021 43.7033C149.312 44.0089 149.789 44.0393 150.118 43.7743L165.347 31.487L166.599 51.0154C166.625 51.4367 166.971 51.767 167.393 51.7751L186.958 52.1469L175.362 67.9135C175.112 68.2536 175.165 68.7285 175.483 69.0057L190.231 81.8685L171.218 86.4935C170.808 86.5933 170.543 86.991 170.608 87.4078L173.637 106.741L156.096 98.0604C155.718 97.8742 155.259 98.0077 155.041 98.3689ZM174.321 108.891C174.593 109.025 174.917 108.997 175.161 108.817C175.406 108.638 175.53 108.337 175.483 108.037L172.327 87.8945L192.137 83.0751C192.432 83.0036 192.663 82.7735 192.734 82.4789C192.806 82.1842 192.708 81.8738 192.479 81.6749L177.113 68.2735L189.195 51.8458C189.374 51.6018 189.403 51.2776 189.268 51.0057C189.134 50.7337 188.859 50.5592 188.556 50.5535L168.171 50.1664L166.867 29.8198C166.848 29.517 166.661 29.2504 166.383 29.1286C166.106 29.0065 165.783 29.0495 165.547 29.2398L149.68 42.0422L135.601 27.2942C135.392 27.0747 135.078 26.9906 134.786 27.0755C134.495 27.1607 134.276 27.401 134.217 27.6984L130.295 47.7045L110.03 45.457C109.729 45.4229 109.434 45.5609 109.266 45.8133C109.097 46.0657 109.084 46.3908 109.23 46.6562L119.084 64.5048L102.117 75.8076C101.864 75.9756 101.727 76.2707 101.76 76.5718C101.793 76.8733 101.991 77.1311 102.274 77.2402L121.294 84.5807L115.562 104.144C115.477 104.435 115.561 104.75 115.78 104.959C115.999 105.169 116.317 105.239 116.604 105.141L135.893 98.5357L144.075 117.211C144.197 117.488 144.464 117.675 144.767 117.695C144.784 117.696 144.802 117.696 144.819 117.696C145.102 117.696 145.367 117.549 145.514 117.304L156.046 99.847L174.321 108.891Z" fill="#700051"/>
<path d="M32.7995 33.2346L69.3255 56.5828C69.4606 56.6692 69.6124 56.7106 69.7617 56.7106C70.0296 56.7106 70.2918 56.5783 70.4464 56.336C70.6879 55.9582 70.5775 55.4565 70.1996 55.2147L33.6737 31.8665C33.2966 31.6254 32.7938 31.7362 32.5527 32.1132C32.3113 32.4911 32.4216 32.9927 32.7995 33.2346Z" fill="#700051"/>
<path d="M80.4227 29.8839C80.5733 30.0069 80.7551 30.0665 80.9357 30.0665C81.1707 30.0665 81.404 29.9647 81.5647 29.7682C81.8484 29.4208 81.7965 28.9099 81.4491 28.6258L60.3939 11.4387C60.0465 11.1558 59.5355 11.2066 59.2518 11.5544C58.9681 11.9014 59.0201 12.4127 59.3675 12.6964L80.4227 29.8839Z" fill="#700051"/>
<path d="M95.3293 12.1282C95.4892 12.3385 95.7311 12.4489 95.9762 12.4489C96.1475 12.4489 96.3199 12.3949 96.4669 12.2833C96.8236 12.0122 96.893 11.5028 96.6219 11.1461L88.4563 0.403396C88.1848 0.0466589 87.6755 -0.0227405 87.3187 0.248769C86.962 0.519467 86.8926 1.0288 87.1637 1.38554L95.3293 12.1282Z" fill="#700051"/>
<path d="M223.49 56.336C223.645 56.5783 223.907 56.7106 224.175 56.7106C224.325 56.7106 224.476 56.6692 224.611 56.5828L261.137 33.2346C261.515 32.9927 261.625 32.4911 261.384 32.1132C261.143 31.7362 260.64 31.6254 260.263 31.8665L223.737 55.2147C223.359 55.4566 223.249 55.9582 223.49 56.336Z" fill="#700051"/>
<path d="M213.002 30.0665C213.182 30.0665 213.364 30.0069 213.515 29.8839L234.574 12.6964C234.921 12.4127 234.973 11.9014 234.689 11.5544C234.406 11.207 233.895 11.1558 233.547 11.4387L212.488 28.6258C212.141 28.9095 212.089 29.4208 212.372 29.7682C212.533 29.9647 212.766 30.0665 213.002 30.0665Z" fill="#700051"/>
<path d="M197.469 12.2833C197.616 12.3949 197.789 12.4489 197.96 12.4489C198.205 12.4489 198.447 12.3385 198.607 12.1282L206.772 1.38554C207.043 1.02921 206.974 0.519876 206.617 0.248772C206.261 -0.0227374 205.751 0.0470678 205.48 0.403805L197.314 11.1461C197.043 11.5028 197.112 12.0122 197.469 12.2833Z" fill="#700051"/>
</svg>
