<svg width="375" height="375" viewBox="0 0 375 375" fill="none" xmlns="http://www.w3.org/2000/svg">
<g clip-path="url(#clip0_23283_162558)">
<path d="M121.162 185.309C121.611 185.39 122.058 185.486 122.501 185.607C128.96 187.346 132.097 191.077 133.59 193.899C134.519 195.654 134.943 197.273 135.137 198.361C136.07 197.982 137.485 197.455 139.198 196.971C139.171 194.157 140.92 176.618 151.226 162.608C160.75 149.662 174.56 143.27 192.26 143.621C211.16 143.994 225.134 152.885 232.674 169.332C237.851 180.628 238.504 192.235 238.579 195.718C242.514 196.031 245.944 197.512 247.652 198.378C248.422 195.75 250.858 189.861 257.537 187.272C256.083 176.997 252.531 162.445 243.881 149.983C233.386 134.865 217.978 126.488 198.085 125.086C196.636 124.984 195.164 124.918 193.711 124.89C182.136 124.664 171.625 126.484 162.461 130.296L160.364 131.216C160.36 131.218 160.358 131.219 160.355 131.221C134.009 143.333 124.519 169.876 121.162 185.309Z" fill="#FEB1A7"/>
<path d="M285.133 266.402C272.407 284.848 254.367 292.985 241.408 296.56C227.446 300.411 216.567 299.951 215.816 299.914H100.589C93.7189 299.914 91.1656 299.332 88.6966 298.769C86.8231 298.342 85.0532 297.938 81.3018 297.864C75.5232 297.751 72.3662 298.839 70.059 299.636C68.8972 300.037 67.8691 300.391 66.858 300.391C66.0237 300.391 65.2015 300.15 64.325 299.493C63.0915 298.568 62.9655 297.478 63.077 296.726C63.6492 292.87 72.4079 288.389 79.7349 285.723C86.8362 283.142 95.5716 282.491 103.953 282.173C106.342 282.077 108.777 282.014 111.131 281.953L112.868 281.899C114.014 281.864 115.155 281.829 116.287 281.79C120.658 281.632 131.25 280.709 147.772 279.047C147.351 277.773 146.502 274.636 144.609 266.402H71.6322L22.9612 325.336H186.427C186.486 325.336 186.543 325.343 186.599 325.353C186.655 325.343 186.712 325.336 186.771 325.336H350.238L301.567 266.402H285.133Z" fill="#F6F6F7"/>
<path d="M286.587 105.542L298.847 124.687C299.096 125.075 299.037 125.585 298.705 125.905C298.375 126.226 297.863 126.27 297.483 126.009L279.07 113.378L277.939 118.686C294.81 138.337 305.775 164.558 308.844 192.608C311.541 195.673 312.225 199.205 312.351 201.443C314.985 199.413 320.338 195.995 325.766 196.687C322.619 162.082 308.983 128.798 288.25 105.141L286.587 105.542Z" fill="#F6F6F7"/>
<path d="M220.227 86.4438C220.19 86.516 220.145 86.5857 220.087 86.6487C215.7 91.4384 215.347 102.214 215.328 104.908C237.761 109.315 255.478 121.597 267.989 141.438C271.561 147.103 274.425 152.975 276.728 158.712C281.391 166.051 289.902 180.034 292.019 187.491C294.396 186.936 296.91 186.932 299.509 187.504C302.33 188.126 304.721 189.167 306.659 190.604C303.376 164.31 293.065 139.784 277.428 121.081L274.245 136.017C274.15 136.465 273.754 136.784 273.298 136.784H273.283C272.819 136.777 272.426 136.443 272.344 135.987L268.12 112.599L251.474 120.39C251.073 120.578 250.594 120.468 250.314 120.124C250.033 119.781 250.021 119.29 250.286 118.934L260.583 105.066C258.364 104.54 253.907 103.481 249.855 102.503C247.633 101.967 245.534 101.455 243.99 101.07C243.213 100.876 242.576 100.713 242.134 100.595C241.365 100.39 240.64 100.196 240.739 99.3401C240.794 98.8701 241.194 98.5082 241.662 98.4816C241.877 98.452 242.993 98.2257 248.436 96.9002C239.717 92.0586 230.243 88.5479 220.227 86.4438Z" fill="#D8365D"/>
<path d="M262.437 95.0586C262.315 95.3299 262.076 95.53 261.788 95.6022C261.788 95.6022 256.417 96.9447 251.26 98.2054C248.903 98.7834 247.14 99.2112 245.819 99.5266C249.657 100.471 255.842 101.952 261.607 103.317C262.148 103.448 262.455 103.519 262.457 103.52C262.774 103.594 263.033 103.823 263.145 104.129C263.258 104.435 263.209 104.777 263.016 105.039L262.798 105.334L254.131 117.007L268.439 110.311C268.569 110.249 268.709 110.219 268.849 110.219C269.002 110.219 269.155 110.256 269.295 110.328C269.562 110.466 269.75 110.72 269.803 111.016L273.376 130.798L277.475 111.558C277.543 111.242 277.764 110.98 278.064 110.86C278.364 110.74 278.705 110.778 278.971 110.961L294.637 121.706L284.22 105.441C284.051 105.177 284.02 104.848 284.138 104.557C284.254 104.266 284.505 104.05 284.81 103.977L301.001 100.07L284.779 95.5964C284.473 95.5121 284.228 95.2834 284.123 94.9845C284.017 94.6851 284.065 94.3537 284.25 94.0964C287.835 89.1138 293.134 81.6003 295.578 77.8212C291.744 79.8517 284.256 84.1405 279.255 87.0591C278.986 87.2161 278.657 87.2345 278.372 87.107C278.087 86.9796 277.88 86.7224 277.818 86.4166C276.167 78.3551 274.179 69.5106 273.045 65.5945C271.767 70.4496 269.454 82.1652 269.126 84.6414C269.11 84.7471 269.102 84.8105 269.1 84.8483C269.1 85.1918 268.918 85.5 268.623 85.6739C268.483 85.7563 268.328 85.795 268.172 85.7994C268.169 85.8319 268.166 85.8658 268.166 85.8832L267.99 85.7829C267.877 85.7645 267.764 85.7335 267.66 85.6758L253.942 78.0455L262.411 94.2122C262.549 94.4757 262.559 94.7873 262.437 95.0586Z" fill="#FF874E"/>
<path d="M263.851 186.039C274.714 185.719 278.655 193.065 280.009 197.118C280.782 195.808 281.939 194.118 283.511 192.494C283.452 192.388 283.41 192.27 283.393 192.143C281.998 181.474 277.928 160.834 266.35 142.473C253.973 122.845 236.389 110.788 214.085 106.637C209.816 105.839 205.321 105.334 200.712 105.126C200.686 105.247 200.636 105.364 200.562 105.472C197.539 109.819 198.755 120.814 199.066 123.222C219.164 124.844 234.777 133.47 245.473 148.878C254.243 161.512 257.894 176.195 259.408 186.661C260.8 186.297 262.286 186.084 263.851 186.039Z" fill="#FF4237"/>
<path d="M268.174 85.7995C268.112 85.8009 268.052 85.7931 267.991 85.7829L268.168 85.8836C268.168 85.8661 268.171 85.8321 268.174 85.7995Z" fill="#F6F6F7"/>
<path d="M175.6 79.2141C178.338 80.6676 180.996 81.2127 182.755 81.5736C184.062 81.8415 184.875 82.0135 185.331 82.4656C188.917 82.219 192.604 82.0896 196.307 82.0896C204.379 82.0896 212.25 82.8508 219.701 84.3517C230.945 86.6109 241.531 90.6085 251.177 96.2306C254.729 95.3614 258.319 94.4699 260.124 94.0203L250.901 76.4162C234.73 68.5964 216.636 64.6235 197.097 64.6235C185.924 64.6235 175.069 65.6371 164.79 67.6143C165.52 68.4729 166.249 69.3372 166.962 70.187C170.262 74.1206 173.674 78.188 175.6 79.2141Z" fill="#F6F6F7"/>
<path d="M230.728 252.082C230.753 251.877 230.841 251.679 230.999 251.521C231.001 251.517 231.026 251.491 231.064 251.446C231.39 251.029 233.021 248.561 231.01 243.442C228.794 237.792 222.85 237.891 222.595 237.898C222.263 237.915 221.938 237.74 221.753 237.456C221.57 237.172 221.546 236.813 221.692 236.509C221.8 236.283 224.3 230.916 220.742 227.358C217.291 223.907 212.625 227.303 212.428 227.449C212.152 227.654 211.787 227.699 211.471 227.564C211.155 227.43 210.932 227.139 210.888 226.797C210.826 226.355 210.155 222.436 205.965 222.621C203.674 222.722 202.036 223.788 201.095 225.79C200.583 226.881 200.393 227.988 200.321 228.688C201.879 229.575 205.272 232.723 214.051 242.435C219.55 248.517 224.938 254.747 226.358 256.394C227.948 254.996 229.413 253.551 230.728 252.082Z" fill="#D8365D"/>
<path d="M206.803 268.483C210.237 266.95 213.46 265.288 216.413 263.529C214.971 262.38 211.8 259.096 204.032 249.982C203.966 250.036 203.896 250.086 203.815 250.123C203.661 250.193 200.038 251.913 201.152 255.816C202.232 259.585 204.267 259.251 204.353 259.237C204.69 259.173 205.045 259.292 205.27 259.549C205.495 259.806 205.579 260.16 205.473 260.485C205.457 260.537 203.827 265.735 206.803 268.483Z" fill="#D8365D"/>
<path d="M204.914 269.303C202.641 266.646 202.958 262.975 203.33 261.093C203.069 261.035 202.785 260.945 202.49 260.806C201.016 260.114 199.939 258.614 199.29 256.348C198.083 252.122 200.9 249.439 202.759 248.484C200.14 245.394 195.249 239.555 193.648 237.183C192.892 237.47 187.535 239.472 184.992 239.497C185.029 240.117 185.764 241.678 186.662 242.998C186.89 243.333 186.885 243.776 186.65 244.106C186.595 244.182 181.24 251.77 182.688 256.72C183.037 257.921 184.483 260.155 189.383 263.981C190.644 264.972 192.055 266.001 193.7 267.128C196.421 268.99 199.335 270.817 200.014 271.239C201.672 270.63 203.311 269.982 204.914 269.303Z" fill="#FE874F"/>
<path d="M116.356 283.726C115.221 283.766 114.077 283.801 112.928 283.836L112.274 283.856C112.298 286.122 112.453 295.691 112.49 297.976H187.852V276.77C186.844 276.88 185.163 277.064 182.971 277.301C176.107 278.046 162.581 279.498 149.122 280.858C131.895 282.598 120.871 283.563 116.356 283.726Z" fill="#FE874F"/>
<path d="M149.757 278.846C162.288 277.577 174.751 276.243 181.724 275.488C181.422 274.121 181.058 272.414 180.886 271.42C179.008 271.574 177.439 271.639 176.131 271.639C170.99 271.639 169.834 270.656 169.385 270.275C168.5 269.526 167.687 267.868 166.828 265.057C164.461 257.342 162.685 243.821 162.559 242.846C162.524 242.664 162.49 242.332 162.403 241.478C161.174 229.383 159.71 226.041 158.7 225.367C158.325 225.116 157.736 225.177 157.308 225.273C156.82 225.374 156.266 225.581 155.644 225.892C152.183 227.625 148.128 231.787 147.511 233.747C147.248 234.577 147.319 235.625 148.066 236.099C149.199 236.817 151.89 236.213 156.045 232.362C156.071 232.335 156.127 232.284 156.184 232.233C156.58 231.873 157.198 231.899 157.557 232.295C157.787 232.548 157.858 232.888 157.777 233.194L159.475 241.503C159.667 242.44 159.482 243.397 158.953 244.196C158.425 244.995 157.618 245.54 156.68 245.733L153.301 246.423L143.967 254.69C144.633 257.714 145.463 261.447 146.291 265.066C148.756 275.838 149.523 278.302 149.757 278.846Z" fill="#FE874F"/>
<path d="M102.735 193.71C103.586 192.644 104.819 191.261 106.394 189.909C110.392 186.478 114.812 184.815 119.23 185.072C121.951 172.462 128.711 152.461 145.225 138.553C141.634 135.602 137.343 130.493 132.98 123.974C110.158 141.414 100.727 166.96 96.8428 185.6C100.578 187.704 102.112 191.326 102.735 193.71Z" fill="#FF4237"/>
<path d="M141.189 232.277C141.058 232.339 140.916 232.37 140.773 232.37C140.624 232.37 140.476 232.336 140.34 232.268L134.865 229.531C134.387 229.292 134.193 228.71 134.432 228.231C134.671 227.752 135.254 227.559 135.732 227.797L140.098 229.98L143.757 213.579C143.874 213.057 144.393 212.731 144.914 212.844C145.436 212.961 145.765 213.479 145.648 214.001L141.719 231.612C141.654 231.903 141.459 232.148 141.189 232.277ZM157.337 243.127C157.579 242.76 157.664 242.321 157.576 241.892L156.139 234.859C151.059 239.114 148.276 238.527 147.029 237.735C145.627 236.847 145.078 235.009 145.663 233.163C146.431 230.725 150.496 226.599 154.038 224.559C154.031 224.533 154.02 224.51 154.015 224.483L150.231 205.97C150.142 205.54 149.891 205.168 149.524 204.925C149.157 204.682 148.718 204.598 148.289 204.686L126.108 209.22C125.675 209.31 125.303 209.56 125.061 209.927C124.819 210.293 124.735 210.732 124.823 211.163L132.169 247.084C132.256 247.516 132.506 247.886 132.873 248.129C133.24 248.373 133.68 248.457 134.11 248.369L156.291 243.834C156.722 243.746 157.094 243.494 157.337 243.127Z" fill="#FEB1A7"/>
<path d="M148.248 92.0288C146.068 92.8164 143.895 93.675 141.754 94.595C143.128 95.6484 144.521 96.7492 145.879 97.8226C148.58 99.9583 151.338 102.136 153.522 103.571C151.716 100.34 149.924 96.4231 148.248 92.0288Z" fill="#D8365D"/>
<path d="M69.3106 190.095C70.9158 191.263 72.2297 192.558 73.1856 193.62C73.331 176.489 77.6173 159.317 85.6212 143.898C94.0747 127.613 106.592 113.585 121.838 103.272C121.646 102.752 121.467 102.25 121.322 101.791C120.374 98.8018 120.52 96.1167 121.758 93.811C123.725 90.1453 127.778 88.7384 128.487 88.5155C130.49 87.3488 133.87 88.7447 139.973 93.2558C142.469 92.156 145.017 91.1366 147.571 90.2127C145.494 84.5039 143.779 78.4404 142.862 73.578C118.911 82.1666 98.3659 97.0465 83.3252 116.697C88.3824 119.995 93.8935 119.907 93.9531 119.91C93.9608 119.909 93.9686 119.909 93.9763 119.909C94.4749 119.909 94.894 120.289 94.9405 120.788C94.988 121.295 94.6353 121.752 94.1333 121.835C75.7535 124.862 74.8877 147.131 74.8814 147.356C74.8659 147.88 74.4361 148.296 73.9129 148.296H73.8983C73.3688 148.288 72.9439 147.857 72.9439 147.327C72.9439 143.183 72.2762 139.47 70.9749 136.248C62.7976 152.166 57.8765 169.877 56.6992 187.67C60.7884 186.226 65.1188 187.047 69.3106 190.095Z" fill="#F6F6F7"/>
<path d="M87.3417 144.791C79.6285 159.65 75.4318 176.164 75.1387 192.669C77.6411 189.011 82.7196 183.641 90.8242 183.98C92.3446 184.044 93.7554 184.313 95.0369 184.776C99.0505 165.819 108.714 140.02 131.911 122.352C128.09 116.45 124.612 110.034 122.567 105.124C107.75 115.233 95.5805 128.92 87.3417 144.791Z" fill="#D8365D"/>
<path d="M125.414 233.914C126.132 235.531 127.278 236.173 128.011 236.428L126.902 231.004C126.351 231.291 125.614 231.794 125.33 232.457C125.144 232.893 125.171 233.369 125.414 233.914Z" fill="#FE874F"/>
<path d="M123.414 226.211C123.768 227.628 125.408 228.362 126.429 228.688L125.256 222.95C124.503 223.479 123.042 224.723 123.414 226.211Z" fill="#FE874F"/>
<path d="M123.873 216.221C123.843 216.233 121.732 217.14 122.052 218.528C122.295 219.583 123.794 220.329 124.793 220.686L123.879 216.218C123.877 216.218 123.875 216.22 123.873 216.221Z" fill="#FE874F"/>
<path d="M64.9937 297.01C64.9564 297.261 64.986 297.566 65.4869 297.942C66.5514 298.74 67.281 298.544 69.4264 297.803C71.733 297.007 75.2171 295.809 81.3396 295.926C85.2897 296.004 87.1536 296.429 89.1269 296.879C91.4918 297.419 93.9365 297.976 100.589 297.976H102.812L103.024 284.149C95.1095 284.477 86.969 285.155 80.3968 287.544C70.7854 291.041 65.2868 295.031 64.9937 297.01Z" fill="#FE874F"/>
<path d="M71.8928 133.568C71.8947 133.572 71.8967 133.575 71.8981 133.578C72.8928 135.529 73.6408 137.667 74.1394 139.976C75.7993 133.602 79.7387 124.831 89.0464 121.213C86.761 120.658 83.9805 119.624 81.3613 117.695C81.3589 117.693 81.3564 117.691 81.354 117.689C81.354 117.689 81.3535 117.689 81.3531 117.689C81.3526 117.688 81.3516 117.687 81.3511 117.687C77.7818 115.071 75.3351 111.426 74.0386 106.805C72.543 112.503 68.6224 119.512 58.5439 121.997C62.5909 123.457 68.3705 126.664 71.8875 133.558C71.8894 133.561 71.8913 133.565 71.8928 133.568Z" fill="#FF874E"/>
<path d="M144.913 212.844C144.393 212.731 143.874 213.057 143.756 213.579L140.097 229.98L135.732 227.797C135.253 227.559 134.671 227.753 134.432 228.231C134.192 228.71 134.386 229.292 134.865 229.531L140.34 232.268C140.476 232.336 140.624 232.371 140.773 232.371C140.915 232.371 141.058 232.339 141.189 232.277C141.458 232.149 141.654 231.904 141.719 231.612L145.648 214.001C145.765 213.479 145.436 212.961 144.913 212.844Z" fill="#700051"/>
<path d="M103.025 284.15L102.812 297.976H100.589C93.9369 297.976 91.4921 297.419 89.1273 296.879C87.1539 296.429 85.2901 296.004 81.34 295.926C75.2174 295.809 71.7334 297.008 69.4267 297.803C67.2813 298.544 66.5517 298.741 65.4872 297.942C64.9863 297.567 64.9567 297.261 64.994 297.011C65.2871 295.031 70.7857 291.041 80.3966 287.545C86.9693 285.156 95.1098 284.478 103.025 284.15ZM110.552 297.976H104.751L104.964 284.075C106.756 284.009 108.562 283.959 110.336 283.912C110.362 286.267 110.513 295.614 110.552 297.976ZM186.771 325.336C186.712 325.336 186.655 325.343 186.599 325.353C186.543 325.343 186.486 325.336 186.427 325.336H22.9611L71.6321 266.402H144.609C146.502 274.636 147.351 277.773 147.772 279.046C131.25 280.709 120.658 281.632 116.287 281.79C115.155 281.829 114.014 281.864 112.868 281.899L111.131 281.953C108.776 282.013 106.342 282.077 103.953 282.173C95.5715 282.491 86.8361 283.142 79.7348 285.723C72.4078 288.389 63.6491 292.87 63.0769 296.726C62.9654 297.478 63.0914 298.568 64.3249 299.493C65.2014 300.15 66.0236 300.391 66.8579 300.391C67.8685 300.391 68.8971 300.037 70.059 299.636C72.3661 298.839 75.5231 297.751 81.3017 297.864C85.0531 297.938 86.823 298.341 88.6965 298.769C91.1655 299.332 93.7188 299.914 100.589 299.914H215.816C216.567 299.951 227.446 300.411 241.408 296.56C254.367 292.985 272.407 284.847 285.133 266.402H301.567L350.238 325.336H186.771ZM143.967 254.69L153.301 246.423L156.681 245.732C157.618 245.54 158.425 244.994 158.953 244.196C159.482 243.397 159.667 242.44 159.475 241.503L157.777 233.194C157.858 232.888 157.787 232.548 157.557 232.295C157.198 231.899 156.581 231.872 156.184 232.232C156.127 232.284 156.072 232.335 156.045 232.362C151.89 236.213 149.199 236.816 148.066 236.099C147.319 235.624 147.248 234.576 147.511 233.747C148.128 231.787 152.183 227.625 155.644 225.892C156.266 225.581 156.821 225.374 157.308 225.273C157.736 225.177 158.325 225.116 158.7 225.367C159.711 226.041 161.174 229.383 162.403 241.477C162.49 242.332 162.524 242.664 162.559 242.846C162.685 243.821 164.461 257.341 166.828 265.057C167.687 267.868 168.5 269.526 169.385 270.275C169.834 270.656 170.99 271.638 176.131 271.638C177.439 271.638 179.008 271.574 180.886 271.42C181.058 272.414 181.422 274.121 181.724 275.488C174.751 276.243 162.288 277.577 149.757 278.846C149.523 278.302 148.756 275.838 146.291 265.066C145.463 261.447 144.633 257.714 143.967 254.69ZM134.11 248.369C133.68 248.458 133.24 248.373 132.872 248.129C132.506 247.886 132.256 247.516 132.168 247.084L124.823 211.163C124.735 210.732 124.819 210.293 125.061 209.927C125.303 209.561 125.675 209.31 126.108 209.22L148.289 204.686C148.718 204.598 149.157 204.682 149.524 204.925C149.891 205.168 150.142 205.54 150.231 205.97L154.015 224.483C154.02 224.51 154.031 224.533 154.038 224.559C150.495 226.599 146.431 230.725 145.663 233.163C145.078 235.009 145.627 236.847 147.028 237.735C148.276 238.527 151.059 239.114 156.139 234.859L157.576 241.892C157.664 242.322 157.579 242.76 157.337 243.127C157.094 243.495 156.722 243.746 156.291 243.834L134.11 248.369ZM122.052 218.528C121.731 217.141 123.843 216.233 123.873 216.221C123.875 216.22 123.877 216.218 123.879 216.217L124.792 220.686C123.794 220.328 122.295 219.583 122.052 218.528ZM126.902 231.005L128.011 236.428C127.278 236.173 126.131 235.531 125.413 233.914C125.17 233.369 125.143 232.893 125.33 232.457C125.614 231.794 126.351 231.291 126.902 231.005ZM123.414 226.211C123.042 224.722 124.503 223.479 125.255 222.95L126.429 228.688C125.408 228.362 123.768 227.628 123.414 226.211ZM121.738 238.036C121.541 237.746 121.197 237.583 120.852 237.619C120.502 237.65 120.196 237.869 120.052 238.189C119.954 238.408 117.556 243.544 109.405 244.171C97.4557 245.091 92.5531 234.482 92.3511 234.03C92.2028 233.697 91.8792 233.475 91.5144 233.457C91.1529 233.44 90.8056 233.627 90.6248 233.944C90.5725 234.035 85.2993 243.057 74.7838 243.486C63.1302 243.961 61.7043 232.307 61.6496 231.811C61.6161 231.503 61.4373 231.229 61.168 231.075C60.8991 230.92 60.572 230.904 60.2886 231.031C60.2169 231.064 53.0168 234.239 47.2363 231.703C44.371 230.446 42.3022 227.96 41.0871 224.312C40.153 221.511 40.2896 218.961 41.4931 216.734C44.1777 211.768 51.2872 209.843 51.3584 209.824C51.6394 209.75 51.8719 209.554 51.9931 209.29C52.1137 209.026 52.1098 208.721 51.9819 208.46C51.7295 207.944 45.9039 195.756 55.4669 190.349C55.6941 190.221 55.9204 190.1 56.1491 189.991C60.0003 188.116 64.0313 188.668 68.1307 191.634C71.3012 193.928 73.3191 196.863 73.339 196.893C73.5386 197.186 73.8802 197.343 74.2343 197.312C74.5866 197.278 74.8928 197.054 75.0318 196.728C75.0342 196.723 75.2542 196.212 75.7009 195.424C77.384 192.446 82.2154 185.563 90.7416 185.916C92.4339 185.987 93.9572 186.341 95.2721 186.968C100.708 189.535 101.212 196.117 101.216 196.182C101.243 196.602 101.539 196.958 101.948 197.061C102.357 197.161 102.785 196.989 103.007 196.63C103.073 196.524 109.681 186.045 119.699 187.059C119.792 187.088 119.89 187.109 119.993 187.109C120.02 187.109 120.046 187.104 120.072 187.102C120.714 187.183 121.359 187.305 121.994 187.478C132.969 190.434 133.35 199.412 133.361 199.79C133.368 200.12 133.542 200.422 133.823 200.595C134.104 200.766 134.452 200.784 134.749 200.642C134.774 200.63 137.201 199.473 140.558 198.609C146.92 196.98 155.366 196.65 159.468 204.329C166.003 216.552 156.791 222.41 156.398 222.653C156.046 222.867 155.882 223.27 155.951 223.653C155.912 223.667 155.872 223.682 155.832 223.697L152.129 205.582C151.937 204.644 151.391 203.837 150.593 203.309C149.794 202.78 148.837 202.594 147.9 202.788L125.719 207.322C124.779 207.515 123.971 208.06 123.444 208.859C122.916 209.658 122.732 210.614 122.925 211.552L123.498 214.357C123.376 214.357 123.252 214.38 123.132 214.43C121.77 214.991 119.612 216.576 120.164 218.965C120.533 220.563 121.977 221.56 123.197 222.132C122.147 223.117 121.037 224.69 121.534 226.68C121.979 228.463 123.458 229.516 124.755 230.113C124.28 230.518 123.833 231.037 123.553 231.683C123.149 232.619 123.18 233.663 123.642 234.701C125.072 237.921 127.81 238.436 128.437 238.513L129.081 241.661C123.706 240.732 121.755 238.059 121.738 238.036ZM70.9746 136.248C72.2765 139.47 72.9436 143.183 72.9436 147.327C72.9436 147.857 73.369 148.288 73.8986 148.296H73.9131C74.4359 148.296 74.8656 147.88 74.8811 147.355C74.8879 147.131 75.7537 124.862 94.1331 121.835C94.6355 121.752 94.9877 121.295 94.9402 120.788C94.8937 120.289 94.4751 119.909 93.9761 119.909H93.9533C93.8937 119.907 88.3821 119.994 83.3249 116.697C98.3661 97.046 118.912 82.1666 142.861 73.578C143.778 78.4404 145.494 84.5038 147.572 90.2127C145.017 91.1366 142.468 92.1555 139.973 93.2558C133.87 88.7446 130.49 87.3488 128.488 88.5155C127.777 88.7379 123.726 90.1453 121.759 93.8105C120.521 96.1167 120.374 98.8018 121.322 101.791C121.467 102.249 121.646 102.752 121.838 103.272C106.591 113.585 94.0749 127.612 85.6214 143.898C77.6171 159.317 73.3312 176.489 73.1854 193.619C72.23 192.557 70.916 191.263 69.3109 190.095C65.119 187.046 60.7881 186.226 56.6995 187.67C57.8768 169.876 62.7978 152.165 70.9746 136.248ZM58.5439 121.997C68.6229 119.512 72.543 112.503 74.0386 106.805C75.3351 111.426 77.7818 115.071 81.3511 117.687C81.3521 117.687 81.3526 117.688 81.3535 117.689C81.3535 117.689 81.354 117.689 81.354 117.69C81.3569 117.691 81.3588 117.694 81.3613 117.695C83.9805 119.624 86.7615 120.658 89.0463 121.213C79.7387 124.831 75.7993 133.602 74.1394 139.976C73.6413 137.667 72.8933 135.529 71.8981 133.578C71.8966 133.575 71.8947 133.572 71.8928 133.568C71.8913 133.565 71.8894 133.562 71.8874 133.559C68.3705 126.664 62.5909 123.457 58.5439 121.997ZM145.831 62.8503C146.637 61.9065 147.639 61.2543 148.614 60.7979C147.618 62.6778 147.101 65.7039 147.803 70.7228C148.162 73.2708 148.804 76.2912 149.763 79.9564C150.491 82.734 151.707 85.9166 153.378 89.4166C156.974 96.9273 161.804 104.016 163.667 106.653C163.329 106.589 162.966 106.524 162.577 106.454C160.952 106.162 158.943 105.799 156.758 105.204C154.369 101.493 151.941 96.405 149.724 90.4525C147.368 84.1395 145.44 77.2853 144.568 72.1172C144.382 71.0164 144.245 70.0034 144.161 69.109C143.925 66.53 144.487 64.4244 145.831 62.8503ZM197.096 64.6235C216.635 64.6235 234.729 68.5964 250.9 76.4162L260.123 94.0198C258.318 94.4699 254.728 95.3614 251.176 96.2306C241.53 90.6085 230.944 86.6109 219.7 84.3517C212.249 82.8507 204.378 82.0896 196.306 82.0896C192.603 82.0896 188.917 82.219 185.33 82.4656C184.874 82.0135 184.061 81.8415 182.754 81.5736C180.995 81.2127 178.338 80.6676 175.599 79.2141C173.673 78.188 170.261 74.1206 166.961 70.187C166.248 69.3372 165.52 68.4728 164.789 67.6143C175.068 65.6371 185.923 64.6235 197.096 64.6235ZM267.661 85.6758C267.764 85.7335 267.877 85.7645 267.991 85.7829C268.051 85.7926 268.111 85.8008 268.172 85.7994C268.328 85.795 268.483 85.7563 268.622 85.6739C268.918 85.5 269.1 85.1918 269.1 84.8483C269.102 84.8105 269.11 84.7471 269.126 84.6414C269.454 82.1652 271.767 70.4496 273.045 65.5944C274.179 69.5106 276.167 78.3551 277.818 86.4166C277.881 86.7224 278.087 86.9796 278.372 87.107C278.657 87.2345 278.986 87.2161 279.256 87.0591C284.256 84.1405 291.744 79.8517 295.578 77.8212C293.134 81.6003 287.836 89.1138 284.25 94.0964C284.065 94.3536 284.017 94.685 284.123 94.9845C284.228 95.2834 284.474 95.5121 284.779 95.5964L301.001 100.07L284.81 103.977C284.505 104.05 284.255 104.266 284.138 104.557C284.021 104.848 284.052 105.177 284.221 105.441L294.637 121.706L278.971 110.961C278.705 110.778 278.364 110.74 278.064 110.86C277.764 110.98 277.543 111.242 277.476 111.558L273.376 130.798L269.803 111.016C269.75 110.72 269.562 110.466 269.295 110.328C269.155 110.256 269.003 110.219 268.85 110.219C268.71 110.219 268.57 110.249 268.439 110.311L254.131 117.007L262.798 105.334L263.016 105.039C263.21 104.777 263.259 104.435 263.146 104.129C263.033 103.823 262.774 103.594 262.457 103.52C262.455 103.519 262.148 103.448 261.607 103.317C255.842 101.952 249.657 100.471 245.819 99.5266C247.14 99.2112 248.903 98.7834 251.26 98.2054C256.417 96.9447 261.788 95.6022 261.788 95.6022C262.076 95.53 262.316 95.3299 262.437 95.0586C262.559 94.7873 262.549 94.4757 262.412 94.2122L253.942 78.0455L267.661 85.6758ZM325.766 196.688C320.338 195.995 314.984 199.413 312.351 201.444C312.225 199.205 311.541 195.673 308.843 192.608C305.774 164.558 294.809 138.337 277.938 118.686L279.069 113.378L297.483 126.009C297.863 126.27 298.374 126.227 298.705 125.905C299.036 125.585 299.095 125.076 298.847 124.687L286.587 105.542L288.25 105.141C308.982 128.799 322.618 162.082 325.766 196.688ZM132.979 123.975C137.342 130.494 141.634 135.602 145.225 138.553C128.711 152.462 121.95 172.463 119.23 185.072C114.812 184.815 110.392 186.478 106.393 189.91C104.819 191.261 103.586 192.644 102.734 193.711C102.112 191.327 100.577 187.704 96.8424 185.601C100.727 166.961 110.158 141.414 132.979 123.975ZM131.911 122.352C108.713 140.02 99.0497 165.819 95.0362 184.776C93.7547 184.313 92.3443 184.044 90.8235 183.98C82.7188 183.641 77.6403 189.011 75.1379 192.669C75.4315 176.164 79.6278 159.65 87.3409 144.791C95.5803 128.92 107.749 115.233 122.566 105.124C124.612 110.034 128.09 116.45 131.911 122.352ZM141.754 94.5949C143.895 93.6749 146.069 92.8163 148.248 92.0286C149.925 96.4229 151.716 100.34 153.523 103.571C151.338 102.136 148.581 99.9583 145.88 97.8231C144.521 96.749 143.128 95.6482 141.754 94.5949ZM213.395 104.547C209.048 103.788 204.491 103.314 199.828 103.146C198.509 103.094 197.107 103.068 195.662 103.068C190.029 103.068 184.559 103.395 179.294 104.03C176.367 99.3454 175.876 92.4883 176.62 91.3372C177.077 90.6317 179.535 88.8314 181.329 87.5174C183.509 85.92 184.672 85.0421 185.236 84.4132C188.85 84.1594 192.569 84.0276 196.306 84.0276C203.81 84.0276 211.131 84.7039 218.094 86.0223C216.527 88.0867 213.502 93.5034 213.395 104.547ZM245.473 148.878C234.776 133.47 219.164 124.844 199.065 123.222C198.755 120.814 197.539 109.819 200.561 105.472C200.636 105.364 200.685 105.247 200.712 105.126C205.321 105.334 209.816 105.839 214.085 106.637C236.388 110.788 253.973 122.845 266.35 142.472C277.928 160.834 281.997 181.474 283.393 192.142C283.41 192.27 283.451 192.388 283.511 192.493C281.938 194.118 280.781 195.808 280.008 197.118C278.654 193.065 274.714 185.719 263.851 186.039C262.286 186.084 260.799 186.297 259.407 186.661C257.893 176.195 254.243 161.512 245.473 148.878ZM160.363 131.216L162.461 130.295C171.625 126.484 182.136 124.664 193.71 124.889C195.164 124.918 196.635 124.984 198.084 125.086C217.978 126.488 233.385 134.865 243.881 149.983C252.531 162.445 256.083 176.997 257.537 187.272C250.857 189.861 248.421 195.75 247.651 198.377C245.943 197.512 242.514 196.03 238.579 195.718C238.503 192.235 237.851 180.628 232.673 169.332C225.134 152.885 211.159 143.994 192.26 143.621C174.559 143.27 160.749 149.662 151.225 162.608C140.919 176.618 139.17 194.157 139.198 196.971C137.484 197.455 136.069 197.982 135.136 198.361C134.943 197.273 134.518 195.654 133.59 193.899C132.096 191.076 128.959 187.346 122.5 185.607C122.058 185.486 121.61 185.39 121.162 185.309C124.519 169.876 134.008 143.333 160.354 131.221C160.357 131.219 160.36 131.217 160.363 131.216ZM241.718 98.4801C241.703 98.4801 241.689 98.4806 241.674 98.4811C241.688 98.4801 241.7 98.4801 241.711 98.4801H241.718ZM241.662 98.4816C241.194 98.5087 240.794 98.8706 240.739 99.3401C240.639 100.196 241.366 100.39 242.134 100.595C242.576 100.714 243.213 100.876 243.99 101.07C245.534 101.456 247.634 101.967 249.855 102.503C253.906 103.481 258.364 104.54 260.584 105.066L250.286 118.934C250.021 119.291 250.033 119.781 250.313 120.125C250.594 120.469 251.072 120.578 251.475 120.389L268.12 112.6L272.344 135.987C272.426 136.443 272.82 136.777 273.282 136.784H273.298C273.754 136.784 274.15 136.465 274.245 136.017L277.428 121.081C293.064 139.784 303.376 164.31 306.659 190.604C304.721 189.168 302.329 188.126 299.509 187.505C296.91 186.932 294.397 186.937 292.02 187.492C289.902 180.034 281.391 166.051 276.728 158.713C274.425 152.976 271.56 147.103 267.989 141.439C255.478 121.598 237.761 109.315 215.328 104.908C215.346 102.214 215.7 91.4389 220.087 86.6492C220.145 86.5862 220.189 86.5164 220.227 86.4443C230.243 88.5484 239.717 92.0591 248.436 96.9006C242.993 98.2262 241.876 98.4525 241.662 98.4816ZM167.145 108.208L169.428 107.69C169.543 107.664 169.649 107.614 169.745 107.55C177.801 105.865 186.516 105.006 195.662 105.006C196.652 105.006 197.619 105.019 198.554 105.045C195.757 110.077 196.714 120.033 197.093 123.088C195.978 123.024 194.859 122.973 193.747 122.952C183.289 122.749 173.655 124.187 165.058 127.225C164.934 127.202 164.804 127.2 164.676 127.228C164.632 127.074 164.55 126.928 164.428 126.807C160.483 122.861 159.144 117.279 159.636 115.976C159.904 115.261 162.242 113.492 163.638 112.436C166.145 110.54 167.037 109.803 167.202 108.989C167.264 108.687 167.234 108.43 167.145 108.208ZM126.722 101.027C127.604 103.61 128.991 106.743 130.962 110.607C132.395 113.41 134.484 116.538 137.172 119.904C142.538 126.609 148.876 132.471 150.721 134.135L146.648 137.216C143.018 134.298 138.562 128.949 134.02 122.042C129.774 115.582 125.902 108.396 123.914 103.286C123.912 103.283 123.911 103.28 123.91 103.278C123.91 103.277 123.91 103.276 123.909 103.276C123.617 102.528 123.368 101.831 123.17 101.205C122.387 98.7393 122.485 96.5639 123.459 94.7393C124.047 93.639 124.892 92.7839 125.75 92.1279C124.918 94.9549 125.808 98.3643 126.722 101.027ZM223.933 236.06C224.151 235.38 224.384 234.473 224.498 233.447C224.831 230.46 224.006 227.881 222.112 225.988C218.978 222.853 214.929 223.809 212.462 225.14C211.713 223.043 209.783 220.523 205.881 220.685C202.856 220.818 200.595 222.299 199.341 224.966C198.625 226.491 198.42 228.014 198.363 228.84C197.385 229.473 196.142 230.602 195.097 231.83C193.925 233.207 193.263 234.375 193.106 235.323C193.083 235.33 193.059 235.333 193.037 235.342C191.433 235.959 186.854 237.56 184.945 237.56C183.909 237.56 183.455 238.127 183.276 238.466C182.575 239.792 183.825 242.158 184.695 243.534C183.398 245.502 179.351 252.215 180.826 257.264C181.347 259.052 183.072 261.195 186.071 263.776H168.469C166.216 255.97 164.494 242.699 164.477 242.562C164.472 242.525 164.471 242.515 164.462 242.479C164.441 242.366 164.387 241.84 164.331 241.281C163.224 230.387 161.861 225.145 159.776 223.755C159.47 223.55 159.128 223.411 158.755 223.33C162.448 220.24 166.453 213.283 161.177 203.416C157.642 196.796 150.535 194.358 141.1 196.487C141.166 192.593 143.802 172.521 156.748 159.04C165.615 149.807 177.555 145.267 192.222 145.558C210.584 145.92 223.601 154.191 230.912 170.14C235.9 181.022 236.559 192.202 236.639 195.666C232.774 195.764 229.474 197.168 226.823 199.848C221.77 204.961 221.566 209.847 222.285 213.045C223.387 217.953 227.18 221.584 230.554 223.146C229.588 226.306 227.286 236.838 237.556 241.514C236.615 243.749 235.401 245.935 233.931 248.051C233.932 246.618 233.648 244.857 232.814 242.733C230.814 237.635 226.248 236.371 223.933 236.06ZM214.052 242.435C205.272 232.723 201.879 229.575 200.322 228.688C200.393 227.988 200.583 226.881 201.095 225.791C202.036 223.788 203.675 222.722 205.965 222.622C210.155 222.436 210.826 226.355 210.888 226.798C210.932 227.139 211.155 227.43 211.471 227.564C211.787 227.699 212.152 227.654 212.429 227.449C212.625 227.304 217.291 223.907 220.742 227.358C224.3 230.917 221.8 236.284 221.693 236.509C221.546 236.814 221.57 237.172 221.754 237.456C221.938 237.74 222.263 237.915 222.595 237.898C222.851 237.891 228.793 237.792 231.01 243.442C233.021 248.562 231.39 251.029 231.063 251.447C231.026 251.491 231.002 251.517 230.999 251.521C230.841 251.679 230.754 251.877 230.728 252.082C229.414 253.551 227.948 254.996 226.357 256.394C224.938 254.748 219.55 248.517 214.052 242.435ZM204.637 247.702C198.876 240.921 195.408 236.519 194.997 235.731C194.917 234.841 197.599 231.545 199.471 230.422C201.927 231.754 214.15 245.165 224.883 257.651C222.844 259.313 220.604 260.918 218.197 262.438C218.082 262.333 217.947 262.252 217.795 262.212C216.825 261.553 211.976 256.342 204.637 247.702ZM187.852 276.77V297.976H112.49C112.452 295.691 112.297 286.122 112.274 283.857L112.927 283.836C114.077 283.801 115.22 283.766 116.356 283.727C120.87 283.564 131.895 282.599 149.122 280.859C162.581 279.499 176.106 278.046 182.97 277.302C185.163 277.064 186.843 276.881 187.852 276.77ZM181.643 269.41C173.273 270.184 171.16 269.24 170.638 268.796C170.363 268.563 169.823 267.852 169.08 265.714H188.457C189.422 266.465 190.475 267.24 191.645 268.06C189.864 268.367 185.785 269.027 181.643 269.41ZM197.693 272.069C197.692 272.069 197.691 272.069 197.691 272.069C197.689 272.067 197.687 272.065 197.685 272.063C197.688 272.065 197.69 272.067 197.693 272.069ZM193.7 267.129C192.055 266.001 190.644 264.972 189.383 263.981C184.482 260.155 183.037 257.922 182.687 256.72C181.24 251.77 186.595 244.182 186.649 244.106C186.885 243.776 186.889 243.333 186.661 242.998C185.763 241.679 185.028 240.118 184.992 239.498C187.534 239.472 192.891 237.471 193.648 237.183C195.248 239.555 200.139 245.394 202.759 248.484C200.899 249.439 198.083 252.122 199.289 256.349C199.938 258.615 201.015 260.114 202.489 260.806C202.785 260.945 203.069 261.036 203.329 261.094C202.958 262.975 202.64 266.646 204.913 269.303C203.311 269.982 201.671 270.63 200.013 271.24C199.335 270.817 196.421 268.99 193.7 267.129ZM205.27 259.549C205.045 259.292 204.69 259.173 204.353 259.237C204.267 259.251 202.232 259.585 201.153 255.816C200.039 251.913 203.661 250.194 203.815 250.123C203.896 250.086 203.966 250.036 204.032 249.982C211.8 259.096 214.971 262.381 216.413 263.529C213.461 265.288 210.237 266.95 206.803 268.483C203.827 265.736 205.457 260.537 205.474 260.486C205.579 260.161 205.495 259.807 205.27 259.549ZM326.492 198.793C328.041 199.164 329.469 199.981 330.733 201.22C338.257 208.62 330.979 217.652 330.666 218.031C330.331 218.436 330.382 219.035 330.777 219.381C331.068 219.634 337.835 225.688 332.268 233.905C330.963 235.829 329.219 237.008 327.084 237.408C321.446 238.466 314.791 233.93 314.725 233.885C314.494 233.725 314.205 233.672 313.933 233.744C313.661 233.813 313.432 233.998 313.307 234.249C313.253 234.357 307.852 244.984 300.379 243.94C298.825 243.722 297.342 243.222 295.962 242.459C295.848 242.301 295.686 242.175 295.486 242.109C295.43 242.091 295.373 242.079 295.316 242.072C291.338 239.557 289.581 235.505 289.564 235.465C289.424 235.131 289.109 234.903 288.748 234.874C288.38 234.844 288.039 235.02 287.847 235.328C287.815 235.381 284.513 240.621 279.252 243.342C276.978 244.52 272.709 245.071 268.71 243.498C265.03 242.05 262.286 239.048 260.775 234.815C260.653 234.473 260.349 234.229 259.988 234.182C259.946 234.176 259.904 234.173 259.862 234.173C259.546 234.173 259.246 234.328 259.064 234.592C258.799 234.977 252.439 243.961 241 240.717C240.255 240.504 239.559 240.265 238.932 240.006C227.792 235.433 232.456 223.468 232.66 222.962C232.759 222.718 232.754 222.445 232.647 222.204C232.54 221.964 232.34 221.778 232.093 221.688C228.911 220.529 225.169 217.043 224.176 212.621C223.297 208.71 224.689 204.764 228.201 201.211C230.686 198.699 233.842 197.485 237.59 197.603C242.983 197.762 247.739 200.629 247.787 200.658C248.06 200.825 248.4 200.845 248.692 200.714C248.984 200.581 249.192 200.312 249.247 199.997C249.307 199.651 250.817 191.514 258.911 188.822C260.43 188.312 262.11 188.028 263.907 187.976C276.994 187.588 278.672 199.448 278.736 199.951C278.791 200.388 279.133 200.733 279.569 200.792C280.003 200.847 280.426 200.607 280.594 200.2C280.609 200.163 282.187 196.397 285.486 193.263C289.382 189.567 293.96 188.265 299.092 189.397C302.547 190.158 305.266 191.587 307.176 193.646C311.07 197.831 310.387 203.368 310.38 203.421C310.324 203.828 310.531 204.226 310.897 204.414C311.262 204.603 311.706 204.539 312.005 204.258C312.081 204.186 319.607 197.187 326.402 198.766C326.431 198.777 326.462 198.785 326.492 198.793ZM353.041 325.687L302.77 264.815C302.586 264.592 302.312 264.464 302.023 264.464H286.414C290.261 258.49 293.386 251.788 295.717 244.514C297.105 245.19 298.577 245.644 300.11 245.859C307.581 246.912 312.904 238.882 314.529 236.056C316.68 237.353 322.264 240.282 327.435 239.314C330.099 238.816 332.265 237.362 333.872 234.993C339.308 226.968 334.513 220.544 332.684 218.556C334.438 216.021 339.577 207.2 332.091 199.838C330.791 198.563 329.336 197.658 327.756 197.139C324.713 162.279 311.118 128.683 290.368 104.629L305.1 101.074C305.529 100.97 305.834 100.59 305.841 100.148C305.848 99.7059 305.555 99.3154 305.13 99.1976L286.634 94.0974C287.806 92.4588 290.081 89.2674 292.321 86.0581C299.054 76.4074 298.944 76.0717 298.747 75.4627C298.651 75.1695 298.401 74.9157 298.109 74.8183C297.604 74.6516 297.034 74.4612 279.443 84.7068C279.019 82.6758 278.158 78.5954 277.238 74.5276C274.516 62.4883 274.009 62.2955 273.365 62.0518C273.03 61.9244 272.659 61.9762 272.37 62.1923C271.986 62.4816 271.509 62.8411 269.428 72.7287C268.54 76.9447 267.734 81.1652 267.375 83.2994L252.05 74.7752C251.951 74.7209 251.847 74.687 251.74 74.6691C235.305 66.7228 216.929 62.6855 197.096 62.6855C185.406 62.6855 174.054 63.7766 163.334 65.9176C158.528 60.3997 154.754 56.9501 152.042 57.8537C151.238 57.9278 147.047 58.4544 144.369 61.5785C142.665 63.5663 141.946 66.1594 142.231 69.2882C142.299 70.0082 142.399 70.7965 142.528 71.6385C118.075 80.3401 97.0996 95.4995 81.762 115.55C77.5711 112.114 75.2721 106.886 74.9301 99.9893C74.9335 99.0441 74.8797 98.4694 74.8773 98.4452C74.8274 97.9287 74.3816 97.5426 73.8613 97.5707C73.3433 97.5978 72.9388 98.0286 72.9436 98.5474C72.949 99.0915 72.9654 99.578 72.9921 100.037C72.9805 102.484 72.5764 107.223 70.0173 111.591C66.8404 117.013 61.371 120.121 53.76 120.829C53.2658 120.875 52.887 121.287 52.8811 121.783C52.8758 122.279 53.246 122.699 53.7387 122.756C53.8487 122.769 64.6176 124.138 69.9393 134.028C61.0725 150.812 55.7998 169.642 54.6946 188.525C54.6936 188.539 54.6961 188.552 54.6961 188.566C54.6345 188.6 54.573 188.628 54.5115 188.664C45.1176 193.975 48.4669 204.881 49.8012 208.28C47.526 209.062 42.2348 211.296 39.793 215.804C38.3201 218.523 38.137 221.592 39.2484 224.924C40.6442 229.114 43.0696 231.992 46.4577 233.478C51.6176 235.742 57.5076 234.115 59.9451 233.246C60.7043 236.64 63.7891 245.885 74.8632 245.422C83.9252 245.052 89.3467 239.067 91.3855 236.289C93.2571 239.358 98.4775 246.165 107.972 246.165C108.486 246.165 109.014 246.145 109.554 246.103C116.463 245.573 119.795 242.083 121.113 240.186C122.379 241.33 124.979 243.066 129.495 243.685L130.269 247.471C130.459 248.408 131.004 249.216 131.803 249.746C132.397 250.138 133.078 250.342 133.773 250.342C134.014 250.342 134.257 250.317 134.499 250.268L140.741 248.992C141.061 250.478 142.589 257.536 144.166 264.464H71.1752C70.8865 264.464 70.6122 264.592 70.4281 264.815L20.1568 325.687C19.918 325.977 19.8676 326.378 20.0275 326.717C20.1869 327.057 20.5289 327.274 20.9039 327.274H186.427C186.486 327.274 186.543 327.266 186.599 327.256C186.655 327.266 186.712 327.274 186.771 327.274H352.294C352.67 327.274 353.011 327.057 353.171 326.717C353.331 326.378 353.28 325.977 353.041 325.687Z" fill="#700051"/>
</g>
<defs>
<clipPath id="clip0_23283_162558">
<rect width="375" height="375" fill="white"/>
</clipPath>
</defs>
</svg>
