<svg width="342" height="286" viewBox="0 0 342 286" fill="none" xmlns="http://www.w3.org/2000/svg">
<path d="M159.045 241.456C158.852 240.963 158.653 240.508 158.45 240.09L155.882 240.859C157.947 244.728 160.589 251.254 161.831 260.844C163.693 275.208 160.014 282.013 158.35 284.272H162.13C163.209 281.663 168.702 266.033 159.045 241.456Z" fill="#D8375D"/>
<path d="M82.437 256.505C70.3425 254.444 58.9374 252.481 51.4245 251.184C45.3364 250.133 41.5377 249.475 41.5377 249.475C41.0957 249.399 40.7999 248.979 40.8762 248.537C40.9525 248.095 41.3737 247.802 41.8145 247.876C41.8149 247.876 45.2199 248.465 50.7443 249.419L50.2057 238.09L15.6286 236.011C14.6038 237.16 10.6408 241.76 7.27552 247.779C0.872921 259.232 1.50523 266.947 3.1631 271.404C7.81002 283.889 19.4001 284.068 19.8912 284.069C19.9054 284.069 19.9208 284.07 19.935 284.07L23.5978 284.272H135.369C135.368 284.253 135.366 284.236 135.367 284.217L136.154 271.597L82.437 256.505Z" fill="#F6F6F6"/>
<path d="M49.5525 192.956C49.7173 192.936 49.882 192.965 50.0265 193.04C51.404 193.291 52.7997 193.622 54.1905 194.025C55.0667 191.419 57.8995 187.663 60.2834 186.668C61.0091 186.367 61.7347 186.184 62.4372 186.008C63.8151 185.661 65.0058 185.362 65.9178 184.265C66.9807 182.989 67.6203 180.857 67.6296 178.559C67.6333 177.711 67.6049 176.85 67.5424 175.926C67.4859 175.08 68.3682 174.746 69.1467 174.45C69.2639 174.406 69.4206 174.346 69.5602 174.289C69.3447 173.875 68.9437 173.226 68.6519 172.754C67.7936 171.364 67.3066 170.549 67.285 169.955C67.1848 167.458 66.2416 165.103 65.2741 163.377C64.9336 167.58 61.8439 172.262 59.2018 174.153C58.9701 174.319 58.6674 174.351 58.4056 174.237C58.1438 174.124 57.9612 173.881 57.9243 173.598C57.6207 171.264 56.0963 170.491 55.2144 170.237C53.4137 169.719 51.3443 170.411 50.0659 171.96C48.9307 173.338 48.9165 175.119 50.0273 176.721C51.1515 178.342 53.4003 179.604 55.5277 178.874C55.8455 178.764 56.1986 178.863 56.4141 179.121C56.6296 179.379 56.6637 179.744 56.4997 180.037C55.4141 181.978 54.0148 182.607 50.2745 184.287C49.2489 184.747 48.089 185.269 46.6856 185.924L41.2148 192.539C43.7867 192.318 46.6243 192.456 49.5525 192.956Z" fill="white"/>
<path d="M34.9089 194.034C36.0912 193.521 37.4167 193.131 38.8428 192.861L44.9511 185.475C43.1849 184.373 41.596 183.058 40.3229 180.511C40.3087 180.582 40.2977 180.658 40.2831 180.728C39.566 184.172 37.2835 188.218 33.2113 188.286C33.1861 188.286 33.1598 188.286 33.1346 188.286C30.3537 188.286 26.5981 185.983 24.8375 180.88C23.2945 176.382 22.8188 167.782 26.6983 163.606C28.471 161.7 30.8347 161.003 33.3566 161.645C35.8915 162.29 38.2551 164.251 39.5932 166.648C40.7766 163.781 42.9138 161.461 43.9284 160.466C48.1135 156.347 57.055 153.974 62.3091 157.088C63.4832 157.783 64.3217 158.739 64.8087 159.935C64.8765 159.978 64.9402 160.027 64.995 160.091C66.3663 161.688 68.7336 165.549 68.9073 169.893C68.9633 170.168 69.6334 171.253 70.0335 171.901C70.8213 173.176 71.2701 173.924 71.3233 174.464C71.4093 175.329 70.5132 175.668 69.7226 175.968C69.5692 176.026 69.3485 176.11 69.1853 176.183C69.234 177.004 69.2567 177.804 69.2531 178.566C69.2429 181.228 68.4625 183.747 67.1654 185.303C65.9154 186.807 64.3485 187.201 62.8326 187.582C62.1585 187.751 61.5214 187.911 60.9085 188.167C59.012 188.958 56.4727 192.339 55.7389 194.503C58.5092 195.419 61.1362 196.577 63.5558 197.958C64.7701 198.653 68.555 200.711 74.0554 203.622C81.7929 196.432 86.2218 186.301 86.2218 175.729C86.2218 154.734 69.1407 137.652 48.1451 137.652C27.15 137.652 10.0688 154.734 10.0688 175.729C10.0688 186.446 14.5822 196.644 22.4796 203.853C25.5214 199.51 29.4938 196.376 34.9089 194.034Z" fill="#FE874F"/>
<path d="M172.839 187.442C172.698 186.783 172.55 186.092 172.384 185.384C169.668 186.125 156.163 188.674 150.737 189.689L146.144 191.876C146.034 191.928 145.915 191.955 145.795 191.955C145.741 191.955 145.687 191.95 145.634 191.939C145.553 191.923 145.475 191.895 145.398 191.864C140.397 197.576 130.288 202.882 127.437 204.312C127.845 205.071 128.282 205.786 128.741 206.453C128.831 206.535 128.904 206.636 128.95 206.751C130.566 209.024 132.445 210.715 134.695 211.912C143.65 216.661 154.095 208.344 154.2 208.26L173.92 192.51C174.016 192.433 174.124 192.384 174.235 192.357C174.186 192.249 174.136 192.146 174.086 192.031C173.555 190.789 173.223 189.238 172.839 187.442Z" fill="#D8375D"/>
<path d="M161.218 162.462C162.612 164.877 164.498 167.582 166.322 170.198C168.541 173.38 170.637 176.385 171.879 178.868C172.228 179.563 172.546 180.309 172.849 181.147C173.593 183.196 174.036 185.271 174.428 187.103C174.794 188.816 175.11 190.295 175.58 191.392C175.735 191.754 175.89 192.073 176.04 192.34C176.26 192.733 176.431 192.952 176.545 193.072C176.592 192.965 176.649 192.801 176.704 192.557C176.945 191.468 176.354 188.413 175.703 186.037V186.036C175.703 186.034 175.702 186.033 175.702 186.031C175.696 186.015 175.698 185.996 175.693 185.979C175.686 185.942 175.678 185.905 175.676 185.868C175.673 185.837 175.662 185.808 175.662 185.778C175.662 185.329 176.025 184.966 176.474 184.966C176.849 184.966 177.165 185.221 177.258 185.568C177.259 185.573 177.261 185.58 177.263 185.586C177.794 187.102 179.043 189.882 180.412 190.839C181.957 191.921 188.793 192.92 192.078 192.314L190.342 191.157C190.174 191.045 190.054 190.875 190.004 190.678C189.356 188.093 188.231 186.997 186.928 185.727C185.933 184.758 184.806 183.66 183.885 181.814C182.703 179.454 181.287 176.499 179.557 172.78C179.349 172.327 179.138 171.874 178.923 171.413C175.244 163.447 170.885 153.644 166.708 144.218C161.989 145.999 156.263 151.039 154.856 152.319C158.001 157.185 160.142 160.599 161.218 162.462Z" fill="#D8375D"/>
<path d="M233.553 207.094C234.344 206.887 234.897 206.828 234.926 206.825C234.953 206.822 234.98 206.821 235.008 206.821H235.009C259.523 206.876 305.435 206.948 310.041 206.843C310.589 204.369 311.915 190.637 312.321 174.29C312.694 159.254 312.364 139.219 308.67 129.162C303.473 115.017 291.083 114.326 290.558 114.304C290.256 114.291 289.984 114.11 289.856 113.836C288.581 111.102 284.167 108.012 281.913 106.564C283.288 113.628 284.225 119.359 284.505 122.441C284.546 122.887 284.217 123.282 283.77 123.323C283.324 123.357 282.929 123.034 282.888 122.588C282.592 119.322 281.537 112.992 279.995 105.221C277.655 93.424 275.045 82.4276 273.646 78.4796C271.986 73.8022 267.396 63.5104 261.555 54.3298C257.468 47.8936 253.596 43.2925 250.047 40.6541C247.662 38.8822 244.679 39.0088 242.262 40.9841C239.615 43.1375 238.288 46.8761 238.713 50.9865C238.77 51.5344 238.862 52.1119 238.987 52.7032C239.619 55.6338 241.981 60.0762 244.715 65.2207C246.534 68.6419 248.596 72.5202 250.424 76.4938C253.45 83.0717 255.225 88.6314 255.849 93.4905C256.044 95.0177 256.232 96.8059 256.409 98.8067C257.018 105.747 257.472 114.961 257.654 124.085C257.827 132.621 257.748 140.268 257.429 146.226C257.456 146.36 257.448 146.499 257.407 146.631C257.071 152.741 256.481 156.79 255.652 158.659C254.657 160.896 253.04 162.23 250.976 162.517C246.197 163.178 240.122 158.17 236.377 153.675C235.228 152.296 234.226 150.646 233.314 148.633C232.405 146.617 231.682 144.472 230.916 142.201C229.083 136.763 227.005 130.6 221.691 125.065C221.139 124.49 220.571 123.945 220.003 123.444C215.506 119.467 210.57 117.844 206.461 118.988C203.856 119.713 201.925 121.521 201.163 123.951C199.974 127.745 201.804 130.711 204.575 135.2C206.096 137.667 207.822 140.463 209.482 144.062C211.907 149.314 212.722 153.476 213.667 158.294C214.617 163.144 215.695 168.64 218.663 176.756C224.032 191.435 232.003 204.594 233.546 207.083C233.549 207.088 233.551 207.09 233.553 207.094Z" fill="#FFB0A8"/>
<path d="M258.924 251.48C260.291 251.609 275.118 251.533 284.9 251.448H310.333C310.843 251.448 311.312 251.406 311.727 251.325C315.429 250.648 316.127 247.153 316.215 245.13C316.321 242.709 315.935 240.521 315.485 238.643C315.457 238.646 315.43 238.651 315.402 238.651H228.119C227.672 240.516 227.281 242.698 227.39 245.129C227.493 247.489 228.394 251.448 233.271 251.448H258.697C258.776 251.448 258.852 251.458 258.924 251.48Z" fill="#FF4239"/>
<path d="M314.835 236.166C314.357 234.424 313.906 232.779 313.809 231.256C313.507 226.455 313.968 223.478 314.376 220.852C314.379 220.835 314.381 220.819 314.384 220.802H229.22C229.223 220.821 229.225 220.84 229.228 220.859C229.636 223.484 230.098 226.459 229.796 231.255C229.7 232.775 229.249 234.419 228.771 236.158C228.693 236.443 228.614 236.734 228.535 237.028H315.071C314.992 236.736 314.913 236.449 314.835 236.166Z" fill="#D8365C"/>
<path d="M314.623 219.179C314.814 217.775 314.962 216.224 314.875 214.305C314.661 209.536 311.143 208.586 310.44 208.444L310.398 208.439L310.399 208.429C309.861 208.479 308.925 208.484 307.232 208.493C305.162 208.505 302.21 208.513 298.668 208.517C292.403 208.524 283.674 208.521 272.722 208.508C254.411 208.487 236.109 208.447 235.054 208.444C234.896 208.464 234.226 208.559 233.385 208.834C233.385 208.834 233.384 208.835 233.383 208.835C231.342 209.496 228.877 210.982 228.729 214.304C228.642 216.226 228.789 217.776 228.979 219.179H314.623Z" fill="#FF4239"/>
<path d="M291.485 253.071H284.906C284.848 253.071 278.341 253.128 271.89 253.156C268.723 253.169 266.303 253.178 264.449 253.178C260.778 253.178 259.328 253.146 258.696 253.062V253.071H234.071L233.636 283.971C233.634 284.078 233.611 284.179 233.572 284.272H313.424L312.407 270.036C309.476 261.639 296.83 255.233 291.485 253.071Z" fill="#FFB0A8"/>
<path d="M256.042 139.833C255.069 137.785 252.849 137.527 251.52 137.573C251.076 141.377 250.332 144.091 249.294 145.689C250.427 146.398 252.968 147.545 255.819 145.934C255.917 144.058 255.992 142.016 256.042 139.833Z" fill="#FFB0A8"/>
<path d="M247.553 145.308C248.986 143.778 249.733 139.81 250.091 135.476C248.585 130.503 242.89 128.15 240.568 127.382C240.756 128.972 240.929 130.532 240.997 131.754L241.025 132.216C241.196 134.949 241.684 142.756 239.027 146.704C240.574 147.272 244.685 148.366 247.553 145.308Z" fill="#FFB0A8"/>
<path d="M239.794 41.1675H228.185C227.911 41.1675 227.657 41.1692 227.422 41.1704C225.738 41.1793 224.891 41.1842 224.287 40.5807C223.681 39.9752 223.686 39.1209 223.695 37.42L223.697 36.6785V23.0101C223.697 21.4277 222.411 20.1404 220.832 20.1404H217.471C215.891 20.1404 214.606 21.4277 214.606 23.0101V36.6785C214.606 37.1951 214.616 37.6387 214.624 38.0198C214.653 39.3627 214.67 40.1026 214.132 40.6456C213.58 41.2032 212.799 41.1943 211.251 41.1761C210.918 41.172 210.542 41.1675 210.117 41.1675H196.444C194.864 41.1675 193.579 42.4545 193.579 44.0364V47.3932C193.579 48.9727 194.864 50.258 196.444 50.258L210.534 50.2576C212.521 50.2576 213.439 50.2544 214.062 50.8847C214.645 51.4743 214.634 52.2755 214.615 53.7292C214.611 54.0332 214.606 54.3725 214.606 54.7511V68.4196C214.606 70.0019 215.891 71.2893 217.471 71.2893H220.832C222.411 71.2893 223.697 70.0019 223.697 68.4196L223.695 54.0389C223.686 52.4102 223.681 51.5133 224.298 50.894C224.935 50.2548 225.886 50.2572 227.787 50.2576L237.031 50.258C236.862 46.7442 237.86 43.5101 239.794 41.1675Z" fill="white"/>
<path d="M221.603 122.711C222.027 123.105 222.449 123.512 222.862 123.941C228.427 129.738 230.567 136.084 232.455 141.682C233.162 143.782 233.838 145.767 234.645 147.611C234.765 147.517 234.914 147.454 235.078 147.44C235.833 147.378 236.469 147.096 237.023 146.58C239.077 144.674 239.878 139.876 239.404 132.318L239.376 131.845C239.294 130.384 239.053 128.38 238.821 126.442C238.031 119.868 237.949 117.995 238.875 117.342C239.21 117.107 239.626 117.085 240.018 117.28C240.725 117.632 244.858 119.138 251.355 121.412C253.308 122.094 255.019 122.687 256.007 123.03C255.819 114.599 255.403 106.184 254.85 99.6448C253.106 99.3526 243.654 98.0644 230.325 101.807C223.669 103.673 221.068 109.855 221.63 122.479C221.634 122.56 221.621 122.637 221.603 122.711Z" fill="#FFB0A8"/>
<path d="M146.802 140.019C147.002 140.32 147.28 140.741 147.625 141.264C149.152 143.575 151.569 147.256 153.96 150.937C155.696 149.368 161.22 144.587 166.049 142.733L165.388 141.243C163.724 137.491 162.094 133.816 160.548 130.345C156.708 134.504 151.993 137.822 146.802 140.019Z" fill="#F6F6F6"/>
<path d="M48.1452 215.429C45.2905 215.429 42.45 215.123 39.6846 214.521C40.1152 218.355 42.1294 221.25 45.2126 222.37C48.6874 223.631 52.7998 222.347 56.1152 219.017C55.5608 218.803 55.0657 218.618 54.5961 218.449C54.174 218.298 53.9545 217.833 54.1062 217.411C54.2576 216.989 54.7223 216.769 55.1444 216.921C55.8989 217.192 56.6963 217.495 57.7296 217.905C59.1399 218.469 60.6598 219.113 62.661 219.995C63.7333 220.469 64.8047 220.951 65.8725 221.432C70.2182 223.388 74.323 225.236 78.1237 226.424C80.0145 227.014 82.7694 227.889 86.0271 228.923C92.2531 230.9 100.001 233.361 107.26 235.598C117.392 238.722 123.819 240.555 126.364 241.048C126.517 241.078 126.655 241.105 126.782 241.124C127.417 241.224 128.054 241.329 128.698 241.437C133.999 242.319 139.48 243.231 142.772 240.951C146.574 238.318 151.628 235.37 153.505 234.994C154.303 234.835 155.246 234.945 156.163 235.302C156.201 235.316 156.236 235.337 156.274 235.352C156.383 235.396 156.491 235.444 156.598 235.497C158.149 236.234 159.433 237.618 160.236 239.454C161.198 241.646 162.366 242.364 162.886 242.176C163.285 242.031 163.519 241.221 163.165 240.006C162.08 236.291 157.528 229.212 152.696 228.93C150.325 228.786 147.857 229.678 144.995 230.707C141.921 231.811 138.438 233.063 134.366 233.224C133.023 233.281 130.45 232.553 126.497 231.001C126.496 231.001 126.495 231 126.494 231C126.439 230.979 126.386 230.959 126.33 230.933C121.37 228.987 114.207 225.734 105.078 221.28C93.0851 215.431 80.8311 209.037 74.2945 205.585C67.0571 211.932 57.7978 215.429 48.1452 215.429Z" fill="white"/>
<path d="M105.627 123.16C109.326 117.408 117.137 115.254 117.927 115.049C118.356 114.883 120.879 114.008 125.004 114.401C125.023 114.403 125.043 114.406 125.062 114.409C125.065 114.409 125.174 114.428 125.374 114.459L125.752 108.611C125.756 108.547 125.769 108.487 125.787 108.429C124.13 106.619 123.349 104.116 122.984 102.103C122.97 102.105 122.957 102.109 122.942 102.111C122.87 102.116 122.791 102.117 122.719 102.117C120.998 102.117 119.611 100.883 119.01 98.8152C118.37 96.6196 118.716 93.7089 120.4 92.6375C120.513 92.5648 120.627 92.5015 120.74 92.4427C120.754 89.7584 121.131 86.8847 123.572 83.9995C125.353 81.894 128.043 80.7722 131.14 80.851C133.441 80.9118 135.765 81.4329 138.011 81.9366C138.374 82.0182 138.733 82.0985 139.089 82.1765C142.106 82.8339 144.144 84.2308 145.323 86.448C146.122 87.9585 146.365 89.6976 146.024 91.4784C145.877 92.2398 145.59 92.9029 145.312 93.5441C145.076 94.0904 144.852 94.6066 144.743 95.1282C144.731 95.1886 144.709 95.245 144.685 95.299C144.793 95.4634 144.895 95.6411 144.989 95.8359C145.902 97.7357 145.092 100.078 144.029 101.635C142.866 103.34 141.273 104.367 139.82 104.367C139.76 104.367 139.7 104.364 139.641 104.361C139.267 105.297 138.873 106.085 138.487 106.663L138.265 106.998C138.003 107.395 137.735 107.798 137.446 108.189C137.512 108.281 137.562 108.386 137.585 108.504L138.949 115.318C139.379 115.293 139.791 115.261 140.188 115.221C149.382 114.278 156.954 118.353 160.44 126.127L160.986 127.346C166.44 120.59 169.436 112.154 169.436 103.44C169.436 82.4423 152.353 65.3595 131.356 65.3595C110.36 65.3595 93.2788 82.4423 93.2788 103.44C93.2788 112.874 96.722 121.834 102.989 128.827C104.056 125.9 104.996 124.146 105.627 123.16Z" fill="#FF4239"/>
<path d="M160.221 261.053C159.132 252.646 156.907 246.703 155.232 243.197C154.971 242.649 154.715 242.146 154.467 241.679L147.352 248.549C147.345 248.881 147.339 249.213 147.333 249.541C147.259 253.892 147.189 258.001 145.315 259.706C144.253 260.671 143.038 261.662 141.691 262.665C143.368 263.226 146.115 264.01 147.412 263.826C147.708 263.784 148.269 263.814 148.748 264.48C149.861 266.027 150.094 270.822 147.946 275.118C147.465 276.079 146.828 276.884 146.212 277.662C144.806 279.436 143.591 280.968 144.329 284.081C144.344 284.145 144.348 284.209 144.348 284.272H156.289C156.332 284.166 156.395 284.066 156.484 283.983C156.54 283.928 162.422 278.023 160.221 261.053Z" fill="white"/>
<path d="M118.487 116.573C118.451 116.587 118.412 116.6 118.375 116.61C118.296 116.63 110.456 118.652 106.993 124.038C106.354 125.034 105.369 126.899 104.239 130.161C105.46 131.401 106.774 132.569 108.16 133.632C114.861 138.791 122.881 141.517 131.355 141.517C136.187 141.517 140.896 140.624 145.35 138.862C150.869 136.68 155.861 133.178 159.823 128.722L158.958 126.79C155.772 119.688 148.812 115.968 140.35 116.837C139.695 116.902 139.015 116.948 138.267 116.978C133.71 117.153 128.624 116.56 125.995 116.192C125.349 116.101 124.933 116.034 124.821 116.015C120.83 115.639 118.51 116.563 118.487 116.573Z" fill="#F6F6F6"/>
<path d="M140.123 160.154C140.854 157.701 144.153 146.705 145.98 141.718C145.651 141.219 145.403 140.846 145.258 140.626C140.817 142.287 136.145 143.14 131.355 143.14C122.944 143.14 114.963 140.558 108.188 135.67C107.802 138.522 107.49 141.588 107.258 144.805C106.73 152.012 106.703 158.276 106.711 160.318C110.026 160.729 125.586 162.428 140.123 160.154Z" fill="#F6F6F6"/>
<path d="M133.09 94.8875C132.929 95.8647 132.498 96.7661 132.081 97.6379C131.802 98.2219 131.533 98.784 131.355 99.342C131.781 99.4061 132.151 99.4987 132.474 99.6204C132.894 99.7791 133.106 100.247 132.947 100.667C132.824 100.991 132.515 101.192 132.188 101.192C132.092 101.192 131.996 101.175 131.901 101.139C131.523 100.996 130.99 100.906 130.318 100.87C130.093 100.858 129.883 100.752 129.738 100.579C129.594 100.407 129.528 100.181 129.556 99.9569C129.695 98.8655 130.163 97.8858 130.616 96.9378C131.001 96.133 131.364 95.3728 131.488 94.6232C131.561 94.1805 131.974 93.8822 132.422 93.954C132.863 94.0275 133.163 94.4451 133.09 94.8875ZM139.578 91.357C139.102 89.2901 135.882 86.9049 132.431 86.9049C132.416 86.9049 132.4 86.9053 132.385 86.9053C128.617 86.9289 125.936 89.7316 124.835 94.7974V94.7986C124.568 96.0202 124.39 97.3972 124.305 98.8915C124.294 99.0616 124.297 100.017 124.504 101.352C124.819 103.388 125.589 106.161 127.456 107.801C128.039 108.316 128.711 108.688 129.453 108.908C132.987 109.957 134.466 109.07 135.445 108.065C135.985 107.506 136.435 106.825 136.911 106.104L137.138 105.762C137.542 105.157 137.986 104.209 138.388 103.092C139.203 100.829 139.74 98.2133 139.875 95.885C139.862 95.7852 139.867 95.6837 139.891 95.5859C139.966 94.0198 139.863 92.5969 139.578 91.357Z" fill="#D8375D"/>
<path d="M143.526 96.5389C143.325 96.1204 143.099 95.8449 142.858 95.7207C142.429 95.508 141.836 95.8631 141.484 96.146C141.345 98.256 140.905 100.573 140.238 102.684C141.049 102.493 141.965 101.781 142.689 100.721C143.688 99.2556 144.025 97.5758 143.526 96.5389Z" fill="#D8375D"/>
<path d="M128.989 110.464C128.39 110.286 127.831 110.024 127.308 109.698L126.986 114.688C128.922 114.942 131.75 115.251 134.677 115.352C133.888 114.162 133.073 111.899 132.757 110.976C132.586 110.988 132.413 110.998 132.234 110.998C131.262 110.998 130.186 110.819 128.989 110.464Z" fill="#D8375D"/>
<path d="M126 229.056C126.552 218.895 126.999 211.769 127.362 207.31C126.733 206.389 126.142 205.385 125.609 204.313C125.453 204.002 125.302 203.683 125.153 203.361C125.148 203.362 125.143 203.363 125.138 203.363L105.734 203.554H105.726C105.64 203.554 105.559 203.537 105.481 203.512C105.68 209.202 105.946 214.762 106.272 220.056C114.564 224.094 121.194 227.118 126 229.056Z" fill="#D8375D"/>
<path d="M110.763 256.268L124.661 255.865C124.747 253.997 124.985 248.844 125.301 242.487C125.301 242.485 125.302 242.484 125.302 242.483C122.411 241.837 116.614 240.173 107.658 237.42C108.555 246.105 109.623 252.593 110.763 256.268Z" fill="#D8375D"/>
<path d="M123.119 95.118C123.019 95.0161 122.943 94.8883 122.907 94.7393C122.862 94.5563 122.659 93.9893 122.32 93.7852C122.23 93.7308 122.095 93.676 121.843 93.7401C121.675 93.7831 121.478 93.8745 121.276 94.0051C120.401 94.5611 120.067 96.6362 120.569 98.3615C120.8 99.1577 121.388 100.494 122.719 100.494C122.733 100.494 122.746 100.493 122.76 100.493C122.682 99.6947 122.667 99.0676 122.684 98.7953C122.759 97.4808 122.907 96.2503 123.119 95.118Z" fill="#D8375D"/>
<path d="M105.693 143.966C105.947 140.639 106.287 137.475 106.705 134.548C105.649 133.712 104.631 132.824 103.668 131.887C102.745 134.813 101.878 138.258 101.082 142.146L105.583 143.91C105.623 143.925 105.658 143.945 105.693 143.966Z" fill="#F6F6F6"/>
<path d="M105.093 161.041C105.092 160.969 104.996 153.932 105.587 145.412C105.492 145.451 105.392 145.478 105.287 145.478C105.189 145.478 105.088 145.459 104.991 145.422L100.76 143.764C100.479 145.219 100.208 146.73 99.9516 148.277C99.2446 152.542 98.5408 159.774 97.9199 166.154C97.4244 171.247 96.997 175.645 96.6776 177.336C95.5421 183.357 94.8521 186.398 94.3481 188.619C93.9459 190.391 93.6801 191.562 93.411 193.27C92.8249 196.958 93.7762 199.813 95.2162 204.134C95.954 206.345 96.663 206.844 96.8736 206.851C96.9414 206.856 97.0916 206.726 97.1622 206.566C97.2352 206.133 96.8809 204.347 96.6216 203.039C96.1383 200.601 95.6383 198.081 95.9021 196.675C96.6464 192.698 97.7884 190.192 99.2949 189.228C99.8562 188.869 100.458 188.745 100.989 188.879C102.113 189.158 101.856 190.48 101.294 193.378C100.923 195.284 100.416 197.894 100.737 198.804C100.908 199.29 101.201 199.869 101.627 199.869H101.631C102.376 199.863 103.445 198.66 103.683 198.048C103.531 192.432 103.453 187.134 103.453 182.3C103.453 175.321 104.041 168.51 105.242 161.493C105.151 161.364 105.095 161.209 105.093 161.041Z" fill="#D8375D"/>
<path d="M72.7537 204.771C67.5066 201.99 63.9741 200.068 62.7497 199.368C60.216 197.922 57.4437 196.724 54.5106 195.81C52.9209 195.317 51.3183 194.926 49.7407 194.638C48.3049 195.476 41.039 200.209 39.7217 210.881C39.6385 211.55 39.5946 212.204 39.5918 212.833C42.382 213.476 45.2553 213.805 48.145 213.805C57.1949 213.805 65.884 210.601 72.7537 204.771Z" fill="white"/>
<path d="M132.42 93.954C131.973 93.8822 131.56 94.1805 131.487 94.6229C131.364 95.3729 131 96.133 130.615 96.9378C130.162 97.8859 129.693 98.8656 129.555 99.9569C129.527 100.181 129.592 100.406 129.737 100.579C129.881 100.752 130.092 100.858 130.317 100.87C130.989 100.906 131.521 100.996 131.9 101.139C131.994 101.175 132.091 101.192 132.187 101.192C132.514 101.192 132.823 100.991 132.946 100.667C133.105 100.247 132.893 99.7791 132.473 99.6204C132.15 99.4987 131.78 99.4061 131.353 99.3416C131.532 98.7836 131.801 98.2219 132.08 97.6379C132.496 96.7661 132.928 95.8647 133.089 94.8875C133.162 94.4451 132.862 94.0275 132.42 93.954Z" fill="#700051"/>
<path d="M233.572 284.272C233.611 284.179 233.634 284.078 233.636 283.971L234.071 253.071H258.696V253.062C259.328 253.146 260.778 253.177 264.449 253.177C266.303 253.177 268.724 253.169 271.89 253.155C278.341 253.127 284.848 253.071 284.906 253.071H291.485C296.83 255.233 309.476 261.638 312.407 270.036L313.424 284.272H233.572ZM227.389 245.128C227.28 242.698 227.672 240.515 228.118 238.651H315.401C315.43 238.651 315.457 238.645 315.484 238.643C315.934 240.521 316.32 242.709 316.214 245.13C316.126 247.153 315.429 250.648 311.727 251.324C311.311 251.406 310.842 251.447 310.332 251.447H284.899C275.117 251.533 260.29 251.609 258.923 251.479C258.851 251.458 258.775 251.447 258.696 251.447H233.271C228.394 251.447 227.492 247.489 227.389 245.128ZM228.771 236.158C229.248 234.419 229.699 232.776 229.795 231.255C230.097 226.459 229.635 223.484 229.228 220.86C229.225 220.84 229.222 220.821 229.219 220.802H314.383C314.38 220.819 314.378 220.835 314.375 220.852C313.967 223.479 313.506 226.455 313.808 231.256C313.905 232.779 314.357 234.425 314.835 236.166C314.912 236.449 314.991 236.736 315.07 237.028H228.534C228.613 236.734 228.692 236.444 228.771 236.158ZM228.728 214.304C228.877 210.982 231.341 209.496 233.383 208.834C233.383 208.834 233.384 208.834 233.385 208.834C234.226 208.559 234.896 208.464 235.054 208.444C236.108 208.446 254.411 208.487 272.722 208.508C283.674 208.521 292.403 208.523 298.668 208.516C302.209 208.512 305.162 208.505 307.232 208.493C308.924 208.484 309.861 208.479 310.399 208.429L310.398 208.439L310.44 208.444C311.142 208.587 314.661 209.536 314.874 214.305C314.961 216.224 314.814 217.775 314.623 219.179H228.979C228.789 217.776 228.641 216.226 228.728 214.304ZM218.664 176.757C215.694 168.64 214.617 163.144 213.666 158.294C212.722 153.476 211.906 149.314 209.483 144.062C207.822 140.463 206.097 137.667 204.575 135.201C201.804 130.711 199.974 127.745 201.164 123.951C201.925 121.521 203.856 119.712 206.461 118.987C210.57 117.845 215.506 119.468 220.003 123.444C220.571 123.945 221.139 124.49 221.691 125.065C227.005 130.6 229.083 136.763 230.916 142.201C231.682 144.472 232.405 146.617 233.314 148.633C234.226 150.647 235.228 152.296 236.377 153.675C240.123 158.17 246.197 163.178 250.976 162.517C253.041 162.229 254.657 160.896 255.652 158.659C256.481 156.79 257.071 152.741 257.407 146.63C257.448 146.499 257.457 146.36 257.429 146.227C257.748 140.268 257.826 132.621 257.654 124.085C257.472 114.961 257.018 105.747 256.409 98.8069C256.232 96.8061 256.044 95.0179 255.849 93.4907C255.225 88.6312 253.45 83.0715 250.424 76.4936C248.596 72.52 246.534 68.6421 244.715 65.2209C241.981 60.0764 239.619 55.634 238.987 52.7034C238.862 52.1121 238.77 51.5342 238.713 50.9867C238.289 46.8763 239.615 43.1377 242.262 40.9843C244.679 39.009 247.662 38.882 250.047 40.6543C253.596 43.2927 257.468 47.8933 261.555 54.33C267.396 63.5106 271.986 73.802 273.646 78.4798C275.045 82.4274 277.655 93.4242 279.995 105.221C281.537 112.992 282.591 119.322 282.888 122.588C282.929 123.035 283.324 123.357 283.77 123.323C284.217 123.282 284.546 122.888 284.505 122.441C284.225 119.359 283.287 113.628 281.913 106.563C284.168 108.012 288.582 111.102 289.856 113.836C289.984 114.11 290.256 114.291 290.558 114.304C291.083 114.326 303.473 115.017 308.67 129.162C312.364 139.22 312.694 159.254 312.321 174.29C311.915 190.636 310.589 204.369 310.041 206.843C305.435 206.948 259.523 206.875 235.009 206.821H235.008C234.98 206.821 234.953 206.822 234.926 206.825C234.897 206.828 234.344 206.887 233.553 207.095C233.551 207.09 233.549 207.087 233.546 207.083C232.003 204.594 224.032 191.435 218.664 176.757ZM249.294 145.689C250.331 144.091 251.076 141.377 251.519 137.574C252.848 137.527 255.069 137.785 256.041 139.833C255.991 142.017 255.917 144.058 255.818 145.934C252.967 147.546 250.426 146.398 249.294 145.689ZM241.532 148.924C241.895 148.96 242.252 148.978 242.603 148.978C244.795 148.978 246.709 148.272 248.22 146.915C249.077 147.473 250.775 148.366 252.87 148.366C253.758 148.366 254.717 148.199 255.713 147.786C255.301 154.238 254.654 156.905 254.168 158C253.392 159.746 252.275 160.697 250.752 160.909C247.411 161.373 242.135 158.049 237.624 152.636C236.767 151.608 236.021 150.445 235.313 149.046C236.274 148.947 237.133 148.593 237.872 147.99C238.331 148.188 239.745 148.748 241.532 148.924ZM241.025 132.216L240.997 131.755C240.928 130.532 240.756 128.972 240.568 127.382C242.89 128.149 248.585 130.503 250.091 135.476C249.732 139.81 248.986 143.778 247.553 145.308C244.685 148.365 240.573 147.272 239.026 146.704C241.684 142.756 241.196 134.949 241.025 132.216ZM230.325 101.806C243.654 98.0646 253.105 99.3523 254.851 99.6445C255.403 106.184 255.819 114.599 256.007 123.029C255.019 122.687 253.308 122.094 251.355 121.412C244.858 119.138 240.725 117.632 240.017 117.28C239.626 117.084 239.21 117.106 238.876 117.342C237.948 117.994 238.031 119.867 238.821 126.442C239.053 128.38 239.294 130.384 239.376 131.845L239.404 132.318C239.877 139.876 239.077 144.674 237.023 146.58C236.469 147.096 235.833 147.378 235.078 147.44C234.914 147.454 234.765 147.516 234.644 147.612C233.838 145.766 233.162 143.782 232.454 141.682C230.566 136.084 228.427 129.738 222.862 123.941C222.449 123.511 222.027 123.104 221.603 122.711C221.622 122.636 221.633 122.559 221.63 122.479C221.068 109.855 223.668 103.673 230.325 101.806ZM227.786 50.2578C225.886 50.2574 224.935 50.2545 224.298 50.8937C223.681 51.5131 223.686 52.41 223.694 54.0386L223.697 68.4197C223.697 70.0017 222.411 71.289 220.832 71.289H217.471C215.891 71.289 214.606 70.0017 214.606 68.4197V54.7509C214.606 54.3722 214.611 54.033 214.614 53.729C214.634 52.2752 214.645 51.4745 214.062 50.8848C213.439 50.2541 212.521 50.2578 210.534 50.2578L196.444 50.2582C194.864 50.2582 193.579 48.9729 193.579 47.3929V44.0366C193.579 42.4542 194.864 41.1673 196.444 41.1673H210.117C210.542 41.1673 210.918 41.1718 211.251 41.1758C212.799 41.1945 213.58 41.203 214.132 40.6454C214.67 40.1024 214.653 39.3625 214.624 38.0196C214.616 37.6385 214.606 37.1949 214.606 36.6787V23.0098C214.606 21.4278 215.891 20.1405 217.471 20.1405H220.832C222.411 20.1405 223.697 21.4278 223.697 23.0098V36.6787L223.694 37.4197C223.686 39.1206 223.681 39.9749 224.287 40.5804C224.891 41.1839 225.738 41.1795 227.422 41.1701C227.657 41.1689 227.911 41.1673 228.185 41.1673H239.794C237.86 43.5098 236.862 46.744 237.031 50.2582L227.786 50.2578ZM158.35 284.272C160.014 282.013 163.693 275.208 161.831 260.844C160.588 251.254 157.947 244.728 155.882 240.859L158.45 240.09C158.653 240.508 158.851 240.963 159.045 241.456C168.702 266.033 163.209 281.663 162.13 284.272H158.35ZM156.289 284.272H144.348C144.348 284.209 144.343 284.145 144.328 284.081C143.591 280.968 144.806 279.436 146.211 277.662C146.828 276.884 147.465 276.079 147.946 275.118C150.093 270.822 149.86 266.026 148.747 264.479C148.269 263.814 147.707 263.784 147.412 263.826C146.115 264.01 143.368 263.226 141.691 262.664C143.038 261.662 144.252 260.671 145.314 259.706C147.189 258.001 147.258 253.892 147.333 249.541C147.339 249.213 147.345 248.881 147.351 248.548L154.466 241.679C154.714 242.146 154.97 242.649 155.232 243.197C156.907 246.703 159.132 252.646 160.221 261.052C162.421 278.024 156.54 283.928 156.483 283.983C156.395 284.066 156.331 284.166 156.289 284.272ZM136.989 284.272L138.186 265.094C138.573 264.847 139.249 264.405 140.098 263.812C140.127 263.827 140.154 263.843 140.185 263.855C140.694 264.046 145.111 265.667 147.456 265.455C147.983 266.189 148.575 270.228 146.493 274.392C146.088 275.203 145.53 275.908 144.939 276.653C143.505 278.462 141.889 280.513 142.711 284.272H136.989ZM135.368 284.272H23.5974L19.9346 284.07C19.9204 284.069 19.9054 284.069 19.8912 284.069C19.4001 284.067 7.80964 283.889 3.16273 271.404C1.50485 266.948 0.872561 259.231 7.27556 247.778C10.6404 241.759 14.6035 237.16 15.6282 236.011L50.2053 238.091L50.7443 249.419C45.2195 248.465 41.8145 247.875 41.8141 247.875C41.3734 247.802 40.9521 248.095 40.8762 248.537C40.7995 248.979 41.0958 249.399 41.5373 249.475C41.5373 249.475 45.336 250.133 51.4241 251.184C58.9371 252.481 70.3421 254.444 82.4367 256.504L136.154 271.597L135.366 284.217C135.365 284.236 135.368 284.254 135.368 284.272ZM10.0682 175.729C10.0682 154.733 27.1493 137.652 48.1449 137.652C69.14 137.652 86.2212 154.733 86.2212 175.729C86.2212 186.301 81.7926 196.433 74.0548 203.622C68.5544 200.711 64.7695 198.653 63.5552 197.958C61.1355 196.577 58.5085 195.419 55.7386 194.503C56.4724 192.339 59.0113 188.957 60.9078 188.166C61.5211 187.911 62.1578 187.751 62.832 187.582C64.3478 187.201 65.9151 186.808 67.1651 185.303C68.4618 183.748 69.2423 181.229 69.2524 178.566C69.2561 177.804 69.2337 177.004 69.1846 176.183C69.3482 176.11 69.569 176.026 69.7224 175.968C70.5126 175.668 71.4087 175.328 71.3226 174.464C71.2695 173.924 70.821 173.176 70.0328 171.901C69.6327 171.253 68.963 170.168 68.907 169.893C68.7329 165.55 66.3656 161.688 64.9943 160.091C64.9399 160.027 64.8758 159.978 64.8084 159.935C64.321 158.74 63.4825 157.783 62.3084 157.088C57.0548 153.974 48.1132 156.347 43.9277 160.466C42.9131 161.462 40.7764 163.781 39.5925 166.648C38.2544 164.25 35.8912 162.291 33.3559 161.645C30.834 161.003 28.4703 161.7 26.6976 163.606C22.8182 167.783 23.2938 176.382 24.8368 180.88C26.5978 185.983 30.3535 188.286 33.1339 188.286C33.1595 188.286 33.1854 188.286 33.211 188.286C37.2828 188.218 39.5653 184.172 40.2828 180.728C40.2975 180.658 40.308 180.582 40.3222 180.511C41.5958 183.058 43.1842 184.373 44.9509 185.475L38.8425 192.861C37.416 193.131 36.0905 193.521 34.9083 194.034C29.4935 196.375 25.5207 199.51 22.4793 203.853C14.5816 196.643 10.0682 186.446 10.0682 175.729ZM137.197 263.799C136.017 263.692 132.688 263.203 127.287 262.345L126.253 256.599C126.288 255.825 126.546 250.136 126.911 242.789C127.414 242.87 127.918 242.953 128.431 243.038C131.324 243.52 134.267 244.009 136.965 244.009C139.51 244.009 141.836 243.574 143.696 242.285C144.707 241.584 145.768 240.89 146.81 240.239C145.832 242.586 145.769 246.091 145.71 249.513C145.645 253.328 145.577 257.272 144.222 258.505C142.853 259.749 141.213 261.044 139.349 262.354C138.349 263.06 137.56 263.569 137.197 263.799ZM125.588 262.07C121.313 261.386 116.092 260.53 110.363 259.572L110.808 257.89L124.763 257.486L125.588 262.07ZM125.301 242.486C124.985 248.844 124.747 253.997 124.661 255.865L110.763 256.267C109.623 252.593 108.554 246.105 107.658 237.419C116.613 240.173 122.41 241.836 125.302 242.483C125.302 242.484 125.301 242.485 125.301 242.486ZM55.7833 229.437C57.8551 228.254 61.3936 224.495 62.7398 221.808C63.5625 222.175 64.3855 222.543 65.2057 222.912C69.597 224.889 73.7451 226.756 77.6392 227.973C79.5288 228.563 82.2808 229.437 85.5357 230.47C91.5454 232.379 98.972 234.737 106.014 236.912C105.998 236.991 105.989 237.071 105.998 237.154C106.958 246.591 108.08 253.3 109.333 257.119L108.755 259.303C89.4261 256.077 65.4772 251.961 52.3831 249.702L51.7995 237.429C52.6522 234.686 54.4456 230.201 55.7833 229.437ZM39.7216 210.881C41.0389 200.209 48.3048 195.475 49.7406 194.638C51.3182 194.926 52.9208 195.317 54.5105 195.81C57.4436 196.724 60.2159 197.921 62.7496 199.367C63.974 200.068 67.5065 201.99 72.7536 204.77C65.8839 210.6 57.1948 213.805 48.1449 213.805C45.2552 213.805 42.3819 213.476 39.5913 212.833C39.5945 212.204 39.638 211.55 39.7216 210.881ZM46.6854 185.924C48.0889 185.268 49.2484 184.747 50.2743 184.287C54.0146 182.607 55.4139 181.978 56.4996 180.037C56.6635 179.744 56.6294 179.379 56.4139 179.121C56.1984 178.862 55.8453 178.764 55.5276 178.873C53.4001 179.604 51.1514 178.342 50.0272 176.721C48.9164 175.119 48.9306 173.338 50.0657 171.96C51.3441 170.41 53.4135 169.719 55.2143 170.237C56.0958 170.49 57.6205 171.264 57.9241 173.597C57.961 173.88 58.1436 174.123 58.4054 174.237C58.6672 174.351 58.9699 174.319 59.2017 174.153C61.8437 172.262 64.9334 167.58 65.2739 163.377C66.2414 165.103 67.1846 167.458 67.2849 169.955C67.3064 170.548 67.7934 171.364 68.6518 172.754C68.9436 173.226 69.3445 173.875 69.56 174.289C69.4204 174.347 69.2638 174.406 69.1465 174.45C68.3681 174.746 67.4858 175.08 67.5422 175.926C67.6047 176.85 67.6331 177.711 67.629 178.558C67.6201 180.856 66.9805 182.989 65.9176 184.265C65.0057 185.362 63.8149 185.661 62.4371 186.008C61.7346 186.184 61.0089 186.367 60.2832 186.668C57.8993 187.663 55.0665 191.418 54.1903 194.024C52.7995 193.622 51.4038 193.291 50.0264 193.04C49.8819 192.965 49.7171 192.936 49.5523 192.956C46.6242 192.456 43.7865 192.318 41.2147 192.539L46.6854 185.924ZM105.078 221.28C114.207 225.734 121.369 228.987 126.33 230.933C126.386 230.959 126.438 230.979 126.493 231C126.495 231 126.495 231.001 126.497 231.001C130.449 232.552 133.022 233.28 134.366 233.224C138.438 233.063 141.921 231.811 144.994 230.707C147.857 229.678 150.325 228.786 152.696 228.93C157.528 229.211 162.08 236.291 163.165 240.006C163.519 241.221 163.285 242.031 162.885 242.176C162.365 242.364 161.197 241.646 160.236 239.454C159.433 237.617 158.148 236.234 156.597 235.497C156.491 235.444 156.383 235.396 156.273 235.352C156.236 235.336 156.2 235.316 156.162 235.302C155.246 234.945 154.303 234.835 153.504 234.994C151.627 235.37 146.573 238.318 142.772 240.951C139.48 243.231 133.999 242.319 128.698 241.437C128.054 241.329 127.417 241.224 126.781 241.123C126.655 241.105 126.517 241.078 126.363 241.048C123.819 240.555 117.392 238.722 107.26 235.598C100 233.36 92.2524 230.9 86.0268 228.923C82.769 227.888 80.0142 227.014 78.1233 226.423C74.3226 225.235 70.2175 223.388 65.8717 221.432C64.8044 220.951 63.7329 220.469 62.6603 219.994C60.6595 219.112 59.1396 218.468 57.7293 217.905C56.696 217.495 55.8985 217.192 55.144 216.921C54.722 216.769 54.2569 216.989 54.1055 217.411C53.9541 217.833 54.1737 218.298 54.5954 218.449C55.0653 218.617 55.5604 218.803 56.1148 219.017C52.7995 222.347 48.6871 223.631 45.2122 222.37C42.1286 221.25 40.1148 218.355 39.6842 214.521C42.4497 215.123 45.2902 215.429 48.1449 215.429C57.7975 215.429 67.0568 211.933 74.2942 205.585C80.8307 209.037 93.0844 215.431 105.078 221.28ZM103.453 182.3C103.453 187.134 103.531 192.432 103.683 198.048C103.445 198.66 102.376 199.862 101.631 199.869H101.627C101.201 199.869 100.908 199.29 100.737 198.804C100.416 197.894 100.923 195.283 101.294 193.378C101.856 190.48 102.113 189.158 100.989 188.878C100.458 188.745 99.8563 188.869 99.295 189.228C97.7885 190.192 96.6465 192.697 95.9022 196.675C95.6384 198.08 96.1384 200.601 96.6217 203.039C96.8811 204.347 97.2354 206.133 97.1623 206.566C97.0917 206.726 96.9415 206.856 96.8737 206.851C96.6631 206.845 95.9541 206.345 95.2163 204.134C93.7764 199.813 92.8251 196.958 93.4111 193.27C93.6802 191.562 93.946 190.391 94.3482 188.619C94.8522 186.398 95.5422 183.357 96.6777 177.337C96.9971 175.645 97.4245 171.247 97.92 166.154C98.541 159.774 99.2447 152.542 99.9517 148.276C100.208 146.73 100.479 145.219 100.76 143.764L104.991 145.421C105.088 145.459 105.189 145.478 105.287 145.478C105.392 145.478 105.492 145.451 105.587 145.412C104.996 153.932 105.092 160.97 105.093 161.041C105.095 161.209 105.151 161.364 105.242 161.493C104.041 168.51 103.453 175.321 103.453 182.3ZM103.668 131.887C104.631 132.824 105.649 133.712 106.705 134.548C106.287 137.475 105.948 140.639 105.694 143.966C105.658 143.946 105.623 143.925 105.584 143.91L101.082 142.147C101.878 138.259 102.745 134.813 103.668 131.887ZM122.76 100.493C122.746 100.493 122.732 100.494 122.719 100.494C121.387 100.494 120.799 99.1575 120.568 98.3613C120.066 96.636 120.401 94.561 121.275 94.0049C121.478 93.8743 121.674 93.7829 121.842 93.7399C122.095 93.6758 122.23 93.7306 122.319 93.785C122.659 93.9895 122.862 94.5561 122.907 94.7391C122.942 94.8881 123.019 95.0159 123.119 95.1178C122.907 96.2501 122.758 97.4806 122.684 98.7951C122.667 99.0674 122.681 99.6945 122.76 100.493ZM140.237 102.684C140.904 100.573 141.345 98.2562 141.483 96.1462C141.836 95.8633 142.429 95.5082 142.857 95.7208C143.099 95.845 143.324 96.1206 143.525 96.539C144.024 97.5756 143.687 99.2558 142.688 100.72C141.964 101.781 141.048 102.493 140.237 102.684ZM93.2788 103.44C93.2788 82.442 110.36 65.3597 131.355 65.3597C152.353 65.3597 169.435 82.442 169.435 103.44C169.435 112.154 166.44 120.589 160.985 127.346L160.44 126.127C156.953 118.354 149.382 114.278 140.188 115.222C139.791 115.261 139.379 115.292 138.949 115.318L137.585 108.504C137.561 108.386 137.512 108.281 137.446 108.189C137.735 107.798 138.003 107.395 138.265 106.998L138.487 106.663C138.873 106.085 139.267 105.297 139.641 104.361C139.7 104.364 139.76 104.367 139.819 104.367C141.272 104.367 142.866 103.34 144.029 101.635C145.092 100.078 145.902 97.7359 144.989 95.8357C144.895 95.6413 144.793 95.4635 144.685 95.2992C144.709 95.2452 144.73 95.1888 144.743 95.1279C144.852 94.6064 145.076 94.0906 145.312 93.5443C145.59 92.9031 145.877 92.2395 146.024 91.4782C146.364 89.6973 146.122 87.9583 145.322 86.4481C144.144 84.231 142.105 82.8337 139.089 82.1762C138.733 82.0987 138.374 82.0179 138.011 81.9364C135.764 81.4327 133.441 80.912 131.14 80.8511C128.043 80.772 125.352 81.8941 123.572 83.9993C121.131 86.8844 120.754 89.7586 120.739 92.4428C120.626 92.5013 120.513 92.5646 120.4 92.6376C118.715 93.7087 118.37 96.6198 119.009 98.815C119.611 100.883 120.998 102.117 122.719 102.117C122.791 102.117 122.87 102.116 122.942 102.11C122.957 102.11 122.97 102.105 122.984 102.103C123.349 104.117 124.13 106.619 125.786 108.429C125.769 108.487 125.756 108.548 125.752 108.611L125.374 114.459C125.174 114.428 125.064 114.41 125.062 114.409C125.042 114.406 125.023 114.403 125.004 114.401C120.879 114.008 118.356 114.884 117.927 115.048C117.137 115.254 109.326 117.408 105.627 123.16C104.996 124.146 104.056 125.899 102.989 128.827C96.722 121.834 93.2788 112.874 93.2788 103.44ZM165.388 141.243L166.049 142.733C161.22 144.587 155.695 149.367 153.96 150.937C151.569 147.256 149.151 143.574 147.625 141.264C147.28 140.741 147.002 140.32 146.802 140.018C151.993 137.822 156.709 134.504 160.548 130.345C162.094 133.815 163.724 137.49 165.388 141.243ZM178.922 171.412C179.137 171.874 179.348 172.327 179.556 172.78C181.286 176.499 182.702 179.454 183.884 181.814C184.806 183.66 185.933 184.758 186.927 185.727C188.23 186.996 189.355 188.093 190.004 190.679C190.053 190.874 190.173 191.045 190.341 191.156L192.077 192.314C188.792 192.92 181.956 191.921 180.411 190.839C179.042 189.882 177.793 187.102 177.262 185.586C177.261 185.58 177.258 185.574 177.257 185.567C177.164 185.221 176.849 184.966 176.473 184.966C176.024 184.966 175.661 185.329 175.661 185.778C175.661 185.808 175.672 185.837 175.675 185.868C175.677 185.905 175.685 185.942 175.692 185.979C175.697 185.996 175.695 186.015 175.701 186.031C175.701 186.033 175.702 186.034 175.702 186.036V186.037C176.353 188.414 176.944 191.468 176.703 192.557C176.648 192.801 176.591 192.965 176.544 193.071C176.43 192.952 176.259 192.733 176.04 192.34C175.889 192.073 175.735 191.754 175.579 191.392C175.11 190.295 174.793 188.815 174.427 187.102C174.035 185.271 173.592 183.195 172.849 181.147C172.545 180.309 172.227 179.563 171.878 178.868C170.636 176.385 168.541 173.38 166.321 170.198C164.497 167.582 162.611 164.877 161.217 162.462C160.142 160.599 158 157.185 154.855 152.318C156.262 151.039 161.988 145.998 166.707 144.218C170.884 153.644 175.243 163.446 178.922 171.412ZM206.624 192.096C205.502 192.637 204.086 192.827 202.401 192.649C201.992 192.606 201.56 192.565 201.106 192.523C199.108 192.335 196.62 192.101 193.734 191.431C193.712 191.427 193.689 191.426 193.667 191.423L191.498 189.977C190.722 187.158 189.369 185.84 188.06 184.564C187.07 183.599 186.135 182.689 185.336 181.088C184.25 178.921 182.962 176.237 181.415 172.925C187.034 172.75 191.316 174.888 196.254 177.367C200.984 179.742 204.985 183.263 206.957 186.787C208.002 188.655 207.894 190.345 206.624 192.096ZM105.726 203.554H105.734L125.138 203.363C125.143 203.363 125.148 203.361 125.153 203.361C125.301 203.683 125.452 204.002 125.608 204.313C126.142 205.385 126.733 206.389 127.362 207.31C126.998 211.769 126.552 218.895 126 229.056C121.193 227.118 114.563 224.093 106.272 220.055C105.946 214.762 105.68 209.202 105.48 203.512C105.558 203.537 105.64 203.554 105.726 203.554ZM169.558 178.933L145.897 190.196C145.198 189.042 144.65 185.099 144.76 181.922C145.297 166.304 142.584 161.757 141.661 160.674C142.302 158.523 145.223 148.78 147.098 143.413C148.722 145.878 150.947 149.274 153.101 152.595C156.4 157.691 158.721 161.384 159.812 163.273C161.239 165.749 163.146 168.483 164.99 171.127C166.957 173.947 168.819 176.623 170.041 178.865C169.88 178.838 169.711 178.859 169.558 178.933ZM107.258 144.805C107.489 141.589 107.802 138.522 108.188 135.67C114.963 140.558 122.944 143.14 131.355 143.14C136.145 143.14 140.817 142.287 145.258 140.626C145.403 140.846 145.651 141.22 145.979 141.718C144.153 146.705 140.854 157.701 140.123 160.154C125.586 162.428 110.026 160.729 106.711 160.318C106.703 158.276 106.729 152.013 107.258 144.805ZM138.267 116.978C139.015 116.948 139.696 116.902 140.351 116.837C148.812 115.968 155.773 119.688 158.958 126.79L159.823 128.722C155.861 133.177 150.869 136.68 145.35 138.862C140.896 140.623 136.187 141.516 131.355 141.516C122.881 141.516 114.861 138.79 108.16 133.632C106.774 132.569 105.46 131.4 104.239 130.161C105.369 126.899 106.355 125.034 106.993 124.037C110.457 118.652 118.296 116.63 118.375 116.61C118.412 116.6 118.452 116.587 118.487 116.572C118.511 116.563 120.831 115.638 124.821 116.015C124.933 116.033 125.349 116.101 125.995 116.192C128.623 116.559 133.71 117.153 138.267 116.978ZM132.758 110.976C133.073 111.899 133.888 114.162 134.677 115.352C131.751 115.25 128.922 114.942 126.986 114.688L127.308 109.698C127.832 110.024 128.39 110.286 128.989 110.464C130.186 110.819 131.262 110.998 132.235 110.998C132.413 110.998 132.586 110.988 132.758 110.976ZM139.875 95.8848C139.739 98.2135 139.202 100.828 138.388 103.092C137.985 104.209 137.541 105.157 137.137 105.761L136.91 106.104C136.434 106.825 135.984 107.506 135.444 108.065C134.465 109.071 132.986 109.957 129.452 108.908C128.71 108.688 128.039 108.315 127.455 107.802C125.588 106.162 124.819 103.388 124.503 101.352C124.296 100.016 124.294 99.0618 124.304 98.8917C124.389 97.397 124.567 96.02 124.835 94.7988V94.7976C125.935 89.7314 128.617 86.9286 132.384 86.9051H132.43C135.881 86.9051 139.102 89.2898 139.578 91.3568C139.862 92.5967 139.965 94.0196 139.89 95.5857C139.866 95.6839 139.862 95.785 139.875 95.8848ZM173.921 192.509L154.2 208.259C154.096 208.344 143.65 216.661 134.695 211.912C132.446 210.715 130.567 209.024 128.95 206.751C128.904 206.636 128.832 206.535 128.741 206.453C128.283 205.786 127.846 205.071 127.437 204.313C130.289 202.882 140.398 197.576 145.399 191.864C145.476 191.895 145.554 191.923 145.635 191.939C145.687 191.95 145.741 191.955 145.795 191.955C145.915 191.955 146.034 191.928 146.144 191.876L150.737 189.69C156.164 188.675 169.668 186.125 172.385 185.384C172.551 186.092 172.698 186.783 172.84 187.442C173.224 189.238 173.555 190.789 174.087 192.03C174.136 192.146 174.186 192.249 174.236 192.357C174.124 192.384 174.016 192.433 173.921 192.509ZM340.515 284.272H315.051L312.799 252.733C315.842 251.84 317.666 249.142 317.836 245.201C317.966 242.228 317.418 239.623 316.865 237.466C316.712 236.873 316.554 236.296 316.4 235.736C315.925 234.005 315.515 232.51 315.428 231.153C315.137 226.53 315.565 223.77 315.979 221.101C316.03 220.778 316.079 220.458 316.127 220.137C316.374 218.462 316.605 216.627 316.496 214.231C316.28 209.41 313.272 207.686 311.626 207.1C311.885 205.929 312.228 203.4 312.704 197.728C313.038 193.728 313.642 185.489 313.92 175.244C314.34 159.739 314.035 139.06 310.193 128.603C305.208 115.032 293.626 113.007 291.11 112.725C288.991 108.901 282.433 104.946 281.484 104.388C279.562 94.7566 276.806 82.5378 275.176 77.9372C273.508 73.2359 268.928 62.9558 263.097 53.7314C263.633 50.9595 263.907 48.1024 263.907 45.2338C263.907 20.5549 243.83 0.476959 219.151 0.476959C194.47 0.476959 174.391 20.5549 174.391 45.2338C174.391 69.9148 194.47 89.9944 219.151 89.9944C230.437 89.9944 241.138 85.8154 249.416 78.2034C252.088 84.1786 253.668 89.2574 254.239 93.6973C254.399 94.9502 254.554 96.3868 254.703 97.9737C252.054 97.5658 242.845 96.6056 229.886 100.244C220.838 102.781 219.674 112.14 219.961 121.298C215.343 117.64 210.326 116.226 206.026 117.424C202.881 118.299 200.544 120.501 199.614 123.465C198.204 127.966 200.296 131.358 203.193 136.052C204.691 138.481 206.389 141.232 208.008 144.742C210.351 149.817 211.149 153.89 212.074 158.606C213.036 163.515 214.126 169.078 217.139 177.314C222.373 191.624 230.048 204.494 231.976 207.63C229.924 208.497 227.279 210.36 227.107 214.231C226.998 216.635 227.229 218.471 227.476 220.147C227.524 220.466 227.573 220.785 227.624 221.108C228.038 223.776 228.466 226.533 228.174 231.153C228.09 232.507 227.68 234 227.205 235.729C227.039 236.338 226.866 236.966 226.701 237.616C226.166 239.727 225.637 242.28 225.767 245.2C225.969 249.819 228.446 252.694 232.448 253.036L232.012 283.948C232.011 284.063 232.034 284.172 232.075 284.272H163.929C165.866 279.414 168.987 264.32 161.558 243.543C162.254 243.878 162.913 243.893 163.439 243.702C164.561 243.295 165.393 241.854 164.724 239.552C163.564 235.584 158.725 227.655 152.791 227.309C150.09 227.147 147.349 228.135 144.445 229.179C141.482 230.244 138.124 231.451 134.301 231.602C133.568 231.625 131.812 231.313 127.591 229.685C128.087 220.532 128.498 213.805 128.84 209.237C130.325 210.954 132.031 212.333 133.933 213.345C136.012 214.448 138.314 214.999 140.774 214.999C143.185 214.999 145.745 214.469 148.39 213.409C152.365 211.815 155.107 209.614 155.218 209.524L174.934 193.778C174.954 193.762 174.969 193.743 174.987 193.725C175.343 194.233 175.896 194.817 176.614 194.817C176.677 194.817 176.742 194.813 176.808 194.803C177.533 194.697 178.031 194.061 178.288 192.91C178.394 192.431 178.397 191.789 178.34 191.082C178.692 191.507 179.073 191.884 179.481 192.169C181.793 193.788 191.545 195.009 194.289 193.214C196.884 193.754 199.121 193.967 200.954 194.139C201.403 194.181 201.828 194.221 202.232 194.263C202.701 194.313 203.154 194.337 203.592 194.337C205.133 194.337 206.479 194.031 207.605 193.423C209.489 192.407 210.714 190.577 211.144 188.132C211.683 185.079 210.824 181.248 209.19 179.41C202.352 171.717 192.631 169.176 188.48 168.091C188.058 167.981 187.692 167.886 187.392 167.801C185.607 167.294 181.993 167.156 179.943 169.747C176.276 161.778 171.983 152.116 167.884 142.867L166.873 140.585C165.097 136.583 163.362 132.671 161.725 128.999C167.743 121.852 171.059 112.8 171.059 103.44C171.059 81.5471 153.248 63.7363 131.355 63.7363C109.464 63.7363 91.6554 81.5471 91.6554 103.44C91.6554 113.578 95.4675 123.19 102.388 130.574C101.288 133.912 100.262 137.94 99.3372 142.572C98.9931 144.307 98.6607 146.137 98.3506 148.011C97.6339 152.33 96.9277 159.591 96.3048 165.997C95.8129 171.051 95.3884 175.415 95.0828 177.035C93.9525 183.027 93.2658 186.051 92.765 188.259C92.3701 189.999 92.0848 191.256 91.8076 193.016C91.1595 197.095 92.2155 200.263 93.6773 204.651C94.5117 207.15 95.5706 208.437 96.8259 208.473C96.8429 208.474 96.8599 208.474 96.8774 208.474C97.6505 208.474 98.3543 207.958 98.6789 207.147C98.931 206.518 98.7516 205.434 98.2143 202.723C97.8031 200.651 97.2918 198.072 97.4975 196.974C98.3685 192.324 99.5921 190.994 100.125 190.625C100.049 191.27 99.8543 192.273 99.7001 193.068C99.1367 195.966 98.7723 198.112 99.2053 199.343C99.8299 201.116 100.862 201.492 101.625 201.492C101.631 201.492 101.638 201.492 101.644 201.492C102.406 201.485 103.144 201.082 103.756 200.549C103.78 201.299 103.805 202.051 103.831 202.806C104.022 208.449 104.28 213.968 104.596 219.237C93.321 213.714 81.9902 207.809 75.5734 204.425C83.3855 196.955 87.8445 186.563 87.8445 175.729C87.8445 153.838 70.0353 136.029 48.1449 136.029C26.254 136.029 8.44479 153.838 8.44479 175.729C8.44479 186.992 13.2256 197.701 21.5816 205.228C20.6631 206.709 19.8385 208.311 19.1392 210.014C14.1688 222.104 14.364 232.794 14.4586 234.882C13.4411 236.012 9.39608 240.667 5.87498 246.957C0.553547 256.463 -0.909914 265.112 1.64163 271.97C6.57304 285.221 19.1566 285.678 19.86 285.692L23.53 285.894C23.545 285.895 23.5601 285.895 23.5751 285.895H340.515C340.963 285.895 341.327 285.532 341.327 285.084C341.327 284.636 340.963 284.272 340.515 284.272Z" fill="#700051"/>
</svg>
