<svg width="319" height="322" viewBox="0 0 319 322" fill="none" xmlns="http://www.w3.org/2000/svg">
<path d="M175.935 23.6802C176.07 23.9521 176.041 24.2764 175.862 24.5203L168.56 34.4505L177.847 42.5515C178.076 42.7508 178.174 43.0608 178.103 43.3555C178.031 43.6501 177.801 43.8798 177.506 43.9517L165.532 46.864L167.438 59.0401C167.485 59.3397 167.361 59.6404 167.117 59.8202C166.872 60 166.548 60.0276 166.276 59.8932L155.234 54.4298L148.865 64.9789C148.718 65.2232 148.454 65.3713 148.17 65.3713C148.153 65.3713 148.135 65.3709 148.118 65.3697C147.815 65.3498 147.549 65.1631 147.427 64.8851L142.479 53.601L134.984 56.1676L130.819 57.5921C130.532 57.6899 130.215 57.6197 129.996 57.4103C129.777 57.2009 129.693 56.8863 129.778 56.5957L133.245 44.7678L121.746 40.3328C121.463 40.2236 121.265 39.9659 121.231 39.6643C121.198 39.3632 121.336 39.0682 121.588 38.9001L131.847 32.0657L125.89 21.2788C125.743 21.0134 125.756 20.6883 125.924 20.4359C126.093 20.1838 126.388 20.0475 126.689 20.0795L138.938 21.4383L141.311 9.34251C141.369 9.04463 141.588 8.80477 141.879 8.71955C142.171 8.63472 142.485 8.71873 142.694 8.93829L151.204 17.8543L160.794 10.1165C161.03 9.92612 161.353 9.8831 161.63 10.0053C161.908 10.127 162.095 10.3937 162.114 10.6964L162.902 22.9951L175.223 23.2281C175.526 23.2337 175.801 23.4083 175.935 23.6802ZM151.799 2.62174C151.036 2.57223 150.275 2.54747 149.517 2.54747C141.163 2.54747 133.19 5.5426 126.854 11.1047C119.944 17.1712 115.811 25.5657 115.214 34.7419C114.947 38.8405 115.402 42.8985 116.566 46.8031V46.8035C118.756 54.1607 123.433 60.6639 129.735 65.114C134.902 68.7646 140.989 70.9127 147.338 71.3263C149.224 71.448 151.108 71.4172 152.94 71.2354C160.976 70.4549 168.526 66.8271 174.201 61.0203C179.936 55.1509 183.388 47.4022 183.919 39.2025C184.515 30.0264 181.503 21.168 175.436 14.2581C169.369 7.34901 160.975 3.21589 151.799 2.62174Z" fill="#FE874F"/>
<path d="M53.8204 194.602C48.3244 187.862 41.4157 192.355 37.7043 194.769C36.0347 195.855 32.9989 197.828 29.6093 197.829C27.4352 197.829 25.1158 197.018 22.9157 194.64C19.5513 191.007 15.6601 190.208 11.3423 192.245C17.3743 198.916 25.5959 202.904 34.6154 203.489C41.3159 203.93 47.936 202.418 53.7615 199.125C54.8561 198.508 55.9259 197.821 56.9571 197.079C55.8269 196.596 54.7741 195.77 53.8204 194.602Z" fill="#FFB0A8"/>
<path d="M62.411 110.308C79.6829 111.427 95.0145 99.625 98.3838 82.7496L70.6927 63.2041L70.6906 63.4618C70.6898 63.5682 70.6675 63.6688 70.6294 63.7613C70.6955 63.9196 70.715 64.0986 70.6683 64.2772C70.4617 65.0682 70.2284 66.0105 69.9743 67.0434C70.4122 67.1522 70.8493 67.2715 71.2811 67.4111C76.1793 68.9996 80.1651 72.3989 82.5048 76.9837C84.8445 81.5682 85.2584 86.7893 83.6703 91.6846C82.0827 96.582 78.6829 100.568 74.0981 102.908C71.3461 104.312 68.3643 105.023 65.3615 105.023C63.3623 105.023 61.3538 104.708 59.3972 104.073C54.4999 102.487 50.5141 99.0889 48.174 94.5044C45.8343 89.9196 45.4204 84.6972 47.0084 79.7999C49.9548 70.7191 59.0506 65.2041 68.3834 66.7147C68.6452 65.6505 68.8854 64.679 69.0977 63.8673C69.1062 63.834 69.1204 63.804 69.1326 63.7727C69.09 63.6733 69.0664 63.5637 69.0673 63.4484L69.1724 51.1331L69.0531 48.5605C65.3838 48.3583 57.5295 48.1432 55.4674 49.0844C54.3928 49.5763 53.6415 50.6226 53.4078 51.9541C53.1683 53.3178 53.5518 54.6883 54.409 55.5308C55.7811 56.8823 60.3883 56.8194 62.9695 56.4618C63.4126 56.401 63.8229 56.7106 63.885 57.1546C63.9463 57.5986 63.6367 58.0085 63.1927 58.0702C62.4281 58.1761 55.6574 59.0394 53.2706 56.6879C52.0198 55.459 51.4735 53.5836 51.8087 51.6733C52.1314 49.8352 53.2471 48.3153 54.7925 47.6079C57.7751 46.2471 68.6521 46.9046 69.8826 46.9838C70.2949 47.0101 70.6216 47.3429 70.6411 47.7561L70.7953 51.0799C70.7958 51.095 70.7962 51.11 70.7962 51.1246L70.7377 57.9671L94.1509 58.2301C93.8282 57.6936 93.4922 57.157 93.1318 56.6266C87.116 47.7739 77.5457 42.2979 66.8757 41.6031C66.1131 41.5536 65.3522 41.5284 64.5945 41.5284C56.2402 41.5284 48.2665 44.5239 41.9313 50.0864C35.0214 56.1538 30.8875 64.5495 30.2909 73.7273C29.3006 88.9521 38.6249 103.187 52.9662 108.345C55.9979 109.438 59.1752 110.098 62.411 110.308Z" fill="#F7F5F6"/>
<path d="M303.351 162.193C300.304 167.905 291.377 177.358 290.719 178.052C290.743 178.155 290.755 178.263 290.736 178.372L288.634 190.786C288.613 190.907 288.565 191.015 288.5 191.109C288.51 191.296 288.499 191.481 288.465 191.663C288.273 192.694 287.322 194.043 283.885 194.596C282.94 194.748 281.893 194.824 280.779 194.824C279.054 194.824 277.167 194.643 275.246 194.286C272.084 193.696 269.183 192.694 267.077 191.466C264.068 189.711 263.668 188.11 263.862 187.076C263.876 187.003 263.897 186.931 263.917 186.859C263.915 186.784 263.919 186.708 263.938 186.632L267.092 174.225C267.083 174.191 267.073 174.157 267.067 174.121C267.053 174.02 265.592 163.915 266.094 154.39C266.385 148.857 266.886 144.548 268.384 141.506C269.646 138.935 271.599 137.321 274.354 136.573C280.525 134.885 299.172 136.868 302.917 142.3C306.588 147.624 302.766 155.023 302.602 155.335C302.596 155.346 302.588 155.355 302.582 155.366C304.365 157.372 304.65 159.754 303.351 162.193ZM284.327 130.544C283.571 130.495 282.819 130.471 282.071 130.471C264.099 130.471 248.925 144.478 247.743 162.664C246.516 181.605 260.926 198.017 279.867 199.249C298.807 200.482 315.22 186.065 316.447 167.125V167.124C317.044 157.948 314.031 149.09 307.965 142.18C301.898 135.271 293.503 131.138 284.327 130.544Z" fill="#F7F5F6"/>
<path d="M301.581 143.222C298.489 138.738 280.932 136.458 274.781 138.139C272.619 138.726 271.112 139.909 270.058 141.825C270.064 141.862 270.07 141.899 270.07 141.937C270.07 145.286 270.916 149.91 274.947 152.923C277.066 154.508 279.883 155.483 283.314 155.845C283.138 154.545 283.476 153.343 284.308 152.445C286.574 149.994 289.965 150.145 294.358 151.125C295.359 151.347 298.763 152.218 301.34 154.215C302.012 152.748 304.278 147.133 301.581 143.222Z" fill="#FF4239"/>
<path d="M300.519 155.631C298.676 154.133 295.945 153.14 294.005 152.71C290.157 151.851 287.24 151.666 285.499 153.547C284.592 154.526 284.917 155.861 285.098 156.39C285.396 157.251 285.973 158.017 286.642 158.438C288.413 159.552 293.603 161.774 293.656 161.796C294.043 161.961 294.239 162.396 294.108 162.796C293.976 163.196 293.562 163.432 293.151 163.332C293.137 163.33 290.993 162.896 286.577 164.367C284.573 165.035 282.693 165.957 281.682 166.453C280.816 166.877 280.683 166.943 280.351 166.852C272.2 164.577 272.495 158.909 273.416 153.771C270.558 151.386 269.266 148.288 268.751 145.42C268.177 147.872 267.903 150.901 267.715 154.476C267.291 162.522 268.293 171 268.592 173.285C269.703 173.273 272.118 173.287 275.108 173.548C278.29 173.82 281.213 174.299 283.793 174.971C285.917 175.529 287.786 176.212 289.351 177C289.383 177.016 289.413 177.034 289.445 177.051C289.465 177.022 289.485 176.993 289.51 176.966C289.604 176.868 298.926 167.041 301.918 161.43C303.082 159.243 302.624 157.347 300.519 155.631Z" fill="#FF4239"/>
<path d="M262.217 86.8604C262.217 89.2508 260.272 91.1952 257.882 91.1952H254.047C251.655 91.1952 249.709 89.2508 249.709 86.8604V76.5158H230.326V86.8604C230.326 89.2508 228.38 91.1952 225.987 91.1952H222.152C219.759 91.1952 217.813 89.2508 217.813 86.8604V84.2735C216.587 84.1708 215.57 83.7074 214.783 82.8908C213.049 81.0917 213.13 78.2309 213.135 78.11L213.134 66.1055C213.134 63.3689 214.371 60.3969 217.813 60.1518V57.6234C217.813 55.2309 219.759 53.2853 222.152 53.2853H225.987C228.38 53.2853 230.326 55.2309 230.326 57.6234V68.017H249.709V57.6234C249.709 55.2309 251.655 53.2853 254.047 53.2853H257.882C260.272 53.2853 262.217 55.2309 262.217 57.6234V60.1388C262.312 60.1307 264.004 59.9951 265.391 61.2561C266.532 62.2942 267.111 63.9257 267.111 66.1055V78.1392C267.115 78.2309 267.196 81.0954 265.461 82.8941C264.628 83.7569 263.536 84.2199 262.217 84.2829V86.8604ZM274.633 74.6611C275.228 65.485 272.214 56.6262 266.147 49.7171C260.079 42.8072 251.685 38.6749 242.509 38.0808C241.746 38.0312 240.985 38.0061 240.227 38.0061C231.873 38.0061 223.9 41.0012 217.565 46.5633C210.656 52.6303 206.523 61.0247 205.929 70.2001C204.697 89.142 219.106 105.554 238.049 106.785C256.987 108.021 273.401 93.6035 274.633 74.6611Z" fill="#D7375D"/>
<path d="M265.488 78.166L265.488 66.1055C265.488 64.4022 265.088 63.1749 264.299 62.457C263.441 61.6769 262.376 61.7532 262.367 61.7553C262.316 61.7597 262.266 61.7585 262.217 61.7536V82.6607C263.081 82.6055 263.761 82.3145 264.288 81.7719C265.545 80.4752 265.489 78.1891 265.488 78.166Z" fill="white"/>
<path d="M257.882 54.9087H254.047C252.55 54.9087 251.332 56.1266 251.332 57.6234V86.8604C251.332 88.3555 252.55 89.5718 254.047 89.5718H257.882C259.377 89.5718 260.593 88.3555 260.593 86.8604V57.6234C260.593 56.1266 259.377 54.9087 257.882 54.9087Z" fill="white"/>
<path d="M249.708 69.6408H230.325V74.8924H249.708V69.6408Z" fill="white"/>
<path d="M225.987 54.9087H222.152C220.654 54.9087 219.437 56.1266 219.437 57.6234V86.8604C219.437 88.3555 220.654 89.5718 222.152 89.5718H225.987C227.484 89.5718 228.702 88.3555 228.702 86.8604V57.6234C228.702 56.1266 227.484 54.9087 225.987 54.9087Z" fill="white"/>
<path d="M214.757 66.1055V78.1388C214.756 78.1887 214.7 80.4724 215.957 81.769C216.438 82.2662 217.051 82.5507 217.813 82.6392V61.7755C216.571 61.9042 214.757 62.6781 214.757 66.1055Z" fill="white"/>
<path d="M194.092 173.957C194.053 175.306 194.618 176.596 195.72 177.616C197.153 178.944 199.237 179.556 201.157 179.215C202.876 178.907 204.386 177.881 205.524 176.247C207.676 173.153 214.793 154.461 213.407 145.03C212.285 137.408 206.218 135.02 204.143 134.42C204.361 137.148 204.261 140.222 203.842 143.581C202.674 152.929 199.325 169.616 194.092 173.957Z" fill="#FFB0A8"/>
<path d="M143.183 283.467C143.159 283.327 143.102 283.207 143.026 283.11C143.105 283.213 143.16 283.335 143.183 283.467Z" fill="#FF4239"/>
<path d="M108.51 275.907C108.625 278.479 109.611 282.794 114.924 282.794H142.383C142.463 282.794 142.541 282.806 142.614 282.827C144.054 282.968 160.091 282.885 170.676 282.794H198.142C203.454 282.794 204.44 278.479 204.555 275.907C204.673 273.263 204.246 270.878 203.752 268.835C203.705 268.843 203.658 268.849 203.609 268.849H109.312C108.824 270.874 108.393 273.251 108.51 275.907Z" fill="#FF4239"/>
<path d="M201.955 260.922C201.628 255.761 202.125 252.556 202.563 249.729C202.571 249.676 202.579 249.625 202.587 249.572H110.478C110.486 249.626 110.494 249.679 110.503 249.733C110.941 252.559 111.438 255.762 111.112 260.922C111.01 262.562 110.522 264.336 110.005 266.213C109.913 266.545 109.82 266.883 109.728 267.226H203.339C203.244 266.873 203.149 266.524 203.055 266.182C202.542 264.317 202.058 262.554 201.955 260.922Z" fill="#D7375D"/>
<path d="M198.194 236.217C197.624 236.269 196.62 236.275 194.79 236.284C192.555 236.297 189.367 236.305 185.543 236.309C178.779 236.316 169.353 236.313 157.527 236.3C137.71 236.278 117.902 236.234 116.845 236.232C116.788 236.239 116.656 236.256 116.468 236.291C110.641 237.338 110.01 241.4 109.956 242.619C109.867 244.571 109.992 246.161 110.237 247.948H202.828C203.074 246.161 203.199 244.573 203.11 242.62C202.857 236.978 198.384 236.252 198.193 236.224L198.194 236.217Z" fill="#FF4239"/>
<path d="M182.287 169.573C181.963 169.987 181.611 170.376 181.249 170.748C181.508 172.011 182.625 173.173 184.292 173.88C186.476 174.808 189.863 175.036 192.821 172.899C197.436 169.569 200.977 153.421 202.231 143.379C202.688 139.722 202.755 136.425 202.433 133.58C201.74 127.489 199.205 123.152 194.898 120.69C190.13 117.965 186.999 118.845 186.162 119.174C187.626 122.789 188.377 127.226 188.377 132.4C188.377 143.378 187.586 162.806 182.287 169.573Z" fill="#FFB0A8"/>
<path d="M156.627 284.508C153.251 284.523 150.661 284.532 148.672 284.532C144.609 284.532 143.047 284.496 142.383 284.408V284.417H115.735V320.282H176.56C187.229 313.177 194.216 294.907 195.375 284.417H170.683C170.619 284.418 163.593 284.478 156.627 284.508Z" fill="#FFB0A8"/>
<path d="M171.775 126.693C176.118 130.126 177.388 137.148 174.862 143.769C173.172 148.19 168.873 154.194 165.734 158.578C165.285 159.205 164.859 159.799 164.47 160.349C164.266 160.638 164.026 160.954 163.746 161.305C163.749 165.829 166.34 169.992 170.272 171.743C173.55 173.202 176.996 172.561 179.728 169.983C180.181 169.554 180.613 169.078 181.009 168.572C186.194 161.95 186.754 141.07 186.754 132.4C186.754 127.099 185.954 122.622 184.377 119.091C182.188 114.192 178.59 111.293 173.682 110.473C166.73 109.316 158.412 117.06 158.329 117.139C158.317 117.15 158.305 117.161 158.292 117.171L148.946 124.963C150.245 125.268 155.577 126.484 159.241 126.739C165.713 122.914 170.123 125.387 171.775 126.693Z" fill="#FFB0A8"/>
<path d="M161.329 23.8441L160.593 12.364L151.642 19.5864C151.314 19.851 150.837 19.8206 150.545 19.515L142.601 11.1924L140.387 22.4829C140.306 22.8973 139.917 23.1786 139.501 23.1339L128.067 21.8656L133.629 31.935C133.833 32.3044 133.72 32.7686 133.369 33.0024L123.792 39.3819L134.526 43.5215C134.919 43.6737 135.131 44.1022 135.012 44.5073L131.776 55.5487L142.66 51.8226C142.746 51.793 142.835 51.7792 142.923 51.7792C143.237 51.7792 143.533 51.9622 143.666 52.265L148.285 62.7991L154.227 52.9521C154.445 52.5901 154.904 52.4553 155.283 52.6424L165.592 57.7431L163.813 46.377C163.748 45.9598 164.013 45.5629 164.423 45.463L175.599 42.7443L166.93 35.1826C166.612 34.9054 166.56 34.4306 166.81 34.0905L173.625 24.8214L162.124 24.6039C161.702 24.5958 161.356 24.2654 161.329 23.8441Z" fill="#FF4239"/>
<path d="M147.233 72.9468C140.913 72.5345 134.843 70.4785 129.61 66.9931C125.083 77.0714 121.519 86.3985 119.017 94.724C115.271 107.188 113.299 117.371 111.741 132.298C110.877 140.57 111.172 149.273 111.457 157.689C111.572 161.082 111.686 164.565 111.727 168C116.751 160.013 124.656 153.683 131.704 148.049L131.795 147.976C133.588 146.543 135.53 144.965 137.586 143.295C140.375 141.03 143.255 138.692 146.175 136.379C145.425 133.377 144.836 130.137 144.426 126.739C143.472 118.929 143.507 110.665 144.525 103.472C146.079 92.4931 148.52 84.3052 151.346 74.8251C151.531 74.2041 151.719 73.5742 151.907 72.9395C151.142 72.989 150.372 73.0231 149.596 73.0231C148.811 73.0231 148.022 72.9975 147.233 72.9468Z" fill="#FFB0A8"/>
<path d="M132.809 149.244L132.718 149.317C124.8 155.646 116.612 162.191 111.888 170.92C110.927 172.698 110.14 174.522 109.547 176.341C104.994 190.311 108.877 203.859 112.632 216.961L112.661 217.064C114.295 222.771 115.983 228.67 117.013 234.609C143.528 234.668 192.821 234.745 197.822 234.632C197.843 234.562 197.87 234.494 197.911 234.429C205.304 222.773 206.343 194.48 201.802 180.729C201.682 180.756 201.564 180.791 201.443 180.813C200.984 180.894 200.521 180.934 200.061 180.934C199.607 180.934 199.155 180.89 198.71 180.814C194.915 181.549 187.105 183.752 181.118 190.018C176.759 194.58 174.285 200.655 173.435 203.646C174.784 206.685 175.987 210.046 177.036 214.032C177.15 214.465 176.891 214.91 176.458 215.024C176.023 215.138 175.58 214.879 175.466 214.445C172.593 203.529 168.521 197.346 163.365 189.519C162.621 188.39 161.381 186.938 160.067 185.401C156.531 181.261 152.523 176.569 153.329 173.035C154.121 169.581 157.141 166.268 159.806 163.345C160.662 162.406 161.47 161.517 162.177 160.661C162.239 160.501 162.35 160.366 162.492 160.274C162.746 159.956 162.962 159.671 163.145 159.412C163.536 158.858 163.963 158.263 164.414 157.633C167.502 153.321 171.731 147.415 173.346 143.19C175.621 137.225 174.561 130.965 170.768 127.967C168.304 126.018 165.09 125.817 161.682 127.313C160.567 128.098 158.5 129.368 156.518 130.552C154.006 132.356 151.127 134.54 147.666 137.267C144.589 139.698 141.549 142.167 138.61 144.555C136.552 146.227 134.607 147.807 132.809 149.244Z" fill="#FFB0A8"/>
<path d="M70.7097 61.2459C70.7495 61.265 70.7889 61.2853 70.8258 61.3113L98.6992 80.9854C98.8363 80.0552 98.937 79.1185 98.9958 78.1891C99.4098 71.7954 98.051 65.476 95.0721 59.86C95.0591 59.8608 95.0466 59.864 95.0336 59.864H95.0242L70.7239 59.5909L70.7097 61.2459Z" fill="#F7F5F6"/>
<path d="M67.5996 69.9943C66.8346 69.8827 66.0712 69.8275 65.3163 69.8275C58.5529 69.8275 52.3658 74.1725 50.2088 80.8364C47.503 89.1806 52.0903 98.1712 60.434 100.878C64.4754 102.187 68.7859 101.845 72.5708 99.9131C76.3561 97.9813 79.1617 94.6911 80.4705 90.6485V90.6481C81.7814 86.6071 81.4397 82.2975 79.5083 78.513C77.5769 74.7289 74.2871 71.9229 70.2457 70.6116C69.9052 70.5004 69.5533 70.4034 69.1921 70.3133C67.5156 77.4139 65.5262 86.4107 65.505 86.5044C65.4214 86.8827 65.0858 87.1408 64.7137 87.1408C64.6556 87.1408 64.5968 87.1347 64.5375 87.1217C64.0996 87.0251 63.8232 86.5913 63.9202 86.1538C63.9409 86.0604 65.9231 77.099 67.5996 69.9943Z" fill="#F7F5F6"/>
<path d="M24.1071 182.843C28.2415 187.308 32.6599 185.42 36.819 182.714C40.3628 180.409 48.6607 175.011 55.0783 182.882C58.5349 187.118 62.2508 184.931 66.1846 182.614C67.1582 182.04 68.0783 181.498 68.9789 181.076C69.0365 181.049 69.0953 181.032 69.1546 181.019C70.2914 177.928 70.9817 174.687 71.196 171.37C71.1972 171.347 71.198 171.323 71.1992 171.3C69.9923 171.563 68.5377 172.415 67.0105 173.315C63.0669 175.639 58.1591 178.531 53.8202 173.214C52.0576 171.052 50.0905 169.902 47.8064 169.698C46.2167 169.551 44.4464 169.879 42.543 170.677C40.6238 171.48 38.8669 172.624 37.7045 173.381C35.6522 174.715 33.198 176.118 30.5511 176.405C30.2305 176.44 29.9131 176.458 29.5998 176.458C27.1335 176.458 24.8892 175.382 22.916 173.252C18.9947 169.018 14.3981 168.609 9.25364 172.036L9.10591 172.135C6.11362 174.111 4.04463 174.822 2.93262 175.079C3.41354 177.847 4.23497 180.543 5.38189 183.118C6.32547 182.649 7.3202 182.071 8.35266 181.38C14.099 177.558 19.6932 178.077 24.1071 182.843Z" fill="#FFB0A8"/>
<path d="M24.1068 193.537C28.2387 198.003 32.658 196.115 36.8187 193.408C40.3625 191.104 48.662 185.707 55.078 193.576C56.0622 194.781 57.0934 195.513 58.231 195.812C58.3183 195.835 58.3966 195.875 58.468 195.922C62.6734 192.523 66.0123 188.201 68.2201 183.309C67.826 183.532 67.423 183.768 67.0078 184.013C63.065 186.335 58.158 189.224 53.8199 183.908C48.3244 177.168 41.4153 181.661 37.7038 184.075C36.0346 185.161 33.0005 187.134 29.6105 187.134C27.4368 187.134 25.1166 186.323 22.9157 183.946C18.9969 179.715 14.4007 179.306 9.25296 182.731C8.15434 183.466 7.08981 184.083 6.0752 184.586C7.21968 186.862 8.61781 189.007 10.2424 190.98C15.3601 188.389 20.1474 189.263 24.1068 193.537Z" fill="#D7375D"/>
<path d="M56.9997 159.849C58.0725 162.933 58.6757 163.769 58.9993 163.895C59.5503 163.667 59.4931 162.403 59.3014 161.466C59.1582 161.338 59.0149 161.21 58.8737 161.081C58.2557 160.508 57.6573 160.173 56.9997 159.849Z" fill="#FF4239"/>
<path d="M35.7919 167.943C36.2022 167.765 36.6811 167.951 36.8605 168.362L38.1011 171.201C39.0058 170.638 40.0752 170.018 41.2399 169.48C39.7229 166.184 36.7732 166.095 35.6567 166.196C35.2537 166.399 31.9108 168.173 31.0602 171.314C30.7744 172.377 30.8028 173.506 31.1401 174.669C33.1365 174.262 35.0597 173.158 36.7188 172.084C36.716 172.078 36.7111 172.074 36.7083 172.068L35.3731 169.012C35.1937 168.601 35.3812 168.122 35.7919 167.943Z" fill="#FF4239"/>
<path d="M60.1839 160.076C60.4351 160.138 60.6486 160.318 60.7456 160.574C62.5179 162.112 63.8625 162.941 64.5094 163.174C64.231 162.291 62.1839 158.91 58.4116 155.697C54.2521 152.154 47.7996 148.38 43.9445 146.125C42.9993 145.572 42.1831 145.094 41.6133 144.743C37.4019 142.153 33.4997 143.28 28.1442 148.636C24.2931 152.486 15.4867 163.764 11.4067 169.054C16.05 167.182 20.4769 168.229 24.1072 172.149C25.7513 173.924 27.5244 174.808 29.5045 174.834C29.2521 173.844 29.1799 172.869 29.2943 171.921L27.3097 172.346C27.2533 172.358 27.1965 172.364 27.1401 172.364C26.9144 172.364 26.6961 172.27 26.5407 172.099C26.3463 171.887 26.2793 171.587 26.3649 171.311C26.4189 171.138 27.718 167.01 30.6015 162.252C30.6616 162.152 36.6515 152.315 39.4692 151.843C40.2164 151.721 51.9964 154.411 54.3974 156.416C54.9221 156.852 55.4493 157.215 56.0549 157.558C56.4721 157.793 56.8767 157.987 57.2675 158.174C58.1819 158.613 59.0459 159.026 59.9684 159.881C60.0398 159.947 60.1125 160.011 60.1839 160.076Z" fill="#FF4239"/>
<path d="M316.447 167.125V167.125C315.22 186.065 298.807 200.482 279.867 199.249C260.926 198.018 246.516 181.606 247.743 162.664C248.925 144.478 264.099 130.471 282.071 130.471C282.819 130.471 283.571 130.495 284.327 130.544C293.503 131.138 301.898 135.271 307.964 142.181C314.031 149.09 317.044 157.949 316.447 167.125ZM238.049 106.785C219.107 105.554 204.697 89.1424 205.928 70.2005C206.523 61.0247 210.656 52.6307 217.565 46.5637C223.9 41.0012 231.873 38.0065 240.227 38.0065C240.985 38.0065 241.747 38.0312 242.509 38.0807C251.684 38.6749 260.079 42.8076 266.147 49.7171C272.214 56.6262 275.228 65.4854 274.633 74.6615C273.4 93.6039 256.987 108.021 238.049 106.785ZM183.919 39.2029C183.387 47.4026 179.936 55.1514 174.201 61.0207C168.526 66.8275 160.976 70.4553 152.94 71.2354C151.108 71.4176 149.224 71.4484 147.338 71.3267C140.989 70.9131 134.902 68.765 129.734 65.114C123.433 60.6643 118.756 54.1611 116.566 46.8035C116.566 46.8031 116.566 46.8032 116.566 46.8032C115.402 42.8985 114.947 38.8409 115.214 34.7423C115.811 25.5661 119.944 17.1717 126.854 11.1047C133.19 5.5426 141.163 2.54747 149.517 2.54747C150.275 2.54747 151.036 2.57264 151.799 2.62215C160.975 3.21631 169.369 7.34901 175.436 14.2585C181.503 21.168 184.515 30.0264 183.919 39.2029ZM151.346 74.8251C148.52 84.3056 146.079 92.4931 144.526 103.472C143.507 110.666 143.472 118.929 144.426 126.739C144.836 130.137 145.425 133.377 146.175 136.379C143.255 138.692 140.375 141.03 137.587 143.295C135.531 144.965 133.589 146.543 131.795 147.976L131.704 148.049C124.656 153.683 116.751 160.013 111.727 168C111.686 164.565 111.573 161.082 111.457 157.689C111.172 149.273 110.877 140.57 111.742 132.298C113.299 117.371 115.271 107.188 119.017 94.724C121.519 86.3985 125.083 77.0714 129.61 66.9931C134.843 70.4785 140.913 72.5349 147.234 72.9468C148.022 72.9975 148.811 73.0235 149.596 73.0235C150.372 73.0235 151.142 72.9894 151.907 72.9395C151.719 73.5742 151.531 74.2041 151.346 74.8251ZM156.518 130.553C158.499 129.368 160.567 128.099 161.682 127.313C165.09 125.818 168.304 126.019 170.768 127.967C174.561 130.965 175.621 137.225 173.346 143.19C171.731 147.415 167.502 153.321 164.414 157.633C163.963 158.263 163.537 158.859 163.145 159.412C162.962 159.671 162.745 159.957 162.492 160.274C162.35 160.366 162.239 160.502 162.176 160.661C161.47 161.517 160.662 162.406 159.805 163.345C157.141 166.269 154.121 169.582 153.329 173.035C152.523 176.569 156.531 181.261 160.067 185.401C161.381 186.938 162.621 188.39 163.365 189.519C168.521 197.347 172.592 203.529 175.466 214.446C175.58 214.879 176.023 215.138 176.458 215.024C176.891 214.91 177.15 214.465 177.036 214.032C175.987 210.047 174.785 206.685 173.435 203.646C174.285 200.655 176.759 194.58 181.118 190.019C187.105 183.753 194.915 181.549 198.71 180.814C199.156 180.89 199.607 180.935 200.062 180.934C200.521 180.934 200.984 180.895 201.443 180.813C201.564 180.791 201.682 180.757 201.801 180.729C206.343 194.481 205.305 222.773 197.911 234.429C197.87 234.494 197.843 234.562 197.822 234.632C192.82 234.745 143.527 234.668 117.013 234.609C115.982 228.67 114.295 222.771 112.661 217.064L112.632 216.962C108.877 203.86 104.994 190.311 109.547 176.341C110.139 174.523 110.927 172.698 111.887 170.92C116.612 162.191 124.8 155.646 132.718 149.317L132.809 149.244C134.607 147.807 136.551 146.228 138.611 144.555C141.549 142.168 144.589 139.699 147.666 137.267C151.127 134.54 154.006 132.356 156.518 130.553ZM158.292 117.172C158.305 117.161 158.317 117.15 158.329 117.139C158.413 117.061 166.73 109.316 173.682 110.474C178.59 111.293 182.189 114.192 184.377 119.091C185.954 122.622 186.754 127.1 186.754 132.4C186.754 141.07 186.194 161.95 181.01 168.572C180.613 169.079 180.181 169.554 179.728 169.984C176.997 172.561 173.55 173.202 170.273 171.743C166.34 169.993 163.749 165.829 163.747 161.305C164.026 160.954 164.266 160.638 164.47 160.35C164.86 159.799 165.285 159.205 165.734 158.578C168.873 154.194 173.172 148.19 174.862 143.769C177.388 137.148 176.118 130.126 171.775 126.693C170.123 125.388 165.713 122.914 159.241 126.739C155.577 126.484 150.245 125.269 148.947 124.963L158.292 117.172ZM194.898 120.69C199.205 123.152 201.74 127.489 202.433 133.58C202.756 136.425 202.688 139.722 202.231 143.379C200.977 153.421 197.436 169.569 192.821 172.899C189.863 175.036 186.476 174.808 184.292 173.88C182.626 173.173 181.508 172.011 181.249 170.748C181.611 170.376 181.963 169.988 182.288 169.573C187.586 162.806 188.378 143.378 188.378 132.4C188.378 127.226 187.626 122.789 186.162 119.174C186.999 118.845 190.13 117.965 194.898 120.69ZM204.143 134.42C206.218 135.02 212.285 137.408 213.406 145.031C214.793 154.462 207.676 173.153 205.524 176.247C204.386 177.881 202.876 178.907 201.157 179.215C199.237 179.556 197.153 178.944 195.719 177.616C194.618 176.596 194.053 175.307 194.092 173.957C199.325 169.616 202.674 152.93 203.842 143.581C204.261 140.223 204.361 137.148 204.143 134.42ZM203.11 242.62C203.199 244.573 203.074 246.161 202.828 247.948H110.237C109.992 246.161 109.867 244.572 109.956 242.62C110.01 241.4 110.641 237.338 116.468 236.291C116.656 236.256 116.788 236.239 116.845 236.232C117.902 236.234 137.71 236.278 157.527 236.3C169.353 236.313 178.779 236.316 185.543 236.309C189.367 236.305 192.555 236.297 194.79 236.284C196.62 236.275 197.624 236.269 198.194 236.217L198.193 236.224C198.384 236.252 202.857 236.978 203.11 242.62ZM109.728 267.226C109.82 266.883 109.913 266.545 110.005 266.213C110.521 264.336 111.01 262.562 111.111 260.922C111.438 255.762 110.941 252.559 110.503 249.733C110.494 249.679 110.486 249.626 110.478 249.572H202.587C202.579 249.625 202.571 249.676 202.563 249.729C202.125 252.556 201.628 255.76 201.954 260.922C202.058 262.555 202.542 264.316 203.055 266.182C203.148 266.524 203.244 266.873 203.339 267.226H109.728ZM203.609 268.849C203.658 268.849 203.706 268.843 203.752 268.835C204.246 270.878 204.674 273.263 204.555 275.907C204.441 278.479 203.454 282.794 198.142 282.794H170.676C160.091 282.885 144.054 282.968 142.614 282.827C142.541 282.806 142.464 282.794 142.383 282.794H114.924C109.611 282.794 108.625 278.479 108.511 275.907C108.393 273.251 108.825 270.874 109.312 268.849H203.609ZM143.026 283.11C143.102 283.207 143.16 283.327 143.183 283.468C143.16 283.335 143.105 283.213 143.026 283.11ZM176.56 320.282H115.735V284.418H142.383V284.408C143.047 284.496 144.609 284.532 148.672 284.532C150.661 284.532 153.251 284.523 156.628 284.508C163.593 284.478 170.62 284.418 170.682 284.418H195.375C194.217 294.908 187.229 313.177 176.56 320.282ZM79.2219 231.623L55.3326 200.084C56.5482 199.358 57.7328 198.556 58.8615 197.686C64.062 193.669 68.0632 188.33 70.4321 182.245C71.7742 178.81 72.5761 175.186 72.8156 171.472C72.8367 171.127 72.8574 170.778 72.8655 170.433C73.4954 153.208 61.9313 138.067 45.2633 134.093L53.1979 110.139C56.1358 111.122 59.1947 111.726 62.3059 111.928C63.1042 111.98 63.8956 112.006 64.6849 112.006C82.0356 112.004 97.0473 99.6087 100.126 82.3251C100.366 80.9919 100.531 79.6351 100.616 78.293C101.066 71.3445 99.521 64.476 96.148 58.4298C95.7787 57.7626 95.3667 57.0933 94.937 56.4281L115.266 48.0645C117.585 55.2281 122.162 61.5629 128.258 66.0418C123.641 76.2942 120.008 85.7853 117.462 94.2573C113.685 106.828 111.696 117.092 110.127 132.129C109.251 140.513 109.548 149.274 109.835 157.745C109.976 161.918 110.122 166.234 110.122 170.408C110.122 170.51 110.144 170.607 110.178 170.697C109.301 172.388 108.565 174.113 108.004 175.838C103.401 189.961 107.079 203.461 110.818 216.523C98.4288 215.763 86.413 221.524 79.2219 231.623ZM53.7616 199.125C47.9362 202.418 41.316 203.93 34.6151 203.49C25.5957 202.904 17.3741 198.916 11.3424 192.245C15.6598 190.208 19.551 191.007 22.9155 194.64C25.1155 197.018 27.4349 197.829 29.609 197.829C32.9991 197.828 36.0344 195.855 37.704 194.769C41.4155 192.355 48.3241 187.862 53.8201 194.602C54.7738 195.77 55.8266 196.596 56.9568 197.079C55.926 197.821 54.8558 198.508 53.7616 199.125ZM6.07536 184.586C7.08997 184.083 8.15451 183.466 9.25313 182.731C14.4004 179.306 18.997 179.715 22.9159 183.946C25.1168 186.323 27.4366 187.134 29.6103 187.134C33.0007 187.134 36.0348 185.161 37.704 184.075C41.4155 181.661 48.3245 177.168 53.8201 183.908C58.1581 189.224 63.0652 186.335 67.008 184.013C67.4231 183.768 67.8257 183.532 68.2202 183.309C66.012 188.201 62.6736 192.523 58.4682 195.922C58.3964 195.875 58.3185 195.835 58.2312 195.812C57.0936 195.513 56.0624 194.781 55.0778 193.576C48.6622 185.707 40.3627 191.104 36.8189 193.408C32.6582 196.115 28.2389 198.003 24.107 193.537C20.1476 189.263 15.3603 188.389 10.2426 190.98C8.61798 189.007 7.21984 186.862 6.07536 184.586ZM2.93252 175.079C4.04454 174.822 6.11353 174.111 9.10582 172.136L9.25352 172.037C14.398 168.609 18.9946 169.018 22.9159 173.253C24.8891 175.383 27.133 176.458 29.5997 176.458C29.913 176.458 30.2304 176.44 30.551 176.405C33.1979 176.118 35.6521 174.715 37.7044 173.381C38.8668 172.625 40.6237 171.48 42.5429 170.678C44.4463 169.879 46.2166 169.551 47.8063 169.698C50.0904 169.903 52.0575 171.052 53.8201 173.214C58.159 178.531 63.0664 175.639 67.0104 173.315C68.5376 172.416 69.9922 171.563 71.1991 171.3C71.1979 171.323 71.1971 171.347 71.1959 171.37C70.9816 174.687 70.2913 177.928 69.1541 181.019C69.0948 181.032 69.036 181.05 68.9788 181.077C68.0782 181.499 67.1581 182.04 66.1845 182.614C62.2507 184.931 58.5344 187.119 55.0778 182.882C48.6606 175.012 40.3627 180.409 36.8189 182.714C32.6598 185.42 28.2409 187.308 24.107 182.843C19.6931 178.077 14.0989 177.558 8.35256 181.381C7.32009 182.071 6.32537 182.649 5.38178 183.118C4.23487 180.543 3.41304 177.847 2.93252 175.079ZM58.9995 163.896C58.6756 163.769 58.0725 162.933 56.9999 159.849C57.6573 160.173 58.256 160.508 58.8737 161.081C59.0149 161.21 59.1582 161.338 59.3014 161.466C59.4934 162.403 59.5502 163.668 58.9995 163.896ZM57.2673 158.174C56.8765 157.987 56.4719 157.794 56.0547 157.559C55.4491 157.215 54.9219 156.852 54.3972 156.416C51.9962 154.411 40.2162 151.721 39.469 151.844C36.6513 152.316 30.6614 162.153 30.6013 162.252C27.7178 167.01 26.4187 171.138 26.3647 171.311C26.2791 171.587 26.3457 171.887 26.5405 172.1C26.6959 172.27 26.9142 172.364 27.1399 172.364C27.1963 172.364 27.2531 172.358 27.3095 172.346L29.2941 171.922C29.1797 172.869 29.2519 173.844 29.5043 174.834C27.5242 174.808 25.7511 173.924 24.107 172.149C20.4767 168.229 16.0498 167.183 11.4065 169.054C15.4865 163.764 24.2929 152.487 28.1439 148.636C33.4995 143.281 37.4016 142.154 41.6131 144.744C42.1829 145.095 42.9991 145.572 43.9443 146.125C47.7994 148.38 54.2519 152.154 58.4114 155.697C62.1837 158.911 64.2308 162.292 64.5092 163.175C63.8623 162.941 62.5177 162.112 60.7454 160.575C60.648 160.318 60.4349 160.139 60.1837 160.076C60.1123 160.011 60.0396 159.948 59.9682 159.881C59.0457 159.027 58.1817 158.613 57.2673 158.174ZM35.3732 169.012L36.7085 172.068C36.7113 172.074 36.7162 172.079 36.719 172.085C35.0599 173.158 33.1366 174.262 31.1403 174.67C30.803 173.506 30.7746 172.377 31.0604 171.314C31.911 168.173 35.2535 166.4 35.6569 166.196C36.7734 166.095 39.7231 166.185 41.2401 169.48C40.0753 170.018 39.006 170.638 38.1013 171.201L36.8607 168.362C36.6813 167.951 36.2024 167.765 35.7921 167.943C35.3814 168.123 35.1939 168.601 35.3732 169.012ZM2.49096 166.909C3.08755 157.733 7.22148 149.338 14.1314 143.27C20.467 137.707 28.4402 134.711 36.7949 134.711C37.5522 134.711 38.3132 134.736 39.0762 134.785C40.7742 134.895 42.4613 135.13 44.0924 135.483C60.1975 138.928 71.5104 153.225 71.2539 169.64C69.6728 169.862 67.9702 170.865 66.1861 171.917C62.2515 174.235 58.5352 176.425 55.0782 172.188C53.2832 169.987 51.1947 168.653 48.8615 168.21C48.8611 168.205 48.8623 168.2 48.8619 168.196C48.8578 168.144 48.8379 167.957 48.7588 167.673C48.7559 167.662 48.7535 167.652 48.7507 167.641C48.4735 166.628 47.4021 164.125 43.4467 162.765C39.1691 161.295 35.9333 163.809 35.0153 164.642C35.0108 164.643 35.0035 164.644 35.0035 164.644C34.7945 164.688 34.6224 164.81 34.5076 164.971C33.4102 165.595 30.8148 167.319 29.7267 170.177C29.6992 170.18 29.672 170.18 29.6444 170.186L28.3915 170.454C28.9926 168.878 30.172 166.092 31.9897 163.093C34.8302 158.405 38.5092 153.802 39.6703 153.46C41.0218 153.613 51.4171 156.043 53.3582 157.664C53.8481 158.071 54.3408 158.42 54.8797 158.748C54.8891 158.765 54.8956 158.782 54.9065 158.799C54.969 158.917 55.1366 159.414 55.2848 159.853C56.1042 162.282 57.2008 165.533 58.9751 165.533C59.1383 165.533 59.3075 165.506 59.4824 165.447C60.4495 165.125 60.9905 164.23 61.0575 162.937C63.178 164.576 64.6756 165.168 65.5185 164.7C65.8266 164.529 66.3164 164.083 66.1378 163.016C65.9341 161.812 63.5295 157.924 59.4637 154.461C55.1951 150.825 48.6655 147.006 44.7641 144.724C43.827 144.176 43.0181 143.702 42.4634 143.361C36.2767 139.555 31.1728 143.311 26.9962 147.488C21.8457 152.638 8.53113 170.128 7.96701 170.87C7.93981 170.905 7.91911 170.943 7.89842 170.981C5.34322 172.626 3.61189 173.243 2.68779 173.471C2.41628 171.309 2.34932 169.106 2.49096 166.909ZM64.5376 87.1217C64.5965 87.1347 64.6553 87.1408 64.7138 87.1408C65.0859 87.1408 65.4215 86.8827 65.5051 86.5044C65.5258 86.4107 67.5157 77.4139 69.1922 70.3133C69.5534 70.4034 69.9053 70.5004 70.2454 70.6116C74.2872 71.9229 77.5766 74.7289 79.5084 78.513C81.4398 82.2975 81.7815 86.6071 80.4706 90.6485C79.1618 94.6911 76.3562 97.9813 72.5705 99.9131C68.786 101.845 64.4755 102.187 60.4341 100.878C52.0904 98.1712 47.5031 89.1806 50.2089 80.8364C52.3659 74.1725 58.553 69.8275 65.316 69.8275C66.0713 69.8275 66.8347 69.8827 67.5997 69.9943C65.9232 77.099 63.941 86.0604 63.9203 86.1538C63.8233 86.5913 64.0997 87.0251 64.5376 87.1217ZM95.0242 59.864H95.0335C95.0469 59.864 95.0591 59.8608 95.0721 59.86C98.051 65.476 99.4097 71.7954 98.9958 78.1891C98.9369 79.1185 98.8367 80.0552 98.6991 80.9854L70.8262 61.3113C70.7888 61.2853 70.7495 61.265 70.7097 61.2459L70.7239 59.5909L95.0242 59.864ZM30.2913 73.7277C30.8879 64.5499 35.0214 56.1542 41.9317 50.0868C48.2669 44.5243 56.2405 41.5288 64.5948 41.5288C65.3521 41.5288 66.1131 41.554 66.8761 41.6035C77.5461 42.2983 87.1159 47.7743 93.1321 56.627C93.4925 57.1574 93.8286 57.694 94.1512 58.2305L70.7377 57.9675L70.7961 51.125C70.7961 51.1104 70.7961 51.0954 70.7953 51.0803L70.6411 47.7565C70.622 47.3433 70.2953 47.0105 69.8826 46.9841C68.6525 46.905 57.775 46.2475 54.7929 47.6083C53.2474 48.3157 52.1318 49.8356 51.8091 51.6737C51.4735 53.584 52.0202 55.459 53.2706 56.6883C55.6577 59.0398 62.4284 58.1765 63.1931 58.0706C63.637 58.0089 63.9467 57.599 63.8854 57.155C63.8233 56.7106 63.4126 56.4014 62.9698 56.4622C60.3883 56.8198 55.7815 56.8827 54.4094 55.5312C53.5522 54.6887 53.1687 53.3182 53.4081 51.9545C53.6419 50.6225 54.3927 49.5767 55.4678 49.0844C57.5295 48.1437 65.3842 48.3587 69.0534 48.5609L69.1728 51.1335L69.0676 63.4488C69.0664 63.5641 69.0904 63.6737 69.133 63.7731C69.1204 63.8044 69.1066 63.8344 69.0977 63.8677C68.8858 64.6794 68.6452 65.6509 68.3838 66.7151C59.051 65.2045 49.9552 70.7195 47.0088 79.8003C45.4207 84.6976 45.8347 89.92 48.1744 94.5044C50.5145 99.0893 54.5003 102.487 59.3972 104.074C61.3538 104.709 63.3623 105.023 65.3615 105.023C68.3647 105.023 71.346 104.312 74.0985 102.908C78.6833 100.568 82.0826 96.5824 83.6707 91.685C85.2588 86.7897 84.8448 81.5682 82.5047 76.9842C80.165 72.3993 76.1792 69 71.2815 67.4115C70.8497 67.2719 70.4126 67.1526 69.9747 67.0438C70.2283 66.0109 70.4621 65.0686 70.6683 64.2776C70.715 64.099 70.6959 63.92 70.6297 63.7617C70.6675 63.6692 70.6898 63.5686 70.691 63.4622L70.693 63.2045L98.3842 82.75C95.0149 99.6254 79.6833 111.427 62.4114 110.308C59.1756 110.099 55.9978 109.438 52.9662 108.345C38.6253 103.188 29.301 88.9525 30.2913 73.7277ZM309.184 141.11C302.831 133.874 294.041 129.547 284.432 128.924C280.298 128.656 276.279 129.101 272.495 130.15C272.484 130.106 272.471 130.062 272.452 130.019L260.267 102.404C269.276 96.3807 275.497 86.3928 276.253 74.7666V74.7662C276.876 65.1574 273.72 55.8811 267.366 48.6461C261.013 41.4107 252.223 37.0832 242.614 36.4606C233.008 35.8393 223.729 38.9911 216.494 45.3437C214.183 47.3725 212.173 49.6518 210.482 52.125L185.448 40.3474C185.48 40.0012 185.516 39.6558 185.539 39.308C186.163 29.6992 183.009 20.4225 176.656 13.1875C170.303 5.9521 161.512 1.62458 151.904 1.00202C142.297 0.378642 133.019 3.53246 125.784 9.88513C118.548 16.2378 114.219 25.028 113.594 34.6368C113.331 38.6611 113.743 42.6477 114.801 46.5012L94.0672 55.0308C94.0486 55.0385 94.0327 55.0495 94.0153 55.0584C87.6943 46.1757 77.8874 40.6936 66.9812 39.9833C57.3712 39.3575 48.0956 42.5138 40.8603 48.8669C33.6249 55.2204 29.2957 64.0121 28.6715 73.6221C27.6517 89.2983 37.079 103.966 51.6707 109.587L43.6683 133.745C42.1996 133.462 40.6955 133.263 39.1809 133.165C29.5721 132.54 20.2961 135.696 13.0599 142.05C5.82456 148.404 1.49541 157.195 0.871225 166.804C0.71051 169.288 0.807117 171.78 1.15168 174.217C1.13626 174.28 1.12529 174.343 1.12448 174.41C1.12326 174.567 1.16913 174.712 1.24583 174.836C1.77871 178.199 2.786 181.468 4.25109 184.558C5.61717 187.443 7.36758 190.14 9.4528 192.571C15.8225 200.021 24.7215 204.474 34.5096 205.11C35.3014 205.161 36.0916 205.187 36.8801 205.187C42.8327 205.187 48.6622 203.717 53.9082 200.893L78.0591 232.777C78.1261 232.865 78.2093 232.931 78.2994 232.984C74.9901 238.115 73.0315 244.037 72.6326 250.169C72.01 259.778 75.1658 269.054 81.5189 276.289C87.8728 283.524 96.663 287.852 106.271 288.474C107.066 288.527 107.862 288.553 108.657 288.553C110.49 288.553 112.314 288.405 114.112 288.127V320.282H70.5405C70.0924 320.282 69.7288 320.645 69.7288 321.094C69.7288 321.542 70.0924 321.905 70.5405 321.905H246.583C247.032 321.905 247.395 321.542 247.395 321.094C247.395 320.645 247.032 320.282 246.583 320.282H198.954V284.385C203.333 284.056 205.951 281.036 206.177 275.98C206.32 272.777 205.728 269.971 205.129 267.648C204.962 266.998 204.788 266.365 204.62 265.752C204.109 263.892 203.667 262.286 203.575 260.819C203.259 255.834 203.721 252.857 204.167 249.977C204.223 249.618 204.278 249.263 204.331 248.908C204.587 247.191 204.85 245.142 204.732 242.547C204.52 237.82 201.665 235.641 199.529 234.896C207.117 222.365 207.986 194.25 203.338 180.204C204.696 179.575 205.894 178.556 206.856 177.174C209.355 173.582 216.451 154.578 215.012 144.795C213.629 135.39 205.311 133.023 203.952 132.698C203.082 126.432 200.314 121.916 195.704 119.281C190.316 116.202 186.6 117.252 185.506 117.69C183.074 112.777 179.096 109.732 173.949 108.873C166.312 107.594 157.806 115.406 157.235 115.94L145.906 125.384C145.108 118.057 145.184 110.403 146.133 103.699C147.67 92.8405 150.094 84.707 152.902 75.2889C153.147 74.4675 153.396 73.6319 153.647 72.7853C161.856 71.8591 169.549 68.1027 175.362 62.155C180.725 56.6668 184.174 49.6087 185.248 42.0475L209.585 53.4971C206.52 58.4533 204.696 64.1152 204.309 70.0953C203.02 89.9302 218.108 107.116 237.943 108.405C238.735 108.457 239.522 108.482 240.305 108.482C247.056 108.482 253.425 106.586 258.881 103.286L270.942 130.618C257.337 135.062 247.106 147.428 246.123 162.559C244.837 182.394 259.928 199.58 279.762 200.869C280.552 200.92 281.335 200.945 282.117 200.945C300.94 200.945 316.833 186.273 318.067 167.23C318.691 157.622 315.537 148.345 309.184 141.11Z" fill="#700051"/>
<path d="M166.81 34.0909C166.56 34.431 166.613 34.9058 166.931 35.183L175.6 42.7447L164.423 45.4631C164.013 45.5633 163.748 45.9602 163.813 46.3774L165.592 57.7435L155.284 52.6428C154.904 52.4557 154.446 52.5905 154.228 52.9525L148.285 62.7995L143.666 52.2654C143.533 51.9626 143.237 51.7796 142.923 51.7796C142.835 51.7796 142.747 51.7934 142.66 51.823L131.776 55.5491L135.013 44.5077C135.131 44.1027 134.92 43.6741 134.526 43.5219L123.792 39.3823L133.369 33.0028C133.72 32.7691 133.834 32.3048 133.629 31.935L128.068 21.8661L139.501 23.1343C139.918 23.179 140.306 22.8977 140.387 22.4833L142.602 11.1928L150.546 19.5154C150.837 19.821 151.314 19.8514 151.643 19.5868L160.594 12.3644L161.33 23.8445C161.356 24.2658 161.702 24.5958 162.124 24.6043L173.625 24.8218L166.81 34.0909ZM162.902 22.9951L162.114 10.6964C162.094 10.3937 161.908 10.1274 161.63 10.0053C161.352 9.88351 161.03 9.92653 160.794 10.1169L151.205 17.8543L142.694 8.9383C142.485 8.71874 142.171 8.63473 141.879 8.71955C141.588 8.80478 141.369 9.04504 141.311 9.34293L138.938 21.4383L126.689 20.0799C126.388 20.0475 126.093 20.1838 125.925 20.4359C125.756 20.6887 125.743 21.0134 125.889 21.2792L131.847 32.0661L121.588 38.9005C121.336 39.0686 121.198 39.3632 121.231 39.6643C121.264 39.9663 121.463 40.2236 121.746 40.3332L133.244 44.7682L129.778 56.5958C129.693 56.8867 129.777 57.2009 129.996 57.4107C130.215 57.6201 130.532 57.6899 130.82 57.5921L134.984 56.1676H134.984L142.479 53.601L147.427 64.8855C147.549 65.1635 147.815 65.3498 148.117 65.3697C148.135 65.3709 148.153 65.3713 148.171 65.3713C148.453 65.3713 148.718 65.2236 148.865 64.9789L155.234 54.4298L166.276 59.8936C166.548 60.0276 166.872 60.0004 167.117 59.8202C167.361 59.6408 167.485 59.3401 167.438 59.0406L165.533 46.8644L177.506 43.9521C177.8 43.8803 178.031 43.6506 178.102 43.3559C178.174 43.0613 178.076 42.7512 177.848 42.5519L168.56 34.4509L175.862 24.5207C176.042 24.2764 176.07 23.9525 175.935 23.6806C175.801 23.4087 175.527 23.2342 175.223 23.2281L162.902 22.9951Z" fill="#700051"/>
<path d="M262.216 82.6607V61.7536C262.265 61.7585 262.315 61.7597 262.366 61.7557C262.376 61.7532 263.44 61.6769 264.298 62.457C265.087 63.1749 265.487 64.4022 265.487 66.1055L265.488 78.166C265.489 78.1891 265.544 80.4752 264.287 81.7719C263.761 82.3145 263.08 82.6055 262.216 82.6607ZM260.593 86.8604C260.593 88.3551 259.377 89.5718 257.882 89.5718H254.047C252.55 89.5718 251.332 88.3551 251.332 86.8604V57.6234C251.332 56.1262 252.55 54.9083 254.047 54.9083H257.882C259.377 54.9083 260.593 56.1262 260.593 57.6234V86.8604ZM249.708 74.8924H230.325V69.6408H249.708V74.8924ZM228.702 57.6234V86.8604C228.702 88.3551 227.484 89.5718 225.987 89.5718H222.151C220.654 89.5718 219.436 88.3551 219.436 86.8604V57.6234C219.436 56.1262 220.654 54.9083 222.151 54.9083H225.987C227.484 54.9083 228.702 56.1262 228.702 57.6234ZM217.813 82.6396C217.05 82.5511 216.438 82.2662 215.956 81.769C214.7 80.4728 214.756 78.1891 214.757 78.1392V66.1055C214.757 62.6781 216.57 61.9042 217.813 61.7755V82.6396ZM267.111 78.1392V66.1055C267.111 63.9257 266.532 62.2942 265.39 61.2561C264.004 59.9951 262.311 60.1307 262.216 60.1388V57.6234C262.216 55.2309 260.272 53.2849 257.882 53.2849H254.047C251.655 53.2849 249.708 55.2309 249.708 57.6234V68.017H230.325V57.6234C230.325 55.2309 228.379 53.2849 225.987 53.2849H222.151C219.759 53.2849 217.813 55.2309 217.813 57.6234V60.1518C214.37 60.3969 213.134 63.3689 213.134 66.1055L213.134 78.11C213.13 78.2309 213.048 81.0917 214.782 82.8908C215.57 83.7074 216.586 84.1708 217.813 84.2735V86.8604C217.813 89.2508 219.759 91.1952 222.151 91.1952H225.987C228.379 91.1952 230.325 89.2508 230.325 86.8604V76.5158H249.708V86.8604C249.708 89.2508 251.655 91.1952 254.047 91.1952H257.882C260.272 91.1952 262.216 89.2508 262.216 86.8604V84.2828C263.535 84.2199 264.627 83.7569 265.46 82.8936C267.196 81.0953 267.114 78.2309 267.111 78.1392Z" fill="#700051"/>
<path d="M301.339 154.215C298.763 152.218 295.359 151.347 294.357 151.125C289.964 150.144 286.574 149.994 284.308 152.445C283.475 153.343 283.138 154.545 283.313 155.845C279.883 155.483 277.066 154.508 274.947 152.923C270.916 149.909 270.069 145.286 270.069 141.937C270.069 141.899 270.063 141.862 270.058 141.825C271.112 139.909 272.619 138.726 274.78 138.138C280.932 136.458 298.489 138.738 301.58 143.222C304.277 147.133 302.012 152.748 301.339 154.215ZM301.918 161.43C298.925 167.041 289.604 176.868 289.51 176.966C289.485 176.993 289.465 177.022 289.444 177.051C289.413 177.034 289.383 177.016 289.351 177C287.786 176.212 285.916 175.529 283.793 174.971C281.213 174.299 278.29 173.82 275.107 173.548C272.117 173.287 269.703 173.273 268.591 173.285C268.292 171 267.291 162.522 267.714 154.476C267.902 150.901 268.177 147.872 268.75 145.42C269.266 148.288 270.558 151.386 273.416 153.771C272.495 158.909 272.2 164.577 280.351 166.852C280.683 166.943 280.816 166.877 281.682 166.453C282.692 165.957 284.573 165.035 286.576 164.367C290.993 162.896 293.137 163.33 293.15 163.332C293.561 163.432 293.976 163.196 294.108 162.796C294.239 162.396 294.043 161.961 293.656 161.796C293.603 161.773 288.413 159.551 286.642 158.438C285.973 158.017 285.396 157.251 285.098 156.39C284.916 155.861 284.591 154.526 285.499 153.547C287.24 151.665 290.157 151.851 294.005 152.71C295.945 153.14 298.675 154.133 300.519 155.631C302.624 157.346 303.082 159.243 301.918 161.43ZM287.318 188.831C286.304 187.801 284.673 186.821 282.581 185.998L283.333 181.767C283.339 181.758 283.348 181.752 283.354 181.743C283.492 181.537 283.519 181.293 283.456 181.072L284.22 176.773C285.886 177.255 287.365 177.817 288.623 178.451C288.763 178.521 288.902 178.593 289.039 178.666L287.318 188.831ZM274.97 178.842L275.731 175.238C278.231 175.482 280.55 175.858 282.645 176.36L281.981 180.093C279.957 179.404 276.567 179.002 274.97 178.842ZM281.031 185.445C280.999 185.435 280.97 185.424 280.938 185.414C279.706 185.019 278.407 184.694 277.077 184.448C275.998 184.246 274.926 184.102 273.879 184.015L274.633 180.441C276.541 180.628 280.081 181.079 281.694 181.711L281.031 185.445ZM266.082 184.785L268.593 174.909C269.556 174.898 271.591 174.909 274.101 175.096L272.239 183.924C269.664 183.851 267.549 184.155 266.082 184.785ZM302.917 142.3C299.171 136.868 280.525 134.885 274.354 136.573C271.599 137.321 269.646 138.935 268.383 141.506C266.886 144.548 266.384 148.857 266.093 154.39C265.592 163.915 267.052 174.02 267.067 174.121C267.072 174.157 267.082 174.191 267.092 174.225L263.938 186.632C263.919 186.708 263.914 186.784 263.917 186.86C263.896 186.931 263.876 187.003 263.862 187.076C263.668 188.11 264.068 189.711 267.076 191.466C269.183 192.694 272.084 193.696 275.246 194.286C277.167 194.643 279.054 194.824 280.778 194.824C281.893 194.824 282.939 194.748 283.884 194.596C287.322 194.042 288.273 192.694 288.464 191.663C288.499 191.481 288.509 191.296 288.499 191.11C288.565 191.015 288.613 190.907 288.634 190.786L290.736 178.372C290.754 178.263 290.742 178.155 290.718 178.052C291.377 177.358 300.304 167.905 303.351 162.193C304.649 159.754 304.365 157.372 302.581 155.366C302.587 155.355 302.596 155.346 302.602 155.335C302.766 155.023 306.587 147.623 302.917 142.3Z" fill="#700051"/>
</svg>
