<svg width="375" height="376" viewBox="0 0 375 376" fill="none" xmlns="http://www.w3.org/2000/svg">
<path d="M286.078 175.271C286.077 175.268 286.076 175.266 286.075 175.264C286.068 175.25 286.063 175.236 286.057 175.222C285.997 175.069 285.937 174.921 285.876 174.772C285.87 174.758 285.866 174.744 285.86 174.731L285.64 174.191C285.514 173.883 285.389 173.576 285.265 173.269C285.236 173.219 285.201 173.174 285.181 173.117C285.161 173.062 285.149 173.004 285.134 172.947C271.648 139.995 262.163 121.301 256.945 117.388C240.743 104.909 187.093 87.0351 186.553 86.8559C183.24 85.6735 178.265 83.8976 172.844 83.2808C166.23 82.528 160.573 83.616 155.543 86.6056C149.048 90.457 143.564 105.207 143.509 105.356C143.5 105.381 143.489 105.405 143.478 105.43C143.396 105.604 135.305 122.983 134.864 128.089C134.357 133.968 137.952 136.408 140.142 137.34L140.293 137.4C140.426 137.422 140.551 137.47 140.662 137.542C141.157 137.719 141.475 137.788 141.478 137.789C141.517 137.798 141.557 137.808 141.594 137.821L146.63 139.576C146.044 136.036 146.391 132.417 147.07 130.187C147.24 129.627 147.437 128.959 147.663 128.196C149.469 122.083 153.227 109.362 159.621 96.5732C159.854 96.1052 160.424 95.9142 160.892 96.1493C161.361 96.3835 161.551 96.9529 161.317 97.4213C154.998 110.06 151.272 122.672 149.481 128.733C149.254 129.502 149.056 130.174 148.883 130.739C148.187 133.03 147.88 136.964 148.769 140.587C149.63 144.091 151.387 146.558 153.991 147.917C155.553 148.733 157.433 149.147 159.577 149.147C163.151 149.147 166.264 149.245 169.011 149.331C176.188 149.557 180.52 149.693 182.849 147.799C183.79 147.034 185.218 145.602 186.979 143.66C187.038 143.594 187.107 143.542 187.179 143.497C187.573 143.064 188.384 142.155 189.352 140.975C189.365 140.958 189.38 140.941 189.395 140.924C189.594 140.68 189.798 140.427 190.006 140.161C190.019 140.145 190.032 140.13 190.046 140.114C193.074 136.281 194.859 133.149 195.208 131.057C195.237 130.882 195.315 130.729 195.42 130.604C195.415 128.023 194.234 125.963 192.215 125.058C189.234 123.722 185.117 125.164 181.202 128.915C179.153 130.88 177.481 133.034 176.005 134.936C173.46 138.214 171.621 140.584 169.433 139.711C168.333 139.271 167.995 137.687 168.4 134.868C169.373 128.094 174.726 115.104 183.244 114.292C192.247 113.442 195.392 118.977 195.814 122.084C199.1 134.603 204.002 144.308 210.385 150.93C217.654 158.475 225.073 160.134 228.875 160.448C230.651 160.408 231.552 160.467 231.59 160.47C231.592 160.47 231.593 160.471 231.594 160.471C231.655 160.475 231.713 160.486 231.77 160.501C231.798 160.509 231.824 160.52 231.85 160.53C231.88 160.541 231.91 160.551 231.938 160.564C231.963 160.577 231.986 160.592 232.01 160.606C232.037 160.623 232.065 160.639 232.091 160.658C232.111 160.673 232.129 160.691 232.148 160.707C232.174 160.73 232.199 160.753 232.223 160.778C232.239 160.796 232.253 160.815 232.268 160.834C232.289 160.861 232.311 160.89 232.329 160.92C232.343 160.941 232.353 160.963 232.365 160.985C232.38 161.016 232.395 161.046 232.407 161.079C232.417 161.104 232.425 161.13 232.432 161.156C232.438 161.176 232.446 161.194 232.451 161.214L254.472 262.008C254.473 262.014 254.472 262.019 254.474 262.024C254.474 262.027 254.475 262.031 254.476 262.035C254.476 262.036 254.477 262.037 254.477 262.039C254.478 262.044 254.479 262.049 254.48 262.054C254.481 262.055 254.481 262.055 254.481 262.056L254.484 262.067C254.7 262.98 254.885 263.822 255.031 264.568C255.032 264.573 255.042 264.622 255.042 264.627C255.046 264.65 255.045 264.674 255.048 264.697C255.051 264.732 255.056 264.767 255.056 264.802C255.056 264.835 255.051 264.867 255.047 264.899C255.044 264.927 255.043 264.956 255.037 264.983C255.028 265.03 255.014 265.075 254.998 265.119C254.994 265.129 254.992 265.14 254.988 265.149C254.872 265.447 254.614 265.682 254.28 265.742C254.221 265.753 254.163 265.758 254.106 265.758C253.663 265.758 253.272 265.453 253.185 265.004C253.184 265.001 253.183 264.999 253.183 264.997L253.182 264.992C253.182 264.992 253.182 264.991 253.181 264.991V264.989L252.628 262.461C252.628 262.459 252.628 262.457 252.628 262.455C252.626 262.448 252.626 262.441 252.624 262.434C252.624 262.432 252.623 262.431 252.623 262.43C252.622 262.425 252.621 262.419 252.619 262.414V262.413L252.619 262.412C249.968 251.288 239.044 214.724 207.219 196.561C207.441 197.13 207.641 197.781 207.8 198.536C207.875 198.897 207.925 199.216 207.975 199.531C208.188 200.903 208.39 202.198 211.272 207.418C212.313 209.306 221.391 226.076 219.417 233.42C218.54 236.685 211.814 239.115 198.858 240.85C194.799 241.397 191.327 241.697 190.028 241.8C188.704 244.491 184.68 252.637 183.377 254.955C187.888 257.343 200.535 264.228 205.937 269.109C206.003 269.152 206.067 269.201 206.123 269.262C206.138 269.279 206.148 269.298 206.162 269.315C206.99 270.08 207.599 270.762 208.005 271.391C210.643 275.473 211.051 279.377 209.461 285.316C208.161 290.166 205.598 295.918 203.336 300.993C201.436 305.258 199.794 308.941 199.437 310.894C199.173 312.339 199.128 313.793 199.303 315.216C199.866 319.875 202.685 323.248 204.507 324.154C204.912 324.357 205.69 324.616 206.589 324.915C210.406 326.185 217.509 328.548 219.243 334.316C219.567 335.4 219.685 336.559 219.601 337.769C256.835 337.723 286.032 337.678 292.448 337.668L293.767 337.666C309.247 337.666 320.041 333.402 325.846 324.993C335.771 310.618 328.483 288.24 326.013 281.724C325.255 279.726 323.702 275.408 321.553 269.433C319.627 264.079 317.23 257.414 314.484 249.858C303.455 219.551 294.163 195.154 286.078 175.271Z" fill="#D8375D"/>
<path d="M208.451 155.741C200.036 152.046 190.804 150.891 181.616 150.569C179.806 151.176 177.536 151.353 174.658 151.353C172.973 151.353 171.081 151.293 168.952 151.226C166.219 151.14 163.122 151.043 159.577 151.043C157.727 151.043 156.036 150.766 154.528 150.219C154.486 153.673 153.651 156.237 151.99 158.026C149.873 160.306 146.441 161.387 140.861 161.529C140.853 161.53 140.845 161.53 140.836 161.53C140.324 161.53 139.902 161.121 139.889 160.606C139.876 160.082 140.289 159.647 140.813 159.633C145.84 159.505 148.859 158.611 150.6 156.736C152.055 155.168 152.71 152.731 152.616 149.32C149.998 147.773 148.112 145.179 147.12 141.755L141.022 139.63C140.873 139.595 140.501 139.501 139.988 139.314C138.559 139.531 137.344 139.866 136.197 140.368C134.746 141.005 132.633 143.955 131.576 148.164C130.343 153.072 131.063 157.709 133.553 160.888C138.613 167.359 152.561 167.163 152.694 167.162C154.684 167.066 157.772 167.231 161.683 167.44C170.832 167.93 184.66 168.669 194.363 166.135C206.646 162.926 215.838 161.498 222.073 160.881C220.857 160.453 219.567 159.908 218.226 159.215C214.989 158.164 211.695 157.164 208.451 155.741Z" fill="#D8375D"/>
<path d="M43.1855 157.683C43.6994 157.374 44.0445 156.954 43.9246 156.351C43.7056 155.247 42.8726 154.168 42.6408 152.975C42.2899 151.171 41.8609 148.521 43.1746 146.981C43.9957 146.019 45.3971 145.736 46.4747 145.122C48.2871 144.09 49.3936 142.355 51.1022 141.223C51.8039 140.758 52.6022 140.453 53.2503 139.908C54.17 139.136 53.7718 137.146 53.7718 136.014V120.158C45.9257 112.65 37.0314 104.764 35.5272 104.389C34.9431 104.244 34.2656 104.185 33.5199 104.211C32.1412 104.531 30.8043 105.049 29.5513 105.755C25.1433 108.232 21.7892 112.936 20.1052 119.002C19.3273 121.802 18.3867 124.995 17.3916 128.375C14.576 137.937 11.3849 148.774 11.1024 153.442C10.8359 157.849 11.9956 161.23 14.4556 163.22C16.634 164.983 19.3709 165.282 21.1141 164.797C22.5946 164.386 24.2753 163.895 26.1085 163.338C29.4262 162.327 32.7277 161.264 36.0178 160.167C37.6235 159.632 39.2264 159.087 40.8246 158.531C41.3863 158.335 42.4559 158.122 43.1855 157.683Z" fill="#FF4139"/>
<path d="M348.047 159.261C349.546 161.51 350.451 162.964 350.462 162.983C350.738 163.427 350.601 164.012 350.156 164.288C349.712 164.564 349.127 164.428 348.851 163.983C348.837 163.961 347.435 161.707 345.218 158.456C341.794 153.443 338.479 149.008 335.365 145.274C332.523 141.861 329.869 139.069 327.479 136.974C323.893 133.833 320.871 132.295 318.742 132.52C317.186 132.688 315.775 133.169 314.548 133.951C313.099 134.872 311.85 136.235 310.836 138.003C309.944 139.558 309.231 141.426 308.717 143.557C308.32 145.193 308.143 146.555 308.049 147.287C308.016 147.544 307.991 147.728 307.972 147.825C307.932 148.034 307.779 149.321 307.603 150.811L307.425 152.317C307.43 152.422 307.418 152.526 307.388 152.628C307.128 154.774 306.749 157.842 306.321 160.908L313.357 167.652C313.649 166.817 313.941 165.973 314.231 165.118C316.697 157.901 318.855 150.81 319.043 149.309C319.162 148.351 319.769 148.205 320.024 148.187C321 148.115 321.153 148.703 322.201 152.523C323.664 157.856 326.389 167.784 330.92 175.086C333.024 178.472 335.286 180.899 337.644 182.3C338.215 182.636 338.651 182.879 339.055 183.085C339.078 183.097 339.098 183.113 339.12 183.127C341.025 184.044 345.288 185.784 349.351 185.309C349.354 185.308 349.356 185.307 349.359 185.306C351.944 184.904 354.236 183.614 355.993 181.579L356.046 181.494C356.096 181.416 356.158 181.351 356.224 181.292C357.616 179.568 358.595 177.401 358.981 175.146C359.736 170.753 356.499 162.872 355.672 160.957L348.047 159.261Z" fill="white"/>
<path d="M159.285 219.377C159.785 220.594 161.055 220.921 161.993 220.832C162.779 220.76 163.434 220.409 163.625 219.956C163.741 219.683 163.978 219.479 164.266 219.406C164.343 219.387 164.421 219.377 164.499 219.377C164.712 219.377 164.922 219.45 165.092 219.586C166.18 220.454 169.503 222.523 171.78 221.671C171.938 221.615 172.083 221.546 172.231 221.461C174.289 220.254 174.423 219.071 173.794 215.892C173.678 215.303 173.816 214.761 173.938 214.283C174.065 213.785 174.14 213.449 174.041 213.126C173.865 212.951 173.339 212.602 173.015 212.387C172.175 211.83 171.727 211.52 171.525 211.093C170.301 208.53 169.546 208.312 168.879 208.12C168.704 208.07 168.522 208.018 168.33 207.938C168.241 207.902 168.152 207.861 168.063 207.812C168.053 207.811 168.043 207.811 168.033 207.811C167.146 207.811 164.114 209.74 163.545 210.846C162.995 211.922 162.801 214.475 162.772 215.368C162.764 215.626 162.652 215.869 162.46 216.041C162.27 216.214 162.022 216.302 161.759 216.284C161.335 216.257 160.079 216.333 159.467 216.993C159.117 217.37 158.997 217.921 159.099 218.675C159.135 218.935 159.197 219.171 159.285 219.377Z" fill="#F6F6F6"/>
<path d="M328.485 235.261C327.875 237.052 326.854 240.049 327.172 243.715C327.202 244.057 327.065 244.392 326.804 244.611C326.27 245.06 325.64 244.89 324.12 244.479C322.147 243.947 318.846 243.057 317.15 244.149C316.163 244.784 315.96 245.663 316.015 246.404C317.199 248.15 320.623 251.978 327.398 250.937C327.398 250.937 328.906 250.766 330.745 248.927C332.425 247.252 338.675 241.694 341.422 240.714C340.635 238.366 339.094 234.938 336.943 231.109L328.93 233.779C328.852 234.178 328.691 234.659 328.485 235.261Z" fill="#F5F6F6"/>
<path d="M335.59 183.212C333.563 181.753 331.632 179.627 329.828 176.883C329.768 176.93 329.705 176.972 329.633 177.005C329.491 177.069 315.548 183.515 315.129 195.919C315.074 197.483 315.948 201.686 320.359 212.785C321.589 212.725 322.882 212.641 324.244 212.551C326.419 212.408 328.663 212.266 330.987 212.195C330.027 208.096 329.205 205.09 328.646 203.045C327.879 200.241 327.593 199.192 327.763 198.503C327.894 197.976 328.209 197.732 330.003 196.965C331.224 196.041 334.939 185.145 335.59 183.212Z" fill="white"/>
<path d="M336.408 143.571C339.17 143.553 346.814 143.013 348.827 141.335C350.946 139.565 351.144 136.902 350.433 135.075C350.244 134.952 349.885 134.755 349.304 134.507C348.862 134.323 348.397 134.152 347.927 134.003C346.114 133.41 344.331 133.119 343.02 133.197C342.071 133.252 341.037 133.377 339.944 133.568C335.657 134.31 331.535 135.886 329.859 136.574C331.896 138.475 334.092 140.821 336.408 143.571Z" fill="#FE874E"/>
<path d="M341.886 124.683C341.893 124.674 341.903 124.667 341.911 124.657C341.941 124.623 341.973 124.59 342.007 124.56C342.022 124.546 342.039 124.535 342.056 124.523C342.086 124.5 342.117 124.478 342.149 124.459C342.168 124.448 342.186 124.438 342.205 124.429C342.239 124.412 342.274 124.399 342.309 124.386C342.327 124.379 342.345 124.372 342.364 124.367C342.405 124.355 342.447 124.347 342.49 124.341C342.503 124.339 342.516 124.335 342.53 124.334C342.586 124.328 342.643 124.327 342.7 124.332C342.712 124.332 342.723 124.336 342.735 124.337C342.779 124.342 342.823 124.349 342.867 124.361C342.888 124.366 342.908 124.374 342.929 124.381C342.953 124.39 342.977 124.395 343 124.405C344.665 125.12 347.151 123.78 348.017 122.181C348.609 121.089 348.013 120.692 347.789 120.542C347.249 120.183 346.729 120.066 346.199 120.187C345.057 120.448 344.066 121.76 343.78 122.243C343.519 122.686 342.951 122.842 342.502 122.592C339.333 120.83 338.577 118.091 338.644 116.124C338.394 116.216 338.11 116.325 337.803 116.452C336.599 116.946 335.646 117.466 335.022 117.965C335.04 118.034 335.062 118.109 335.08 118.169C335.218 118.642 335.449 119.433 334.923 120.09C333.94 121.328 333.665 121.959 333.862 123.481C334.006 124.606 334.463 125.458 335.219 126.014C336.052 126.628 337.249 126.852 338.503 126.632C339.849 126.395 341.083 125.685 341.886 124.683Z" fill="#FE874E"/>
<path d="M339.786 128.26L340.543 131.552C341.369 131.431 342.162 131.347 342.907 131.304C344.016 131.236 345.179 131.382 346.209 131.59L342.535 126.729C341.753 127.416 340.808 127.94 339.786 128.26Z" fill="#FE874E"/>
<path d="M328.329 231.486C328.337 231.488 328.343 231.486 328.351 231.488C328.614 231.537 328.783 231.648 328.899 231.791L336.162 229.371C335.562 227.685 334.245 223.913 333.061 220.031L324.164 222.008C325.955 226.195 327.534 229.725 328.329 231.486Z" fill="#FE874E"/>
<path d="M321.104 214.646C321.812 216.403 322.585 218.274 323.412 220.233L332.52 218.209C332.075 216.663 331.708 215.28 331.425 214.08C328.997 214.143 326.645 214.294 324.369 214.444C323.236 214.518 322.151 214.589 321.104 214.646Z" fill="#FF4238"/>
<path d="M276.778 120.611C276.901 120.637 277.068 120.66 277.275 120.685C279.264 120.91 284.498 121.146 284.551 121.148H284.553C285.368 121.148 287.069 121.604 288.015 123.309C288.667 124.483 288.684 125.54 288.511 126.348C289.084 126.309 289.724 126.282 290.425 126.282C292.996 126.282 298.92 131.355 300.478 132.73C302.417 133.284 308.317 135.587 309.756 136.153C310.518 135.004 311.382 134.022 312.344 133.221C306.861 131.4 294.473 125.129 293.897 124.838C293.821 124.799 293.751 124.75 293.688 124.694C293.639 124.649 288.775 120.227 287.239 118.914C286.453 118.24 282.852 117.939 278.184 118.602C277.574 118.689 276.987 118.789 276.443 118.9C275.817 119.025 275.817 119.296 275.817 119.426C275.816 119.875 276.245 120.504 276.778 120.611Z" fill="#FE874E"/>
<path d="M304.182 172.246C305.509 173.135 308.326 175.202 309.599 177.483C310.155 176.274 311.106 173.97 312.665 169.615L305.987 163.214C305.326 167.6 304.731 170.58 304.182 172.246Z" fill="#FE874E"/>
<path d="M307.067 142.357C307.52 140.68 308.096 139.156 308.787 137.809C305.932 136.689 301.06 134.825 299.786 134.507C299.637 134.47 299.499 134.397 299.384 134.295C296.531 131.755 291.865 128.178 290.424 128.178C289.443 128.178 288.583 128.232 287.888 128.301L288.656 129.509C288.936 129.951 288.805 130.537 288.363 130.818C287.921 131.099 287.335 130.968 287.055 130.525L285.994 128.856L285.453 129.096C285.373 129.132 285.291 129.151 285.209 129.164C285.15 129.198 285.087 129.227 285.019 129.249C284.735 129.338 284.446 129.399 284.149 129.439L284.297 129.537C284.297 129.537 284.309 129.524 284.324 129.493C284.321 129.5 283.943 130.28 284.622 132.149C285.277 133.951 288.012 137.034 289.122 138.189C290.629 139.054 293.519 139.328 295.692 139.49C296.001 139.338 296.369 139.363 296.652 139.56C298.497 139.693 299.601 139.792 300.274 140.076C301.773 140.719 306.82 142.255 306.871 142.271C306.941 142.292 307.006 142.322 307.067 142.357Z" fill="#FE874E"/>
<path d="M306.596 144.126C306.505 144.126 306.412 144.113 306.32 144.085C306.108 144.02 301.122 142.502 299.533 141.821C299.337 141.738 298.941 141.673 298.448 141.616C300.054 143.494 302.567 146.418 305.777 150.106C305.97 148.475 306.063 147.707 306.111 147.463C306.126 147.386 306.143 147.243 306.169 147.044C306.248 146.431 306.384 145.393 306.649 144.118C306.631 144.119 306.614 144.126 306.596 144.126Z" fill="white"/>
<path d="M284.682 127.364L285.555 126.976C285.691 126.805 285.881 126.681 286.099 126.634C286.099 126.634 286.222 126.608 286.443 126.573C286.642 126.204 286.966 125.327 286.357 124.228C285.719 123.08 284.551 123.045 284.501 123.044C284.284 123.034 280.465 122.862 278.089 122.666C278.176 123.763 278.665 124.86 279.502 125.765C280.583 126.933 282.101 127.627 283.466 127.595C283.822 127.587 284.142 127.536 284.452 127.439C284.503 127.423 284.555 127.415 284.606 127.408C284.632 127.393 284.655 127.376 284.682 127.364Z" fill="#FE874E"/>
<path d="M189.24 191.773C192.404 193.988 196.34 196.746 197.875 198.838C200.388 202.262 203.674 219.852 204.041 221.846C204.103 222.185 203.976 222.531 203.71 222.749C203.444 222.969 203.081 223.026 202.76 222.9C202.733 222.889 200.292 221.939 196.995 221.42L199.5 238.53C199.515 238.639 199.508 238.745 199.488 238.847C215.374 236.627 217.361 233.763 217.586 232.927C219.032 227.546 213.254 214.936 209.612 208.334C206.569 202.821 206.342 201.365 206.101 199.823C206.057 199.539 206.013 199.251 205.944 198.925C205.276 195.756 203.863 194.9 203.587 194.761C203.546 194.741 203.517 194.728 203.501 194.722C203.279 194.653 203.108 194.508 202.997 194.328C197.73 191.74 192.097 189.754 186.229 188.412C186.122 188.537 185.985 188.638 185.819 188.695C185.666 188.751 185.499 188.874 185.474 188.933C185.475 188.933 185.477 188.942 185.481 188.958C185.841 189.393 187.722 190.709 189.24 191.773Z" fill="#F6F6F6"/>
<path d="M194.043 323.723C193.988 323.723 193.936 323.709 193.883 323.7C193.88 323.699 193.876 323.699 193.873 323.698C193.726 323.671 193.593 323.614 193.479 323.528C193.447 323.505 193.418 323.479 193.389 323.452C193.366 323.429 193.342 323.408 193.32 323.383C193.277 323.332 193.24 323.276 193.208 323.217C193.204 323.209 193.197 323.202 193.192 323.194C193.189 323.188 193.187 323.182 193.184 323.177C193.063 322.925 190.139 317.005 183.749 316.806C183.668 316.803 183.592 316.788 183.517 316.766C182.61 319.864 181.349 323.648 180.127 327.316C179.684 328.642 179.254 329.933 178.856 331.145C180.538 331.495 184.902 332.402 189.941 333.447C195.328 334.56 212.156 333.922 216.965 333.711C214.948 329.697 209.414 327.853 205.991 326.715C204.981 326.379 204.184 326.114 203.66 325.851C201.248 324.65 198.402 320.977 197.559 316.355C195.965 316.516 194.419 316.915 194.101 317.267C194.123 318.423 194.645 321.097 194.96 322.539C194.98 322.617 194.991 322.695 194.991 322.775C194.991 323.298 194.567 323.723 194.043 323.723Z" fill="#FF4139"/>
<path d="M207.63 284.825C209.082 279.402 208.751 276.04 206.412 272.421C206.183 272.065 205.84 271.66 205.403 271.217C197.119 278.978 190.983 284.762 187.617 287.982C185.528 295.12 185.179 301.067 184.873 306.319C184.686 309.526 184.519 312.344 183.983 314.921C187.819 315.095 190.571 317.002 192.352 318.845C192.264 318.21 192.204 317.624 192.204 317.194C192.204 316.326 192.899 314.864 197.339 314.467C197.26 313.17 197.333 311.858 197.571 310.554C197.97 308.377 199.654 304.597 201.604 300.221C203.837 295.209 206.368 289.53 207.63 284.825Z" fill="#F6F6F6"/>
<path d="M136.913 197.955C135.158 200.352 132.764 213.133 131.733 219.36C132.802 219.155 134.406 218.914 136.323 218.847C139.892 218.718 143.175 219.233 146.091 220.382C148.905 221.491 151.457 223.068 153.924 224.593C155.916 225.825 157.816 226.996 159.805 227.916L160.929 222.689C159.617 222.495 158.501 221.787 157.839 220.706C156.903 220.515 155.876 219.659 155.114 218.891C153.38 217.143 151.53 214.261 152.021 211.889C152.747 208.408 160.257 201.782 164.305 201.782C164.35 201.782 164.395 201.783 164.439 201.785C167.459 201.902 169.028 204.552 169.564 206.347C170.681 206.692 171.811 207.326 173.198 210.195C173.349 210.333 173.774 210.616 174.063 210.807C175.012 211.437 175.56 211.818 175.772 212.338C176.149 213.286 175.934 214.133 175.776 214.752C175.697 215.063 175.622 215.356 175.655 215.525C176.27 218.636 176.478 221.169 173.19 223.097C173.155 223.117 173.121 223.132 173.088 223.15L173.217 228.643C175.494 227.727 177.271 226.314 179.133 224.828C181.167 223.203 183.271 221.524 186.168 220.383C188.941 219.289 192.248 218.948 195.993 219.369C198.432 219.647 200.529 220.188 201.875 220.599C200.692 214.464 198.087 202.333 196.346 199.96C194.996 198.12 191.04 195.35 188.152 193.326C184.862 191.022 183.999 190.366 183.738 189.715C183.464 189.027 183.596 188.475 183.754 188.134C183.792 188.052 183.838 187.979 183.884 187.906C179.358 187.007 174.63 186.462 169.803 186.291C162.521 186.034 155.658 186.348 149.362 187.212C149.477 187.552 149.53 188.026 149.302 188.597C149.023 189.3 147.987 189.98 145.036 191.841C142.179 193.643 138.266 196.111 136.913 197.955Z" fill="#D8375D"/>
<path d="M189.35 239.95C189.389 239.948 193.055 239.688 197.714 239.087C197.671 239 197.638 238.907 197.623 238.805L195.044 221.188C191.918 220.922 189.166 221.239 186.863 222.146C184.231 223.184 182.241 224.773 180.316 226.309C178.113 228.068 175.834 229.887 172.644 230.856C171.036 231.347 169.327 231.586 167.437 231.586C167.266 231.586 167.093 231.584 166.919 231.58C166.888 231.579 166.859 231.572 166.829 231.568C166.791 231.574 166.753 231.58 166.713 231.58C166.704 231.58 166.695 231.58 166.686 231.58C164.525 231.521 162.371 231.042 160.101 230.116C157.588 229.087 155.219 227.622 152.927 226.206C150.53 224.725 148.052 223.193 145.396 222.146C142.966 221.189 140.238 220.717 137.277 220.73L134.666 238.598C139.263 239.478 142.921 239.95 142.963 239.956C143.284 239.997 143.562 240.199 143.7 240.493C145.833 245.026 149.25 252.186 150.239 254.004H181.745C182.758 252.197 186.33 245.024 188.565 240.478C188.714 240.175 189.013 239.974 189.35 239.95Z" fill="white"/>
<path d="M181.755 316.039C181.813 315.834 181.873 315.622 181.928 315.41C182.598 312.757 182.775 309.723 182.98 306.209C183.234 301.85 183.545 296.584 184.979 290.547C184.871 290.656 184.79 290.741 184.755 290.783C184.566 291.034 184.26 291.183 183.924 291.183H183.92C183.371 291.182 182.619 291.179 174.388 282.872C171.131 279.584 167.888 276.18 166.582 274.744C165.103 276.23 161.314 279.787 157.868 282.908C148.734 291.181 147.927 291.183 147.392 291.183H147.39C147.051 291.183 146.744 291.034 146.547 290.773C146.514 290.733 146.437 290.652 146.333 290.547C147.765 296.568 148.076 301.843 148.331 306.209C148.536 309.723 148.713 312.757 149.384 315.417C149.438 315.622 149.498 315.834 149.557 316.046C150.452 319.125 151.735 322.975 152.977 326.697C153.543 328.397 154.093 330.045 154.577 331.537C155.512 334.409 156.048 336.245 156.264 337.312C156.3 337.493 156.28 337.67 156.22 337.831L175.082 337.818C175.025 337.661 175.006 337.488 175.042 337.312C175.255 336.256 175.777 334.474 176.734 331.536C177.216 330.05 177.764 328.409 178.328 326.716C179.571 322.987 180.857 319.131 181.755 316.039Z" fill="#D8375D"/>
<path d="M166.824 229.695C166.863 229.691 166.9 229.684 166.94 229.684C166.947 229.684 166.954 229.684 166.962 229.685C168.555 229.715 169.989 229.564 171.334 229.237L171.205 223.736C170.997 223.758 170.788 223.774 170.579 223.774C168.243 223.774 165.901 222.441 164.709 221.645C164.241 222.093 163.612 222.425 162.888 222.601L161.585 228.657C163.357 229.301 165.051 229.638 166.738 229.685C166.768 229.685 166.795 229.692 166.824 229.695Z" fill="#F6F6F6"/>
<path d="M136.345 322.562C136.66 321.125 137.187 318.428 137.209 317.267C136.892 316.915 135.346 316.516 133.751 316.355C132.909 320.975 130.062 324.65 127.648 325.851C127.125 326.113 126.329 326.378 125.322 326.713C121.839 327.87 116.2 329.748 114.26 333.887C116.943 333.991 135.516 334.656 141.371 333.447C146.408 332.402 150.772 331.495 152.454 331.145C152.054 329.926 151.622 328.629 151.177 327.296C149.956 323.633 148.696 319.852 147.793 316.764C147.717 316.787 147.639 316.803 147.556 316.805C141.396 316.998 138.457 322.514 138.149 323.129C138.139 323.154 138.123 323.175 138.111 323.199C138.097 323.226 138.083 323.255 138.067 323.28C138.046 323.312 138.023 323.34 137.999 323.369C137.986 323.386 137.972 323.402 137.957 323.417C137.941 323.435 137.928 323.455 137.91 323.471C137.727 323.637 137.498 323.719 137.268 323.719C137.011 323.719 136.754 323.615 136.568 323.41C136.534 323.373 136.512 323.331 136.485 323.291C136.48 323.284 136.474 323.276 136.47 323.269C136.441 323.223 136.417 323.176 136.397 323.127C136.391 323.114 136.388 323.101 136.383 323.088C136.331 322.943 136.316 322.791 136.336 322.641C136.34 322.615 136.34 322.589 136.345 322.562Z" fill="#FF4139"/>
<path d="M143.694 287.982C140.321 284.755 134.183 278.97 125.906 271.216C125.467 271.664 125.125 272.069 124.899 272.42C122.556 276.045 122.226 279.407 123.681 284.825C124.942 289.53 127.473 295.209 129.706 300.221C131.657 304.597 133.341 308.377 133.739 310.554C133.977 311.858 134.05 313.17 133.972 314.467C138.412 314.864 139.107 316.326 139.107 317.195C139.107 317.625 139.047 318.211 138.959 318.846C140.74 317.002 143.491 315.093 147.327 314.92C146.791 312.34 146.624 309.524 146.438 306.319C146.131 301.066 145.782 295.117 143.694 287.982Z" fill="#F6F6F6"/>
<path d="M116.095 231.504C116.96 234.711 128.944 237.428 132.596 238.185C132.665 238.199 132.735 238.214 132.804 238.228L135.351 220.799C132.685 220.992 130.853 221.502 130.833 221.507C130.523 221.595 130.187 221.519 129.945 221.305C129.703 221.09 129.587 220.767 129.637 220.448C129.96 218.393 132.87 200.267 135.384 196.834C136.95 194.698 140.873 192.224 144.025 190.236C145.442 189.342 147.196 188.237 147.562 187.833C147.565 187.816 147.565 187.808 147.565 187.808C147.534 187.743 147.319 187.614 147.228 187.584C147.194 187.573 147.164 187.556 147.132 187.541C141.574 188.44 136.419 189.796 131.808 191.584C131.173 191.828 130.547 192.081 129.919 192.334C129.174 192.814 127.033 194.441 126.372 197.589C126.283 198.006 126.273 198.397 126.26 198.85C126.218 200.422 126.166 202.38 123.373 207.443C119.657 214.18 114.651 226.147 116.095 231.504Z" fill="#F6F6F6"/>
<path d="M124.724 324.913C125.623 324.615 126.399 324.357 126.802 324.155C128.625 323.247 131.444 319.875 132.007 315.218C132.182 313.793 132.138 312.339 131.873 310.894C131.517 308.941 129.875 305.257 127.974 300.992C125.713 295.917 123.149 290.165 121.849 285.316C120.256 279.382 120.664 275.478 123.306 271.391C123.713 270.76 124.332 270.064 125.188 269.269C125.191 269.265 125.193 269.262 125.196 269.258C125.207 269.246 125.221 269.237 125.233 269.225C125.24 269.219 125.245 269.214 125.251 269.207C130.876 264.021 144.769 256.496 148.4 254.567C146.957 251.828 143.401 244.306 142.205 241.767C140.805 241.573 136.746 240.982 132.211 240.042C120.966 237.712 115.096 235.082 114.265 231.998C112.549 225.638 118.386 212.555 121.712 206.527C124.282 201.868 124.328 200.166 124.364 198.798C124.378 198.299 124.392 197.782 124.517 197.197C124.768 195.996 125.2 194.977 125.702 194.121C103.293 204.018 85.9765 218.158 83.5895 222.14C83.562 222.187 83.5288 222.228 83.4952 222.268C82.5413 231.04 81.7615 238.507 81.7615 241.564C81.7615 244.153 81.6406 250.851 81.5007 258.606C81.2224 274.027 80.8413 295.147 81.1015 300.752C81.1115 300.966 81.0451 301.174 80.9214 301.347C80.9228 301.357 80.9266 301.367 80.9276 301.378C80.929 301.397 81.1096 303.233 81.5927 305.454C82.2592 308.501 83.1491 310.784 84.166 312.056C86.5269 315.011 92.7171 321.489 99.2532 324.857C102.163 326.355 104.312 328.677 105.304 331.396C106.093 333.552 106.087 335.751 105.289 337.428C105.217 337.58 105.138 337.723 105.055 337.862C107.26 337.861 109.485 337.861 111.725 337.86C111.633 336.687 111.723 335.558 112.014 334.502C113.65 328.595 120.853 326.2 124.724 324.913Z" fill="#D8375D"/>
<path d="M124.988 114.2C125.314 113.64 125.747 113.322 126.115 113.142C127.221 112.602 128.589 112.881 129.532 113.205L129.829 112.015C128.778 111.678 126.961 111.132 125.824 110.99C125.396 110.927 124.442 112.116 123.695 113.572C124.042 113.724 124.464 113.93 124.988 114.2Z" fill="white"/>
<path d="M55.668 130.84C55.6969 130.804 55.723 130.767 55.7533 130.732C56.5389 129.82 57.6733 129.286 59.1236 129.126V124.665C59.1236 124.142 59.5483 123.717 60.0717 123.717H66.0978C66.6212 123.717 67.046 124.142 67.046 124.665V129.069H68.1027C68.1748 129.069 68.2459 129.077 68.316 129.094C68.464 129.128 71.9527 129.99 71.9527 135.147V141.969C72.0551 142.002 72.158 142.038 72.2561 142.092C73.0389 142.518 73.5627 143.496 73.7324 144.847L73.7727 145.167C74.0425 147.282 74.6033 151.681 73.6827 154.212C73.5376 154.612 73.3105 154.992 73.0137 155.354L81.0276 154.685C79.8344 151.693 78.6681 148.688 77.5863 145.654C76.9391 143.84 75.0314 139.001 78.8525 139.242C80.2331 139.329 81.296 140.97 81.8957 142.115C83.6711 145.502 84.9952 149.062 87.2011 152.218C88.8107 154.522 91.7604 156.229 94.6414 156.395C97.6561 156.568 100.586 154.856 103.33 151.302C106.325 147.423 113.378 132.824 116.688 125.829C113.207 125.51 111.451 122.58 110.71 120.003C105.572 127.634 96.2509 140.689 96.149 140.833C95.9698 141.083 95.6816 141.229 95.3772 141.229C95.3516 141.229 95.3255 141.228 95.2999 141.226C94.9671 141.199 94.6732 140.999 94.5262 140.7C94.401 140.445 81.9564 115.161 78.4733 110.027C76.2114 106.687 72.8355 104.681 68.4417 104.062L55.668 120.085V130.84Z" fill="#FF4139"/>
<path d="M62.4519 312.115C62.1172 314.614 61.7123 317.34 61.2856 320.209C61.0638 321.7 60.8343 323.243 60.6029 324.836C60.3356 326.665 60.1663 328.459 60.0867 330.189C61.7758 329.777 65.7022 329.087 72.4901 332.669C77.3134 335.216 87.455 332.335 93.5148 330.613C95.7752 329.971 97.4093 329.507 98.3054 329.443C99.8054 329.334 101.241 329.597 102.385 329.928C101.413 328.569 100.053 327.402 98.3845 326.543C91.5777 323.035 85.3131 316.53 82.6848 313.24C81.5645 311.84 80.6382 309.611 79.9209 306.626C76.6317 306.429 73.406 306.624 72.8205 307.068C72.4849 307.706 72.6589 310.878 73.2036 313.932C73.2742 314.328 73.0875 314.726 72.7376 314.924C72.592 315.007 72.4308 315.047 72.2701 315.047C72.0464 315.047 71.825 314.969 71.6486 314.815C71.6017 314.775 66.849 310.722 62.5163 312.102C62.495 312.108 62.4732 312.11 62.4519 312.115Z" fill="#FE874E"/>
<path d="M69.8931 157.514C67.8664 158.435 65.0034 159.236 61.141 159.954C57.3346 160.656 48.932 158.658 47.2001 158.229C46.5815 158.473 45.8575 158.746 45.0881 159.026C40.3444 160.764 33.063 163.189 27.1824 164.993L25.9294 170.006H83.2736C83.6249 170.006 83.9279 170.2 84.0919 170.483C83.6031 165.653 82.9114 160.718 82.0382 157.193C81.9955 157.089 81.9021 156.859 81.7675 156.527L69.9694 157.511C69.9433 157.513 69.9182 157.514 69.8931 157.514Z" fill="#F6F6F6"/>
<path d="M53.9497 299.852C53.7193 296.227 53.0053 283.897 53.4751 276.976C53.8004 272.146 52.9115 261.101 52.1975 252.227C51.7244 246.35 51.3157 241.275 51.3157 238.89C51.3157 233.632 54.9173 195.108 56.0342 183.289L55.8939 181.397C55.8555 180.875 56.2476 180.42 56.7696 180.382C57.2925 180.34 57.7462 180.736 57.785 181.258L57.7917 181.348C57.9747 181.54 58.0794 181.803 58.0529 182.088C58.0529 182.088 58.0131 182.522 57.9372 183.307C58.5787 191.818 61.6939 233.439 61.6939 238.89C61.6939 241.018 61.5398 244.653 61.3606 248.862C61.032 256.599 60.6229 266.229 60.9709 271.397C61.4469 278.406 62.8923 295.763 63.2341 299.848H79.1714C78.9832 293.017 79.3402 273.226 79.6042 258.572C79.7441 250.826 79.865 244.136 79.865 241.564C79.865 238.35 80.6814 230.59 81.6675 221.531L81.9258 219.151C83.2646 206.825 84.7827 192.853 84.9287 184.965C84.9804 182.257 84.7144 176.881 84.1687 171.255C84.0426 171.63 83.6918 171.902 83.2737 171.902H25.4663C24.6822 175.584 24.6646 181.123 24.758 186.126C24.9088 194.172 27.5238 208.128 29.8307 220.442C31.6085 229.931 33.1441 238.127 33.1441 241.564C33.1441 245.508 34.3184 259.434 35.4533 272.9C36.4394 284.6 37.3757 295.704 37.5203 299.956L53.9497 299.852Z" fill="#F6F6F6"/>
<path d="M54.4568 142.926L54.518 140.418C53.0957 141.34 50.7518 142.912 50.0379 143.626C48.8659 144.798 44.9258 147.426 44.7585 147.537C44.6457 147.613 44.5181 147.662 44.3835 147.684L42.883 147.924C42.7839 149.824 42.7816 154.703 45.1036 157C45.7223 156.77 46.2936 156.55 46.7814 156.355C46.9691 156.28 47.1754 156.266 47.3707 156.316C47.4669 156.341 57.0391 158.784 60.7963 158.089C64.7255 157.359 67.5538 156.557 69.4426 155.638C70.7975 154.984 71.6461 154.267 71.8998 153.565C72.6645 151.464 72.1231 147.22 71.8922 145.408L71.8509 145.083C71.7552 144.319 71.5347 143.949 71.4148 143.815C70.349 144.44 66.9982 145.698 63.7669 146.128C60.2596 146.597 54.2591 144.835 54.005 144.76C53.503 144.612 53.2161 144.084 53.365 143.582C53.5049 143.109 53.9823 142.833 54.4568 142.926Z" fill="#700051"/>
<path d="M67.1395 102.655C67.1508 102.641 67.1646 102.63 67.1764 102.617C67.1793 102.603 67.1788 102.59 67.1821 102.576C67.5657 101 67.3936 99.8719 66.655 99.1281C65.0047 97.4664 60.8389 97.8357 58.7183 98.2302C58.9682 99.7226 59.3365 101.366 59.8405 103.231C59.8812 103.383 59.8836 103.544 59.8476 103.697C59.4626 105.322 58.0759 111.174 57.0898 115.259L67.1395 102.655Z" fill="#FF4139"/>
<path d="M18.872 329.442C19.7657 329.506 21.397 329.97 23.6551 330.612C29.7153 332.334 39.8564 335.218 44.6816 332.67C51.4705 329.09 55.394 329.775 57.0846 330.189C57.0049 328.459 56.8357 326.666 56.5692 324.836C56.3384 323.252 56.1108 321.718 55.8899 320.235C55.4618 317.356 55.055 314.621 54.7194 312.115C54.698 312.11 54.6767 312.108 54.6554 312.101C50.3047 310.716 45.5705 314.774 45.5231 314.815C45.3467 314.969 45.1249 315.047 44.9011 315.047C44.7404 315.047 44.5797 315.007 44.4332 314.924C44.0838 314.725 43.897 314.328 43.9681 313.932C44.5109 310.898 44.6873 307.749 44.3578 307.08C43.7121 306.666 40.3765 306.611 36.9413 306.945C36.3885 309.765 35.5669 311.887 34.4874 313.239C31.8567 316.533 25.5893 323.04 18.7862 326.543C17.1184 327.402 15.7578 328.569 14.7869 329.927C15.9323 329.596 17.3697 329.333 18.872 329.442Z" fill="#FE874E"/>
<path d="M48.317 88.144C47.658 88.3663 46.9061 88.5085 46.1106 88.4393C44.7642 88.3203 43.5861 87.6471 42.6095 86.4382C41.0384 84.5016 40.5216 81.9847 41.2948 80.0281C41.8846 78.5343 43.1504 77.5496 44.7675 77.3268C47.191 76.9926 48.8892 78.3428 49.8008 79.5934C50.7599 78.7846 52.3296 77.323 53.2446 75.7396C54.2525 73.994 54.8048 69.951 55.0006 67.8551C53.4333 67.3829 45.7237 65.2685 40.8999 67.7636C40.1238 68.1623 39.453 68.6705 38.9045 69.275C37.6709 70.6389 36.8536 72.2821 36.4777 74.1576C35.5333 78.8529 37.5752 83.6729 39.253 85.4521C41.2967 87.6234 44.6395 91.2853 46.3092 93.119L48.317 88.144Z" fill="#D8365D"/>
<path d="M33.2736 102.321C33.7306 102.223 34.1734 102.144 34.6252 102.083C34.977 102.037 35.3036 102.189 35.5028 102.45C35.6658 102.479 35.8285 102.51 35.984 102.548C38.078 103.07 46.4361 110.661 51.6211 115.514C51.0513 114.557 50.3733 113.402 49.5608 112.006C47.3691 108.239 45.2153 104.417 45.194 104.379C45.093 104.2 45.0589 104.002 45.0797 103.811C45.0797 103.811 45.0792 103.81 45.0792 103.81C44.9233 102.571 45.0285 100.397 45.386 97.363C43.2023 96.5357 36.2627 94.2473 32.7834 97.0657C30.1627 99.1877 29.7237 101.495 29.7573 102.915C30.3623 102.741 31.7333 102.395 33.2736 102.321Z" fill="#FF4139"/>
<path d="M30.8703 71.5619C30.8903 71.4808 30.9234 71.4069 30.9618 71.3367C30.9656 71.2784 30.9737 71.2191 30.9889 71.1604C31.051 70.9181 32.4846 65.533 36.8585 63.0881C34.3662 60.677 31.1117 60.0592 27.1625 61.2624C23.4988 62.3799 20.1006 66.009 17.8387 71.2187C15.0379 77.6709 14.568 85.2108 16.6967 89.5543C18.1033 92.4258 20.0314 93.8775 22.2747 93.7642C25.3122 93.6058 28.4938 90.6039 30.0113 86.4642C31.5535 82.2748 33.1071 77.2153 34.0021 74.1983C32.6406 73.2781 31.7886 72.7808 31.5578 72.7078C31.0496 72.5821 30.7452 72.0706 30.8703 71.5619Z" fill="#D8365D"/>
<path d="M358.981 175.146C358.595 177.401 357.616 179.568 356.225 181.292C356.158 181.351 356.096 181.416 356.047 181.495L355.993 181.579C354.236 183.614 351.944 184.904 349.359 185.307C349.356 185.307 349.353 185.308 349.351 185.309C345.288 185.784 341.026 184.044 339.12 183.127C339.098 183.113 339.079 183.097 339.055 183.085C338.651 182.879 338.214 182.636 337.644 182.3C335.286 180.899 333.024 178.472 330.921 175.086C326.389 167.785 323.665 157.857 322.201 152.523C321.153 148.703 321 148.115 320.024 148.187C319.769 148.205 319.162 148.351 319.043 149.309C318.855 150.81 316.697 157.901 314.23 165.118C313.942 165.973 313.649 166.818 313.357 167.653L306.321 160.908C306.749 157.842 307.128 154.774 307.388 152.628C307.418 152.526 307.43 152.422 307.425 152.317L307.604 150.811C307.78 149.321 307.931 148.034 307.972 147.825C307.991 147.728 308.016 147.544 308.049 147.287C308.144 146.555 308.32 145.193 308.717 143.557C309.231 141.427 309.944 139.558 310.836 138.003C311.851 136.236 313.099 134.872 314.548 133.951C315.775 133.17 317.186 132.688 318.742 132.52C320.87 132.295 323.893 133.833 327.48 136.974C329.87 139.069 332.523 141.861 335.365 145.274C338.479 149.008 341.794 153.443 345.218 158.456C347.435 161.708 348.837 163.961 348.851 163.983C349.127 164.428 349.712 164.564 350.157 164.288C350.601 164.012 350.738 163.428 350.462 162.983C350.45 162.965 349.546 161.511 348.047 159.261L355.672 160.957C356.499 162.872 359.736 170.753 358.981 175.146ZM327.763 198.504C327.593 199.192 327.879 200.241 328.646 203.045C329.205 205.09 330.026 208.096 330.987 212.195C328.663 212.266 326.419 212.408 324.245 212.552C322.882 212.641 321.589 212.725 320.359 212.785C315.949 201.686 315.074 197.483 315.128 195.919C315.548 183.515 329.492 177.069 329.633 177.005C329.705 176.973 329.769 176.93 329.828 176.883C331.632 179.627 333.563 181.753 335.59 183.212C334.939 185.145 331.224 196.041 330.004 196.965C328.209 197.732 327.894 197.976 327.763 198.504ZM332.521 218.209L323.412 220.233C322.585 218.273 321.812 216.403 321.104 214.646C322.15 214.589 323.237 214.519 324.369 214.444C326.646 214.294 328.997 214.144 331.425 214.08C331.708 215.28 332.075 216.663 332.521 218.209ZM333.061 220.031C334.245 223.912 335.562 227.685 336.162 229.371L328.899 231.791C328.783 231.648 328.614 231.537 328.351 231.487C328.343 231.486 328.337 231.488 328.329 231.486C327.534 229.725 325.955 226.195 324.164 222.008L333.061 220.031ZM341.422 240.714C338.676 241.694 332.425 247.252 330.745 248.927C328.906 250.766 327.398 250.937 327.398 250.937C320.623 251.978 317.199 248.15 316.015 246.404C315.96 245.664 316.163 244.784 317.15 244.149C318.846 243.058 322.148 243.948 324.12 244.48C325.64 244.89 326.27 245.06 326.804 244.61C327.065 244.392 327.202 244.057 327.172 243.715C326.853 240.049 327.875 237.052 328.486 235.261C328.691 234.659 328.852 234.178 328.93 233.779L336.943 231.109C339.094 234.938 340.635 238.366 341.422 240.714ZM321.554 269.433C323.702 275.408 325.255 279.725 326.014 281.724C328.484 288.239 335.771 310.617 325.846 324.993C320.041 333.402 309.248 337.666 293.767 337.666L292.449 337.668C286.032 337.678 256.836 337.723 219.601 337.769C219.685 336.558 219.568 335.4 219.243 334.317C217.51 328.548 210.406 326.185 206.59 324.915C205.69 324.616 204.913 324.357 204.507 324.155C202.685 323.248 199.866 319.875 199.303 315.216C199.128 313.793 199.173 312.339 199.437 310.894C199.794 308.941 201.436 305.258 203.336 300.993C205.598 295.918 208.161 290.166 209.461 285.316C211.051 279.377 210.643 275.473 208.005 271.391C207.599 270.762 206.99 270.08 206.162 269.315C206.148 269.298 206.138 269.279 206.123 269.262C206.067 269.201 206.003 269.152 205.937 269.109C200.535 264.228 187.888 257.343 183.378 254.955C184.681 252.637 188.704 244.491 190.028 241.8C191.327 241.697 194.799 241.397 198.858 240.85C211.815 239.115 218.54 236.685 219.417 233.419C221.391 226.076 212.314 209.306 211.272 207.418C208.39 202.198 208.189 200.903 207.975 199.531C207.926 199.216 207.876 198.897 207.8 198.535C207.641 197.781 207.442 197.13 207.219 196.561C239.044 214.724 249.968 251.287 252.619 262.412V262.413C252.619 262.413 252.62 262.413 252.62 262.414C252.62 262.419 252.622 262.425 252.623 262.43C252.624 262.431 252.624 262.432 252.624 262.433C252.626 262.441 252.627 262.448 252.628 262.455C252.629 262.457 252.628 262.459 252.629 262.46L253.181 264.989L253.182 264.991C253.182 264.991 253.182 264.992 253.182 264.992L253.183 264.997C253.184 264.999 253.185 265.001 253.185 265.004C253.272 265.454 253.663 265.757 254.106 265.757C254.163 265.757 254.221 265.753 254.28 265.742C254.614 265.682 254.872 265.446 254.989 265.149C254.992 265.139 254.995 265.129 254.998 265.119C255.014 265.075 255.028 265.03 255.038 264.983C255.044 264.955 255.045 264.927 255.048 264.899C255.052 264.867 255.056 264.835 255.056 264.802C255.056 264.767 255.052 264.732 255.048 264.697C255.045 264.674 255.047 264.65 255.043 264.627C255.042 264.622 255.032 264.573 255.031 264.568C254.885 263.822 254.701 262.98 254.484 262.067L254.481 262.056C254.481 262.055 254.481 262.054 254.481 262.054C254.479 262.049 254.478 262.044 254.477 262.039C254.477 262.037 254.476 262.036 254.476 262.035C254.475 262.031 254.475 262.027 254.474 262.024C254.473 262.019 254.473 262.014 254.472 262.008L232.451 161.214C232.446 161.194 232.438 161.175 232.432 161.156C232.425 161.13 232.417 161.104 232.407 161.078C232.395 161.046 232.38 161.016 232.365 160.985C232.354 160.963 232.343 160.941 232.33 160.92C232.311 160.889 232.29 160.861 232.268 160.833C232.253 160.815 232.239 160.796 232.224 160.778C232.2 160.752 232.174 160.729 232.148 160.707C232.129 160.69 232.111 160.673 232.091 160.658C232.066 160.638 232.038 160.623 232.01 160.606C231.986 160.592 231.964 160.576 231.939 160.565C231.911 160.551 231.88 160.541 231.851 160.53C231.824 160.52 231.798 160.509 231.771 160.501C231.714 160.486 231.655 160.475 231.594 160.471C231.593 160.471 231.592 160.47 231.59 160.47C231.552 160.467 230.651 160.408 228.875 160.448C225.073 160.134 217.655 158.475 210.385 150.93C204.002 144.308 199.1 134.603 195.815 122.084C195.392 118.977 192.247 113.442 183.244 114.292C174.727 115.104 169.374 128.094 168.4 134.868C167.995 137.687 168.333 139.271 169.434 139.711C171.621 140.584 173.46 138.214 176.005 134.936C177.481 133.034 179.154 130.88 181.202 128.915C185.117 125.164 189.234 123.722 192.215 125.058C194.234 125.963 195.415 128.023 195.421 130.604C195.315 130.73 195.237 130.882 195.209 131.057C194.859 133.149 193.075 136.281 190.046 140.114C190.032 140.13 190.019 140.145 190.006 140.161C189.799 140.427 189.595 140.68 189.395 140.924C189.38 140.941 189.366 140.957 189.352 140.975C188.385 142.155 187.573 143.064 187.179 143.498C187.107 143.543 187.039 143.594 186.979 143.66C185.219 145.602 183.79 147.034 182.849 147.799C180.52 149.693 176.189 149.557 169.012 149.331C166.265 149.244 163.151 149.147 159.578 149.147C157.433 149.147 155.553 148.733 153.991 147.917C151.387 146.558 149.63 144.091 148.77 140.587C147.881 136.963 148.187 133.03 148.884 130.739C149.056 130.174 149.254 129.502 149.482 128.733C151.272 122.672 154.998 110.059 161.317 97.4214C161.551 96.953 161.361 96.3836 160.893 96.1494C160.424 95.9142 159.855 96.1053 159.621 96.5732C153.227 109.362 149.469 122.082 147.663 128.196C147.438 128.959 147.24 129.627 147.07 130.187C146.391 132.417 146.044 136.036 146.63 139.576L141.595 137.821C141.558 137.809 141.517 137.797 141.478 137.789C141.474 137.788 141.157 137.719 140.662 137.542C140.551 137.47 140.426 137.422 140.293 137.4L140.142 137.34C137.953 136.408 134.358 133.968 134.865 128.089C135.305 122.983 143.397 105.605 143.479 105.43C143.49 105.405 143.5 105.381 143.509 105.356C143.564 105.207 149.048 90.4566 155.544 86.6051C160.574 83.6161 166.231 82.528 172.845 83.2809C178.265 83.8972 183.241 85.6736 186.553 86.8559C187.094 87.0351 240.744 104.909 256.945 117.388C262.164 121.3 271.648 139.995 285.134 172.947C285.149 173.004 285.162 173.062 285.181 173.117C285.202 173.173 285.236 173.219 285.265 173.269C285.39 173.576 285.514 173.883 285.64 174.191L285.861 174.731C285.866 174.744 285.871 174.758 285.877 174.772C285.937 174.92 285.997 175.069 286.058 175.222C286.063 175.236 286.069 175.25 286.075 175.264C286.076 175.266 286.077 175.268 286.078 175.271C294.163 195.154 303.456 219.551 314.485 249.858C317.231 257.415 319.627 264.078 321.554 269.433ZM217.691 337.771L208.604 337.781C198.395 337.791 187.722 337.802 176.863 337.816C176.878 337.774 176.892 337.732 176.901 337.687C177.119 336.604 177.731 334.623 178.266 332.959C179.775 333.273 184.298 334.213 189.557 335.305C192.067 335.823 196.783 335.984 201.686 335.984C208.324 335.984 215.299 335.689 217.598 335.581C217.728 336.275 217.755 337.009 217.691 337.771ZM175.042 337.312C175.006 337.488 175.025 337.661 175.082 337.818L156.22 337.831C156.281 337.67 156.301 337.493 156.264 337.312C156.048 336.245 155.512 334.409 154.577 331.537C154.093 330.045 153.543 328.397 152.977 326.697C151.736 322.975 150.452 319.125 149.558 316.046C149.498 315.833 149.438 315.622 149.385 315.417C148.713 312.757 148.536 309.723 148.331 306.209C148.076 301.843 147.765 296.568 146.333 290.547C146.437 290.652 146.514 290.733 146.547 290.772C146.744 291.034 147.052 291.183 147.39 291.183H147.392C147.926 291.183 148.735 291.181 157.868 282.908C161.314 279.787 165.103 276.229 166.582 274.744C167.889 276.18 171.131 279.584 174.388 282.872C182.619 291.179 183.371 291.182 183.921 291.183H183.924C184.261 291.183 184.566 291.034 184.755 290.783C184.79 290.741 184.871 290.656 184.979 290.547C183.545 296.584 183.234 301.849 182.98 306.209C182.775 309.723 182.598 312.757 181.928 315.41C181.873 315.622 181.813 315.833 181.755 316.039C180.857 319.13 179.571 322.986 178.328 326.716C177.764 328.409 177.217 330.05 176.734 331.536C175.777 334.474 175.255 336.256 175.042 337.312ZM113.626 337.86C113.558 337.125 113.57 336.416 113.682 335.744C113.738 335.757 113.795 335.766 113.855 335.769C114.343 335.79 121.006 336.064 127.915 336.064C133.329 336.064 138.895 335.895 141.755 335.304C147.012 334.213 151.535 333.273 153.044 332.96C153.788 335.279 154.225 336.796 154.405 337.687C154.415 337.738 154.43 337.785 154.448 337.832L113.626 337.86ZM112.014 334.502C111.722 335.558 111.633 336.687 111.725 337.861C109.485 337.861 107.26 337.862 105.055 337.862C105.138 337.723 105.217 337.58 105.289 337.428C106.087 335.751 106.093 333.552 105.304 331.396C104.312 328.678 102.163 326.356 99.2531 324.857C92.7169 321.489 86.5268 315.011 84.1659 312.056C83.149 310.784 82.2591 308.501 81.593 305.454C81.1095 303.233 80.9288 301.397 80.9274 301.378C80.9265 301.367 80.9227 301.357 80.9213 301.346C81.045 301.174 81.1114 300.967 81.1014 300.752C80.8416 295.148 81.2223 274.028 81.5006 258.606C81.6404 250.851 81.7613 244.153 81.7613 241.564C81.7613 238.508 82.5412 231.04 83.4951 222.267C83.5287 222.228 83.5619 222.187 83.5894 222.14C85.9764 218.158 103.293 204.018 125.702 194.122C125.2 194.978 124.768 195.997 124.517 197.197C124.392 197.782 124.378 198.299 124.364 198.798C124.328 200.166 124.282 201.868 121.712 206.527C118.386 212.556 112.549 225.638 114.264 231.997C115.096 235.081 120.966 237.713 132.21 240.042C136.746 240.983 140.805 241.574 142.205 241.767C143.401 244.307 146.957 251.828 148.4 254.567C144.768 256.496 130.875 264.021 125.251 269.208C125.245 269.214 125.24 269.219 125.233 269.225C125.221 269.237 125.207 269.246 125.195 269.259C125.193 269.262 125.191 269.266 125.188 269.269C124.332 270.064 123.713 270.76 123.306 271.391C120.665 275.478 120.256 279.383 121.849 285.316C123.149 290.166 125.713 295.918 127.974 300.993C129.875 305.258 131.516 308.941 131.873 310.894C132.137 312.339 132.182 313.793 132.007 315.218C131.444 319.875 128.625 323.248 126.802 324.155C126.399 324.357 125.623 324.615 124.724 324.914C120.853 326.2 113.65 328.595 112.014 334.502ZM103.577 336.613C103.381 337.022 103.029 337.546 102.436 337.803H60.4418C60.2754 336.836 60.0241 334.908 60.0332 332.158C60.1052 332.141 60.1806 332.122 60.2636 332.101C61.5687 331.767 65.0376 330.881 71.605 334.346C73.2501 335.215 75.3517 335.554 77.661 335.554C83.0636 335.554 89.5956 333.698 94.033 332.438C96.0218 331.872 97.7394 331.384 98.4424 331.335C100.693 331.167 102.86 332.05 103.64 332.412C104.122 333.951 104.107 335.499 103.577 336.613ZM59.4097 319.93C59.1883 321.423 58.9584 322.968 58.7261 324.562C58.6739 324.921 58.6313 325.275 58.5858 325.63C58.5408 325.275 58.4981 324.921 58.4459 324.563C58.215 322.978 57.987 321.441 57.7661 319.957C57.2887 316.75 56.8383 313.72 56.4851 310.999C55.9319 306.758 55.6796 303.794 55.6692 301.424C55.838 301.234 55.9252 300.985 55.9077 300.731C55.8968 300.575 54.8325 284.978 55.3667 277.104C55.7014 272.134 54.8443 261.477 54.0872 252.074C53.6179 246.239 53.212 241.2 53.212 238.891C53.212 234.865 55.3867 210.712 56.8781 194.624C57.9979 209.821 59.7975 234.862 59.7975 238.891C59.7975 240.978 59.6439 244.595 59.4662 248.782C59.1352 256.565 58.7242 266.252 59.0788 271.524C59.6183 279.471 61.399 300.662 61.417 300.876C61.427 300.996 61.4597 301.109 61.5099 301.212C61.5085 301.231 61.5038 301.25 61.5038 301.271C61.5038 303.623 61.252 306.624 60.6869 311C60.3347 313.713 59.8852 316.733 59.4097 319.93ZM56.7302 337.803H29.1845C25.9153 337.793 16.2701 337.761 14.5321 337.692C13.252 336.939 12.8258 334.674 13.5275 332.415C14.305 332.056 16.4848 331.169 18.7358 331.335C19.435 331.384 21.1502 331.872 23.1367 332.436C27.575 333.697 34.107 335.554 39.5115 335.554C41.8194 335.554 43.9224 335.215 45.5665 334.346C52.142 330.879 55.6062 331.766 56.9113 332.101C56.9933 332.122 57.0678 332.141 57.1389 332.158C57.1479 334.908 56.8966 336.837 56.7302 337.803ZM18.7865 326.543C25.5896 323.04 31.8565 316.533 34.4876 313.24C35.5671 311.887 36.3887 309.765 36.941 306.945C40.3762 306.612 43.7124 306.666 44.3576 307.08C44.6876 307.749 44.5112 310.898 43.9679 313.932C43.8972 314.328 44.0836 314.725 44.4334 314.924C44.5794 315.007 44.7406 315.047 44.9013 315.047C45.1251 315.047 45.3465 314.969 45.5234 314.815C45.5708 314.774 50.3045 310.716 54.6556 312.101C54.677 312.108 54.6983 312.11 54.7196 312.115C55.0553 314.622 55.4616 317.356 55.8901 320.236C56.1111 321.718 56.3386 323.253 56.569 324.836C56.8359 326.666 57.0052 328.459 57.0848 330.189C55.3943 329.775 51.4707 329.09 44.6819 332.67C39.8562 335.218 29.7155 332.334 23.6553 330.612C21.3972 329.971 19.7655 329.506 18.8723 329.442C17.3699 329.332 15.932 329.596 14.7871 329.927C15.758 328.569 17.1187 327.402 18.7865 326.543ZM71.6487 314.815C71.825 314.969 72.0469 315.047 72.2702 315.047C72.4309 315.047 72.5921 315.007 72.7381 314.924C73.0875 314.726 73.2748 314.329 73.2037 313.933C72.6594 310.878 72.4854 307.707 72.8211 307.068C73.4061 306.624 76.6322 306.43 79.921 306.626C80.6382 309.611 81.5651 311.84 82.6848 313.24C85.3132 316.531 91.5777 323.036 98.3846 326.543C100.053 327.402 101.414 328.569 102.385 329.927C101.241 329.597 99.8054 329.333 98.3054 329.442C97.4094 329.506 95.7757 329.971 93.5148 330.613C87.4556 332.336 77.3135 335.216 72.4902 332.67C65.7022 329.087 61.7759 329.777 60.0867 330.19C60.1664 328.459 60.3356 326.666 60.603 324.836C60.8343 323.243 61.0643 321.7 61.2862 320.21C61.7124 317.34 62.1172 314.615 62.4519 312.115C62.4737 312.11 62.4951 312.108 62.5164 312.101C66.849 310.723 71.6017 314.775 71.6487 314.815ZM35.4534 272.9C34.3184 259.434 33.1441 245.508 33.1441 241.564C33.1441 238.127 31.6085 229.931 29.8307 220.442C27.5238 208.129 24.9088 194.172 24.758 186.127C24.6646 181.123 24.6822 175.584 25.4663 171.903H83.2737C83.6918 171.903 84.0426 171.63 84.1687 171.255C84.7144 176.882 84.9804 182.257 84.9287 184.965C84.7827 192.854 83.2647 206.825 81.9259 219.152L81.6675 221.531C80.6814 230.59 79.865 238.35 79.865 241.564C79.865 244.136 79.7441 250.826 79.6043 258.572C79.3402 273.226 78.9832 293.017 79.1714 299.848H63.2342C62.8924 295.764 61.4469 278.406 60.9704 271.397C60.6229 266.229 61.032 256.6 61.3606 248.863C61.5398 244.654 61.6939 241.018 61.6939 238.891C61.6939 233.439 58.5787 191.818 57.9372 183.307C58.0126 182.522 58.0529 182.088 58.0529 182.088C58.0795 181.804 57.9747 181.54 57.7917 181.348L57.785 181.258C57.7462 180.736 57.2925 180.341 56.7695 180.382C56.2476 180.421 55.855 180.875 55.8939 181.397L56.0343 183.289C54.9173 195.109 51.3157 233.632 51.3157 238.891C51.3157 241.276 51.7244 246.35 52.1975 252.227C52.911 261.101 53.7999 272.146 53.4752 276.976C53.0053 283.897 53.7193 296.227 53.9497 299.853L37.5204 299.956C37.3758 295.704 36.4395 284.6 35.4534 272.9ZM21.1142 164.797C19.3705 165.282 16.6341 164.983 14.4557 163.221C11.9957 161.23 10.8361 157.849 11.1025 153.442C11.3851 148.775 14.5761 137.937 17.3917 128.375C18.3868 124.995 19.3274 121.802 20.1054 119.002C21.7893 112.937 25.1435 108.232 29.5515 105.755C30.8045 105.05 32.1414 104.532 33.52 104.211C34.2658 104.186 34.9433 104.244 35.5273 104.389C37.0316 104.764 45.9258 112.65 53.7719 120.158V138.642C52.6133 139.386 49.673 141.309 48.6973 142.285C47.8753 143.106 45.0886 145.032 43.8778 145.845C40.9233 146.316 37.9523 146.793 34.9831 147.266C34.5839 147.33 33.923 138.816 33.923 137.985C33.923 135.14 34.0757 132.248 34.3416 129.435C34.4919 127.845 34.3616 126.22 34.6507 124.641C35.011 122.678 33.8159 120.826 32.6866 122.754C31.8935 124.109 31.0591 127.66 29.7629 133.342C29.7629 133.342 29.314 135.303 29.314 135.304C28.2174 140.059 27.0791 144.46 24.9292 148.838C23.8914 150.951 24.9254 150.795 26.6127 150.524C28.3781 150.241 30.1436 149.96 31.9096 149.678C34.9295 149.195 37.9499 148.712 40.9698 148.229C40.8859 150.499 41.0414 154.921 43.1932 157.695C38.3562 159.43 31.5587 161.677 26.1082 163.339C24.2754 163.895 22.5948 164.386 21.1142 164.797ZM32.7833 97.0663C36.2631 94.2474 43.2027 96.5362 45.3863 97.363C45.0289 100.397 44.9236 102.572 45.0796 103.81C45.0796 103.811 45.0796 103.811 45.0801 103.812C45.0588 104.002 45.0929 104.2 45.1944 104.379C45.2157 104.418 47.3694 108.24 49.5611 112.006C50.3732 113.402 51.0512 114.557 51.6215 115.514C46.4365 110.661 38.0783 103.071 35.9838 102.549C35.8288 102.51 35.6662 102.48 35.5031 102.45C35.304 102.19 34.9774 102.038 34.6251 102.083C34.1738 102.144 33.731 102.223 33.274 102.322C31.7332 102.395 30.3626 102.741 29.7577 102.915C29.724 101.495 30.1631 99.1878 32.7833 97.0663ZM39.2531 85.4527C37.5753 83.6729 35.533 78.8529 36.4774 74.1576C36.8533 72.2821 37.6706 70.639 38.9047 69.275C39.4532 68.6711 40.124 68.1624 40.9001 67.7636C45.7239 65.2685 53.433 67.3834 55.0003 67.8551C54.805 69.9511 54.2526 73.9941 53.2447 75.7396C52.3298 77.3231 50.7596 78.7847 49.801 79.5935C48.8889 78.3433 47.1907 76.9926 44.7677 77.3269C43.1506 77.5497 41.8848 78.5343 41.295 80.0282C40.5218 81.9847 41.0385 84.5016 42.6092 86.4383C43.5863 87.6472 44.7644 88.3204 46.1107 88.4394C46.9058 88.5086 47.6582 88.3664 48.3167 88.144L46.3094 93.1195C44.6392 91.2853 41.2964 87.6235 39.2531 85.4527ZM34.6171 72.3281C33.85 71.819 33.3133 71.4923 32.9327 71.2799C33.3214 70.0876 34.811 66.1968 38.1329 64.5612C38.6757 65.3179 39.046 66.0285 39.2697 66.5182C38.607 66.9406 38.0129 67.4361 37.4995 68.0016C36.4423 69.1698 35.6477 70.5086 35.1177 71.9929C34.92 72.047 34.7436 72.1631 34.6171 72.3281ZM30.0118 86.4639C28.4943 90.6036 25.3127 93.6055 22.2748 93.7643C20.0314 93.8776 18.1038 92.4259 16.6967 89.5544C14.5686 85.2109 15.0384 77.671 17.8388 71.2188C20.1006 66.0086 23.4989 62.38 27.1626 61.2626C31.1117 60.0593 34.3663 60.6771 36.859 63.0882C32.4846 65.5331 31.0515 70.9182 30.9889 71.1605C30.9738 71.2192 30.9657 71.2785 30.9619 71.3368C30.9235 71.407 30.8908 71.4809 30.8704 71.562C30.7457 72.0707 31.0496 72.5822 31.5578 72.7074C31.7887 72.7809 32.6411 73.2782 34.0022 74.1984C33.1071 77.2154 31.5535 82.2749 30.0118 86.4639ZM59.8473 103.697C59.8838 103.543 59.8815 103.383 59.8402 103.231C59.3363 101.366 58.9679 99.7226 58.7181 98.2301C60.8386 97.8352 65.0049 97.4664 66.6547 99.1276C67.3933 99.8719 67.5659 101 67.1818 102.576C67.1785 102.59 67.179 102.603 67.1762 102.617C67.1643 102.63 67.1506 102.641 67.1392 102.655L57.09 115.259C58.0757 111.174 59.4628 105.322 59.8473 103.697ZM68.442 104.062C72.8358 104.681 76.2112 106.687 78.4736 110.027C81.9566 115.161 94.4013 140.445 94.5265 140.699C94.6735 140.999 94.9674 141.199 95.3002 141.226C95.3258 141.229 95.3519 141.229 95.3775 141.229C95.6818 141.229 95.9701 141.083 96.1493 140.833C96.2512 140.69 105.573 127.634 110.71 120.002C111.452 122.58 113.207 125.51 116.688 125.829C113.378 132.824 106.325 147.423 103.331 151.302C100.586 154.856 97.6564 156.568 94.6417 156.395C92.5572 156.275 90.5342 155.281 88.6649 153.842C85.5905 146.761 81.7628 139.626 79.2914 132.072C79.0254 131.26 78.9197 129.386 78.8495 128.534C78.695 126.658 78.529 125.747 78.0953 123.926C77.8791 123.017 77.1945 119.367 75.6215 119.988C75.1346 120.18 74.8957 120.731 75.0877 121.217C75.6338 122.604 76.0828 123.892 76.4378 125.099C76.5995 126.257 76.7522 127.704 76.7981 129.265C76.8612 131.255 76.7408 133.068 76.4398 134.652C76.2146 135.837 75.8832 136.904 75.4546 137.824L75.3693 138.005C75.1943 138.38 75.2901 138.808 75.5708 139.081C76.1525 142.161 79.0145 149.637 81.0275 154.685L73.014 155.354C73.3108 154.992 73.5379 154.612 73.683 154.211C74.6036 151.68 74.0428 147.282 73.773 145.167L73.7323 144.847C73.563 143.496 73.0392 142.517 72.2565 142.091C72.1583 142.038 72.0554 142.002 71.953 141.968V135.147C71.953 129.99 68.4642 129.128 68.3163 129.093C68.2462 129.077 68.175 129.069 68.103 129.069H67.0463V124.665C67.0463 124.142 66.6215 123.717 66.0981 123.717H60.072C59.5482 123.717 59.1238 124.142 59.1238 124.665V129.126C57.6736 129.285 56.5387 129.82 55.7536 130.732C55.7228 130.767 55.6972 130.804 55.6683 130.84V120.085L68.442 104.062ZM125.824 110.99C126.961 111.132 128.779 111.678 129.829 112.015L129.533 113.205C128.589 112.881 127.221 112.602 126.115 113.142C125.747 113.322 125.313 113.64 124.989 114.2C124.464 113.93 124.042 113.724 123.695 113.572C124.442 112.116 125.396 110.927 125.824 110.99ZM61.0202 125.613H65.1499V129.069H61.0202V125.613ZM56.5486 134.338C56.5467 134.324 56.3647 132.928 57.1901 131.97C57.7642 131.304 58.7337 130.966 60.072 130.966H67.9684C68.3562 131.102 70.0567 131.884 70.0567 135.147V142.387C68.9872 142.888 66.3076 143.877 63.5172 144.248C61.4933 144.518 58.3222 143.889 56.3415 143.413L56.5591 134.501C56.5605 134.447 56.5572 134.392 56.5486 134.338ZM54.0052 144.76C54.2588 144.835 60.2593 146.596 63.767 146.128C66.9979 145.698 70.3492 144.44 71.4149 143.815C71.5349 143.949 71.7553 144.319 71.8511 145.083L71.8924 145.408C72.1232 147.22 72.6646 151.464 71.8999 153.565C71.6463 154.267 70.7977 154.983 69.4428 155.638C67.554 156.557 64.7252 157.359 60.796 158.089C57.0393 158.784 47.4671 156.341 47.3709 156.316C47.1755 156.266 46.9688 156.28 46.7816 156.355C46.2937 156.55 45.7225 156.77 45.1038 157C42.7812 154.703 42.7841 149.823 42.8827 147.924L44.3837 147.684C44.5178 147.662 44.6458 147.612 44.7587 147.537C44.926 147.426 48.8656 144.797 50.0381 143.626C50.752 142.912 53.0959 141.339 54.5181 140.418L54.457 142.926C53.9819 142.833 53.505 143.108 53.3652 143.582C53.2163 144.084 53.5031 144.612 54.0052 144.76ZM82.0382 157.193C82.9115 160.718 83.6036 165.652 84.0919 170.483C83.9284 170.199 83.6249 170.006 83.2737 170.006H25.9295L27.183 164.993C33.063 163.189 40.3445 160.764 45.0886 159.026C45.8581 158.746 46.5815 158.473 47.2007 158.229C48.932 158.658 57.3352 160.656 61.1416 159.954C65.0039 159.236 67.8669 158.435 69.8931 157.514C69.9187 157.514 69.9439 157.513 69.9695 157.511L81.7675 156.527C81.9021 156.859 81.9955 157.089 82.0382 157.193ZM126.372 197.589C127.033 194.442 129.174 192.815 129.919 192.334C130.546 192.081 131.173 191.828 131.807 191.584C136.418 189.796 141.574 188.44 147.132 187.542C147.164 187.556 147.193 187.573 147.228 187.584C147.319 187.615 147.533 187.743 147.565 187.808C147.565 187.808 147.565 187.816 147.561 187.833C147.195 188.237 145.442 189.343 144.025 190.237C140.872 192.225 136.95 194.699 135.383 196.834C132.869 200.268 129.96 218.393 129.637 220.448C129.586 220.767 129.703 221.091 129.945 221.305C130.186 221.52 130.522 221.595 130.833 221.508C130.853 221.502 132.685 220.992 135.351 220.799L132.804 238.228C132.734 238.214 132.665 238.2 132.595 238.185C128.943 237.429 116.96 234.711 116.095 231.504C114.651 226.147 119.656 214.18 123.372 207.443C126.165 202.38 126.218 200.423 126.26 198.85C126.273 198.397 126.283 198.007 126.372 197.589ZM149.303 188.597C149.531 188.026 149.477 187.552 149.362 187.211C155.658 186.347 162.521 186.034 169.803 186.29C174.63 186.462 179.358 187.007 183.885 187.906C183.838 187.979 183.792 188.052 183.754 188.134C183.596 188.475 183.464 189.027 183.738 189.715C183.999 190.366 184.862 191.022 188.152 193.326C191.04 195.349 194.996 198.12 196.346 199.96C198.087 202.333 200.692 214.464 201.875 220.599C200.529 220.187 198.432 219.647 195.994 219.369C192.248 218.947 188.942 219.289 186.167 220.382C183.271 221.524 181.168 223.203 179.133 224.827C177.271 226.314 175.494 227.727 173.216 228.643L173.088 223.15C173.121 223.131 173.156 223.116 173.189 223.097C176.478 221.169 176.27 218.635 175.655 215.525C175.622 215.356 175.697 215.063 175.776 214.752C175.934 214.133 176.149 213.285 175.773 212.338C175.56 211.818 175.012 211.437 174.063 210.807C173.774 210.615 173.349 210.333 173.198 210.195C171.811 207.326 170.681 206.692 169.564 206.347C169.028 204.551 167.459 201.901 164.439 201.785C164.395 201.783 164.35 201.782 164.305 201.782C160.257 201.782 152.747 208.408 152.021 211.889C151.53 214.26 153.38 217.143 155.114 218.891C155.876 219.659 156.904 220.515 157.839 220.706C158.501 221.787 159.617 222.495 160.929 222.688L159.805 227.916C157.816 226.995 155.917 225.824 153.924 224.593C151.457 223.068 148.905 221.491 146.091 220.382C143.175 219.233 139.892 218.717 136.324 218.847C134.406 218.914 132.802 219.155 131.734 219.36C132.764 213.132 135.158 200.352 136.913 197.955C138.266 196.111 142.179 193.643 145.036 191.841C147.987 189.979 149.023 189.3 149.303 188.597ZM162.888 222.601C163.612 222.425 164.241 222.092 164.709 221.644C165.901 222.441 168.243 223.774 170.579 223.774C170.788 223.774 170.997 223.758 171.205 223.736L171.334 229.237C169.989 229.564 168.556 229.715 166.962 229.684C166.954 229.684 166.947 229.684 166.94 229.684C166.9 229.684 166.863 229.691 166.824 229.695C166.796 229.692 166.768 229.685 166.738 229.684C165.051 229.638 163.357 229.301 161.585 228.657L162.888 222.601ZM159.467 216.993C160.079 216.333 161.335 216.257 161.759 216.284C162.023 216.302 162.27 216.214 162.461 216.041C162.652 215.869 162.764 215.626 162.773 215.368C162.801 214.475 162.996 211.922 163.545 210.846C164.114 209.74 167.146 207.811 168.034 207.811C168.043 207.811 168.054 207.812 168.063 207.812C168.152 207.861 168.241 207.902 168.33 207.938C168.522 208.017 168.704 208.07 168.879 208.12C169.545 208.312 170.301 208.53 171.526 211.094C171.728 211.52 172.175 211.83 173.014 212.387C173.339 212.602 173.864 212.951 174.041 213.126C174.14 213.449 174.065 213.785 173.938 214.283C173.816 214.761 173.679 215.303 173.795 215.892C174.423 219.071 174.289 220.254 172.231 221.461C172.083 221.547 171.938 221.615 171.78 221.671C169.503 222.522 166.179 220.455 165.091 219.586C164.922 219.45 164.712 219.377 164.498 219.377C164.421 219.377 164.343 219.387 164.266 219.406C163.978 219.479 163.741 219.683 163.626 219.956C163.434 220.409 162.779 220.76 161.992 220.832C161.055 220.921 159.785 220.594 159.284 219.377C159.197 219.171 159.135 218.935 159.099 218.675C158.997 217.921 159.117 217.37 159.467 216.993ZM150.239 254.004C149.25 252.185 145.833 245.026 143.7 240.492C143.562 240.199 143.284 239.997 142.963 239.956C142.921 239.95 139.263 239.478 134.666 238.598L137.277 220.729C140.239 220.717 142.966 221.189 145.396 222.146C148.052 223.193 150.53 224.725 152.927 226.206C155.219 227.622 157.588 229.087 160.101 230.116C162.371 231.042 164.525 231.521 166.687 231.58C166.695 231.58 166.704 231.58 166.713 231.58C166.753 231.58 166.791 231.573 166.829 231.568C166.859 231.572 166.888 231.579 166.919 231.58C167.093 231.584 167.266 231.586 167.437 231.586C169.327 231.586 171.036 231.346 172.644 230.856C175.834 229.887 178.113 228.068 180.316 226.309C182.241 224.772 184.232 223.184 186.863 222.146C189.166 221.239 191.918 220.922 195.044 221.188L197.624 238.805C197.638 238.907 197.671 239 197.715 239.087C193.055 239.688 189.389 239.947 189.35 239.95C189.013 239.974 188.715 240.175 188.565 240.478C186.33 245.024 182.758 252.197 181.745 254.004H150.239ZM138.959 318.846C139.047 318.211 139.107 317.625 139.107 317.195C139.107 316.326 138.412 314.864 133.972 314.467C134.05 313.17 133.977 311.858 133.739 310.554C133.341 308.377 131.657 304.597 129.706 300.221C127.473 295.209 124.942 289.53 123.681 284.825C122.226 279.407 122.556 276.045 124.899 272.42C125.125 272.069 125.467 271.664 125.906 271.216C134.184 278.97 140.321 284.755 143.694 287.982C145.782 295.117 146.131 301.066 146.438 306.319C146.624 309.524 146.791 312.34 147.328 314.92C143.491 315.093 140.74 317.002 138.959 318.846ZM136.383 323.089C136.388 323.102 136.392 323.114 136.397 323.127C136.417 323.177 136.441 323.223 136.47 323.269C136.475 323.277 136.481 323.284 136.485 323.292C136.512 323.332 136.535 323.374 136.568 323.411C136.755 323.616 137.011 323.719 137.269 323.719C137.498 323.719 137.728 323.637 137.91 323.472C137.928 323.455 137.941 323.435 137.958 323.417C137.972 323.402 137.986 323.386 137.999 323.37C138.024 323.341 138.047 323.312 138.067 323.281C138.084 323.255 138.097 323.227 138.111 323.199C138.124 323.176 138.139 323.154 138.149 323.13C138.458 322.515 141.396 316.998 147.556 316.806C147.639 316.803 147.717 316.787 147.793 316.765C148.696 319.852 149.956 323.634 151.178 327.297C151.622 328.629 152.054 329.927 152.454 331.145C150.772 331.495 146.408 332.402 141.371 333.447C135.517 334.656 116.944 333.991 114.26 333.887C116.2 329.749 121.839 327.871 125.322 326.713C126.329 326.378 127.125 326.113 127.649 325.852C130.063 324.65 132.909 320.976 133.751 316.355C135.346 316.516 136.892 316.915 137.21 317.268C137.188 318.428 136.66 321.125 136.346 322.563C136.34 322.589 136.34 322.615 136.336 322.642C136.316 322.792 136.331 322.944 136.383 323.089ZM197.339 314.467C192.899 314.864 192.204 316.326 192.204 317.195C192.204 317.625 192.264 318.211 192.352 318.845C190.572 317.003 187.819 315.095 183.983 314.921C184.519 312.344 184.686 309.527 184.873 306.319C185.179 301.067 185.528 295.12 187.617 287.982C190.983 284.762 197.119 278.978 205.403 271.217C205.84 271.66 206.183 272.065 206.413 272.421C208.751 276.04 209.081 279.403 207.63 284.826C206.368 289.53 203.837 295.209 201.604 300.221C199.654 304.597 197.97 308.377 197.571 310.554C197.333 311.858 197.26 313.17 197.339 314.467ZM194.96 322.539C194.645 321.097 194.123 318.423 194.102 317.268C194.419 316.915 195.965 316.516 197.56 316.355C198.402 320.977 201.248 324.65 203.66 325.851C204.184 326.114 204.982 326.379 205.991 326.715C209.414 327.853 214.948 329.697 216.965 333.711C212.157 333.922 195.328 334.56 189.941 333.448C184.903 332.402 180.539 331.495 178.856 331.145C179.255 329.933 179.685 328.642 180.127 327.316C181.35 323.648 182.611 319.864 183.517 316.766C183.592 316.788 183.669 316.803 183.75 316.806C190.139 317.005 193.063 322.925 193.184 323.177C193.187 323.182 193.19 323.188 193.193 323.194C193.197 323.202 193.204 323.209 193.208 323.217C193.241 323.277 193.278 323.332 193.321 323.383C193.342 323.408 193.366 323.429 193.389 323.452C193.418 323.479 193.447 323.505 193.479 323.528C193.594 323.614 193.727 323.671 193.873 323.698C193.876 323.699 193.88 323.699 193.884 323.7C193.937 323.709 193.988 323.723 194.044 323.723C194.567 323.723 194.992 323.298 194.992 322.775C194.992 322.695 194.98 322.617 194.96 322.539ZM185.819 188.695C185.985 188.638 186.122 188.537 186.228 188.412C192.097 189.754 197.73 191.74 202.997 194.328C203.108 194.509 203.279 194.653 203.501 194.722C203.516 194.728 203.546 194.741 203.587 194.761C203.863 194.9 205.276 195.756 205.944 198.925C206.012 199.251 206.057 199.539 206.101 199.823C206.341 201.365 206.569 202.821 209.612 208.334C213.254 214.936 219.032 227.546 217.586 232.927C217.361 233.764 215.374 236.627 199.488 238.848C199.508 238.745 199.515 238.639 199.499 238.53L196.994 221.42C200.292 221.939 202.733 222.889 202.76 222.9C203.081 223.026 203.444 222.97 203.71 222.75C203.976 222.531 204.103 222.185 204.041 221.846C203.674 219.852 200.387 202.262 197.875 198.839C196.34 196.746 192.403 193.989 189.24 191.773C187.721 190.709 185.841 189.393 185.481 188.959C185.477 188.942 185.475 188.933 185.474 188.933C185.499 188.874 185.666 188.751 185.819 188.695ZM194.363 166.135C184.661 168.669 170.833 167.93 161.683 167.44C157.772 167.231 154.684 167.066 152.694 167.162C152.561 167.163 138.613 167.359 133.553 160.888C131.063 157.709 130.343 153.072 131.576 148.164C132.634 143.955 134.747 141.005 136.197 140.368C137.345 139.865 138.558 139.531 139.988 139.314C140.501 139.501 140.872 139.595 141.022 139.63L147.12 141.755C148.112 145.179 149.998 147.773 152.616 149.32C152.71 152.731 152.055 155.168 150.6 156.736C148.859 158.611 145.84 159.505 140.813 159.633C140.289 159.647 139.876 160.082 139.889 160.606C139.902 161.121 140.324 161.53 140.836 161.53C140.845 161.53 140.853 161.53 140.861 161.529C146.441 161.387 149.873 160.306 151.99 158.026C153.651 156.237 154.486 153.673 154.528 150.219C156.035 150.766 157.727 151.043 159.578 151.043C163.122 151.043 166.219 151.14 168.952 151.226C171.081 151.293 172.973 151.353 174.658 151.353C177.536 151.353 179.806 151.176 181.616 150.569C190.804 150.891 200.036 152.046 208.451 155.741C211.695 157.164 214.989 158.164 218.226 159.215C219.566 159.908 220.857 160.453 222.073 160.881C215.838 161.498 206.646 162.926 194.363 166.135ZM258.005 106.082C261.987 108.275 270.933 113.66 275.813 117.113C274.434 117.495 273.921 118.534 273.92 119.424C273.918 120.749 274.915 122.029 276.174 122.401C276.196 124.06 276.879 125.721 278.11 127.053C279.287 128.326 280.829 129.156 282.386 129.406C282.258 130.106 282.264 131.211 282.84 132.797C283.79 135.409 287.683 139.431 287.849 139.601C287.903 139.657 287.964 139.706 288.031 139.747C289.941 140.924 293.228 141.212 295.768 141.397C297.245 143.133 300.678 147.147 305.476 152.647C305.201 154.917 304.803 158.12 304.358 161.253C303.465 167.503 302.807 170.376 302.371 171.684C302.324 171.683 302.277 171.682 302.23 171.688C302.04 171.714 298.03 172.277 295.447 173.947C293.876 171.655 290.57 167.218 288.393 167.001C287.142 166.875 286.116 167.557 285.513 168.884C272.451 137.266 263.469 119.91 258.092 115.878C241.646 103.211 189.367 85.7911 187.171 85.0629C186.63 84.87 186.04 84.66 185.415 84.4424C202.149 86.5629 232.657 92.1258 258.005 106.082ZM283.466 127.595C282.1 127.627 280.582 126.933 279.502 125.765C278.665 124.859 278.176 123.763 278.09 122.666C280.466 122.862 284.284 123.034 284.501 123.044C284.55 123.045 285.719 123.08 286.358 124.228C286.966 125.327 286.642 126.204 286.443 126.573C286.222 126.608 286.099 126.634 286.099 126.634C285.881 126.681 285.691 126.805 285.555 126.976L284.682 127.364C284.655 127.376 284.632 127.393 284.606 127.408C284.555 127.415 284.503 127.423 284.452 127.439C284.143 127.536 283.822 127.587 283.466 127.595ZM300.274 140.076C299.601 139.792 298.497 139.693 296.653 139.56C296.37 139.363 296.001 139.338 295.693 139.49C293.519 139.328 290.629 139.054 289.123 138.19C288.012 137.035 285.277 133.952 284.622 132.15C283.944 130.28 284.321 129.5 284.324 129.493C284.309 129.523 284.297 129.537 284.297 129.537L284.149 129.439C284.446 129.399 284.735 129.338 285.019 129.248C285.087 129.227 285.15 129.198 285.209 129.164C285.291 129.151 285.373 129.132 285.453 129.096L285.995 128.856L287.055 130.526C287.335 130.967 287.921 131.099 288.363 130.818C288.805 130.537 288.936 129.952 288.656 129.509L287.889 128.301C288.584 128.233 289.443 128.178 290.425 128.178C291.865 128.178 296.531 131.755 299.385 134.296C299.499 134.397 299.637 134.47 299.786 134.507C301.06 134.825 305.932 136.689 308.787 137.809C308.096 139.156 307.52 140.68 307.068 142.358C307.006 142.322 306.941 142.292 306.871 142.271C306.821 142.255 301.774 140.718 300.274 140.076ZM306.11 147.463C306.063 147.707 305.97 148.475 305.777 150.107C302.567 146.418 300.053 143.495 298.447 141.616C298.941 141.673 299.337 141.739 299.533 141.821C301.122 142.502 306.108 144.021 306.319 144.085C306.411 144.113 306.504 144.126 306.596 144.126C306.614 144.126 306.63 144.119 306.648 144.118C306.383 145.393 306.247 146.431 306.169 147.044C306.143 147.244 306.126 147.386 306.11 147.463ZM309.599 177.483C308.326 175.202 305.509 173.136 304.182 172.246C304.731 170.58 305.326 167.599 305.987 163.214L312.665 169.616C311.105 173.97 310.155 176.274 309.599 177.483ZM294.103 182.498C291.595 180.996 291.595 180.327 289.419 175.638C287.842 172.242 287.584 170.084 287.56 169.15C287.747 168.952 287.962 168.862 288.207 168.888C289.271 168.994 292.282 172.561 294.425 175.827C294.576 176.058 294.821 176.212 295.096 176.247C295.136 176.252 295.177 176.255 295.217 176.255C295.45 176.255 295.677 176.169 295.852 176.011C297.839 174.222 302.439 173.574 302.486 173.567C302.549 173.559 302.609 173.543 302.667 173.524C304.774 174.849 308.063 177.547 308.334 179.445C308.368 179.703 308.456 179.914 308.586 180.084C307.763 182.965 306.662 186.165 305.599 188.416C304.196 187.726 296.383 183.869 294.103 182.498ZM310.78 187.78C306.415 197.2 301.902 206.941 309.806 213.091C311.761 214.609 314.937 214.872 319.096 214.736C319.962 216.896 320.925 219.231 321.974 221.706C324.479 227.601 326.681 232.448 327.086 233.338L327.08 233.378C327.037 233.632 326.877 234.103 326.691 234.649C326.091 236.408 325.123 239.247 325.222 242.81C325.021 242.759 324.809 242.701 324.614 242.649C322.337 242.034 318.527 241.007 316.124 242.554C315.385 243.029 314.843 243.66 314.508 244.386C306.224 221.717 298.935 202.445 292.406 185.954C300.73 192.022 303.198 192.985 303.922 192.985C304.622 192.985 305.286 192.54 305.952 191.626C307.646 189.318 309.523 183.851 310.615 179.872C310.62 179.854 310.624 179.837 310.628 179.82C310.635 179.796 310.644 179.76 310.647 179.743C310.662 179.675 310.668 179.608 310.668 179.541C311.346 178.414 312.482 175.801 314.705 169.54C314.893 169.009 315.083 168.466 315.273 167.92C315.629 169.062 315.844 170.137 315.913 171.133C316.247 175.978 313.468 181.978 310.78 187.78ZM317.805 171.002C317.681 169.219 317.161 167.246 316.262 165.139C316.256 165.125 316.247 165.114 316.24 165.1C317.744 160.671 319.333 155.694 320.225 152.489C320.274 152.666 320.323 152.845 320.373 153.024C321.81 158.261 324.442 167.851 328.828 175.288C327.987 175.67 313.69 182.372 313.233 195.854C313.148 198.319 314.871 204.043 318.349 212.859C315.401 212.92 312.449 212.741 310.97 211.593C304.256 206.37 308.261 197.727 312.5 188.577C315.289 182.558 318.172 176.334 317.805 171.002ZM276.443 118.9C276.987 118.789 277.573 118.689 278.184 118.602C282.852 117.939 286.453 118.239 287.239 118.914C288.775 120.227 293.64 124.648 293.688 124.693C293.751 124.75 293.822 124.799 293.898 124.837C294.473 125.129 306.86 131.4 312.344 133.221C311.382 134.022 310.517 135.004 309.756 136.152C308.317 135.587 302.418 133.284 300.478 132.73C298.92 131.355 292.996 126.282 290.425 126.282C289.724 126.282 289.085 126.308 288.511 126.348C288.684 125.54 288.666 124.483 288.016 123.309C287.069 121.604 285.368 121.148 284.553 121.148H284.55C284.498 121.146 279.264 120.91 277.275 120.685C277.068 120.66 276.901 120.637 276.778 120.611C276.245 120.504 275.816 119.875 275.816 119.426C275.816 119.296 275.817 119.025 276.443 118.9ZM339.945 133.568C341.037 133.377 342.071 133.252 343.02 133.197C344.331 133.119 346.114 133.41 347.928 134.003C348.398 134.152 348.862 134.323 349.304 134.507C349.885 134.754 350.244 134.952 350.433 135.074C351.144 136.902 350.946 139.565 348.827 141.336C346.814 143.013 339.17 143.553 336.408 143.571C334.092 140.821 331.897 138.475 329.859 136.574C331.535 135.886 335.657 134.31 339.945 133.568ZM338.503 126.632C337.249 126.852 336.053 126.628 335.219 126.015C334.463 125.458 334.006 124.606 333.862 123.482C333.666 121.959 333.94 121.328 334.922 120.091C335.449 119.434 335.218 118.642 335.08 118.17C335.062 118.109 335.04 118.034 335.022 117.965C335.645 117.466 336.599 116.947 337.803 116.452C338.11 116.325 338.394 116.216 338.643 116.124C338.577 118.092 339.334 120.83 342.502 122.592C342.951 122.843 343.519 122.686 343.781 122.243C344.066 121.76 345.057 120.449 346.198 120.187C346.728 120.066 347.249 120.183 347.789 120.542C348.013 120.692 348.609 121.089 348.017 122.182C347.151 123.78 344.665 125.12 343 124.405C342.977 124.395 342.952 124.39 342.929 124.382C342.908 124.375 342.888 124.367 342.867 124.361C342.823 124.35 342.779 124.342 342.734 124.337C342.723 124.336 342.711 124.333 342.7 124.332C342.643 124.327 342.586 124.328 342.53 124.334C342.516 124.336 342.503 124.339 342.49 124.341C342.447 124.347 342.405 124.355 342.364 124.367C342.345 124.373 342.327 124.38 342.309 124.386C342.273 124.399 342.239 124.413 342.206 124.429C342.186 124.439 342.168 124.449 342.149 124.46C342.117 124.479 342.086 124.5 342.055 124.523C342.039 124.535 342.023 124.547 342.007 124.56C341.973 124.59 341.941 124.623 341.911 124.658C341.903 124.667 341.894 124.674 341.886 124.684C341.083 125.685 339.849 126.395 338.503 126.632ZM346.209 131.591C345.179 131.382 344.016 131.236 342.907 131.304C342.162 131.347 341.369 131.432 340.543 131.553L339.786 128.26C340.808 127.941 341.753 127.416 342.535 126.729L346.209 131.591ZM367.892 161.251C366.541 158.708 354.636 136.384 351.874 133.796C352.197 133.442 352.511 132.83 352.63 131.75C354.179 133.07 356.489 134.475 358.366 133.27C360.297 132.028 359.95 128.994 359.417 126.89C360.224 127.127 361.157 127.226 362.024 126.895C362.752 126.616 363.708 125.915 364.127 124.161C364.927 120.833 362.646 117.981 361.134 116.517C361.756 116.142 362.404 115.574 362.756 114.737C363.233 113.604 363.038 112.312 362.176 110.898C360.748 108.549 358.495 107.974 356.572 108.085C356.898 107.411 357.111 106.64 356.994 105.864C356.89 105.172 356.476 104.202 355.097 103.512C351.103 101.514 342.577 106.411 339.972 108.855C337.62 111.061 336.791 113.642 336.564 114.919C335.261 115.493 334.251 116.098 333.56 116.719C332.862 117.343 333.121 118.227 333.259 118.701C333.288 118.799 333.328 118.934 333.346 119.027C332.201 120.495 331.708 121.604 331.981 123.724C332.191 125.359 332.922 126.679 334.095 127.542C335.054 128.248 336.252 128.615 337.552 128.615C337.672 128.615 337.795 128.604 337.918 128.598L338.671 131.878C333.283 132.953 328.527 135.074 328.296 135.177C324.385 131.843 321.184 130.351 318.54 130.634C317.041 130.796 315.653 131.21 314.395 131.859C314.32 131.82 314.241 131.787 314.154 131.768C310.272 130.948 296.278 123.915 294.869 123.203C294.158 122.558 289.927 118.717 288.473 117.474C286.518 115.798 280.492 116.393 278.402 116.659C273.845 113.174 263.215 106.787 258.92 104.421C221.677 83.9152 173.489 81.3485 173.007 81.3253C172.903 81.321 172.805 81.3371 172.71 81.3632C165.911 80.6535 159.81 81.8643 154.576 84.9748C147.614 89.1026 142.13 103.622 141.743 104.663C141.22 105.787 133.438 122.556 132.976 127.926C132.505 133.382 135.102 136.389 137.346 137.948C136.686 138.139 136.052 138.361 135.435 138.631C133.172 139.626 130.828 143.356 129.737 147.702C128.36 153.182 129.207 158.414 132.06 162.057C137.696 169.264 152.119 169.07 152.759 169.057C154.674 168.964 157.876 169.135 161.581 169.334C165.955 169.567 171.047 169.84 176.233 169.84C182.695 169.84 189.302 169.417 194.843 167.97C212.548 163.344 223.715 162.46 228.821 162.346C229.632 162.41 230.294 162.419 230.77 162.407L248.579 243.921C241.751 227.277 228.583 205.043 204.501 192.949C198.666 190.011 192.38 187.797 185.822 186.37C180.725 185.254 175.359 184.59 169.871 184.395C161.8 184.108 154.225 184.509 147.352 185.582C141.463 186.5 136.002 187.924 131.124 189.815C130.609 190.014 130.094 190.22 129.567 190.431C129.454 190.445 129.341 190.476 129.234 190.533C129.234 190.533 129.166 190.569 129.049 190.64C108.322 199.058 90.1564 212.122 83.8729 218.786C85.2008 206.561 86.6795 192.851 86.825 185.001C86.9279 179.611 85.8811 164.76 83.862 156.668C83.8506 156.624 83.8369 156.581 83.8198 156.539C83.8193 156.538 83.597 155.995 83.2334 155.094C82.0192 152.073 80.9563 149.327 80.0807 146.958C83.679 152.366 88.7612 157.956 94.5322 158.288C94.7124 158.299 94.8915 158.304 95.0703 158.304C98.5538 158.304 101.836 156.341 104.832 152.461C107.953 148.417 114.933 134 118.815 125.766C119.769 123.744 120.505 122.16 120.902 121.303C122.999 121.803 128.784 123.163 130.691 123.375C132.522 123.578 133.534 122.655 133.87 121.723C134.237 120.703 133.942 119.542 133.152 118.628C133.217 118.525 133.281 118.421 133.333 118.306C133.473 117.997 133.652 117.624 133.853 117.206C135.51 113.751 138.015 108.529 135.411 106.707C132.909 104.959 123.851 102.944 120.289 104.129C117.607 105.026 116.115 107.567 113.857 111.414C112.902 113.041 111.819 114.886 110.429 117.005C106.589 122.852 98.2945 134.548 95.5254 138.439C92.8061 132.941 83.1533 113.546 80.0433 108.962C77.5505 105.283 73.8944 103.033 69.1768 102.26C69.4745 100.383 69.0815 98.8811 68.0001 97.7916C67.7057 97.4953 65.0153 95.0452 58.4511 96.3495C58.3895 95.8043 58.3492 95.278 58.3226 94.766C58.8043 94.8893 59.276 94.9561 59.7335 94.9561C60.3252 94.9561 60.8955 94.8528 61.4426 94.6461C66.2365 92.8251 65.0011 85.8637 64.4734 82.8912C64.3848 82.3886 64.2918 81.8686 64.2914 81.705C64.2895 81.0954 64.7356 80.8953 64.8551 80.8536C65.2011 80.7512 65.4581 80.4606 65.5193 80.1045C65.5804 79.749 65.4339 79.3891 65.1414 79.1767C65.1253 79.1649 63.5177 77.9839 63.0237 76.5788C62.8938 76.2151 62.752 75.7339 62.5885 75.1769C61.9973 73.1687 61.1876 70.4176 59.6909 68.8924C57.8642 67.0355 56.4586 66.3803 56.3993 66.3537C56.3164 66.3153 56.2296 66.294 56.1414 66.2812C56.0651 66.2257 55.9821 66.1774 55.8878 66.1456C55.5109 66.02 47.021 63.238 40.9622 65.6587C40.6147 64.9092 40.0121 63.8013 39.0829 62.6924C36.9453 60.1304 33.046 57.4874 26.6098 59.4487C22.3521 60.7472 18.6191 64.6594 16.0994 70.4636C13.0458 77.499 12.6011 85.5057 14.9938 90.3888C16.6678 93.8055 19.1534 95.6672 22.023 95.6672C22.1392 95.6672 22.2563 95.6639 22.3734 95.6578C26.2078 95.4582 29.9929 92.0253 31.792 87.1181C32.7539 84.5031 33.7192 81.559 34.5298 78.971C34.9944 82.1744 36.3224 85.1085 37.8731 86.7526C40.2975 89.3288 44.5676 94.0217 45.6594 95.2235C45.6499 95.2913 45.6409 95.3563 45.6315 95.4283C44.5292 95.0272 42.7955 94.4692 40.8593 94.1236C36.805 93.3997 33.6874 93.8942 31.59 95.5923C27.2749 99.0863 27.74 103.118 28.0449 104.449C23.4818 107.248 20.0248 112.203 18.2787 118.494C17.5041 121.28 16.5659 124.466 15.5727 127.839C12.7287 137.498 9.50488 148.445 9.21 153.328C8.82409 159.701 11.2011 163.027 13.2634 164.695C15.2062 166.266 17.5316 166.894 19.5076 166.894C20.2798 166.894 20.9995 166.797 21.622 166.624C22.6754 166.332 23.8331 165.998 25.0686 165.631L23.7975 170.716C22.7915 174.58 22.7603 180.692 22.8617 186.162C23.0158 194.366 25.646 208.405 27.9666 220.791C29.7274 230.188 31.2478 238.303 31.2478 241.564C31.2478 245.588 32.4254 259.554 33.5637 273.06C34.6332 285.741 35.643 297.72 35.643 300.91C35.643 301.023 35.6657 301.129 35.7018 301.23C35.7018 301.235 35.7004 301.239 35.7004 301.244C35.6999 301.265 35.634 303.418 35.2111 305.898C34.7237 308.729 33.9614 310.859 33.0057 312.057C30.6433 315.014 24.4499 321.494 17.9184 324.857C15.0085 326.356 12.8595 328.678 11.8682 331.395C10.6631 334.688 11.3775 337.989 13.5123 339.293C13.628 339.405 13.7863 339.494 13.9968 339.54C14.0845 339.579 14.1722 339.622 14.259 339.651C14.3557 339.683 14.4576 339.7 14.56 339.7H29.1779C36.1123 339.725 45.5143 339.741 59.6643 339.752C68.7662 339.757 78.8661 339.759 89.6164 339.759C97.0472 339.759 104.79 339.759 112.725 339.757L175.973 339.714C187.14 339.699 198.118 339.688 208.607 339.677L218.588 339.667C256.307 339.62 285.977 339.574 292.452 339.564L293.767 339.562C309.908 339.562 321.227 335.023 327.407 326.07C337.856 310.935 330.34 287.786 327.787 281.051C327.034 279.068 325.483 274.757 323.338 268.792C321.718 264.288 319.765 258.857 317.551 252.75C317.592 252.778 317.626 252.81 317.667 252.838C318.593 253.462 319.743 253.962 321.087 254.327C321.141 254.342 321.196 254.344 321.25 254.349C321.305 254.38 321.364 254.406 321.427 254.426C322.664 254.828 324.247 254.962 325.795 254.962C328.475 254.962 331.05 254.56 331.546 254.45C331.814 254.39 332.524 254.232 342.865 245.461C343.18 245.286 343.545 244.961 343.743 244.36C344.767 241.235 339.437 231.645 338.247 229.565C338.003 228.895 336.138 223.724 334.617 218.624C334.107 216.902 333.689 215.37 333.366 214.044C341.289 213.998 350.858 215.11 357.34 222.619C360.951 226.8 363.141 233.302 363.348 240.458C363.614 249.676 360.604 259.765 354.643 269.633C354.372 270.081 354.516 270.664 354.964 270.934C355.118 271.027 355.287 271.071 355.454 271.071C355.775 271.071 356.088 270.908 356.266 270.613C370.896 246.394 364.727 228.27 358.775 221.379C351.672 213.151 341.341 212.062 332.924 212.15C331.919 207.826 331.056 204.67 330.475 202.545C330.076 201.086 329.723 199.793 329.628 199.217C330.231 198.913 331.61 198.345 332.951 197.793C334.335 197.223 336.032 196.524 337.867 195.723C337.949 195.709 338.031 195.686 338.11 195.648C338.587 195.418 349.753 190.026 352.125 188.015C354.56 186.24 356.371 184.459 357.511 182.721C359.206 180.709 360.392 178.137 360.85 175.467C361.59 171.16 359.129 164.375 357.882 161.318L366.919 162.634C366.965 162.641 367.01 162.644 367.055 162.644C367.361 162.644 367.652 162.496 367.831 162.241C368.037 161.949 368.06 161.566 367.892 161.251Z" fill="#700051"/>
<path d="M101.162 103.341C101.349 103.536 101.598 103.635 101.848 103.635C102.084 103.635 102.319 103.547 102.503 103.372C102.882 103.01 102.895 102.41 102.534 102.031L81.1148 79.6119C80.7522 79.2326 80.1524 79.2193 79.7741 79.5811C79.3953 79.9433 79.3821 80.5435 79.7433 80.9218L101.162 103.341Z" fill="#700051"/>
<path d="M115.999 93.5803C116.118 93.9961 116.498 94.2668 116.91 94.2668C116.996 94.2668 117.085 94.2549 117.172 94.2298C117.675 94.0852 117.966 93.5599 117.821 93.0569L109.453 63.943C109.309 63.44 108.784 63.1494 108.28 63.2935C107.777 63.4381 107.486 63.9634 107.631 64.4669L115.999 93.5803Z" fill="#700051"/>
<path d="M136.853 94.0862C136.899 94.0928 136.944 94.0961 136.989 94.0961C137.453 94.0961 137.858 93.7553 137.926 93.2826L142.273 62.9977C142.348 62.4795 141.988 61.9988 141.469 61.9249C140.949 61.8485 140.47 62.2098 140.397 62.7284L136.049 93.0129C135.974 93.5315 136.334 94.0118 136.853 94.0862Z" fill="#700051"/>
</svg>
