<svg width="349" height="273" viewBox="0 0 349 273" fill="none" xmlns="http://www.w3.org/2000/svg">
<path d="M67.0419 80.0387C62.0943 78.3508 56.4997 76.4344 50.9579 71.6118C49.1223 72.0902 47.2295 72.7384 45.3086 73.5456C48.8431 75.975 52.2368 79.1629 55.4121 83.0509C69.794 100.657 69.1057 123.382 68.6276 129.417C77.4466 122.234 82.4742 111.696 82.4742 100.252C82.4742 96.6816 81.9738 93.1527 80.9888 89.7611C77.9027 83.7453 72.8686 82.0261 67.0419 80.0387Z" fill="#FF4237"/>
<path d="M51.0412 69.5062C51.1597 69.6166 51.2786 69.7241 51.3979 69.8329C58.6285 68.1263 64.1971 69.1149 68.0599 70.6381C63.1333 66.7708 57.2977 64.164 51.0798 63.1243C50.5047 63.3536 49.0189 64.0573 48.7514 65.3012C48.5108 66.4201 49.3026 67.8743 51.0412 69.5062Z" fill="#FF4237"/>
<path d="M43.6771 72.4834C45.6645 71.5971 47.6304 70.8714 49.5456 70.3166C47.6154 68.3844 46.8146 66.5849 47.1645 64.9595C47.3637 64.0321 47.9104 63.3215 48.5212 62.7894C47.2939 62.6697 46.0594 62.6019 44.828 62.6019C37.9331 62.6019 31.3305 64.4392 25.5139 67.9343C29.5082 67.5078 36.1446 67.8507 43.6771 72.4834Z" fill="#FF4237"/>
<path d="M52.9368 71.1563C57.9461 75.2148 63.0354 76.9563 67.5662 78.5021C71.8921 79.9778 75.8036 81.315 78.9234 84.2663C77.5309 81.2935 75.7484 78.5175 73.5934 75.9684C73.5309 75.9343 73.47 75.895 73.4161 75.8438C73.41 75.8378 73.3872 75.815 73.3812 75.8089C73.0768 75.4883 66.2403 68.4977 52.9368 71.1563Z" fill="#FF4237"/>
<path d="M13.5286 80.6397C18.1795 78.7379 26.3658 76.3078 31.8256 79.8293C34.8593 77.3086 38.2441 75.1235 41.9101 73.3187C31.171 67.1588 22.7209 70.0647 22.1483 70.2749C22.0988 70.2952 22.0476 70.3106 21.9957 70.3211C18.8857 72.6966 16.1503 75.561 13.9174 78.7664C13.7757 79.3224 13.6422 79.9482 13.5286 80.6397Z" fill="#FF4237"/>
<path d="M30.5245 80.9409C25.3492 78.0322 17.3074 80.7842 13.2956 82.5095C12.923 86.7911 13.449 92.9571 16.8463 100.839C19.4961 94.2059 23.7371 86.9924 30.5245 80.9409Z" fill="#FF4237"/>
<path d="M32.1641 82.1442C32.078 82.061 31.9859 81.9806 31.8938 81.9003C24.6438 88.259 20.339 95.9904 17.7854 102.902C18.1158 103.595 18.4656 104.298 18.841 105.014C22.2793 111.576 27.3252 118.279 33.9717 123.529C33.6332 117.607 34.5046 111.717 35.3191 106.227C36.787 96.3386 38.0545 87.7988 32.1641 82.1442Z" fill="#FF4237"/>
<path d="M43.5513 74.3264C39.7591 76.1016 36.2652 78.2944 33.1455 80.8451C33.1934 80.8893 33.2449 80.9319 33.2912 80.9766C39.7835 87.2079 38.3947 96.5622 36.9247 106.466C36.0595 112.297 35.126 118.592 35.7031 124.838C42.9292 130.05 51.9024 133.522 62.6155 133.436C64.081 132.647 65.5002 131.755 66.8675 130.765C66.8687 130.75 66.8671 130.736 66.8687 130.722C66.9056 130.455 70.3444 103.897 54.1548 84.0776C50.8253 80.0009 47.2591 76.7282 43.5513 74.3264Z" fill="#FF4237"/>
<path d="M101.37 84.3471C101.584 84.2863 101.803 84.1941 102.024 84.0732C104.706 82.5947 105.937 77.3061 105.675 70.3025L94.575 53.1584C94.7365 53.6308 94.8932 54.1215 95.0433 54.6349V54.6353C97.1501 61.8626 96.0198 66.2976 93.8149 66.9441C93.644 66.9941 93.433 67.0326 93.1866 67.0326C92.7986 67.0326 92.3242 66.9376 91.7852 66.6418C89.6988 65.4989 87.489 61.8037 86.1554 57.2286C84.0425 50.0018 85.1744 45.5659 87.3847 44.9194C88.0105 44.7376 88.7272 44.8597 89.4813 45.2915L81.3027 32.6605C79.8088 38.1276 80.1716 47.5732 83.4606 58.8394C88.4054 75.7818 96.7231 85.7043 101.37 84.3471Z" fill="#F6F5F6"/>
<path d="M139.131 34.1126C139.131 34.1126 139.132 34.1122 139.132 34.1122C139.478 34.0111 140.033 33.9669 140.711 34.3374C142.191 35.1463 143.75 37.7291 144.682 40.917C145.776 44.6722 145.811 48.7753 143.83 49.5748C143.784 49.6004 143.735 49.6211 143.683 49.6373C143.678 49.639 143.674 49.6418 143.669 49.643C143.669 49.643 143.668 49.643 143.668 49.6434H143.668L136.81 51.6442C141.49 63.2676 147.872 70.7761 152.089 69.546C152.283 69.4904 152.481 69.4096 152.681 69.3045C152.701 69.292 152.72 69.2802 152.74 69.2688C155.464 67.7692 156.694 62.3467 156.383 55.1868L132.058 17.6179C130.855 21.8443 130.869 28.4839 132.285 36.1101L139.131 34.1126Z" fill="#F6F5F6"/>
<path d="M324.162 57.774C315.304 55.8163 308.573 56.3966 304.152 59.4977C300.408 62.1255 298.17 66.5934 297.314 73.1576C296.063 82.7631 294.426 100.789 294.043 105.062C295.792 105.008 299.745 105.028 304.37 105.975C306.833 106.481 309.137 107.178 311.217 108.046C312.654 108.647 314.07 109.363 315.432 110.17C315.484 110.184 315.535 110.203 315.585 110.228C315.669 110.27 315.74 110.327 315.803 110.391C319.864 112.862 322.673 115.703 324.013 117.214C325.512 115.192 330.895 108.488 336.119 105.003C342.017 101.071 344.496 97.5082 343.697 94.1109C343.54 93.4534 343.064 92.4372 342.358 91.2525C339.148 85.8426 331.747 77.5683 328.1 77.2213C326.075 77.0261 324.203 77.6531 322.827 78.981C321.467 80.2923 320.721 82.1839 320.829 84.0403C321.051 87.8134 326.113 94.0683 326.164 94.1312C326.365 94.3775 326.403 94.7184 326.262 95.0037C326.121 95.2891 325.833 95.4729 325.508 95.455C325.465 95.4514 322.866 95.384 319.604 96.0508C317.481 96.6255 315.02 97.455 312.768 98.6016C308.138 100.958 304.327 94.2261 302.837 88.8613C301.513 84.0951 301.382 79.7436 301.427 77.5212C301.025 72.3102 302.854 67.4952 302.951 67.244C303.113 66.8264 303.583 66.6198 304.001 66.7805C304.419 66.9421 304.626 67.412 304.465 67.83C304.437 67.9019 301.719 75.0699 303.753 80.9445C305.478 85.9295 316.921 89.1385 321.292 89.8442C320.225 87.9542 319.311 85.869 319.209 84.1352C319.072 81.8118 320.003 79.4486 321.7 77.8126C323.423 76.1511 325.75 75.369 328.253 75.6052C332.684 76.0273 340.027 84.55 343.266 89.6356C345.427 86.9607 346.371 80.2582 346.556 77.7891C346.557 77.7757 346.558 77.7623 346.56 77.7489C347.913 66.9684 335.876 60.3621 324.162 57.774Z" fill="#FF4237"/>
<path d="M344.207 173.972C342.287 172.82 329.781 173.43 322.351 174.084C321.928 174.122 321.542 173.821 321.477 173.399C321.412 172.976 321.687 172.575 322.105 172.483C329.009 170.966 342.48 167.942 344.056 167.36C344.817 167.078 345.24 166.599 345.214 166.049C345.187 165.442 344.574 164.671 343.269 164.319C339.611 163.336 327.415 165.656 320.785 167.182C320.781 167.183 320.777 167.184 320.772 167.185C320.765 167.187 320.757 167.186 320.75 167.188C320.713 167.196 320.676 167.2 320.638 167.203C320.406 167.224 320.167 167.152 319.989 166.974C319.672 166.658 319.672 166.144 319.989 165.827C320.022 165.794 320.063 165.771 320.101 165.744C320.115 165.734 320.128 165.722 320.144 165.713C320.171 165.696 320.198 165.683 320.227 165.67C320.244 165.661 320.26 165.65 320.279 165.642L320.375 165.604C327.763 162.667 336.353 159.141 338.31 158.053C339.314 157.495 339.742 156.733 339.453 156.017C339.056 155.026 337.428 154.346 335.092 154.961C327.951 156.842 305.589 164.792 305.365 164.872C305.035 164.989 304.667 164.883 304.452 164.607C304.237 164.331 304.223 163.949 304.417 163.658C305.055 162.7 307.264 160.934 310.826 158.141C313.221 156.262 315.699 154.319 316.728 153.236C318.307 151.574 318.588 150.188 318.167 149.553C317.768 148.951 316.493 148.67 314.546 149.401C313.738 149.703 312.637 150.08 311.243 150.556C304.9 152.726 293.092 156.765 286.092 161.897C280.299 166.144 273.574 189.335 268.664 206.269C266.374 214.166 264.396 220.987 262.735 225.415C261.406 228.96 259.881 230.759 258.074 230.913C257.99 230.92 257.906 230.923 257.824 230.923C255.216 230.923 253.175 227.433 251.811 225.1C251.663 224.847 251.525 224.611 251.398 224.401C249.514 221.276 247.941 218.403 246.554 215.869C244.805 212.676 243.285 209.904 241.594 207.408L233.551 214.567C231.713 216.8 227.147 222.933 226.3 229.712C225.437 236.616 227.649 242.772 228.283 244.355C237.814 260.18 249.982 272.67 262.164 271.163C262.174 271.162 262.184 271.16 262.194 271.159C268.711 267.538 268.475 262.816 279.602 243.131C284.679 234.149 291.694 223.774 295.645 216.011C298.14 211.108 300.344 205.67 301.874 201.616C301.897 201.526 301.922 201.432 301.944 201.344C302.802 198.046 303.226 196.436 303.495 195.853C304.746 193.148 316.914 190.511 322.109 189.385C330.671 187.53 339.245 186.098 340.194 185.94C341.323 185.752 342.651 185.21 343.072 184.428C343.278 184.045 343.262 183.599 343.023 183.061C342.948 182.954 341.943 181.875 332.525 181.563C327.557 181.399 322.733 181.533 322.685 181.534C322.254 181.558 321.896 181.227 321.854 180.803C321.811 180.38 322.104 179.995 322.524 179.923C323.273 179.794 340.904 176.767 343.184 176.48C344.327 176.339 345.143 175.733 345.245 175.252C345.324 174.882 344.945 174.415 344.207 173.972Z" fill="#FFB1A8"/>
<path d="M227.293 242.683L224.862 238.331C225.649 239.8 226.46 241.253 227.293 242.683Z" fill="#FFB1A8"/>
<path d="M252.861 84.8515C250.589 82.1729 247.655 81.7237 246.879 82.3807C246.854 82.4018 246.828 82.4217 246.801 82.4396L218.15 101.328C219.782 102.015 221.565 103.534 222.939 105.158C224.233 106.683 225.222 108.328 225.724 109.789C225.887 110.265 225.984 110.683 226.035 111.057L254.053 91.2935C254.38 90.9915 254.686 90.1384 254.603 88.9388C254.504 87.5114 253.885 86.0597 252.861 84.8515Z" fill="#D8375D"/>
<path d="M188.617 37.1227C191.259 37.6543 193.482 38.6559 194.703 39.8268L204.407 6.94369C204.565 5.93598 202.905 3.31991 199.474 2.63079C196.034 1.93883 193.452 3.40798 193.25 4.40676C193.243 4.43801 193.235 4.46926 193.225 4.4997L182.483 37.0955C184.191 36.6186 186.532 36.7038 188.617 37.1227Z" fill="#D8375D"/>
<path d="M183.035 145.894C183.035 145.795 183.039 145.676 183.043 145.557C183.046 145.46 183.07 145.369 183.104 145.284C183.455 142.525 185.57 140.239 187.803 137.829C190.303 135.13 192.888 132.339 192.687 128.92C192.292 122.195 190.428 118.811 190.408 118.777C190.286 118.559 190.27 118.296 190.365 118.065C190.644 117.398 191.399 115.46 191.556 114.518C191.604 114.232 191.567 114.04 191.511 113.914C186.958 115.2 183.837 112.74 180.538 110.141C178.644 108.649 176.683 107.115 174.268 106.058C173.686 106.285 165.708 109.502 164.793 114.992C163.887 120.423 167.642 124.586 168.051 125.021C168.053 125.022 168.056 125.024 168.057 125.025C168.389 125.326 168.413 125.84 168.112 126.172C167.844 126.466 167.409 126.519 167.082 126.315C166.428 125.966 157.533 121.343 154.752 126.039C153.433 128.265 153.469 130.769 154.852 132.911C156.094 134.837 158.152 135.998 159.971 135.793C165.036 135.227 167.121 131.411 167.207 131.249C167.374 130.936 167.725 130.767 168.075 130.832C168.424 130.898 168.69 131.182 168.731 131.535C168.744 131.647 169.044 134.31 168.57 137.447C167.958 141.492 166.318 144.461 163.816 146.076C163.931 154.88 160.542 160.261 153.19 162.943C153.641 165.03 155.19 171.489 158.264 177.666C162.975 187.13 168.934 191.651 175.958 191.087C175.982 191.085 176.007 191.085 176.031 191.085C176.142 191.084 187.796 190.729 196.055 163.774C189.655 162.104 182.722 158.397 183.035 145.894Z" fill="#FFB1A8"/>
<path d="M145.845 18.0196C149.471 23.016 152.731 30.0959 155.023 37.9555C156.85 44.2152 157.843 50.2177 158.032 55.363C159.372 54.5152 164.925 53.0306 167.85 52.285C167.688 47.4218 166.766 41.5513 164.877 35.0781C162.635 27.393 159.463 20.49 155.943 15.641C152.636 11.0838 149.367 8.87313 146.971 9.57078L139.217 11.8346C141.337 12.8338 143.595 14.9198 145.845 18.0196Z" fill="#F6F5F6"/>
<path d="M95.6451 224.401C95.5184 224.611 95.3804 224.847 95.2319 225.101C93.8675 227.434 91.8269 230.923 89.2189 230.923C89.1361 230.923 89.0533 230.92 88.9693 230.913C87.1621 230.759 85.6373 228.96 84.3078 225.415C82.6471 220.987 80.6694 214.167 78.3796 206.269C73.4689 189.336 66.7441 166.144 60.9515 161.897C53.9474 156.765 42.141 152.726 35.7981 150.556C34.4052 150.08 33.305 149.703 32.4982 149.401C30.5493 148.669 29.2749 148.95 28.876 149.553C28.4547 150.189 28.7364 151.574 30.3151 153.236C31.3439 154.319 33.8216 156.262 36.2173 158.141C39.779 160.934 41.9876 162.7 42.626 163.658C42.82 163.949 42.8058 164.331 42.5907 164.607C42.3756 164.883 42.0083 164.991 41.6787 164.872C41.4535 164.792 19.0915 156.842 11.9511 154.961C9.61301 154.347 7.98801 155.027 7.58948 156.017C7.30133 156.734 7.72909 157.495 8.73355 158.054C10.6897 159.141 19.2806 162.667 26.6678 165.604L26.764 165.643C26.7762 165.647 26.7863 165.655 26.7981 165.66C26.8318 165.675 26.863 165.691 26.8947 165.71C26.915 165.723 26.9328 165.738 26.9519 165.752C26.986 165.777 27.0237 165.796 27.0538 165.827C27.3707 166.144 27.3707 166.658 27.0538 166.975C26.8756 167.153 26.6353 167.225 26.402 167.202C26.3667 167.2 26.3314 167.197 26.296 167.189C26.2891 167.187 26.2818 167.188 26.2749 167.186C19.6183 165.655 7.43079 163.338 3.77251 164.32C2.46854 164.671 1.85652 165.442 1.82852 166.049C1.80335 166.6 2.22584 167.078 2.98801 167.361C4.12559 167.779 12.1759 169.661 24.5209 172.392L24.8902 172.474C24.9137 172.478 24.9361 172.486 24.9592 172.491C24.9633 172.492 24.9677 172.493 24.9718 172.494C25.3184 172.587 25.5749 172.9 25.5749 173.276C25.5749 173.724 25.2116 174.087 24.7632 174.087C24.7299 174.087 24.6901 174.084 24.6508 174.079L24.6138 174.076C15.3435 173.296 4.57405 172.931 2.83461 173.972C2.09759 174.415 1.71935 174.882 1.79808 175.253C1.89954 175.733 2.71407 176.339 3.85287 176.48C6.13899 176.767 23.7697 179.794 24.5193 179.923C24.9389 179.995 25.2315 180.38 25.1893 180.803C25.1471 181.227 24.7818 181.553 24.3585 181.534C24.3103 181.533 19.4791 181.398 14.5111 181.563C5.09962 181.876 4.09556 182.954 4.01196 183.076C3.78022 183.599 3.76358 184.045 3.96813 184.427C4.38899 185.21 5.71812 185.752 6.84962 185.941C7.79726 186.098 16.3695 187.529 24.9336 189.386C30.1292 190.511 42.2968 193.148 43.5481 195.853C43.8163 196.435 44.2396 198.044 45.0956 201.336C45.5237 202.983 46.0282 204.924 46.6085 207.085C47.8074 209.98 49.1909 213.091 50.6771 216.011C54.628 223.774 61.643 234.149 66.7197 243.131C77.6783 262.519 77.6175 267.391 83.8391 270.993C84.1861 271.061 84.533 271.12 84.8804 271.164C96.8886 272.652 108.889 260.524 118.358 245.018C119.389 242.978 122.036 236.979 121.224 230.477C120.351 223.495 115.333 216.94 113.54 214.791L105.423 207.492C104.188 209.546 102.922 211.781 101.586 214.146C99.8894 217.149 97.9661 220.552 95.6451 224.401Z" fill="#FFB1A8"/>
<path d="M104.305 52.7558C106.194 59.2282 107.19 65.4255 107.329 70.6848C109.512 69.74 114.806 68.3634 117.149 67.7749C117.074 64.488 116.652 60.7591 115.855 56.779C115.406 54.5245 114.835 52.2047 114.159 49.8821C113.473 47.5334 112.693 45.2368 111.84 43.0562C107.128 30.9705 100.567 23.1191 96.249 24.3752L88.5396 26.6235C94.531 29.4713 100.837 40.8772 104.305 52.7558Z" fill="#F6F5F6"/>
<path d="M21.9958 70.3212C22.0477 70.3106 22.0989 70.2952 22.1484 70.2749C22.721 70.0651 31.1711 67.1592 41.9101 73.3187C38.2441 75.1235 34.8594 77.309 31.8257 79.8293C26.3659 76.3078 18.1796 78.738 13.5286 80.6397C13.6423 79.9482 13.7758 79.3224 13.9174 78.7664C16.1504 75.561 18.8858 72.6966 21.9958 70.3212ZM44.8282 62.602C46.0595 62.602 47.2941 62.6698 48.5213 62.7895C47.9105 63.3216 47.3639 64.0322 47.1646 64.96C46.8148 66.585 47.6155 68.3849 49.5457 70.3167C47.6305 70.8715 45.6646 71.5971 43.6772 72.4835C36.1447 67.8512 29.5083 67.5079 25.514 67.9344C31.3306 64.4397 37.9333 62.602 44.8282 62.602ZM48.7514 65.3009C49.0189 64.0574 50.5047 63.3536 51.0798 63.1243C57.2981 64.1641 63.1333 66.7708 68.0603 70.6381C64.1971 69.115 58.6285 68.126 51.398 69.8329C51.279 69.7242 51.1601 69.6162 51.0412 69.5062C49.3026 67.8739 48.5108 66.4198 48.7514 65.3009ZM73.3813 75.809C73.3874 75.8155 73.4101 75.8378 73.4162 75.8439C73.4702 75.895 73.5307 75.9344 73.5936 75.9685C75.7486 78.5176 77.5311 81.2936 78.9235 84.2664C75.8038 81.3151 71.8919 79.9778 67.5664 78.5022C63.0355 76.9563 57.9463 75.2148 52.9369 71.1564C66.2405 68.4977 73.0769 75.4884 73.3813 75.809ZM82.4747 100.252C82.4747 111.696 77.4467 122.234 68.6277 129.417C69.1058 123.382 69.7941 100.657 55.4122 83.0509C52.2372 79.1629 48.8432 75.975 45.3087 73.5456C47.2295 72.7384 49.1228 72.0902 50.958 71.6118C56.4998 76.4344 62.0948 78.3504 67.042 80.0387C72.8687 82.0261 77.9028 83.7453 80.9889 89.7611C81.9738 93.1527 82.4747 96.6815 82.4747 100.252ZM66.8691 130.722C66.8671 130.736 66.8687 130.75 66.8675 130.765C65.5002 131.755 64.081 132.647 62.6159 133.437C51.9028 133.522 42.9292 130.05 35.7032 124.839C35.126 118.592 36.0595 112.297 36.9251 106.466C38.3951 96.5622 39.7835 87.2079 33.2916 80.9766C33.2454 80.932 33.1938 80.8893 33.1459 80.8451C36.2652 78.2944 39.7592 76.1016 43.5514 74.3264C47.2592 76.7282 50.8257 80.001 54.1553 84.0777C70.3448 103.897 66.9057 130.455 66.8691 130.722ZM33.9714 123.529C27.3253 118.28 22.279 111.576 18.8411 105.014C18.4657 104.298 18.1159 103.595 17.7851 102.903C20.3391 95.9904 24.6439 88.2591 31.8939 81.9003C31.986 81.9807 32.0782 82.061 32.1642 82.1442C38.0546 87.7988 36.7872 96.3386 35.3192 106.227C34.5043 111.717 33.6329 117.607 33.9714 123.529ZM13.2957 82.5099C17.3075 80.7842 25.3493 78.0322 30.5246 80.9409C23.7372 86.9928 19.4962 94.2059 16.8464 100.839C13.4491 92.9571 12.9231 86.7915 13.2957 82.5099ZM38.5258 139.016C40.6005 139.352 42.721 139.522 44.8282 139.522C53.3813 139.522 61.5096 136.82 68.3338 131.71C78.3521 124.217 84.098 112.751 84.098 100.252C84.098 96.6174 83.5972 93.0249 82.6179 89.5651C82.6159 89.447 82.5911 89.3281 82.5351 89.2152L82.5027 89.1527C80.9296 83.7976 78.2803 78.9251 74.6244 74.6706C68.5838 67.6373 60.2417 62.9543 51.1346 61.4839C49.0591 61.1487 46.9373 60.9786 44.8282 60.9786C36.2677 60.9786 28.1338 63.6844 21.3062 68.8029C16.5262 72.382 12.5765 77.0687 9.86833 82.3638C9.68571 82.5123 9.58221 82.7294 9.57207 82.9563C6.91135 88.3561 5.55908 94.1718 5.55908 100.252C5.55908 107.986 7.8034 115.465 12.0489 121.88C18.0993 131.032 27.7498 137.278 38.5258 139.016Z" fill="#700051"/>
<path d="M345.245 175.252C345.143 175.733 344.327 176.339 343.184 176.48C340.904 176.767 323.273 179.794 322.524 179.923C322.104 179.995 321.811 180.38 321.853 180.803C321.896 181.227 322.254 181.558 322.684 181.534C322.732 181.533 327.557 181.399 332.525 181.563C341.943 181.875 342.947 182.954 343.023 183.061C343.262 183.598 343.278 184.046 343.072 184.427C342.651 185.21 341.323 185.752 340.195 185.94C339.245 186.098 330.671 187.53 322.109 189.385C316.913 190.511 304.746 193.148 303.495 195.853C303.226 196.435 302.802 198.046 301.945 201.344C301.921 201.432 301.897 201.526 301.874 201.616C300.344 205.671 298.139 211.108 295.644 216.011C291.694 223.774 284.679 234.149 279.602 243.131C268.475 262.816 268.711 267.538 262.194 271.158C262.184 271.16 262.173 271.162 262.163 271.163C249.982 272.67 237.813 260.18 228.283 244.355C227.649 242.772 225.437 236.615 226.3 229.712C227.147 222.934 231.712 216.799 233.551 214.566L241.593 207.408C243.284 209.904 244.805 212.675 246.553 215.869C247.941 218.404 249.514 221.276 251.398 224.401C251.525 224.611 251.662 224.847 251.811 225.1C253.175 227.434 255.215 230.923 257.824 230.923C257.906 230.923 257.99 230.92 258.073 230.912C259.88 230.759 261.406 228.96 262.735 225.415C264.395 220.986 266.374 214.167 268.664 206.269C273.574 189.335 280.299 166.144 286.091 161.897C293.091 156.765 304.9 152.726 311.243 150.556C312.637 150.08 313.738 149.703 314.545 149.401C316.492 148.67 317.768 148.95 318.167 149.553C318.588 150.188 318.307 151.574 316.727 153.236C315.699 154.319 313.221 156.262 310.825 158.141C307.264 160.934 305.055 162.699 304.417 163.658C304.223 163.949 304.237 164.331 304.452 164.607C304.667 164.883 305.035 164.99 305.364 164.872C305.589 164.792 327.951 156.842 335.091 154.962C337.428 154.346 339.055 155.027 339.453 156.017C339.741 156.733 339.314 157.495 338.309 158.053C336.353 159.141 327.763 162.667 320.376 165.604L320.279 165.642C320.26 165.65 320.244 165.661 320.226 165.669C320.198 165.683 320.171 165.697 320.143 165.713C320.128 165.723 320.115 165.734 320.1 165.744C320.062 165.771 320.021 165.794 319.989 165.826C319.672 166.144 319.672 166.657 319.989 166.975C320.167 167.152 320.406 167.225 320.639 167.203C320.676 167.2 320.713 167.196 320.751 167.188C320.757 167.186 320.765 167.187 320.772 167.185C320.777 167.184 320.781 167.183 320.785 167.182C327.414 165.656 339.611 163.336 343.269 164.319C344.574 164.671 345.186 165.442 345.214 166.048C345.239 166.6 344.817 167.077 344.056 167.36C342.48 167.942 329.008 170.965 322.105 172.483C321.687 172.575 321.412 172.976 321.477 173.399C321.542 173.822 321.928 174.122 322.351 174.084C329.781 173.43 342.286 172.82 344.207 173.972C344.945 174.415 345.323 174.882 345.245 175.252ZM224.861 238.331L227.292 242.683C226.46 241.253 225.649 239.8 224.861 238.331ZM176.031 191.084C176.006 191.085 175.982 191.085 175.957 191.087C168.933 191.65 162.975 187.13 158.264 177.665C155.19 171.488 153.64 165.03 153.189 162.943C160.542 160.261 163.931 154.88 163.816 146.076C166.318 144.46 167.958 141.492 168.57 137.447C169.044 134.31 168.744 131.646 168.731 131.534C168.69 131.182 168.424 130.897 168.075 130.832C167.725 130.766 167.374 130.935 167.207 131.249C167.121 131.411 165.036 135.226 159.97 135.792C158.152 135.997 156.094 134.836 154.851 132.91C153.469 130.769 153.433 128.264 154.751 126.039C157.533 121.343 166.428 125.966 167.082 126.315C167.409 126.519 167.844 126.466 168.111 126.171C168.413 125.84 168.389 125.326 168.057 125.025C168.055 125.023 168.053 125.022 168.051 125.02C167.642 124.586 163.887 120.422 164.793 114.992C165.708 109.502 173.686 106.285 174.268 106.057C176.683 107.115 178.644 108.648 180.538 110.14C183.837 112.739 186.958 115.2 191.51 113.914C191.567 114.04 191.604 114.232 191.556 114.518C191.399 115.46 190.644 117.397 190.365 118.065C190.27 118.295 190.286 118.559 190.408 118.777C190.427 118.81 192.291 122.195 192.687 128.92C192.888 132.339 190.303 135.13 187.803 137.828C185.57 140.238 183.455 142.524 183.104 145.284C183.07 145.369 183.046 145.46 183.043 145.557C183.038 145.676 183.034 145.794 183.035 145.893C182.722 158.397 189.655 162.104 196.055 163.774C187.795 190.729 176.142 191.084 176.031 191.084ZM113.54 214.79C115.333 216.94 120.351 223.495 121.223 230.476C122.036 236.979 119.389 242.978 118.358 245.017C108.889 260.524 96.8882 272.651 84.8804 271.163C84.533 271.12 84.1861 271.061 83.8391 270.993C77.6175 267.391 77.6783 262.519 66.7197 243.131C61.643 234.149 54.6276 223.774 50.6771 216.011C49.1909 213.091 47.8074 209.98 46.6081 207.085C46.0282 204.923 45.5237 202.983 45.0956 201.336C44.2396 198.043 43.8163 196.435 43.5481 195.853C42.2969 193.148 30.1292 190.511 24.9336 189.385C16.3695 187.529 7.79727 186.098 6.84922 185.941C5.71813 185.751 4.38858 185.21 3.96813 184.427C3.76318 184.045 3.77983 183.599 4.01197 183.076C4.09558 182.954 5.09963 181.875 14.5112 181.563C19.4791 181.398 24.3103 181.533 24.3586 181.534C24.7814 181.553 25.1471 181.227 25.1893 180.803C25.2315 180.38 24.9389 179.995 24.5189 179.923C23.7697 179.794 6.13899 176.767 3.85287 176.48C2.71407 176.339 1.89955 175.733 1.79809 175.253C1.71935 174.882 2.0972 174.415 2.83462 173.972C4.57366 172.93 15.3435 173.296 24.6138 174.076L24.6504 174.079C24.6901 174.084 24.7295 174.087 24.7632 174.087C25.2116 174.087 25.5749 173.724 25.5749 173.276C25.5749 172.9 25.3184 172.587 24.9714 172.494C24.9673 172.493 24.9633 172.492 24.9592 172.491C24.9361 172.486 24.9137 172.478 24.8902 172.474L24.5209 172.392C12.1759 169.661 4.12561 167.779 2.98803 167.361C2.22585 167.077 1.80337 166.6 1.82853 166.048C1.85653 165.442 2.46854 164.671 3.77251 164.32C7.43079 163.338 19.6183 165.655 26.2749 167.186C26.2818 167.188 26.2887 167.187 26.2956 167.189C26.3314 167.196 26.3667 167.199 26.402 167.202C26.6353 167.225 26.8756 167.153 27.0538 166.975C27.3707 166.657 27.3707 166.144 27.0538 165.826C27.0233 165.796 26.986 165.777 26.9519 165.752C26.9328 165.738 26.915 165.723 26.8943 165.71C26.863 165.691 26.8318 165.675 26.7981 165.66C26.7863 165.655 26.7762 165.647 26.764 165.642L26.6678 165.604C19.2806 162.667 10.6897 159.141 8.73316 158.053C7.72869 157.495 7.30134 156.733 7.58949 156.017C7.98803 155.027 9.61301 154.347 11.9511 154.961C19.0915 156.842 41.4535 164.792 41.6788 164.872C42.0083 164.991 42.3756 164.882 42.5907 164.607C42.8058 164.331 42.82 163.948 42.626 163.658C41.9876 162.699 39.779 160.934 36.2173 158.141C33.8212 156.262 31.3439 154.319 30.3151 153.236C28.7364 151.574 28.4547 150.188 28.876 149.553C29.2749 148.95 30.5493 148.669 32.4982 149.401C33.305 149.703 34.4052 150.08 35.7981 150.556C42.141 152.726 53.9474 156.765 60.9511 161.897C66.7437 166.144 73.4689 189.335 78.3792 206.269C80.6694 214.167 82.6471 220.986 84.3078 225.415C85.6374 228.96 87.1617 230.759 88.9693 230.912C89.0533 230.92 89.1361 230.923 89.2189 230.923C91.8269 230.923 93.8675 227.434 95.2319 225.101C95.3801 224.847 95.518 224.611 95.6451 224.401C97.9661 220.551 99.889 217.148 101.586 214.146C102.922 211.781 104.188 209.546 105.423 207.492L113.54 214.79ZM345.043 172.579C343.473 171.639 337.863 171.602 332.577 171.806C337.905 170.596 343.549 169.277 344.62 168.882C346.045 168.353 346.894 167.239 346.836 165.974C346.769 164.514 345.535 163.249 343.691 162.751C340.921 162.008 334.583 162.845 329.138 163.819C333.333 162.099 337.679 160.261 339.098 159.472C340.833 158.507 341.564 156.913 340.96 155.411C340.315 153.811 338.075 152.497 334.678 153.392C329.264 154.817 315.258 159.673 308.531 162.034C309.55 161.204 310.721 160.287 311.827 159.419C314.381 157.416 316.794 155.523 317.905 154.354C319.893 152.261 320.497 150.131 319.52 148.656C318.585 147.245 316.46 146.948 313.975 147.881C313.19 148.175 312.044 148.567 310.718 149.02C304.292 151.218 292.332 155.309 285.132 160.587C278.893 165.162 272.63 186.76 267.104 205.817C264.824 213.682 262.854 220.475 261.215 224.845C260.173 227.623 259.009 229.204 257.935 229.295C256.229 229.44 254.267 226.085 253.212 224.281C253.059 224.02 252.918 223.778 252.788 223.562C250.921 220.466 249.357 217.61 247.977 215.089C246.168 211.785 244.6 208.925 242.818 206.318L253.347 196.946C253.585 196.734 253.666 196.414 253.587 196.126C253.654 195.885 253.611 195.618 253.445 195.407C247.325 187.636 237.704 176.4 224.869 168.573C219.76 165.456 213.149 164.66 206.755 163.89C203.377 163.483 200.187 163.099 197.236 162.397C190.885 160.883 184.434 157.759 184.656 146.1C184.669 146.048 184.676 145.994 184.678 145.938C184.751 143.511 186.812 141.287 188.993 138.932C191.597 136.12 194.549 132.934 194.307 128.825C193.958 122.879 192.526 119.418 192.007 118.339C192.306 117.589 192.984 115.825 193.157 114.785C193.398 113.338 192.605 112.523 192.098 112.27C191.906 112.173 191.682 112.157 191.479 112.225C187.493 113.555 184.867 111.484 181.542 108.865C179.531 107.281 177.251 105.484 174.392 104.34C171.588 103.217 168.627 102.871 165.339 103.286C150.216 105.198 146.783 115.605 146.012 119.867C143.082 116.089 132.829 104.639 118.176 107.647C114.092 108.483 111.042 110.636 109.109 114.047C107.861 116.25 104.209 124.629 109.602 139.973C113.521 151.127 120.234 153.541 125.311 153.541C126.516 153.541 127.63 153.404 128.591 153.217C137.85 151.41 146.921 142.406 147.943 134.546C149.811 138.31 153.831 143.625 162.195 146.362C162.241 156.756 156.906 159.982 152.146 161.589C152.043 161.602 151.947 161.634 151.859 161.682C148.38 162.811 144.387 163.315 140.161 163.847C133.82 164.643 127.264 165.467 122.174 168.573C109.344 176.397 99.7185 187.635 93.5943 195.407C93.4279 195.618 93.3853 195.886 93.4519 196.126C93.3735 196.413 93.4531 196.731 93.6893 196.943L104.192 206.386C102.896 208.53 101.572 210.87 100.173 213.347C98.4811 216.34 96.5639 219.733 94.2546 223.562C94.1248 223.778 93.9827 224.02 93.8305 224.281C92.7758 226.085 90.8013 229.44 89.1073 229.295C88.0343 229.204 86.8695 227.623 85.8277 224.845C84.1889 220.475 82.2193 213.682 79.9385 205.817C74.4125 186.76 68.1491 165.162 61.9109 160.587C54.7072 155.309 42.7482 151.218 36.3236 149.02C34.9973 148.566 33.8525 148.175 33.068 147.881C30.5822 146.947 28.4576 147.244 27.5225 148.656C26.5457 150.131 27.1495 152.261 29.1382 154.354C30.2486 155.523 32.6613 157.415 35.2153 159.419C36.3224 160.287 37.4925 161.204 38.5112 162.034C31.7847 159.673 17.779 154.817 12.3642 153.391C8.96691 152.498 6.72667 153.812 6.0834 155.411C5.4791 156.913 6.20962 158.507 7.9446 159.472C9.36465 160.261 13.7129 162.1 17.9081 163.82C12.4661 162.848 6.12155 162.009 3.35045 162.752C1.50751 163.249 0.273729 164.514 0.206764 165.974C0.148729 167.239 0.998162 168.354 2.42511 168.883C3.46853 169.268 8.78996 170.517 14.443 171.8C9.0006 171.585 3.56472 171.642 1.99937 172.58C0.125998 173.705 0.0740611 174.948 0.209613 175.589C0.475441 176.843 1.89102 177.872 3.65116 178.091C4.78793 178.233 9.98801 179.1 14.8776 179.927C14.6621 179.934 14.4466 179.94 14.2307 179.948C4.7372 180.28 2.99166 181.376 2.53631 182.401C1.97462 183.662 2.22747 184.616 2.53794 185.195C3.45231 186.897 5.86423 187.422 6.58298 187.542C25.9267 190.744 41.1844 194.61 42.0741 196.534C42.2936 197.009 42.8366 199.099 43.5241 201.744C47.5956 217.409 58.4105 259.02 77.2197 270.14C79.6467 271.572 82.1564 272.459 84.68 272.774C85.4288 272.867 86.1796 272.913 86.934 272.913C94.4381 272.913 102.221 268.333 110.1 259.268C116.948 251.391 123.756 240.074 129.27 227.402C129.274 227.392 129.278 227.382 129.282 227.372C129.294 227.344 129.315 227.293 129.323 227.27C129.466 226.845 129.239 226.384 128.814 226.24C128.765 226.223 128.715 226.212 128.665 226.205L95.143 196.067C101.201 188.408 110.597 177.535 123.019 169.959C127.812 167.035 134.193 166.233 140.363 165.458C144.385 164.952 148.197 164.466 151.637 163.445C152.744 168.511 158.879 192.758 174.807 192.756C175.216 192.756 175.632 192.74 176.054 192.708C177.009 192.697 189.137 191.992 197.638 164.149C200.474 164.765 203.563 165.141 206.561 165.502C212.782 166.251 219.215 167.026 224.025 169.959C236.451 177.537 245.841 188.408 251.894 196.065L217.928 226.298C217.619 226.533 217.518 226.963 217.705 227.319C217.729 227.365 217.762 227.402 217.792 227.441C223.296 240.082 230.087 251.373 236.92 259.242C244.807 268.325 252.596 272.914 260.107 272.913C260.862 272.913 261.614 272.867 262.363 272.774C272.435 271.525 281.79 261.303 290.169 242.394C296.898 227.207 301.368 210.015 303.516 201.753C304.204 199.103 304.749 197.01 304.968 196.534C305.858 194.61 321.116 190.745 340.461 187.542C341.178 187.422 343.586 186.898 344.502 185.197C344.813 184.618 345.067 183.663 344.507 182.403C344.052 181.376 342.306 180.28 332.812 179.948C332.596 179.94 332.38 179.934 332.165 179.927C337.053 179.1 342.252 178.234 343.386 178.091C345.15 177.872 346.567 176.843 346.833 175.589C346.968 174.948 346.917 173.705 345.043 172.579Z" fill="#700051"/>
<path d="M81.3028 32.6604C82.0552 29.9072 83.2768 28.1588 84.8365 27.703C89.4939 26.3479 97.8008 36.2692 102.746 53.2108C104.518 59.2818 105.486 65.2396 105.675 70.3025C105.937 77.3061 104.706 82.5943 102.024 84.0732C101.803 84.1941 101.584 84.2858 101.371 84.3471C96.7228 85.7038 88.4051 75.7814 83.4607 58.8394C80.1717 47.5732 79.8089 38.1276 81.3028 32.6604ZM96.2492 24.3751C100.567 23.119 107.127 30.9705 111.841 43.0561C112.693 45.2367 113.473 47.5334 114.159 49.882C114.834 52.2043 115.405 54.5245 115.855 56.7789C116.651 60.759 117.074 64.4879 117.149 67.7749C114.806 68.3633 109.512 69.74 107.329 70.6848C107.19 65.4254 106.194 59.2282 104.305 52.7558C100.837 40.8772 94.5309 29.4713 88.5394 26.6235L96.2492 24.3751ZM132.058 17.6178C132.79 15.0456 133.97 13.3658 135.559 12.9023C137.951 12.203 141.224 14.4153 144.531 18.9729C148.05 23.822 151.223 30.7246 153.465 38.4096C155.2 44.3552 156.166 50.1929 156.383 55.1864C156.694 62.3467 155.464 67.7692 152.74 69.2688C152.72 69.2802 152.701 69.2919 152.681 69.3045C152.481 69.4096 152.283 69.4904 152.089 69.546C147.872 70.7761 141.49 63.2676 136.81 51.6442L143.668 49.6434C143.668 49.6434 143.668 49.643 143.668 49.643H143.669C143.674 49.6418 143.678 49.6385 143.683 49.6373C143.735 49.6211 143.785 49.6004 143.831 49.5748C145.811 48.7753 145.776 44.6722 144.682 40.9169C143.75 37.729 142.192 35.1462 140.711 34.3374C140.033 33.9668 139.478 34.0107 139.133 34.1117C139.132 34.1121 139.132 34.1125 139.131 34.1125L132.286 36.1101C130.87 28.4835 130.856 21.8439 132.058 17.6178ZM146.972 9.57033C149.367 8.87269 152.637 11.0833 155.943 15.6405C159.463 20.4896 162.636 27.3926 164.877 35.0776C166.767 41.5508 167.689 47.4214 167.85 52.2846C164.925 53.0302 159.372 54.5147 158.032 55.3625C157.843 50.2172 156.85 44.2148 155.023 37.9551C152.731 30.0955 149.471 23.0155 145.845 18.0192C143.595 14.9194 141.338 12.8333 139.217 11.8341L146.972 9.57033ZM100.416 86.1068C100.89 86.1068 101.359 86.0415 101.821 85.9064C102.02 85.85 102.221 85.7708 102.422 85.6807C102.434 85.6815 102.446 85.6864 102.458 85.6864C102.533 85.6864 102.61 85.6758 102.686 85.6535L113.238 82.5772C118.47 81.0496 120.194 70.9145 117.598 57.2501L135.244 52.1012C139.966 63.9072 146.17 71.2972 151.183 71.2968C151.646 71.2968 152.099 71.2339 152.539 71.1056C152.739 71.0484 152.94 70.9693 153.142 70.8792C153.155 70.88 153.167 70.8857 153.18 70.8857C153.255 70.8857 153.332 70.8747 153.408 70.8528L163.956 67.7724C167.816 66.6454 169.473 61.1596 169.471 54.009C169.604 52.7185 169.67 51.8301 169.67 51.8301C169.67 51.8301 169.58 51.852 169.424 51.8901C169.195 46.5297 168.134 40.4421 166.435 34.6231C164.143 26.7631 160.884 19.6832 157.257 14.6868C153.469 9.46725 149.656 7.09712 146.517 8.01189L135.104 11.3439C129.907 12.8605 128.162 22.9717 130.72 36.5671L113.056 41.7221C107.898 28.8719 101.011 21.2944 95.7943 22.8167L84.3832 26.1446C84.3827 26.1446 84.3823 26.1446 84.3815 26.145C77.3702 28.1921 77.6149 44.6077 81.9022 59.2944C85.9063 73.0143 93.6944 86.1068 100.416 86.1068Z" fill="#700051"/>
<path d="M89.4811 45.2915C88.7271 44.8597 88.0104 44.7375 87.3845 44.9194C85.1743 45.5663 84.0424 50.0017 86.1556 57.2286C87.4888 61.8037 89.6987 65.4989 91.7851 66.6418C92.3245 66.9376 92.7989 67.0326 93.1869 67.0326C93.4328 67.0326 93.6443 66.994 93.8147 66.9441C96.0197 66.298 97.15 61.8625 95.0432 54.6353V54.6349C94.8935 54.1215 94.7364 53.6308 94.5749 53.1588C93.1073 48.869 91.1983 46.2745 89.4811 45.2915Z" fill="#700051"/>
<path d="M193.225 4.49973C193.235 4.46929 193.243 4.43805 193.25 4.4068C193.452 3.40802 196.034 1.93846 199.473 2.63083C202.905 3.31995 204.564 5.93602 204.407 6.94332L194.703 39.8268C193.482 38.656 191.259 37.6539 188.617 37.1227C186.532 36.7035 184.191 36.6186 182.483 37.0955L193.225 4.49973ZM264.41 33.0549C263.212 46.0452 253.782 62.4936 240.076 67.5342C237.828 68.3601 235.811 68.3086 234.399 67.3889C233.148 66.5748 232.419 65.0878 232.29 63.089C232.046 59.322 232.753 53.9518 239.857 42.6864C243.989 36.1369 252.99 27.1215 263.197 22.4482C264.311 25.518 264.753 29.3309 264.41 33.0549ZM254.053 91.2935L226.035 111.057C225.984 110.684 225.887 110.265 225.724 109.789C225.223 108.328 224.233 106.683 222.94 105.158C221.565 103.534 219.783 102.015 218.151 101.328L246.801 82.4396C246.828 82.4218 246.854 82.4019 246.879 82.3808C247.655 81.7237 250.589 82.1734 252.861 84.8516C253.885 86.0598 254.504 87.5115 254.603 88.9392C254.686 90.1389 254.38 90.9916 254.053 91.2935ZM186.035 43.897C185.304 46.1519 184.732 48.216 183.705 51.9259L183.486 52.7173C182.489 56.3009 181.488 63.9953 184.837 67.464C186.518 69.2043 188.438 70.0854 190.551 70.0854C190.643 70.0854 190.736 70.0837 190.828 70.0801C196.701 69.8686 202.553 62.8613 205.366 59.4936C208.794 55.3865 212.001 51.0748 215.103 46.9044C223.109 36.143 230.671 25.9782 242.028 18.5034C251.005 12.5975 256.709 15.0387 258.745 16.363C260.32 17.3849 261.601 18.9291 262.568 20.9531C251.991 25.7741 242.891 34.8358 238.484 41.8203C234.151 48.6917 230.206 56.0367 230.67 63.1941C230.833 65.7233 231.817 67.6446 233.513 68.7493C234.527 69.4092 235.743 69.7408 237.085 69.7408C238.197 69.7408 239.395 69.5135 240.636 69.0578C254.945 63.7956 264.782 46.6962 266.026 33.2043C266.394 29.2144 265.906 25.1134 264.688 21.8057C271.645 18.9376 277.909 18.6097 283.316 20.8475C287.262 22.4815 290.144 25.5245 291.648 29.6475C293.883 35.7729 292.999 43.7071 289.282 50.8723C284.602 59.8881 278.512 65.5103 269.574 72.1746C265.856 74.9474 262.951 76.8832 260.387 78.591C257.773 80.3321 255.693 81.7201 253.702 83.365C251.027 80.5383 247.467 79.8224 245.871 81.1081L215.368 101.218C215.3 101.255 215.223 101.306 215.14 101.369L215.139 101.369C215.139 101.37 215.138 101.37 215.137 101.371C215.112 101.39 215.087 101.405 215.063 101.427C214.576 101.839 213.878 102.874 214.667 105.174C215.168 106.634 216.157 108.279 217.452 109.807C219.438 112.147 222.013 114.028 223.907 114.028C224.412 114.028 224.866 113.887 225.25 113.593C225.257 113.589 225.265 113.587 225.272 113.582L255.024 92.5955C255.044 92.5817 255.063 92.5671 255.081 92.5517C255.897 91.8605 256.334 90.4327 256.223 88.8264C256.121 87.3759 255.591 85.9185 254.719 84.6292C256.653 83.0314 258.705 81.6616 261.287 79.9421C263.867 78.2225 266.792 76.2745 270.545 73.4762C279.672 66.6702 285.899 60.9125 290.723 51.6199C294.645 44.0586 295.561 35.6365 293.173 29.091C291.509 24.5294 288.315 21.16 283.937 19.3479C278.2 16.9725 271.34 17.3139 264.058 20.311C262.958 17.9859 261.474 16.1986 259.629 15.0018C252.715 10.507 244.393 15.005 241.135 17.1471C229.539 24.7794 221.538 35.5346 213.801 45.936C210.712 50.0878 207.518 54.3812 204.12 58.453C201.458 61.6405 195.919 68.2724 190.77 68.4579C189 68.5188 187.445 67.8272 186.005 66.3358C183.372 63.6093 183.991 56.9579 185.05 53.1511L185.27 52.3593C186.313 48.5902 186.883 46.531 187.628 44.2485C188.676 44.4356 189.689 44.5334 190.619 44.5334C192.329 44.5334 193.767 44.2229 194.669 43.6215C195.334 43.1787 195.582 42.658 195.673 42.2769L205.976 7.36134C205.983 7.3374 205.989 7.31386 205.994 7.28991C206.384 5.32725 204.162 1.91654 199.794 1.03911C195.691 0.21565 192.147 1.93318 191.67 4.03262L180.224 38.7582L180.223 38.7619C180.18 38.8735 180.145 38.9815 180.124 39.0874C180.12 39.1081 180.118 39.1284 180.115 39.1491C180.114 39.1539 180.113 39.1584 180.113 39.1633C179.789 41.1937 182.71 43.003 186.035 43.897Z" fill="#700051"/>
<path d="M346.56 77.7485C346.558 77.7619 346.557 77.7753 346.556 77.7891C346.371 80.2583 345.428 86.9604 343.266 89.6353C340.028 84.5496 332.684 76.0269 328.254 75.6048C325.75 75.3686 323.423 76.1507 321.7 77.8122C320.003 79.4482 319.072 81.8118 319.209 84.1349C319.311 85.8686 320.225 87.9539 321.292 89.8443C316.921 89.1381 305.479 85.9291 303.753 80.9441C301.719 75.0695 304.438 67.9015 304.465 67.8301C304.627 67.4117 304.419 66.9417 304.001 66.7806C303.583 66.6195 303.113 66.826 302.951 67.2436C302.854 67.4949 301.025 72.3098 301.427 77.5208C301.382 79.7436 301.513 84.0947 302.837 88.8609C304.328 94.2258 308.139 100.958 312.768 98.6012C315.02 97.4547 317.481 96.6251 319.605 96.0509C322.866 95.3841 325.466 95.451 325.508 95.4547C325.833 95.4725 326.121 95.2887 326.262 95.0038C326.403 94.7181 326.365 94.3776 326.164 94.1308C326.113 94.0679 321.051 87.813 320.829 84.0399C320.721 82.1836 321.467 80.2923 322.827 78.9807C324.203 77.6531 326.075 77.0257 328.1 77.2209C331.747 77.5683 339.147 85.8423 342.358 91.2522C343.064 92.4368 343.54 93.4531 343.697 94.1105C344.496 97.5082 342.017 101.071 336.119 105.003C330.895 108.488 325.512 115.192 324.013 117.214C322.673 115.703 319.864 112.862 315.803 110.391C315.74 110.327 315.669 110.27 315.585 110.228C315.535 110.203 315.484 110.184 315.432 110.169C314.07 109.363 312.654 108.647 311.216 108.046C309.137 107.178 306.833 106.481 304.37 105.975C299.745 105.027 295.793 105.008 294.044 105.062C294.426 100.789 296.063 82.7627 297.313 73.1572C298.171 66.5935 300.408 62.1251 304.153 59.4973C308.573 56.3966 315.304 55.8159 324.162 57.7737C335.877 60.3617 347.912 66.9685 346.56 77.7485ZM318.57 129.889C317.173 127.761 313.85 125.477 310.278 123.602L315.563 112.152C319.6 114.726 322.236 117.606 323.215 118.772C323.283 118.853 323.344 118.926 323.397 118.992L318.57 129.889ZM304.454 115.941L311.647 116.76L310.092 120.131L304.454 115.941ZM308.828 122.869C308.806 122.859 308.784 122.848 308.762 122.837C307.493 122.222 306.151 121.632 304.769 121.084C303.19 120.46 301.646 119.924 300.16 119.474L301.578 115.826L309.397 121.637L308.828 122.869ZM304.473 108.381L304.729 107.722C306.829 108.191 308.802 108.798 310.591 109.544C311.805 110.052 313.001 110.647 314.163 111.311L312.383 115.167L304.473 108.381ZM309.566 114.889L302.266 114.058L303.849 109.985L309.566 114.889ZM288.877 117.992L293.701 106.701C294.987 106.646 298.694 106.585 303.117 107.386L298.594 119.023C296.27 118.402 291.768 117.396 288.877 117.992ZM344.482 66.447C340.527 61.6933 333.808 58.2424 324.513 56.1885C315.193 54.1304 308.029 54.7956 303.221 58.1686C299.082 61.072 296.623 65.906 295.704 72.9478C294.337 83.4401 292.514 103.917 292.355 105.718L286.391 119.677C286.391 119.68 286.39 119.682 286.389 119.684C286.388 119.688 286.385 119.692 286.383 119.697C285.767 121.25 287.017 123.268 289.999 125.531C292.677 127.563 296.486 129.609 300.722 131.291C304.957 132.971 309.132 134.093 312.477 134.449C313.213 134.527 313.892 134.565 314.514 134.565C317.015 134.565 318.582 133.936 319.093 132.714C319.094 132.712 319.096 132.71 319.098 132.707L325.08 119.201C325.176 118.983 325.166 118.738 325.066 118.527C325.882 117.351 331.645 109.939 337.02 106.353C343.548 102.001 346.25 97.8747 345.277 93.7363C345.111 93.0403 344.726 92.1519 344.139 91.0955C347.358 87.8094 348.125 78.5594 348.173 77.9303C348.458 75.6292 348.351 71.0963 344.482 66.447Z" fill="#700051"/>
</svg>
