<svg width="324" height="267" viewBox="0 0 324 267" fill="none" xmlns="http://www.w3.org/2000/svg">
<path d="M284.843 100.599C280.762 88.3681 274.514 77.1291 266.259 67.1638L195.76 130.172L284.843 100.599Z" fill="#F6F5F6"/>
<path d="M265.036 65.7127C256.839 56.1599 247.118 48.2579 236.117 42.2043L194.628 128.639L265.036 65.7127Z" fill="#FF874E"/>
<path d="M192.138 129.445L234.446 41.3029C232.004 40.0137 229.469 38.7982 226.885 37.6932C215.852 32.9702 204.167 30.2215 192.138 29.5064L192.138 129.445Z" fill="#FF4237"/>
<path d="M92.7304 86.5677C85.4391 100.962 81.6736 116.478 81.5325 132.701L189.677 132.701L121.987 51.1589C109.793 60.6188 99.6851 72.8397 92.7304 86.5677Z" fill="#FFB0A8"/>
<path d="M190.242 29.4123C188.79 29.3528 187.323 29.3158 185.861 29.316C163.155 29.3157 141.614 36.4704 123.494 50.0079L190.242 130.413L190.242 29.4123Z" fill="#D8375D"/>
<path d="M171.827 186.347C175.803 186.347 179.037 183.113 179.037 179.137C179.037 175.161 175.803 171.927 171.827 171.927C167.854 171.927 164.621 175.161 164.621 179.137C164.621 183.113 167.854 186.347 171.827 186.347Z" fill="#FF4237"/>
<path d="M32.7338 77.8472C32.7959 77.7851 32.8665 77.7315 32.9433 77.6889L56.5289 64.5828C56.8234 64.4193 57.1803 64.424 57.471 64.5947C57.7601 64.7649 57.9379 65.0759 57.9379 65.412V119.407C57.9379 119.752 57.7497 120.071 57.4463 120.238L33.8607 133.198C33.7184 133.276 33.561 133.315 33.4041 133.315C33.2391 133.315 33.0746 133.273 32.9272 133.187C32.6399 133.02 32.4612 132.714 32.4559 132.381C32.454 132.245 32.2568 118.638 32.1559 105.268V105.268C31.971 78.61 32.2905 78.29 32.7338 77.8472ZM24.3899 160.239L33.5406 168.578L58.6306 154.75C58.9245 154.589 59.2819 154.593 59.5707 154.764C59.8594 154.935 60.0367 155.245 60.0367 155.58V264.194H68.1023V6.05298L24.3899 36.5517V160.239Z" fill="#F6F5F6"/>
<path d="M45.3589 124.716L47.4799 123.551C48.6173 119.225 55.6527 97.0917 56.0414 95.8691V93.9965L45.3589 99.96V124.716Z" fill="#FF874E"/>
<path d="M45.3589 97.7886L56.0054 91.8455C56.0172 91.8389 56.0295 91.8356 56.0414 91.8299V67.0239L45.3096 72.9874C45.339 73.0789 45.3589 73.1747 45.3589 73.2757V97.7886Z" fill="#FF874E"/>
<path d="M43.4628 101.019L34.3884 106.085C34.2836 106.143 34.1717 106.172 34.0598 106.188C34.1414 116.58 34.2774 126.922 34.33 130.777L43.6093 125.678C43.5178 125.532 43.4628 125.361 43.4628 125.176V101.019Z" fill="#FF874E"/>
<path d="M43.4626 98.8472V74.0132L34.2322 79.1423C34.0919 80.3849 33.9236 85.5188 34.0445 104.105L43.4626 98.8472Z" fill="#FF874E"/>
<path d="M18.1653 215.911C16.2315 215.911 14.677 213.95 14.3731 211.302H12.9855C12.4621 211.302 12.0373 210.878 12.0373 210.354C12.0373 209.831 12.4621 209.406 12.9855 209.406H14.3731C14.677 206.758 16.2315 204.797 18.1653 204.797C20.3243 204.797 22.0149 207.238 22.0149 210.354C22.0149 213.471 20.3243 215.911 18.1653 215.911ZM22.5473 161.126L10.7615 150.386V264.093C10.7615 264.127 10.7597 264.161 10.7559 264.194H32.4556V170.155L23.2257 161.744C22.9057 161.669 22.6516 161.433 22.5473 161.126Z" fill="#FF4237"/>
<path d="M34.2322 79.142L43.4626 74.0129V98.8468L34.0444 104.104C33.9235 85.5189 34.0914 80.3851 34.2322 79.142ZM34.3298 130.776C34.2767 126.922 34.1407 116.58 34.0591 106.188C34.1715 106.172 34.2834 106.143 34.3881 106.085L43.4626 101.019V125.176C43.4626 125.361 43.5176 125.532 43.6091 125.678L34.3298 130.776ZM56.0414 67.0235V91.8294C56.0296 91.8356 56.0168 91.8384 56.0054 91.8451L45.3589 97.7882V73.2752C45.3589 73.1743 45.3385 73.0785 45.3091 72.987L56.0414 67.0235ZM56.0414 95.8691C55.6527 97.0913 48.6168 119.224 47.48 123.55L45.3589 124.716V99.96L56.0414 93.9965V95.8691ZM32.1557 105.268C32.2567 118.639 32.4539 132.246 32.4558 132.381C32.461 132.714 32.6397 133.02 32.927 133.187C33.0745 133.273 33.239 133.316 33.4039 133.316C33.5609 133.316 33.7183 133.277 33.8605 133.198L57.4461 120.238C57.7491 120.071 57.9378 119.752 57.9378 119.407V65.4121C57.9378 65.076 57.76 64.765 57.4708 64.5948C57.1802 64.4241 56.8227 64.4194 56.5288 64.5834L32.9431 77.689C32.8663 77.7316 32.7957 77.7852 32.7336 77.8473C32.2903 78.2901 31.9703 78.6101 32.1557 105.268V105.268Z" fill="#700051"/>
<path d="M87.3984 157.579H123.568C124.091 157.579 124.516 157.154 124.516 156.63C124.516 156.107 124.091 155.682 123.568 155.682H87.3984C86.8745 155.682 86.4502 156.107 86.4502 156.63C86.4502 157.154 86.8745 157.579 87.3984 157.579Z" fill="#700051"/>
<path d="M87.3984 169.107H123.568C124.091 169.107 124.516 168.682 124.516 168.159C124.516 167.636 124.091 167.211 123.568 167.211H87.3984C86.8745 167.211 86.4502 167.636 86.4502 168.159C86.4502 168.682 86.8745 169.107 87.3984 169.107Z" fill="#700051"/>
<path d="M87.3984 180.641H123.568C124.091 180.641 124.516 180.216 124.516 179.693C124.516 179.17 124.091 178.745 123.568 178.745H87.3984C86.8745 178.745 86.4502 179.17 86.4502 179.693C86.4502 180.216 86.8745 180.641 87.3984 180.641Z" fill="#700051"/>
<path d="M290.19 132.701H194.159L285.429 102.402C288.49 112.167 290.093 122.336 290.19 132.701ZM189.677 132.701H81.532C81.6732 116.478 85.4389 100.962 92.7303 86.568C99.6846 72.8399 109.793 60.619 121.987 51.1592L189.677 132.701ZM123.494 50.0076C141.613 36.4702 163.154 29.3158 185.861 29.3158C187.323 29.3158 188.79 29.3532 190.242 29.412V130.413L123.494 50.0076ZM164.621 179.137C164.621 175.161 167.854 171.927 171.827 171.927C175.803 171.927 179.037 175.161 179.037 179.137C179.037 183.113 175.803 186.347 171.827 186.347C167.854 186.347 164.621 183.113 164.621 179.137ZM292.467 192.277C292.467 194.294 291.914 195.586 290.775 196.228C287.361 198.152 279.392 194.2 276.608 192.515C276.315 192.338 275.949 192.332 275.652 192.5C275.353 192.668 275.168 192.984 275.168 193.326V216.347C273.384 215.833 268.197 214.012 265.383 209.589C265.102 209.147 264.515 209.017 264.074 209.298C263.632 209.579 263.502 210.165 263.783 210.607C267.301 216.137 273.854 217.99 275.168 218.313V232.116C275.168 232.141 275.169 232.167 275.171 232.191C275.183 232.331 276.166 246.317 267.516 255.67C262.284 261.326 254.595 264.194 244.663 264.194H86.0173L165.283 185.452C166.939 187.169 169.258 188.244 171.827 188.244C173.299 188.244 174.686 187.885 175.917 187.262L199.926 213.881C200.104 214.078 200.357 214.192 200.623 214.194H200.63C200.893 214.194 201.145 214.085 201.324 213.892L243.679 168.397C245.678 169.99 248.206 170.945 250.955 170.945C257.403 170.945 262.648 165.699 262.648 159.251C262.648 152.8 257.403 147.552 250.955 147.552C244.507 147.552 239.26 152.8 239.26 159.251C239.26 162.27 240.41 165.024 242.295 167.101L200.641 211.843L177.534 186.223C179.604 184.552 180.934 181.999 180.934 179.137C180.934 174.116 176.848 170.03 171.827 170.03C166.808 170.03 162.725 174.116 162.725 179.137C162.725 180.902 163.238 182.547 164.111 183.944L84.6315 262.898C84.2736 263.253 84.2622 263.821 84.5908 264.194H69.9985V5.65284C69.9985 5.61776 69.9918 5.58505 69.9885 5.55139H226.416V35.4447C215.33 30.8608 203.616 28.2116 191.569 27.5716C191.452 27.5209 191.325 27.492 191.19 27.492C191.092 27.492 190.998 27.5114 190.909 27.5394C189.241 27.4621 187.546 27.4194 185.861 27.4194C162.6 27.4194 140.539 34.7929 122.02 48.7413C121.801 48.7356 121.579 48.8015 121.396 48.9509C121.229 49.0869 121.125 49.2685 121.078 49.4629C108.549 59.1204 98.1671 71.6391 91.0388 85.7108C83.4696 100.653 79.6314 116.782 79.6314 133.649C79.6314 134.173 80.0561 134.597 80.5795 134.597H290.239C290.552 141.187 292.467 181.778 292.467 192.277ZM234.446 41.303L192.138 129.445V29.5059C204.166 30.2213 215.852 32.97 226.885 37.6928C229.469 38.7984 232.004 40.0135 234.446 41.303ZM236.117 42.2042C247.118 48.2582 256.839 56.1598 265.036 65.7126L194.628 128.64L236.117 42.2042ZM284.843 100.599L195.759 130.172L266.259 67.1637C274.514 77.1285 280.761 88.3681 284.843 100.599ZM68.1021 264.194H60.0361V155.581C60.0361 155.246 59.8588 154.935 59.5705 154.764C59.2818 154.594 58.9244 154.589 58.6304 154.75L33.5405 168.578L24.3898 160.239V36.5517L68.1021 6.05344V264.194ZM32.4558 264.194H10.7561C10.7599 264.16 10.7618 264.127 10.7618 264.092V150.386L22.5475 161.126C22.6518 161.433 22.9059 161.669 23.2259 161.744L32.4558 170.155V264.194ZM6.56376 264.194V149.187H8.86542V264.092C8.86542 264.127 8.86733 264.16 8.87112 264.194H6.56376ZM4.66742 213.81C4.58873 213.828 4.51099 213.852 4.43608 213.891C4.27679 213.975 4.12364 214.015 3.96672 214.015C3.04273 214.015 2.01303 212.512 2.01303 210.354C2.01303 208.196 3.04273 206.693 3.96672 206.693C4.16488 206.693 4.36402 206.758 4.55839 206.886C4.59348 206.909 4.63092 206.925 4.66742 206.942V213.81ZM323.675 88.7037C323.51 88.2069 322.974 87.9381 322.477 88.1026L286.642 100.002C282.479 87.5232 276.102 76.0594 267.673 65.8989L300.861 36.2416C301.252 35.8927 301.285 35.2935 300.936 34.9028C300.588 34.5127 299.989 34.4785 299.598 34.8279L266.45 64.4491C258.087 54.7091 248.166 46.6558 236.938 40.4918L255.48 1.87013C255.707 1.39794 255.508 0.831885 255.036 0.604799C254.566 0.378661 253.997 0.576837 253.771 1.0495L235.267 39.5925C233.016 38.4058 230.685 37.2851 228.312 36.2497V4.60323C228.312 4.07937 227.888 3.65506 227.364 3.65506H68.5236C68.3292 3.65506 68.1401 3.71431 67.9808 3.82572L22.8988 35.2793C22.6447 35.4566 22.4934 35.7472 22.4934 36.0572V158.511L10.4517 147.538C10.4361 147.524 10.418 147.514 10.4014 147.501C10.3749 147.48 10.3488 147.459 10.3199 147.44C10.2934 147.423 10.2659 147.41 10.2384 147.396C10.2113 147.382 10.1848 147.369 10.1564 147.357C10.1255 147.345 10.0943 147.337 10.0625 147.328C10.035 147.321 10.0075 147.313 9.97904 147.308C9.94444 147.302 9.90984 147.299 9.87476 147.297C9.8539 147.296 9.83445 147.291 9.81359 147.291H5.61559C5.0922 147.291 4.66742 147.716 4.66742 148.239V204.893C4.43655 204.834 4.20234 204.797 3.96672 204.797C1.80774 204.797 0.116699 207.238 0.116699 210.354C0.116699 213.47 1.80774 215.911 3.96672 215.911C4.20328 215.911 4.43749 215.88 4.66742 215.821V265.142C4.66742 265.666 5.0922 266.09 5.61559 266.09H244.663C255.153 266.09 263.314 263.013 268.919 256.945C277.986 247.13 277.14 233.098 277.065 232.08V194.957C280.26 196.69 287.64 200.169 291.705 197.881C293.469 196.887 294.364 195.001 294.364 192.277C294.364 180.852 292.112 134.074 292.09 133.649C292.09 122.782 290.452 112.074 287.228 101.805L323.074 89.9022C323.571 89.7372 323.84 89.2005 323.675 88.7037Z" fill="#700051"/>
<path d="M18.1656 214.015C17.2416 214.015 16.2119 212.512 16.2119 210.354C16.2119 208.197 17.2416 206.694 18.1656 206.694C19.0896 206.694 20.1188 208.197 20.1188 210.354C20.1188 212.512 19.0896 214.015 18.1656 214.015ZM18.1656 204.797C16.2318 204.797 14.6773 206.758 14.3734 209.406H12.9858C12.4624 209.406 12.0376 209.831 12.0376 210.354C12.0376 210.878 12.4624 211.302 12.9858 211.302H14.3734C14.6773 213.95 16.2318 215.911 18.1656 215.911C20.3246 215.911 22.0152 213.471 22.0152 210.354C22.0152 207.238 20.3246 204.797 18.1656 204.797Z" fill="#700051"/>
</svg>
