<svg width="341" height="285" viewBox="0 0 341 285" fill="none" xmlns="http://www.w3.org/2000/svg">
<path d="M149.362 177.269C152.647 176.476 155.749 175.728 159.087 175.282C160.521 175.091 161.944 174.925 163.32 174.764C172.988 173.637 180.624 172.747 182.016 164.77C182.955 159.375 181.279 156.014 179.707 154.145C177.909 152.006 175.303 150.729 172.738 150.729C172.564 150.729 172.403 150.673 172.271 150.579H138.822C138.72 150.579 138.618 150.56 138.523 150.522C138.398 150.473 126.143 145.477 126.738 133.403C126.697 133.308 126.675 133.203 126.675 133.091C126.675 133.078 126.676 133.032 126.676 133.018C127.202 122.541 129.284 115.856 133.042 112.579C134.965 110.903 137.299 110.171 139.988 110.404C150.956 111.357 158.627 129.855 158.948 130.642C159.086 130.979 158.982 131.367 158.694 131.59C158.406 131.813 158.005 131.817 157.712 131.6C145.119 122.232 138.042 121.994 134.323 123.442C131.386 124.587 129.371 127.307 128.649 131.1C128.518 131.791 128.428 132.471 128.382 133.121C127.625 143.647 137.695 148.393 138.986 148.956H173.919C173.933 148.956 173.947 148.956 173.962 148.957C174.247 148.971 181.031 149.213 182.012 142.259C182.579 138.213 179.327 120.602 174.912 103.805C173.037 96.6697 170.134 86.5642 166.953 78.94C165.344 75.0845 163.14 69.804 156.371 69.804C151.511 69.804 136.308 73.0901 112.407 79.3069C104.553 81.3503 97.3135 83.3073 92.6236 84.5889C88.5424 85.7026 85.691 86.4996 84.8379 86.7387L85.4329 163.154C87.1983 163.9 88.9905 165.08 91.2032 166.541C91.7527 166.904 92.3265 167.283 92.9288 167.674C99.0781 171.666 107.23 176.11 121.059 178.8C122.78 179.134 124.459 179.39 126.048 179.561C135.563 180.596 142.578 178.905 149.362 177.269Z" fill="#D8375D"/>
<path d="M295.931 138.749C295.717 138.517 295.509 138.277 295.308 138.025C292.593 134.623 291.772 130.125 292.933 125.013C293.276 123.501 293.894 122.054 294.774 120.692C279.653 123.08 260.69 118.655 260.494 118.609C260.448 118.598 260.403 118.583 260.359 118.564C260.355 118.563 260.032 118.423 259.44 118.181C255.136 116.438 232.903 107.992 218.162 112.983C207.409 116.624 203.981 124.458 202.895 128.804C201.261 135.345 202.75 142.28 206.69 146.472C212.23 152.368 220.431 157.47 226.957 161.257C229.677 162.836 232.392 164.345 235.032 165.807L247.933 148.607C247.959 148.573 247.988 148.544 248.017 148.515C246.594 147.125 244.997 145.58 243.358 144.05C238.802 139.795 232.196 133.996 227.434 132.765C227 132.653 226.739 132.21 226.851 131.776C226.963 131.342 227.405 131.083 227.84 131.193C227.951 131.222 228.063 131.255 228.175 131.288C228.095 131.229 228.052 131.198 228.052 131.198C228.052 131.198 236.718 131.842 243.307 134.134C248.47 135.93 259.436 143.177 263.942 146.231C267.402 147.445 268.384 148.522 268.782 149.32C270.559 152.875 270.933 160.945 270.933 167.089C270.933 167.103 270.929 167.116 270.929 167.13C270.957 169.157 270.798 171.411 270.638 173.352C270.397 176.226 270.553 181.873 270.718 187.852C270.86 192.986 271.007 198.29 270.919 202.369C270.924 202.399 270.931 202.427 270.932 202.457C270.935 202.517 271.21 208.481 271.403 215.003C271.538 219.76 271.598 223.607 271.581 226.463H293.104C293.351 224.666 293.681 222.813 294.119 220.361C294.398 218.803 294.72 216.999 295.092 214.81C295.331 213.396 295.59 211.817 295.874 210.037C296.951 203.271 296.56 196.066 296.215 189.709C295.891 183.747 295.612 178.597 296.47 174.589C296.707 173.485 297.058 172.355 297.483 171.198C298.11 166.961 299.294 158.394 298.597 151.896C297.902 145.406 296.457 140.418 295.931 138.749Z" fill="#F6F7F6"/>
<path d="M307.55 134.642C307.479 134.707 307.4 134.754 307.316 134.789L307.244 134.972C307.27 136.127 307.211 137.194 307.136 138.028C309.04 136.851 312.301 134.996 314.545 134.688C314.651 133.33 314.475 131.991 313.936 131.893L313.876 131.882C313.872 131.882 313.838 131.878 313.834 131.878C311.04 131.461 307.585 134.611 307.55 134.642Z" fill="#D9375E"/>
<path d="M311.326 128.657C310.788 128.59 310.223 128.654 309.682 128.782L308.438 131.942C309.734 131.108 311.507 130.238 313.274 130.22C313.272 130.151 313.277 130.082 313.295 130.012C313.399 129.599 313.297 129.436 313.264 129.382C313.111 129.134 312.676 128.919 312.039 128.778C311.832 128.731 311.593 128.691 311.326 128.657Z" fill="#D9375E"/>
<path d="M318.88 106.52C318.88 106.516 318.721 104.918 308.517 102.761L306.264 112.005C308.607 110.94 310.924 110.073 313.008 109.296C315.4 108.403 318.677 107.181 318.88 106.52Z" fill="white"/>
<path d="M310.992 127.01C311.06 127.011 311.127 127.017 311.195 127.022C311.168 126.978 311.138 126.935 311.108 126.892C311.07 126.932 311.031 126.971 310.992 127.01Z" fill="#D9375E"/>
<path d="M317.267 79.6052C308.358 75.2943 300.862 75.1365 296.02 75.8199C295.009 77.9977 290.348 88.895 293.89 97.7489C295.457 101.67 297.639 104.053 300.106 104.59C299.516 102.589 299.026 100.899 298.884 100.33C298.642 99.3621 301.578 99.7566 304.191 100.286C304.977 100.421 305.91 100.588 306.923 100.785C307.196 100.836 307.482 100.892 307.772 100.95L308.066 101.008C319.33 103.306 320.625 105.246 320.495 106.679C320.349 108.289 317.8 109.24 313.575 110.816C311.117 111.733 308.332 112.773 305.595 114.112C301.699 116.011 298.895 118.054 297.021 120.36C295.762 121.907 294.92 123.593 294.516 125.373C293.453 130.052 294.147 133.968 296.577 137.012C299.207 140.307 303.394 141.789 305.527 141.789C305.834 141.789 306.189 141.76 306.58 141.703C310.015 141.195 314.65 138.845 315.593 137.131C315.823 136.713 315.735 136.515 315.702 136.44C315.688 136.408 315.655 136.339 315.494 136.297C315.42 136.319 315.344 136.333 315.264 136.333C315.22 136.333 315.176 136.33 315.132 136.322C315.074 136.313 315.019 136.297 314.966 136.276C312.768 136.425 308.207 139.213 306.57 140.322C306.3 140.504 305.947 140.507 305.674 140.33C305.401 140.153 305.259 139.83 305.316 139.509C305.321 139.483 305.763 136.924 305.585 134.137C305.483 132.422 305.168 130.982 304.651 129.854C304.183 128.846 303.549 128.11 302.767 127.671C302.468 127.502 302.307 127.164 302.365 126.826C302.423 126.488 302.688 126.222 303.026 126.163C303.061 126.157 306.576 125.542 310.86 124.576C313.233 124.045 315.433 123.494 317.401 122.939L318.062 122.753C329.164 119.623 334.737 118.052 337.512 110.459C339.287 105.602 338.561 100.05 335.468 94.8256C331.985 88.9437 325.691 83.6807 317.267 79.6052Z" fill="#D8375D"/>
<path d="M292.907 228.087H271.561C271.552 228.545 271.54 228.977 271.524 229.373C271.229 237.035 269.455 244.504 269.437 244.58C269.431 244.605 269.423 244.631 269.415 244.655C267.016 251.588 256.456 259.079 251.403 260.694C251.358 260.724 251.309 260.751 251.257 260.772C249.85 261.36 248.594 261.551 247.486 261.72C245.742 261.985 244.589 262.161 243.674 263.688C243.258 264.381 243.13 264.984 243.294 265.481C243.551 266.262 244.456 266.646 244.466 266.65C244.569 266.693 244.659 266.755 244.733 266.83C248.475 267.28 256.543 266.948 263.701 266.652C269.706 266.404 275.379 266.17 278.339 266.377C284.597 266.814 291.97 266.905 293.438 263.707C295.234 259.798 294.358 255.175 293.43 250.28C292.982 247.913 292.518 245.466 292.327 242.975C292.325 242.951 292.324 242.928 292.325 242.904C292.325 242.847 292.388 237.064 292.617 231.959C292.681 230.579 292.775 229.327 292.907 228.087Z" fill="#D8375D"/>
<path d="M283.228 65.1681C283.574 64.7842 283.914 64.382 284.237 63.9754C284.335 63.8512 284.463 63.7659 284.602 63.7168C283.425 63.8025 282.406 63.3463 281.714 62.378C280.579 60.7911 280.516 58.0951 281.437 56.1487C279.261 55.354 278.254 53.7051 277.276 52.1032C277.097 51.811 276.915 51.5143 276.725 51.2201C275.203 52.8792 271.705 56.5058 269.711 57.0776C269.476 57.1446 269.375 57.2258 269.365 57.2611C269.291 57.5472 269.789 58.3901 270.391 58.9957C270.636 59.2428 270.698 59.6198 270.542 59.9319C270.537 59.9409 269.998 61.0468 269.793 62.6353C269.481 65.0005 270.034 67.104 271.436 68.8885C271.982 69.5788 272.608 70.0249 273.347 70.2489C276.212 71.1117 280.375 68.3199 283.228 65.1681Z" fill="#D8375D"/>
<path d="M267.856 97.3235C268.244 97.9352 268.654 98.005 268.965 98.0001C270.128 97.9765 273.014 96.632 279.265 87.8865C282.355 83.5634 284.98 79.205 285.728 77.9445C285.116 76.5784 283.24 71.9956 283.351 67.3792C280.784 69.8869 277.489 72.0346 274.5 72.0346C274.246 72.0346 273.994 72.0171 273.745 71.9851C273.549 73.0082 273.134 74.9863 272.551 76.7688C272.542 76.8491 272.524 76.9283 272.489 77.0037L272.43 77.1267C272.152 77.9425 271.864 78.6166 271.574 79.1283C271.555 79.1624 271.528 79.1888 271.505 79.2188C270.754 80.9851 269.696 83.6324 268.819 86.4327C267.142 91.7899 266.799 95.6576 267.856 97.3235Z" fill="#D8375D"/>
<path d="M269.02 173.218C269.178 171.299 269.336 169.072 269.306 167.102C269.251 163.699 268.64 161.582 267.384 160.441C267.121 160.203 266.83 160.003 266.519 159.85C265.137 159.16 263.943 158.898 262.678 158.62C260.781 158.205 258.819 157.774 256.1 155.962C254.657 155.003 252.24 152.641 249.18 149.651L236.466 166.601C245.494 171.603 253.188 175.948 255.211 180.002C257.293 184.166 264.027 198.085 263.249 202.344C263.029 203.561 262.62 204.535 262.259 205.395C261.622 206.913 261.202 207.916 261.996 209.506C262.561 210.634 263.894 211.318 265.309 211.202C266.935 211.071 268.193 209.96 268.758 208.153C269.049 207.226 269.229 205.316 269.294 202.477C269.387 198.42 269.239 193.07 269.096 187.897C268.929 181.872 268.772 176.181 269.02 173.218Z" fill="#D8375D"/>
<path d="M255.832 145.812C251.968 145.04 248.102 144.5 245.906 144.22C247.31 145.555 248.65 146.862 249.841 148.026L250.286 148.462C253.179 151.29 255.678 153.733 257 154.611C259.465 156.255 261.195 156.633 263.025 157.035C264.127 157.276 265.261 157.528 266.524 158.067L255.919 145.935C255.885 145.896 255.857 145.855 255.832 145.812Z" fill="white"/>
<path d="M261.376 116.958C261.388 116.979 261.401 117.001 261.407 117.014C261.431 117.062 261.449 117.112 261.463 117.162C264.888 117.907 282.432 121.439 295.966 118.837C296.042 118.822 296.118 118.822 296.192 118.829C297.824 116.974 300.013 115.29 302.83 113.723C302.572 112.865 301.557 109.488 300.614 106.309C298.498 106.124 294.945 104.763 292.382 98.3516C288.971 89.8244 292.474 79.925 294.088 76.1584C290.306 76.9473 287.869 78.2245 287.237 78.5821C285.555 81.4599 274.776 99.5082 268.997 99.6231C268.276 99.6458 267.252 99.4007 266.485 98.1937C263.695 93.7931 268.552 81.8447 270.453 77.5565L266.411 77.8114C265.046 80.0516 257.254 93.0537 256.47 99.3321C255.664 105.771 260.754 115.766 261.376 116.958Z" fill="#FE874F"/>
<path d="M241.44 83.1076C226.248 85.6628 193.867 89.9716 192.496 90.1539C192.451 90.16 192.406 90.1628 192.361 90.1608C192.234 90.1563 179.655 89.7188 176.752 89.7188C175.72 89.7188 175.186 89.8442 174.97 90.1368C174.275 91.0776 175.254 94.6319 176.051 97.2237C176.057 97.2423 176.061 97.261 176.066 97.2801C176.074 97.3113 176.877 100.612 179.269 101.09C179.365 101.109 179.451 101.147 179.529 101.194L179.641 101.208C180.945 101.372 183.129 101.646 183.619 101.252C183.968 100.77 183.129 98.2667 181.797 95.7054L179.712 98.0074C179.411 98.3397 178.898 98.3649 178.565 98.0642C178.233 97.763 178.208 97.2496 178.509 96.9173L181.362 93.7679C181.536 93.5751 181.794 93.4781 182.052 93.5057C182.311 93.5341 182.54 93.6847 182.669 93.9108C184.156 96.5236 186.39 101.115 184.633 102.52C183.608 103.341 181.583 103.087 179.439 102.819L179.003 102.765C178.544 102.708 177.425 102.571 176.923 102.624C176.922 102.79 176.944 103.011 177.006 103.273C177.259 104.345 178.05 105.647 179.189 105.976C181.84 106.734 183.323 106.291 185.201 105.731C185.593 105.614 185.996 105.494 186.425 105.38C188.749 104.761 190.973 103.645 192.935 102.661C194.684 101.784 196.065 101.091 197.141 100.937C198.324 100.767 212.5 100.128 226.615 99.537C235.236 97.2318 254.775 91.873 257.774 89.8734C257.915 89.7797 258.04 89.703 258.158 89.6356C260.465 84.707 263.321 79.8065 264.582 77.7014C262.225 77.6766 259.867 78.4051 256.516 79.4424C253.051 80.5143 248.74 81.8491 242.527 82.9209L241.44 83.1076Z" fill="#D8375D"/>
<path d="M156.372 68.1807C164.223 68.1807 166.87 74.5244 168.452 78.3146C170.122 82.3154 171.71 86.981 173.119 91.5488C173.07 90.4668 173.256 89.7257 173.665 89.1726C174.364 88.2261 175.563 88.0955 176.753 88.0955C179.604 88.0955 191.242 88.4977 192.35 88.5358C194.444 88.2574 225.376 84.1344 240.573 81.6068L254.171 53.1316L212.804 65.9084C212.576 65.979 212.327 65.9449 212.126 65.8158C211.924 65.6864 211.79 65.4745 211.76 65.2371L206.201 22.2947L178.303 55.4161C177.995 55.7822 177.37 55.7822 177.061 55.4161L149.168 22.2947L143.605 65.2371C143.574 65.4745 143.441 65.6864 143.239 65.8158C143.037 65.9449 142.789 65.979 142.561 65.9084L101.191 53.1291L112.756 77.5395C129.393 73.2225 150.154 68.1807 156.372 68.1807Z" fill="white"/>
<path d="M175.915 101.264C176.026 101.2 176.149 101.147 176.284 101.108C176.046 100.843 175.835 100.567 175.65 100.287C175.74 100.618 175.828 100.942 175.915 101.264Z" fill="white"/>
<path d="M205.508 147.584C201.199 143 199.555 135.474 201.321 128.41C202.487 123.743 206.158 115.333 217.641 111.446C224.114 109.254 232.579 109.241 242.801 111.406C250.089 112.949 256.31 115.203 259.27 116.365C257.761 113.227 254.509 105.735 254.785 100.057C246.743 100.246 199.08 102.298 197.372 102.544C196.558 102.66 195.217 103.333 193.664 104.112C191.732 105.081 189.329 106.287 186.844 106.948C186.432 107.058 186.043 107.174 185.665 107.287C184.445 107.651 183.267 108.003 181.803 108.003C180.913 108.003 179.917 107.872 178.742 107.536C178.228 107.388 177.768 107.129 177.361 106.802C181.425 122.905 184.182 138.473 183.62 142.485C182.916 147.476 179.669 149.394 177.114 150.128C178.556 150.815 179.879 151.826 180.95 153.1C182.744 155.233 184.663 159.038 183.616 165.048C182.016 174.219 173.439 175.219 163.509 176.376C162.139 176.536 160.723 176.701 159.303 176.891C156.049 177.326 152.986 178.065 149.743 178.847C144.308 180.158 138.727 181.504 131.835 181.504C130.187 181.504 128.46 181.421 126.647 181.248L122.96 204.561L159.06 180.641C159.26 180.508 159.507 180.47 159.737 180.539C159.967 180.606 160.155 180.772 160.251 180.991L177.682 220.628L195.117 180.99C195.213 180.772 195.402 180.606 195.631 180.539C195.861 180.471 196.109 180.509 196.308 180.641L232.408 204.561L225.746 162.43C219.191 158.612 211.08 153.515 205.508 147.584Z" fill="white"/>
<path d="M77.151 169.184C82.0239 168.292 83.3807 164.893 83.7374 163.474C83.7764 163.317 83.7987 163.199 83.8096 163.136L83.2061 85.7541C83.1286 85.1928 82.2285 79.6774 76.6708 80.2302C74.5203 80.4449 72.7954 80.8385 71.0576 81.3089L71.7447 169.408C71.7455 169.508 71.7256 169.603 71.6936 169.691C73.5146 169.663 75.1408 169.55 77.151 169.184Z" fill="#FF4237"/>
<path d="M63.0244 30.0156C63.4757 29.061 64.2407 28.4206 65.1218 28.2599C65.9571 28.1069 66.7923 28.3869 67.4745 29.0456C68.787 30.3232 69.1636 32.6885 68.3341 34.4332C67.882 35.389 67.117 36.029 66.2359 36.1901C66.0869 36.2173 65.938 36.2307 65.7899 36.2307C65.108 36.2307 64.4441 35.9458 63.8832 35.404C62.5691 34.13 62.192 31.7635 63.0244 30.0156ZM20.4092 86.5346L79.3783 33.628L27.7907 2.70065C27.0192 2.39546 26.2728 2.24894 25.5675 2.26721C22.3365 2.32605 20.4092 5.54927 20.4092 8.63125V86.5346Z" fill="#F6F6F6"/>
<path d="M69.352 81.7858C66.4518 82.6146 63.1641 83.5537 57.8577 83.9896C56.1722 84.1279 54.3447 83.921 52.4088 83.701C52.0249 83.6572 51.632 83.6133 51.2339 83.5707L51.919 172.947C52.2704 172.809 52.6162 172.672 52.9567 172.537C54.8609 171.782 56.66 171.068 58.3228 170.737C63.6259 169.676 66.9226 169.686 69.8329 169.697C69.9478 169.697 70.0606 169.697 70.1746 169.697C70.1422 169.61 70.1215 169.518 70.1211 169.421L69.4372 81.7615L69.352 81.7858Z" fill="white"/>
<path d="M35.6727 144.169L35.8757 170.41C35.8895 172.059 36.3688 173.32 37.3006 174.155C38.801 175.501 41.1829 175.576 42.9171 175.4C45.7186 175.118 48.2016 174.336 50.3067 173.56C50.3046 173.538 50.2998 173.518 50.2998 173.495L49.6094 83.4157C47.5421 83.2493 45.122 83.1921 42.4138 83.6872C39.7235 84.1755 35.217 85.7619 35.2551 90.8979L35.4617 117.131C35.4625 117.214 35.4507 117.295 35.4276 117.371C35.2925 118.787 35.4986 134.084 35.6727 144.169Z" fill="#FF4237"/>
<path d="M34.0496 144.189C34.0488 144.13 33.9319 137.366 33.8483 130.684C33.7992 126.759 33.7708 123.629 33.7635 121.381C33.7594 120.043 33.7631 119.006 33.7744 118.297C33.7826 117.78 33.7886 117.381 33.8382 117.082L33.6389 91.8357L20.4092 93.6835V159.352L34.1872 161.959L34.0496 144.189Z" fill="#D8375D"/>
<path d="M34.2459 169.54C34.1885 169.623 34.1261 169.705 34.063 169.788L34.2476 169.752L34.2459 169.54Z" fill="#D8375D"/>
<path d="M86.4488 239.444C86.463 239.434 86.4772 239.425 86.4918 239.416C91.4216 236.404 91.562 235.22 91.562 228.603V190.782L30.5681 278.657L86.4488 239.444Z" fill="#F6F6F6"/>
<path d="M306.264 112.005L308.517 102.761C318.721 104.918 318.88 106.516 318.88 106.52C318.677 107.181 315.401 108.403 313.008 109.296C310.924 110.073 308.607 110.94 306.264 112.005ZM337.512 110.459C334.737 118.052 329.164 119.623 318.062 122.753L317.401 122.939C315.433 123.494 313.232 124.045 310.859 124.576C306.577 125.542 303.06 126.157 303.026 126.163C302.687 126.222 302.423 126.487 302.365 126.826C302.307 127.164 302.468 127.502 302.767 127.67C303.549 128.11 304.183 128.846 304.651 129.854C305.168 130.982 305.482 132.422 305.585 134.137C305.763 136.924 305.321 139.483 305.316 139.508C305.259 139.829 305.401 140.153 305.674 140.33C305.947 140.507 306.3 140.503 306.57 140.322C308.207 139.213 312.769 136.424 314.966 136.276C315.019 136.297 315.074 136.313 315.132 136.322C315.176 136.329 315.22 136.333 315.264 136.333C315.344 136.333 315.42 136.319 315.494 136.296C315.655 136.338 315.688 136.408 315.702 136.44C315.735 136.514 315.823 136.713 315.593 137.131C314.65 138.845 310.015 141.195 306.579 141.703C306.189 141.76 305.834 141.788 305.527 141.788C303.394 141.788 299.207 140.307 296.577 137.012C294.146 133.968 293.453 130.052 294.517 125.373C294.92 123.593 295.762 121.907 297.021 120.36C298.895 118.054 301.699 116.011 305.596 114.112C308.332 112.772 311.117 111.733 313.575 110.816C317.8 109.24 320.35 108.289 320.495 106.679C320.625 105.246 319.33 103.306 308.066 101.008L307.773 100.95C307.482 100.892 307.196 100.835 306.923 100.784C305.91 100.588 304.977 100.421 304.191 100.286C301.578 99.7562 298.642 99.3621 298.884 100.33C299.026 100.899 299.516 102.589 300.105 104.59C297.639 104.053 295.457 101.67 293.89 97.7489C290.348 88.895 295.009 77.9977 296.021 75.8195C300.862 75.1365 308.358 75.2943 317.267 79.6052C325.691 83.6807 331.984 88.9437 335.468 94.8256C338.562 100.05 339.288 105.602 337.512 110.459ZM310.991 127.01C311.031 126.97 311.069 126.931 311.107 126.892C311.138 126.935 311.167 126.977 311.194 127.021C311.127 127.017 311.059 127.011 310.991 127.01ZM313.265 129.382C313.297 129.436 313.398 129.599 313.295 130.012C313.277 130.082 313.272 130.151 313.273 130.22C311.507 130.238 309.734 131.108 308.437 131.942L309.682 128.782C310.223 128.654 310.788 128.59 311.326 128.657C311.593 128.691 311.832 128.731 312.039 128.778C312.676 128.919 313.111 129.134 313.265 129.382ZM313.876 131.882L313.937 131.893C314.475 131.991 314.651 133.33 314.545 134.687C312.301 134.996 309.04 136.85 307.135 138.027C307.211 137.193 307.27 136.127 307.244 134.971L307.316 134.789C307.399 134.753 307.48 134.707 307.55 134.642C307.584 134.61 311.039 131.461 313.834 131.877C313.838 131.878 313.872 131.881 313.876 131.882ZM297.483 171.198C297.058 172.354 296.707 173.485 296.47 174.589C295.612 178.597 295.891 183.746 296.215 189.709C296.56 196.066 296.95 203.271 295.874 210.037C295.59 211.816 295.331 213.396 295.092 214.81C294.72 216.999 294.398 218.803 294.12 220.361C293.682 222.813 293.351 224.666 293.104 226.464H271.581C271.598 223.607 271.538 219.76 271.403 215.003C271.21 208.481 270.935 202.516 270.932 202.457C270.931 202.427 270.924 202.398 270.919 202.369C271.007 198.29 270.86 192.986 270.719 187.852C270.553 181.873 270.397 176.227 270.638 173.352C270.798 171.411 270.957 169.157 270.929 167.13C270.929 167.116 270.933 167.103 270.933 167.089C270.933 160.945 270.559 152.876 268.782 149.32C268.384 148.522 267.402 147.445 263.942 146.231C259.435 143.177 248.47 135.93 243.307 134.134C236.718 131.842 228.052 131.198 228.052 131.198C228.052 131.198 228.095 131.229 228.175 131.288C228.063 131.255 227.951 131.222 227.84 131.193C227.405 131.083 226.963 131.342 226.851 131.776C226.739 132.21 227 132.653 227.434 132.765C232.196 133.995 238.802 139.794 243.358 144.05C244.997 145.58 246.594 147.126 248.018 148.515C247.988 148.544 247.959 148.573 247.933 148.606L235.032 165.807C232.392 164.345 229.677 162.837 226.957 161.257C220.431 157.47 212.23 152.368 206.69 146.472C202.75 142.28 201.261 135.345 202.895 128.803C203.982 124.458 207.409 116.624 218.161 112.983C232.903 107.992 255.136 116.438 259.44 118.181C260.032 118.423 260.355 118.563 260.36 118.564C260.403 118.583 260.448 118.598 260.494 118.609C260.69 118.656 279.654 123.08 294.775 120.692C293.894 122.054 293.276 123.501 292.933 125.013C291.772 130.124 292.593 134.623 295.308 138.025C295.509 138.277 295.717 138.518 295.931 138.749C296.457 140.418 297.902 145.406 298.597 151.896C299.294 158.395 298.11 166.961 297.483 171.198ZM292.327 242.975C292.518 245.465 292.982 247.913 293.431 250.279C294.358 255.174 295.234 259.798 293.438 263.707C291.969 266.906 284.597 266.813 278.339 266.376C275.379 266.17 269.707 266.403 263.701 266.652C256.543 266.948 248.475 267.28 244.733 266.83C244.659 266.755 244.569 266.693 244.466 266.65C244.457 266.646 243.551 266.261 243.294 265.481C243.131 264.984 243.258 264.381 243.674 263.687C244.59 262.161 245.742 261.985 247.487 261.719C248.594 261.551 249.85 261.36 251.258 260.772C251.31 260.75 251.358 260.724 251.403 260.693C256.456 259.079 267.016 251.587 269.415 244.655C269.424 244.63 269.431 244.605 269.437 244.579C269.455 244.504 271.229 237.034 271.525 229.373C271.54 228.977 271.552 228.544 271.561 228.087H292.908C292.776 229.327 292.681 230.578 292.618 231.959C292.388 237.064 292.325 242.846 292.325 242.904C292.325 242.928 292.325 242.951 292.327 242.975ZM258.463 146.379C265.596 148.034 267.044 149.471 267.329 150.045C268.112 151.61 268.678 154.495 269 158.432L258.463 146.379ZM266.523 158.067C265.26 157.528 264.126 157.276 263.025 157.035C261.194 156.633 259.465 156.254 256.999 154.61C255.677 153.732 253.179 151.29 250.285 148.462L249.84 148.026C248.649 146.861 247.309 145.554 245.906 144.22C248.101 144.5 251.967 145.04 255.831 145.812C255.856 145.854 255.884 145.896 255.918 145.934L266.523 158.067ZM269.293 202.477C269.229 205.316 269.049 207.226 268.758 208.153C268.192 209.959 266.935 211.07 265.308 211.202C263.893 211.318 262.56 210.634 261.996 209.506C261.202 207.916 261.622 206.913 262.259 205.395C262.62 204.535 263.028 203.561 263.249 202.344C264.026 198.085 257.292 184.166 255.21 180.002C253.188 175.948 245.493 171.603 236.465 166.601L249.18 149.651C252.239 152.641 254.657 155.003 256.099 155.962C258.819 157.774 260.78 158.205 262.677 158.62C263.942 158.898 265.137 159.16 266.519 159.85C266.829 160.003 267.12 160.203 267.384 160.441C268.64 161.582 269.251 163.699 269.306 167.102C269.336 169.072 269.178 171.299 269.02 173.218C268.772 176.181 268.929 181.872 269.096 187.897C269.239 193.07 269.387 198.42 269.293 202.477ZM232.408 204.561L196.308 180.641C196.108 180.509 195.861 180.471 195.631 180.539C195.401 180.606 195.213 180.772 195.117 180.99L177.682 220.628L160.251 180.991C160.155 180.772 159.966 180.606 159.737 180.539C159.507 180.47 159.259 180.508 159.06 180.641L122.96 204.561L126.646 181.248C128.46 181.421 130.187 181.504 131.834 181.504C138.726 181.504 144.308 180.158 149.743 178.847C152.986 178.065 156.049 177.326 159.303 176.891C160.723 176.701 162.139 176.536 163.508 176.376C173.439 175.219 182.016 174.219 183.615 165.048C184.662 159.037 182.744 155.233 180.95 153.1C179.879 151.826 178.556 150.815 177.114 150.128C179.669 149.393 182.916 147.476 183.62 142.485C184.182 138.473 181.424 122.905 177.36 106.802C177.767 107.129 178.228 107.388 178.741 107.536C179.917 107.872 180.912 108.002 181.803 108.002C183.267 108.002 184.445 107.651 185.665 107.287C186.043 107.174 186.432 107.058 186.843 106.948C189.328 106.287 191.732 105.081 193.664 104.112C195.216 103.333 196.558 102.66 197.371 102.543C199.079 102.298 246.743 100.246 254.784 100.057C254.508 105.735 257.761 113.227 259.269 116.365C256.309 115.203 250.088 112.949 242.8 111.406C232.578 109.241 224.114 109.254 217.641 111.446C206.158 115.333 202.487 123.743 201.321 128.41C199.555 135.474 201.199 143 205.508 147.584C211.08 153.514 219.191 158.612 225.746 162.429L232.408 204.561ZM121.059 178.8C107.23 176.11 99.0787 171.666 92.9294 167.674C92.3267 167.283 91.7532 166.904 91.2033 166.541C88.9911 165.08 87.1988 163.9 85.433 163.154L84.8384 86.7383C85.6911 86.4993 88.5426 85.7022 92.6242 84.5886C97.3141 83.3069 104.554 81.3503 112.407 79.3065C136.309 73.0898 151.511 69.8037 156.371 69.8037C163.141 69.8037 165.344 75.0841 166.953 78.9396C170.135 86.5638 173.037 96.6697 174.912 103.805C179.328 120.602 182.579 138.213 182.012 142.259C181.032 149.212 174.248 148.971 173.962 148.957C173.948 148.956 173.934 148.956 173.92 148.956H138.987C137.696 148.393 127.625 143.647 128.382 133.121C128.429 132.471 128.519 131.791 128.65 131.1C129.371 127.307 131.386 124.587 134.323 123.442C138.042 121.993 145.119 122.231 157.713 131.6C158.005 131.817 158.406 131.813 158.694 131.59C158.983 131.367 159.086 130.979 158.949 130.642C158.628 129.854 150.957 111.356 139.988 110.404C137.299 110.171 134.965 110.903 133.043 112.579C129.285 115.855 127.202 122.541 126.677 133.018C126.676 133.032 126.675 133.078 126.675 133.091C126.675 133.203 126.698 133.308 126.739 133.403C126.143 145.477 138.398 150.472 138.524 150.522C138.618 150.56 138.72 150.579 138.822 150.579H172.271C172.403 150.673 172.564 150.729 172.739 150.729C175.304 150.729 177.909 152.006 179.708 154.145C181.279 156.013 182.956 159.375 182.016 164.77C180.625 172.747 172.988 173.637 163.321 174.764C161.944 174.925 160.522 175.09 159.088 175.282C155.75 175.728 152.647 176.476 149.362 177.268C142.579 178.905 135.564 180.596 126.048 179.561C124.46 179.389 122.781 179.133 121.059 178.8ZM91.5617 168.72V228.603C91.5617 235.22 91.4217 236.404 86.4919 239.415C86.4773 239.425 86.4626 239.434 86.4488 239.444L30.5678 278.657L29.4781 279.421C29.4338 279.447 29.3863 279.475 29.3222 279.507C28.4736 279.964 27.5645 280.208 26.6193 280.231C24.9943 280.27 23.3908 279.634 22.2135 278.484C21.0499 277.349 20.4091 275.816 20.4091 274.166V174.137L34.3149 171.392C34.5004 173.057 35.1339 174.393 36.2167 175.363C37.4886 176.505 39.3336 177.093 41.6059 177.092C42.0791 177.092 42.5714 177.067 43.0799 177.016C46.3161 176.689 49.1197 175.749 51.4342 174.873C52.1639 174.598 52.8705 174.318 53.5552 174.046C55.3892 173.319 57.1217 172.632 58.6404 172.328C63.7837 171.3 66.8559 171.312 69.8275 171.32C70.2009 171.322 70.5706 171.323 70.9403 171.322C72.6903 171.314 74.78 171.266 77.4428 170.781C82.4338 169.867 84.3445 166.585 85.0341 164.748C86.5974 165.445 88.267 166.547 90.3084 167.896C90.711 168.161 91.1315 168.438 91.5617 168.72ZM20.4091 93.6831L33.6388 91.8357L33.8381 117.082C33.7889 117.381 33.7825 117.779 33.7743 118.297C33.7634 119.006 33.7593 120.043 33.7638 121.381C33.7707 123.628 33.7991 126.758 33.8482 130.684C33.9322 137.365 34.0487 144.129 34.0495 144.189L34.1871 161.959L20.4091 159.352V93.6831ZM7.77109 57.4092V38.8987C7.77109 37.0391 8.60388 35.9725 10.056 35.9725C11.5109 35.9725 12.345 37.0391 12.345 38.8987V57.4092H7.77109ZM7.77109 80.2018V59.0326H12.345V80.2018C12.345 82.0614 11.5109 83.1275 10.056 83.1275C8.60388 83.1275 7.77109 82.0614 7.77109 80.2018ZM35.2548 90.8978C35.2171 85.7619 39.7236 84.1754 42.4139 83.6868C45.1217 83.1921 47.5422 83.2493 49.6091 83.4157L50.2995 173.495C50.2999 173.517 50.3048 173.538 50.3064 173.56C48.2017 174.336 45.7187 175.118 42.9172 175.4C41.1826 175.576 38.8011 175.501 37.3003 174.155C36.3689 173.319 35.8892 172.059 35.8758 170.41L35.6729 144.169C35.4984 134.084 35.2926 118.787 35.4277 117.37C35.4505 117.295 35.4626 117.214 35.4618 117.131L35.2548 90.8978ZM70.1745 169.697C70.0605 169.697 69.9476 169.697 69.8332 169.697C66.9229 169.686 63.6258 169.676 58.323 170.737C56.6599 171.068 54.8608 171.782 52.9565 172.537C52.6164 172.672 52.2703 172.809 51.9188 172.947L51.2337 83.5707C51.6319 83.6133 52.0251 83.6572 52.4087 83.701C54.3449 83.921 56.1725 84.1279 57.8579 83.9896C63.1643 83.5537 66.4517 82.6145 69.3523 81.7858L69.4375 81.7615L70.1209 169.421C70.1217 169.518 70.1424 169.61 70.1745 169.697ZM71.0576 81.309C72.795 80.8386 74.5199 80.4449 76.6704 80.2302C82.2285 79.6775 83.1282 85.1925 83.2061 85.7538L83.8096 163.136C83.7987 163.199 83.7759 163.316 83.7374 163.473C83.3802 164.893 82.0235 168.291 77.1505 169.184C75.1408 169.55 73.5146 169.663 71.6932 169.691C71.7252 169.602 71.7451 169.508 71.7443 169.408L71.0576 81.309ZM25.5673 2.26677C26.2731 2.24851 27.0191 2.39542 27.791 2.70062L79.3786 33.628L86.7743 38.0614C91.5617 40.9222 91.5617 45.031 91.5617 47.7505V83.1957C88.2459 84.1024 85.8177 84.7789 84.7431 85.0797C84.2281 82.343 82.0024 78.0732 76.5097 78.6146C73.7715 78.8877 71.7179 79.4279 69.5057 80.0537L68.9058 80.2245C65.9395 81.0723 62.8721 81.949 57.7244 82.3715C56.1984 82.4981 54.5268 82.3077 52.5925 82.0878C51.9225 82.0115 51.2321 81.9331 50.5182 81.865C48.1838 81.6438 45.3608 81.4973 42.123 82.0898C36.9785 83.024 33.9351 85.9603 33.6571 90.1941L20.4091 92.0443V8.63081C20.4091 5.54883 22.3364 2.32602 25.5673 2.26677ZM101.19 53.1288L142.56 65.9084C142.789 65.979 143.037 65.9449 143.238 65.8155C143.44 65.686 143.574 65.4741 143.605 65.2367L149.167 22.2944L177.061 55.4157C177.369 55.7822 177.994 55.7822 178.303 55.4157L206.2 22.2944L211.759 65.2367C211.79 65.4741 211.924 65.686 212.125 65.8155C212.327 65.9449 212.575 65.979 212.804 65.9084L254.17 53.1312L240.573 81.6064C225.376 84.1344 194.444 88.257 192.35 88.5358C191.241 88.4973 179.604 88.0955 176.752 88.0955C175.562 88.0955 174.364 88.2258 173.664 89.1722C173.256 89.7258 173.069 90.4664 173.118 91.5484C171.71 86.9806 170.121 82.315 168.451 78.3142C166.87 74.524 164.222 68.1803 156.371 68.1803C150.154 68.1803 129.393 73.2221 112.755 77.5395L101.19 53.1288ZM256.516 79.4421C259.867 78.4051 262.225 77.6762 264.582 77.7014C263.321 79.8065 260.465 84.7071 258.158 89.6357C258.041 89.703 257.915 89.7793 257.774 89.8735C254.775 91.8731 235.236 97.2318 226.616 99.537C212.5 100.128 198.324 100.767 197.141 100.936C196.066 101.09 194.684 101.783 192.935 102.661C190.973 103.645 188.75 104.761 186.425 105.38C185.997 105.494 185.593 105.614 185.201 105.731C183.323 106.292 181.84 106.733 179.189 105.976C178.05 105.647 177.259 104.345 177.006 103.272C176.944 103.011 176.922 102.79 176.923 102.624C177.425 102.571 178.544 102.708 179.003 102.764L179.439 102.819C181.584 103.087 183.609 103.341 184.633 102.52C186.39 101.115 184.157 96.5232 182.669 93.9108C182.54 93.6848 182.311 93.5342 182.052 93.5058C181.795 93.4778 181.536 93.5752 181.362 93.7676L178.509 96.9173C178.208 97.2493 178.233 97.7631 178.566 98.0638C178.898 98.3645 179.411 98.3398 179.712 98.0074L181.797 95.7055C183.129 98.2663 183.969 100.769 183.619 101.253C183.129 101.646 180.946 101.372 179.641 101.208L179.53 101.194C179.451 101.146 179.365 101.109 179.269 101.09C176.877 100.612 176.073 97.3114 176.066 97.2801C176.062 97.2611 176.057 97.2424 176.051 97.2237C175.254 94.632 174.276 91.0772 174.97 90.1369C175.187 89.8439 175.72 89.7189 176.752 89.7189C179.655 89.7189 192.235 90.1563 192.361 90.1608C192.406 90.1624 192.451 90.16 192.497 90.1539C193.868 89.9717 226.248 85.6628 241.44 83.1077L242.528 82.921C248.74 81.8491 253.051 80.5143 256.516 79.4421ZM266.411 77.8114L270.454 77.5565C268.552 81.8447 263.696 93.7931 266.485 98.1937C267.252 99.4007 268.277 99.6458 268.997 99.6231C274.777 99.5082 285.555 81.4599 287.237 78.5821C287.869 78.2245 290.306 76.9469 294.088 76.1584C292.474 79.925 288.971 89.824 292.383 98.3516C294.945 104.763 298.498 106.123 300.614 106.309C301.557 109.488 302.572 112.864 302.83 113.723C300.013 115.29 297.825 116.974 296.192 118.829C296.118 118.822 296.043 118.822 295.966 118.837C282.433 121.439 264.888 117.907 261.463 117.162C261.45 117.112 261.431 117.062 261.407 117.014C261.401 117.001 261.388 116.979 261.377 116.958C260.754 115.766 255.664 105.771 256.47 99.3321C257.254 93.0533 265.046 80.0512 266.411 77.8114ZM271.505 79.2189C271.528 79.1888 271.555 79.1624 271.574 79.1284C271.864 78.6162 272.152 77.9425 272.431 77.1267L272.489 77.0038C272.524 76.9283 272.542 76.8491 272.551 76.7688C273.134 74.9863 273.549 73.0082 273.745 71.9851C273.994 72.0172 274.246 72.0346 274.5 72.0346C277.489 72.0346 280.784 69.8869 283.351 67.3792C283.24 71.9956 285.116 76.5784 285.728 77.9445C284.98 79.2051 282.356 83.5634 279.265 87.8865C273.014 96.632 270.128 97.9766 268.965 98.0001C268.654 98.005 268.244 97.9352 267.856 97.3236C266.8 95.6576 267.142 91.7899 268.819 86.4327C269.696 83.6324 270.754 80.9851 271.505 79.2189ZM271.437 68.8885C270.034 67.1036 269.482 65.0001 269.794 62.6348C269.999 61.0464 270.538 59.9409 270.543 59.9315C270.698 59.6198 270.637 59.2428 270.392 58.9957C269.79 58.3897 269.291 57.5468 269.366 57.2607C269.375 57.2253 269.477 57.1446 269.712 57.0776C271.705 56.5058 275.203 52.8792 276.726 51.2201C276.916 51.5139 277.098 51.8106 277.276 52.1028C278.254 53.7047 279.261 55.354 281.438 56.1487C280.517 58.0951 280.58 60.7907 281.715 62.3779C282.407 63.3459 283.425 63.8025 284.602 63.7168C284.463 63.7659 284.336 63.8512 284.237 63.9749C283.915 64.382 283.575 64.7838 283.229 65.1681C280.375 68.3195 276.213 71.1113 273.348 70.2485C272.608 70.0245 271.983 69.5788 271.437 68.8885ZM336.864 93.9981C333.218 87.841 326.686 82.3585 317.974 78.1434C308.425 73.5232 300.4 73.4924 295.349 74.2777C291.22 74.9206 288.346 76.1783 287.027 76.8524C286.255 75.0094 284.501 70.2189 285.089 65.9538C285.108 65.8142 285.087 65.6791 285.041 65.5561C285.151 65.4242 285.259 65.2911 285.366 65.158C286.356 67.5192 288.414 69.662 290.81 70.7611C291.747 71.19 292.735 71.3978 293.683 71.3978C295.271 71.3978 296.744 70.8146 297.659 69.7156C298.493 68.7148 298.726 67.4421 298.368 66.0991C300.371 66.9092 302.929 67.6044 304.465 65.9035C306.106 64.0862 305.131 61.0391 303.822 59.0671C305.744 58.8532 307.978 58.3625 308.63 56.037C309.525 52.8309 307.875 51.1495 306.418 49.6653C306.239 49.4823 306.056 49.2972 305.879 49.1081C307.787 48.6365 309.896 47.6251 310.952 45.9315C311.683 44.759 311.806 43.3954 311.308 41.9879C309.789 37.7047 304.987 36.8159 300.382 37.4713C301.127 36.2059 301.584 34.7221 301.262 33.3159C301.043 32.3564 300.357 31.0529 298.336 30.2939C293.991 28.6612 289.19 30.8069 286.005 32.8199C286.235 30.5354 285.846 28.8889 284.842 27.9133C283.895 26.9912 282.488 26.7465 280.663 27.184C274.921 28.5573 271.053 35.5103 271.142 41.0159C268.46 40.2477 265.393 40.882 263.713 44.0646C262.308 46.7245 262.48 50.4969 265.191 53.0378C263.595 53.5119 261.809 54.5358 261.448 57.0841C261.169 59.0395 261.741 60.7753 263.06 61.9713C264.343 63.1349 266.215 63.6665 268.099 63.4388C268.027 65.287 268.405 67.6576 270.162 69.893C270.74 70.6243 271.416 71.1714 272.178 71.531C272.016 72.3922 271.646 74.2059 271.128 75.8877L266.017 76.2095C265.947 76.1799 265.872 76.1564 265.793 76.1478C262.734 75.8183 259.924 76.6876 256.036 77.8913C252.67 78.9335 248.489 80.2258 242.532 81.2712L256.434 52.1588C256.573 51.8678 256.526 51.522 256.316 51.2781C256.105 51.0338 255.769 50.9392 255.462 51.033L213.245 64.0728L207.574 20.2554C207.532 19.9364 207.306 19.6718 206.998 19.5809C206.689 19.4904 206.355 19.5906 206.148 19.837L177.682 53.6332L149.22 19.837C149.013 19.5906 148.679 19.4904 148.371 19.5809C148.062 19.6718 147.836 19.936 147.794 20.2554L142.118 64.0728L99.9062 51.033C99.5998 50.94 99.2642 51.0342 99.0531 51.2773C98.8425 51.5208 98.795 51.8654 98.933 52.1564L111.156 77.9555C104.15 79.783 97.6948 81.5232 93.1851 82.7525V47.7505C93.1851 44.852 93.185 40.0009 87.6079 36.6685L28.5702 1.27489C28.5341 1.25338 28.4967 1.23471 28.4574 1.21888C27.5406 0.847126 26.638 0.664495 25.767 0.651914C24.8295 0.390144 20.4939 0.621473 13.4716 1.30938C9.1112 1.73552 5.76418 3.35443 3.52392 6.12026C0.0535493 10.4043 0.482944 15.9052 0.543009 16.518C0.545038 20.8175 0.640408 255.123 0.640408 266.886C0.640408 281.725 10.6372 282.153 11.7768 282.153C14.75 282.153 23.6534 281.932 26.5791 281.859L27.4683 281.837C27.6059 281.833 27.7325 281.792 27.8445 281.729C28.6205 281.587 29.3685 281.326 30.0702 280.948C30.1603 280.903 30.2455 280.854 30.3307 280.803C30.3494 280.792 30.3669 280.78 30.3843 280.768L87.3604 240.787C92.9707 237.355 93.1851 235.572 93.1851 228.603V169.766C99.3332 173.645 107.483 177.813 120.75 180.394C122.217 180.677 123.651 180.903 125.03 181.074L121.069 206.13C121.018 206.448 121.161 206.766 121.431 206.94C121.702 207.113 122.05 207.111 122.319 206.933L159.153 182.526L176.939 222.971C177.069 223.266 177.36 223.456 177.682 223.456C178.004 223.456 178.295 223.266 178.425 222.972L196.215 182.526L233.049 206.933C233.318 207.111 233.666 207.114 233.936 206.94C234.207 206.766 234.349 206.448 234.299 206.13L227.554 163.472C230.011 164.879 232.451 166.234 234.823 167.547L234.874 167.576C244.01 172.635 251.9 177.004 253.758 180.727C259.003 191.217 262.102 199.588 261.652 202.054C261.463 203.096 261.106 203.946 260.762 204.768C260.07 206.417 259.417 207.975 260.544 210.232C261.342 211.826 263.099 212.837 265.005 212.837C265.148 212.837 265.293 212.832 265.439 212.82C267.2 212.678 268.682 211.715 269.619 210.169C269.666 211.445 269.712 212.813 269.755 214.219H212.304C211.96 214.219 211.653 214.436 211.539 214.761L187.196 283.8C187.109 284.048 187.147 284.324 187.299 284.538C187.452 284.753 187.699 284.881 187.962 284.881H331.793C332.076 284.881 332.338 284.734 332.486 284.493C332.633 284.251 332.644 283.951 332.515 283.699L297.109 214.66C297.04 214.525 296.936 214.42 296.816 214.345C297.021 213.117 297.24 211.777 297.477 210.292C298.581 203.355 298.185 196.059 297.836 189.621C297.519 183.775 297.245 178.725 298.058 174.93C298.656 172.143 300.068 169.069 301.562 165.816C304.473 159.481 307.753 152.314 307.53 143.181C310.792 142.502 315.694 140.314 317.015 137.914C317.526 136.985 317.39 136.242 317.186 135.781C317.056 135.488 316.763 135.054 316.161 134.814C316.266 133.47 316.202 131.267 314.821 130.516C314.837 130.479 314.859 130.447 314.869 130.408C315.049 129.692 314.974 129.06 314.645 128.529C314.337 128.029 313.828 127.656 313.106 127.398C313.103 127.384 313.103 127.371 313.1 127.358C313.073 127.251 312.883 126.553 312.389 125.89C314.342 125.436 316.176 124.971 317.841 124.501L318.502 124.315C329.77 121.139 335.977 119.39 339.036 111.016C340.982 105.693 340.211 99.6495 336.864 93.9981Z" fill="#700051"/>
<path d="M65.7899 36.2306C65.938 36.2306 66.087 36.2172 66.2359 36.1896C67.1174 36.0289 67.882 35.3889 68.3341 34.4327C69.1637 32.688 68.7871 30.3228 67.4746 29.0456C66.7923 28.3869 65.9571 28.1064 65.1219 28.2594C64.2408 28.4206 63.4758 29.061 63.0245 30.0155C62.1921 31.7631 62.5691 34.1296 63.8832 35.4039C64.4441 35.9457 65.1081 36.2306 65.7899 36.2306Z" fill="#700051"/>
</svg>
