<svg width="328" height="303" viewBox="0 0 328 303" fill="none" xmlns="http://www.w3.org/2000/svg">
<path d="M110.168 52.8432C110.159 52.8558 110.147 52.8663 110.137 52.8785C110.129 52.8879 110.124 52.8984 110.116 52.9073C109.074 54.0599 106.866 55.885 105.367 57.0835C108.958 57.327 111.905 58.827 114.14 61.5668C114.353 61.1679 114.671 60.5851 115.062 59.8996C118.069 54.6626 119.306 53.9873 119.713 53.7653C120.311 53.439 121.116 53.1975 122.047 52.9183C124.254 52.2556 127.002 51.4309 127.425 49.2081C127.917 46.6176 126.098 44.7941 124.253 43.3517C124.104 43.2357 123.961 43.1265 123.825 43.0238C123.705 42.9325 123.591 42.8457 123.486 42.7637C122.357 41.8879 122.335 40.9199 122.311 39.8956C122.3 39.4199 122.287 38.881 122.172 38.2324C122.073 37.6521 121.9 37.062 121.645 36.4224C120.391 33.2884 117.378 32.1289 117.348 32.1176C117.33 32.1107 117.314 32.1001 117.297 32.0924C115.198 33.0855 113.943 34.8818 113.551 37.4508C113.219 39.6301 113.652 41.5697 113.657 41.5888C113.744 41.9707 113.546 42.3607 113.186 42.5157C112.826 42.6707 112.408 42.5465 112.19 42.2207C110.703 39.9909 108.853 39.275 107.239 40.3047C105.688 41.2949 104.829 43.6955 106.143 45.8485C106.812 46.9414 107.618 47.5624 108.608 47.747C110.594 48.118 112.693 46.5819 112.888 46.4353C112.902 46.424 112.917 46.4126 112.933 46.4025C113.237 46.1918 113.656 46.2093 113.941 46.4682C114.259 46.758 114.297 47.2405 114.032 47.5725L110.168 52.8432Z" fill="#D8365C"/>
<path d="M180.498 79.2637C182.564 72.5514 186.022 61.3168 181.918 54.9958C180.193 52.3379 177.196 50.7336 173.011 50.2267C168.053 49.6269 159.852 52.8578 149.292 59.5729C141.276 64.6711 131.793 71.9106 123.925 78.9382C122.627 80.0985 121.442 81.1914 120.39 82.1967C120.443 82.5384 120.496 82.8769 120.549 83.2068C121.187 87.1342 121.715 91.3111 122.145 94.7491C122.196 94.8132 122.242 94.8834 122.272 94.9646C122.353 95.176 122.338 95.4 122.251 95.5908C122.977 101.348 123.729 107.185 124.629 108.642C124.658 108.626 124.683 108.605 124.713 108.592C126.344 107.767 128.036 106.812 129.742 105.753C143.099 97.4508 154.287 84.4479 159.782 77.4146C162.13 73.6598 164.276 71.2969 164.337 71.2308C164.338 71.23 164.338 71.2296 164.339 71.2288C164.356 71.2097 164.378 71.1874 164.397 71.1703C164.41 71.1581 164.426 71.1496 164.439 71.1387C164.455 71.1261 164.471 71.1143 164.487 71.103C164.513 71.0855 164.54 71.0689 164.567 71.0547L165.277 69.9873C165.277 69.9873 168.905 72.4698 163.367 90.6135C161.09 98.0725 154.909 111.572 153.33 114.977C156.67 115.517 158.631 115.782 159.143 115.801C162.297 115.925 164.967 116.731 166.906 118.124C166.984 118.145 167.062 118.174 167.134 118.219C167.134 118.219 167.166 118.24 167.223 118.276C167.436 117.624 167.679 116.89 167.948 116.084C169.423 111.687 171.671 105.164 173.845 98.8562C176.85 90.1379 179.688 81.9025 180.498 79.2637Z" fill="#FE874F"/>
<path d="M167.445 133.656C167.405 133.596 167.367 133.532 167.343 133.46L166.21 130.061C165.72 130.499 165.209 130.905 164.696 131.274C164.69 131.297 164.688 131.32 164.681 131.343L164.536 131.784C165.076 131.827 165.674 132.012 166.291 132.453C166.79 132.809 167.149 133.213 167.445 133.656Z" fill="#D8365C"/>
<path d="M107.773 122.198C114.295 128.32 133.519 126.747 142.758 125.991C145.076 125.801 146.907 125.647 147.935 125.663C148.123 125.668 148.272 125.676 148.399 125.685C151.022 125.925 153.5 125.916 155.782 125.66C158.224 125.389 160.422 124.827 162.313 123.987C163.345 123.528 164.38 123.195 164.953 123.861C165.328 124.297 165.283 124.887 164.818 125.613C164.084 126.759 161.037 129.807 159.594 129.394C159.237 129.291 158.802 129.103 158.342 128.904C157.589 128.579 156.553 128.128 156.046 128.183C155.989 128.189 155.968 128.198 155.968 128.198C155.946 128.303 156.016 128.675 156.381 129.202C157.153 130.312 158.82 131.511 160.17 131.511C160.965 131.511 162.122 131.048 163.343 130.241C164.162 129.696 164.993 129.015 165.744 128.272C166.628 127.404 167.39 126.461 167.952 125.543C167.99 125.483 168.017 125.427 168.046 125.37C168.066 125.305 168.096 125.245 168.133 125.186C168.799 123.689 168.465 121.357 166.172 119.589C164.484 118.288 162.032 117.539 159.08 117.423C158.028 117.383 153.644 116.689 149.893 116.053C140.891 114.52 128.994 112.214 125.09 110.762C124.296 110.468 123.825 110.209 123.564 109.923C122.351 108.585 121.696 104.123 120.719 96.4134L100.879 103.756C102.145 110.466 103.679 115.571 105.439 118.926C106.18 120.338 106.965 121.439 107.773 122.198Z" fill="#D8365C"/>
<path d="M159.957 127.807C160.522 127.669 161.94 126.494 162.831 125.533C161.355 126.173 159.72 126.658 157.948 126.983C158.3 127.118 158.65 127.269 158.985 127.414C159.355 127.573 159.705 127.725 159.957 127.807Z" fill="#D8365C"/>
<path d="M311.507 273.114C311.638 270.113 311.145 267.425 310.584 265.13C310.514 265.15 310.441 265.163 310.365 265.163H205.41C204.859 267.439 204.366 270.114 204.5 273.114C204.627 276.006 205.735 280.857 211.725 280.857H242.265C242.351 280.857 242.435 280.871 242.513 280.896C244.073 281.069 262.173 281.117 274.14 281.121L304.275 280.857C305.004 280.857 305.675 280.788 306.276 280.65C310.579 279.692 311.4 275.518 311.507 273.114Z" fill="#FF4238"/>
<path d="M308.614 256.437C308.251 250.712 308.802 247.155 309.288 244.016C309.304 243.919 309.318 243.824 309.333 243.727H206.673C206.689 243.824 206.703 243.921 206.718 244.019C207.204 247.157 207.756 250.713 207.393 256.436C207.277 258.243 206.739 260.198 206.171 262.268C206.057 262.683 205.941 263.109 205.825 263.54H310.175C310.061 263.114 309.947 262.693 309.835 262.282C309.266 260.206 308.729 258.246 308.614 256.437Z" fill="#D8365C"/>
<path d="M212.718 229.102C210.342 229.684 206.318 231.364 206.107 236.08C206.007 238.292 206.152 240.082 206.432 242.103H309.574C309.855 240.081 310 238.29 309.9 236.081C309.621 229.942 304.973 228.979 304.406 228.885C304.249 228.902 304.085 228.908 303.927 228.913C303.174 228.926 301.722 228.938 299.709 228.95H299.708C281.443 229.033 215.995 228.89 213.861 228.885C213.737 228.901 213.31 228.96 212.718 229.102Z" fill="#FF4238"/>
<path d="M240.1 155.036C241.315 153.608 242.594 151.717 243.907 149.417C243.87 149.324 243.848 149.223 243.848 149.116V92.3136L186.707 151.697C187.463 151.9 188.198 152.078 188.907 152.248C190.216 152.562 191.452 152.858 192.576 153.269C195.015 154.154 196.732 155.4 197.68 156.973C198.73 158.713 198.732 160.775 197.685 162.629C197.179 163.525 196.481 164.293 195.662 164.9C196.318 164.906 196.971 164.913 197.615 164.92C227.434 165.238 233.15 163.221 240.1 155.036Z" fill="#F7F7F7"/>
<path d="M117.139 28.6854C117.219 28.6594 117.302 28.6415 117.39 28.6415H193.939C193.819 28.6107 193.698 28.5803 193.581 28.5486C204.702 28.8907 234.668 28.5437 238.615 28.4958C242.125 28.4958 246.734 31.3173 247.496 31.8729C252.892 35.8092 256.476 43.2592 258.755 50.0303C256.286 49.9398 252.151 51.8944 248.047 53.9682C247.234 54.3798 246.465 54.7682 246.238 54.8436C245.812 54.9849 245.582 55.4443 245.723 55.87C245.837 56.2105 246.154 56.426 246.494 56.426C246.579 56.426 246.665 56.4126 246.75 56.3846C247.075 56.2763 247.67 55.9784 248.78 55.4171C250.995 54.2982 257.7 50.9094 259.2 51.7373C259.229 51.758 259.258 51.7775 259.284 51.7925C259.3 51.8043 259.317 51.8116 259.333 51.8217C259.623 52.7564 259.889 53.6712 260.13 54.5523C261.879 60.9479 262.857 67.2535 263.305 72.5624C258.889 72.3656 248.178 78.6395 245.934 79.9869C245.55 80.2174 245.425 80.7162 245.656 81.1005C245.808 81.3542 246.077 81.4946 246.353 81.4946C246.495 81.4946 246.639 81.4573 246.769 81.3789C256.326 75.6427 261.886 73.9646 263.429 74.1943C263.605 76.825 263.647 79.1651 263.587 81.0867C263.47 84.8242 262.536 90.6651 260.885 97.9788C260.787 98.4159 261.061 98.8505 261.498 98.9492C261.558 98.963 261.618 98.969 261.678 98.969C262.049 98.969 262.384 98.713 262.469 98.3363C264.142 90.9236 265.09 84.9763 265.209 81.1375C265.618 68.0624 261.123 39.8039 248.452 30.5612C248.401 30.5243 243.037 26.8725 238.605 26.8725C225.927 27.0259 192.482 27.295 190.007 26.7036C189.149 26.4983 188.437 26.2418 187.84 25.9683C186.386 24.9435 185.189 23.7012 184.281 22.2702C184.212 22.2889 184.142 22.3023 184.067 22.3023H104.54C104.539 22.8047 104.511 23.2726 104.468 23.6915C110.922 22.7901 115.083 26.2633 117.139 28.6854Z" fill="#D8365C"/>
<path d="M161.794 164.782C161.968 164.782 162.128 164.838 162.26 164.931C172.844 164.848 182.261 164.825 190.282 164.863C190.426 164.774 190.597 164.727 190.78 164.74C192.955 164.942 195.206 163.717 196.271 161.831C196.646 161.166 197.124 159.938 196.639 158.556C193.434 159.634 188.341 160.164 182.127 160.164C173.701 160.164 163.222 159.193 152.614 157.301C141.428 155.306 138.224 155.107 137.319 155.135C136.282 159.863 136.179 163.607 136.418 164.782H161.794Z" fill="#D8365C"/>
<path d="M178.264 121.378C176.501 119.321 170.596 117.457 169.269 117.254C169.022 117.999 168.801 118.67 168.609 119.261C169.226 119.732 169.991 120.366 170.745 121.118C170.857 121.091 170.976 121.085 171.097 121.109L174.628 121.815C174.875 121.864 175.086 122.027 175.198 122.254C175.309 122.481 175.308 122.747 175.195 122.974L173.738 125.89C174.192 127.914 173.574 130.087 172.994 131.517C174.399 130.278 177.332 126.409 178.229 123.348C178.508 122.396 178.521 121.677 178.264 121.378Z" fill="#D8365C"/>
<path d="M172.382 123.021C172.586 123.308 172.766 123.594 172.929 123.878L173.268 123.199L172.382 123.021Z" fill="#D8365C"/>
<path d="M169.254 131.989C169.138 132.455 169.079 132.867 169.079 133.212C169.066 133.92 169.253 134.096 169.381 134.145C169.639 133.997 170.261 133.376 170.943 132.089C171.854 130.378 172.636 127.884 172.101 126.012C171.799 124.958 171.08 123.826 169.969 122.648C170.157 123.639 170.09 124.639 169.734 125.567C170.752 127.505 170.025 129.649 169.533 131.1C169.416 131.446 169.314 131.746 169.254 131.989Z" fill="#D8365C"/>
<path d="M154.569 127.398C152.69 127.528 150.701 127.502 148.642 127.33C147.999 130.163 147.412 132.344 147.037 133.659L162.059 134.138L162.063 134.125C161.969 134.086 161.881 134.028 161.805 133.952C161.499 133.647 161.491 133.161 161.773 132.843C161.242 133.02 160.697 133.134 160.171 133.134C158.178 133.134 156.085 131.621 155.048 130.127C154.403 129.198 154.202 128.332 154.467 127.623C154.497 127.544 154.531 127.469 154.569 127.398Z" fill="#D8365C"/>
<path d="M129.939 107.532C128.764 108.244 127.599 108.909 126.457 109.514C130.772 110.889 141.108 112.894 149.362 114.315C149.434 113.926 149.539 113.42 149.684 112.762C147.714 112.345 134.79 109.612 133.02 109.29C131.391 108.994 130.391 108.062 129.939 107.532Z" fill="#D8365C"/>
<path d="M124.483 41.4824C124.585 41.562 124.693 41.6444 124.808 41.7312C124.856 41.7682 124.91 41.8104 124.96 41.8485C125.544 41.439 126.026 40.9244 126.156 40.6371C125.964 40.5811 125.658 40.5291 125.436 40.4914C125.006 40.4179 124.46 40.323 123.942 40.1172C123.966 40.8741 124.032 41.1322 124.483 41.4824Z" fill="#D8365C"/>
<path d="M42.5584 253.506C43.2986 251.829 44.09 250.039 44.9329 248.132C48.8851 235.979 60.5385 200.469 62.9086 196.993C65.7735 192.791 75.7049 166.435 82.3891 152.493C88.1598 140.457 95.0644 131.985 96.9687 129.523C98.3514 126.342 100.45 123.475 102.196 121.092C102.733 120.359 103.239 119.668 103.665 119.047C103.668 119.043 103.672 119.039 103.676 119.034C102.002 115.598 100.545 110.655 99.3363 104.327L94.6123 106.075C94.521 106.109 94.4256 106.126 94.3307 106.126C94.1655 106.126 94.0011 106.075 93.8623 105.977C93.6436 105.823 93.5153 105.57 93.519 105.303L93.6387 96.495C86.5636 98.6602 80.2706 100.006 80.2053 100.02C79.2592 100.186 78.3611 100.416 77.5072 100.708C67.2665 104.207 63.2166 116.476 62.8408 126.792C62.745 129.437 62.9545 131.553 63.157 133.6C63.5807 137.877 63.9472 141.571 61.4666 148.227C58.7921 155.409 57.3169 161.692 56.4394 165.792C55.9699 167.986 55.5786 170.013 55.2008 171.973C54.088 177.739 53.2093 182.292 51.3493 185.609C50.6898 186.786 49.8989 188.071 48.9829 189.558C44.4776 196.876 37.6692 207.936 34.8437 225.407C34.3368 228.546 32.6347 233.81 30.8335 239.383C29.0929 244.769 27.2982 250.326 26.7795 253.499H42.4959C42.5174 253.499 42.5373 253.504 42.5584 253.506Z" fill="#FE874F"/>
<path d="M18.9855 91.5799C21.5655 91.5799 23.6649 93.6789 23.6649 96.2589C23.6649 98.8392 21.5655 100.939 18.9855 100.939C16.4056 100.939 14.3062 98.8392 14.3062 96.2589C14.3062 93.6789 16.4056 91.5799 18.9855 91.5799ZM94.8244 48.1639C91.7469 45.2207 90.3345 40.7244 91.0135 36.2106C90.9271 36.2126 90.839 36.2195 90.7538 36.2195C87.9664 36.2199 85.6909 34.9707 84.1174 32.5588C83.6324 31.812 83.2278 31.0426 82.9019 30.265H20.1219C15.0375 30.265 10.9011 34.4013 10.9011 39.4857V123.905H11.1081L94.8244 48.1639Z" fill="#F7F7F7"/>
<path d="M20.1216 28.6415H82.3379C81.7689 26.5567 81.7474 24.4001 82.2762 22.3022H65.9175C66.2036 23.1959 66.3513 24.2166 66.3513 25.3583C66.3513 25.8067 65.9881 26.1699 65.5396 26.1699H31.9321C31.538 26.1699 31.2007 25.8871 31.1326 25.4991C31.1188 25.4224 30.8684 23.9268 31.4183 22.3022H23.7137C23.648 22.3087 19.0867 22.2503 15.4735 25.7917C13.6979 27.5315 12.439 29.8355 11.6963 32.6691C13.6861 30.2142 16.7231 28.6415 20.1216 28.6415Z" fill="#D8365C"/>
<path d="M68.7264 298.134C69.2682 297.458 70.0755 296.241 70.1412 294.941C66.9866 296 62.461 296.439 57.2467 296.439C47.9955 296.44 36.5852 295.062 26.8425 293.324C16.03 291.4 12.6733 291.149 11.6432 291.157C10.6258 296.254 10.6919 300.228 10.9708 301.284H63.819C64.9639 301.284 67.1656 300.079 68.7264 298.134Z" fill="#D8365C"/>
<path d="M41.8445 255.123H26.5036C25.5076 260.419 23.3214 265.49 21.519 269.2L36.0097 268.616C36.4524 267.445 37.7921 264.308 41.8445 255.123Z" fill="#D8365C"/>
<path d="M304.275 280.857L274.14 281.121C262.174 281.117 244.073 281.069 242.513 280.896C242.435 280.871 242.352 280.857 242.265 280.857H211.725C205.735 280.857 204.628 276.006 204.501 273.114C204.366 270.114 204.859 267.438 205.411 265.163H310.366C310.442 265.163 310.514 265.15 310.584 265.13C311.145 267.425 311.638 270.113 311.507 273.114C311.401 275.518 310.58 279.692 306.277 280.65C305.675 280.788 305.004 280.857 304.275 280.857ZM45.3358 270.633C47.7413 267.949 52.3017 263.181 55.1552 263.181C55.3858 263.181 55.6057 263.212 55.8123 263.279C56.4673 263.488 57.253 263.865 57.2745 264.474C57.3135 265.579 55.2952 267.586 52.2291 268.812C51.7084 269.02 51.0692 269.24 50.3306 269.468C48.2222 269.851 46.5148 270.277 45.3358 270.633ZM56.3797 272.645C57.9284 273.055 58.8533 273.666 58.7936 274.24C58.7007 275.134 56.7875 276.425 54.9576 276.52C52.9215 276.627 47.9612 274.298 44.7405 272.617L45.2482 272.5C48.3646 272.043 52.8127 271.701 56.3797 272.645ZM210.695 301.284H67.7701C68.5732 300.689 69.3423 299.961 69.9929 299.149C71.4401 297.345 72.0327 295.432 71.6613 293.761C71.2267 291.813 69.5907 290.311 66.7997 289.295C65.6784 288.887 64.4466 288.592 63.1422 288.278C58.5416 287.175 52.8959 285.816 46.8707 278.427C50.193 281.067 54.8314 284.158 58.8111 284.379C58.8265 284.38 58.8419 284.38 58.8569 284.38C59.2847 284.38 59.6426 284.045 59.6666 283.613C59.6917 283.165 59.3488 282.783 58.9012 282.758C55.4454 282.566 50.6443 279.749 44.6333 274.394C47.6646 275.953 52.3683 278.146 54.8411 278.146C54.9097 278.146 54.9771 278.144 55.0428 278.141C57.4052 278.018 60.2019 276.396 60.4081 274.408C60.5181 273.354 59.9803 271.919 56.7953 271.075C55.8789 270.833 54.913 270.67 53.93 270.567C57.055 270.192 60.945 270.009 63.9726 270.794C64.4093 270.908 64.85 270.647 64.962 270.213C65.0745 269.779 64.8143 269.336 64.3805 269.223C61.7733 268.546 58.6199 268.532 55.7851 268.753C57.5806 267.531 58.9519 265.975 58.8971 264.416C58.8663 263.56 58.3927 262.4 56.307 261.732C54.3683 261.112 51.1268 261.562 43.1788 270.622C42.9288 270.907 42.7181 271.147 42.557 271.324C42.5448 271.327 42.5319 271.33 42.5201 271.332C42.0051 270.16 41.553 269.22 40.5176 268.48C39.6613 267.868 38.816 267.732 38.0777 267.832C39.4028 264.674 42.3127 258.082 43.7384 254.854C45.4093 251.067 47.3671 246.643 49.5619 241.685C55.32 228.674 62.4864 212.482 70.4641 194.259C71.7145 191.401 73.4677 188.152 75.4982 184.389C78.0456 179.667 81.2035 173.813 84.6288 166.405H133.179C126.284 168.634 118.749 173.845 119.447 183.836C120.15 193.896 131.106 195.055 140.771 196.078C144.623 196.485 148.261 196.871 151.256 197.736C167.297 202.375 189.876 209.436 192.876 210.375C194 212.618 200.675 225.199 210.281 228.204C207.8 229.249 204.689 231.46 204.486 236.007C204.356 238.896 204.648 241.173 204.932 243.079C204.991 243.474 205.053 243.869 205.114 244.268C205.611 247.473 206.125 250.787 205.773 256.333C205.668 257.973 205.175 259.764 204.606 261.838C204.404 262.575 204.194 263.337 203.994 264.124C203.355 266.644 202.722 269.692 202.879 273.186C203.124 278.784 206.037 282.114 210.905 282.448L210.695 301.284ZM10.971 301.284C10.6922 300.228 10.626 296.254 11.6435 291.157C12.6739 291.149 16.0302 291.4 26.8427 293.324C36.5854 295.061 47.9957 296.44 57.2469 296.439C62.4612 296.439 66.9872 295.999 70.1414 294.941C70.0761 296.241 69.2689 297.458 68.7267 298.133C67.1662 300.079 64.9645 301.284 63.8196 301.284H10.971ZM14.0489 283.23C16.9215 276.6 19.8216 272.073 20.6293 270.861L36.6362 270.215C36.8407 270.207 37.0241 270.123 37.1621 269.992C37.1658 269.988 37.1698 269.986 37.1735 269.982C37.2888 269.871 38.337 268.916 39.5728 269.801C40.3099 270.327 40.6183 271.033 41.1293 272.202C41.3517 272.71 41.6094 273.299 41.9474 273.97H38.2271C37.779 273.97 37.4154 274.334 37.4154 274.782C37.4154 275.23 37.779 275.594 38.2271 275.594H42.8456C43.2263 276.227 43.6629 276.886 44.1536 277.561C44.2587 277.706 44.3638 277.843 44.4694 277.984H40.7108C40.2628 277.984 39.8991 278.347 39.8991 278.796C39.8991 279.244 40.2628 279.607 40.7108 279.607H45.7421C46.462 280.479 47.1788 281.273 47.891 281.994H43.7668C43.3188 281.994 42.9551 282.357 42.9551 282.805C42.9551 283.253 43.3188 283.617 43.7668 283.617H49.3066C49.3987 283.617 49.486 283.598 49.5684 283.57C54.5063 287.872 59.1293 288.985 62.7636 289.857C64.0217 290.159 65.2096 290.444 66.2449 290.821C68.0497 291.477 69.2258 292.329 69.7782 293.353C62.8768 295.754 46.139 295.115 27.1272 291.726C17.5509 290.022 13.6621 289.59 11.9921 289.542C12.5311 287.26 13.221 285.14 14.0489 283.23ZM26.5043 255.123H41.8452C37.7928 264.308 36.4531 267.445 36.0103 268.616L21.5197 269.2C23.322 265.489 25.5079 260.419 26.5043 255.123ZM30.8338 239.383C32.6354 233.809 34.3371 228.546 34.844 225.406C37.6694 207.935 44.4779 196.876 48.9836 189.558C49.8995 188.07 50.6901 186.786 51.3496 185.609C53.2096 182.292 54.0883 177.738 55.2011 171.973C55.5793 170.013 55.9706 167.986 56.4397 165.792C57.3172 161.691 58.7928 155.409 61.4673 148.227C63.9474 141.571 63.5814 137.877 63.1577 133.599C62.9552 131.553 62.7453 129.437 62.8411 126.792C63.2169 116.476 67.2672 104.207 77.5075 100.708C78.3618 100.416 79.2599 100.186 80.2059 100.02C80.2709 100.006 86.5639 98.6598 93.639 96.495L93.5193 105.303C93.5156 105.57 93.6443 105.822 93.863 105.977C94.0018 106.075 94.1658 106.125 94.3309 106.125C94.4263 106.125 94.5213 106.109 94.613 106.075L99.3366 104.327C100.545 110.655 102.003 115.598 103.676 119.034C103.673 119.039 103.669 119.042 103.665 119.047C103.24 119.668 102.733 120.359 102.197 121.091C100.45 123.475 98.3521 126.342 96.9693 129.523C95.0647 131.985 88.1601 140.457 82.3898 152.493C75.7052 166.435 65.7741 192.79 62.9093 196.992C60.5388 200.469 48.8853 235.978 44.9336 248.132C44.0903 250.038 43.2993 251.829 42.5586 253.505C42.5379 253.504 42.5177 253.499 42.4966 253.499H26.7802C27.2985 250.325 29.0932 244.768 30.8338 239.383ZM20.1224 164.782C15.038 164.782 10.9016 160.646 10.9016 155.561V39.4857C10.9016 34.4013 15.038 30.2649 20.1224 30.2649H82.9024C83.2283 31.0425 83.6325 31.812 84.1179 32.5587C85.6914 34.9707 87.9669 36.2199 90.7542 36.2195C90.8395 36.2195 90.9276 36.2126 91.014 36.2105C90.335 40.7243 91.7473 45.2207 94.8249 48.1643C94.8366 48.1756 94.8472 48.1882 94.8594 48.1992C95.2344 48.5551 95.5972 48.8607 95.9669 49.1314C100.656 52.6022 104.829 53.3067 107.315 53.3461C105.41 55.0271 102.892 56.965 102.858 56.9914C102.808 57.0295 102.765 57.0738 102.727 57.1204C101.674 57.213 100.573 57.3903 99.4401 57.661C89.0432 60.122 86.1483 73.0039 83.8224 83.3542C83.2693 85.814 82.7474 88.1375 82.1678 90.1273C80.7198 95.1026 76.6759 99.2304 76.6357 99.2714C76.6223 99.2852 76.6126 99.3006 76.6004 99.3148C65.8659 103.247 61.6098 116.005 61.2185 126.733C61.1187 129.488 61.3342 131.659 61.542 133.76C61.9458 137.836 62.2948 141.357 59.9462 147.66C57.3756 154.563 55.9004 160.633 54.9969 164.782H20.1224ZM15.4742 25.7917C19.0875 22.2503 23.6487 22.3092 23.7141 22.3023H31.4186C30.8687 23.9268 31.1195 25.4224 31.1333 25.4991C31.2011 25.8871 31.5388 26.1699 31.9324 26.1699H65.5404C65.9884 26.1699 66.3521 25.8067 66.3521 25.3583C66.3521 24.2166 66.2043 23.1959 65.9182 22.3023H82.2766C81.7477 24.4001 81.7697 26.5567 82.3383 28.6415H20.1224C16.7234 28.6415 13.6865 30.2142 11.6966 32.6691C12.4393 29.8355 13.6987 27.5316 15.4742 25.7917ZM33.3261 22.0182C34.1792 20.5993 35.8683 19.8794 38.3448 19.8794L60.7023 19.879C60.792 19.8717 62.8858 19.84 64.0022 21.9082C64.0022 21.909 64.0026 21.9094 64.003 21.9102C64.3882 22.62 64.6215 23.5044 64.6995 24.5466H32.6885C32.6873 23.9057 32.7904 22.9102 33.3261 22.0182ZM104.54 22.3023H184.067C184.142 22.3023 184.212 22.2889 184.281 22.2702C185.189 23.7012 186.387 24.9435 187.84 25.9682C188.438 26.2414 189.149 26.4983 190.007 26.7036C192.482 27.295 225.928 27.0259 238.605 26.8725C243.037 26.8725 248.402 30.5243 248.452 30.5612C261.123 39.8039 265.619 68.0624 265.21 81.1375C265.09 84.9763 264.142 90.9236 262.469 98.3363C262.384 98.713 262.049 98.969 261.678 98.969C261.619 98.969 261.559 98.9629 261.499 98.9492C261.061 98.8505 260.787 98.4159 260.885 97.9788C262.536 90.6651 263.471 84.8242 263.587 81.0867C263.647 79.1651 263.605 76.825 263.429 74.1939C261.886 73.9646 256.326 75.6427 246.77 81.3785C246.639 81.4573 246.495 81.4946 246.353 81.4946C246.077 81.4946 245.808 81.3542 245.656 81.1005C245.425 80.7162 245.55 80.2174 245.934 79.9869C248.178 78.6395 258.889 72.3656 263.305 72.5624C262.857 67.2531 261.88 60.9479 260.13 54.5522C259.889 53.6712 259.624 52.7564 259.333 51.8217C259.318 51.8112 259.3 51.8039 259.285 51.7925C259.258 51.7775 259.229 51.758 259.201 51.7373C257.7 50.9094 250.995 54.2982 248.78 55.4171C247.67 55.978 247.076 56.2763 246.75 56.3842C246.665 56.4126 246.579 56.426 246.494 56.426C246.154 56.426 245.837 56.2105 245.723 55.87C245.583 55.4443 245.813 54.9849 246.238 54.8436C246.465 54.7682 247.234 54.3798 248.048 53.9682C252.152 51.8944 256.286 49.9398 258.755 50.0303C256.476 43.2592 252.893 35.8092 247.496 31.8729C246.734 31.3173 242.126 28.4958 238.615 28.4958C234.668 28.5437 204.702 28.8907 193.581 28.5486C193.698 28.5803 193.819 28.6107 193.939 28.6415H117.391C117.303 28.6415 117.219 28.659 117.139 28.6854C115.083 26.2633 110.923 22.7897 104.468 23.6915C104.511 23.2726 104.539 22.8047 104.54 22.3023ZM245.471 146.502V108.54C246.378 108.057 256.315 102.795 260.769 101.536C256.006 121.908 249.84 137.88 245.471 146.502ZM197.685 162.629C198.732 160.774 198.73 158.713 197.68 156.973C196.733 155.4 195.015 154.154 192.576 153.269C191.452 152.858 190.216 152.562 188.908 152.248C188.198 152.078 187.464 151.9 186.708 151.696C186.646 151.68 186.587 151.666 186.525 151.649C182.061 150.428 176.754 148.157 171.243 140.581C171.095 140.376 170.95 140.169 170.808 139.962C170.829 139.889 170.845 139.813 170.845 139.733C170.845 139.681 170.839 139.631 170.829 139.581C174.025 141.946 178.766 144.962 182.333 145.306C182.36 145.308 182.386 145.31 182.412 145.31C182.825 145.31 183.178 144.995 183.219 144.576C183.262 144.13 182.935 143.733 182.489 143.69C179.025 143.355 174.121 140.066 171.124 137.778C172.943 138.209 174.953 138.7 175.632 138.919C179.152 140.054 182.31 139.579 183.144 137.786C183.422 137.187 183.777 135.614 181.076 133.928C179.021 132.643 176.289 132.599 173.658 133.054C174.166 132.685 174.801 132.068 175.614 131.079C177.401 128.91 181.58 122.747 179.497 120.321C177.668 118.187 172.194 116.152 169.784 115.717C171.252 111.363 173.348 105.281 175.38 99.385C178.389 90.6529 181.232 82.4053 182.05 79.7405C184.2 72.7572 187.797 61.0689 183.28 54.1115C181.281 51.032 177.892 49.1825 173.207 48.6152C167.794 47.9565 159.458 51.185 148.422 58.2032C140.695 63.1172 131.624 70.0003 123.914 76.7828C123.596 74.7268 122.893 70.588 121.774 66.1066C120.654 61.6342 118.491 60.1752 117.058 59.7061C119.157 56.1975 120.148 55.3773 120.49 55.1902C120.941 54.9455 121.705 54.7158 122.514 54.4727C125.003 53.7255 128.412 52.702 129.02 49.5113C129.575 46.5928 128.014 44.4828 126.254 42.9086C126.966 42.3424 127.972 41.3294 127.79 40.2231C127.62 39.2162 126.56 39.0356 125.709 38.8907C124.516 38.6878 124.002 38.5092 123.906 37.9317C123.877 37.758 123.794 37.6083 123.679 37.4926C123.557 36.9524 123.385 36.4009 123.153 35.8197C122.017 32.9796 119.76 31.508 118.613 30.9155C118.601 30.8104 118.572 30.7073 118.52 30.6123C118.514 30.6005 118.441 30.4719 118.31 30.2649H209.03C213.682 30.3863 218.782 30.3193 222.881 30.2649H234.627C239.712 30.2649 243.848 34.4013 243.848 39.4857V149.116C243.848 149.222 243.87 149.323 243.907 149.416C242.594 151.717 241.315 153.608 240.1 155.036C233.15 163.221 227.434 165.238 197.615 164.92C196.971 164.912 196.319 164.906 195.663 164.9C196.481 164.293 197.18 163.524 197.685 162.629ZM137.32 155.135C138.225 155.107 141.429 155.306 152.614 157.302C163.222 159.193 173.702 160.164 182.127 160.164C188.342 160.164 193.434 159.634 196.64 158.556C197.124 159.938 196.646 161.166 196.272 161.831C195.206 163.717 192.956 164.942 190.78 164.741C190.598 164.727 190.426 164.774 190.282 164.863C182.262 164.825 172.845 164.848 162.261 164.931C162.129 164.838 161.969 164.782 161.794 164.782H136.418C136.18 163.607 136.282 159.863 137.32 155.135ZM157.948 126.983C159.72 126.659 161.356 126.173 162.831 125.533C161.941 126.493 160.522 127.669 159.958 127.807C159.705 127.725 159.355 127.573 158.986 127.414C158.651 127.269 158.3 127.118 157.948 126.983ZM120.72 96.4134C121.697 104.123 122.351 108.584 123.564 109.922C123.825 110.208 124.296 110.467 125.091 110.762C128.994 112.214 140.891 114.52 149.893 116.053C153.645 116.689 158.029 117.382 159.08 117.423C162.033 117.538 164.485 118.288 166.173 119.589C168.466 121.357 168.799 123.688 168.133 125.186C168.097 125.245 168.066 125.305 168.046 125.37C168.018 125.427 167.99 125.483 167.953 125.543C167.391 126.461 166.628 127.404 165.744 128.271C164.994 129.014 164.163 129.696 163.344 130.241C162.122 131.048 160.966 131.511 160.171 131.511C158.821 131.511 157.153 130.312 156.382 129.201C156.016 128.675 155.947 128.302 155.968 128.198C155.968 128.198 155.989 128.189 156.046 128.183C156.554 128.128 157.589 128.579 158.342 128.904C158.803 129.103 159.238 129.291 159.595 129.394C161.038 129.807 164.085 126.759 164.818 125.613C165.283 124.887 165.329 124.297 164.954 123.861C164.38 123.195 163.346 123.528 162.313 123.987C160.422 124.827 158.225 125.389 155.783 125.66C153.5 125.916 151.022 125.924 148.4 125.685C148.272 125.676 148.124 125.667 147.935 125.663C146.907 125.647 145.076 125.801 142.759 125.991C133.52 126.747 114.296 128.32 107.773 122.198C106.966 121.438 106.181 120.338 105.439 118.926C103.679 115.57 102.145 110.466 100.88 103.756L120.72 96.4134ZM120.094 80.2426C119.202 74.3412 118.182 67.7162 115.181 63.0177C115.222 62.9699 115.261 62.9199 115.292 62.8615C115.296 62.8534 115.663 62.1448 116.214 61.1614C117.121 61.3481 119.135 62.2475 120.199 66.5003C121.556 71.9358 122.293 76.8611 122.464 78.0701C121.625 78.8246 120.831 79.5518 120.094 80.2426ZM149.684 112.762C149.539 113.42 149.434 113.926 149.363 114.315C141.108 112.894 130.772 110.889 126.457 109.514C127.6 108.909 128.765 108.244 129.939 107.532C130.391 108.062 131.391 108.994 133.02 109.29C134.79 109.612 147.714 112.345 149.684 112.762ZM133.311 107.693C132.329 107.514 131.685 107.014 131.338 106.662C141.409 100.238 150.194 91.2913 156.227 84.2974C155.016 87.2511 154.06 90.5819 153.826 94.0575C153.707 95.7913 152.274 101.793 151.122 106.616C150.728 108.264 150.354 109.833 150.043 111.178C148.077 110.762 135.132 108.024 133.311 107.693ZM167.948 116.083C167.68 116.889 167.437 117.623 167.223 118.276C167.167 118.24 167.135 118.219 167.135 118.219C167.062 118.174 166.985 118.145 166.906 118.124C164.967 116.731 162.297 115.924 159.143 115.801C158.631 115.781 156.671 115.517 153.331 114.977C154.909 111.572 161.09 98.0725 163.367 90.6135C168.906 72.4699 165.277 69.9869 165.277 69.9869L164.568 71.0543C164.54 71.0689 164.514 71.0851 164.488 71.103C164.471 71.1139 164.456 71.1261 164.44 71.1383C164.426 71.1496 164.411 71.1578 164.397 71.1699C164.378 71.187 164.356 71.2097 164.339 71.2288C164.339 71.2292 164.338 71.23 164.338 71.2304C164.277 71.297 162.13 73.6598 159.783 77.4147C154.288 84.4479 143.1 97.4504 129.743 105.752C128.037 106.811 126.345 107.767 124.713 108.592C124.683 108.605 124.658 108.626 124.63 108.642C123.729 107.185 122.977 101.348 122.251 95.5904C122.339 95.3996 122.353 95.1756 122.273 94.9642C122.242 94.8834 122.197 94.8132 122.146 94.7491C121.716 91.3108 121.188 87.1342 120.55 83.2065C120.497 82.8769 120.443 82.538 120.391 82.1963C121.443 81.1914 122.628 80.0981 123.926 78.9382C131.794 71.9102 141.277 64.6707 149.293 59.5729C159.853 52.8574 168.054 49.6265 173.012 50.2268C177.197 50.7337 180.193 52.338 181.919 54.9958C186.022 61.3169 182.565 72.551 180.499 79.2633C179.688 81.9021 176.85 90.1375 173.846 98.8562C171.672 105.164 169.424 111.686 167.948 116.083ZM172.994 131.517C173.574 130.087 174.192 127.914 173.738 125.89L175.195 122.973C175.308 122.747 175.309 122.481 175.198 122.254C175.087 122.027 174.876 121.864 174.628 121.815L171.098 121.109C170.976 121.085 170.858 121.091 170.746 121.118C169.991 120.366 169.226 119.732 168.609 119.261C168.802 118.67 169.023 117.999 169.27 117.254C170.596 117.457 176.502 119.321 178.265 121.378C178.522 121.677 178.509 122.396 178.23 123.348C177.333 126.409 174.4 130.277 172.994 131.517ZM172.383 123.021L173.268 123.198L172.929 123.878C172.766 123.594 172.587 123.308 172.383 123.021ZM169.736 135.784C169.793 135.764 169.851 135.743 169.91 135.723C172.544 134.807 177.385 133.534 180.216 135.304C181.443 136.07 181.831 136.758 181.672 137.101C181.373 137.744 179.266 138.386 176.13 137.374C175.154 137.059 171.784 136.261 169.736 135.784ZM169.734 125.567C170.09 124.639 170.158 123.638 169.969 122.647C171.08 123.826 171.8 124.958 172.102 126.012C172.637 127.884 171.854 130.378 170.944 132.089C170.261 133.376 169.639 133.997 169.381 134.145C169.253 134.096 169.067 133.92 169.079 133.211C169.079 132.867 169.138 132.455 169.254 131.989C169.315 131.746 169.416 131.446 169.533 131.1C170.025 129.649 170.752 127.504 169.734 125.567ZM167.498 128.79C167.903 128.351 168.274 127.9 168.613 127.446C168.697 128.445 168.359 129.506 168.046 130.432L167.498 128.79ZM164.537 131.784L164.681 131.343C164.688 131.32 164.691 131.297 164.696 131.273C165.21 130.905 165.721 130.499 166.21 130.061L167.344 133.46C167.367 133.532 167.405 133.595 167.446 133.656C167.15 133.213 166.79 132.809 166.292 132.453C165.674 132.012 165.077 131.826 164.537 131.784ZM155.048 130.127C156.085 131.621 158.178 133.134 160.171 133.134C160.698 133.134 161.242 133.02 161.773 132.843C161.492 133.161 161.5 133.647 161.805 133.952C161.882 134.028 161.97 134.085 162.064 134.125L162.059 134.138L147.038 133.659C147.413 132.344 147.999 130.163 148.642 127.33C150.702 127.501 152.691 127.528 154.57 127.398C154.531 127.469 154.497 127.544 154.467 127.623C154.203 128.332 154.404 129.198 155.048 130.127ZM167.168 144.554H172.343C173.121 145.437 173.893 146.23 174.659 146.941H170.224C169.776 146.941 169.412 147.305 169.412 147.753C169.412 148.201 169.776 148.564 170.224 148.564H176.564C179.967 151.212 183.199 152.422 186.097 153.215C186.944 153.447 187.75 153.639 188.529 153.827C189.791 154.129 190.983 154.415 192.02 154.794C193.68 155.396 194.954 156.195 195.776 157.128C188.269 159.464 170.818 158.897 152.899 155.704C143.486 154.024 139.489 153.559 137.708 153.527C138.279 151.275 138.983 149.148 139.824 147.207C142.432 141.184 145.063 136.899 146.131 135.254L162.617 135.78C162.626 135.78 162.634 135.78 162.643 135.78C162.993 135.78 163.305 135.555 163.414 135.221L164 133.427C164.46 133.345 164.905 133.458 165.349 133.775C166.05 134.275 166.349 134.906 166.855 136.061C166.928 136.232 167.004 136.411 167.083 136.578C167.394 137.284 167.753 138.05 168.244 138.922H164.684C164.236 138.922 163.872 139.285 163.872 139.733C163.872 140.181 164.236 140.545 164.684 140.545H169.245C169.465 140.874 169.691 141.205 169.929 141.534C170.282 142.02 170.635 142.485 170.988 142.931H167.168C166.719 142.931 166.356 143.294 166.356 143.743C166.356 144.191 166.719 144.554 167.168 144.554ZM123.942 40.1172C124.46 40.3229 125.007 40.4179 125.436 40.491C125.658 40.5291 125.965 40.5811 126.156 40.6371C126.027 40.9244 125.545 41.439 124.961 41.8485C124.911 41.81 124.857 41.7678 124.809 41.7312C124.694 41.6444 124.585 41.562 124.483 41.4824C124.032 41.1322 123.967 40.8737 123.942 40.1172ZM113.942 46.4682C113.656 46.2093 113.237 46.1919 112.933 46.4025C112.918 46.4126 112.903 46.4236 112.889 46.4354C112.694 46.5819 110.594 48.118 108.609 47.7471C107.618 47.5624 106.812 46.9415 106.144 45.8485C104.829 43.6955 105.689 41.2949 107.239 40.3047C108.853 39.2751 110.704 39.991 112.191 42.2207C112.408 42.5466 112.826 42.6703 113.186 42.5157C113.546 42.3607 113.744 41.9707 113.657 41.5884C113.653 41.5697 113.219 39.6302 113.552 37.4508C113.943 34.8818 115.199 33.0855 117.298 32.0924C117.315 32.1001 117.331 32.1107 117.348 32.1172C117.378 32.129 120.392 33.2885 121.645 36.4224C121.901 37.062 122.073 37.6521 122.172 38.2324C122.288 38.881 122.301 39.4199 122.312 39.8956C122.335 40.9199 122.358 41.8879 123.486 42.7637C123.592 42.8457 123.706 42.9325 123.826 43.0238C123.961 43.1261 124.105 43.2357 124.253 43.3518C126.098 44.7941 127.918 46.6176 127.426 49.2081C127.002 51.4305 124.255 52.2556 122.047 52.9179C121.116 53.1975 120.312 53.439 119.713 53.7653C119.307 53.9873 118.069 54.6626 115.062 59.8996C114.672 60.5847 114.354 61.1679 114.14 61.5669C111.905 58.827 108.958 57.3266 105.368 57.0835C106.867 55.8846 109.075 54.06 110.116 52.9074C110.124 52.8984 110.13 52.8879 110.138 52.8785C110.148 52.8664 110.159 52.8558 110.169 52.8432L114.032 47.5725C114.297 47.2406 114.26 46.758 113.942 46.4682ZM94.6954 78.5563C94.262 78.5457 93.8784 78.9086 93.8723 79.357L93.8131 83.7268C92.5874 86.4666 88.947 94.3931 86.8374 96.7393C82.8009 97.8047 79.9223 98.4207 79.8971 98.4264C79.7409 98.4536 79.5862 98.4861 79.4312 98.5173C80.8346 96.7373 82.7697 93.8664 83.7258 90.581C84.32 88.5429 84.8476 86.1955 85.406 83.7101C87.6329 73.801 90.4044 61.4682 99.8159 59.2406C101.07 58.9406 102.28 58.7568 103.412 58.6931C107.768 58.4414 111.044 59.9439 113.417 63.2909C116.562 67.7276 117.594 74.5624 118.505 80.5932L118.707 81.922C118.784 82.4451 118.866 82.965 118.948 83.467C119.569 87.2929 120.087 91.3696 120.511 94.7588L95.1585 104.142L95.2725 95.7913V95.7905L95.4957 79.3793C95.5018 78.9309 95.1435 78.5628 94.6954 78.5563ZM134.792 164.782H85.3715C89.9458 154.703 94.003 143.978 97.7555 132.034C98.9283 128.298 101.466 124.834 103.506 122.051C103.868 121.557 104.214 121.084 104.536 120.632C105.209 121.76 105.921 122.684 106.661 123.381C113.71 129.997 132.693 128.443 142.891 127.609C144.567 127.471 145.976 127.357 146.983 127.309C146.336 130.126 145.757 132.243 145.409 133.45C145.369 133.488 145.331 133.529 145.298 133.577C145.156 133.779 141.769 138.63 138.335 146.562C137.313 148.92 136.473 151.524 135.841 154.3C134.889 158.443 134.496 162.645 134.792 164.782ZM299.708 228.95H299.709C301.722 228.938 303.174 228.926 303.927 228.913C304.086 228.908 304.25 228.902 304.406 228.885C304.974 228.979 309.621 229.942 309.9 236.081C310 238.29 309.855 240.08 309.574 242.103H206.433C206.152 240.082 206.007 238.292 206.108 236.08C206.318 231.364 210.342 229.683 212.719 229.102C213.31 228.96 213.738 228.901 213.862 228.885C215.995 228.89 281.443 229.033 299.708 228.95ZM310.175 263.54H205.826C205.941 263.109 206.057 262.683 206.171 262.268C206.74 260.198 207.277 258.243 207.393 256.436C207.756 250.713 207.205 247.157 206.719 244.019C206.703 243.921 206.689 243.825 206.674 243.727H309.333C309.318 243.824 309.304 243.919 309.289 244.017C308.802 247.155 308.252 250.712 308.614 256.437C308.73 258.246 309.267 260.206 309.835 262.282C309.948 262.693 310.062 263.114 310.175 263.54ZM326.234 301.284H308.563C308.565 301.25 308.569 301.217 308.566 301.182L307.317 282.051C310.819 280.962 312.925 277.774 313.129 273.186C313.285 269.622 312.625 266.511 311.96 263.939C311.776 263.223 311.586 262.528 311.401 261.853C310.831 259.773 310.339 257.977 310.234 256.334C309.883 250.786 310.397 247.471 310.893 244.265C310.955 243.864 311.016 243.467 311.076 243.071C311.36 241.166 311.652 238.891 311.522 236.007C311.249 230.016 307.13 227.731 304.802 227.305C305.479 223.754 308.939 204.924 311.197 179.32C313.505 153.152 314.995 114.345 308.987 78.0786C306.759 64.6383 299.769 46.6131 291.178 32.157C277.248 8.71622 264.296 2.23205 255.884 0.919551C251.957 0.309161 241.421 0.0717439 223.668 0.195932C208.553 0.29577 197.883 0.669958 191.399 2.22272C188.065 3.0202 185.221 5.54455 183.596 9.14845C181.9 12.909 181.85 17.1545 183.425 20.6789H104.441C103.651 14.4581 98.3886 12.892 95.2384 12.5186C94.652 12.4496 94.0586 12.4386 93.4645 12.4739C93.8062 11.0332 93.8176 9.21703 93.044 7.47921C92.4202 6.07702 91.029 4.19593 87.9418 3.19431C84.6049 2.10949 81.2031 3.05429 78.609 5.78237C75.6792 8.86314 74.4588 13.476 75.7072 16.7511C76.4365 18.6663 77.458 19.8948 78.5424 20.6789H65.1524C63.4969 18.1744 60.7644 18.2527 60.6743 18.256H38.3448C34.9758 18.256 33.2052 19.478 32.2786 20.6789L23.7344 20.6793C23.5197 20.6708 18.4746 20.5965 14.3602 24.6099C10.988 27.9001 9.27821 32.9049 9.27821 39.4857V155.561C9.27821 161.54 14.1427 166.405 20.1224 166.405H54.6524C54.2681 168.25 53.9316 169.986 53.6069 171.665C52.5225 177.287 51.665 181.726 49.9341 184.816C49.2904 185.963 48.5075 187.234 47.6013 188.706C43.0286 196.134 36.1183 207.358 33.2413 225.148C32.7542 228.164 30.9929 233.614 29.2892 238.884C27.4807 244.478 25.6106 250.264 25.1313 253.52C25.0996 253.73 25.068 253.937 25.0319 254.149C24.0428 260.071 21.4012 265.822 19.4876 269.65C19.1029 270.206 15.8545 274.98 12.5595 282.584C11.5915 284.818 10.8062 287.32 10.2214 290.018C10.141 290.135 10.0834 290.265 10.0668 290.409C10.0562 290.5 10.0635 290.59 10.0814 290.678C9.25224 294.781 8.96613 299.148 9.32936 301.284H1.7985C1.35045 301.284 0.986816 301.647 0.986816 302.095C0.986816 302.544 1.35045 302.907 1.7985 302.907H326.234C326.683 302.907 327.046 302.544 327.046 302.095C327.046 301.647 326.683 301.284 326.234 301.284Z" fill="#700051"/>
<path d="M18.9853 100.939C21.5652 100.939 23.6647 98.8392 23.6647 96.2592C23.6647 93.6789 21.5652 91.5798 18.9853 91.5798C16.4053 91.5798 14.3059 93.6789 14.3059 96.2592C14.3059 98.8392 16.4053 100.939 18.9853 100.939Z" fill="#700051"/>
</svg>
