<svg width="375" height="375" viewBox="0 0 375 375" fill="none" xmlns="http://www.w3.org/2000/svg">
<g clip-path="url(#clip0_23283_162557)">
<path d="M359.734 156.867C356.38 148.577 342.354 139.492 329.719 133.363C331.903 136.518 333.371 140.728 334.087 145.85C335.241 148.424 340.019 159.058 341.841 162.77L342.826 163.113C343.178 163.235 343.428 163.548 343.47 163.918C343.513 164.288 343.339 164.649 343.024 164.848L334.002 170.528C333.714 173.54 333.406 175.403 333.268 176.158C333.972 177.336 336.302 181.471 337.952 187.112C339.251 186.305 365.064 170.036 359.734 156.867Z" fill="#D8375D"/>
<path d="M297.294 251.065C297.916 254.538 298.972 259.509 300.196 265.266C301.277 270.353 302.494 276.083 303.602 281.694L327.364 280.21C327.396 276.339 327.56 272.55 327.865 268.941C328.233 264.565 328.248 260.63 328.094 257.18C326.186 250.704 320.144 239.686 315.875 233.282C312.289 227.904 306.953 222.78 304.063 220.18C301.441 219.559 298.335 218.735 294.593 217.672C294.953 234.054 295.55 241.355 297.294 251.065Z" fill="white"/>
<path d="M331.765 177.43C320.702 179.735 310.603 179.742 300.832 179.743C298.349 179.743 295.782 179.743 293.274 179.783C284.075 179.928 274.102 180.592 263.496 184.435C259.034 186.053 252.499 187.661 245.02 188.987L247.372 213.183C247.375 213.217 247.372 213.251 247.372 213.285C250.029 213.318 252.462 213.335 254.615 213.335C258.509 213.335 262.357 212.942 266.077 212.563C272.995 211.857 279.529 211.19 285.673 213.032C288.808 213.974 291.517 214.774 293.957 215.475C301.728 217.707 306.831 218.948 310.505 219.499C329.317 222.339 334.747 215.432 337.111 204.187C337.468 202.491 337.667 200.71 337.701 198.893C337.768 195.601 337.31 192.115 336.34 188.53C334.87 183.101 332.613 178.9 331.765 177.43Z" fill="white"/>
<path d="M317.524 164.941C314.831 165.889 312.419 166.274 310.282 166.274C302.845 166.274 298.706 161.618 297.363 159.783C294.878 160.579 292.327 161.391 289.792 162.188L294.019 177.836C296.293 177.806 298.596 177.805 300.832 177.804C310.516 177.804 320.526 177.797 331.411 175.525C331.569 174.609 331.864 172.678 332.129 169.74C332.362 167.148 332.524 164.284 332.61 161.229C332.689 158.404 332.702 155.439 332.648 152.416C332.565 147.804 331.984 143.787 330.937 140.427C331.594 144.187 331.421 148.174 330.306 151.779C328.367 158.05 323.828 162.725 317.524 164.941Z" fill="#FE874F"/>
<path d="M303.977 283.613C305.637 292.2 306.65 298.638 307.073 303.351C307.782 302.659 308.703 302.197 309.837 301.977C312.063 301.538 314.104 302.504 315.735 304.767C316.455 305.766 316.937 306.803 317.2 307.451C321.879 307.606 328.839 307.819 329.419 307.777C329.432 307.776 329.444 307.778 329.456 307.776C329.318 307.326 329.239 307.071 329.238 307.069C329.225 307.027 329.214 306.985 329.207 306.942C329.189 306.833 327.397 296.103 327.354 282.152L303.977 283.613Z" fill="#D8375D"/>
<path d="M280.763 138.549C280.741 138.543 280.101 138.613 280.079 138.606C268.985 142.382 259.046 146.347 253.915 148.186C244.152 151.685 232.159 153.411 221.579 154.933C212.287 156.269 204.264 157.424 199.598 159.446C197.712 160.264 195.975 161.261 194.434 162.411C188.327 166.949 186.16 173.12 186.16 177.026C186.179 182.412 190.406 191.711 191.846 192.478C192.603 192.194 192.828 191.757 192.604 190.18C192.573 189.939 192.534 189.705 192.494 189.464L192.442 189.147C192.099 187.105 190.05 175.135 190.05 175.135C190.002 174.854 190.081 174.566 190.265 174.348C190.449 174.13 190.72 174.003 191.005 174.003C191.02 174.003 192.549 174 195.286 173.774C196.786 173.644 198.213 173.493 199.644 173.313C201.154 173.126 202.802 172.886 204.546 172.601C207.304 172.15 210.155 171.595 213.022 170.95C217.06 170.041 225.307 169.656 234.857 169.211C245.277 168.725 257.086 168.174 265.807 166.805C268.281 166.417 270.412 165.975 272.14 165.492C276.028 164.405 281.318 162.812 288.313 160.622C291.239 159.704 294.208 158.759 297.079 157.838C297.141 157.784 297.208 157.735 297.285 157.697C297.456 157.614 297.639 157.585 297.814 157.602C308.359 154.211 317.487 151.172 317.579 151.141C318.086 150.973 318.636 151.246 318.805 151.754C318.974 152.262 318.7 152.81 318.192 152.979C318.145 152.995 315.781 153.782 312.089 154.996C310.423 157.192 307.186 161.641 306.554 163.844C309.253 164.56 312.672 164.595 316.881 163.113C324.2 160.54 327.215 155.218 328.455 151.207C330.397 144.924 329.27 137.388 325.651 132.454C325.174 131.807 324.997 130.664 324.368 130.17C321.846 129.089 320.415 128.592 320.036 128.517C319.7 128.541 318.8 128.518 318.61 128.232C316.987 128.008 315.426 128.455 313.583 128.735C311.503 129.055 307.139 130.247 300.61 132.278C295.378 133.909 289.358 135.483 281.846 138.036C281.624 138.361 281.166 138.649 280.763 138.549Z" fill="#D8375D"/>
<path d="M317.072 126.807C317.289 126.839 317.506 126.831 317.647 126.693C317.076 125.643 316.448 124.615 315.807 123.579C315.192 122.583 314.552 121.597 313.946 120.596C313.552 119.946 313.222 119.262 312.787 118.639C312.593 118.362 312.097 117.521 311.796 117.416C311.461 117.3 310.692 117.592 310.307 117.592C309.841 117.592 309.369 117.536 308.893 117.421C307.52 117.086 304.947 116.063 303.126 112.974C302.855 112.513 303.008 111.919 303.469 111.647C303.93 111.375 304.524 111.529 304.796 111.99C306.255 114.466 308.276 115.275 309.35 115.537C312.007 116.178 313.679 114.054 314.309 113.039C314.825 111.805 315.258 110.493 315.597 109.138C315.634 108.732 315.639 108.326 315.611 107.924C315.432 105.515 313.789 104.66 312.826 104.366C310.641 103.697 307.93 104.541 306.519 106.328C306.37 106.518 306.155 106.644 305.918 106.684C305.126 106.816 304.386 106.646 303.779 106.191C302.106 104.938 301.719 101.734 301.345 98.6339C301.143 96.961 300.898 94.9329 300.454 94.0491C299.201 94.9551 298.092 96.3209 297.096 97.5559C296.925 97.7676 296.758 97.974 296.595 98.1732C295.322 99.7318 295.023 99.9033 293.737 100.267C293.552 100.319 293.338 100.38 293.082 100.458C292.699 100.575 292.344 100.618 292.03 100.657C291.33 100.743 291.205 100.784 291.031 101.157C290.904 101.428 290.935 101.547 291.148 102.036C291.298 102.379 291.485 102.806 291.522 103.346L291.533 103.523C291.609 104.694 291.603 104.877 291.197 105.76C291.127 105.911 291.042 106.095 290.94 106.332C290.746 106.778 290.546 107.193 290.351 107.593C289.741 108.849 289.259 109.841 289.314 111.312C289.378 112.987 290 114.646 291.065 115.981C291.632 116.695 292.421 117.173 293.257 117.678C294.118 118.199 295.009 118.737 295.693 119.57C297.433 121.695 300.843 129.453 300.987 129.782C301.034 129.889 301.056 129.999 301.063 130.109C307.116 128.243 311.229 127.136 313.291 126.819C313.853 126.734 314.405 126.677 314.951 126.634C315.082 126.546 315.592 126.88 315.761 126.865C315.794 126.861 316.008 126.416 316.893 126.448L312.967 118.315C312.772 118.001 311.677 117.682 311.852 117.377" fill="#D8375D"/>
<path d="M186.659 278.787C186.656 278.792 186.654 278.796 186.652 278.8L155.969 331.944H172.201L221.717 246.183C221.89 245.883 222.21 245.699 222.556 245.699C222.903 245.699 223.222 245.883 223.395 246.183L272.907 331.944H289.453L222.711 216.343L186.659 278.787Z" fill="#F6F6F6"/>
<path d="M230.531 95.1999C230.784 95.1999 231.312 95.1713 231.922 95.1383C234.153 95.0177 235.789 94.9479 236.524 95.1533C236.592 95.1722 236.655 95.1989 236.715 95.2304C244.635 95.7284 250.798 104.313 250.798 115.011C250.798 117.219 250.527 119.396 249.992 121.482H249.992V121.483C249.175 124.655 247.75 127.525 245.869 129.783C245.868 129.783 245.868 129.783 245.868 129.784C245.868 129.784 245.868 129.784 245.868 129.784C243.411 132.723 240.271 134.478 236.981 134.772C236.925 134.804 236.865 134.831 236.802 134.853C236.383 134.995 235.77 135.048 235.01 135.048C234.184 135.048 233.182 134.986 232.063 134.907C231.438 134.863 230.848 134.822 230.531 134.822C227.659 134.822 224.876 133.73 222.481 131.665C222.48 131.665 222.48 131.664 222.48 131.664C218.241 127.999 215.71 121.773 215.71 115.011C215.71 104.087 222.359 95.1999 230.531 95.1999ZM184.446 136.627C186.469 145.262 189.741 153.288 194.118 160.268C195.562 159.279 197.136 158.401 198.828 157.668C203.731 155.542 211.874 154.371 221.303 153.014C231.793 151.505 243.683 149.795 253.262 146.361C258.423 144.511 268.678 140.867 279.848 137.066C281.562 130.16 282.367 123.353 282.367 115.694C282.367 86.8249 269.007 60.8777 249.121 51.1282C249.07 51.103 249.018 51.0802 248.968 51.0555L185.192 138.722C185.192 138.722 184.897 137.981 184.446 136.627Z" fill="#F6F6F6"/>
<path d="M263.68 169.068C255.178 170.201 244.486 170.702 234.947 171.146C225.488 171.588 217.319 171.969 213.447 172.841C210.996 173.392 208.559 173.874 206.176 174.287C214.012 180.812 222.994 184.265 232.212 184.265C243.686 184.265 254.781 178.886 263.68 169.068Z" fill="#F6F6F6"/>
<path d="M193.561 331.803H251.522L222.542 281.605L193.561 331.803Z" fill="#FE874F"/>
<path d="M182.057 115.694C182.057 119.04 182.236 122.408 182.59 125.702C182.987 129.427 183.615 133.077 184.446 136.627C184.897 137.981 185.192 138.722 185.192 138.722L248.967 51.0554C243.593 48.4508 237.957 47.1281 232.212 47.1281C204.557 47.1281 182.057 77.8868 182.057 115.694Z" fill="white"/>
<path d="M229.192 130.198C231.354 132.066 233.876 133.016 236.43 132.871C239.344 132.73 242.164 131.193 244.38 128.542C246.078 126.504 247.369 123.896 248.114 121.001C248.609 119.072 248.859 117.057 248.859 115.011C248.859 105.351 243.196 97.3355 236.235 97.1421C236.134 97.1378 236.054 97.1383 235.972 97.1383C228.868 97.1383 223.089 105.156 223.089 115.011C223.089 121.221 225.371 126.898 229.192 130.198Z" fill="#F6F6F6"/>
<path d="M222.064 191.521C223.131 192.364 223.819 193.394 224.096 194.589C224.457 196.154 224.243 198.453 221.172 200.527C220.259 201.144 219.313 201.587 218.625 201.866C219.593 204.167 222.052 210.033 223.118 212.717C226.175 212.816 235.832 213.116 245.432 213.258L243.105 189.315C235.34 190.606 227.874 191.38 222.064 191.521Z" fill="#D8375D"/>
<path d="M168.433 279.226C167.9 279.226 167.467 278.795 167.464 278.263L167.124 221.086H131.929C124.726 223.325 109.714 228.598 106.223 234.6C106.026 239.28 105.794 244.851 105.553 250.826C105.612 250.951 105.647 251.089 105.647 251.236C105.647 251.41 105.598 251.571 105.518 251.712C105.276 257.788 105.021 264.275 104.784 270.695C104.197 286.692 103.845 298.56 103.738 305.969C103.565 317.873 105.123 325.08 108.641 328.65C110.947 330.989 114.101 331.944 119.528 331.944H153.731L184.168 279.226H168.433Z" fill="#FFAFA8"/>
<path d="M180.173 56.9648C180.131 56.8456 180.112 56.7163 180.12 56.5825C180.129 56.4454 180.982 42.8069 180.46 35.5065C180.144 31.0854 177.406 29.0346 174.949 28.5888C172.128 28.0777 168.441 29.3805 166.576 33.4479C164.912 37.0767 160.45 65.2153 156.766 91.4924C155.969 97.1756 155.53 100.492 155.412 101.503H159.624C162.063 83.2507 169.505 67.1257 180.173 56.9648Z" fill="#FFAFA8"/>
<path d="M105.403 219.148H168.193C170.62 217.786 170.854 214.679 170.311 210.142H103.28C102.742 214.681 102.978 217.787 105.403 219.148Z" fill="#FF4239"/>
<path d="M169.007 178.777C167.948 177.523 166.549 177.334 166.337 177.312H107.251C106.943 177.343 103.869 177.751 103.397 181.818V181.819C103.37 182.06 103.352 182.326 103.342 182.627C103.342 182.63 103.343 182.633 103.343 182.637C103.343 182.647 103.34 182.658 103.34 182.669C103.327 183.1 103.344 183.589 103.39 184.123C103.475 185.074 103.552 186.294 103.618 187.685H169.799C169.858 187.685 169.916 187.693 169.972 187.703C170.041 186.214 170.116 185.032 170.2 184.117C170.416 181.767 170.014 179.969 169.007 178.777Z" fill="#FF4239"/>
<path d="M170.085 208.204C169.693 203.959 169.674 195.928 169.895 189.614C169.863 189.617 169.832 189.623 169.799 189.623H103.698C103.922 195.921 103.902 203.935 103.506 208.204H170.085Z" fill="#D8375D"/>
<path d="M108.162 175.374H165.389L168.111 155.336C162.049 142.796 158.709 128.59 158.709 115.297C158.709 113.679 158.747 112.084 158.817 110.538C158.787 110.525 158.755 110.515 158.725 110.498C158.658 110.461 152.028 106.753 145.387 103.42C141.699 101.574 138.705 100.186 136.488 99.2967C135.782 99.0147 135.149 98.7797 134.608 98.5995C131.837 97.677 130.052 98.8223 129.042 99.9464C126.923 102.307 125.978 107.317 128.272 112.325C129.088 114.105 130.606 116.187 132.784 118.516C135.017 120.911 137.905 123.528 141.368 126.293C144.889 129.113 147.743 131.061 147.772 131.08C148.11 131.31 148.267 131.728 148.164 132.124C148.061 132.52 147.721 132.809 147.313 132.846C147.054 132.87 121.371 135.41 118.777 154.242C118.71 154.727 118.295 155.079 117.818 155.079C117.775 155.079 117.73 155.076 117.685 155.069C117.155 154.996 116.784 154.507 116.857 153.977C117.333 150.524 118.566 147.374 120.49 144.564C120.724 140.028 119.077 136.058 117.046 133.676C115.982 133.176 115.029 131.798 114.438 130.74C114.152 130.502 113.559 129.809 113.355 129.657C112.501 132.315 111.145 135.807 109.16 137.146C107.597 138.199 105.782 138.735 103.935 138.735C103.117 138.735 102.295 138.617 101.484 138.406C102.325 146.106 104.705 154.786 104.73 154.879C107.578 164.002 108.075 172.55 108.162 175.374Z" fill="#FFAFA8"/>
<path d="M134.494 83.0124C137.34 88.1122 143.865 99.1325 148.351 101.504H153.466C153.621 100.009 154.541 93.4106 154.812 91.4736C154.317 89.196 143.811 41.0346 140.546 34.5046C139.348 32.1083 137.096 30.8956 134.366 31.1824C131.422 31.4901 127.741 33.7783 126.619 38.0758C126.093 40.0918 126.422 46.8752 130.979 67.7405C132.128 72.9998 133.35 78.2512 134.494 83.0124Z" fill="#FFAFA8"/>
<path d="M135.222 96.7614C135.455 96.8394 135.707 96.9285 135.969 97.024C135.831 96.4852 135.635 95.7226 135.391 94.758C133.846 90.2095 131.355 88.6029 131.33 88.5874C131.295 88.568 125.285 85.194 120.054 88.5768C118.717 89.4426 117.59 90.7463 116.707 92.4527C114.329 97.0559 114.106 103.763 114.338 108.579C114.421 110.295 114.369 112.446 114.315 114.724C114.244 117.667 114.164 121.003 114.371 123.95C114.698 128.758 115.759 131.587 117.523 132.36C119.419 133.191 121.416 133.437 123.219 133.095C125.437 132.498 127.084 131.116 128.246 129.72C128.831 128.868 129.326 127.871 129.721 126.721C130.417 124.712 130.803 122.242 130.871 119.378C130.871 119.352 130.878 119.328 130.88 119.303C128.822 117.035 127.348 114.959 126.511 113.133C124.142 107.961 124.59 102.007 127.6 98.6523C129.546 96.4847 132.324 95.7948 135.222 96.7614Z" fill="#FFAFA8"/>
<path d="M106.226 175.539C106.142 172.933 105.66 164.362 102.871 155.426C102.836 155.298 100.209 145.716 99.4576 137.618C96.7018 135.958 95.9518 131.616 95.6931 128.064H94.9009C93.2188 128.064 89.992 127.692 87.2793 125.2C84.6597 122.794 83.3312 119.174 83.3312 114.44C83.3312 101.866 94.0254 101.503 95.2449 101.503H96.2294C97.1916 96.3055 99.211 92.6752 102.243 90.7139C108.244 86.8283 114.755 90.2377 115.501 90.6529C116.461 89.0812 117.633 87.8355 119.002 86.9494C125.243 82.9145 132.038 86.759 132.324 86.9247C132.386 86.962 132.962 87.321 133.741 88.1306C132.341 82.4237 130.718 75.5884 129.209 68.7178C129.152 68.6689 129.1 68.6132 129.055 68.5497C123.576 60.8845 116.758 54.9867 109.338 51.4935C109.281 51.4668 109.224 51.4446 109.167 51.4184L45.6568 138.722C45.0337 136.872 44.4867 135.044 44.0032 133.236C46.1689 143.804 50.243 153.571 55.9882 161.715C55.9886 161.715 55.9886 161.716 55.9886 161.716C64.5889 173.911 76.1626 181.354 88.5816 182.678L92.4814 182.884C95.4809 182.895 98.5056 182.549 101.449 181.856C101.456 181.77 101.462 181.68 101.472 181.597V181.595C101.929 177.659 104.418 176.022 106.226 175.539Z" fill="#F6F6F6"/>
<path d="M101.815 310.194C101.784 308.846 101.778 307.431 101.8 305.942C101.905 298.674 102.245 287.123 102.811 271.619H57.7638C61.3243 274.374 64.3214 279.911 65.9861 287.223C67.0331 291.803 67.492 296.92 67.3127 302.017C66.9735 311.721 65.3616 319.374 62.5215 324.765C60.6087 328.389 58.3481 330.64 56.0869 332.007H70.4236C86.0554 327.576 98.568 313.978 101.815 310.194Z" fill="#FF4239"/>
<path d="M100.764 136.124C103.211 137.195 105.945 136.976 108.077 135.539C111.018 133.557 112.553 129.475 112.402 124.045C112.4 123.97 112.408 123.897 112.423 123.826C112.232 120.856 112.308 117.58 112.378 114.678C112.431 112.436 112.482 110.319 112.402 108.672C112.172 103.885 112.388 97.2904 114.601 92.3694C114.599 92.3685 114.598 92.368 114.596 92.367C114.536 92.3326 108.526 88.9547 103.296 92.3408C100.582 94.0966 98.7986 97.569 97.9953 102.662C97.5457 105.473 97.4056 108.73 97.5796 112.344C97.6619 114.057 97.6101 116.203 97.5558 118.476C97.4904 121.186 97.4173 124.258 97.5689 127.029C97.5704 127.051 97.5757 127.072 97.5757 127.095C97.5757 127.1 97.5742 127.105 97.5742 127.111C97.8683 132.365 98.9115 135.314 100.764 136.124Z" fill="#FFAFA8"/>
<path d="M109.167 51.4183C104.285 49.1489 99.1721 47.9018 93.9657 47.7187C93.5277 47.7046 93.0781 47.6949 92.6334 47.6949C87.4478 47.6949 82.3393 48.7453 77.4492 50.8161H77.4488C72.143 53.0651 67.1779 56.4638 62.6905 60.9168C57.0922 66.4624 52.4837 73.3616 48.9924 81.4231C46.2133 87.8398 44.2559 94.7788 43.175 102.048V102.049C42.5423 106.288 42.2162 110.634 42.207 114.965C42.2017 115.103 42.2022 115.2 42.2022 115.297C42.2022 121.428 42.8175 127.451 44.003 133.236C44.4866 135.044 45.0336 136.872 45.6566 138.722L109.167 51.4183Z" fill="white"/>
<path d="M60.0252 325.224H48.0504C47.8973 325.224 47.7543 325.185 47.6259 325.122C39.4782 324.291 37.2611 303.907 37.1637 299.826C36.8866 288.163 39.5974 278.534 44.6017 273.41C46.983 270.971 49.7485 269.681 52.5998 269.681H102.883C103.102 263.768 103.335 257.821 103.559 252.206H42.1918C40.1821 254.361 27.3372 269.355 29.5203 298.019C30.2815 308.004 32.7936 321.339 40.4384 328.16C44.5014 331.784 48.3377 332.001 49.063 332.008C49.0678 332.008 49.0726 332.007 49.0775 332.007H49.2471C52.3343 331.965 56.6182 330.712 60.0252 325.224Z" fill="#FF4239"/>
<path d="M65.3765 301.949C65.5388 297.315 65.1579 292.671 64.2737 288.46H52.4327C59.1982 311.237 54.5761 320.277 52 323.286H61.0945C63.6168 318.186 65.0591 311.017 65.3765 301.949Z" fill="#FF4239"/>
<path d="M340.286 164.281L334.205 168.11C334.342 166.271 334.443 164.316 334.512 162.275L340.286 164.281ZM337.952 187.112C336.302 181.471 333.972 177.335 333.268 176.158C333.406 175.402 333.714 173.54 334.001 170.527L343.024 164.847C343.339 164.649 343.513 164.287 343.47 163.917C343.428 163.547 343.177 163.234 342.826 163.112L341.841 162.77C340.019 159.058 335.241 148.423 334.087 145.849C333.371 140.727 331.903 136.518 329.718 133.363C342.354 139.492 356.38 148.577 359.734 156.866C365.064 170.035 339.25 186.304 337.952 187.112ZM337.702 198.893C337.667 200.709 337.468 202.49 337.111 204.186C334.747 215.432 329.317 222.338 310.505 219.499C306.831 218.948 301.728 217.707 293.957 215.475C291.517 214.773 288.808 213.974 285.673 213.031C279.529 211.19 272.995 211.856 266.077 212.562C262.357 212.942 258.509 213.334 254.615 213.334C252.462 213.334 250.029 213.317 247.372 213.284C247.372 213.25 247.375 213.217 247.372 213.183L245.02 188.986C252.499 187.661 259.034 186.053 263.496 184.434C274.102 180.591 284.076 179.927 293.274 179.783C295.782 179.743 298.349 179.743 300.832 179.742C310.603 179.742 320.702 179.735 331.765 177.43C332.613 178.899 334.87 183.101 336.34 188.529C337.311 192.115 337.768 195.601 337.702 198.893ZM329.238 307.069C329.238 307.071 329.318 307.326 329.456 307.776C329.443 307.777 329.432 307.775 329.42 307.777C328.84 307.819 321.878 307.606 317.2 307.451C316.937 306.802 316.455 305.765 315.735 304.767C314.105 302.504 312.063 301.538 309.837 301.976C308.703 302.197 307.782 302.659 307.073 303.35C306.651 298.638 305.637 292.2 303.977 283.612L327.354 282.152C327.397 296.103 329.188 306.832 329.207 306.941C329.215 306.985 329.225 307.027 329.238 307.069ZM329.999 309.581C331.144 313.415 333.255 320.7 334.35 325.803C334.311 325.806 334.272 325.807 334.233 325.815C326.165 327.452 303.473 327.077 293.782 326.917C290.169 326.857 289.296 326.848 289.02 326.885C288.945 326.896 288.873 326.917 288.804 326.944L287.353 324.43C290.313 323.316 303.015 318.296 306.393 312.975C306.75 312.41 306.997 311.619 307.144 310.574C307.154 310.537 307.166 310.502 307.171 310.464C307.193 310.324 307.206 310.156 307.218 309.961C307.28 309.299 307.307 308.54 307.304 307.646C307.511 305.363 308.38 304.234 310.208 303.879C313.778 303.182 315.578 308.637 315.596 308.691C315.72 309.082 316.077 309.352 316.486 309.366C320.242 309.491 329.039 309.779 329.633 309.703C329.765 309.687 329.889 309.644 329.999 309.581ZM334.719 327.683C334.943 328.947 335.053 329.889 335.044 330.479C334.77 330.801 332.914 332.028 320.494 332.317C312.726 332.497 303.756 332.261 297.822 332.103C294.396 332.013 292.529 331.966 291.721 331.996L289.876 328.801C290.675 328.803 292.132 328.828 293.75 328.854C297.438 328.915 302.995 329.007 308.93 329.007C318.691 329.007 329.473 328.758 334.619 327.714C334.654 327.707 334.686 327.694 334.719 327.683ZM289.453 331.944H272.907L223.395 246.183C223.222 245.883 222.902 245.699 222.556 245.699C222.21 245.699 221.89 245.883 221.717 246.183L172.2 331.944H155.968L186.651 278.801C186.654 278.796 186.656 278.792 186.658 278.787L222.711 216.343L289.453 331.944ZM193.561 331.803L222.542 281.605L251.522 331.803H193.561ZM153.731 331.944H119.528C114.101 331.944 110.947 330.989 108.641 328.65C105.123 325.08 103.564 317.873 103.738 305.969C103.844 298.56 104.196 286.691 104.784 270.695C105.02 264.275 105.276 257.788 105.517 251.712C105.597 251.571 105.647 251.41 105.647 251.237C105.647 251.089 105.612 250.951 105.553 250.826C105.794 244.851 106.025 239.28 106.222 234.6C109.714 228.598 124.726 223.325 131.928 221.086H167.124L167.464 278.263C167.467 278.795 167.9 279.226 168.433 279.226H184.168L153.731 331.944ZM62.5218 324.765C65.3614 319.374 66.9738 311.72 67.313 302.017C67.4918 296.92 67.033 291.803 65.9864 287.223C64.3212 279.911 61.3246 274.374 57.7636 271.619H102.811C102.245 287.123 101.905 298.674 101.8 305.941C101.779 307.431 101.784 308.846 101.815 310.194C98.5678 313.978 86.0557 327.576 70.4239 332.007H56.0867C58.3484 330.64 60.6085 328.389 62.5218 324.765ZM52.4326 288.46H64.2737C65.1579 292.671 65.5388 297.315 65.3764 301.949C65.0591 311.016 63.6168 318.186 61.0945 323.286H52C54.5761 320.277 59.1981 311.237 52.4326 288.46ZM49.2466 332.007H49.077C49.0722 332.007 49.0678 332.008 49.063 332.008C48.3377 332 44.501 331.784 40.438 328.159C32.7931 321.339 30.2815 308.004 29.5204 298.018C27.3367 269.355 40.1817 254.361 42.1919 252.206H103.558C103.335 257.82 103.102 263.768 102.882 269.681H52.5993C49.7486 269.681 46.9831 270.97 44.6018 273.409C39.5974 278.534 36.8866 288.162 37.1638 299.826C37.2607 303.907 39.4777 324.291 47.626 325.122C47.7544 325.185 47.8973 325.224 48.0499 325.224H60.0252C56.6182 330.712 52.3343 331.965 49.2466 332.007ZM103.28 210.142H170.311C170.854 214.679 170.62 217.786 168.192 219.148H105.403C102.978 217.787 102.742 214.681 103.28 210.142ZM101.472 181.595V181.597C101.463 181.679 101.456 181.769 101.449 181.856C98.5058 182.549 95.4811 182.895 92.4816 182.884L88.5814 182.677C76.1623 181.354 64.5887 173.911 55.9889 161.716C55.9884 161.716 55.9884 161.715 55.9879 161.715C50.2427 153.571 46.1686 143.804 44.0029 133.236C42.8178 127.451 42.202 121.427 42.202 115.297C42.202 115.2 42.202 115.103 42.2074 114.964C42.2166 110.633 42.5426 106.288 43.1754 102.048V102.047C44.2563 94.7783 46.2132 87.8393 48.9927 81.4231C52.484 73.3611 57.0925 66.4624 62.6909 60.9164C67.1778 56.4634 72.1434 53.0651 77.4491 50.8161C82.3396 48.7448 87.4482 47.6949 92.6332 47.6949C93.0785 47.6949 93.5281 47.7041 93.9656 47.7187C99.172 47.9013 104.285 49.1489 109.168 51.4183C109.224 51.4445 109.281 51.4667 109.338 51.4934C116.758 54.9866 123.576 60.8839 129.055 68.5491C129.1 68.6126 129.152 68.6683 129.209 68.7172C130.718 75.5883 132.341 82.4231 133.741 88.13C132.962 87.3209 132.386 86.9614 132.325 86.9241C132.038 86.7589 125.243 82.9139 119.001 86.9493C117.633 87.8349 116.46 89.0806 115.501 90.6523C114.755 90.2371 108.244 86.8282 102.243 90.7138C99.2112 92.6751 97.1914 96.3049 96.2297 101.503H95.2447C94.0252 101.503 83.3314 101.866 83.3314 114.439C83.3314 119.173 84.6594 122.793 87.2791 125.199C89.9918 127.691 93.219 128.063 94.9007 128.063H95.6933C95.952 131.615 96.702 135.958 99.4574 137.618C100.209 145.716 102.835 155.297 102.871 155.426C105.66 164.362 106.142 172.932 106.225 175.538C104.419 176.022 101.928 177.658 101.472 181.595ZM126.619 38.0753C127.741 33.7778 131.421 31.4895 134.366 31.1824C137.095 30.895 139.347 32.1077 140.546 34.5045C143.811 41.0346 154.317 89.1954 154.812 91.4735C154.541 93.4105 153.62 100.008 153.466 101.503H148.351C143.864 99.1319 137.339 88.1116 134.493 83.0118C133.35 78.2506 132.128 72.9992 130.979 67.74C126.422 46.8747 126.093 40.0913 126.619 38.0753ZM156.766 91.4924C160.45 65.2148 164.912 37.0762 166.576 33.4479C168.442 29.38 172.128 28.0772 174.949 28.5884C177.406 29.0341 180.145 31.0854 180.46 35.506C180.983 42.8064 180.129 56.4454 180.121 56.5821C180.112 56.7163 180.132 56.8456 180.173 56.9648C169.505 67.1257 162.063 83.2502 159.624 101.503H155.413C155.531 100.492 155.969 97.1755 156.766 91.4924ZM232.212 47.1281C237.957 47.1281 243.593 48.4507 248.967 51.0554C249.018 51.0801 249.07 51.1029 249.121 51.1281C269.006 60.8776 282.367 86.8248 282.367 115.694C282.367 123.353 281.561 130.16 279.847 137.066C268.677 140.866 258.423 144.511 253.261 146.361C243.682 149.795 231.793 151.505 221.302 153.014C211.874 154.371 203.731 155.542 198.828 157.668C197.136 158.401 195.561 159.279 194.118 160.268C189.741 153.287 186.468 145.262 184.446 136.627C183.614 133.077 182.987 129.427 182.589 125.702C182.236 122.408 182.057 119.04 182.057 115.694C182.057 77.8868 204.556 47.1281 232.212 47.1281ZM217.624 189.55C215.858 189.123 214.404 189.055 214.342 189.052C214.188 189.044 214.043 189.077 213.911 189.135C212.941 188.935 212.359 188.704 212.015 188.502C211.111 187.97 210.143 187.205 209.125 186.227C212.334 186.395 216.255 186.529 220.634 186.529C224.242 186.529 228.161 186.439 232.248 186.202C244.93 186.191 257.134 179.954 266.63 168.635C268.956 168.255 270.986 167.827 272.662 167.359C276.39 166.317 281.398 164.812 287.942 162.768L292.021 177.869C282.993 178.059 273.239 178.843 262.836 182.613C258.295 184.26 251.523 185.903 243.768 187.239C233.714 188.961 223.711 189.846 217.624 189.55ZM208.208 217.031C207.023 217.3 206.067 217.438 205.366 217.438C205.278 217.438 203.159 217.296 198.932 204.927C196.625 198.179 194.86 191.177 194.7 189.899C194.672 189.686 194.576 189.499 194.438 189.354C194.426 189.284 194.418 189.217 194.406 189.146L194.354 188.833C194.075 187.164 192.665 178.923 192.15 175.912C192.723 175.89 193.508 175.849 194.489 175.779C194.497 175.84 194.51 175.901 194.53 175.962C194.568 176.081 194.765 176.812 194.992 177.66C200.376 197.73 204.822 210.972 208.208 217.031ZM206.021 185.784C207.789 187.779 209.475 189.255 211.034 190.173C212.254 190.888 214.32 191.314 217.34 191.476C219.318 191.971 221.735 192.986 222.208 195.025C223.017 198.532 217.118 200.359 217.06 200.376C216.796 200.455 216.578 200.643 216.461 200.891C216.344 201.14 216.338 201.427 216.445 201.68C216.48 201.764 219.526 208.993 221.008 212.66C220.908 212.669 220.811 212.689 220.719 212.728C220.658 212.754 214.898 215.188 210.086 216.55C210.068 216.437 210.033 216.324 209.974 216.219C206.658 210.367 202.247 197.225 196.864 177.158C196.643 176.337 196.52 175.878 196.446 175.614C197.288 175.534 198.112 175.447 198.932 175.351C198.937 175.497 198.971 175.645 199.046 175.782C199.171 176.01 202.147 181.402 206.021 185.784ZM206.176 174.287C208.559 173.874 210.996 173.392 213.447 172.841C217.319 171.969 225.488 171.588 234.947 171.146C244.486 170.702 255.178 170.201 263.68 169.068C254.781 178.886 243.686 184.265 232.212 184.265C222.994 184.265 214.012 180.812 206.176 174.287ZM103.935 138.735C105.782 138.735 107.597 138.199 109.16 137.146C111.145 135.807 112.843 133.17 113.698 130.512C113.689 130.538 114.153 131.404 114.225 131.495C114.781 132.201 115.092 132.61 115.507 133.035C115.905 133.44 116.298 133.68 116.637 134.077C118.668 136.459 120.724 140.028 120.49 144.564C118.566 147.374 117.333 150.524 116.858 153.977C116.784 154.507 117.155 154.996 117.685 155.069C117.73 155.076 117.775 155.079 117.819 155.079C118.295 155.079 118.71 154.727 118.778 154.242C121.372 135.41 147.054 132.87 147.313 132.846C147.721 132.809 148.062 132.52 148.164 132.124C148.267 131.728 148.11 131.31 147.772 131.08C147.743 131.061 144.89 129.113 141.368 126.293C137.906 123.528 135.017 120.911 132.784 118.516C130.606 116.187 129.088 114.105 128.272 112.325C125.978 107.318 126.923 102.307 129.043 99.9464C130.052 98.8224 131.837 97.677 134.609 98.5995C135.15 98.7797 135.782 99.0147 136.488 99.2967C138.705 100.186 141.7 101.574 145.387 103.42C152.028 106.753 158.659 110.461 158.725 110.498C158.755 110.515 158.787 110.525 158.818 110.538C158.747 112.084 158.709 113.679 158.709 115.297C158.709 128.59 162.049 142.796 168.111 155.336L165.389 175.374H108.162C108.076 172.55 107.578 164.002 104.73 154.879C104.705 154.786 102.326 146.106 101.484 138.406C102.295 138.617 103.117 138.735 103.935 138.735ZM126.511 113.132C127.348 114.959 128.822 117.035 130.88 119.302C130.877 119.328 130.871 119.352 130.87 119.378C130.803 122.241 130.417 124.711 129.721 126.721C129.326 127.87 128.831 128.867 128.246 129.72C127.084 131.116 125.436 132.498 123.218 133.095C121.416 133.437 119.418 133.191 117.523 132.36C115.759 131.587 114.698 128.758 114.37 123.95C114.164 121.002 114.244 117.667 114.314 114.724C114.369 112.446 114.421 110.295 114.338 108.579C114.106 103.763 114.328 97.0559 116.706 92.4527C117.59 90.7463 118.717 89.442 120.054 88.5762C125.284 85.194 131.295 88.568 131.329 88.5869C131.355 88.6024 133.845 90.209 135.391 94.7574C135.635 95.7221 135.83 96.4847 135.969 97.0234C135.707 96.928 135.455 96.8388 135.222 96.7608C132.324 95.7947 129.546 96.4842 127.6 98.6518C124.589 102.006 124.141 107.96 126.511 113.132ZM97.5688 127.028C97.4172 124.258 97.4903 121.186 97.5552 118.475C97.61 116.203 97.6613 114.056 97.579 112.343C97.4055 108.729 97.5451 105.473 97.9947 102.662C98.7985 97.569 100.582 94.0961 103.296 92.3408C108.526 88.9541 114.536 92.332 114.596 92.3664C114.597 92.3674 114.599 92.3679 114.601 92.3689C112.388 97.2899 112.172 103.885 112.402 108.672C112.482 110.318 112.431 112.436 112.377 114.677C112.308 117.58 112.231 120.856 112.422 123.826C112.408 123.896 112.399 123.969 112.401 124.045C112.553 129.474 111.017 133.556 108.077 135.539C105.945 136.975 103.211 137.194 100.764 136.124C98.9113 135.314 97.8682 132.364 97.5736 127.111C97.5736 127.105 97.5751 127.1 97.5751 127.094C97.5751 127.071 97.5703 127.051 97.5688 127.028ZM169.972 187.703C169.916 187.692 169.859 187.685 169.799 187.685H103.618C103.552 186.294 103.475 185.074 103.391 184.123C103.344 183.589 103.328 183.099 103.34 182.669C103.341 182.658 103.343 182.647 103.343 182.637C103.343 182.633 103.342 182.63 103.342 182.627C103.352 182.326 103.37 182.06 103.397 181.819V181.818C103.869 177.751 106.943 177.343 107.251 177.312H166.337C166.549 177.334 167.948 177.523 169.007 178.777C170.014 179.969 170.416 181.767 170.201 184.117C170.116 185.032 170.041 186.214 169.972 187.703ZM103.698 189.623H169.799C169.832 189.623 169.863 189.616 169.895 189.614C169.673 195.927 169.693 203.958 170.085 208.204H103.506C103.902 203.935 103.921 195.921 103.698 189.623ZM172.126 209.045C171.61 205.162 171.589 195.673 171.867 188.742C171.944 186.848 172.033 185.351 172.13 184.295C172.397 181.385 171.833 179.096 170.457 177.49C169.418 176.278 168.153 175.759 167.323 175.537L169.655 158.38C173.805 166.201 178.803 172.778 184.235 177.544C184.472 182.748 188.125 192.185 190.682 194.02C191.125 194.339 191.522 194.44 191.847 194.44C192.035 194.44 192.199 194.406 192.333 194.361C192.849 194.189 193.252 193.961 193.568 193.699C194.349 196.767 195.626 201.248 197.098 205.554C201.822 219.376 204.397 219.376 205.366 219.376C206.407 219.376 207.842 219.142 209.63 218.681C214.305 217.473 220.118 215.081 221.278 214.596L221.478 214.602L185.287 277.288H169.396L169.061 220.871C173.049 218.706 172.742 213.642 172.126 209.045ZM223.118 212.716C222.052 210.032 219.593 204.166 218.625 201.866C219.312 201.586 220.259 201.144 221.172 200.527C224.243 198.453 224.457 196.153 224.096 194.588C223.819 193.394 223.131 192.364 222.064 191.521C227.874 191.38 235.339 190.605 243.105 189.315L245.432 213.258C235.832 213.116 226.175 212.816 223.118 212.716ZM295.386 251.407C296.014 254.91 297.073 259.896 298.3 265.669C299.437 271.018 300.726 277.081 301.876 282.958C304.181 294.744 305.322 302.796 305.365 307.573C305.313 308.169 305.303 308.723 305.297 309.212C305.295 309.433 305.292 309.636 305.286 309.803C305.161 311.07 304.929 311.665 304.756 311.938C301.612 316.891 288.421 321.962 286.37 322.728L223.99 214.683C227.928 214.808 237.282 215.086 246.38 215.209C249.424 215.251 252.195 215.272 254.615 215.272C258.608 215.272 262.505 214.875 266.274 214.49C272.994 213.805 279.341 213.157 285.116 214.887C287.928 215.734 290.399 216.464 292.642 217.113C293.004 234.038 293.6 241.462 295.386 251.407ZM304.063 220.18C306.953 222.78 312.289 227.904 315.874 233.282C320.144 239.686 326.186 250.704 328.094 257.179C328.248 260.63 328.233 264.565 327.865 268.941C327.56 272.55 327.396 276.339 327.364 280.21L303.602 281.694C302.494 276.082 301.277 270.353 300.196 265.266C298.972 259.509 297.916 254.537 297.294 251.065C295.55 241.355 294.953 234.054 294.593 217.672C298.335 218.735 301.441 219.559 304.063 220.18ZM330.936 140.427C331.983 143.787 332.565 147.804 332.648 152.416C332.702 155.439 332.688 158.404 332.609 161.229C332.524 164.284 332.362 167.148 332.129 169.74C331.864 172.678 331.569 174.609 331.411 175.524C320.526 177.797 310.516 177.804 300.832 177.804C298.595 177.805 296.293 177.806 294.019 177.836L289.792 162.188C292.327 161.391 294.877 160.579 297.363 159.783C298.705 161.617 302.844 166.274 310.282 166.274C312.419 166.274 314.83 165.889 317.524 164.942C323.827 162.725 328.367 158.051 330.306 151.779C331.421 148.174 331.594 144.186 330.936 140.427ZM300.61 132.278C307.138 130.247 311.503 129.055 313.583 128.735C314.98 128.52 316.639 128.303 318.043 128.561C319.137 128.762 320.379 128.895 321.404 129.315C322.209 129.646 323.3 130.201 323.983 130.737C324.612 131.231 325.174 131.807 325.65 132.454C329.27 137.388 330.397 144.924 328.455 151.207C327.215 155.218 324.2 160.54 316.88 163.113C312.672 164.595 309.253 164.56 306.554 163.844C307.186 161.641 310.423 157.192 312.089 154.996C315.781 153.782 318.145 152.995 318.192 152.979C318.7 152.81 318.974 152.262 318.805 151.754C318.636 151.246 318.086 150.973 317.579 151.141C317.487 151.172 308.358 154.211 297.814 157.602C297.639 157.585 297.456 157.614 297.285 157.697C297.208 157.735 297.141 157.784 297.079 157.838C294.208 158.759 291.239 159.704 288.313 160.622C281.318 162.812 276.028 164.405 272.14 165.492C270.412 165.975 268.281 166.417 265.807 166.805C257.086 168.174 245.276 168.725 234.857 169.211C225.307 169.656 217.06 170.041 213.022 170.95C210.155 171.595 207.303 172.15 204.546 172.601C202.802 172.886 201.154 173.126 199.644 173.313C198.213 173.493 196.786 173.644 195.286 173.774C192.549 174 191.02 174.003 191.005 174.003C190.719 174.003 190.449 174.13 190.265 174.348C190.081 174.566 190.002 174.854 190.05 175.135C190.05 175.135 192.099 187.105 192.442 189.146L192.494 189.464C192.534 189.705 192.573 189.939 192.604 190.18C192.827 191.757 192.603 192.194 191.846 192.478C190.405 191.711 186.179 182.412 186.16 177.026C186.16 173.12 188.327 166.949 194.434 162.411C195.975 161.261 197.712 160.264 199.598 159.446C204.263 157.424 212.287 156.269 221.578 154.933C232.159 153.411 244.152 151.685 253.915 148.186C260.584 145.795 267.266 143.444 273.963 141.132C275.314 140.665 276.665 140.201 278.017 139.739C278.716 139.499 279.432 139.178 280.15 139.01C281.892 138.602 283.608 137.835 285.325 137.258C287.206 136.626 289.09 135.998 290.975 135.377C294.179 134.321 297.389 133.282 300.61 132.278ZM295.693 119.57C295.009 118.737 294.118 118.198 293.257 117.677C292.421 117.173 291.632 116.695 291.065 115.981C290 114.645 289.378 112.987 289.314 111.312C289.259 109.841 289.741 108.849 290.351 107.593C290.546 107.193 290.747 106.778 290.94 106.332C291.043 106.095 291.127 105.911 291.197 105.76C291.603 104.877 291.609 104.693 291.533 103.523L291.522 103.346C291.484 102.806 291.298 102.379 291.148 102.036C290.935 101.547 290.904 101.427 291.03 101.157C291.205 100.784 291.33 100.742 292.03 100.657C292.344 100.618 292.699 100.574 293.082 100.458C293.338 100.379 293.552 100.318 293.737 100.267C295.023 99.9033 295.322 99.7317 296.595 98.1731C296.758 97.974 296.925 97.7671 297.096 97.5554C298.092 96.3209 299.201 94.9546 300.454 94.0491C300.897 94.9323 301.143 96.9604 301.345 98.6339C301.719 101.733 302.107 104.938 303.78 106.191C304.387 106.646 305.126 106.816 305.918 106.684C306.156 106.644 306.37 106.517 306.519 106.328C307.93 104.54 310.641 103.697 312.826 104.365C313.789 104.66 315.432 105.515 315.611 107.924C315.639 108.326 315.633 108.732 315.597 109.138C315.258 110.493 314.825 111.805 314.31 113.039C313.679 114.053 312.007 116.178 309.35 115.537C308.276 115.275 306.255 114.466 304.796 111.989C304.524 111.529 303.929 111.375 303.469 111.647C303.008 111.919 302.855 112.513 303.126 112.974C304.947 116.063 307.52 117.085 308.893 117.421C309.369 117.536 309.842 117.592 310.307 117.592C311.009 117.592 311.111 117.505 311.58 118.067C311.942 118.502 312.268 118.965 312.578 119.438C313.223 120.425 313.783 121.463 314.406 122.463C315.235 123.791 316.064 125.119 316.892 126.447C315.698 126.406 314.468 126.64 313.291 126.819C311.229 127.136 307.116 128.243 301.063 130.109C301.056 129.999 301.034 129.889 300.987 129.782C300.843 129.452 297.433 121.695 295.693 119.57ZM319.808 102.183C319.488 101.021 318.781 99.2196 318.207 98.7502C318.99 99.2473 319.78 99.616 320.553 99.8117C321.994 100.386 323.721 100.936 325.446 100.936C327.417 100.936 329.385 100.217 330.918 97.9919C332.574 95.5816 332.461 91.8209 330.608 87.6756C327.484 80.6852 321.888 77.0166 317.728 76.4818C315.16 76.1523 312.897 76.865 311.35 78.49C309.583 80.3466 308.891 83.2041 309.451 86.3296C309.717 87.8185 310.568 89.7729 311.769 91.7356C307.919 90.2536 303.495 90.5791 301.092 91.4919C300.827 91.5912 300.557 91.7158 300.294 91.8587C298.38 92.8766 296.896 94.7158 295.588 96.3388C295.42 96.5467 295.256 96.7492 295.095 96.9459C294.115 98.146 294.115 98.146 293.211 98.4013C293.014 98.457 292.785 98.5215 292.515 98.6043C292.295 98.6717 292.052 98.7017 291.795 98.7327C291.046 98.8248 289.916 98.9638 289.276 100.335C288.766 101.422 289.131 102.257 289.372 102.811C289.481 103.059 289.574 103.274 289.588 103.474L289.599 103.649C289.653 104.478 289.653 104.478 289.436 104.95C289.362 105.111 289.272 105.307 289.162 105.561C288.98 105.981 288.791 106.37 288.608 106.746C287.938 108.126 287.305 109.429 287.377 111.385C287.457 113.471 288.229 115.533 289.548 117.187C290.33 118.173 291.352 118.791 292.254 119.336C293.009 119.792 293.722 120.224 294.195 120.799C295.361 122.224 297.835 127.417 299.212 130.559C299.229 130.599 299.257 130.629 299.278 130.664C294.463 132.174 288.667 134.077 282.014 136.33C283.567 129.679 284.305 123.072 284.305 115.694C284.305 86.1019 270.508 59.4556 249.973 49.3873C244.488 46.7017 238.735 45.2967 232.864 45.1993C232.736 45.1262 232.592 45.0777 232.434 45.0699C229.662 44.9333 226.701 44.8694 223.634 44.88C213.033 44.9038 203.998 45.7526 203.932 45.7594C196.246 46.2976 188.745 49.5491 182.144 55.1828C182.354 51.381 182.826 41.4168 182.393 35.3684C181.999 29.8413 178.468 27.257 175.295 26.6814C171.734 26.0355 167.114 27.6281 164.815 32.6397C162.729 37.1886 157.699 71.2385 155.59 85.9808C152.688 72.8737 145.093 39.2662 142.279 33.6378C140.723 30.5249 137.69 28.8863 134.164 29.2545C129.78 29.7124 125.906 33.1383 124.744 37.5859C123.954 40.6116 125.107 49.3757 128.261 64.318C123.039 57.8883 116.843 52.8839 110.163 49.7395C105.359 47.4813 100.335 46.1843 95.2112 45.8534C95.0993 45.7991 94.9748 45.7657 94.843 45.7584C94.5751 45.7434 94.3077 45.7337 94.047 45.724C91.8895 45.629 89.5591 45.5898 86.9249 45.6068C75.2103 45.6789 63.626 46.8887 63.5552 46.897C42.2345 48.1484 19.407 75.9319 19.407 115.297C19.407 131.595 23.4283 147.545 30.7311 160.208C38.3367 173.396 48.7742 181.525 60.1216 183.098C60.1488 183.101 60.1759 183.104 60.203 183.105C60.203 183.105 88.4588 184.612 88.468 184.613C89.8396 184.757 91.2403 184.832 92.6342 184.832C95.5853 184.832 98.5392 184.503 101.433 183.856C101.442 184.001 101.447 184.139 101.46 184.292C101.56 185.423 101.651 186.947 101.723 188.698C102 195.46 101.98 205.162 101.465 209.045C100.842 213.72 100.53 218.884 104.729 220.984C104.773 221.006 104.819 221.019 104.865 221.034C104.78 222.979 104.24 235.306 103.636 250.268H41.7805C41.53 250.268 41.2893 250.364 41.109 250.538C40.4564 251.165 25.1584 266.275 27.5877 298.166C28.7432 313.32 32.6798 323.94 39.2883 329.729C43.8193 333.698 48.0887 333.948 49.0887 333.948C49.172 333.948 49.2326 333.946 49.2689 333.945H120.55C120.668 333.945 120.78 333.921 120.885 333.882H285.404C289.526 333.882 293.649 333.931 297.77 334.041C304.273 334.213 309.734 334.296 314.312 334.296C332.847 334.296 336.9 332.935 336.979 330.615C337.008 329.74 336.834 328.353 336.447 326.372C335.36 320.916 332.913 312.523 331.551 308.006C331.32 307.24 331.161 306.729 331.108 306.555C330.958 305.64 329.249 294.859 329.291 281.147C329.301 277.003 329.471 272.951 329.796 269.104C330.689 258.484 329.561 250.406 328.886 245.58C328.65 243.893 328.464 242.561 328.427 241.625C328.075 232.625 331.636 224.546 334.778 217.418C336.32 213.92 337.911 210.403 338.917 206.704C339.378 205.01 339.71 203.273 339.793 201.517C339.985 197.469 339.536 193.092 338.561 189.164C338.561 189.051 338.762 188.887 338.908 188.799C340.082 188.083 367.584 171.095 361.531 156.14C356.42 143.511 331.244 131.821 326.014 129.507C324.781 128.962 323.484 128.14 322.144 127.662C321.125 127.299 319.142 126.333 319.046 126.237L313.858 117.924C313.858 117.924 323.284 114.837 319.808 102.183Z" fill="#700051"/>
<path d="M235.972 97.1378C236.054 97.1378 236.134 97.1378 236.235 97.1421C243.197 97.3354 248.859 105.351 248.859 115.011C248.859 117.056 248.609 119.072 248.115 121C247.369 123.896 246.078 126.503 244.38 128.541C242.164 131.192 239.344 132.73 236.43 132.871C233.877 133.016 231.354 132.066 229.193 130.198C229.193 130.198 229.193 130.198 229.192 130.198C225.371 126.897 223.089 121.22 223.089 115.011C223.089 105.156 228.868 97.1378 235.972 97.1378ZM222.48 131.664C222.48 131.664 222.48 131.665 222.481 131.665C224.875 133.73 227.659 134.822 230.531 134.822C230.848 134.822 231.438 134.863 232.062 134.907C233.182 134.986 234.184 135.048 235.01 135.048C235.77 135.048 236.383 134.995 236.802 134.853C236.865 134.831 236.925 134.804 236.981 134.771C240.271 134.478 243.411 132.723 245.868 129.784C245.868 129.784 245.868 129.784 245.868 129.784C245.868 129.783 245.869 129.783 245.869 129.783C247.749 127.525 249.175 124.655 249.992 121.483V121.482H249.992C250.527 119.396 250.797 117.219 250.797 115.011C250.797 104.313 244.635 95.7284 236.715 95.2303C236.655 95.1988 236.591 95.1722 236.524 95.1533C235.789 94.9478 234.153 95.0176 231.922 95.1383C231.311 95.1712 230.784 95.1998 230.531 95.1998C222.359 95.1998 215.71 104.087 215.71 115.011C215.71 121.773 218.241 127.999 222.48 131.664Z" fill="#700051"/>
</g>
<defs>
<clipPath id="clip0_23283_162557">
<rect width="375" height="375" fill="white" transform="translate(0 -0.000244141)"/>
</clipPath>
</defs>
</svg>
