<svg width="344" height="309" viewBox="0 0 344 309" fill="none" xmlns="http://www.w3.org/2000/svg">
<path d="M340.734 130.867C337.38 122.577 323.354 113.492 310.719 107.363C312.903 110.518 314.371 114.728 315.087 119.85C316.241 122.424 321.019 133.058 322.841 136.77L323.826 137.113C324.178 137.235 324.428 137.548 324.47 137.918C324.513 138.288 324.339 138.649 324.024 138.848L315.002 144.528C314.714 147.54 314.406 149.403 314.268 150.158C314.972 151.336 317.302 155.471 318.952 161.112C320.251 160.305 346.064 144.036 340.734 130.867Z" fill="#D8375D"/>
<path d="M278.294 225.065C278.916 228.538 279.972 233.509 281.196 239.266C282.277 244.353 283.494 250.083 284.602 255.694L308.364 254.21C308.396 250.339 308.56 246.55 308.865 242.941C309.233 238.565 309.248 234.63 309.094 231.18C307.186 224.704 301.144 213.686 296.875 207.282C293.289 201.904 287.953 196.78 285.063 194.18C282.441 193.559 279.335 192.735 275.593 191.672C275.953 208.054 276.55 215.355 278.294 225.065Z" fill="white"/>
<path d="M312.765 151.43C301.702 153.735 291.603 153.742 281.832 153.743C279.349 153.743 276.782 153.743 274.274 153.783C265.076 153.928 255.102 154.592 244.496 158.435C240.034 160.053 233.499 161.661 226.02 162.987L228.372 187.183C228.375 187.217 228.372 187.251 228.372 187.285C231.029 187.318 233.462 187.335 235.615 187.335C239.509 187.335 243.357 186.942 247.077 186.563C253.995 185.857 260.529 185.19 266.673 187.032C269.808 187.974 272.517 188.774 274.957 189.475C282.728 191.707 287.831 192.948 291.505 193.499C310.317 196.339 315.747 189.432 318.111 178.187C318.468 176.491 318.667 174.71 318.701 172.893C318.768 169.601 318.31 166.115 317.34 162.53C315.87 157.101 313.613 152.9 312.765 151.43Z" fill="white"/>
<path d="M298.524 138.941C295.831 139.889 293.419 140.274 291.282 140.274C283.845 140.274 279.706 135.618 278.363 133.783C275.878 134.579 273.327 135.391 270.792 136.188L275.019 151.836C277.293 151.806 279.596 151.805 281.832 151.804C291.516 151.804 301.526 151.797 312.411 149.525C312.569 148.609 312.864 146.678 313.129 143.74C313.362 141.148 313.524 138.284 313.61 135.229C313.689 132.404 313.702 129.439 313.648 126.416C313.565 121.804 312.984 117.787 311.937 114.427C312.594 118.187 312.421 122.174 311.306 125.779C309.367 132.05 304.828 136.725 298.524 138.941Z" fill="#FE874F"/>
<path d="M284.977 257.613C286.637 266.2 287.65 272.638 288.073 277.351C288.782 276.659 289.703 276.197 290.837 275.977C293.063 275.538 295.104 276.504 296.735 278.767C297.455 279.766 297.937 280.803 298.2 281.451C302.879 281.606 309.839 281.819 310.419 281.777C310.432 281.776 310.444 281.778 310.456 281.776C310.318 281.326 310.239 281.071 310.238 281.069C310.225 281.027 310.214 280.985 310.207 280.942C310.189 280.833 308.397 270.103 308.354 256.152L284.977 257.613Z" fill="#D8375D"/>
<path d="M261.763 112.549C261.741 112.543 261.101 112.613 261.079 112.606C249.985 116.382 240.046 120.347 234.915 122.186C225.152 125.685 213.159 127.411 202.579 128.933C193.287 130.269 185.264 131.424 180.598 133.446C178.712 134.264 176.975 135.261 175.434 136.411C169.327 140.949 167.16 147.12 167.16 151.026C167.179 156.412 171.406 165.711 172.846 166.478C173.603 166.194 173.828 165.757 173.604 164.18C173.573 163.939 173.534 163.705 173.494 163.464L173.442 163.147C173.099 161.105 171.05 149.135 171.05 149.135C171.002 148.854 171.081 148.566 171.265 148.348C171.449 148.13 171.72 148.003 172.005 148.003C172.02 148.003 173.549 148 176.286 147.774C177.786 147.644 179.213 147.493 180.644 147.313C182.154 147.126 183.802 146.886 185.546 146.601C188.304 146.15 191.155 145.595 194.022 144.95C198.06 144.041 206.307 143.656 215.857 143.211C226.277 142.725 238.086 142.174 246.807 140.805C249.281 140.417 251.412 139.975 253.14 139.492C257.028 138.405 262.318 136.812 269.313 134.622C272.239 133.704 275.208 132.759 278.079 131.838C278.141 131.784 278.208 131.735 278.285 131.697C278.456 131.614 278.639 131.585 278.814 131.602C289.359 128.211 298.487 125.172 298.579 125.141C299.086 124.973 299.636 125.246 299.805 125.754C299.974 126.262 299.7 126.81 299.192 126.979C299.145 126.995 296.781 127.782 293.089 128.996C291.423 131.192 288.186 135.641 287.554 137.844C290.253 138.56 293.672 138.595 297.881 137.113C305.2 134.54 308.215 129.218 309.455 125.207C311.397 118.924 310.27 111.388 306.651 106.454C306.174 105.807 305.997 104.664 305.368 104.17C302.846 103.089 301.415 102.592 301.036 102.517C300.7 102.541 299.8 102.518 299.61 102.232C297.987 102.008 296.426 102.455 294.583 102.735C292.503 103.055 288.139 104.247 281.61 106.278C276.378 107.909 270.358 109.483 262.846 112.036C262.624 112.361 262.166 112.649 261.763 112.549Z" fill="#D8375D"/>
<path d="M298.072 100.807C298.289 100.839 298.506 100.831 298.647 100.693C298.076 99.6431 297.448 98.6155 296.807 97.5792C296.192 96.5825 295.552 95.5971 294.946 94.5961C294.552 93.9464 294.222 93.2623 293.787 92.6392C293.593 92.3616 293.097 91.521 292.796 91.4164C292.461 91.3001 291.692 91.5922 291.307 91.5922C290.841 91.5922 290.369 91.5356 289.893 91.4207C288.52 91.0859 285.947 90.0632 284.126 86.974C283.855 86.5128 284.008 85.9188 284.469 85.647C284.93 85.3752 285.524 85.5288 285.796 85.99C287.255 88.4658 289.276 89.2754 290.35 89.5375C293.007 90.178 294.679 88.054 295.309 87.0389C295.825 85.8054 296.258 84.4934 296.597 83.1383C296.634 82.7323 296.639 82.3263 296.611 81.9241C296.432 79.5147 294.789 78.6601 293.826 78.3655C291.641 77.6969 288.93 78.5409 287.519 80.3282C287.37 80.5176 287.155 80.6441 286.918 80.6838C286.126 80.8161 285.386 80.6455 284.779 80.1911C283.106 78.9382 282.719 75.7337 282.345 72.6339C282.143 70.961 281.898 68.9329 281.454 68.0491C280.201 68.9551 279.092 70.3209 278.096 71.5559C277.925 71.7676 277.758 71.974 277.595 72.1732C276.322 73.7318 276.023 73.9033 274.737 74.2667C274.552 74.319 274.338 74.3796 274.082 74.4576C273.699 74.5748 273.344 74.6184 273.03 74.6567C272.33 74.7429 272.205 74.7836 272.031 75.1572C271.904 75.4275 271.935 75.5467 272.148 76.0356C272.298 76.3791 272.485 76.8064 272.522 77.3456L272.533 77.5234C272.609 78.6935 272.603 78.8766 272.197 79.7604C272.127 79.9106 272.042 80.0947 271.94 80.3316C271.746 80.7783 271.546 81.193 271.351 81.5927C270.741 82.849 270.259 83.8413 270.314 85.3122C270.378 86.9871 271 88.6455 272.065 89.9813C272.632 90.6954 273.421 91.1727 274.257 91.6775C275.118 92.1988 276.009 92.7371 276.693 93.5704C278.433 95.695 281.843 103.453 281.987 103.782C282.034 103.889 282.056 103.999 282.063 104.109C288.116 102.243 292.229 101.136 294.291 100.819C294.853 100.734 295.405 100.677 295.951 100.634C296.082 100.546 296.592 100.88 296.761 100.865C296.794 100.861 297.008 100.416 297.893 100.448L293.967 92.3146C293.772 92.0012 292.677 91.6824 292.852 91.3771" fill="#D8375D"/>
<path d="M167.659 252.787C167.656 252.792 167.654 252.796 167.652 252.8L136.969 305.944H153.201L202.717 220.183C202.89 219.883 203.21 219.699 203.556 219.699C203.903 219.699 204.222 219.883 204.395 220.183L253.907 305.944H270.453L203.711 190.343L167.659 252.787Z" fill="#F6F6F6"/>
<path d="M211.531 69.1999C211.784 69.1999 212.312 69.1713 212.922 69.1383C215.153 69.0177 216.789 68.9479 217.524 69.1533C217.592 69.1722 217.655 69.1989 217.715 69.2304C225.635 69.7284 231.798 78.3127 231.798 89.0109C231.798 91.2192 231.527 93.3961 230.992 95.4823H230.992V95.4833C230.175 98.6553 228.75 101.525 226.869 103.783C226.868 103.783 226.868 103.783 226.868 103.784C226.868 103.784 226.868 103.784 226.868 103.784C224.411 106.723 221.271 108.478 217.981 108.772C217.925 108.804 217.865 108.831 217.802 108.853C217.383 108.995 216.77 109.048 216.01 109.048C215.184 109.048 214.182 108.986 213.063 108.907C212.438 108.863 211.848 108.822 211.531 108.822C208.659 108.822 205.876 107.73 203.481 105.665C203.48 105.665 203.48 105.664 203.48 105.664C199.241 101.999 196.71 95.7735 196.71 89.0109C196.71 78.087 203.359 69.1999 211.531 69.1999ZM165.446 110.627C167.469 119.262 170.741 127.288 175.118 134.268C176.562 133.279 178.136 132.401 179.828 131.668C184.731 129.542 192.874 128.371 202.303 127.014C212.793 125.505 224.683 123.795 234.262 120.361C239.423 118.511 249.678 114.867 260.848 111.066C262.562 104.16 263.367 97.3534 263.367 89.694C263.367 60.8249 250.007 34.8777 230.121 25.1282C230.07 25.103 230.018 25.0802 229.968 25.0555L166.192 112.722C166.192 112.722 165.897 111.981 165.446 110.627Z" fill="#F6F6F6"/>
<path d="M244.68 143.068C236.178 144.201 225.486 144.702 215.947 145.146C206.488 145.588 198.319 145.969 194.447 146.841C191.996 147.392 189.559 147.874 187.176 148.287C195.012 154.812 203.994 158.265 213.212 158.265C224.686 158.265 235.781 152.886 244.68 143.068Z" fill="#F6F6F6"/>
<path d="M174.561 305.803H232.522L203.542 255.605L174.561 305.803Z" fill="#FE874F"/>
<path d="M163.057 89.694C163.057 93.0404 163.236 96.4077 163.59 99.7022C163.987 103.427 164.615 107.077 165.446 110.627C165.897 111.981 166.192 112.722 166.192 112.722L229.967 25.0554C224.593 22.4508 218.957 21.1281 213.212 21.1281C185.557 21.1281 163.057 51.8868 163.057 89.694Z" fill="white"/>
<path d="M210.192 104.198C212.354 106.066 214.876 107.016 217.43 106.871C220.344 106.73 223.164 105.193 225.38 102.542C227.078 100.504 228.369 97.896 229.114 95.0007C229.609 93.0724 229.859 91.0569 229.859 89.0108C229.859 79.3514 224.196 71.3355 217.235 71.1421C217.134 71.1378 217.054 71.1383 216.972 71.1383C209.868 71.1383 204.089 79.1557 204.089 89.0108C204.089 95.2206 206.371 100.898 210.192 104.198Z" fill="#F6F6F6"/>
<path d="M203.064 165.521C204.131 166.364 204.819 167.394 205.096 168.589C205.457 170.154 205.243 172.453 202.172 174.527C201.259 175.144 200.313 175.587 199.625 175.866C200.593 178.167 203.052 184.033 204.118 186.717C207.175 186.816 216.832 187.116 226.432 187.258L224.105 163.315C216.34 164.606 208.874 165.38 203.064 165.521Z" fill="#D8375D"/>
<path d="M149.433 253.226C148.9 253.226 148.467 252.795 148.464 252.263L148.124 195.086H112.929C105.726 197.325 90.7141 202.598 87.2228 208.6C87.0257 213.28 86.7941 218.851 86.5533 224.826C86.6119 224.951 86.6473 225.089 86.6473 225.236C86.6473 225.41 86.5978 225.571 86.5179 225.712C86.2757 231.788 86.0208 238.275 85.7839 244.695C85.1967 260.692 84.8449 272.56 84.7383 279.969C84.5649 291.873 86.123 299.08 89.6414 302.65C91.9472 304.989 95.1012 305.944 100.528 305.944H134.731L165.168 253.226H149.433Z" fill="#FFAFA8"/>
<path d="M161.173 30.9648C161.131 30.8456 161.112 30.7163 161.12 30.5825C161.129 30.4454 161.982 16.8069 161.46 9.50647C161.144 5.08545 158.406 3.03458 155.949 2.58884C153.128 2.0777 149.441 3.38051 147.576 7.44785C145.912 11.0767 141.45 39.2153 137.766 65.4924C136.969 71.1756 136.53 74.4919 136.412 75.5031H140.624C143.063 57.2507 150.505 41.1257 161.173 30.9648Z" fill="#FFAFA8"/>
<path d="M86.4029 193.148H149.193C151.62 191.786 151.854 188.679 151.311 184.142H84.2803C83.7416 188.681 83.9775 191.787 86.4029 193.148Z" fill="#FF4239"/>
<path d="M150.007 152.777C148.948 151.523 147.549 151.334 147.337 151.312H88.2513C87.9432 151.343 84.8686 151.751 84.3971 155.818V155.819C84.3695 156.06 84.3516 156.326 84.3419 156.627C84.3419 156.63 84.3429 156.633 84.3429 156.637C84.3429 156.647 84.3405 156.658 84.34 156.669C84.3274 157.1 84.3443 157.589 84.3904 158.123C84.4747 159.074 84.5522 160.294 84.6181 161.685H150.799C150.858 161.685 150.916 161.693 150.972 161.703C151.041 160.214 151.116 159.032 151.2 158.117C151.416 155.767 151.014 153.969 150.007 152.777Z" fill="#FF4239"/>
<path d="M151.085 182.204C150.693 177.959 150.674 169.928 150.895 163.614C150.863 163.617 150.832 163.623 150.799 163.623H84.6982C84.9216 169.921 84.9017 177.935 84.5063 182.204H151.085Z" fill="#D8375D"/>
<path d="M89.1622 149.374H146.389L149.111 129.336C143.049 116.796 139.709 102.59 139.709 89.2967C139.709 87.6789 139.747 86.0845 139.817 84.5379C139.787 84.5249 139.755 84.5147 139.725 84.4977C139.658 84.4609 133.028 80.7531 126.387 77.4202C122.699 75.5738 119.705 74.1862 117.488 73.2967C116.782 73.0147 116.149 72.7797 115.608 72.5995C112.837 71.677 111.052 72.8223 110.042 73.9464C107.923 76.3073 106.978 81.3175 109.272 86.3252C110.088 88.1048 111.606 90.1872 113.784 92.5157C116.017 94.9115 118.905 97.5282 122.368 100.293C125.889 103.113 128.743 105.061 128.772 105.08C129.11 105.31 129.267 105.728 129.164 106.124C129.061 106.52 128.721 106.809 128.313 106.846C128.054 106.87 102.371 109.41 99.777 128.242C99.7101 128.727 99.2949 129.079 98.8182 129.079C98.7746 129.079 98.73 129.076 98.685 129.069C98.1549 128.996 97.7843 128.507 97.8574 127.977C98.3332 124.524 99.5658 121.374 101.49 118.564C101.724 114.028 100.077 110.058 98.0464 107.676C96.9824 107.176 96.0294 105.798 95.4383 104.74C95.1525 104.502 94.559 103.809 94.3555 103.657C93.5008 106.315 92.1452 109.807 90.1598 111.146C88.5968 112.199 86.7819 112.735 84.935 112.735C84.1171 112.735 83.2949 112.617 82.4839 112.406C83.3255 120.106 85.7048 128.786 85.73 128.879C88.5779 138.002 89.0755 146.55 89.1622 149.374Z" fill="#FFAFA8"/>
<path d="M115.494 57.0124C118.34 62.1122 124.865 73.1325 129.351 75.5036H134.466C134.621 74.0089 135.541 67.4106 135.812 65.4736C135.317 63.196 124.811 15.0346 121.546 8.50461C120.348 6.10829 118.096 4.8956 115.366 5.18242C112.422 5.49007 108.741 7.77835 107.619 12.0758C107.093 14.0918 107.422 20.8752 111.979 41.7406C113.128 46.9998 114.35 52.2512 115.494 57.0124Z" fill="#FFAFA8"/>
<path d="M116.222 70.7614C116.455 70.8394 116.707 70.9285 116.969 71.024C116.831 70.4852 116.635 69.7226 116.391 68.758C114.846 64.2095 112.355 62.6029 112.33 62.5874C112.295 62.568 106.285 59.194 101.054 62.5768C99.7172 63.4426 98.5902 64.7463 97.7065 66.4527C95.3291 71.0559 95.1062 77.7633 95.3383 82.5792C95.4211 84.2953 95.3693 86.4464 95.315 88.724C95.2443 91.6669 95.1644 95.0026 95.3707 97.9503C95.6983 102.758 96.7593 105.587 98.5234 106.36C100.419 107.191 102.416 107.437 104.219 107.095C106.437 106.498 108.084 105.116 109.246 103.72C109.831 102.868 110.326 101.871 110.721 100.721C111.417 98.7119 111.803 96.242 111.871 93.3781C111.871 93.3524 111.878 93.3282 111.88 93.303C109.822 91.0346 108.348 88.959 107.511 87.133C105.142 81.961 105.59 76.0065 108.6 72.6523C110.546 70.4847 113.324 69.7948 116.222 70.7614Z" fill="#FFAFA8"/>
<path d="M87.2255 149.539C87.1422 146.933 86.6601 138.362 83.8714 129.426C83.8355 129.298 81.2091 119.716 80.4576 111.618C77.7018 109.958 76.9518 105.616 76.6931 102.064H75.9009C74.2188 102.064 70.992 101.692 68.2793 99.1999C65.6597 96.7939 64.3312 93.1737 64.3312 88.4397C64.3312 75.8661 75.0254 75.5032 76.2449 75.5032H77.2294C78.1916 70.3055 80.211 66.6752 83.243 64.7139C89.2444 60.8283 95.7551 64.2377 96.5012 64.6529C97.4605 63.0812 98.6325 61.8355 100.002 60.9494C106.243 56.9145 113.038 60.759 113.324 60.9247C113.386 60.962 113.962 61.321 114.741 62.1306C113.341 56.4237 111.718 49.5884 110.209 42.7178C110.152 42.6689 110.1 42.6132 110.055 42.5497C104.576 34.8845 97.7585 28.9867 90.3379 25.4935C90.2812 25.4668 90.2241 25.4446 90.1674 25.4184L26.6568 112.722C26.0337 110.872 25.4867 109.044 25.0032 107.236C27.1689 117.804 31.243 127.571 36.9882 135.715C36.9886 135.715 36.9886 135.716 36.9886 135.716C45.5889 147.911 57.1626 155.354 69.5816 156.678L73.4814 156.884C76.4809 156.895 79.5056 156.549 82.4489 155.856C82.4562 155.77 82.4625 155.68 82.4721 155.597V155.595C82.9285 151.659 85.4184 150.022 87.2255 149.539Z" fill="#F6F6F6"/>
<path d="M82.8146 284.194C82.7836 282.846 82.7783 281.431 82.8001 279.942C82.9047 272.674 83.2448 261.123 83.8107 245.619H38.7638C42.3243 248.374 45.3214 253.911 46.9861 261.223C48.0331 265.803 48.492 270.92 48.3127 276.017C47.9735 285.721 46.3616 293.374 43.5215 298.765C41.6087 302.389 39.3481 304.64 37.0869 306.007H51.4236C67.0554 301.576 79.568 287.978 82.8146 284.194Z" fill="#FF4239"/>
<path d="M81.7642 110.124C84.2109 111.195 86.9454 110.976 89.0772 109.539C92.0176 107.557 93.5534 103.475 93.4018 98.0448C93.3998 97.9697 93.4081 97.897 93.4226 97.8263C93.2317 94.8558 93.3078 91.5797 93.3775 88.6776C93.4313 86.4358 93.4822 84.319 93.4023 82.6722C93.1716 77.8849 93.3882 71.2904 95.6014 66.3694C95.5994 66.3685 95.598 66.368 95.5961 66.367C95.536 66.3326 89.5263 62.9547 84.2961 66.3408C81.5825 68.0966 79.7986 71.569 78.9953 76.6621C78.5457 79.4731 78.4056 82.7299 78.5796 86.3437C78.6619 88.0569 78.6101 90.2032 78.5558 92.4755C78.4904 95.1863 78.4173 98.258 78.5689 101.029C78.5704 101.051 78.5757 101.072 78.5757 101.095C78.5757 101.1 78.5742 101.105 78.5742 101.111C78.8683 106.365 79.9115 109.314 81.7642 110.124Z" fill="#FFAFA8"/>
<path d="M90.1673 25.4183C85.285 23.1489 80.1721 21.9018 74.9657 21.7187C74.5277 21.7046 74.0781 21.6949 73.6334 21.6949C68.4478 21.6949 63.3393 22.7453 58.4492 24.8161H58.4488C53.143 27.0651 48.1779 30.4638 43.6905 34.9168C38.0922 40.4624 33.4837 47.3616 29.9924 55.4231C27.2133 61.8398 25.2559 68.7788 24.175 76.0477V76.0486C23.5423 80.2885 23.2162 84.6339 23.207 88.9648C23.2017 89.1029 23.2022 89.1998 23.2022 89.2967C23.2022 95.428 23.8175 101.451 25.003 107.236C25.4866 109.044 26.0336 110.872 26.6566 112.722L90.1673 25.4183Z" fill="white"/>
<path d="M41.0252 299.224H29.0504C28.8973 299.224 28.7543 299.185 28.6259 299.122C20.4782 298.291 18.2611 277.907 18.1637 273.826C17.8866 262.163 20.5974 252.534 25.6017 247.41C27.983 244.971 30.7485 243.681 33.5998 243.681H83.8827C84.1017 237.768 84.3352 231.821 84.5586 226.206H23.1918C21.1821 228.361 8.33718 243.355 10.5203 272.019C11.2815 282.004 13.7936 295.339 21.4384 302.16C25.5014 305.784 29.3377 306.001 30.063 306.008C30.0678 306.008 30.0726 306.007 30.0775 306.007H30.2471C33.3343 305.965 37.6182 304.712 41.0252 299.224Z" fill="#FF4239"/>
<path d="M46.3765 275.949C46.5388 271.315 46.1579 266.671 45.2737 262.46H33.4327C40.1982 285.237 35.5761 294.277 33 297.286H42.0945C44.6168 292.186 46.0591 285.017 46.3765 275.949Z" fill="#FF4239"/>
<path d="M321.286 138.281L315.205 142.11C315.342 140.271 315.443 138.316 315.512 136.275L321.286 138.281ZM318.952 161.112C317.302 155.471 314.972 151.335 314.268 150.158C314.406 149.402 314.714 147.54 315.001 144.527L324.024 138.847C324.339 138.649 324.513 138.287 324.47 137.917C324.428 137.547 324.177 137.234 323.826 137.112L322.841 136.77C321.019 133.058 316.241 122.423 315.087 119.849C314.371 114.727 312.903 110.518 310.718 107.363C323.354 113.492 337.38 122.577 340.734 130.866C346.064 144.035 320.25 160.304 318.952 161.112ZM318.702 172.893C318.667 174.709 318.468 176.49 318.111 178.186C315.747 189.432 310.317 196.338 291.505 193.499C287.831 192.948 282.728 191.707 274.957 189.475C272.517 188.773 269.808 187.974 266.673 187.031C260.529 185.19 253.995 185.856 247.077 186.562C243.357 186.942 239.509 187.334 235.615 187.334C233.462 187.334 231.029 187.317 228.372 187.284C228.372 187.25 228.375 187.217 228.372 187.183L226.02 162.986C233.499 161.661 240.034 160.053 244.496 158.434C255.102 154.591 265.076 153.927 274.274 153.783C276.782 153.743 279.349 153.743 281.832 153.742C291.603 153.742 301.702 153.735 312.765 151.43C313.613 152.899 315.87 157.101 317.34 162.529C318.311 166.115 318.768 169.601 318.702 172.893ZM310.238 281.069C310.238 281.071 310.318 281.326 310.456 281.776C310.443 281.777 310.432 281.775 310.42 281.777C309.84 281.819 302.878 281.606 298.2 281.451C297.936 280.802 297.455 279.765 296.735 278.767C295.105 276.504 293.063 275.538 290.837 275.976C289.703 276.197 288.782 276.659 288.073 277.35C287.651 272.638 286.637 266.2 284.977 257.612L308.354 256.152C308.397 270.103 310.188 280.832 310.207 280.941C310.215 280.985 310.225 281.027 310.238 281.069ZM310.999 283.581C312.144 287.415 314.255 294.7 315.35 299.803C315.311 299.806 315.272 299.807 315.233 299.815C307.165 301.452 284.473 301.077 274.782 300.917C271.169 300.857 270.296 300.848 270.02 300.885C269.945 300.896 269.873 300.917 269.804 300.944L268.353 298.43C271.313 297.316 284.015 292.296 287.393 286.975C287.75 286.41 287.997 285.619 288.144 284.574C288.154 284.537 288.166 284.502 288.171 284.464C288.193 284.324 288.206 284.156 288.217 283.961C288.28 283.299 288.307 282.54 288.304 281.646C288.511 279.363 289.38 278.234 291.208 277.879C294.778 277.182 296.578 282.637 296.596 282.691C296.72 283.082 297.077 283.352 297.486 283.366C301.242 283.491 310.039 283.779 310.633 283.703C310.765 283.687 310.889 283.644 310.999 283.581ZM315.719 301.683C315.943 302.947 316.053 303.889 316.044 304.479C315.77 304.801 313.914 306.028 301.494 306.317C293.726 306.497 284.756 306.261 278.822 306.103C275.396 306.013 273.529 305.966 272.721 305.996L270.876 302.801C271.675 302.803 273.132 302.828 274.75 302.854C278.438 302.915 283.995 303.007 289.93 303.007C299.691 303.007 310.473 302.758 315.619 301.714C315.654 301.707 315.686 301.694 315.719 301.683ZM270.453 305.944H253.907L204.395 220.183C204.222 219.883 203.902 219.699 203.556 219.699C203.21 219.699 202.89 219.883 202.717 220.183L153.2 305.944H136.968L167.651 252.801C167.654 252.796 167.656 252.792 167.658 252.787L203.711 190.343L270.453 305.944ZM174.561 305.803L203.542 255.605L232.522 305.803H174.561ZM134.731 305.944H100.528C95.1008 305.944 91.9467 304.989 89.6415 302.65C86.1226 299.08 84.5644 291.873 84.7384 279.969C84.8445 272.56 85.1962 260.691 85.7839 244.695C86.0203 238.275 86.2757 231.788 86.5174 225.712C86.5974 225.571 86.6473 225.41 86.6473 225.237C86.6473 225.089 86.6119 224.951 86.5528 224.826C86.7941 218.851 87.0252 213.28 87.2224 208.6C90.7137 202.598 105.726 197.325 112.928 195.086H148.124L148.464 252.263C148.467 252.795 148.9 253.226 149.433 253.226H165.168L134.731 305.944ZM43.5218 298.765C46.3614 293.374 47.9738 285.72 48.313 276.017C48.4918 270.92 48.033 265.803 46.9864 261.223C45.3212 253.911 42.3246 248.374 38.7636 245.619H83.811C83.2451 261.123 82.9045 272.674 82.8004 279.941C82.7786 281.431 82.7839 282.846 82.8149 284.194C79.5678 287.978 67.0557 301.576 51.4239 306.007H37.0867C39.3484 304.64 41.6085 302.389 43.5218 298.765ZM33.4326 262.46H45.2737C46.1579 266.671 46.5387 271.315 46.3764 275.949C46.0591 285.016 44.6168 292.186 42.0945 297.286H33C35.5761 294.277 40.1981 285.237 33.4326 262.46ZM30.2466 306.007H30.077C30.0722 306.007 30.0678 306.008 30.063 306.008C29.3377 306 25.501 305.784 21.438 302.159C13.7931 295.339 11.2815 282.004 10.5204 272.018C8.33674 243.355 21.1817 228.361 23.1919 226.206H84.5581C84.3348 231.82 84.1017 237.768 83.8823 243.681H33.5993C30.7486 243.681 27.9831 244.97 25.6018 247.409C20.5974 252.534 17.8866 262.162 18.1638 273.826C18.2607 277.907 20.4777 298.291 28.626 299.122C28.7544 299.185 28.8973 299.224 29.0499 299.224H41.0252C37.6182 304.712 33.3343 305.965 30.2466 306.007ZM84.28 184.142H151.311C151.854 188.679 151.62 191.786 149.192 193.148H86.4031C83.9777 191.787 83.7418 188.681 84.28 184.142ZM82.4719 155.595V155.597C82.4627 155.679 82.4564 155.769 82.4486 155.856C79.5058 156.549 76.4811 156.895 73.4816 156.884L69.5814 156.677C57.1623 155.354 45.5887 147.911 36.9889 135.716C36.9884 135.716 36.9884 135.715 36.9879 135.715C31.2427 127.571 27.1686 117.804 25.0029 107.236C23.8178 101.451 23.202 95.4275 23.202 89.2967C23.202 89.1998 23.202 89.1029 23.2074 88.9643C23.2166 84.6334 23.5426 80.2879 24.1754 76.0481V76.0472C25.2563 68.7783 27.2132 61.8393 29.9927 55.4231C33.484 47.3611 38.0925 40.4624 43.6909 34.9164C48.1778 30.4634 53.1434 27.0651 58.4491 24.8161C63.3396 22.7448 68.4482 21.6949 73.6332 21.6949C74.0785 21.6949 74.5281 21.7041 74.9656 21.7187C80.172 21.9013 85.2854 23.1489 90.1676 25.4183C90.2238 25.4445 90.2815 25.4667 90.3377 25.4934C97.7582 28.9866 104.576 34.8839 110.055 42.5491C110.1 42.6126 110.152 42.6683 110.209 42.7172C111.718 49.5883 113.341 56.4231 114.741 62.13C113.962 61.3209 113.386 60.9614 113.325 60.9241C113.038 60.7589 106.243 56.9139 100.001 60.9493C98.6328 61.8349 97.4603 63.0806 96.5015 64.6523C95.7553 64.2371 89.2442 60.8282 83.2427 64.7138C80.2112 66.6751 78.1914 70.3049 77.2297 75.5031H76.2447C75.0252 75.5031 64.3314 75.866 64.3314 88.4391C64.3314 93.1731 65.6594 96.7933 68.2791 99.1993C70.9918 101.691 74.219 102.063 75.9007 102.063H76.6933C76.952 105.615 77.702 109.958 80.4574 111.618C81.2093 119.716 83.8353 129.297 83.8711 129.426C86.6599 138.362 87.1424 146.932 87.2253 149.538C85.4186 150.022 82.9283 151.658 82.4719 155.595ZM107.619 12.0753C108.741 7.77779 112.422 5.48952 115.366 5.18235C118.095 4.89505 120.347 6.10774 121.546 8.50454C124.811 15.0346 135.317 63.1954 135.812 65.4735C135.541 67.4105 134.62 74.0084 134.466 75.5031H129.351C124.864 73.1319 118.339 62.1116 115.493 57.0118C114.35 52.2506 113.128 46.9992 111.979 41.74C107.422 20.8747 107.093 14.0913 107.619 12.0753ZM137.766 65.4924C141.45 39.2148 145.912 11.0762 147.576 7.44785C149.442 3.38003 153.128 2.07722 155.949 2.58836C158.406 3.0341 161.145 5.08545 161.46 9.50599C161.983 16.8064 161.129 30.4454 161.121 30.5821C161.112 30.7163 161.132 30.8456 161.173 30.9648C150.505 41.1257 143.063 57.2502 140.624 75.5031H136.413C136.531 74.4919 136.969 71.1755 137.766 65.4924ZM213.212 21.1281C218.957 21.1281 224.593 22.4508 229.967 25.0554C230.018 25.0801 230.07 25.1029 230.121 25.1281C250.006 34.8776 263.367 60.8248 263.367 89.694C263.367 97.3534 262.561 104.16 260.847 111.066C249.677 114.866 239.423 118.511 234.261 120.361C224.682 123.795 212.793 125.505 202.302 127.014C192.874 128.371 184.731 129.542 179.827 131.668C178.136 132.401 176.561 133.279 175.118 134.268C170.741 127.287 167.468 119.262 165.446 110.627C164.614 107.077 163.987 103.427 163.589 99.7022C163.236 96.4076 163.057 93.0404 163.057 89.694C163.057 51.8868 185.556 21.1281 213.212 21.1281ZM198.624 163.55C196.858 163.123 195.404 163.055 195.342 163.052C195.188 163.044 195.043 163.077 194.911 163.135C193.941 162.935 193.359 162.704 193.015 162.502C192.111 161.97 191.143 161.205 190.125 160.227C193.334 160.395 197.255 160.529 201.634 160.529C205.242 160.529 209.161 160.439 213.248 160.202C225.93 160.191 238.134 153.954 247.63 142.635C249.956 142.255 251.986 141.827 253.662 141.359C257.39 140.317 262.398 138.812 268.942 136.768L273.021 151.869C263.993 152.059 254.239 152.843 243.836 156.613C239.295 158.26 232.523 159.903 224.768 161.239C214.714 162.961 204.711 163.846 198.624 163.55ZM189.208 191.031C188.023 191.3 187.067 191.438 186.366 191.438C186.278 191.438 184.159 191.296 179.932 178.927C177.625 172.179 175.86 165.177 175.7 163.899C175.672 163.686 175.576 163.499 175.438 163.354C175.426 163.284 175.418 163.217 175.406 163.146L175.354 162.833C175.075 161.164 173.665 152.923 173.15 149.912C173.723 149.89 174.508 149.849 175.489 149.779C175.497 149.84 175.51 149.901 175.53 149.962C175.568 150.081 175.765 150.812 175.992 151.66C181.376 171.73 185.822 184.972 189.208 191.031ZM187.021 159.784C188.789 161.779 190.475 163.255 192.034 164.173C193.254 164.888 195.32 165.314 198.34 165.476C200.318 165.971 202.735 166.986 203.208 169.025C204.017 172.532 198.118 174.359 198.06 174.376C197.796 174.455 197.578 174.643 197.461 174.891C197.344 175.14 197.338 175.427 197.445 175.68C197.48 175.764 200.526 182.993 202.008 186.66C201.908 186.669 201.811 186.689 201.719 186.728C201.658 186.754 195.898 189.188 191.086 190.55C191.068 190.437 191.033 190.324 190.974 190.219C187.658 184.367 183.247 171.225 177.864 151.158C177.643 150.337 177.52 149.878 177.446 149.614C178.288 149.534 179.112 149.447 179.932 149.351C179.937 149.497 179.971 149.645 180.046 149.782C180.171 150.01 183.147 155.402 187.021 159.784ZM187.176 148.287C189.559 147.874 191.996 147.392 194.447 146.841C198.319 145.969 206.488 145.588 215.947 145.146C225.486 144.702 236.178 144.201 244.68 143.068C235.781 152.886 224.686 158.265 213.212 158.265C203.994 158.265 195.012 154.812 187.176 148.287ZM84.9351 112.735C86.782 112.735 88.5969 112.199 90.1599 111.146C92.1453 109.807 93.8425 107.17 94.6977 104.512C94.6894 104.538 95.1531 105.404 95.2248 105.495C95.7815 106.201 96.0916 106.61 96.5073 107.035C96.9046 107.44 97.298 107.68 97.6366 108.077C99.6681 110.459 101.724 114.028 101.49 118.564C99.5659 121.374 98.3333 124.524 97.8576 127.977C97.7844 128.507 98.155 128.996 98.6851 129.069C98.7301 129.076 98.7747 129.079 98.8188 129.079C99.2951 129.079 99.7103 128.727 99.7776 128.242C102.372 109.41 128.054 106.87 128.313 106.846C128.721 106.809 129.062 106.52 129.164 106.124C129.267 105.728 129.11 105.31 128.772 105.08C128.743 105.061 125.89 103.113 122.368 100.293C118.906 97.5283 116.017 94.9115 113.784 92.5157C111.606 90.1872 110.088 88.1048 109.272 86.3253C106.978 81.3175 107.923 76.3073 110.043 73.9464C111.052 72.8223 112.837 71.677 115.609 72.5995C116.15 72.7797 116.782 73.0147 117.488 73.2967C119.705 74.1862 122.7 75.5738 126.387 77.4202C133.028 80.7531 139.659 84.4609 139.725 84.4977C139.755 84.5147 139.787 84.5249 139.818 84.538C139.747 86.0845 139.709 87.6789 139.709 89.2967C139.709 102.59 143.049 116.796 149.111 129.336L146.389 149.374H89.1623C89.0756 146.55 88.578 138.002 85.7301 128.879C85.7049 128.786 83.3256 120.106 82.484 112.406C83.2951 112.617 84.1172 112.735 84.9351 112.735ZM107.511 87.1324C108.348 88.959 109.822 91.0346 111.88 93.3025C111.877 93.3277 111.871 93.3519 111.87 93.3776C111.803 96.2414 111.417 98.7114 110.721 100.721C110.326 101.87 109.831 102.867 109.246 103.72C108.084 105.116 106.436 106.498 104.218 107.095C102.416 107.437 100.418 107.191 98.5232 106.36C96.7587 105.587 95.6982 102.758 95.3701 97.9498C95.1642 95.0021 95.2442 91.6668 95.3144 88.7235C95.3692 86.4459 95.4205 84.2947 95.3377 82.5787C95.1061 77.7628 95.3285 71.0559 97.7059 66.4527C98.5901 64.7463 99.7166 63.442 101.054 62.5762C106.284 59.194 112.295 62.568 112.329 62.5869C112.355 62.6024 114.845 64.209 116.391 68.7574C116.635 69.7221 116.83 70.4847 116.969 71.0234C116.707 70.928 116.455 70.8388 116.222 70.7608C113.324 69.7947 110.546 70.4842 108.6 72.6518C105.589 76.006 105.141 81.9604 107.511 87.1324ZM78.5688 101.028C78.4172 98.2579 78.4903 95.1857 78.5552 92.475C78.61 90.2027 78.6613 88.0564 78.579 86.3432C78.4055 82.7293 78.5451 79.473 78.9947 76.6615C79.7985 71.569 81.5819 68.0961 84.296 66.3408C89.5262 62.9541 95.5358 66.332 95.5959 66.3664C95.5974 66.3674 95.5993 66.3679 95.6008 66.3689C93.3876 71.2899 93.1715 77.8848 93.4021 82.6721C93.4816 84.3185 93.4307 86.4357 93.3774 88.677C93.3076 91.5796 93.2311 94.8558 93.422 97.8257C93.4079 97.8965 93.3992 97.9691 93.4012 98.0447C93.5528 103.474 92.0174 107.556 89.0765 109.539C86.9448 110.975 84.2108 111.194 81.7636 110.124C79.9113 109.314 78.8682 106.364 78.5736 101.111C78.5736 101.105 78.5751 101.1 78.5751 101.094C78.5751 101.071 78.5703 101.051 78.5688 101.028ZM150.972 161.703C150.916 161.692 150.859 161.685 150.799 161.685H84.6182C84.5523 160.294 84.4748 159.074 84.3905 158.123C84.3445 157.589 84.3275 157.099 84.3401 156.669C84.3406 156.658 84.343 156.647 84.343 156.637C84.343 156.633 84.342 156.63 84.342 156.627C84.3517 156.326 84.3697 156.06 84.3973 155.819V155.818C84.8687 151.751 87.9433 151.343 88.2514 151.312H147.337C147.549 151.334 148.948 151.523 150.007 152.777C151.014 153.969 151.416 155.767 151.201 158.117C151.116 159.032 151.041 160.214 150.972 161.703ZM84.6977 163.623H150.799C150.832 163.623 150.863 163.616 150.895 163.614C150.673 169.927 150.693 177.958 151.085 182.204H84.5058C84.9016 177.935 84.921 169.921 84.6977 163.623ZM153.126 183.045C152.61 179.162 152.589 169.673 152.867 162.742C152.944 160.848 153.033 159.351 153.13 158.295C153.397 155.385 152.833 153.096 151.457 151.49C150.418 150.278 149.153 149.759 148.323 149.537L150.655 132.38C154.805 140.201 159.803 146.778 165.235 151.544C165.472 156.748 169.125 166.185 171.682 168.02C172.125 168.339 172.522 168.44 172.847 168.44C173.035 168.44 173.199 168.406 173.333 168.361C173.849 168.189 174.252 167.961 174.568 167.699C175.349 170.767 176.626 175.248 178.098 179.554C182.822 193.376 185.397 193.376 186.366 193.376C187.407 193.376 188.842 193.142 190.63 192.681C195.305 191.473 201.118 189.081 202.278 188.596L202.478 188.602L166.287 251.288H150.396L150.061 194.871C154.049 192.706 153.742 187.642 153.126 183.045ZM204.118 186.716C203.052 184.032 200.593 178.166 199.625 175.866C200.312 175.586 201.259 175.144 202.172 174.527C205.243 172.453 205.457 170.153 205.096 168.588C204.819 167.394 204.131 166.364 203.064 165.521C208.874 165.38 216.339 164.605 224.105 163.315L226.432 187.258C216.832 187.116 207.175 186.816 204.118 186.716ZM276.386 225.407C277.014 228.91 278.073 233.896 279.3 239.669C280.437 245.018 281.726 251.081 282.876 256.958C285.181 268.744 286.322 276.796 286.365 281.573C286.313 282.169 286.303 282.723 286.297 283.212C286.295 283.433 286.292 283.636 286.286 283.803C286.161 285.07 285.929 285.665 285.756 285.938C282.612 290.891 269.421 295.962 267.37 296.728L204.99 188.683C208.928 188.808 218.282 189.086 227.38 189.209C230.424 189.251 233.195 189.272 235.615 189.272C239.608 189.272 243.505 188.875 247.274 188.49C253.994 187.805 260.341 187.157 266.116 188.887C268.928 189.734 271.399 190.464 273.642 191.113C274.004 208.038 274.6 215.462 276.386 225.407ZM285.063 194.18C287.953 196.78 293.289 201.904 296.874 207.282C301.144 213.686 307.186 224.704 309.094 231.179C309.248 234.63 309.233 238.565 308.865 242.941C308.56 246.55 308.396 250.339 308.364 254.21L284.602 255.694C283.494 250.082 282.277 244.353 281.196 239.266C279.972 233.509 278.916 228.537 278.294 225.065C276.55 215.355 275.953 208.054 275.593 191.672C279.335 192.735 282.441 193.559 285.063 194.18ZM311.936 114.427C312.983 117.787 313.565 121.804 313.648 126.416C313.702 129.439 313.688 132.404 313.609 135.229C313.524 138.284 313.362 141.148 313.129 143.74C312.864 146.678 312.569 148.609 312.411 149.524C301.526 151.797 291.516 151.804 281.832 151.804C279.595 151.805 277.293 151.806 275.019 151.836L270.792 136.188C273.327 135.391 275.877 134.579 278.363 133.783C279.705 135.617 283.844 140.274 291.282 140.274C293.419 140.274 295.83 139.889 298.524 138.942C304.827 136.725 309.367 132.051 311.306 125.779C312.421 122.174 312.594 118.186 311.936 114.427ZM281.61 106.278C288.138 104.247 292.503 103.055 294.583 102.735C295.98 102.52 297.639 102.303 299.043 102.561C300.137 102.762 301.379 102.895 302.404 103.315C303.209 103.646 304.3 104.201 304.983 104.737C305.612 105.231 306.174 105.807 306.65 106.454C310.27 111.388 311.397 118.924 309.455 125.207C308.215 129.218 305.2 134.54 297.88 137.113C293.672 138.595 290.253 138.56 287.554 137.844C288.186 135.641 291.423 131.192 293.089 128.996C296.781 127.782 299.145 126.995 299.192 126.979C299.7 126.81 299.974 126.262 299.805 125.754C299.636 125.246 299.086 124.973 298.579 125.141C298.487 125.172 289.358 128.211 278.814 131.602C278.639 131.585 278.456 131.614 278.285 131.697C278.208 131.735 278.141 131.784 278.079 131.838C275.208 132.759 272.239 133.704 269.313 134.622C262.318 136.812 257.028 138.405 253.14 139.492C251.412 139.975 249.281 140.417 246.807 140.805C238.086 142.174 226.276 142.725 215.857 143.211C206.307 143.656 198.06 144.041 194.022 144.95C191.155 145.595 188.303 146.15 185.546 146.601C183.802 146.886 182.154 147.126 180.644 147.313C179.213 147.493 177.786 147.644 176.286 147.774C173.549 148 172.02 148.003 172.005 148.003C171.719 148.003 171.449 148.13 171.265 148.348C171.081 148.566 171.002 148.854 171.05 149.135C171.05 149.135 173.099 161.105 173.442 163.146L173.494 163.464C173.534 163.705 173.573 163.939 173.604 164.18C173.827 165.757 173.603 166.194 172.846 166.478C171.405 165.711 167.179 156.412 167.16 151.026C167.16 147.12 169.327 140.949 175.434 136.411C176.975 135.261 178.712 134.264 180.598 133.446C185.263 131.424 193.287 130.269 202.578 128.933C213.159 127.411 225.152 125.685 234.915 122.186C241.584 119.795 248.266 117.444 254.963 115.132C256.314 114.665 257.665 114.201 259.017 113.739C259.716 113.499 260.432 113.178 261.15 113.01C262.892 112.602 264.608 111.835 266.325 111.258C268.206 110.626 270.09 109.998 271.975 109.377C275.179 108.321 278.389 107.282 281.61 106.278ZM276.693 93.5704C276.009 92.7371 275.118 92.1983 274.257 91.6775C273.421 91.1726 272.632 90.6954 272.065 89.9813C271 88.645 270.378 86.9866 270.314 85.3122C270.259 83.8408 270.741 82.8485 271.351 81.5927C271.546 81.1925 271.747 80.7783 271.94 80.3316C272.043 80.0946 272.127 79.9105 272.197 79.7599C272.603 78.8766 272.609 78.693 272.533 77.5234L272.522 77.3456C272.484 76.8064 272.298 76.3785 272.148 76.0355C271.935 75.5467 271.904 75.4275 272.03 75.1571C272.205 74.7836 272.33 74.7424 273.03 74.6567C273.344 74.6184 273.699 74.5743 274.082 74.4575C274.338 74.379 274.552 74.3185 274.737 74.2666C276.023 73.9033 276.322 73.7318 277.595 72.1731C277.758 71.974 277.925 71.7671 278.096 71.5554C279.092 70.3209 280.201 68.9546 281.454 68.0491C281.897 68.9323 282.143 70.9604 282.345 72.6339C282.719 75.7332 283.107 78.9381 284.78 80.1911C285.387 80.6455 286.126 80.8161 286.918 80.6838C287.156 80.6441 287.37 80.5171 287.519 80.3282C288.93 78.5404 291.641 77.6969 293.826 78.365C294.789 78.66 296.432 79.5147 296.611 81.9241C296.639 82.3257 296.633 82.7322 296.597 83.1378C296.258 84.4934 295.825 85.8049 295.31 87.0389C294.679 88.0535 293.007 90.178 290.35 89.5375C289.276 89.2754 287.255 88.4658 285.796 85.9895C285.524 85.5287 284.929 85.3752 284.469 85.647C284.008 85.9188 283.855 86.5128 284.126 86.974C285.947 90.0631 288.52 91.0854 289.893 91.4207C290.369 91.5355 290.842 91.5917 291.307 91.5917C292.009 91.5917 292.111 91.5055 292.58 92.067C292.942 92.5016 293.268 92.9653 293.578 93.4381C294.223 94.4246 294.783 95.4633 295.406 96.4629C296.235 97.7913 297.064 99.1193 297.892 100.447C296.698 100.406 295.468 100.64 294.291 100.819C292.229 101.136 288.116 102.243 282.063 104.109C282.056 103.999 282.034 103.889 281.987 103.782C281.843 103.452 278.433 95.6949 276.693 93.5704ZM300.808 76.1833C300.488 75.0215 299.781 73.2196 299.207 72.7502C299.99 73.2473 300.78 73.616 301.553 73.8117C302.994 74.3858 304.721 74.9362 306.446 74.9357C308.417 74.9357 310.385 74.2167 311.918 71.9919C313.574 69.5816 313.461 65.8209 311.608 61.6756C308.483 54.6852 302.888 51.0166 298.728 50.4818C296.16 50.1523 293.897 50.865 292.35 52.49C290.583 54.3466 289.891 57.2041 290.451 60.3296C290.717 61.8185 291.568 63.7729 292.769 65.7356C288.919 64.2536 284.495 64.5791 282.092 65.4919C281.827 65.5912 281.557 65.7158 281.294 65.8587C279.38 66.8766 277.896 68.7158 276.588 70.3388C276.42 70.5467 276.256 70.7492 276.095 70.9459C275.115 72.146 275.115 72.146 274.211 72.4013C274.014 72.457 273.785 72.5215 273.515 72.6043C273.295 72.6717 273.052 72.7017 272.795 72.7327C272.046 72.8248 270.916 72.9638 270.276 74.3354C269.766 75.4222 270.131 76.2574 270.372 76.8107C270.481 77.0593 270.574 77.2739 270.588 77.4735L270.599 77.6489C270.653 78.4784 270.653 78.4784 270.436 78.9503C270.362 79.1106 270.272 79.3073 270.162 79.5612C269.98 79.9813 269.791 80.3703 269.608 80.7458C268.938 82.1256 268.305 83.4294 268.377 85.3853C268.457 87.4711 269.229 89.5326 270.548 91.1872C271.33 92.1731 272.352 92.7909 273.254 93.3359C274.009 93.7923 274.722 94.2235 275.195 94.7991C276.361 96.224 278.835 101.417 280.212 104.559C280.229 104.599 280.257 104.629 280.278 104.664C275.463 106.174 269.667 108.077 263.014 110.33C264.567 103.679 265.305 97.0719 265.305 89.694C265.305 60.1019 251.508 33.4556 230.973 23.3873C225.488 20.7017 219.735 19.2967 213.864 19.1993C213.736 19.1262 213.592 19.0777 213.434 19.07C210.662 18.9333 207.701 18.8694 204.634 18.88C194.033 18.9038 184.998 19.7526 184.932 19.7594C177.246 20.2976 169.745 23.5491 163.144 29.1828C163.354 25.381 163.826 15.4168 163.393 9.36839C162.999 3.84126 159.468 1.25696 156.295 0.681382C152.734 0.0355486 148.114 1.62809 145.815 6.63972C143.729 11.1886 138.699 45.2385 136.59 59.9808C133.688 46.8737 126.093 13.2662 123.279 7.63778C121.723 4.52489 118.69 2.88633 115.164 3.25454C110.78 3.71239 106.906 7.13825 105.744 11.5859C104.954 14.6116 106.107 23.3757 109.261 38.318C104.039 31.8883 97.8425 26.8839 91.1628 23.7395C86.359 21.4813 81.3348 20.1843 76.2112 19.8534C76.0993 19.7991 75.9748 19.7657 75.843 19.7584C75.5751 19.7434 75.3077 19.7337 75.047 19.724C72.8895 19.629 70.5591 19.5898 67.9249 19.6068C56.2103 19.6789 44.626 20.8887 44.5552 20.897C23.2345 22.1484 0.406982 49.9319 0.406982 89.2967C0.406982 105.595 4.42829 121.545 11.7311 134.208C19.3367 147.396 29.7742 155.525 41.1216 157.098C41.1488 157.101 41.1759 157.104 41.203 157.105C41.203 157.105 69.4588 158.612 69.468 158.613C70.8396 158.757 72.2403 158.832 73.6342 158.832C76.5853 158.832 79.5392 158.503 82.4331 157.856C82.4423 158.001 82.4467 158.139 82.4598 158.292C82.5601 159.423 82.6512 160.947 82.7234 162.698C83 169.46 82.9796 179.162 82.4646 183.045C81.842 187.72 81.5296 192.884 85.7292 194.984C85.7728 195.006 85.8193 195.019 85.8653 195.034C85.78 196.979 85.2398 209.306 84.6357 224.268H22.7805C22.53 224.268 22.2893 224.364 22.109 224.538C21.4564 225.165 6.15844 240.275 8.5877 272.166C9.74323 287.32 13.6798 297.94 20.2883 303.729C24.8193 307.698 29.0887 307.948 30.0887 307.948C30.172 307.948 30.2326 307.946 30.2689 307.945H101.55C101.668 307.945 101.78 307.921 101.885 307.882H266.404C270.526 307.882 274.649 307.931 278.77 308.041C285.273 308.213 290.734 308.296 295.312 308.296C313.847 308.296 317.9 306.935 317.979 304.615C318.008 303.74 317.834 302.353 317.447 300.372C316.36 294.916 313.913 286.523 312.551 282.006C312.32 281.24 312.161 280.729 312.108 280.555C311.958 279.64 310.249 268.859 310.291 255.147C310.301 251.003 310.471 246.951 310.796 243.104C311.689 232.484 310.561 224.406 309.886 219.58C309.65 217.893 309.464 216.561 309.427 215.625C309.075 206.625 312.636 198.546 315.778 191.418C317.32 187.92 318.911 184.403 319.917 180.704C320.378 179.01 320.71 177.273 320.793 175.517C320.985 171.469 320.536 167.092 319.561 163.164C319.561 163.051 319.762 162.887 319.908 162.799C321.082 162.083 348.584 145.095 342.531 130.14C337.421 117.511 312.244 105.821 307.014 103.507C305.781 102.962 304.484 102.14 303.144 101.662C302.125 101.299 300.142 100.333 300.046 100.237L294.858 91.9241C294.858 91.9241 304.284 88.8374 300.808 76.1833Z" fill="#700051"/>
<path d="M216.972 71.1378C217.054 71.1378 217.134 71.1378 217.235 71.1421C224.197 71.3354 229.859 79.3509 229.859 89.0108C229.859 91.0564 229.609 93.0719 229.115 95.0002C228.369 97.8955 227.078 100.503 225.38 102.541C223.164 105.192 220.344 106.73 217.43 106.871C214.877 107.016 212.354 106.066 210.193 104.198C210.193 104.198 210.193 104.198 210.192 104.198C206.371 100.897 204.089 95.2201 204.089 89.0108C204.089 79.1557 209.868 71.1378 216.972 71.1378ZM203.48 105.664C203.48 105.664 203.48 105.665 203.481 105.665C205.875 107.73 208.659 108.822 211.531 108.822C211.848 108.822 212.438 108.863 213.062 108.907C214.182 108.986 215.184 109.048 216.01 109.048C216.77 109.048 217.383 108.995 217.802 108.853C217.865 108.831 217.925 108.804 217.981 108.771C221.271 108.478 224.411 106.723 226.868 103.784C226.868 103.784 226.868 103.784 226.868 103.784C226.868 103.783 226.869 103.783 226.869 103.783C228.749 101.525 230.175 98.6552 230.992 95.4832V95.4822H230.992C231.527 93.396 231.797 91.2192 231.797 89.0108C231.797 78.3127 225.635 69.7284 217.715 69.2303C217.655 69.1988 217.591 69.1722 217.524 69.1533C216.789 68.9478 215.153 69.0176 212.922 69.1383C212.311 69.1712 211.784 69.1998 211.531 69.1998C203.359 69.1998 196.71 78.0869 196.71 89.0108C196.71 95.7734 199.241 101.999 203.48 105.664Z" fill="#700051"/>
</svg>
