<svg width="360" height="282" viewBox="0 0 360 282" fill="none" xmlns="http://www.w3.org/2000/svg">
<path d="M277.078 117.271C277.077 117.268 277.076 117.266 277.075 117.264C277.068 117.25 277.063 117.236 277.057 117.222C276.997 117.069 276.937 116.921 276.876 116.772C276.87 116.758 276.866 116.744 276.86 116.731L276.64 116.191C276.514 115.883 276.389 115.576 276.265 115.269C276.236 115.219 276.201 115.174 276.181 115.117C276.161 115.062 276.149 115.004 276.134 114.947C262.648 81.9954 253.163 63.3009 247.945 59.3878C231.743 46.909 178.093 29.0351 177.553 28.8559C174.24 27.6735 169.265 25.8976 163.844 25.2808C157.23 24.528 151.573 25.616 146.543 28.6056C140.048 32.457 134.564 47.2072 134.509 47.3555C134.5 47.3807 134.489 47.4053 134.478 47.4295C134.396 47.6044 126.305 64.9829 125.864 70.0888C125.357 75.9684 128.952 78.408 131.142 79.3401L131.293 79.4003C131.426 79.4216 131.551 79.47 131.662 79.5415C132.157 79.7193 132.475 79.7881 132.478 79.789C132.517 79.7975 132.557 79.8085 132.594 79.8213L137.63 81.5763C137.044 78.0363 137.391 74.4172 138.07 72.1871C138.24 71.6267 138.437 70.9587 138.663 70.1959C140.469 64.0826 144.227 51.3616 150.621 38.5732C150.854 38.1052 151.424 37.9142 151.892 38.1493C152.361 38.3835 152.551 38.9529 152.317 39.4213C145.998 52.0599 142.272 64.6719 140.481 70.7331C140.254 71.5016 140.056 72.1743 139.883 72.7389C139.187 75.0302 138.88 78.9636 139.769 82.5866C140.63 86.091 142.387 88.5577 144.991 89.9173C146.553 90.7332 148.433 91.1466 150.577 91.1466C154.151 91.1466 157.264 91.2448 160.011 91.331C167.188 91.5572 171.52 91.6928 173.849 89.7993C174.79 89.0336 176.218 87.6024 177.979 85.6601C178.038 85.5942 178.107 85.5425 178.179 85.4974C178.573 85.0637 179.384 84.1553 180.352 82.9748C180.365 82.9578 180.38 82.9407 180.395 82.9241C180.594 82.68 180.798 82.4273 181.006 82.1613C181.019 82.1452 181.032 82.1296 181.046 82.1139C184.074 78.281 185.859 75.1492 186.208 73.0566C186.237 72.8821 186.315 72.7294 186.42 72.6038C186.415 70.0229 185.234 67.9635 183.215 67.058C180.234 65.722 176.117 67.1637 172.202 70.9151C170.153 72.8797 168.481 75.0344 167.005 76.9355C164.46 80.2143 162.621 82.5837 160.433 81.7114C159.333 81.271 158.995 79.6871 159.4 76.8682C160.373 70.094 165.726 57.1041 174.244 56.2915C183.247 55.4415 186.392 60.9774 186.814 64.0836C190.1 76.6032 195.002 86.3081 201.385 92.9301C208.654 100.475 216.073 102.134 219.875 102.448C221.651 102.408 222.552 102.467 222.59 102.47C222.592 102.47 222.593 102.471 222.594 102.471C222.655 102.475 222.713 102.486 222.77 102.501C222.798 102.509 222.824 102.52 222.85 102.53C222.88 102.541 222.91 102.551 222.938 102.564C222.963 102.577 222.986 102.592 223.01 102.606C223.037 102.623 223.065 102.639 223.091 102.658C223.111 102.673 223.129 102.691 223.148 102.707C223.174 102.73 223.199 102.753 223.223 102.778C223.239 102.796 223.253 102.815 223.268 102.834C223.289 102.861 223.311 102.89 223.329 102.92C223.343 102.941 223.353 102.963 223.365 102.985C223.38 103.016 223.395 103.046 223.407 103.079C223.417 103.104 223.425 103.13 223.432 103.156C223.438 103.176 223.446 103.194 223.451 103.214L245.472 204.008C245.473 204.014 245.472 204.019 245.474 204.024C245.474 204.027 245.475 204.031 245.476 204.035C245.476 204.036 245.477 204.037 245.477 204.039C245.478 204.044 245.479 204.049 245.48 204.054C245.481 204.055 245.481 204.055 245.481 204.056L245.484 204.067C245.7 204.98 245.885 205.822 246.031 206.568C246.032 206.573 246.042 206.622 246.042 206.627C246.046 206.65 246.045 206.674 246.048 206.697C246.051 206.732 246.056 206.767 246.056 206.802C246.056 206.835 246.051 206.867 246.047 206.899C246.044 206.927 246.043 206.956 246.037 206.983C246.028 207.03 246.014 207.075 245.998 207.119C245.994 207.129 245.992 207.14 245.988 207.149C245.872 207.447 245.614 207.682 245.28 207.742C245.221 207.753 245.163 207.758 245.106 207.758C244.663 207.758 244.272 207.453 244.185 207.004C244.184 207.001 244.183 206.999 244.183 206.997L244.182 206.992C244.182 206.992 244.182 206.991 244.181 206.991V206.989L243.628 204.461C243.628 204.459 243.628 204.457 243.628 204.455C243.626 204.448 243.626 204.441 243.624 204.434C243.624 204.432 243.623 204.431 243.623 204.43C243.622 204.425 243.62 204.419 243.619 204.414V204.413L243.619 204.412C240.968 193.288 230.044 156.724 198.219 138.561C198.441 139.13 198.641 139.781 198.8 140.536C198.875 140.897 198.925 141.216 198.975 141.531C199.188 142.903 199.39 144.198 202.272 149.418C203.313 151.306 212.391 168.076 210.417 175.42C209.54 178.685 202.814 181.115 189.858 182.85C185.799 183.397 182.327 183.697 181.028 183.8C179.704 186.491 175.68 194.637 174.377 196.955C178.888 199.343 191.535 206.228 196.937 211.109C197.003 211.152 197.067 211.201 197.123 211.262C197.138 211.279 197.148 211.298 197.162 211.315C197.99 212.08 198.599 212.762 199.005 213.391C201.643 217.473 202.051 221.377 200.461 227.316C199.161 232.166 196.598 237.918 194.336 242.993C192.436 247.258 190.794 250.941 190.437 252.894C190.173 254.339 190.128 255.793 190.303 257.216C190.866 261.875 193.685 265.248 195.507 266.154C195.912 266.357 196.69 266.616 197.589 266.915C201.406 268.185 208.509 270.548 210.243 276.316C210.567 277.4 210.685 278.559 210.601 279.769C247.835 279.723 277.032 279.678 283.448 279.668L284.767 279.666C300.247 279.666 311.041 275.402 316.846 266.993C326.771 252.618 319.483 230.24 317.013 223.724C316.255 221.726 314.702 217.408 312.553 211.433C310.627 206.079 308.23 199.414 305.484 191.858C294.455 161.551 285.163 137.154 277.078 117.271Z" fill="#D8375D"/>
<path d="M199.451 97.7412C191.036 94.0462 181.804 92.8913 172.616 92.5694C170.806 93.1762 168.536 93.3531 165.658 93.3531C163.973 93.3531 162.081 93.2933 159.952 93.2265C157.219 93.1402 154.122 93.043 150.577 93.043C148.727 93.043 147.036 92.7657 145.528 92.2186C145.486 95.6732 144.651 98.2366 142.99 100.026C140.873 102.306 137.441 103.387 131.861 103.529C131.853 103.53 131.845 103.53 131.836 103.53C131.324 103.53 130.902 103.121 130.889 102.606C130.876 102.082 131.289 101.647 131.813 101.633C136.84 101.505 139.859 100.611 141.6 98.7358C143.055 97.1685 143.71 94.7312 143.616 91.3197C140.998 89.7733 139.112 87.1791 138.12 83.7553L132.022 81.6299C131.873 81.5953 131.501 81.5005 130.988 81.3142C129.559 81.5313 128.344 81.8656 127.197 82.3676C125.746 83.0053 123.633 85.9545 122.576 90.1639C121.343 95.0716 122.063 99.7091 124.553 102.888C129.613 109.359 143.561 109.163 143.694 109.162C145.684 109.066 148.772 109.231 152.683 109.44C161.832 109.93 175.66 110.669 185.363 108.135C197.646 104.926 206.838 103.498 213.073 102.881C211.857 102.453 210.567 101.908 209.226 101.215C205.989 100.164 202.695 99.1644 199.451 97.7412Z" fill="#D8375D"/>
<path d="M34.1855 99.6831C34.6994 99.3745 35.0445 98.9544 34.9246 98.3509C34.7056 97.2468 33.8726 96.1683 33.6408 94.975C33.2899 93.1711 32.8609 90.521 34.1746 88.9811C34.9957 88.0192 36.3971 87.7357 37.4747 87.1218C39.2871 86.0897 40.3936 84.355 42.1022 83.2229C42.8039 82.7579 43.6022 82.4525 44.2503 81.9083C45.17 81.1355 44.7718 79.1458 44.7718 78.0142V62.158C36.9257 54.6499 28.0314 46.764 26.5272 46.3886C25.9431 46.244 25.2656 46.1852 24.5199 46.2108C23.1412 46.5313 21.8043 47.0494 20.5513 47.7549C16.1433 50.232 12.7892 54.9363 11.1052 61.0017C10.3273 63.8016 9.38667 66.9946 8.39157 70.3753C5.57599 79.9371 2.38493 90.7741 2.10238 95.442C1.83594 99.849 2.99555 103.23 5.45557 105.22C7.63398 106.983 10.3709 107.282 12.1141 106.797C13.5946 106.386 15.2753 105.895 17.1085 105.338C20.4262 104.327 23.7277 103.264 27.0178 102.167C28.6235 101.632 30.2264 101.087 31.8246 100.531C32.3863 100.335 33.4559 100.122 34.1855 99.6831Z" fill="#FF4139"/>
<path d="M339.047 101.261C340.546 103.51 341.451 104.964 341.462 104.983C341.738 105.427 341.601 106.012 341.156 106.288C340.712 106.564 340.127 106.428 339.851 105.983C339.837 105.961 338.435 103.707 336.218 100.456C332.794 95.4428 329.479 91.0077 326.365 87.2738C323.523 83.8609 320.869 81.0686 318.479 78.9741C314.893 75.8333 311.871 74.2949 309.742 74.5196C308.186 74.6879 306.775 75.1691 305.548 75.9508C304.099 76.872 302.85 78.2354 301.836 80.0033C300.944 81.5578 300.231 83.4262 299.717 85.5567C299.32 87.1932 299.143 88.5553 299.049 89.2873C299.016 89.5442 298.991 89.7277 298.972 89.8253C298.932 90.0339 298.779 91.3206 298.603 92.8106L298.425 94.3173C298.43 94.4221 298.418 94.5264 298.388 94.6278C298.128 96.774 297.749 99.8422 297.321 102.908L304.357 109.652C304.649 108.817 304.941 107.973 305.231 107.118C307.697 99.9006 309.855 92.8102 310.043 91.3088C310.162 90.3511 310.769 90.2046 311.024 90.1866C312 90.115 312.153 90.7029 313.201 94.5226C314.664 99.8565 317.389 109.784 321.92 117.086C324.024 120.472 326.286 122.899 328.644 124.3C329.215 124.636 329.651 124.879 330.055 125.085C330.078 125.097 330.098 125.113 330.12 125.127C332.025 126.044 336.288 127.784 340.351 127.309C340.354 127.308 340.356 127.307 340.359 127.306C342.944 126.904 345.236 125.614 346.993 123.579L347.046 123.494C347.096 123.416 347.158 123.351 347.224 123.292C348.616 121.568 349.595 119.401 349.981 117.146C350.736 112.753 347.499 104.872 346.672 102.957L339.047 101.261Z" fill="white"/>
<path d="M150.285 161.377C150.785 162.594 152.055 162.921 152.993 162.832C153.779 162.76 154.434 162.409 154.625 161.956C154.741 161.683 154.978 161.479 155.266 161.406C155.343 161.387 155.421 161.377 155.499 161.377C155.712 161.377 155.922 161.45 156.092 161.586C157.18 162.454 160.503 164.523 162.78 163.671C162.938 163.615 163.083 163.546 163.231 163.461C165.289 162.254 165.423 161.071 164.794 157.892C164.678 157.303 164.816 156.761 164.938 156.283C165.065 155.785 165.14 155.449 165.041 155.126C164.865 154.951 164.339 154.602 164.015 154.387C163.175 153.83 162.727 153.52 162.525 153.093C161.301 150.53 160.546 150.312 159.879 150.12C159.704 150.07 159.522 150.018 159.33 149.938C159.241 149.902 159.152 149.861 159.063 149.812C159.053 149.811 159.043 149.811 159.033 149.811C158.146 149.811 155.114 151.74 154.545 152.846C153.995 153.922 153.801 156.475 153.772 157.368C153.764 157.626 153.652 157.869 153.46 158.041C153.27 158.214 153.022 158.302 152.759 158.284C152.335 158.257 151.079 158.333 150.467 158.993C150.117 159.37 149.997 159.921 150.099 160.675C150.135 160.935 150.197 161.171 150.285 161.377Z" fill="#F6F6F6"/>
<path d="M319.485 177.261C318.875 179.052 317.854 182.049 318.172 185.715C318.202 186.057 318.065 186.392 317.804 186.611C317.27 187.06 316.64 186.89 315.12 186.479C313.147 185.947 309.846 185.057 308.15 186.149C307.163 186.784 306.96 187.663 307.015 188.404C308.199 190.15 311.623 193.978 318.398 192.937C318.398 192.937 319.906 192.766 321.745 190.927C323.425 189.252 329.675 183.694 332.422 182.714C331.635 180.366 330.094 176.938 327.943 173.109L319.93 175.779C319.852 176.178 319.691 176.659 319.485 177.261Z" fill="#F5F6F6"/>
<path d="M326.59 125.212C324.563 123.753 322.632 121.627 320.828 118.883C320.768 118.93 320.705 118.972 320.633 119.005C320.491 119.069 306.548 125.515 306.129 137.919C306.074 139.483 306.948 143.686 311.359 154.785C312.589 154.725 313.882 154.641 315.244 154.551C317.419 154.408 319.663 154.266 321.987 154.195C321.027 150.096 320.205 147.09 319.646 145.045C318.879 142.241 318.593 141.192 318.763 140.503C318.894 139.976 319.209 139.732 321.003 138.965C322.224 138.041 325.939 127.145 326.59 125.212Z" fill="white"/>
<path d="M327.408 85.5706C330.17 85.553 337.814 85.013 339.827 83.3353C341.946 81.565 342.144 78.9016 341.433 77.0745C341.244 76.9517 340.885 76.7545 340.304 76.507C339.862 76.3226 339.397 76.152 338.927 76.0026C337.114 75.4105 335.331 75.1189 334.02 75.1967C333.071 75.2522 332.037 75.3773 330.944 75.5684C326.657 76.3103 322.535 77.8857 320.859 78.5741C322.896 80.4746 325.092 82.8214 327.408 85.5706Z" fill="#FE874E"/>
<path d="M332.886 66.683C332.893 66.6735 332.903 66.6669 332.911 66.6574C332.941 66.6228 332.973 66.5896 333.007 66.5602C333.022 66.5465 333.039 66.5351 333.056 66.5228C333.086 66.4995 333.117 66.4782 333.149 66.4592C333.168 66.4483 333.186 66.4384 333.205 66.4289C333.239 66.4123 333.274 66.3986 333.309 66.3858C333.327 66.3791 333.345 66.372 333.364 66.3668C333.405 66.3549 333.447 66.3469 333.49 66.3407C333.503 66.3388 333.516 66.335 333.53 66.3336C333.586 66.3279 333.643 66.327 333.7 66.3317C333.712 66.3322 333.723 66.3355 333.735 66.3369C333.779 66.3421 333.823 66.3493 333.867 66.3606C333.888 66.3663 333.908 66.3744 333.929 66.3815C333.953 66.3896 333.977 66.3952 334 66.4052C335.665 67.1196 338.151 65.7799 339.017 64.1813C339.609 63.089 339.013 62.6917 338.789 62.5419C338.249 62.1825 337.729 62.0659 337.199 62.1873C336.057 62.448 335.066 63.7598 334.78 64.2434C334.519 64.6857 333.951 64.8421 333.502 64.5918C330.333 62.8297 329.577 60.0913 329.644 58.1239C329.394 58.2159 329.11 58.3249 328.803 58.4524C327.599 58.9464 326.646 59.4656 326.022 59.9648C326.04 60.0335 326.062 60.1089 326.08 60.1691C326.218 60.6418 326.449 61.433 325.923 62.0901C324.94 63.3284 324.665 63.9589 324.862 65.4812C325.006 66.6057 325.463 67.4581 326.219 68.0142C327.052 68.6277 328.249 68.8524 329.503 68.632C330.849 68.3949 332.083 67.6847 332.886 66.683Z" fill="#FE874E"/>
<path d="M330.786 70.2599L331.543 73.5524C332.369 73.4311 333.162 73.3472 333.907 73.3036C335.016 73.2358 336.179 73.3818 337.209 73.5904L333.535 68.7291C332.753 69.4161 331.808 69.9404 330.786 70.2599Z" fill="#FE874E"/>
<path d="M319.329 173.486C319.337 173.488 319.343 173.486 319.351 173.488C319.614 173.537 319.783 173.648 319.899 173.791L327.162 171.371C326.562 169.685 325.245 165.913 324.061 162.031L315.164 164.008C316.955 168.195 318.534 171.725 319.329 173.486Z" fill="#FE874E"/>
<path d="M312.104 156.646C312.812 158.403 313.585 160.274 314.412 162.233L323.52 160.209C323.075 158.663 322.708 157.28 322.425 156.08C319.997 156.143 317.645 156.294 315.369 156.444C314.236 156.518 313.151 156.589 312.104 156.646Z" fill="#FF4238"/>
<path d="M267.778 62.6112C267.901 62.6368 268.068 62.6605 268.275 62.6847C270.264 62.9099 275.498 63.1459 275.551 63.1483H275.553C276.368 63.1483 278.069 63.6044 279.015 65.3087C279.667 66.4835 279.684 67.5402 279.511 68.3481C280.084 68.3087 280.724 68.2817 281.425 68.2817C283.996 68.2817 289.92 73.3553 291.478 74.7302C293.417 75.2839 299.317 77.5875 300.756 78.1526C301.518 77.0039 302.382 76.022 303.344 75.2208C297.861 73.4004 285.473 67.1292 284.897 66.8376C284.821 66.7988 284.751 66.7504 284.688 66.6935C284.639 66.6489 279.775 62.2267 278.239 60.9144C277.453 60.2398 273.852 59.9392 269.184 60.6015C268.574 60.6888 267.987 60.7893 267.443 60.9002C266.817 61.0249 266.817 61.2956 266.817 61.426C266.816 61.8749 267.245 62.504 267.778 62.6112Z" fill="#FE874E"/>
<path d="M295.182 114.246C296.509 115.135 299.326 117.202 300.599 119.483C301.155 118.274 302.106 115.97 303.665 111.615L296.987 105.214C296.326 109.6 295.731 112.58 295.182 114.246Z" fill="#FE874E"/>
<path d="M298.067 84.3575C298.52 82.6797 299.096 81.156 299.787 79.8086C296.932 78.6888 292.06 76.8247 290.786 76.5071C290.637 76.4701 290.499 76.3971 290.384 76.2952C287.531 73.755 282.865 70.1776 281.424 70.1776C280.443 70.1776 279.583 70.2321 278.888 70.3009L279.656 71.5093C279.936 71.9512 279.805 72.5371 279.363 72.8178C278.921 73.0994 278.335 72.9676 278.055 72.5253L276.994 70.856L276.453 71.0964C276.373 71.1319 276.291 71.1514 276.209 71.1637C276.15 71.1978 276.087 71.2272 276.019 71.2486C275.735 71.3377 275.446 71.3989 275.149 71.4387L275.297 71.5373C275.297 71.5373 275.309 71.5235 275.324 71.4927C275.321 71.5003 274.943 72.2802 275.622 74.1495C276.277 75.9515 279.012 79.0344 280.122 80.1893C281.629 81.054 284.519 81.3281 286.692 81.4902C287.001 81.338 287.369 81.3627 287.652 81.5599C289.497 81.6926 290.601 81.7917 291.274 82.0757C292.773 82.7185 297.82 84.2551 297.871 84.2707C297.941 84.292 298.006 84.3224 298.067 84.3575Z" fill="#FE874E"/>
<path d="M297.596 86.1261C297.505 86.1261 297.412 86.1129 297.32 86.0849C297.108 86.0204 292.122 84.5024 290.533 83.8211C290.337 83.7382 289.941 83.6727 289.448 83.6163C291.054 85.4942 293.567 88.4178 296.777 92.1062C296.97 90.4754 297.063 89.7073 297.111 89.4632C297.126 89.3859 297.143 89.2432 297.169 89.0436C297.248 88.4311 297.384 87.3929 297.649 86.1176C297.631 86.1185 297.614 86.1261 297.596 86.1261Z" fill="white"/>
<path d="M275.682 69.3639L276.555 68.9757C276.691 68.8045 276.881 68.6808 277.099 68.6339C277.099 68.6339 277.222 68.6083 277.443 68.5727C277.642 68.2039 277.966 67.3273 277.357 66.2284C276.719 65.0801 275.551 65.0446 275.501 65.0436C275.284 65.0341 271.465 64.8621 269.089 64.6663C269.176 65.7633 269.665 66.8598 270.502 67.7653C271.583 68.933 273.101 69.6266 274.466 69.5953C274.822 69.5872 275.142 69.536 275.452 69.4393C275.503 69.4232 275.555 69.4147 275.606 69.4076C275.632 69.3929 275.655 69.3763 275.682 69.3639Z" fill="#FE874E"/>
<path d="M180.24 133.773C183.404 135.988 187.34 138.746 188.875 140.838C191.388 144.262 194.674 161.852 195.041 163.846C195.103 164.185 194.976 164.531 194.71 164.749C194.444 164.969 194.081 165.026 193.76 164.9C193.733 164.889 191.292 163.939 187.995 163.42L190.5 180.53C190.515 180.639 190.508 180.745 190.488 180.847C206.374 178.627 208.361 175.763 208.586 174.927C210.032 169.546 204.254 156.936 200.612 150.334C197.569 144.821 197.342 143.365 197.101 141.823C197.057 141.539 197.013 141.251 196.944 140.925C196.276 137.756 194.863 136.9 194.587 136.761C194.546 136.741 194.517 136.728 194.501 136.722C194.279 136.653 194.108 136.508 193.997 136.328C188.73 133.74 183.097 131.754 177.229 130.412C177.122 130.537 176.985 130.638 176.819 130.695C176.666 130.751 176.499 130.874 176.474 130.933C176.475 130.933 176.477 130.942 176.481 130.958C176.841 131.393 178.722 132.709 180.24 133.773Z" fill="#F6F6F6"/>
<path d="M185.043 265.723C184.988 265.723 184.936 265.709 184.883 265.7C184.88 265.699 184.876 265.699 184.873 265.698C184.726 265.671 184.593 265.614 184.479 265.528C184.447 265.505 184.418 265.479 184.389 265.452C184.366 265.429 184.342 265.408 184.32 265.383C184.277 265.332 184.24 265.276 184.208 265.217C184.204 265.209 184.197 265.202 184.192 265.194C184.189 265.188 184.187 265.182 184.184 265.177C184.063 264.925 181.139 259.005 174.749 258.806C174.668 258.803 174.592 258.788 174.517 258.766C173.61 261.864 172.349 265.648 171.127 269.316C170.684 270.642 170.254 271.933 169.856 273.145C171.538 273.495 175.902 274.402 180.941 275.447C186.328 276.56 203.156 275.922 207.965 275.711C205.948 271.697 200.414 269.853 196.991 268.715C195.981 268.379 195.184 268.114 194.66 267.851C192.248 266.65 189.402 262.977 188.559 258.355C186.965 258.516 185.419 258.915 185.101 259.267C185.123 260.423 185.645 263.097 185.96 264.539C185.98 264.617 185.991 264.695 185.991 264.775C185.991 265.298 185.567 265.723 185.043 265.723Z" fill="#FF4139"/>
<path d="M198.63 226.825C200.082 221.402 199.751 218.04 197.412 214.421C197.183 214.065 196.84 213.66 196.403 213.217C188.119 220.978 181.983 226.762 178.617 229.982C176.528 237.12 176.179 243.067 175.873 248.319C175.686 251.526 175.519 254.344 174.983 256.921C178.819 257.095 181.571 259.002 183.352 260.845C183.264 260.21 183.204 259.624 183.204 259.194C183.204 258.326 183.899 256.864 188.339 256.467C188.26 255.17 188.333 253.858 188.571 252.554C188.97 250.377 190.654 246.597 192.604 242.221C194.837 237.209 197.368 231.53 198.63 226.825Z" fill="#F6F6F6"/>
<path d="M127.913 139.955C126.158 142.352 123.764 155.133 122.733 161.36C123.802 161.155 125.406 160.914 127.323 160.847C130.892 160.718 134.175 161.233 137.091 162.382C139.905 163.491 142.457 165.068 144.924 166.593C146.916 167.825 148.816 168.996 150.805 169.916L151.929 164.689C150.617 164.495 149.501 163.787 148.839 162.706C147.903 162.515 146.876 161.659 146.114 160.891C144.38 159.143 142.53 156.261 143.021 153.889C143.747 150.408 151.257 143.782 155.305 143.782C155.35 143.782 155.395 143.783 155.439 143.785C158.459 143.902 160.028 146.552 160.564 148.347C161.681 148.692 162.811 149.326 164.198 152.195C164.349 152.333 164.774 152.616 165.063 152.807C166.012 153.437 166.56 153.818 166.772 154.338C167.149 155.286 166.934 156.133 166.776 156.752C166.697 157.063 166.622 157.356 166.655 157.525C167.27 160.636 167.478 163.169 164.19 165.097C164.155 165.117 164.121 165.132 164.088 165.15L164.217 170.643C166.494 169.727 168.271 168.314 170.133 166.828C172.167 165.203 174.271 163.524 177.168 162.383C179.941 161.289 183.248 160.948 186.993 161.369C189.432 161.647 191.529 162.188 192.875 162.599C191.692 156.464 189.087 144.333 187.346 141.96C185.996 140.12 182.04 137.35 179.152 135.326C175.862 133.022 174.999 132.366 174.738 131.715C174.464 131.027 174.596 130.475 174.754 130.134C174.792 130.052 174.838 129.979 174.884 129.906C170.358 129.007 165.63 128.462 160.803 128.291C153.521 128.034 146.658 128.348 140.362 129.212C140.477 129.552 140.53 130.026 140.302 130.597C140.023 131.3 138.987 131.98 136.036 133.841C133.179 135.643 129.266 138.111 127.913 139.955Z" fill="#D8375D"/>
<path d="M180.35 181.95C180.389 181.948 184.055 181.688 188.714 181.087C188.671 181 188.638 180.907 188.623 180.805L186.044 163.188C182.918 162.922 180.166 163.239 177.863 164.146C175.231 165.184 173.241 166.773 171.316 168.309C169.113 170.068 166.834 171.887 163.644 172.856C162.036 173.347 160.327 173.586 158.437 173.586C158.266 173.586 158.093 173.584 157.919 173.58C157.888 173.579 157.859 173.572 157.829 173.568C157.791 173.574 157.753 173.58 157.713 173.58C157.704 173.58 157.695 173.58 157.686 173.58C155.525 173.521 153.371 173.042 151.101 172.116C148.588 171.087 146.219 169.622 143.927 168.206C141.53 166.725 139.052 165.193 136.396 164.146C133.966 163.189 131.238 162.717 128.277 162.73L125.666 180.598C130.263 181.478 133.921 181.95 133.963 181.956C134.284 181.997 134.562 182.199 134.7 182.493C136.833 187.026 140.25 194.186 141.239 196.004H172.745C173.758 194.197 177.33 187.024 179.565 182.478C179.714 182.175 180.013 181.974 180.35 181.95Z" fill="white"/>
<path d="M172.755 258.039C172.813 257.834 172.873 257.622 172.928 257.41C173.598 254.757 173.775 251.723 173.98 248.209C174.234 243.85 174.545 238.584 175.979 232.547C175.871 232.656 175.79 232.741 175.755 232.783C175.566 233.034 175.26 233.183 174.924 233.183H174.92C174.371 233.182 173.619 233.179 165.388 224.872C162.131 221.584 158.888 218.18 157.582 216.744C156.103 218.23 152.314 221.787 148.868 224.908C139.734 233.181 138.927 233.183 138.392 233.183H138.39C138.051 233.183 137.744 233.034 137.547 232.773C137.514 232.733 137.437 232.652 137.333 232.547C138.765 238.568 139.076 243.843 139.331 248.209C139.536 251.723 139.713 254.757 140.384 257.417C140.438 257.622 140.498 257.834 140.557 258.046C141.452 261.125 142.735 264.975 143.977 268.697C144.543 270.397 145.093 272.045 145.577 273.537C146.512 276.409 147.048 278.245 147.264 279.312C147.3 279.493 147.28 279.67 147.22 279.831L166.082 279.818C166.025 279.661 166.006 279.488 166.042 279.312C166.255 278.256 166.777 276.474 167.734 273.536C168.216 272.05 168.764 270.409 169.328 268.716C170.571 264.987 171.857 261.131 172.755 258.039Z" fill="#D8375D"/>
<path d="M157.824 171.695C157.863 171.691 157.9 171.684 157.94 171.684C157.947 171.684 157.954 171.684 157.962 171.685C159.555 171.715 160.989 171.564 162.334 171.237L162.205 165.736C161.997 165.758 161.788 165.774 161.579 165.774C159.243 165.774 156.901 164.441 155.709 163.645C155.241 164.093 154.612 164.425 153.888 164.601L152.585 170.657C154.357 171.301 156.051 171.638 157.738 171.685C157.768 171.685 157.795 171.692 157.824 171.695Z" fill="#F6F6F6"/>
<path d="M127.345 264.562C127.66 263.125 128.187 260.428 128.209 259.267C127.892 258.915 126.346 258.516 124.751 258.355C123.909 262.975 121.062 266.65 118.648 267.851C118.125 268.113 117.329 268.378 116.322 268.713C112.839 269.87 107.2 271.748 105.26 275.887C107.943 275.991 126.516 276.656 132.371 275.447C137.408 274.402 141.772 273.495 143.454 273.145C143.054 271.926 142.622 270.629 142.177 269.296C140.956 265.633 139.696 261.852 138.793 258.764C138.717 258.787 138.639 258.803 138.556 258.805C132.396 258.998 129.457 264.514 129.149 265.129C129.139 265.154 129.123 265.175 129.111 265.199C129.097 265.226 129.083 265.255 129.067 265.28C129.046 265.312 129.023 265.34 128.999 265.369C128.986 265.386 128.972 265.402 128.957 265.417C128.941 265.435 128.928 265.455 128.91 265.471C128.727 265.637 128.498 265.719 128.268 265.719C128.011 265.719 127.754 265.615 127.568 265.41C127.534 265.373 127.512 265.331 127.485 265.291C127.48 265.284 127.474 265.276 127.47 265.269C127.441 265.223 127.417 265.176 127.397 265.127C127.391 265.114 127.388 265.101 127.383 265.088C127.331 264.943 127.316 264.791 127.336 264.641C127.34 264.615 127.34 264.589 127.345 264.562Z" fill="#FF4139"/>
<path d="M134.694 229.982C131.321 226.755 125.183 220.97 116.906 213.216C116.467 213.664 116.125 214.069 115.899 214.42C113.556 218.045 113.226 221.407 114.681 226.825C115.942 231.53 118.473 237.209 120.706 242.221C122.657 246.597 124.341 250.377 124.739 252.554C124.977 253.858 125.05 255.17 124.972 256.467C129.412 256.864 130.107 258.326 130.107 259.195C130.107 259.625 130.047 260.211 129.959 260.846C131.74 259.002 134.491 257.093 138.327 256.92C137.791 254.34 137.624 251.524 137.438 248.319C137.131 243.066 136.782 237.117 134.694 229.982Z" fill="#F6F6F6"/>
<path d="M107.095 173.504C107.96 176.711 119.944 179.428 123.596 180.185C123.665 180.199 123.735 180.214 123.804 180.228L126.351 162.799C123.685 162.992 121.853 163.502 121.833 163.507C121.523 163.595 121.187 163.519 120.945 163.305C120.703 163.09 120.587 162.767 120.637 162.448C120.96 160.393 123.87 142.267 126.384 138.834C127.95 136.698 131.873 134.224 135.025 132.236C136.442 131.342 138.196 130.237 138.562 129.833C138.565 129.816 138.565 129.808 138.565 129.808C138.534 129.743 138.319 129.614 138.228 129.584C138.194 129.573 138.164 129.556 138.132 129.541C132.574 130.44 127.419 131.796 122.808 133.584C122.173 133.828 121.547 134.081 120.919 134.334C120.174 134.814 118.033 136.441 117.372 139.589C117.283 140.006 117.273 140.397 117.26 140.85C117.218 142.422 117.166 144.38 114.373 149.443C110.657 156.18 105.651 168.147 107.095 173.504Z" fill="#F6F6F6"/>
<path d="M115.724 266.913C116.623 266.615 117.399 266.357 117.802 266.155C119.625 265.247 122.444 261.875 123.007 257.218C123.182 255.793 123.138 254.339 122.873 252.894C122.517 250.941 120.875 247.257 118.974 242.992C116.713 237.917 114.149 232.165 112.849 227.316C111.256 221.382 111.664 217.478 114.306 213.391C114.713 212.76 115.332 212.064 116.188 211.269C116.191 211.265 116.193 211.262 116.196 211.258C116.207 211.246 116.221 211.237 116.233 211.225C116.24 211.219 116.245 211.214 116.251 211.207C121.876 206.021 135.769 198.496 139.4 196.567C137.957 193.828 134.401 186.306 133.205 183.767C131.805 183.573 127.746 182.982 123.211 182.042C111.966 179.712 106.096 177.082 105.265 173.998C103.549 167.638 109.386 154.555 112.712 148.527C115.282 143.868 115.328 142.166 115.364 140.798C115.378 140.299 115.392 139.782 115.517 139.197C115.768 137.996 116.2 136.977 116.702 136.121C94.2934 146.018 76.9765 160.158 74.5895 164.14C74.562 164.187 74.5288 164.228 74.4952 164.268C73.5413 173.04 72.7615 180.507 72.7615 183.564C72.7615 186.153 72.6406 192.851 72.5007 200.606C72.2224 216.027 71.8413 237.147 72.1015 242.752C72.1115 242.966 72.0451 243.174 71.9214 243.347C71.9228 243.357 71.9266 243.367 71.9276 243.378C71.929 243.397 72.1096 245.233 72.5927 247.454C73.2592 250.501 74.1491 252.784 75.166 254.056C77.5269 257.011 83.7171 263.489 90.2532 266.857C93.1632 268.355 95.3122 270.677 96.304 273.396C97.0928 275.552 97.0871 277.751 96.2888 279.428C96.2167 279.58 96.138 279.723 96.0546 279.862C98.26 279.861 100.485 279.861 102.725 279.86C102.633 278.687 102.723 277.558 103.014 276.502C104.65 270.595 111.853 268.2 115.724 266.913Z" fill="#D8375D"/>
<path d="M115.988 56.1996C116.314 55.6402 116.747 55.3221 117.115 55.1424C118.221 54.6015 119.589 54.8807 120.532 55.205L120.829 54.0151C119.778 53.6785 117.961 53.1319 116.824 52.9901C116.396 52.9266 115.442 54.1156 114.695 55.5724C115.042 55.7241 115.464 55.9299 115.988 56.1996Z" fill="white"/>
<path d="M46.668 72.8399C46.6969 72.8039 46.723 72.7674 46.7533 72.7323C47.5389 71.8202 48.6733 71.2859 50.1236 71.1256V66.665C50.1236 66.1416 50.5483 65.7168 51.0717 65.7168H57.0978C57.6212 65.7168 58.046 66.1416 58.046 66.665V71.0692H59.1027C59.1748 71.0692 59.2459 71.0773 59.316 71.0939C59.464 71.1275 62.9527 71.9903 62.9527 77.147V83.9685C63.0551 84.0022 63.158 84.0382 63.2561 84.0918C64.0389 84.5175 64.5627 85.496 64.7324 86.8472L64.7727 87.1672C65.0425 89.2816 65.6033 93.6806 64.6827 96.2117C64.5376 96.6123 64.3105 96.9916 64.0137 97.3543L72.0276 96.6854C70.8344 93.6929 69.6681 90.6882 68.5863 87.6541C67.9391 85.8397 66.0314 81.0013 69.8525 81.2421C71.2331 81.3293 72.296 82.9701 72.8957 84.115C74.6711 87.5024 75.9952 91.0622 78.2011 94.2182C79.8107 96.5218 82.7604 98.2294 85.6414 98.3954C88.6561 98.5684 91.5859 96.856 94.3304 93.3023C97.3247 89.4229 104.378 74.8239 107.688 67.8293C104.207 67.5103 102.451 64.5804 101.71 62.0028C96.5723 69.6342 87.2509 82.6895 87.149 82.8326C86.9698 83.083 86.6816 83.2294 86.3772 83.2294C86.3516 83.2294 86.3255 83.2285 86.2999 83.2261C85.9671 83.1991 85.6732 82.999 85.5262 82.6999C85.4011 82.4448 72.9564 57.1605 69.4733 52.0267C67.2114 48.6873 63.8355 46.6814 59.4417 46.0623L46.668 62.0853V72.8399Z" fill="#FF4139"/>
<path d="M53.4519 254.115C53.1172 256.614 52.7123 259.34 52.2856 262.209C52.0638 263.7 51.8343 265.243 51.6029 266.836C51.3356 268.665 51.1663 270.459 51.0867 272.189C52.7758 271.777 56.7022 271.087 63.4901 274.669C68.3134 277.216 78.455 274.335 84.5148 272.613C86.7752 271.971 88.4093 271.507 89.3054 271.443C90.8054 271.334 92.2409 271.597 93.3849 271.928C92.4135 270.569 91.0528 269.402 89.3845 268.543C82.5777 265.035 76.3131 258.53 73.6848 255.24C72.5645 253.84 71.6382 251.611 70.9209 248.626C67.6317 248.429 64.406 248.624 63.8205 249.068C63.4849 249.706 63.6589 252.878 64.2036 255.932C64.2742 256.328 64.0875 256.726 63.7376 256.924C63.592 257.007 63.4309 257.047 63.2701 257.047C63.0464 257.047 62.825 256.969 62.6486 256.815C62.6017 256.775 57.849 252.722 53.5163 254.102C53.495 254.108 53.4732 254.11 53.4519 254.115Z" fill="#FE874E"/>
<path d="M60.8931 99.5142C58.8664 100.435 56.0034 101.236 52.141 101.954C48.3346 102.656 39.932 100.658 38.2001 100.229C37.5815 100.473 36.8575 100.746 36.0881 101.026C31.3444 102.764 24.063 105.189 18.1824 106.993L16.9294 112.006H74.2736C74.6249 112.006 74.9279 112.2 75.0919 112.483C74.6031 107.653 73.9114 102.718 73.0382 99.1928C72.9955 99.0885 72.9021 98.8586 72.7675 98.5267L60.9694 99.5109C60.9433 99.5133 60.9182 99.5142 60.8931 99.5142Z" fill="#F6F6F6"/>
<path d="M44.9497 241.852C44.7193 238.227 44.0053 225.897 44.4751 218.976C44.8004 214.146 43.9115 203.101 43.1975 194.227C42.7244 188.35 42.3157 183.275 42.3157 180.89C42.3157 175.632 45.9173 137.108 47.0342 125.289L46.8939 123.397C46.8555 122.875 47.2476 122.42 47.7696 122.382C48.2925 122.34 48.7462 122.736 48.785 123.258L48.7917 123.348C48.9747 123.54 49.0794 123.803 49.0529 124.088C49.0529 124.088 49.0131 124.522 48.9372 125.307C49.5787 133.818 52.6939 175.439 52.6939 180.89C52.6939 183.018 52.5398 186.653 52.3606 190.862C52.032 198.599 51.6229 208.229 51.9709 213.397C52.4469 220.406 53.8923 237.763 54.2341 241.848H70.1714C69.9832 235.017 70.3402 215.226 70.6042 200.572C70.7441 192.826 70.865 186.136 70.865 183.564C70.865 180.35 71.6814 172.59 72.6675 163.531L72.9258 161.151C74.2646 148.825 75.7827 134.853 75.9287 126.965C75.9804 124.257 75.7144 118.881 75.1687 113.255C75.0426 113.63 74.6918 113.902 74.2737 113.902H16.4663C15.6822 117.584 15.6646 123.123 15.758 128.126C15.9088 136.172 18.5238 150.128 20.8307 162.442C22.6085 171.931 24.1441 180.127 24.1441 183.564C24.1441 187.508 25.3184 201.434 26.4533 214.9C27.4394 226.6 28.3757 237.704 28.5203 241.956L44.9497 241.852Z" fill="#F6F6F6"/>
<path d="M45.4568 84.9258L45.518 82.4183C44.0957 83.34 41.7518 84.912 41.0379 85.6255C39.8659 86.7979 35.9258 89.4258 35.7585 89.5372C35.6457 89.6125 35.5181 89.6623 35.3835 89.6841L33.883 89.924C33.7839 91.8237 33.7816 96.7034 36.1036 99.0003C36.7223 98.7704 37.2936 98.5504 37.7814 98.3546C37.9691 98.2797 38.1754 98.266 38.3707 98.3162C38.4669 98.3409 48.0391 100.784 51.7963 100.089C55.7255 99.3592 58.5538 98.5571 60.4426 97.6378C61.7975 96.9836 62.6461 96.2672 62.8998 95.5651C63.6645 93.4645 63.1231 89.22 62.8922 87.4076L62.8509 87.0833C62.7552 86.3191 62.5347 85.9488 62.4148 85.8147C61.349 86.4395 57.9982 87.6977 54.7669 88.1282C51.2596 88.5966 45.2591 86.8354 45.005 86.7605C44.503 86.6116 44.2161 86.0844 44.365 85.5824C44.5049 85.1088 44.9823 84.8328 45.4568 84.9258Z" fill="#700051"/>
<path d="M58.1395 44.6548C58.1508 44.6406 58.1646 44.6302 58.1764 44.6169C58.1793 44.6031 58.1788 44.5899 58.1821 44.5761C58.5657 42.9998 58.3936 41.8719 57.655 41.1281C56.0047 39.4664 51.8389 39.8357 49.7183 40.2302C49.9682 41.7226 50.3365 43.3662 50.8405 45.2308C50.8812 45.3835 50.8836 45.5437 50.8476 45.6968C50.4626 47.3225 49.0759 53.1741 48.0898 57.2588L58.1395 44.6548Z" fill="#FF4139"/>
<path d="M9.87204 271.442C10.7657 271.506 12.397 271.97 14.6551 272.612C20.7153 274.334 30.8564 277.218 35.6816 274.67C42.4705 271.09 46.394 271.775 48.0846 272.189C48.0049 270.459 47.8357 268.666 47.5692 266.836C47.3384 265.252 47.1108 263.718 46.8899 262.235C46.4618 259.356 46.055 256.621 45.7194 254.115C45.698 254.11 45.6767 254.108 45.6554 254.101C41.3047 252.716 36.5705 256.774 36.5231 256.815C36.3467 256.969 36.1249 257.047 35.9011 257.047C35.7404 257.047 35.5797 257.007 35.4332 256.924C35.0838 256.725 34.897 256.328 34.9681 255.932C35.5109 252.898 35.6873 249.749 35.3578 249.08C34.7121 248.666 31.3765 248.611 27.9413 248.945C27.3885 251.765 26.5669 253.887 25.4874 255.239C22.8567 258.533 16.5893 265.04 9.78623 268.543C8.11841 269.402 6.75779 270.569 5.78687 271.927C6.93225 271.596 8.36967 271.333 9.87204 271.442Z" fill="#FE874E"/>
<path d="M39.317 30.144C38.658 30.3663 37.9061 30.5085 37.1106 30.4393C35.7642 30.3203 34.5861 29.6471 33.6095 28.4382C32.0384 26.5016 31.5216 23.9847 32.2948 22.0281C32.8846 20.5343 34.1504 19.5496 35.7675 19.3268C38.191 18.9926 39.8892 20.3428 40.8008 21.5934C41.7599 20.7846 43.3296 19.323 44.2446 17.7396C45.2525 15.994 45.8048 11.951 46.0006 9.8551C44.4333 9.38292 36.7237 7.2685 31.8999 9.76361C31.1238 10.1623 30.453 10.6705 29.9045 11.275C28.6709 12.6389 27.8536 14.2821 27.4777 16.1576C26.5333 20.8529 28.5752 25.6729 30.253 27.4521C32.2967 29.6234 35.6395 33.2853 37.3092 35.119L39.317 30.144Z" fill="#D8365D"/>
<path d="M24.2736 44.3214C24.7306 44.2228 25.1734 44.1437 25.6252 44.083C25.977 44.0375 26.3036 44.1892 26.5028 44.4504C26.6658 44.4793 26.8285 44.5096 26.984 44.548C29.078 45.0705 37.4361 52.6606 42.6211 57.5138C42.0513 56.5571 41.3733 55.4017 40.5608 54.006C38.3691 50.2394 36.2153 46.4174 36.194 46.3794C36.093 46.1998 36.0589 46.0016 36.0797 45.811C36.0797 45.8105 36.0792 45.8101 36.0792 45.8096C35.9233 44.5713 36.0285 42.3971 36.386 39.363C34.2023 38.5357 27.2627 36.2473 23.7834 39.0657C21.1627 41.1877 20.7237 43.4951 20.7573 44.915C21.3623 44.7405 22.7333 44.3949 24.2736 44.3214Z" fill="#FF4139"/>
<path d="M21.8703 13.5619C21.8903 13.4808 21.9234 13.4069 21.9618 13.3367C21.9656 13.2784 21.9737 13.2191 21.9889 13.1604C22.051 12.9181 23.4846 7.53299 27.8585 5.08814C25.3662 2.67695 22.1117 2.05922 18.1625 3.26244C14.4988 4.37986 11.1006 8.00897 8.83874 13.2187C6.03786 19.6709 5.56804 27.2108 7.69668 31.5543C9.10328 34.4258 11.0314 35.8775 13.2747 35.7642C16.3122 35.6058 19.4938 32.6039 21.0113 28.4642C22.5535 24.2748 24.1071 19.2153 25.0021 16.1983C23.6406 15.2781 22.7886 14.7808 22.5578 14.7078C22.0496 14.5821 21.7452 14.0706 21.8703 13.5619Z" fill="#D8365D"/>
<path d="M349.981 117.146C349.595 119.401 348.616 121.568 347.225 123.292C347.158 123.351 347.096 123.416 347.047 123.495L346.993 123.579C345.236 125.614 342.944 126.904 340.359 127.307C340.356 127.307 340.353 127.308 340.351 127.309C336.288 127.784 332.026 126.044 330.12 125.127C330.098 125.113 330.079 125.097 330.055 125.085C329.651 124.879 329.214 124.636 328.644 124.3C326.286 122.899 324.024 120.472 321.921 117.086C317.389 109.785 314.665 99.8566 313.201 94.5226C312.154 90.7029 312 90.1151 311.024 90.1867C310.769 90.2047 310.162 90.3512 310.043 91.3088C309.855 92.8102 307.697 99.9011 305.23 107.118C304.942 107.973 304.649 108.818 304.357 109.653L297.321 102.908C297.749 99.8423 298.128 96.7741 298.388 94.6279C298.418 94.5264 298.43 94.4221 298.425 94.3174L298.604 92.8107C298.78 91.3207 298.931 90.034 298.972 89.8254C298.991 89.7282 299.016 89.5443 299.049 89.2873C299.144 88.5554 299.32 87.1933 299.717 85.5568C300.231 83.4267 300.944 81.5583 301.836 80.0034C302.851 78.2355 304.099 76.872 305.548 75.9509C306.775 75.1696 308.186 74.6879 309.742 74.5196C311.87 74.2949 314.893 75.8333 318.48 78.9741C320.87 81.0686 323.522 83.861 326.365 87.2739C329.479 91.0078 332.794 95.4428 336.218 100.456C338.435 103.708 339.837 105.961 339.851 105.983C340.127 106.428 340.712 106.564 341.157 106.288C341.601 106.012 341.738 105.428 341.462 104.983C341.45 104.965 340.546 103.511 339.047 101.261L346.672 102.957C347.499 104.872 350.736 112.753 349.981 117.146ZM318.763 140.504C318.592 141.192 318.879 142.242 319.646 145.045C320.205 147.09 321.026 150.096 321.987 154.195C319.663 154.266 317.419 154.408 315.245 154.552C313.882 154.641 312.589 154.725 311.359 154.785C306.949 143.686 306.074 139.483 306.128 137.919C306.548 125.515 320.492 119.069 320.633 119.005C320.705 118.973 320.769 118.93 320.828 118.883C322.632 121.627 324.563 123.753 326.59 125.212C325.939 127.145 322.224 138.041 321.004 138.965C319.209 139.732 318.894 139.976 318.763 140.504ZM323.521 160.209L314.412 162.233C313.585 160.273 312.812 158.403 312.104 156.646C313.15 156.589 314.237 156.519 315.369 156.444C317.646 156.294 319.997 156.144 322.425 156.08C322.708 157.28 323.075 158.663 323.521 160.209ZM324.061 162.031C325.245 165.912 326.562 169.685 327.162 171.371L319.899 173.791C319.783 173.648 319.614 173.537 319.351 173.487C319.343 173.486 319.337 173.488 319.329 173.486C318.534 171.725 316.955 168.195 315.164 164.008L324.061 162.031ZM332.422 182.714C329.676 183.694 323.425 189.252 321.745 190.927C319.906 192.766 318.398 192.937 318.398 192.937C311.623 193.978 308.199 190.15 307.015 188.404C306.96 187.664 307.163 186.784 308.15 186.149C309.846 185.058 313.148 185.948 315.12 186.48C316.64 186.89 317.27 187.06 317.804 186.61C318.065 186.392 318.202 186.057 318.172 185.715C317.853 182.049 318.875 179.052 319.486 177.261C319.691 176.659 319.852 176.178 319.93 175.779L327.943 173.109C330.094 176.938 331.635 180.366 332.422 182.714ZM312.554 211.433C314.702 217.408 316.255 221.725 317.014 223.724C319.484 230.239 326.771 252.617 316.846 266.993C311.041 275.402 300.248 279.666 284.767 279.666L283.449 279.668C277.032 279.678 247.836 279.723 210.601 279.769C210.685 278.558 210.568 277.4 210.243 276.317C208.51 270.548 201.406 268.185 197.59 266.915C196.69 266.616 195.913 266.357 195.507 266.155C193.685 265.248 190.866 261.875 190.303 257.216C190.128 255.793 190.173 254.339 190.437 252.894C190.794 250.941 192.436 247.258 194.336 242.993C196.598 237.918 199.161 232.166 200.461 227.316C202.051 221.377 201.643 217.473 199.005 213.391C198.599 212.762 197.99 212.08 197.162 211.315C197.148 211.298 197.138 211.279 197.123 211.262C197.067 211.201 197.003 211.152 196.937 211.109C191.535 206.228 178.888 199.343 174.378 196.955C175.681 194.637 179.704 186.491 181.028 183.8C182.327 183.697 185.799 183.397 189.858 182.85C202.815 181.115 209.54 178.685 210.417 175.419C212.391 168.076 203.314 151.306 202.272 149.418C199.39 144.198 199.189 142.903 198.975 141.531C198.926 141.216 198.876 140.897 198.8 140.535C198.641 139.781 198.442 139.13 198.219 138.561C230.044 156.724 240.968 193.287 243.619 204.412V204.413C243.619 204.413 243.62 204.413 243.62 204.414C243.62 204.419 243.622 204.425 243.623 204.43C243.624 204.431 243.624 204.432 243.624 204.433C243.626 204.441 243.627 204.448 243.628 204.455C243.629 204.457 243.628 204.459 243.629 204.46L244.181 206.989L244.182 206.991C244.182 206.991 244.182 206.992 244.182 206.992L244.183 206.997C244.184 206.999 244.185 207.001 244.185 207.004C244.272 207.454 244.663 207.757 245.106 207.757C245.163 207.757 245.221 207.753 245.28 207.742C245.614 207.682 245.872 207.446 245.989 207.149C245.992 207.139 245.995 207.129 245.998 207.119C246.014 207.075 246.028 207.03 246.038 206.983C246.044 206.955 246.045 206.927 246.048 206.899C246.052 206.867 246.056 206.835 246.056 206.802C246.056 206.767 246.052 206.732 246.048 206.697C246.045 206.674 246.047 206.65 246.043 206.627C246.042 206.622 246.032 206.573 246.031 206.568C245.885 205.822 245.701 204.98 245.484 204.067L245.481 204.056C245.481 204.055 245.481 204.054 245.481 204.054C245.479 204.049 245.478 204.044 245.477 204.039C245.477 204.037 245.476 204.036 245.476 204.035C245.475 204.031 245.475 204.027 245.474 204.024C245.473 204.019 245.473 204.014 245.472 204.008L223.451 103.214C223.446 103.194 223.438 103.175 223.432 103.156C223.425 103.13 223.417 103.104 223.407 103.078C223.395 103.046 223.38 103.016 223.365 102.985C223.354 102.963 223.343 102.941 223.33 102.92C223.311 102.889 223.29 102.861 223.268 102.833C223.253 102.815 223.239 102.796 223.224 102.778C223.2 102.752 223.174 102.729 223.148 102.707C223.129 102.69 223.111 102.673 223.091 102.658C223.066 102.638 223.038 102.623 223.01 102.606C222.986 102.592 222.964 102.576 222.939 102.565C222.911 102.551 222.88 102.541 222.851 102.53C222.824 102.52 222.798 102.509 222.771 102.501C222.714 102.486 222.655 102.475 222.594 102.471C222.593 102.471 222.592 102.47 222.59 102.47C222.552 102.467 221.651 102.408 219.875 102.448C216.073 102.134 208.655 100.475 201.385 92.9302C195.002 86.3082 190.1 76.6032 186.815 64.0836C186.392 60.9775 183.247 55.4416 174.244 56.2916C165.727 57.1042 160.374 70.0936 159.4 76.8682C158.995 79.6871 159.333 81.2711 160.434 81.7115C162.621 82.5838 164.46 80.2143 167.005 76.9356C168.481 75.0345 170.154 72.8798 172.202 70.9147C176.117 67.1638 180.234 65.7221 183.215 67.058C185.234 67.9631 186.415 70.023 186.421 72.6039C186.315 72.7295 186.237 72.8821 186.209 73.0566C185.859 75.1492 184.075 78.281 181.046 82.114C181.032 82.1296 181.019 82.1453 181.006 82.1614C180.799 82.4273 180.595 82.68 180.395 82.9242C180.38 82.9408 180.366 82.9574 180.352 82.9749C179.385 84.1554 178.573 85.0637 178.178 85.4975C178.107 85.5425 178.039 85.5942 177.979 85.6597C176.219 87.6024 174.79 89.0337 173.849 89.7993C171.52 91.6928 167.189 91.5568 160.012 91.3306C157.265 91.2444 154.151 91.1467 150.578 91.1467C148.433 91.1467 146.553 90.7333 144.991 89.9174C142.387 88.5577 140.63 86.0911 139.77 82.5866C138.881 78.9632 139.187 75.0302 139.884 72.739C140.056 72.1743 140.254 71.5016 140.482 70.7331C142.272 64.6715 145.998 52.0595 152.317 39.4214C152.551 38.953 152.361 38.3836 151.893 38.1494C151.424 37.9142 150.855 38.1053 150.621 38.5732C144.227 51.3616 140.469 64.0822 138.663 70.1955C138.438 70.9588 138.24 71.6268 138.07 72.1871C137.391 74.4172 137.044 78.0364 137.63 81.5764L132.595 79.8213C132.558 79.8085 132.517 79.7971 132.478 79.7891C132.475 79.7881 132.157 79.7189 131.662 79.5416C131.551 79.47 131.426 79.4217 131.293 79.4003L131.142 79.3401C128.953 78.4081 125.358 75.968 125.865 70.0889C126.305 64.983 134.397 47.6045 134.479 47.4296C134.49 47.4054 134.5 47.3807 134.509 47.3556C134.564 47.2072 140.048 32.4566 146.544 28.6051C151.574 25.6161 157.231 24.528 163.845 25.2809C169.265 25.8972 174.241 27.6736 177.553 28.8559C178.094 29.0351 231.744 46.909 247.945 59.3879C253.164 63.3005 262.648 81.9955 276.134 114.947C276.149 115.004 276.162 115.062 276.181 115.117C276.202 115.173 276.236 115.219 276.265 115.269C276.39 115.576 276.514 115.883 276.64 116.191L276.861 116.731C276.866 116.744 276.871 116.758 276.877 116.772C276.937 116.92 276.997 117.069 277.058 117.222C277.063 117.236 277.069 117.25 277.075 117.264C277.076 117.266 277.077 117.268 277.078 117.271C285.163 137.154 294.456 161.551 305.485 191.858C308.231 199.415 310.627 206.078 312.554 211.433ZM208.691 279.771L199.604 279.781C189.395 279.791 178.722 279.802 167.863 279.816C167.878 279.775 167.892 279.732 167.901 279.687C168.119 278.604 168.731 276.623 169.266 274.959C170.775 275.273 175.298 276.213 180.557 277.305C183.067 277.823 187.783 277.984 192.686 277.984C199.324 277.984 206.299 277.689 208.598 277.581C208.728 278.275 208.755 279.009 208.691 279.771ZM166.042 279.312C166.006 279.488 166.025 279.661 166.082 279.818L147.22 279.831C147.281 279.67 147.301 279.493 147.264 279.312C147.048 278.245 146.512 276.409 145.577 273.537C145.093 272.045 144.543 270.397 143.977 268.697C142.736 264.975 141.452 261.125 140.558 258.046C140.498 257.833 140.438 257.622 140.385 257.417C139.713 254.757 139.536 251.723 139.331 248.209C139.076 243.843 138.765 238.568 137.333 232.547C137.437 232.652 137.514 232.733 137.547 232.772C137.744 233.034 138.052 233.183 138.39 233.183H138.392C138.926 233.183 139.735 233.181 148.868 224.908C152.314 221.787 156.103 218.229 157.582 216.744C158.889 218.18 162.131 221.584 165.388 224.872C173.619 233.179 174.371 233.182 174.921 233.183H174.924C175.261 233.183 175.566 233.034 175.755 232.783C175.79 232.741 175.871 232.656 175.979 232.547C174.545 238.584 174.234 243.849 173.98 248.209C173.775 251.723 173.598 254.757 172.928 257.41C172.873 257.622 172.813 257.833 172.755 258.039C171.857 261.13 170.571 264.986 169.328 268.716C168.764 270.409 168.217 272.05 167.734 273.536C166.777 276.474 166.255 278.256 166.042 279.312ZM104.626 279.86C104.558 279.125 104.57 278.416 104.682 277.744C104.738 277.757 104.795 277.766 104.855 277.769C105.343 277.79 112.006 278.064 118.915 278.064C124.329 278.064 129.895 277.895 132.755 277.304C138.012 276.213 142.535 275.273 144.044 274.96C144.788 277.279 145.225 278.796 145.405 279.687C145.415 279.738 145.43 279.785 145.448 279.832L104.626 279.86ZM103.014 276.502C102.722 277.558 102.633 278.687 102.725 279.861C100.485 279.861 98.2599 279.862 96.055 279.862C96.1379 279.723 96.2166 279.58 96.2887 279.428C97.0875 277.751 97.0927 275.552 96.3038 273.396C95.312 270.678 93.163 268.356 90.2531 266.857C83.7169 263.489 77.5268 257.011 75.1659 254.056C74.149 252.784 73.2591 250.501 72.593 247.454C72.1095 245.233 71.9288 243.397 71.9274 243.378C71.9265 243.367 71.9227 243.357 71.9213 243.346C72.045 243.174 72.1114 242.967 72.1014 242.752C71.8416 237.148 72.2223 216.028 72.5006 200.606C72.6404 192.851 72.7613 186.153 72.7613 183.564C72.7613 180.508 73.5412 173.04 74.4951 164.267C74.5287 164.228 74.5619 164.187 74.5894 164.14C76.9764 160.158 94.2933 146.018 116.702 136.122C116.2 136.978 115.768 137.997 115.517 139.197C115.392 139.782 115.378 140.299 115.364 140.798C115.328 142.166 115.282 143.868 112.712 148.527C109.386 154.556 103.549 167.638 105.264 173.997C106.096 177.081 111.966 179.713 123.21 182.042C127.746 182.983 131.805 183.574 133.205 183.767C134.401 186.307 137.957 193.828 139.4 196.567C135.768 198.496 121.875 206.021 116.251 211.208C116.245 211.214 116.24 211.219 116.233 211.225C116.221 211.237 116.207 211.246 116.195 211.259C116.193 211.262 116.191 211.266 116.188 211.269C115.332 212.064 114.713 212.76 114.306 213.391C111.665 217.478 111.256 221.383 112.849 227.316C114.149 232.166 116.713 237.918 118.974 242.993C120.875 247.258 122.516 250.941 122.873 252.894C123.137 254.339 123.182 255.793 123.007 257.218C122.444 261.875 119.625 265.248 117.802 266.155C117.399 266.357 116.623 266.615 115.724 266.914C111.853 268.2 104.65 270.595 103.014 276.502ZM94.5768 278.613C94.3814 279.022 94.0292 279.546 93.4361 279.803H51.4418C51.2754 278.836 51.0241 276.908 51.0332 274.158C51.1052 274.141 51.1806 274.122 51.2636 274.101C52.5687 273.767 56.0376 272.881 62.605 276.346C64.2501 277.215 66.3517 277.554 68.661 277.554C74.0636 277.554 80.5956 275.698 85.033 274.438C87.0218 273.872 88.7394 273.384 89.4424 273.335C91.6934 273.167 93.8604 274.05 94.6398 274.412C95.122 275.951 95.1073 277.499 94.5768 278.613ZM50.4097 261.93C50.1883 263.423 49.9584 264.968 49.7261 266.562C49.674 266.921 49.6313 267.275 49.5858 267.63C49.5408 267.275 49.4981 266.921 49.4459 266.563C49.215 264.978 48.987 263.441 48.7661 261.957C48.2887 258.75 47.8383 255.72 47.4851 252.999C46.9319 248.758 46.6796 245.794 46.6692 243.424C46.838 243.234 46.9252 242.985 46.9077 242.731C46.8968 242.575 45.8325 226.978 46.3667 219.104C46.7014 214.134 45.8443 203.477 45.0872 194.074C44.6179 188.239 44.212 183.2 44.212 180.891C44.212 176.865 46.3867 152.712 47.8781 136.624C48.9979 151.821 50.7975 176.862 50.7975 180.891C50.7975 182.978 50.6439 186.595 50.4662 190.782C50.1353 198.565 49.7242 208.252 50.0788 213.524C50.6183 221.471 52.399 242.662 52.417 242.876C52.427 242.996 52.4597 243.109 52.5099 243.212C52.5085 243.231 52.5038 243.25 52.5038 243.271C52.5038 245.623 52.252 248.624 51.6869 253C51.3347 255.713 50.8852 258.733 50.4097 261.93ZM47.7302 279.803H20.1845C16.9153 279.793 7.27005 279.761 5.53206 279.692C4.25204 278.939 3.82583 276.674 4.52747 274.415C5.30497 274.056 7.48481 273.169 9.73576 273.335C10.435 273.384 12.1502 273.872 14.1367 274.436C18.575 275.697 25.107 277.554 30.5115 277.554C32.8194 277.554 34.9224 277.215 36.5665 276.346C43.142 272.879 46.6062 273.766 47.9113 274.101C47.9933 274.122 48.0678 274.141 48.1389 274.158C48.1479 276.908 47.8966 278.837 47.7302 279.803ZM9.78649 268.543C16.5896 265.04 22.8565 258.533 25.4876 255.24C26.5671 253.887 27.3887 251.765 27.941 248.945C31.3762 248.612 34.7124 248.666 35.3576 249.08C35.6875 249.749 35.5112 252.898 34.9679 255.932C34.8972 256.328 35.0836 256.725 35.4334 256.924C35.5794 257.007 35.7406 257.047 35.9013 257.047C36.1251 257.047 36.3465 256.969 36.5234 256.815C36.5708 256.774 41.3045 252.716 45.6556 254.101C45.677 254.108 45.6983 254.11 45.7196 254.115C46.0553 256.622 46.4616 259.356 46.8901 262.236C47.1111 263.718 47.3386 265.253 47.569 266.836C47.8359 268.666 48.0052 270.459 48.0848 272.189C46.3943 271.775 42.4707 271.09 35.6819 274.67C30.8562 277.218 20.7155 274.334 14.6553 272.612C12.3972 271.971 10.7655 271.506 9.87228 271.442C8.36991 271.332 6.93201 271.596 5.7871 271.927C6.75802 270.569 8.11866 269.402 9.78649 268.543ZM62.6487 256.815C62.825 256.969 63.0469 257.047 63.2702 257.047C63.4309 257.047 63.5921 257.007 63.7381 256.924C64.0875 256.725 64.2748 256.329 64.2037 255.933C63.6594 252.878 63.4854 249.707 63.8211 249.068C64.4061 248.624 67.6322 248.43 70.921 248.626C71.6382 251.611 72.5651 253.84 73.6848 255.24C76.3132 258.531 82.5777 265.036 89.3846 268.543C91.0529 269.402 92.4135 270.569 93.3849 271.927C92.2409 271.597 90.8054 271.333 89.3054 271.442C88.4094 271.506 86.7757 271.971 84.5148 272.613C78.4556 274.336 68.3135 277.216 63.4902 274.67C56.7022 271.087 52.7759 271.777 51.0867 272.19C51.1664 270.459 51.3356 268.666 51.603 266.836C51.8343 265.243 52.0643 263.7 52.2862 262.21C52.7124 259.34 53.1172 256.615 53.4519 254.115C53.4737 254.11 53.4951 254.108 53.5164 254.101C57.849 252.723 62.6017 256.775 62.6487 256.815ZM26.4534 214.9C25.3184 201.434 24.1441 187.508 24.1441 183.564C24.1441 180.127 22.6085 171.931 20.8307 162.442C18.5238 150.129 15.9088 136.172 15.758 128.127C15.6646 123.123 15.6822 117.584 16.4663 113.903H74.2737C74.6918 113.903 75.0426 113.63 75.1687 113.255C75.7144 118.882 75.9804 124.257 75.9287 126.965C75.7827 134.854 74.2647 148.825 72.9258 161.152L72.6675 163.531C71.6814 172.59 70.865 180.35 70.865 183.564C70.865 186.136 70.7441 192.826 70.6042 200.572C70.3402 215.226 69.9832 235.017 70.1714 241.848H54.2342C53.8924 237.764 52.4469 220.406 51.9704 213.397C51.6229 208.229 52.032 198.6 52.3606 190.863C52.5398 186.654 52.6939 183.018 52.6939 180.891C52.6939 175.439 49.5787 133.818 48.9372 125.307C49.0126 124.522 49.0529 124.088 49.0529 124.088C49.0795 123.804 48.9747 123.54 48.7917 123.348L48.785 123.258C48.7462 122.736 48.2925 122.341 47.7696 122.382C47.2476 122.421 46.855 122.875 46.8939 123.397L47.0343 125.289C45.9173 137.109 42.3157 175.632 42.3157 180.891C42.3157 183.276 42.7244 188.35 43.1975 194.227C43.911 203.101 44.7999 214.146 44.4752 218.976C44.0053 225.897 44.7193 238.227 44.9497 241.853L28.5204 241.956C28.3758 237.704 27.4395 226.6 26.4534 214.9ZM12.1142 106.797C10.3705 107.282 7.63414 106.982 5.45573 105.221C2.99571 103.23 1.8361 99.849 2.10254 95.4419C2.38509 90.7745 5.57614 79.937 8.39172 70.3752C9.38683 66.995 10.3274 63.8016 11.1054 61.0021C12.7893 54.9367 16.1435 50.2319 20.5515 47.7548C21.8045 47.0498 23.1414 46.5317 24.52 46.2107C25.2658 46.1856 25.9433 46.2439 26.5273 46.389C28.0316 46.764 36.9258 54.6503 44.7719 62.1584V80.6424C43.6133 81.3863 40.673 83.3087 39.6973 84.2848C38.8753 85.1059 36.0886 87.0321 34.8778 87.8447C31.9233 88.3164 28.9523 88.7929 25.9831 89.2665C25.5839 89.33 24.923 80.8164 24.923 79.9853C24.923 77.1399 25.0757 74.2475 25.3416 71.4352C25.4919 69.8447 25.3616 68.22 25.6507 66.6413C26.011 64.6777 24.8159 62.8264 23.6866 64.7545C22.8935 66.1089 22.0591 69.6598 20.7629 75.3417C20.7629 75.3417 20.314 77.3035 20.314 77.3039C19.2174 82.0585 18.0791 86.4604 15.9292 90.8376C14.8914 92.9511 15.9254 92.7946 17.6126 92.5244C19.3781 92.2413 21.1436 91.9597 22.9096 91.6777C25.9295 91.195 28.9499 90.7124 31.9698 90.2293C31.8859 92.4993 32.0414 96.921 34.1932 99.6954C29.3562 101.43 22.5588 103.677 17.1082 105.339C15.2754 105.895 13.5948 106.386 12.1142 106.797ZM23.7833 39.0663C27.2631 36.2474 34.2027 38.5362 36.3863 39.363C36.0289 42.3972 35.9236 44.5718 36.0796 45.8101C36.0796 45.8106 36.0796 45.8111 36.0801 45.8115C36.0588 46.0016 36.0929 46.1998 36.1944 46.3795C36.2157 46.4179 38.3694 50.2399 40.5611 54.0061C41.3732 55.4018 42.0512 56.5571 42.6215 57.5138C37.4365 52.6611 29.0783 45.071 26.9838 44.5486C26.8288 44.5102 26.6662 44.4798 26.5031 44.4504C26.304 44.1897 25.9774 44.038 25.6251 44.083C25.1738 44.1442 24.731 44.2233 24.274 44.322C22.7332 44.395 21.3626 44.7411 20.7577 44.915C20.724 43.4952 21.1631 41.1878 23.7833 39.0663ZM30.2531 27.4527C28.5753 25.6729 26.533 20.8529 27.4774 16.1576C27.8533 14.2821 28.6706 12.639 29.9047 11.275C30.4532 10.6711 31.124 10.1624 31.9001 9.76365C36.7239 7.26855 44.433 9.38343 46.0003 9.85514C45.805 11.9511 45.2526 15.9941 44.2447 17.7396C43.3298 19.3231 41.7596 20.7847 40.801 21.5935C39.8889 20.3433 38.1907 18.9926 35.7677 19.3269C34.1506 19.5497 32.8848 20.5343 32.295 22.0282C31.5218 23.9847 32.0385 26.5016 33.6092 28.4383C34.5863 29.6472 35.7644 30.3204 37.1107 30.4394C37.9058 30.5086 38.6582 30.3664 39.3167 30.144L37.3094 35.1195C35.6392 33.2853 32.2964 29.6235 30.2531 27.4527ZM25.6171 14.3281C24.85 13.819 24.3133 13.4923 23.9327 13.2799C24.3214 12.0876 25.811 8.1968 29.1329 6.56121C29.6757 7.31785 30.046 8.02851 30.2697 8.51824C29.607 8.94065 29.0129 9.43606 28.4995 10.0016C27.4423 11.1698 26.6477 12.5086 26.1177 13.9929C25.92 14.047 25.7436 14.1631 25.6171 14.3281ZM21.0118 28.4639C19.4943 32.6036 16.3127 35.6055 13.2748 35.7643C11.0314 35.8776 9.1038 34.4259 7.69672 31.5544C5.56856 27.2109 6.03837 19.671 8.83878 13.2188C11.1006 8.00859 14.4989 4.37997 18.1626 3.26255C22.1117 2.05933 25.3663 2.67705 27.859 5.08824C23.4846 7.53309 22.0515 12.9182 21.9889 13.1605C21.9738 13.2192 21.9657 13.2785 21.9619 13.3368C21.9235 13.407 21.8908 13.4809 21.8704 13.562C21.7457 14.0707 22.0496 14.5822 22.5578 14.7074C22.7887 14.7809 23.6411 15.2782 25.0022 16.1984C24.1071 19.2154 22.5535 24.2749 21.0118 28.4639ZM50.8473 45.6968C50.8838 45.5432 50.8815 45.383 50.8402 45.2308C50.3363 43.3662 49.9679 41.7226 49.7181 40.2301C51.8386 39.8352 56.0049 39.4664 57.6547 41.1276C58.3933 41.8719 58.5659 42.9997 58.1818 44.5761C58.1785 44.5898 58.179 44.6031 58.1762 44.6168C58.1643 44.6301 58.1506 44.6405 58.1392 44.6548L48.09 57.2587C49.0757 53.174 50.4628 47.3224 50.8473 45.6968ZM59.442 46.0623C63.8358 46.6815 67.2112 48.6873 69.4736 52.0268C72.9566 57.1606 85.4013 82.4449 85.5265 82.6995C85.6735 82.9991 85.9674 83.1992 86.3002 83.2262C86.3258 83.2285 86.3519 83.2295 86.3775 83.2295C86.6818 83.2295 86.9701 83.0825 87.1493 82.8327C87.2512 82.6895 96.5727 69.6337 101.71 62.0024C102.452 64.5805 104.207 67.5103 107.688 67.8294C104.378 74.8235 97.325 89.4229 94.3307 93.3023C91.5862 96.8561 88.6564 98.5685 85.6417 98.3954C83.5572 98.2755 81.5342 97.2809 79.6649 95.8415C76.5905 88.7611 72.7628 81.6262 70.2914 74.0716C70.0254 73.2595 69.9197 71.3859 69.8495 70.534C69.695 68.6576 69.529 67.7469 69.0953 65.9259C68.8791 65.0171 68.1945 61.3671 66.6215 61.9882C66.1346 62.1802 65.8957 62.7306 66.0877 63.2175C66.6338 64.6042 67.0828 65.8918 67.4378 67.0993C67.5995 68.2575 67.7522 69.7044 67.7981 71.2651C67.8612 73.2548 67.7408 75.0677 67.4398 76.6521C67.2146 77.8373 66.8832 78.904 66.4546 79.8242L66.3693 80.0048C66.1943 80.3798 66.2901 80.8083 66.5708 81.0814C67.1525 84.1606 70.0145 91.6369 72.0275 96.6854L64.014 97.3539C64.3108 96.9917 64.5379 96.6124 64.683 96.2113C65.6036 93.6802 65.0428 89.2816 64.773 87.1672L64.7323 86.8472C64.563 85.4961 64.0392 84.5171 63.2565 84.0914C63.1583 84.0378 63.0554 84.0023 62.953 83.9681V77.147C62.953 71.9904 59.4642 71.1276 59.3163 71.0934C59.2462 71.0773 59.175 71.0693 59.103 71.0693H58.0463V66.665C58.0463 66.1416 57.6215 65.7169 57.0981 65.7169H51.072C50.5482 65.7169 50.1238 66.1416 50.1238 66.665V71.1257C48.6736 71.2854 47.5387 71.8197 46.7536 72.7319C46.7228 72.7674 46.6972 72.8039 46.6683 72.84V62.0854L59.442 46.0623ZM116.824 52.9901C117.961 53.1318 119.779 53.678 120.829 54.0151L120.533 55.205C119.589 54.8807 118.221 54.6015 117.115 55.142C116.747 55.3221 116.313 55.6402 115.989 56.1996C115.464 55.9299 115.042 55.7241 114.695 55.5724C115.442 54.1156 116.396 52.9266 116.824 52.9901ZM52.0202 67.6132H56.1499V71.0693H52.0202V67.6132ZM47.5486 76.3377C47.5467 76.324 47.3647 74.9278 48.1901 73.9697C48.7642 73.3036 49.7337 72.9656 51.072 72.9656H58.9683C59.3562 73.1017 61.0567 73.8844 61.0567 77.147V84.3872C59.9872 84.8878 57.3076 85.8768 54.5172 86.2485C52.4933 86.5177 49.3222 85.8886 47.3415 85.4131L47.5591 76.5013C47.5605 76.4468 47.5572 76.3923 47.5486 76.3377ZM45.0052 86.76C45.2588 86.8354 51.2593 88.5961 54.767 88.1282C57.9979 87.6977 61.3492 86.4395 62.4149 85.8147C62.5349 85.9488 62.7553 86.3191 62.8511 87.0828L62.8924 87.4076C63.1232 89.2195 63.6646 93.464 62.8999 95.5651C62.6463 96.2668 61.7977 96.9831 60.4428 97.6378C58.554 98.5571 55.7252 99.3588 51.796 100.089C48.0393 100.784 38.4671 98.3409 38.3709 98.3163C38.1755 98.266 37.9688 98.2798 37.7816 98.3547C37.2937 98.5505 36.7225 98.7704 36.1038 99.0004C33.7812 96.7034 33.7841 91.8232 33.8827 89.9236L35.3837 89.6837C35.5178 89.6623 35.6458 89.6121 35.7587 89.5367C35.926 89.4258 39.8656 86.7974 41.0381 85.6255C41.752 84.9115 44.0959 83.3395 45.5181 82.4179L45.457 84.9258C44.9819 84.8328 44.505 85.1083 44.3652 85.5819C44.2163 86.084 44.5031 86.6116 45.0052 86.76ZM73.0382 99.1928C73.9115 102.718 74.6036 107.652 75.0919 112.483C74.9284 112.199 74.6249 112.006 74.2737 112.006H16.9295L18.183 106.993C24.063 105.189 31.3445 102.764 36.0886 101.026C36.8581 100.746 37.5815 100.473 38.2007 100.229C39.932 100.658 48.3352 102.656 52.1416 101.954C56.0039 101.236 58.8669 100.435 60.8931 99.5143C60.9187 99.5143 60.9439 99.5128 60.9695 99.5109L72.7675 98.5267C72.9021 98.8586 72.9955 99.0885 73.0382 99.1928ZM117.372 139.589C118.033 136.442 120.174 134.815 120.919 134.334C121.546 134.081 122.173 133.828 122.807 133.584C127.418 131.796 132.574 130.44 138.132 129.542C138.164 129.556 138.193 129.573 138.228 129.584C138.319 129.615 138.533 129.743 138.565 129.808C138.565 129.808 138.565 129.816 138.561 129.833C138.195 130.237 136.442 131.343 135.025 132.237C131.872 134.225 127.95 136.699 126.383 138.834C123.869 142.268 120.96 160.393 120.637 162.448C120.586 162.767 120.703 163.091 120.945 163.305C121.186 163.52 121.522 163.595 121.833 163.508C121.853 163.502 123.685 162.992 126.351 162.799L123.804 180.228C123.734 180.214 123.665 180.2 123.595 180.185C119.943 179.429 107.96 176.711 107.095 173.504C105.651 168.147 110.656 156.18 114.372 149.443C117.165 144.38 117.218 142.423 117.26 140.85C117.273 140.397 117.283 140.007 117.372 139.589ZM140.303 130.597C140.531 130.026 140.477 129.552 140.362 129.211C146.658 128.347 153.521 128.034 160.803 128.29C165.63 128.462 170.359 129.007 174.885 129.906C174.838 129.979 174.792 130.052 174.754 130.134C174.596 130.475 174.464 131.027 174.738 131.715C174.999 132.366 175.862 133.022 179.152 135.326C182.04 137.349 185.996 140.12 187.346 141.96C189.087 144.333 191.692 156.464 192.875 162.599C191.529 162.187 189.432 161.647 186.994 161.369C183.248 160.947 179.942 161.289 177.167 162.382C174.271 163.524 172.168 165.203 170.133 166.827C168.271 168.314 166.494 169.727 164.216 170.643L164.088 165.15C164.121 165.131 164.156 165.117 164.189 165.097C167.478 163.169 167.27 160.635 166.655 157.525C166.622 157.356 166.697 157.063 166.776 156.752C166.934 156.133 167.149 155.285 166.773 154.338C166.56 153.818 166.012 153.437 165.063 152.807C164.774 152.615 164.349 152.333 164.198 152.195C162.811 149.326 161.681 148.692 160.564 148.347C160.028 146.551 158.459 143.901 155.439 143.785C155.395 143.783 155.35 143.782 155.305 143.782C151.257 143.782 143.747 150.408 143.021 153.889C142.53 156.26 144.38 159.143 146.114 160.891C146.876 161.659 147.904 162.515 148.839 162.706C149.501 163.787 150.617 164.495 151.929 164.688L150.805 169.916C148.816 168.995 146.917 167.824 144.924 166.593C142.457 165.068 139.905 163.491 137.091 162.382C134.175 161.233 130.892 160.717 127.324 160.847C125.406 160.914 123.802 161.155 122.734 161.36C123.764 155.132 126.158 142.352 127.913 139.955C129.266 138.111 133.179 135.643 136.036 133.841C138.987 131.979 140.023 131.3 140.303 130.597ZM153.888 164.601C154.612 164.425 155.241 164.092 155.709 163.644C156.901 164.441 159.243 165.774 161.579 165.774C161.788 165.774 161.997 165.758 162.205 165.736L162.334 171.237C160.989 171.564 159.556 171.715 157.962 171.684C157.954 171.684 157.947 171.684 157.94 171.684C157.9 171.684 157.863 171.691 157.824 171.695C157.796 171.692 157.768 171.685 157.738 171.684C156.051 171.638 154.357 171.301 152.585 170.657L153.888 164.601ZM150.467 158.993C151.079 158.333 152.335 158.257 152.759 158.284C153.023 158.302 153.27 158.214 153.461 158.041C153.652 157.869 153.764 157.626 153.773 157.368C153.801 156.475 153.996 153.922 154.545 152.846C155.114 151.74 158.146 149.811 159.034 149.811C159.043 149.811 159.054 149.812 159.063 149.812C159.152 149.861 159.241 149.902 159.33 149.938C159.522 150.017 159.704 150.07 159.879 150.12C160.545 150.312 161.301 150.53 162.526 153.094C162.728 153.52 163.175 153.83 164.014 154.387C164.339 154.602 164.864 154.951 165.041 155.126C165.14 155.449 165.065 155.785 164.938 156.283C164.816 156.761 164.679 157.303 164.795 157.892C165.423 161.071 165.289 162.254 163.231 163.461C163.083 163.547 162.938 163.615 162.78 163.671C160.503 164.522 157.179 162.455 156.091 161.586C155.922 161.45 155.712 161.377 155.498 161.377C155.421 161.377 155.343 161.387 155.266 161.406C154.978 161.479 154.741 161.683 154.626 161.956C154.434 162.409 153.779 162.76 152.992 162.832C152.055 162.921 150.785 162.594 150.284 161.377C150.197 161.171 150.135 160.935 150.1 160.675C149.997 159.921 150.117 159.37 150.467 158.993ZM141.239 196.004C140.25 194.185 136.833 187.026 134.7 182.492C134.562 182.199 134.284 181.997 133.963 181.956C133.921 181.95 130.263 181.478 125.666 180.598L128.277 162.729C131.239 162.717 133.966 163.189 136.396 164.146C139.052 165.193 141.53 166.725 143.927 168.206C146.219 169.622 148.588 171.087 151.101 172.116C153.371 173.042 155.525 173.521 157.687 173.58C157.695 173.58 157.704 173.58 157.713 173.58C157.753 173.58 157.791 173.573 157.829 173.568C157.859 173.572 157.888 173.579 157.919 173.58C158.093 173.584 158.266 173.586 158.437 173.586C160.327 173.586 162.036 173.346 163.644 172.856C166.834 171.887 169.113 170.068 171.316 168.309C173.241 166.772 175.232 165.184 177.863 164.146C180.166 163.239 182.918 162.922 186.044 163.188L188.624 180.805C188.638 180.907 188.671 181 188.715 181.087C184.055 181.688 180.389 181.947 180.35 181.95C180.013 181.974 179.715 182.175 179.565 182.478C177.33 187.024 173.758 194.197 172.745 196.004H141.239ZM129.959 260.846C130.047 260.211 130.107 259.625 130.107 259.195C130.107 258.326 129.412 256.864 124.972 256.467C125.05 255.17 124.977 253.858 124.739 252.554C124.341 250.377 122.657 246.597 120.706 242.221C118.473 237.209 115.942 231.53 114.681 226.825C113.226 221.407 113.556 218.045 115.899 214.42C116.125 214.069 116.467 213.664 116.906 213.216C125.184 220.97 131.321 226.755 134.694 229.982C136.782 237.117 137.131 243.066 137.438 248.319C137.624 251.524 137.791 254.34 138.328 256.92C134.491 257.093 131.74 259.002 129.959 260.846ZM127.383 265.089C127.388 265.102 127.392 265.114 127.397 265.127C127.417 265.177 127.441 265.223 127.47 265.269C127.475 265.277 127.481 265.284 127.485 265.292C127.512 265.332 127.535 265.374 127.568 265.411C127.755 265.616 128.011 265.719 128.269 265.719C128.498 265.719 128.728 265.637 128.91 265.472C128.928 265.455 128.941 265.435 128.958 265.417C128.972 265.402 128.986 265.386 128.999 265.37C129.024 265.341 129.047 265.312 129.067 265.281C129.084 265.255 129.097 265.227 129.111 265.199C129.124 265.176 129.139 265.154 129.149 265.13C129.458 264.515 132.396 258.998 138.556 258.806C138.639 258.803 138.717 258.787 138.793 258.765C139.696 261.852 140.956 265.634 142.178 269.297C142.622 270.629 143.054 271.927 143.454 273.145C141.772 273.495 137.408 274.402 132.371 275.447C126.517 276.656 107.944 275.991 105.26 275.887C107.2 271.749 112.839 269.871 116.322 268.713C117.329 268.378 118.125 268.113 118.649 267.852C121.063 266.65 123.909 262.976 124.751 258.355C126.346 258.516 127.892 258.915 128.21 259.268C128.188 260.428 127.66 263.125 127.346 264.563C127.34 264.589 127.34 264.615 127.336 264.642C127.316 264.792 127.331 264.944 127.383 265.089ZM188.339 256.467C183.899 256.864 183.204 258.326 183.204 259.195C183.204 259.625 183.264 260.211 183.352 260.845C181.572 259.003 178.819 257.095 174.983 256.921C175.519 254.344 175.686 251.527 175.873 248.319C176.179 243.067 176.528 237.12 178.617 229.982C181.983 226.762 188.119 220.978 196.403 213.217C196.84 213.66 197.183 214.065 197.413 214.421C199.751 218.04 200.081 221.403 198.63 226.826C197.368 231.53 194.837 237.209 192.604 242.221C190.654 246.597 188.97 250.377 188.571 252.554C188.333 253.858 188.26 255.17 188.339 256.467ZM185.96 264.539C185.645 263.097 185.123 260.423 185.102 259.268C185.419 258.915 186.965 258.516 188.56 258.355C189.402 262.977 192.248 266.65 194.66 267.851C195.184 268.114 195.982 268.379 196.991 268.715C200.414 269.853 205.948 271.697 207.965 275.711C203.157 275.922 186.328 276.56 180.941 275.448C175.903 274.402 171.539 273.495 169.856 273.145C170.255 271.933 170.685 270.642 171.127 269.316C172.35 265.648 173.611 261.864 174.517 258.766C174.592 258.788 174.669 258.803 174.75 258.806C181.139 259.005 184.063 264.925 184.184 265.177C184.187 265.182 184.19 265.188 184.193 265.194C184.197 265.202 184.204 265.209 184.208 265.217C184.241 265.277 184.278 265.332 184.321 265.383C184.342 265.408 184.366 265.429 184.389 265.452C184.418 265.479 184.447 265.505 184.479 265.528C184.594 265.614 184.727 265.671 184.873 265.698C184.876 265.699 184.88 265.699 184.884 265.7C184.937 265.709 184.988 265.723 185.044 265.723C185.567 265.723 185.992 265.298 185.992 264.775C185.992 264.695 185.98 264.617 185.96 264.539ZM176.819 130.695C176.985 130.638 177.122 130.537 177.228 130.412C183.097 131.754 188.73 133.74 193.997 136.328C194.108 136.509 194.279 136.653 194.501 136.722C194.516 136.728 194.546 136.741 194.587 136.761C194.863 136.9 196.276 137.756 196.944 140.925C197.012 141.251 197.057 141.539 197.101 141.823C197.341 143.365 197.569 144.821 200.612 150.334C204.254 156.936 210.032 169.546 208.586 174.927C208.361 175.764 206.374 178.627 190.488 180.848C190.508 180.745 190.515 180.639 190.499 180.53L187.994 163.42C191.292 163.939 193.733 164.889 193.76 164.9C194.081 165.026 194.444 164.97 194.71 164.75C194.976 164.531 195.103 164.185 195.041 163.846C194.674 161.852 191.387 144.262 188.875 140.839C187.34 138.746 183.403 135.989 180.24 133.773C178.721 132.709 176.841 131.393 176.481 130.959C176.477 130.942 176.475 130.933 176.474 130.933C176.499 130.874 176.666 130.751 176.819 130.695ZM185.363 108.135C175.661 110.669 161.833 109.93 152.683 109.44C148.772 109.231 145.684 109.066 143.694 109.162C143.561 109.163 129.613 109.359 124.553 102.888C122.063 99.7091 121.343 95.0716 122.576 90.1639C123.634 85.9545 125.747 83.0053 127.197 82.3676C128.345 81.8651 129.558 81.5313 130.988 81.3142C131.501 81.5005 131.872 81.5953 132.022 81.6299L138.12 83.7553C139.112 87.1791 140.998 89.7733 143.616 91.3197C143.71 94.7312 143.055 97.1685 141.6 98.7358C139.859 100.611 136.84 101.505 131.813 101.633C131.289 101.647 130.876 102.082 130.889 102.606C130.902 103.121 131.324 103.53 131.836 103.53C131.845 103.53 131.853 103.53 131.861 103.529C137.441 103.387 140.873 102.306 142.99 100.026C144.651 98.2366 145.486 95.6732 145.528 92.2186C147.035 92.7657 148.727 93.043 150.578 93.043C154.122 93.043 157.219 93.1402 159.952 93.226C162.081 93.2933 163.973 93.3531 165.658 93.3531C168.536 93.3531 170.806 93.1762 172.616 92.5694C181.804 92.8913 191.036 94.0462 199.451 97.7412C202.695 99.1644 205.989 100.164 209.226 101.215C210.566 101.908 211.857 102.453 213.073 102.881C206.838 103.498 197.646 104.926 185.363 108.135ZM249.005 48.0819C252.987 50.2755 261.933 55.6601 266.813 59.1134C265.434 59.4955 264.921 60.5337 264.92 61.4236C264.918 62.7491 265.915 64.0291 267.174 64.4008C267.196 66.0601 267.879 67.7213 269.11 69.0525C270.287 70.3264 271.829 71.1565 273.386 71.4059C273.258 72.1061 273.264 73.2112 273.84 74.797C274.79 77.4092 278.683 81.4308 278.849 81.6005C278.903 81.657 278.964 81.7058 279.031 81.747C280.941 82.9237 284.228 83.2124 286.768 83.3973C288.245 85.1334 291.678 89.147 296.476 94.6468C296.201 96.9168 295.803 100.12 295.358 103.253C294.465 109.503 293.807 112.376 293.371 113.684C293.324 113.683 293.277 113.682 293.23 113.688C293.04 113.714 289.03 114.277 286.447 115.947C284.876 113.655 281.57 109.218 279.393 109.001C278.142 108.875 277.116 109.557 276.513 110.884C263.451 79.2662 254.469 61.91 249.092 57.8779C232.646 45.2109 180.367 27.7911 178.171 27.0629C177.63 26.87 177.04 26.66 176.415 26.4424C193.149 28.5629 223.657 34.1258 249.005 48.0819ZM274.466 69.5953C273.1 69.6266 271.582 68.933 270.502 67.7654C269.665 66.8594 269.176 65.7633 269.09 64.6658C271.466 64.8621 275.284 65.0342 275.501 65.0437C275.55 65.0446 276.719 65.0802 277.358 66.2284C277.966 67.3273 277.642 68.2039 277.443 68.5727C277.222 68.6083 277.099 68.6339 277.099 68.6339C276.881 68.6808 276.691 68.8046 276.555 68.9757L275.682 69.364C275.655 69.3758 275.632 69.3929 275.606 69.4076C275.555 69.4147 275.503 69.4232 275.452 69.4394C275.143 69.5361 274.822 69.5873 274.466 69.5953ZM291.274 82.0756C290.601 81.7921 289.497 81.693 287.653 81.5603C287.37 81.363 287.001 81.3379 286.693 81.4901C284.519 81.3279 281.629 81.0544 280.123 80.1897C279.012 79.0348 276.277 75.9519 275.622 74.1499C274.944 72.2801 275.321 71.5002 275.324 71.4926C275.309 71.5234 275.297 71.5372 275.297 71.5372L275.149 71.439C275.446 71.3988 275.735 71.3376 276.019 71.2485C276.087 71.2271 276.15 71.1982 276.209 71.1641C276.291 71.1513 276.373 71.1318 276.453 71.0963L276.995 70.8564L278.055 72.5256C278.335 72.9675 278.921 73.0993 279.363 72.8182C279.805 72.5375 279.936 71.9515 279.656 71.5092L278.889 70.3008C279.583 70.2325 280.443 70.178 281.425 70.178C282.865 70.178 287.531 73.7554 290.385 76.2956C290.499 76.3975 290.637 76.47 290.786 76.507C292.06 76.8246 296.932 78.6892 299.787 79.809C299.096 81.1559 298.52 82.68 298.068 84.3578C298.006 84.3223 297.941 84.2919 297.871 84.2706C297.821 84.2554 292.774 82.7184 291.274 82.0756ZM297.11 89.4632C297.063 89.7074 296.97 90.4754 296.777 92.1067C293.567 88.4179 291.053 85.4947 289.447 83.6163C289.941 83.6728 290.337 83.7387 290.533 83.8212C292.122 84.5024 297.108 86.0209 297.319 86.0849C297.411 86.1133 297.504 86.1262 297.596 86.1262C297.614 86.1262 297.63 86.119 297.648 86.1176C297.383 87.3934 297.247 88.4311 297.169 89.0441C297.143 89.2437 297.126 89.3864 297.11 89.4632ZM300.599 119.483C299.326 117.202 296.509 115.136 295.182 114.246C295.731 112.58 296.326 109.599 296.987 105.214L303.665 111.616C302.105 115.97 301.155 118.274 300.599 119.483ZM285.103 124.498C282.595 122.996 282.595 122.327 280.419 117.638C278.842 114.242 278.584 112.084 278.56 111.15C278.747 110.952 278.962 110.862 279.207 110.888C280.271 110.994 283.282 114.561 285.425 117.827C285.576 118.058 285.822 118.212 286.096 118.247C286.136 118.252 286.177 118.255 286.217 118.255C286.45 118.255 286.677 118.169 286.852 118.011C288.839 116.222 293.439 115.574 293.486 115.567C293.549 115.559 293.609 115.543 293.667 115.524C295.774 116.849 299.063 119.547 299.334 121.445C299.368 121.703 299.456 121.914 299.586 122.084C298.763 124.965 297.662 128.165 296.599 130.416C295.196 129.726 287.383 125.869 285.103 124.498ZM301.78 129.78C297.415 139.2 292.902 148.941 300.806 155.091C302.761 156.609 305.937 156.872 310.096 156.736C310.962 158.896 311.925 161.231 312.974 163.706C315.479 169.601 317.681 174.448 318.086 175.338L318.08 175.378C318.037 175.632 317.877 176.103 317.691 176.649C317.091 178.408 316.123 181.247 316.222 184.81C316.021 184.759 315.809 184.701 315.614 184.649C313.337 184.034 309.527 183.007 307.124 184.554C306.385 185.029 305.843 185.66 305.508 186.386C297.224 163.717 289.935 144.445 283.406 127.954C291.73 134.022 294.198 134.985 294.922 134.985C295.622 134.985 296.286 134.54 296.952 133.626C298.646 131.318 300.523 125.851 301.615 121.872C301.62 121.854 301.624 121.837 301.628 121.82C301.635 121.796 301.644 121.76 301.647 121.743C301.662 121.675 301.668 121.608 301.668 121.541C302.346 120.414 303.482 117.801 305.705 111.54C305.893 111.009 306.083 110.466 306.273 109.92C306.629 111.062 306.844 112.137 306.913 113.133C307.247 117.978 304.468 123.978 301.78 129.78ZM308.805 113.002C308.681 111.219 308.161 109.246 307.262 107.139C307.256 107.125 307.247 107.114 307.24 107.1C308.744 102.671 310.333 97.6943 311.225 94.4885C311.274 94.6663 311.323 94.8455 311.373 95.0242C312.81 100.261 315.442 109.851 319.828 117.288C318.987 117.67 304.69 124.372 304.233 137.854C304.148 140.319 305.871 146.043 309.349 154.859C306.401 154.92 303.449 154.741 301.97 153.593C295.256 148.37 299.261 139.727 303.5 130.577C306.289 124.558 309.172 118.334 308.805 113.002ZM267.443 60.9002C267.987 60.7892 268.573 60.6887 269.184 60.6015C273.852 59.9392 277.453 60.2393 278.239 60.9144C279.775 62.2267 284.64 66.6484 284.688 66.6935C284.751 66.7504 284.822 66.7987 284.898 66.8371C285.473 67.1292 297.86 73.4003 303.344 75.2208C302.382 76.022 301.517 77.0038 300.756 78.1521C299.317 77.587 293.418 75.2839 291.478 74.7301C289.92 73.3553 283.996 68.2817 281.425 68.2817C280.724 68.2817 280.085 68.3082 279.511 68.3475C279.684 67.5402 279.666 66.4835 279.016 65.3087C278.069 63.6039 276.368 63.1483 275.553 63.1483H275.55C275.498 63.1459 270.264 62.9098 268.275 62.6846C268.068 62.66 267.901 62.6367 267.778 62.6111C267.245 62.504 266.816 61.8749 266.816 61.4259C266.816 61.2956 266.817 61.0249 267.443 60.9002ZM330.945 75.5683C332.037 75.3773 333.071 75.2521 334.02 75.1966C335.331 75.1194 337.114 75.4104 338.928 76.0026C339.398 76.1519 339.862 76.3226 340.304 76.507C340.885 76.7545 341.244 76.9517 341.433 77.0745C342.144 78.9021 341.946 81.565 339.827 83.3357C337.814 85.013 330.17 85.553 327.408 85.5705C325.092 82.8213 322.897 80.4746 320.859 78.574C322.535 77.8861 326.657 76.3102 330.945 75.5683ZM329.503 68.6325C328.249 68.8524 327.053 68.6277 326.219 68.0147C325.463 67.4582 325.006 66.6062 324.862 65.4817C324.665 63.9594 324.94 63.3284 325.922 62.0906C326.449 61.4335 326.218 60.6423 326.08 60.1696C326.062 60.1094 326.04 60.0336 326.022 59.9653C326.645 59.4661 327.599 58.947 328.803 58.4525C329.11 58.325 329.394 58.2164 329.643 58.1239C329.577 60.0919 330.334 62.8302 333.502 64.5923C333.951 64.8427 334.519 64.6857 334.781 64.2434C335.066 63.7603 336.057 62.4485 337.198 62.1873C337.728 62.0664 338.249 62.1826 338.789 62.5424C339.013 62.6917 339.609 63.0895 339.017 64.1818C338.151 65.7799 335.665 67.1201 334 66.4052C333.977 66.3953 333.952 66.3896 333.929 66.3815C333.908 66.3749 333.888 66.3668 333.867 66.3611C333.823 66.3498 333.779 66.3422 333.734 66.337C333.723 66.336 333.711 66.3327 333.7 66.3317C333.643 66.3275 333.586 66.3284 333.53 66.3341C333.516 66.3355 333.503 66.3389 333.49 66.3412C333.447 66.3474 333.405 66.3555 333.364 66.3673C333.345 66.3725 333.327 66.3796 333.309 66.3863C333.273 66.3986 333.239 66.4128 333.206 66.4294C333.186 66.4389 333.168 66.4488 333.149 66.4597C333.117 66.4787 333.086 66.5 333.055 66.5228C333.039 66.5351 333.023 66.547 333.007 66.5603C332.973 66.5901 332.941 66.6228 332.911 66.6579C332.903 66.6669 332.894 66.674 332.886 66.6835C332.083 67.6848 330.849 68.3954 329.503 68.6325ZM337.209 73.5909C336.179 73.3823 335.016 73.2363 333.907 73.3036C333.162 73.3472 332.369 73.4316 331.543 73.5525L330.786 70.26C331.808 69.9409 332.753 69.4161 333.535 68.7292L337.209 73.5909ZM358.892 103.251C357.541 100.708 345.636 78.3839 342.874 75.7963C343.197 75.4422 343.511 74.8297 343.63 73.7502C345.179 75.0696 347.489 76.4748 349.366 75.2701C351.297 74.0275 350.95 70.9944 350.417 68.8904C351.224 69.1274 352.157 69.226 353.024 68.8946C353.752 68.6159 354.708 67.9152 355.127 66.1611C355.927 62.8335 353.646 59.9814 352.134 58.5174C352.756 58.142 353.404 57.574 353.756 56.7373C354.233 55.6037 354.038 54.3118 353.176 52.8977C351.748 50.549 349.495 49.974 347.572 50.0849C347.898 49.4108 348.111 48.6404 347.994 47.8638C347.89 47.1717 347.476 46.2017 346.097 45.5124C342.103 43.5136 333.577 48.4114 330.972 50.8548C328.62 53.0607 327.791 55.6416 327.564 56.9193C326.261 57.4934 325.251 58.0983 324.56 58.7189C323.862 59.3428 324.121 60.2265 324.259 60.7011C324.288 60.7992 324.328 60.9338 324.346 61.0268C323.201 62.4955 322.708 63.6043 322.981 65.724C323.191 67.3586 323.922 68.6789 325.095 69.5418C326.054 70.2482 327.252 70.6146 328.552 70.6146C328.672 70.6146 328.795 70.6042 328.918 70.598L329.671 73.8777C324.283 74.9529 319.527 77.074 319.296 77.1773C315.385 73.8426 312.184 72.3512 309.54 72.6342C308.041 72.7959 306.653 73.2102 305.395 73.8592C305.32 73.8199 305.241 73.7867 305.154 73.7682C301.272 72.9476 287.278 65.9146 285.869 65.2034C285.158 64.5577 280.927 60.7172 279.473 59.4741C277.518 57.7978 271.492 58.3932 269.402 58.6592C264.845 55.1737 254.215 48.7869 249.92 46.4207C212.677 25.9152 164.489 23.3485 164.007 23.3253C163.903 23.321 163.805 23.3371 163.71 23.3632C156.911 22.6535 150.81 23.8643 145.576 26.9748C138.614 31.1026 133.13 45.6219 132.743 46.663C132.22 47.787 124.438 64.5563 123.976 69.9258C123.505 75.3815 126.102 78.3891 128.346 79.9484C127.686 80.1389 127.052 80.3608 126.435 80.6311C124.172 81.6261 121.828 85.3558 120.737 89.7017C119.36 95.1816 120.207 100.414 123.06 104.057C128.696 111.264 143.119 111.07 143.759 111.057C145.674 110.964 148.876 111.135 152.581 111.334C156.955 111.567 162.047 111.84 167.233 111.84C173.695 111.84 180.302 111.417 185.843 109.97C203.548 105.344 214.715 104.46 219.821 104.346C220.632 104.41 221.294 104.419 221.77 104.407L239.579 185.921C232.751 169.277 219.583 147.043 195.501 134.949C189.666 132.011 183.38 129.797 176.822 128.37C171.725 127.254 166.359 126.59 160.871 126.395C152.8 126.108 145.225 126.509 138.352 127.582C132.463 128.5 127.002 129.924 122.124 131.815C121.609 132.014 121.094 132.22 120.567 132.431C120.454 132.445 120.341 132.476 120.234 132.533C120.234 132.533 120.166 132.569 120.049 132.64C99.3223 141.058 81.1564 154.122 74.8729 160.786C76.2008 148.561 77.6795 134.851 77.825 127.001C77.9279 121.611 76.8811 106.76 74.862 98.668C74.8506 98.6244 74.8369 98.5813 74.8198 98.5391C74.8193 98.5381 74.597 97.9948 74.2334 97.0936C73.0192 94.0727 71.9563 91.3268 71.0807 88.9578C74.679 94.3662 79.7612 99.9561 85.5322 100.288C85.7124 100.299 85.8915 100.304 86.0703 100.304C89.5538 100.304 92.8359 98.3409 95.8317 94.4615C98.9535 90.4166 105.933 75.9997 109.815 67.7663C110.769 65.7444 111.505 64.1604 111.902 63.3028C113.999 63.8035 119.784 65.1627 121.691 65.3746C123.522 65.5779 124.534 64.6554 124.87 63.7229C125.237 62.7031 124.942 61.5416 124.152 60.6281C124.217 60.5252 124.281 60.4214 124.333 60.3057C124.473 59.9966 124.652 59.6239 124.853 59.2058C126.51 55.7507 129.015 50.5291 126.411 48.7067C123.909 46.9593 114.851 44.9444 111.289 46.1292C108.607 47.0257 107.115 49.5672 104.857 53.4139C103.902 55.041 102.819 56.8856 101.429 59.0048C97.5886 64.8521 89.2945 76.5478 86.5254 80.439C83.8061 74.9406 74.1533 55.5459 71.0433 50.9624C68.5505 47.2831 64.8944 45.0331 60.1768 44.2603C60.4745 42.383 60.0815 40.8811 59.0001 39.7916C58.7057 39.4953 56.0153 37.0452 49.4511 38.3495C49.3895 37.8043 49.3492 37.278 49.3226 36.766C49.8043 36.8893 50.276 36.9561 50.7335 36.9561C51.3252 36.9561 51.8955 36.8528 52.4426 36.6461C57.2365 34.8251 56.0011 27.8637 55.4734 24.8912C55.3848 24.3886 55.2918 23.8686 55.2914 23.705C55.2895 23.0954 55.7356 22.8953 55.8551 22.8536C56.2011 22.7512 56.4581 22.4606 56.5193 22.1045C56.5804 21.749 56.4339 21.3891 56.1414 21.1767C56.1253 21.1649 54.5177 19.9839 54.0237 18.5788C53.8938 18.2151 53.752 17.7339 53.5885 17.1769C52.9973 15.1687 52.1876 12.4176 50.6909 10.8924C48.8642 9.03546 47.4586 8.38027 47.3993 8.35373C47.3164 8.31532 47.2296 8.294 47.1414 8.2812C47.0651 8.22573 46.9821 8.17737 46.8878 8.14561C46.5109 8.01997 38.021 5.23805 31.9622 7.65872C31.6147 6.90919 31.0121 5.80126 30.0829 4.69238C27.9453 2.13044 24.046 -0.512582 17.6098 1.4487C13.3521 2.74722 9.61912 6.65935 7.09937 12.4636C4.0458 19.499 3.60112 27.5057 5.99382 32.3888C7.66781 35.8055 10.1534 37.6672 13.023 37.6672C13.1392 37.6672 13.2563 37.6639 13.3734 37.6578C17.2078 37.4582 20.9929 34.0253 22.792 29.1181C23.7539 26.5031 24.7192 23.559 25.5298 20.971C25.9944 24.1744 27.3224 27.1085 28.8731 28.7526C31.2975 31.3288 35.5676 36.0217 36.6594 37.2235C36.6499 37.2913 36.6409 37.3563 36.6315 37.4283C35.5292 37.0272 33.7955 36.4692 31.8593 36.1236C27.805 35.3997 24.6874 35.8942 22.59 37.5923C18.2749 41.0863 18.74 45.1179 19.0449 46.4492C14.4818 49.2482 11.0248 54.2033 9.27872 60.4944C8.50407 63.2801 7.56588 66.4664 6.57268 69.8395C3.72865 79.498 0.504876 90.445 0.209996 95.3276C-0.175908 101.701 2.20114 105.027 4.2634 106.695C6.2062 108.266 8.53158 108.894 10.5076 108.894C11.2798 108.894 11.9995 108.797 12.622 108.624C13.6754 108.332 14.8331 107.998 16.0686 107.631L14.7975 112.716C13.7915 116.58 13.7603 122.692 13.8617 128.162C14.0158 136.366 16.646 150.405 18.9666 162.791C20.7274 172.188 22.2478 180.303 22.2478 183.564C22.2478 187.588 23.4254 201.554 24.5637 215.06C25.6332 227.741 26.643 239.72 26.643 242.91C26.643 243.023 26.6657 243.129 26.7018 243.23C26.7018 243.235 26.7004 243.239 26.7004 243.244C26.6999 243.265 26.634 245.418 26.2111 247.898C25.7237 250.729 24.9614 252.859 24.0057 254.057C21.6433 257.014 15.4499 263.494 8.91844 266.857C6.00852 268.356 3.85949 270.678 2.86818 273.395C1.66306 276.688 2.37751 279.989 4.51231 281.293C4.62798 281.405 4.78632 281.494 4.99681 281.54C5.08451 281.579 5.17224 281.622 5.259 281.651C5.35571 281.683 5.45761 281.7 5.56001 281.7H20.1779C27.1123 281.725 36.5143 281.741 50.6643 281.752C59.7662 281.757 69.8661 281.759 80.6164 281.759C88.0472 281.759 95.7899 281.759 103.725 281.757L166.973 281.714C178.14 281.699 189.118 281.688 199.607 281.677L209.588 281.667C247.307 281.62 276.977 281.574 283.452 281.564L284.767 281.562C300.908 281.562 312.227 277.023 318.407 268.07C328.856 252.935 321.34 229.786 318.787 223.051C318.034 221.068 316.483 216.757 314.338 210.792C312.718 206.288 310.765 200.857 308.551 194.75C308.592 194.778 308.626 194.81 308.667 194.838C309.593 195.462 310.743 195.962 312.087 196.327C312.141 196.342 312.196 196.344 312.25 196.349C312.305 196.38 312.364 196.406 312.427 196.426C313.664 196.828 315.247 196.962 316.795 196.962C319.475 196.962 322.05 196.56 322.546 196.45C322.814 196.39 323.524 196.232 333.865 187.461C334.18 187.286 334.545 186.961 334.743 186.36C335.767 183.235 330.437 173.645 329.247 171.565C329.003 170.895 327.138 165.724 325.617 160.624C325.107 158.902 324.689 157.37 324.366 156.044C332.289 155.997 341.858 157.11 348.34 164.619C351.951 168.8 354.141 175.302 354.348 182.458C354.614 191.676 351.604 201.765 345.643 211.633C345.372 212.081 345.516 212.664 345.964 212.934C346.118 213.027 346.287 213.071 346.454 213.071C346.775 213.071 347.088 212.908 347.266 212.613C361.896 188.394 355.727 170.27 349.775 163.379C342.672 155.151 332.341 154.062 323.924 154.15C322.919 149.826 322.056 146.67 321.475 144.545C321.076 143.086 320.723 141.793 320.628 141.217C321.231 140.913 322.61 140.345 323.951 139.793C325.335 139.223 327.032 138.524 328.867 137.723C328.949 137.709 329.031 137.686 329.11 137.648C329.587 137.418 340.753 132.026 343.125 130.015C345.56 128.24 347.371 126.459 348.511 124.721C350.206 122.709 351.392 120.137 351.85 117.467C352.59 113.16 350.129 106.375 348.882 103.318L357.919 104.634C357.965 104.641 358.01 104.644 358.055 104.644C358.361 104.644 358.652 104.496 358.831 104.241C359.037 103.949 359.06 103.566 358.892 103.251Z" fill="#700051"/>
<path d="M92.1624 45.3412C92.3492 45.5365 92.5981 45.6346 92.8479 45.6346C93.0835 45.6346 93.3192 45.5474 93.5031 45.372C93.8819 45.0103 93.8952 44.4101 93.5339 44.0313L72.1148 21.6119C71.7522 21.2326 71.1524 21.2193 70.7741 21.5811C70.3953 21.9433 70.3821 22.5435 70.7433 22.9218L92.1624 45.3412Z" fill="#700051"/>
<path d="M106.999 35.5803C107.118 35.9961 107.498 36.2668 107.91 36.2668C107.996 36.2668 108.085 36.2549 108.172 36.2298C108.675 36.0852 108.966 35.5599 108.821 35.0569L100.453 5.943C100.309 5.44 99.7843 5.14939 99.2803 5.29351C98.7769 5.4381 98.4863 5.96339 98.6313 6.46687L106.999 35.5803Z" fill="#700051"/>
<path d="M127.853 36.0862C127.899 36.0928 127.944 36.0961 127.989 36.0961C128.453 36.0961 128.858 35.7553 128.926 35.2826L133.273 4.9977C133.348 4.47953 132.988 3.99881 132.469 3.92485C131.949 3.84852 131.47 4.20978 131.397 4.72842L127.049 35.0129C126.974 35.5315 127.334 36.0118 127.853 36.0862Z" fill="#700051"/>
</svg>
