<svg width="375" height="375" viewBox="0 0 375 375" fill="none" xmlns="http://www.w3.org/2000/svg">
<path d="M204.935 46.6802C205.07 46.9521 205.041 47.2764 204.862 47.5203L197.56 57.4505L206.847 65.5515C207.076 65.7508 207.174 66.0608 207.103 66.3555C207.031 66.6501 206.801 66.8798 206.506 66.9517L194.532 69.864L196.438 82.0401C196.485 82.3397 196.361 82.6404 196.117 82.8202C195.872 83 195.548 83.0276 195.276 82.8932L184.234 77.4298L177.865 87.9789C177.718 88.2232 177.454 88.3713 177.17 88.3713C177.153 88.3713 177.135 88.3709 177.118 88.3697C176.815 88.3498 176.549 88.1631 176.427 87.8851L171.479 76.601L163.984 79.1676L159.819 80.5921C159.532 80.6899 159.215 80.6197 158.996 80.4103C158.777 80.2009 158.693 79.8863 158.778 79.5958L162.245 67.7678L150.746 63.3328C150.463 63.2236 150.265 62.9659 150.231 62.6643C150.198 62.3632 150.336 62.0682 150.588 61.9001L160.847 55.0657L154.89 44.2788C154.743 44.0134 154.756 43.6883 154.924 43.4359C155.093 43.1838 155.388 43.0475 155.689 43.0795L167.938 44.4383L170.311 32.3425C170.369 32.0446 170.588 31.8048 170.879 31.7195C171.171 31.6347 171.485 31.7187 171.694 31.9383L180.204 40.8543L189.794 33.1165C190.03 32.9261 190.353 32.8831 190.63 33.0053C190.908 33.127 191.095 33.3937 191.114 33.6964L191.902 45.9951L204.223 46.2281C204.526 46.2337 204.801 46.4083 204.935 46.6802ZM180.799 25.6217C180.036 25.5722 179.275 25.5475 178.517 25.5475C170.163 25.5475 162.19 28.5426 155.854 34.1047C148.944 40.1712 144.811 48.5657 144.214 57.7419C143.947 61.8405 144.402 65.8985 145.566 69.8031V69.8035C147.756 77.1607 152.433 83.6639 158.735 88.114C163.902 91.7646 169.989 93.9127 176.338 94.3263C178.224 94.448 180.108 94.4172 181.94 94.2354C189.976 93.4549 197.526 89.8271 203.201 84.0203C208.936 78.1509 212.388 70.4022 212.919 62.2025C213.515 53.0264 210.503 44.168 204.436 37.2581C198.369 30.349 189.975 26.2159 180.799 25.6217Z" fill="#FE874F"/>
<path d="M82.8204 217.602C77.3244 210.862 70.4157 215.355 66.7043 217.769C65.0347 218.855 61.9989 220.828 58.6093 220.829C56.4352 220.829 54.1158 220.018 51.9157 217.64C48.5513 214.007 44.6601 213.208 40.3423 215.245C46.3743 221.916 54.5959 225.904 63.6154 226.489C70.3159 226.93 76.936 225.418 82.7615 222.125C83.8561 221.508 84.9259 220.821 85.9571 220.079C84.8269 219.596 83.7741 218.77 82.8204 217.602Z" fill="#FFB0A8"/>
<path d="M91.411 133.308C108.683 134.427 124.014 122.625 127.384 105.75L99.6927 86.2041L99.6906 86.4618C99.6898 86.5682 99.6675 86.6688 99.6294 86.7613C99.6955 86.9196 99.715 87.0986 99.6683 87.2772C99.4617 88.0682 99.2284 89.0105 98.9743 90.0434C99.4122 90.1522 99.8493 90.2715 100.281 90.4111C105.179 91.9996 109.165 95.3989 111.505 99.9837C113.844 104.568 114.258 109.789 112.67 114.685C111.083 119.582 107.683 123.568 103.098 125.908C100.346 127.312 97.3643 128.023 94.3615 128.023C92.3623 128.023 90.3538 127.708 88.3972 127.073C83.4999 125.487 79.5141 122.089 77.174 117.504C74.8343 112.92 74.4204 107.697 76.0084 102.8C78.9548 93.7191 88.0506 88.2041 97.3834 89.7147C97.6452 88.6505 97.8854 87.679 98.0977 86.8673C98.1062 86.834 98.1204 86.804 98.1326 86.7727C98.09 86.6733 98.0665 86.5637 98.0673 86.4484L98.1724 74.1331L98.0531 71.5605C94.3838 71.3583 86.5295 71.1432 84.4674 72.0844C83.3928 72.5763 82.6415 73.6226 82.4078 74.9541C82.1683 76.3178 82.5518 77.6883 83.409 78.5308C84.7811 79.8823 89.3883 79.8194 91.9695 79.4618C92.4126 79.401 92.8229 79.7106 92.885 80.1546C92.9463 80.5986 92.6367 81.0085 92.1927 81.0702C91.4281 81.1761 84.6574 82.0394 82.2706 79.6879C81.0198 78.459 80.4735 76.5836 80.8087 74.6733C81.1314 72.8352 82.2471 71.3153 83.7925 70.6079C86.7751 69.2471 97.6521 69.9046 98.8826 69.9838C99.2949 70.0101 99.6216 70.3429 99.6411 70.7561L99.7953 74.0799C99.7958 74.095 99.7962 74.11 99.7962 74.1246L99.7377 80.9671L123.151 81.2301C122.828 80.6936 122.492 80.157 122.132 79.6266C116.116 70.7739 106.546 65.2979 95.8757 64.6031C95.1131 64.5536 94.3522 64.5284 93.5945 64.5284C85.2402 64.5284 77.2665 67.5239 70.9313 73.0864C64.0214 79.1538 59.8875 87.5495 59.2909 96.7273C58.3006 111.952 67.6249 126.187 81.9662 131.345C84.9979 132.438 88.1752 133.098 91.411 133.308Z" fill="#F7F5F6"/>
<path d="M332.351 185.193C329.304 190.905 320.377 200.358 319.719 201.052C319.743 201.155 319.755 201.263 319.736 201.372L317.634 213.786C317.613 213.907 317.565 214.015 317.5 214.109C317.51 214.296 317.499 214.481 317.465 214.663C317.273 215.694 316.322 217.043 312.885 217.596C311.94 217.748 310.893 217.824 309.779 217.824C308.054 217.824 306.167 217.643 304.246 217.286C301.084 216.696 298.183 215.694 296.077 214.466C293.068 212.711 292.668 211.11 292.862 210.076C292.876 210.003 292.897 209.931 292.917 209.859C292.915 209.784 292.919 209.708 292.938 209.632L296.092 197.225C296.083 197.191 296.073 197.157 296.067 197.121C296.053 197.02 294.592 186.915 295.094 177.39C295.385 171.857 295.886 167.548 297.384 164.506C298.646 161.935 300.599 160.321 303.354 159.573C309.525 157.885 328.172 159.868 331.917 165.3C335.588 170.624 331.766 178.023 331.602 178.335C331.596 178.346 331.588 178.355 331.582 178.366C333.365 180.372 333.65 182.754 332.351 185.193ZM313.327 153.544C312.571 153.495 311.819 153.471 311.071 153.471C293.099 153.471 277.925 167.478 276.743 185.664C275.516 204.605 289.926 221.017 308.867 222.249C327.807 223.482 344.22 209.065 345.447 190.125V190.124C346.044 180.948 343.031 172.09 336.965 165.18C330.898 158.271 322.503 154.138 313.327 153.544Z" fill="#F7F5F6"/>
<path d="M330.581 166.222C327.489 161.738 309.932 159.458 303.781 161.139C301.619 161.726 300.112 162.909 299.058 164.825C299.064 164.862 299.07 164.899 299.07 164.937C299.07 168.286 299.916 172.91 303.947 175.923C306.066 177.508 308.883 178.483 312.314 178.845C312.138 177.545 312.476 176.343 313.308 175.445C315.574 172.994 318.965 173.145 323.358 174.125C324.359 174.347 327.763 175.218 330.34 177.215C331.012 175.748 333.278 170.133 330.581 166.222Z" fill="#FF4239"/>
<path d="M329.519 178.631C327.676 177.133 324.945 176.14 323.005 175.71C319.157 174.851 316.24 174.666 314.499 176.547C313.592 177.526 313.917 178.861 314.098 179.39C314.396 180.251 314.973 181.017 315.642 181.438C317.413 182.552 322.603 184.773 322.656 184.796C323.043 184.961 323.239 185.396 323.108 185.796C322.976 186.196 322.562 186.432 322.151 186.332C322.137 186.33 319.993 185.896 315.577 187.367C313.573 188.035 311.693 188.957 310.682 189.453C309.816 189.877 309.683 189.943 309.351 189.852C301.2 187.577 301.495 181.909 302.416 176.771C299.558 174.386 298.266 171.288 297.751 168.42C297.177 170.872 296.903 173.901 296.715 177.476C296.291 185.522 297.293 194 297.592 196.285C298.703 196.273 301.118 196.287 304.108 196.548C307.29 196.82 310.213 197.299 312.793 197.971C314.917 198.529 316.786 199.212 318.351 200C318.383 200.016 318.413 200.034 318.445 200.051C318.465 200.022 318.485 199.993 318.51 199.966C318.604 199.868 327.926 190.041 330.918 184.43C332.082 182.243 331.624 180.347 329.519 178.631Z" fill="#FF4239"/>
<path d="M291.217 109.86C291.217 112.251 289.272 114.195 286.882 114.195H283.047C280.655 114.195 278.709 112.251 278.709 109.86V99.5158H259.326V109.86C259.326 112.251 257.38 114.195 254.987 114.195H251.152C248.759 114.195 246.813 112.251 246.813 109.86V107.274C245.587 107.171 244.57 106.707 243.783 105.891C242.049 104.092 242.13 101.231 242.135 101.11L242.134 89.1055C242.134 86.3689 243.371 83.3969 246.813 83.1518V80.6234C246.813 78.2309 248.759 76.2853 251.152 76.2853H254.987C257.38 76.2853 259.326 78.2309 259.326 80.6234V91.017H278.709V80.6234C278.709 78.2309 280.655 76.2853 283.047 76.2853H286.882C289.272 76.2853 291.217 78.2309 291.217 80.6234V83.1388C291.312 83.1307 293.004 82.9951 294.391 84.2561C295.532 85.2942 296.111 86.9257 296.111 89.1055V101.139C296.115 101.231 296.196 104.095 294.461 105.894C293.628 106.757 292.536 107.22 291.217 107.283V109.86ZM303.633 97.6611C304.228 88.485 301.214 79.6262 295.147 72.7171C289.079 65.8072 280.685 61.6749 271.509 61.0808C270.746 61.0312 269.985 61.0061 269.227 61.0061C260.873 61.0061 252.9 64.0012 246.565 69.5633C239.656 75.6303 235.523 84.0247 234.929 93.2001C233.697 112.142 248.106 128.554 267.049 129.785C285.987 131.021 302.401 116.603 303.633 97.6611Z" fill="#D7375D"/>
<path d="M294.488 101.166L294.488 89.1055C294.488 87.4022 294.088 86.1749 293.299 85.457C292.441 84.6769 291.376 84.7532 291.367 84.7553C291.316 84.7597 291.266 84.7585 291.217 84.7536V105.661C292.081 105.605 292.761 105.315 293.288 104.772C294.545 103.475 294.489 101.189 294.488 101.166Z" fill="white"/>
<path d="M286.882 77.9087H283.047C281.55 77.9087 280.332 79.1266 280.332 80.6234V109.86C280.332 111.355 281.55 112.572 283.047 112.572H286.882C288.377 112.572 289.593 111.355 289.593 109.86V80.6234C289.593 79.1266 288.377 77.9087 286.882 77.9087Z" fill="white"/>
<path d="M278.708 92.6408H259.325V97.8924H278.708V92.6408Z" fill="white"/>
<path d="M254.987 77.9087H251.152C249.654 77.9087 248.437 79.1266 248.437 80.6234V109.86C248.437 111.355 249.654 112.572 251.152 112.572H254.987C256.484 112.572 257.702 111.355 257.702 109.86V80.6234C257.702 79.1266 256.484 77.9087 254.987 77.9087Z" fill="white"/>
<path d="M243.757 89.1055V101.139C243.756 101.189 243.7 103.472 244.957 104.769C245.438 105.266 246.051 105.551 246.813 105.639V84.7755C245.571 84.9042 243.757 85.6781 243.757 89.1055Z" fill="white"/>
<path d="M223.092 196.957C223.053 198.306 223.618 199.596 224.72 200.616C226.153 201.944 228.237 202.556 230.157 202.215C231.876 201.907 233.386 200.881 234.524 199.247C236.676 196.153 243.793 177.461 242.407 168.03C241.285 160.408 235.218 158.02 233.143 157.42C233.361 160.148 233.261 163.222 232.842 166.581C231.674 175.929 228.325 192.616 223.092 196.957Z" fill="#FFB0A8"/>
<path d="M172.183 306.467C172.159 306.327 172.102 306.207 172.026 306.11C172.105 306.213 172.16 306.335 172.183 306.467Z" fill="#FF4239"/>
<path d="M137.51 298.907C137.625 301.479 138.611 305.794 143.924 305.794H171.383C171.463 305.794 171.541 305.806 171.614 305.827C173.054 305.968 189.091 305.885 199.676 305.794H227.142C232.454 305.794 233.44 301.479 233.555 298.907C233.673 296.263 233.246 293.878 232.752 291.835C232.705 291.843 232.658 291.849 232.609 291.849H138.312C137.824 293.874 137.393 296.251 137.51 298.907Z" fill="#FF4239"/>
<path d="M230.955 283.922C230.628 278.761 231.125 275.556 231.563 272.729C231.571 272.676 231.579 272.625 231.587 272.572H139.478C139.486 272.626 139.494 272.679 139.503 272.733C139.941 275.559 140.438 278.762 140.112 283.922C140.01 285.562 139.522 287.336 139.005 289.213C138.913 289.545 138.82 289.883 138.728 290.226H232.339C232.244 289.873 232.149 289.524 232.055 289.182C231.542 287.317 231.058 285.554 230.955 283.922Z" fill="#D7375D"/>
<path d="M227.194 259.217C226.624 259.269 225.62 259.275 223.79 259.284C221.555 259.297 218.367 259.305 214.543 259.309C207.779 259.316 198.353 259.313 186.527 259.3C166.71 259.278 146.902 259.234 145.845 259.232C145.788 259.239 145.656 259.256 145.468 259.291C139.641 260.338 139.01 264.4 138.956 265.619C138.867 267.571 138.992 269.161 139.237 270.948H231.828C232.074 269.161 232.199 267.573 232.11 265.62C231.857 259.978 227.384 259.252 227.193 259.224L227.194 259.217Z" fill="#FF4239"/>
<path d="M211.287 192.573C210.963 192.987 210.611 193.376 210.249 193.748C210.508 195.011 211.625 196.173 213.292 196.88C215.476 197.808 218.863 198.036 221.821 195.899C226.436 192.569 229.977 176.421 231.231 166.379C231.688 162.722 231.755 159.425 231.433 156.58C230.74 150.489 228.205 146.152 223.898 143.69C219.13 140.965 215.999 141.845 215.162 142.174C216.626 145.789 217.377 150.226 217.377 155.4C217.377 166.378 216.586 185.806 211.287 192.573Z" fill="#FFB0A8"/>
<path d="M185.627 307.508C182.251 307.523 179.661 307.532 177.672 307.532C173.609 307.532 172.047 307.496 171.383 307.408V307.417H144.735V343.282H205.56C216.229 336.177 223.216 317.907 224.375 307.417H199.683C199.619 307.418 192.593 307.478 185.627 307.508Z" fill="#FFB0A8"/>
<path d="M200.775 149.693C205.118 153.126 206.388 160.148 203.862 166.769C202.172 171.19 197.873 177.194 194.734 181.578C194.285 182.205 193.859 182.799 193.47 183.349C193.266 183.638 193.026 183.954 192.746 184.305C192.749 188.829 195.34 192.992 199.272 194.743C202.55 196.202 205.996 195.561 208.728 192.983C209.181 192.554 209.613 192.078 210.009 191.572C215.194 184.95 215.754 164.07 215.754 155.4C215.754 150.099 214.954 145.622 213.377 142.091C211.188 137.192 207.59 134.293 202.682 133.473C195.73 132.316 187.412 140.06 187.329 140.139C187.317 140.15 187.305 140.161 187.292 140.171L177.946 147.963C179.245 148.268 184.577 149.484 188.241 149.739C194.713 145.914 199.123 148.387 200.775 149.693Z" fill="#FFB0A8"/>
<path d="M190.329 46.8441L189.593 35.364L180.642 42.5864C180.314 42.851 179.837 42.8206 179.545 42.515L171.601 34.1924L169.387 45.4829C169.306 45.8973 168.917 46.1786 168.501 46.1339L157.067 44.8656L162.629 54.935C162.833 55.3044 162.72 55.7686 162.369 56.0024L152.792 62.3819L163.526 66.5215C163.919 66.6737 164.131 67.1022 164.012 67.5073L160.776 78.5487L171.66 74.8226C171.746 74.793 171.835 74.7792 171.923 74.7792C172.237 74.7792 172.533 74.9622 172.666 75.265L177.285 85.7991L183.227 75.9521C183.445 75.5901 183.904 75.4553 184.283 75.6424L194.592 80.7431L192.813 69.377C192.748 68.9598 193.013 68.5629 193.423 68.463L204.599 65.7443L195.93 58.1826C195.612 57.9054 195.56 57.4306 195.81 57.0905L202.625 47.8214L191.124 47.6039C190.702 47.5958 190.356 47.2654 190.329 46.8441Z" fill="#FF4239"/>
<path d="M176.233 95.9468C169.913 95.5345 163.843 93.4785 158.61 89.9931C154.083 100.071 150.519 109.399 148.017 117.724C144.271 130.188 142.299 140.371 140.741 155.298C139.877 163.57 140.172 172.273 140.457 180.689C140.572 184.082 140.686 187.565 140.727 191C145.751 183.013 153.656 176.683 160.704 171.049L160.795 170.976C162.588 169.543 164.53 167.965 166.586 166.295C169.375 164.03 172.255 161.692 175.175 159.379C174.425 156.377 173.836 153.137 173.426 149.739C172.472 141.929 172.507 133.665 173.525 126.472C175.079 115.493 177.52 107.305 180.346 97.8251C180.531 97.2041 180.719 96.5742 180.907 95.9395C180.142 95.989 179.372 96.0231 178.596 96.0231C177.811 96.0231 177.022 95.9975 176.233 95.9468Z" fill="#FFB0A8"/>
<path d="M161.809 172.244L161.718 172.317C153.8 178.646 145.612 185.191 140.888 193.92C139.927 195.698 139.14 197.522 138.547 199.341C133.994 213.311 137.877 226.859 141.632 239.961L141.661 240.064C143.295 245.771 144.983 251.67 146.013 257.609C172.528 257.668 221.821 257.745 226.822 257.632C226.843 257.562 226.87 257.494 226.911 257.429C234.304 245.773 235.343 217.48 230.802 203.729C230.682 203.756 230.564 203.791 230.443 203.813C229.984 203.894 229.521 203.934 229.061 203.934C228.607 203.934 228.155 203.89 227.71 203.814C223.915 204.549 216.105 206.752 210.118 213.018C205.759 217.58 203.285 223.655 202.435 226.646C203.784 229.685 204.987 233.046 206.036 237.032C206.15 237.465 205.891 237.91 205.458 238.024C205.023 238.138 204.58 237.879 204.466 237.445C201.593 226.529 197.521 220.346 192.365 212.519C191.621 211.39 190.381 209.938 189.067 208.401C185.531 204.261 181.523 199.569 182.329 196.035C183.121 192.581 186.141 189.268 188.806 186.345C189.662 185.406 190.47 184.517 191.177 183.661C191.239 183.501 191.35 183.366 191.492 183.274C191.746 182.956 191.962 182.671 192.145 182.412C192.536 181.858 192.963 181.263 193.414 180.633C196.502 176.321 200.731 170.415 202.346 166.19C204.621 160.225 203.561 153.965 199.768 150.967C197.304 149.018 194.09 148.817 190.682 150.313C189.567 151.098 187.5 152.368 185.518 153.552C183.006 155.356 180.127 157.54 176.666 160.267C173.589 162.698 170.549 165.167 167.61 167.555C165.552 169.227 163.607 170.807 161.809 172.244Z" fill="#FFB0A8"/>
<path d="M99.7097 84.2459C99.7495 84.265 99.7889 84.2853 99.8258 84.3113L127.699 103.985C127.836 103.055 127.937 102.118 127.996 101.189C128.41 94.7954 127.051 88.476 124.072 82.86C124.059 82.8608 124.047 82.864 124.034 82.864H124.024L99.7239 82.5909L99.7097 84.2459Z" fill="#F7F5F6"/>
<path d="M96.5996 92.9943C95.8346 92.8827 95.0712 92.8275 94.3163 92.8275C87.5529 92.8275 81.3658 97.1725 79.2088 103.836C76.503 112.181 81.0903 121.171 89.434 123.878C93.4754 125.187 97.7859 124.845 101.571 122.913C105.356 120.981 108.162 117.691 109.471 113.649V113.648C110.781 109.607 110.44 105.297 108.508 101.513C106.577 97.7289 103.287 94.9229 99.2457 93.6116C98.9052 93.5004 98.5533 93.4034 98.1921 93.3133C96.5156 100.414 94.5262 109.411 94.505 109.504C94.4214 109.883 94.0858 110.141 93.7137 110.141C93.6556 110.141 93.5968 110.135 93.5375 110.122C93.0996 110.025 92.8232 109.591 92.9202 109.154C92.9409 109.06 94.9231 100.099 96.5996 92.9943Z" fill="#F7F5F6"/>
<path d="M53.1071 205.843C57.2415 210.308 61.6599 208.42 65.819 205.714C69.3628 203.409 77.6607 198.011 84.0783 205.882C87.5349 210.118 91.2508 207.931 95.1846 205.614C96.1583 205.04 97.0783 204.498 97.9789 204.076C98.0365 204.049 98.0953 204.032 98.1546 204.019C99.2914 200.928 99.9817 197.687 100.196 194.37C100.197 194.347 100.198 194.323 100.199 194.3C98.9923 194.563 97.5377 195.415 96.0105 196.315C92.0669 198.639 87.1591 201.531 82.8202 196.214C81.0576 194.052 79.0905 192.902 76.8064 192.698C75.2167 192.551 73.4464 192.879 71.543 193.677C69.6238 194.48 67.8669 195.624 66.7045 196.381C64.6522 197.715 62.198 199.118 59.5511 199.405C59.2305 199.44 58.9131 199.458 58.5998 199.458C56.1335 199.458 53.8892 198.382 51.916 196.252C47.9947 192.018 43.3981 191.609 38.2536 195.036L38.1059 195.135C35.1136 197.111 33.0446 197.822 31.9326 198.079C32.4135 200.847 33.235 203.543 34.3819 206.118C35.3255 205.649 36.3202 205.071 37.3527 204.38C43.099 200.558 48.6932 201.077 53.1071 205.843Z" fill="#FFB0A8"/>
<path d="M53.1068 216.537C57.2387 221.003 61.658 219.115 65.8187 216.408C69.3625 214.104 77.662 208.707 84.078 216.576C85.0622 217.781 86.0934 218.513 87.231 218.812C87.3183 218.835 87.3966 218.875 87.468 218.922C91.6734 215.523 95.0123 211.201 97.2201 206.309C96.826 206.532 96.423 206.768 96.0078 207.013C92.065 209.335 87.158 212.224 82.8199 206.908C77.3244 200.168 70.4153 204.661 66.7038 207.075C65.0346 208.161 62.0005 210.134 58.6105 210.134C56.4368 210.134 54.1166 209.323 51.9157 206.946C47.9969 202.715 43.4007 202.306 38.253 205.731C37.1543 206.466 36.0898 207.083 35.0752 207.586C36.2197 209.862 37.6178 212.007 39.2424 213.98C44.3601 211.389 49.1474 212.263 53.1068 216.537Z" fill="#D7375D"/>
<path d="M85.9997 182.849C87.0725 185.933 87.6757 186.769 87.9993 186.895C88.5503 186.667 88.4931 185.403 88.3014 184.466C88.1582 184.338 88.0149 184.21 87.8737 184.081C87.2557 183.508 86.6573 183.173 85.9997 182.849Z" fill="#FF4239"/>
<path d="M64.7919 190.943C65.2022 190.765 65.6811 190.951 65.8605 191.362L67.1011 194.201C68.0058 193.638 69.0752 193.018 70.2399 192.48C68.7229 189.184 65.7732 189.095 64.6567 189.196C64.2537 189.399 60.9108 191.173 60.0602 194.314C59.7744 195.377 59.8028 196.506 60.1401 197.669C62.1364 197.262 64.0597 196.158 65.7188 195.084C65.716 195.078 65.7111 195.074 65.7083 195.068L64.3731 192.012C64.1937 191.601 64.3812 191.122 64.7919 190.943Z" fill="#FF4239"/>
<path d="M89.1839 183.076C89.4351 183.138 89.6486 183.318 89.7456 183.574C91.5179 185.112 92.8625 185.941 93.5094 186.174C93.231 185.291 91.1839 181.91 87.4116 178.697C83.2521 175.154 76.7996 171.38 72.9445 169.125C71.9993 168.572 71.1831 168.094 70.6133 167.743C66.4019 165.153 62.4997 166.28 57.1442 171.636C53.2931 175.486 44.4867 186.764 40.4067 192.054C45.05 190.182 49.4769 191.229 53.1072 195.149C54.7513 196.924 56.5244 197.808 58.5045 197.834C58.2521 196.844 58.1799 195.869 58.2943 194.921L56.3097 195.346C56.2533 195.358 56.1965 195.364 56.1401 195.364C55.9144 195.364 55.6961 195.27 55.5407 195.099C55.3463 194.887 55.2793 194.587 55.3649 194.311C55.4189 194.138 56.718 190.01 59.6015 185.252C59.6616 185.152 65.6515 175.315 68.4692 174.843C69.2164 174.721 80.9964 177.411 83.3974 179.416C83.9221 179.852 84.4493 180.215 85.0549 180.558C85.4721 180.793 85.8767 180.987 86.2675 181.174C87.1819 181.613 88.0459 182.026 88.9684 182.881C89.0398 182.947 89.1125 183.011 89.1839 183.076Z" fill="#FF4239"/>
<path d="M345.447 190.125V190.125C344.22 209.065 327.807 223.482 308.867 222.249C289.926 221.018 275.516 204.606 276.743 185.664C277.925 167.478 293.099 153.471 311.071 153.471C311.819 153.471 312.571 153.495 313.327 153.544C322.503 154.138 330.898 158.271 336.964 165.181C343.031 172.09 346.044 180.949 345.447 190.125ZM267.049 129.785C248.107 128.554 233.697 112.142 234.928 93.2005C235.523 84.0247 239.656 75.6307 246.565 69.5637C252.9 64.0012 260.873 61.0065 269.227 61.0065C269.985 61.0065 270.747 61.0312 271.509 61.0807C280.684 61.6749 289.079 65.8076 295.147 72.7171C301.214 79.6262 304.228 88.4854 303.633 97.6615C302.4 116.604 285.987 131.021 267.049 129.785ZM212.919 62.2029C212.387 70.4026 208.936 78.1514 203.201 84.0207C197.526 89.8275 189.976 93.4553 181.94 94.2354C180.108 94.4176 178.224 94.4484 176.338 94.3267C169.989 93.9131 163.902 91.765 158.734 88.114C152.433 83.6643 147.756 77.1611 145.566 69.8035C145.566 69.8031 145.566 69.8031 145.566 69.8031C144.402 65.8985 143.947 61.8409 144.214 57.7423C144.811 48.5661 148.944 40.1717 155.854 34.1047C162.19 28.5426 170.163 25.5475 178.517 25.5475C179.275 25.5475 180.036 25.5726 180.799 25.6221C189.975 26.2163 198.369 30.349 204.436 37.2585C210.503 44.168 213.515 53.0264 212.919 62.2029ZM180.346 97.8251C177.52 107.306 175.079 115.493 173.526 126.472C172.507 133.666 172.472 141.929 173.426 149.739C173.836 153.137 174.425 156.377 175.175 159.379C172.255 161.692 169.375 164.03 166.587 166.295C164.531 167.965 162.589 169.543 160.795 170.976L160.704 171.049C153.656 176.683 145.751 183.013 140.727 191C140.686 187.565 140.572 184.082 140.457 180.689C140.172 172.274 139.877 163.57 140.742 155.298C142.299 140.371 144.271 130.188 148.017 117.724C150.519 109.399 154.083 100.071 158.61 89.9931C163.843 93.4785 169.913 95.5349 176.234 95.9468C177.022 95.9975 177.811 96.0235 178.596 96.0235C179.372 96.0235 180.142 95.9894 180.907 95.9395C180.719 96.5742 180.531 97.2041 180.346 97.8251ZM185.518 153.553C187.499 152.368 189.567 151.099 190.682 150.313C194.09 148.818 197.304 149.019 199.768 150.967C203.561 153.965 204.621 160.225 202.346 166.19C200.731 170.415 196.502 176.321 193.414 180.633C192.963 181.263 192.537 181.859 192.145 182.412C191.962 182.671 191.745 182.957 191.492 183.274C191.35 183.366 191.239 183.502 191.176 183.661C190.47 184.517 189.662 185.406 188.805 186.345C186.141 189.269 183.121 192.582 182.329 196.035C181.523 199.569 185.531 204.261 189.067 208.401C190.381 209.938 191.621 211.39 192.365 212.519C197.521 220.347 201.592 226.529 204.466 237.446C204.58 237.879 205.023 238.138 205.458 238.024C205.891 237.91 206.15 237.465 206.036 237.032C204.987 233.047 203.785 229.685 202.435 226.646C203.285 223.655 205.759 217.58 210.118 213.019C216.105 206.753 223.915 204.549 227.71 203.814C228.156 203.89 228.607 203.935 229.062 203.934C229.521 203.934 229.984 203.895 230.443 203.813C230.564 203.791 230.682 203.757 230.801 203.729C235.343 217.481 234.305 245.773 226.911 257.429C226.87 257.494 226.843 257.562 226.822 257.632C221.82 257.745 172.527 257.668 146.013 257.609C144.982 251.67 143.295 245.771 141.661 240.064L141.632 239.962C137.877 226.86 133.994 213.311 138.547 199.341C139.139 197.523 139.927 195.698 140.887 193.92C145.612 185.191 153.8 178.646 161.718 172.317L161.809 172.244C163.607 170.807 165.551 169.228 167.611 167.555C170.549 165.168 173.589 162.699 176.666 160.267C180.127 157.54 183.006 155.356 185.518 153.553ZM187.292 140.172C187.305 140.161 187.317 140.15 187.329 140.139C187.413 140.061 195.73 132.316 202.682 133.474C207.59 134.293 211.189 137.192 213.377 142.091C214.954 145.622 215.754 150.1 215.754 155.4C215.754 164.07 215.194 184.95 210.01 191.572C209.613 192.079 209.181 192.554 208.728 192.984C205.997 195.561 202.55 196.202 199.273 194.743C195.34 192.993 192.749 188.829 192.747 184.305C193.026 183.955 193.266 183.638 193.47 183.35C193.86 182.799 194.285 182.205 194.734 181.578C197.873 177.194 202.172 171.19 203.862 166.769C206.388 160.148 205.118 153.126 200.775 149.693C199.123 148.388 194.713 145.914 188.241 149.739C184.577 149.484 179.245 148.269 177.947 147.963L187.292 140.172ZM223.898 143.69C228.205 146.152 230.74 150.489 231.433 156.58C231.756 159.425 231.688 162.722 231.231 166.379C229.977 176.421 226.436 192.569 221.821 195.899C218.863 198.036 215.476 197.808 213.292 196.88C211.626 196.173 210.508 195.011 210.249 193.748C210.611 193.376 210.963 192.988 211.288 192.573C216.586 185.806 217.378 166.378 217.378 155.4C217.378 150.226 216.626 145.789 215.162 142.174C215.999 141.845 219.13 140.965 223.898 143.69ZM233.143 157.42C235.218 158.02 241.285 160.408 242.406 168.031C243.793 177.462 236.676 196.153 234.524 199.247C233.386 200.881 231.876 201.907 230.157 202.215C228.237 202.556 226.153 201.944 224.719 200.616C223.618 199.596 223.053 198.307 223.092 196.957C228.325 192.616 231.674 175.93 232.842 166.581C233.261 163.223 233.361 160.149 233.143 157.42ZM232.11 265.62C232.199 267.573 232.074 269.161 231.828 270.948H139.237C138.992 269.161 138.867 267.572 138.956 265.62C139.01 264.4 139.641 260.338 145.468 259.291C145.656 259.256 145.788 259.239 145.845 259.232C146.902 259.234 166.71 259.278 186.527 259.3C198.353 259.313 207.779 259.316 214.543 259.309C218.367 259.305 221.555 259.297 223.79 259.284C225.62 259.275 226.624 259.269 227.194 259.217L227.193 259.224C227.384 259.252 231.857 259.978 232.11 265.62ZM138.728 290.226C138.82 289.883 138.913 289.545 139.005 289.213C139.521 287.336 140.01 285.562 140.111 283.922C140.438 278.762 139.941 275.559 139.503 272.733C139.494 272.679 139.486 272.626 139.478 272.572H231.587C231.579 272.625 231.571 272.676 231.563 272.729C231.125 275.556 230.628 278.761 230.954 283.922C231.058 285.555 231.542 287.316 232.055 289.182C232.148 289.524 232.244 289.873 232.339 290.226H138.728ZM232.609 291.849C232.658 291.849 232.706 291.843 232.752 291.835C233.246 293.878 233.674 296.263 233.555 298.907C233.441 301.479 232.454 305.794 227.142 305.794H199.676C189.091 305.885 173.054 305.968 171.614 305.827C171.541 305.806 171.464 305.794 171.383 305.794H143.924C138.611 305.794 137.625 301.479 137.511 298.907C137.393 296.251 137.825 293.874 138.312 291.849H232.609ZM172.026 306.11C172.102 306.207 172.16 306.327 172.183 306.468C172.16 306.335 172.105 306.213 172.026 306.11ZM205.56 343.282H144.735V307.418H171.383V307.408C172.047 307.496 173.609 307.532 177.672 307.532C179.661 307.532 182.251 307.523 185.628 307.508C192.593 307.478 199.62 307.418 199.682 307.418H224.375C223.217 317.908 216.229 336.177 205.56 343.282ZM108.222 254.623L84.3326 223.084C85.5482 222.358 86.7328 221.556 87.8615 220.686C93.062 216.669 97.0632 211.33 99.4321 205.245C100.774 201.81 101.576 198.186 101.816 194.472C101.837 194.127 101.857 193.778 101.866 193.433C102.495 176.208 90.9313 161.067 74.2633 157.093L82.1979 133.139C85.1358 134.122 88.1947 134.726 91.3059 134.928C92.1042 134.98 92.8956 135.006 93.6849 135.006C111.036 135.004 126.047 122.609 129.126 105.325C129.366 103.992 129.531 102.635 129.616 101.293C130.066 94.3445 128.521 87.476 125.148 81.4298C124.779 80.7626 124.367 80.0933 123.937 79.4281L144.266 71.0645C146.585 78.2281 151.162 84.5629 157.258 89.0418C152.641 99.2942 149.008 108.785 146.462 117.257C142.685 129.828 140.696 140.092 139.127 155.129C138.251 163.513 138.548 172.274 138.835 180.745C138.976 184.918 139.122 189.234 139.122 193.408C139.122 193.51 139.144 193.607 139.178 193.697C138.301 195.388 137.565 197.113 137.004 198.838C132.401 212.961 136.079 226.461 139.818 239.523C127.429 238.763 115.413 244.524 108.222 254.623ZM82.7616 222.125C76.9362 225.418 70.316 226.93 63.6151 226.49C54.5957 225.904 46.3741 221.916 40.3424 215.245C44.6598 213.208 48.551 214.007 51.9155 217.64C54.1155 220.018 56.4349 220.829 58.609 220.829C61.9991 220.828 65.0344 218.855 66.704 217.769C70.4155 215.355 77.3241 210.862 82.8201 217.602C83.7738 218.77 84.8266 219.596 85.9568 220.079C84.926 220.821 83.8558 221.508 82.7616 222.125ZM35.0754 207.586C36.09 207.083 37.1545 206.466 38.2531 205.731C43.4004 202.306 47.997 202.715 51.9159 206.946C54.1168 209.323 56.4366 210.134 58.6103 210.134C62.0007 210.134 65.0348 208.161 66.704 207.075C70.4155 204.661 77.3245 200.168 82.8201 206.908C87.1581 212.224 92.0652 209.335 96.008 207.013C96.4232 206.768 96.8257 206.532 97.2202 206.309C95.012 211.201 91.6736 215.523 87.4682 218.922C87.3964 218.875 87.3185 218.835 87.2312 218.812C86.0936 218.513 85.0624 217.781 84.0778 216.576C77.6622 208.707 69.3627 214.104 65.8189 216.408C61.6582 219.115 57.2389 221.003 53.107 216.537C49.1476 212.263 44.3603 211.389 39.2426 213.98C37.618 212.007 36.2198 209.862 35.0754 207.586ZM31.9325 198.079C33.0445 197.822 35.1135 197.111 38.1058 195.136L38.2535 195.037C43.398 191.609 47.9946 192.018 51.9159 196.253C53.8891 198.383 56.133 199.458 58.5997 199.458C58.913 199.458 59.2304 199.44 59.551 199.405C62.1979 199.118 64.6521 197.715 66.7044 196.381C67.8668 195.625 69.6237 194.48 71.5429 193.678C73.4463 192.879 75.2166 192.551 76.8063 192.698C79.0904 192.903 81.0575 194.052 82.8201 196.214C87.159 201.531 92.0664 198.639 96.0104 196.315C97.5376 195.416 98.9922 194.563 100.199 194.3C100.198 194.323 100.197 194.347 100.196 194.37C99.9816 197.687 99.2913 200.928 98.1541 204.019C98.0948 204.032 98.036 204.05 97.9788 204.077C97.0782 204.499 96.1581 205.04 95.1845 205.614C91.2507 207.931 87.5344 210.119 84.0778 205.882C77.6606 198.012 69.3627 203.409 65.8189 205.714C61.6598 208.42 57.2409 210.308 53.107 205.843C48.6931 201.077 43.0989 200.558 37.3526 204.381C36.3201 205.071 35.3254 205.649 34.3818 206.118C33.2349 203.543 32.413 200.847 31.9325 198.079ZM87.9995 186.896C87.6756 186.769 87.0725 185.933 85.9999 182.849C86.6573 183.173 87.256 183.508 87.8737 184.081C88.0149 184.21 88.1582 184.338 88.3014 184.466C88.4934 185.403 88.5502 186.668 87.9995 186.896ZM86.2673 181.174C85.8765 180.987 85.4719 180.794 85.0547 180.559C84.4491 180.215 83.9219 179.852 83.3972 179.416C80.9962 177.411 69.2162 174.721 68.469 174.844C65.6513 175.316 59.6614 185.153 59.6013 185.252C56.7178 190.01 55.4187 194.138 55.3647 194.311C55.2791 194.587 55.3457 194.887 55.5405 195.1C55.6959 195.27 55.9142 195.364 56.1399 195.364C56.1963 195.364 56.2531 195.358 56.3095 195.346L58.2941 194.922C58.1797 195.869 58.2519 196.844 58.5043 197.834C56.5242 197.808 54.7511 196.924 53.107 195.149C49.4767 191.229 45.0498 190.183 40.4065 192.054C44.4865 186.764 53.2929 175.487 57.1439 171.636C62.4995 166.281 66.4017 165.154 70.6131 167.744C71.1829 168.095 71.9991 168.572 72.9443 169.125C76.7994 171.38 83.2519 175.154 87.4114 178.697C91.1837 181.911 93.2308 185.292 93.5092 186.175C92.8623 185.941 91.5177 185.112 89.7454 183.575C89.648 183.318 89.4349 183.139 89.1837 183.076C89.1123 183.011 89.0396 182.948 88.9682 182.881C88.0457 182.027 87.1817 181.613 86.2673 181.174ZM64.3732 192.012L65.7085 195.068C65.7113 195.074 65.7162 195.079 65.719 195.085C64.0599 196.158 62.1366 197.262 60.1403 197.67C59.803 196.506 59.7746 195.377 60.0604 194.314C60.911 191.173 64.2535 189.4 64.6569 189.196C65.7734 189.095 68.7231 189.185 70.2401 192.48C69.0753 193.018 68.006 193.638 67.1013 194.201L65.8607 191.362C65.6813 190.951 65.2024 190.765 64.7921 190.943C64.3814 191.123 64.1939 191.601 64.3732 192.012ZM31.491 189.909C32.0876 180.733 36.2215 172.338 43.1314 166.27C49.467 160.707 57.4402 157.711 65.7949 157.711C66.5522 157.711 67.3132 157.736 68.0762 157.785C69.7742 157.895 71.4613 158.13 73.0924 158.483C89.1975 161.928 100.51 176.225 100.254 192.64C98.6728 192.862 96.9702 193.865 95.1862 194.917C91.2515 197.235 87.5352 199.425 84.0782 195.188C82.2832 192.987 80.1947 191.653 77.8615 191.21C77.8611 191.205 77.8623 191.2 77.8619 191.196C77.8578 191.144 77.8379 190.957 77.7588 190.673C77.7559 190.662 77.7535 190.652 77.7507 190.641C77.4735 189.628 76.4021 187.125 72.4467 185.765C68.1691 184.295 64.9333 186.809 64.0153 187.642C64.0108 187.643 64.0035 187.644 64.0035 187.644C63.7945 187.688 63.6224 187.81 63.5076 187.971C62.4102 188.595 59.8148 190.319 58.7267 193.177C58.6992 193.18 58.672 193.18 58.6444 193.186L57.3915 193.455C57.9926 191.878 59.172 189.092 60.9897 186.093C63.8302 181.405 67.5092 176.802 68.6703 176.46C70.0218 176.613 80.4171 179.043 82.3582 180.664C82.8481 181.071 83.3408 181.42 83.8797 181.748C83.8891 181.765 83.8956 181.782 83.9065 181.799C83.969 181.917 84.1366 182.414 84.2848 182.853C85.1042 185.282 86.2008 188.533 87.9751 188.533C88.1383 188.533 88.3075 188.506 88.4824 188.447C89.4495 188.125 89.9905 187.23 90.0575 185.937C92.178 187.576 93.6756 188.168 94.5185 187.7C94.8266 187.529 95.3164 187.083 95.1379 186.016C94.9341 184.812 92.5295 180.924 88.4637 177.461C84.1951 173.825 77.6655 170.006 73.7641 167.724C72.827 167.176 72.0181 166.702 71.4634 166.361C65.2767 162.555 60.1728 166.311 55.9962 170.488C50.8457 175.638 37.5311 193.128 36.967 193.87C36.9398 193.905 36.9191 193.943 36.8984 193.981C34.3432 195.626 32.6119 196.243 31.6878 196.471C31.4163 194.309 31.3493 192.106 31.491 189.909ZM93.5376 110.122C93.5965 110.135 93.6553 110.141 93.7138 110.141C94.0859 110.141 94.4215 109.883 94.5051 109.504C94.5258 109.411 96.5157 100.414 98.1922 93.3133C98.5534 93.4034 98.9053 93.5004 99.2454 93.6116C103.287 94.9229 106.577 97.7289 108.508 101.513C110.44 105.297 110.782 109.607 109.471 113.649C108.162 117.691 105.356 120.981 101.57 122.913C97.786 124.845 93.4755 125.187 89.4341 123.878C81.0904 121.171 76.5031 112.181 79.2089 103.836C81.3659 97.1725 87.553 92.8275 94.316 92.8275C95.0713 92.8275 95.8347 92.8827 96.5997 92.9943C94.9232 100.099 92.941 109.06 92.9203 109.154C92.8233 109.591 93.0997 110.025 93.5376 110.122ZM124.024 82.864H124.034C124.047 82.864 124.059 82.8608 124.072 82.86C127.051 88.476 128.41 94.7954 127.996 101.189C127.937 102.118 127.837 103.055 127.699 103.985L99.8262 84.3113C99.7888 84.2853 99.7495 84.265 99.7097 84.2459L99.7239 82.5909L124.024 82.864ZM59.2913 96.7277C59.8879 87.5499 64.0214 79.1542 70.9317 73.0868C77.2669 67.5243 85.2405 64.5288 93.5948 64.5288C94.3521 64.5288 95.1131 64.554 95.8761 64.6035C106.546 65.2983 116.116 70.7743 122.132 79.627C122.493 80.1574 122.829 80.694 123.151 81.2305L99.7377 80.9675L99.7961 74.125C99.7961 74.1104 99.7961 74.0954 99.7953 74.0803L99.6411 70.7565C99.622 70.3433 99.2953 70.0105 98.8826 69.9841C97.6525 69.905 86.775 69.2475 83.7929 70.6083C82.2474 71.3157 81.1318 72.8356 80.8091 74.6737C80.4735 76.584 81.0202 78.459 82.2706 79.6883C84.6577 82.0398 91.4284 81.1765 92.1931 81.0706C92.637 81.0089 92.9467 80.599 92.8854 80.155C92.8233 79.7106 92.4126 79.4014 91.9698 79.4622C89.3883 79.8198 84.7815 79.8827 83.4094 78.5312C82.5522 77.6887 82.1687 76.3182 82.4081 74.9545C82.6419 73.6225 83.3927 72.5767 84.4678 72.0844C86.5295 71.1437 94.3842 71.3587 98.0534 71.5609L98.1728 74.1335L98.0676 86.4488C98.0664 86.5641 98.0904 86.6737 98.133 86.7731C98.1204 86.8044 98.1066 86.8344 98.0977 86.8677C97.8858 87.6794 97.6452 88.651 97.3838 89.7151C88.051 88.2045 78.9552 93.7195 76.0088 102.8C74.4207 107.698 74.8347 112.92 77.1744 117.504C79.5145 122.089 83.5003 125.487 88.3972 127.074C90.3538 127.709 92.3623 128.023 94.3615 128.023C97.3647 128.023 100.346 127.312 103.098 125.908C107.683 123.568 111.083 119.582 112.671 114.685C114.259 109.79 113.845 104.568 111.505 99.9842C109.165 95.3993 105.179 92 100.282 90.4115C99.8497 90.2719 99.4126 90.1526 98.9747 90.0438C99.2283 89.0109 99.4621 88.0686 99.6683 87.2776C99.715 87.099 99.6959 86.92 99.6297 86.7617C99.6675 86.6692 99.6898 86.5686 99.691 86.4622L99.693 86.2045L127.384 105.75C124.015 122.625 108.683 134.427 91.4114 133.308C88.1756 133.099 84.9978 132.438 81.9662 131.345C67.6253 126.188 58.301 111.952 59.2913 96.7277ZM338.184 164.11C331.831 156.874 323.041 152.547 313.432 151.924C309.298 151.656 305.279 152.101 301.495 153.15C301.484 153.106 301.471 153.062 301.452 153.019L289.267 125.404C298.276 119.381 304.497 109.393 305.253 97.7666V97.7662C305.876 88.1574 302.72 78.8811 296.366 71.6461C290.013 64.4107 281.223 60.0832 271.614 59.4606C262.008 58.8393 252.729 61.9911 245.494 68.3437C243.183 70.3725 241.173 72.6518 239.482 75.125L214.448 63.3474C214.48 63.0012 214.516 62.6558 214.539 62.308C215.163 52.6992 212.009 43.4225 205.656 36.1875C199.303 28.9521 190.512 24.6246 180.904 24.002C171.297 23.3786 162.019 26.5325 154.784 32.8851C147.548 39.2378 143.219 48.028 142.594 57.6368C142.331 61.6611 142.743 65.6477 143.801 69.5012L123.067 78.0308C123.049 78.0385 123.033 78.0495 123.015 78.0584C116.694 69.1757 106.887 63.6936 95.9812 62.9833C86.3712 62.3575 77.0956 65.5138 69.8603 71.8669C62.6249 78.2204 58.2957 87.0122 57.6715 96.6221C56.6517 112.298 66.079 126.966 80.6707 132.587L72.6683 156.746C71.1995 156.462 69.6955 156.263 68.1809 156.165C58.5721 155.54 49.2961 158.696 42.0599 165.05C34.8246 171.404 30.4954 180.195 29.8712 189.804C29.7105 192.288 29.8071 194.78 30.1517 197.217C30.1363 197.28 30.1253 197.343 30.1245 197.41C30.1233 197.567 30.1691 197.712 30.2458 197.836C30.7787 201.199 31.786 204.468 33.2511 207.558C34.6172 210.443 36.3676 213.14 38.4528 215.571C44.8225 223.021 53.7215 227.474 63.5096 228.11C64.3014 228.161 65.0916 228.187 65.8801 228.187C71.8327 228.187 77.6622 226.717 82.9082 223.893L107.059 255.777C107.126 255.865 107.209 255.931 107.299 255.984C103.99 261.115 102.032 267.037 101.633 273.169C101.01 282.778 104.166 292.054 110.519 299.289C116.873 306.524 125.663 310.852 135.271 311.474C136.066 311.527 136.862 311.553 137.657 311.553C139.49 311.553 141.314 311.405 143.112 311.127V343.282H99.5405C99.0924 343.282 98.7288 343.645 98.7288 344.094C98.7288 344.542 99.0924 344.905 99.5405 344.905H275.583C276.032 344.905 276.395 344.542 276.395 344.094C276.395 343.645 276.032 343.282 275.583 343.282H227.954V307.385C232.333 307.056 234.951 304.036 235.177 298.98C235.32 295.777 234.728 292.971 234.129 290.648C233.962 289.998 233.788 289.365 233.62 288.752C233.109 286.892 232.667 285.286 232.575 283.819C232.259 278.834 232.721 275.857 233.167 272.977C233.223 272.618 233.278 272.263 233.331 271.908C233.587 270.191 233.85 268.142 233.732 265.547C233.52 260.82 230.665 258.641 228.529 257.896C236.117 245.365 236.986 217.25 232.338 203.204C233.696 202.575 234.894 201.556 235.856 200.174C238.355 196.582 245.451 177.578 244.012 167.795C242.629 158.39 234.311 156.023 232.952 155.698C232.082 149.432 229.314 144.916 224.704 142.281C219.316 139.202 215.6 140.252 214.506 140.69C212.074 135.777 208.096 132.732 202.949 131.873C195.312 130.594 186.806 138.406 186.235 138.94L174.906 148.384C174.108 141.057 174.184 133.403 175.133 126.699C176.67 115.84 179.094 107.707 181.902 98.2889C182.147 97.4675 182.396 96.6319 182.647 95.7853C190.856 94.8591 198.549 91.1027 204.362 85.155C209.725 79.6668 213.174 72.6087 214.248 65.0475L238.585 76.4971C235.52 81.4533 233.696 87.1152 233.309 93.0953C232.02 112.93 247.108 130.116 266.943 131.405C267.735 131.457 268.522 131.482 269.305 131.482C276.056 131.482 282.425 129.586 287.881 126.286L299.942 153.618C286.337 158.062 276.106 170.428 275.123 185.559C273.837 205.394 288.928 222.58 308.762 223.869C309.552 223.92 310.335 223.945 311.117 223.945C329.94 223.945 345.833 209.273 347.067 190.23C347.691 180.622 344.537 171.345 338.184 164.11Z" fill="#700051"/>
<path d="M195.81 57.0909C195.56 57.431 195.613 57.9058 195.931 58.183L204.6 65.7447L193.423 68.4631C193.013 68.5633 192.748 68.9602 192.813 69.3774L194.592 80.7435L184.284 75.6428C183.904 75.4557 183.446 75.5905 183.228 75.9525L177.285 85.7995L172.666 75.2654C172.533 74.9626 172.237 74.7796 171.923 74.7796C171.835 74.7796 171.747 74.7934 171.66 74.823L160.776 78.5491L164.013 67.5077C164.131 67.1027 163.92 66.6741 163.526 66.5219L152.792 62.3823L162.369 56.0028C162.72 55.7691 162.834 55.3048 162.629 54.935L157.068 44.8661L168.501 46.1343C168.918 46.179 169.306 45.8977 169.387 45.4833L171.602 34.1928L179.546 42.5154C179.837 42.821 180.314 42.8514 180.643 42.5868L189.594 35.3644L190.33 46.8445C190.356 47.2658 190.702 47.5958 191.124 47.6043L202.625 47.8218L195.81 57.0909ZM191.902 45.9951L191.114 33.6964C191.094 33.3937 190.908 33.1274 190.63 33.0053C190.352 32.8835 190.03 32.9265 189.794 33.1169L180.205 40.8543L171.694 31.9383C171.485 31.7187 171.171 31.6347 170.879 31.7196C170.588 31.8048 170.369 32.045 170.311 32.3429L167.938 44.4383L155.689 43.0799C155.388 43.0475 155.093 43.1838 154.925 43.4359C154.756 43.6887 154.743 44.0134 154.889 44.2792L160.847 55.0661L150.588 61.9005C150.336 62.0686 150.198 62.3632 150.231 62.6643C150.264 62.9663 150.463 63.2236 150.746 63.3332L162.244 67.7682L158.778 79.5958C158.693 79.8867 158.777 80.2009 158.996 80.4107C159.215 80.6201 159.532 80.6899 159.82 80.5921L163.984 79.1676H163.984L171.479 76.601L176.427 87.8855C176.549 88.1635 176.815 88.3498 177.117 88.3697C177.135 88.3709 177.153 88.3713 177.171 88.3713C177.453 88.3713 177.718 88.2236 177.865 87.9789L184.234 77.4298L195.276 82.8936C195.548 83.0276 195.872 83.0004 196.117 82.8202C196.361 82.6408 196.485 82.3401 196.438 82.0406L194.533 69.8644L206.506 66.9521C206.8 66.8803 207.031 66.6505 207.102 66.3559C207.174 66.0613 207.076 65.7512 206.848 65.5519L197.56 57.4509L204.862 47.5207C205.042 47.2764 205.07 46.9525 204.935 46.6806C204.801 46.4087 204.527 46.2342 204.223 46.2281L191.902 45.9951Z" fill="#700051"/>
<path d="M291.216 105.661V84.7536C291.265 84.7585 291.315 84.7597 291.366 84.7557C291.376 84.7532 292.44 84.6769 293.298 85.457C294.087 86.1749 294.487 87.4022 294.487 89.1055L294.488 101.166C294.489 101.189 294.544 103.475 293.287 104.772C292.761 105.314 292.08 105.605 291.216 105.661ZM289.593 109.86C289.593 111.355 288.377 112.572 286.882 112.572H283.047C281.55 112.572 280.332 111.355 280.332 109.86V80.6234C280.332 79.1262 281.55 77.9083 283.047 77.9083H286.882C288.377 77.9083 289.593 79.1262 289.593 80.6234V109.86ZM278.708 97.8924H259.325V92.6408H278.708V97.8924ZM257.702 80.6234V109.86C257.702 111.355 256.484 112.572 254.987 112.572H251.151C249.654 112.572 248.436 111.355 248.436 109.86V80.6234C248.436 79.1262 249.654 77.9083 251.151 77.9083H254.987C256.484 77.9083 257.702 79.1262 257.702 80.6234ZM246.813 105.64C246.05 105.551 245.438 105.266 244.956 104.769C243.7 103.473 243.756 101.189 243.757 101.139V89.1055C243.757 85.6781 245.57 84.9042 246.813 84.7755V105.64ZM296.111 101.139V89.1055C296.111 86.9257 295.532 85.2942 294.39 84.2561C293.004 82.9951 291.311 83.1307 291.216 83.1388V80.6234C291.216 78.2309 289.272 76.2849 286.882 76.2849H283.047C280.655 76.2849 278.708 78.2309 278.708 80.6234V91.017H259.325V80.6234C259.325 78.2309 257.379 76.2849 254.987 76.2849H251.151C248.759 76.2849 246.813 78.2309 246.813 80.6234V83.1518C243.37 83.3969 242.134 86.3689 242.134 89.1055L242.134 101.11C242.13 101.231 242.048 104.092 243.782 105.891C244.57 106.707 245.586 107.171 246.813 107.274V109.86C246.813 112.251 248.759 114.195 251.151 114.195H254.987C257.379 114.195 259.325 112.251 259.325 109.86V99.5158H278.708V109.86C278.708 112.251 280.655 114.195 283.047 114.195H286.882C289.272 114.195 291.216 112.251 291.216 109.86V107.283C292.535 107.22 293.627 106.757 294.46 105.894C296.196 104.095 296.114 101.231 296.111 101.139Z" fill="#700051"/>
<path d="M330.339 177.215C327.763 175.218 324.359 174.347 323.357 174.125C318.964 173.144 315.574 172.994 313.308 175.445C312.475 176.343 312.138 177.545 312.313 178.845C308.883 178.483 306.066 177.508 303.947 175.923C299.916 172.909 299.069 168.286 299.069 164.937C299.069 164.899 299.063 164.862 299.058 164.825C300.112 162.909 301.619 161.726 303.78 161.138C309.932 159.458 327.489 161.738 330.58 166.222C333.277 170.133 331.012 175.748 330.339 177.215ZM330.918 184.43C327.925 190.041 318.604 199.868 318.51 199.966C318.485 199.993 318.465 200.022 318.444 200.051C318.413 200.034 318.383 200.016 318.351 200C316.786 199.212 314.916 198.529 312.793 197.971C310.213 197.299 307.29 196.82 304.107 196.548C301.117 196.287 298.703 196.273 297.591 196.285C297.292 194 296.291 185.522 296.714 177.476C296.902 173.901 297.177 170.872 297.75 168.42C298.266 171.288 299.558 174.386 302.416 176.771C301.495 181.909 301.2 187.577 309.351 189.852C309.683 189.943 309.816 189.877 310.682 189.453C311.692 188.957 313.573 188.035 315.576 187.367C319.993 185.896 322.137 186.33 322.15 186.332C322.561 186.432 322.976 186.196 323.108 185.796C323.239 185.396 323.043 184.961 322.656 184.796C322.603 184.773 317.413 182.551 315.642 181.438C314.973 181.017 314.396 180.251 314.098 179.39C313.916 178.861 313.591 177.526 314.499 176.547C316.24 174.665 319.157 174.851 323.005 175.71C324.945 176.14 327.675 177.133 329.519 178.631C331.624 180.346 332.082 182.243 330.918 184.43ZM316.318 211.831C315.304 210.801 313.673 209.821 311.581 208.998L312.333 204.767C312.339 204.758 312.348 204.752 312.354 204.743C312.492 204.537 312.519 204.293 312.456 204.072L313.22 199.773C314.886 200.255 316.365 200.817 317.623 201.451C317.763 201.521 317.902 201.593 318.039 201.666L316.318 211.831ZM303.97 201.842L304.731 198.238C307.231 198.482 309.55 198.858 311.645 199.36L310.981 203.093C308.957 202.404 305.567 202.002 303.97 201.842ZM310.031 208.445C309.999 208.435 309.97 208.424 309.938 208.414C308.706 208.019 307.407 207.694 306.077 207.448C304.998 207.246 303.926 207.102 302.879 207.015L303.633 203.441C305.541 203.628 309.081 204.079 310.694 204.711L310.031 208.445ZM295.082 207.785L297.593 197.909C298.556 197.898 300.591 197.909 303.101 198.096L301.239 206.924C298.664 206.851 296.549 207.155 295.082 207.785ZM331.917 165.3C328.171 159.868 309.525 157.885 303.354 159.573C300.599 160.321 298.646 161.935 297.383 164.506C295.886 167.548 295.384 171.857 295.093 177.39C294.592 186.915 296.052 197.02 296.067 197.121C296.072 197.157 296.082 197.191 296.092 197.225L292.938 209.632C292.919 209.708 292.914 209.784 292.917 209.86C292.896 209.931 292.876 210.003 292.862 210.076C292.668 211.11 293.068 212.711 296.076 214.466C298.183 215.694 301.084 216.696 304.246 217.286C306.167 217.643 308.054 217.824 309.778 217.824C310.893 217.824 311.939 217.748 312.884 217.596C316.322 217.042 317.273 215.694 317.464 214.663C317.499 214.481 317.509 214.296 317.499 214.11C317.565 214.015 317.613 213.907 317.634 213.786L319.736 201.372C319.754 201.263 319.742 201.155 319.718 201.052C320.377 200.358 329.304 190.905 332.351 185.193C333.649 182.754 333.365 180.372 331.581 178.366C331.587 178.355 331.596 178.346 331.602 178.335C331.766 178.023 335.587 170.623 331.917 165.3Z" fill="#700051"/>
</svg>
