<svg width="305" height="323" viewBox="0 0 305 323" fill="none" xmlns="http://www.w3.org/2000/svg">
<path d="M34.1187 157.572V176.935H56.988V157.503H34.1118C34.1138 157.526 34.1187 157.548 34.1187 157.572Z" fill="#F7F5F6"/>
<path d="M32.4953 157.572C32.4953 157.548 32.5001 157.526 32.5022 157.503H20.4863V176.935H32.4953V157.572Z" fill="#F7F5F6"/>
<path d="M96.2855 130.542C96.2855 130.99 95.9219 131.354 95.4739 131.354H52.7872C52.3387 131.354 51.9755 130.99 51.9755 130.542V121.533C51.9755 121.084 52.3387 120.721 52.7872 120.721H95.4739C95.9219 120.721 96.2855 121.084 96.2855 121.533V130.542ZM108.997 237.21C109.012 237.18 109.029 237.152 109.046 237.127C109.171 236.945 109.359 236.819 109.574 236.771C109.652 236.732 109.859 236.622 110.348 236.331V111.95H40.064V138.6C57.7182 138.648 80.7827 138.973 81.0169 138.975C81.4609 138.982 81.8172 139.344 81.8172 139.787V171.406L106.443 238.49C107.5 238.118 108.354 237.749 108.758 237.365C108.829 237.296 108.911 237.247 108.997 237.21Z" fill="#FFB0A8"/>
<path d="M54.6258 240.347C58.3218 240.309 60.9874 238.575 63.0231 234.89C63.2516 234.476 63.472 234.038 63.6786 233.591C64.5077 231.797 65.224 229.643 65.9334 226.814C67.3571 221.119 68.5349 212.447 68.9334 204.721C69.017 203.093 69.0674 201.535 69.0828 200.091C69.1331 195.213 67.6018 190.834 64.8823 188.075C62.9298 186.094 60.4756 185.042 57.7849 185.031H57.7342C56.0852 185.031 54.3677 185.418 52.6278 186.184C52.5925 186.199 52.5564 186.212 52.5195 186.223C52.5057 186.226 50.5779 186.818 48.6266 189.357C46.7958 191.739 44.5726 196.36 44.3786 204.842C44.3628 205.43 44.3587 206.039 44.3669 206.656C44.4655 216.751 44.7504 227.158 46.9984 233.763C48.3721 237.815 50.3003 239.937 52.8937 240.252C53.5251 240.327 54.0937 240.362 54.6258 240.347Z" fill="#D8375D"/>
<path d="M284.211 180.473H292.044V197.182H284.211V180.473Z" fill="#FF3420"/>
<path d="M272.836 96.1176C272.743 95.7052 272.982 95.2917 273.385 95.1655L280.781 92.8497L274.625 88.1476C274.289 87.8911 274.206 87.4207 274.434 87.0652L278.61 80.536L270.869 80.8903C270.449 80.9013 270.081 80.6026 270.027 80.1837L269.031 72.5011L263.329 77.7466C263.019 78.0328 262.54 78.0328 262.23 77.7466L256.529 72.5011L255.533 80.1837C255.478 80.6026 255.098 80.8952 254.691 80.8903L246.95 80.536L251.126 87.0652C251.353 87.4207 251.27 87.8911 250.934 88.1476L244.778 92.8497L252.174 95.1655C252.577 95.2917 252.816 95.7052 252.723 96.1172L251.032 103.679L258.182 100.698C258.284 100.656 258.389 100.636 258.494 100.636C258.789 100.636 259.071 100.797 259.215 101.074L262.78 107.954L266.344 101.074C266.539 100.699 266.987 100.536 267.378 100.698L274.53 103.679L272.836 96.1176Z" fill="#FF4239"/>
<path d="M262.78 110.53C262.477 110.53 262.199 110.361 262.059 110.092L258.117 102.484L250.21 105.78C249.931 105.897 249.609 105.848 249.377 105.652C249.144 105.458 249.04 105.15 249.106 104.854L250.976 96.4913L242.797 93.9304C242.507 93.8399 242.293 93.5952 242.24 93.2965C242.188 92.9982 242.306 92.695 242.547 92.5108L249.356 87.3103L244.738 80.0903C244.575 79.8351 244.567 79.5096 244.719 79.2474C244.871 78.984 245.157 78.8363 245.459 78.8424L254.019 79.2344L255.12 70.7381C255.159 70.4373 255.363 70.1833 255.647 70.0798C255.933 69.9747 256.252 70.0396 256.475 70.245L262.78 76.0461L269.085 70.245C269.308 70.0392 269.626 69.9755 269.912 70.0794C270.197 70.1833 270.4 70.4373 270.439 70.7381L271.541 79.2344L280.1 78.8424C280.398 78.8359 280.689 78.984 280.84 79.2474C280.992 79.5096 280.985 79.8351 280.822 80.0903L276.203 87.3103L283.013 92.5108C283.254 92.695 283.372 92.9982 283.319 93.2965C283.266 93.5952 283.052 93.8399 282.762 93.9304L274.583 96.4909L276.457 104.853C276.524 105.149 276.419 105.458 276.187 105.652C275.955 105.847 275.634 105.897 275.353 105.78L267.442 102.484L263.5 110.092C263.361 110.361 263.083 110.53 262.78 110.53ZM288.295 89.6776C288.295 75.8298 277.029 64.564 263.181 64.564C249.334 64.564 238.068 75.8298 238.068 89.6776C238.068 102.299 247.493 113.009 259.992 114.591C259.992 114.591 259.993 114.591 259.993 114.591C261.889 114.833 263.923 114.854 265.77 114.658C278.613 113.345 288.295 102.606 288.295 89.6776Z" fill="#FE874F"/>
<path d="M254.897 221.013H198.901C198.789 221.45 198.694 221.885 198.632 222.326L198.583 222.684C198.397 224.023 198.312 224.634 198.283 226.924C198.281 227.044 198.252 227.156 198.204 227.258C202.889 230.304 207.39 233.203 210.176 234.997C211.426 235.802 212.334 236.387 212.782 236.678C212.799 236.681 212.815 236.681 212.832 236.685C215.159 237.247 226.583 240.185 227.956 243.968H255.181C255.321 240.915 255.878 227.563 255.157 222.325C255.098 221.893 255.009 221.454 254.897 221.013Z" fill="white"/>
<path d="M201.462 215.3C200.693 216.671 199.962 217.982 199.419 219.39H254.372C253.828 217.984 253.098 216.675 252.33 215.307C250.796 212.571 249.208 209.742 249.05 205.872C248.86 201.22 251.033 197.849 252.62 195.387C253.049 194.721 253.442 194.111 253.746 193.55H232.52C220.086 195.025 207.164 201.696 204.565 203.092C204.709 203.965 204.779 204.888 204.739 205.872C204.58 209.738 202.995 212.566 201.462 215.3Z" fill="#FFB0A8"/>
<path d="M216.509 180.802C218.299 180.802 219.756 182.259 219.756 184.049C219.756 185.839 218.299 187.296 216.509 187.296C214.719 187.296 213.262 185.839 213.262 184.049C213.262 182.259 214.719 180.802 216.509 180.802ZM232.122 166.764C235.57 166.764 238.376 169.569 238.376 173.018C238.376 176.466 235.57 179.272 232.122 179.272C228.674 179.272 225.868 176.466 225.868 173.018C225.868 169.569 228.674 166.764 232.122 166.764ZM199.434 191.926H254.355C254.736 189.161 254.319 175.383 254.038 168.334C254.036 168.267 254.041 168.199 254.055 168.133C254.061 168.107 254.633 165.236 253.032 163.269C251.97 161.963 250.156 161.301 247.641 161.301H230.73C230.612 161.301 230.5 161.276 230.399 161.231C230.247 161.215 229.829 161.188 228.741 161.188C226.508 161.188 223.121 161.3 223.087 161.301L206.144 161.301C203.629 161.301 201.815 161.963 200.753 163.269C199.152 165.236 199.725 168.107 199.73 168.135C199.744 168.2 199.75 168.269 199.747 168.334C199.467 175.391 199.049 189.191 199.434 191.926Z" fill="white"/>
<path d="M232.122 177.648C234.675 177.648 236.753 175.571 236.753 173.018C236.753 170.464 234.675 168.387 232.122 168.387C229.568 168.387 227.491 170.464 227.491 173.018C227.491 175.571 229.568 177.648 232.122 177.648Z" fill="#FE874F"/>
<path d="M231.352 115.331H223.726V143.375H231.415C231.399 143.311 231.388 143.246 231.388 143.177L231.381 137.822C231.336 137.722 231.311 137.611 231.311 137.494C231.311 137.378 231.336 137.268 231.38 137.168L231.352 115.331Z" fill="#FF3420"/>
<path d="M282.588 179.661C282.588 179.213 282.952 178.85 283.4 178.85H292.856C293.305 178.85 293.668 179.213 293.668 179.661V197.993C293.668 198.441 293.305 198.805 292.856 198.805H283.4C282.952 198.805 282.588 198.441 282.588 197.993V179.661ZM273.765 230.672C273.765 231.12 273.402 231.484 272.954 231.484H263.498C263.049 231.484 262.686 231.12 262.686 230.672V212.336C262.686 211.888 263.049 211.525 263.498 211.525H272.954C273.402 211.525 273.765 211.888 273.765 212.336V230.672ZM261.963 167.859V149.527C261.963 149.079 262.327 148.716 262.775 148.716H272.227C272.676 148.716 273.039 149.079 273.039 149.527V167.859C273.039 168.307 272.676 168.671 272.227 168.671H262.775C262.327 168.671 261.963 168.307 261.963 167.859ZM279.151 138.067V127.133H246.972V137.495C246.972 137.943 246.608 138.306 246.16 138.306H233.005L233.011 143.175C233.011 143.245 233 143.311 232.983 143.375H243.299C246.141 143.375 248.453 145.687 248.453 148.529V155.656C248.453 157.282 247.694 158.732 246.514 159.678H247.641C250.676 159.678 252.916 160.545 254.301 162.255C256.209 164.613 255.776 167.733 255.664 168.363C255.731 170.073 256.476 189.376 255.928 192.38C255.921 192.42 255.91 192.46 255.901 192.5C255.925 192.576 255.941 192.654 255.941 192.738C255.941 192.997 255.817 193.225 255.628 193.374C255.271 194.271 254.669 195.205 253.985 196.266C252.433 198.672 250.502 201.667 250.673 205.805C250.814 209.286 252.238 211.824 253.746 214.512C254.683 216.184 255.653 217.912 256.257 219.855C256.492 220.605 256.664 221.362 256.765 222.104C257.509 227.511 256.957 240.73 256.806 243.967H300.949V138.878H279.963C279.515 138.878 279.151 138.515 279.151 138.067Z" fill="#F7F5F6"/>
<path d="M216.509 185.672C217.404 185.672 218.132 184.944 218.132 184.049C218.132 183.154 217.404 182.426 216.509 182.426C215.614 182.426 214.886 183.154 214.886 184.049C214.886 184.944 215.614 185.672 216.509 185.672Z" fill="#FE874F"/>
<path d="M213.153 238.438C212.515 239.48 210.913 241.206 208.815 242.124L211.095 243.683C211.205 243.759 211.287 243.858 211.347 243.968H226.12C224.534 242.008 218.078 239.694 213.153 238.438Z" fill="#D9375E"/>
<path d="M205.215 241.043C205.797 241.154 206.397 241.146 206.998 241.018C209.122 240.58 210.932 238.77 211.608 237.852C211.113 237.532 210.317 237.019 209.296 236.361C206.247 234.398 201.144 231.112 195.993 227.756C192.687 225.603 190.138 223.93 187.996 222.509C187.801 222.465 187.633 222.35 187.52 222.193C182.921 219.138 180.271 217.308 179.198 216.447C175.358 213.374 170.551 213.49 170.504 213.492L165.358 213.493H151.861C151.789 213.492 146.968 213.389 143.144 216.448C140.935 218.214 132.181 224.096 125.356 228.598C119.462 232.487 114.074 235.963 111.631 237.453C111.283 237.665 111.01 237.827 110.792 237.953C111.493 238.856 113.284 240.564 115.416 241.01C116.032 241.143 116.631 241.154 117.198 241.044C117.885 240.913 119.648 240.301 124.159 238.123C132.79 233.967 145.741 226.87 145.87 226.799C146.08 226.685 146.329 226.667 146.552 226.753C146.774 226.838 146.948 227.017 147.027 227.243C147.075 227.38 148.208 230.633 148.548 232.82C148.802 234.476 148.016 235.473 146.712 237.126C145.912 238.14 144.818 239.528 143.488 241.619C142.889 242.555 142.305 243.751 141.749 245.176C140.066 249.472 139.08 254.746 138.729 256.845H144.733L160.198 256.73C160.221 256.728 160.243 256.723 160.266 256.723H160.272L160.704 256.726L160.865 256.725C160.872 256.725 160.877 256.723 160.883 256.723H161.374C161.381 256.723 161.387 256.725 161.394 256.725L162.227 256.731H162.227L183.613 256.84C183.262 254.742 182.277 249.491 180.606 245.204C180.054 243.785 179.465 242.579 178.855 241.618C177.887 240.098 177.045 238.952 176.35 238.048C172.144 235.978 164.149 235.171 165.99 234.29C168.167 233.249 172.659 228.743 175.464 226.986C175.551 226.884 175.659 226.802 175.787 226.753C176.009 226.667 176.258 226.683 176.468 226.798C176.525 226.83 182.285 229.978 188.632 233.28C192.232 235.154 195.355 236.731 197.921 237.972C197.996 237.997 198.067 238.029 198.131 238.074C202.73 240.288 204.524 240.912 205.215 241.043H205.215Z" fill="#F7F5F6"/>
<path d="M210.886 35.5802C212.159 33.5867 212.475 31.0611 211.691 29.1463C211.211 27.9726 210.371 27.1938 209.327 26.9544C206.329 26.2681 203.881 28.3326 203.856 28.3533C203.802 28.4004 203.742 28.4353 203.68 28.4653V42.1695C205.448 40.9966 209.106 38.3631 210.886 35.5802Z" fill="#FF4237"/>
<path d="M210.764 65.1566C210.595 63.7065 209.915 62.4074 208.743 61.2844C206.884 63.2276 204.74 64.4021 202.893 64.4581C202.844 64.4597 202.794 64.4606 202.744 64.4606C202.441 64.4606 202.148 64.4285 201.867 64.368C200.559 66.9979 199.004 71.1801 200.778 73.629C201.282 74.3234 201.966 74.6493 202.844 74.6213C204.488 74.575 206.639 73.2869 208.325 71.3396C210.067 69.327 210.979 67.0158 210.764 65.1566Z" fill="#FF4237"/>
<path d="M200.793 61.7755C201.074 62.1874 201.4 62.4731 201.788 62.6464C202.096 62.7848 202.45 62.8518 202.842 62.836C204.404 62.7885 206.404 61.5563 208.064 59.6205C209.986 57.3802 210.995 54.7783 210.763 52.6602C210.752 52.5689 210.741 52.4825 210.727 52.396C210.1 48.172 205.776 46.228 203.844 45.5632L203.678 48.2864C203.677 48.299 203.673 48.3112 203.671 48.3238C203.667 48.3701 203.658 48.4147 203.646 48.4581C203.641 48.4764 203.635 48.4938 203.629 48.5117C203.611 48.5608 203.589 48.6075 203.563 48.6517C203.558 48.6594 203.556 48.6683 203.551 48.6761C203.537 48.6984 202.086 50.9723 201.043 53.7686C200.124 56.2337 199.335 59.6233 200.793 61.7755Z" fill="#FF4237"/>
<path d="M203.082 76.4229L202.887 76.4761C202.5 78.6368 201.908 83.2614 202.702 85.1741C202.827 85.4753 202.991 85.6684 203.204 85.7646C204.299 86.2529 206.915 84.3856 208.083 81.7991C209.187 79.3495 207.585 76.4627 206.881 75.3811L203.084 76.4225C203.083 76.4225 203.083 76.4229 203.082 76.4229Z" fill="#FF4237"/>
<path d="M154.728 100.883C156.019 102.419 157.198 104.035 158.253 105.691C158.317 105.679 158.384 105.673 158.453 105.678L190.549 107.714C191.036 107.712 191.516 107.653 191.976 107.538C194.216 107 195.776 105.259 195.776 103.302V65.1317L154.722 100.876C154.724 100.878 154.726 100.881 154.728 100.883Z" fill="#F6F6F6"/>
<path d="M120.475 158.99C120.111 160.595 119.804 162.449 119.889 164.481C120.078 168.887 122.554 169.811 124.598 169.811H145.576C145.652 169.811 145.726 169.822 145.796 169.842C147.014 169.953 159.179 169.885 167.192 169.811H188.177C190.221 169.811 192.697 168.887 192.886 164.48C192.972 162.403 192.652 160.514 192.276 158.886C192.148 158.97 191.995 159.02 191.83 159.02H120.682C120.61 159.02 120.541 159.008 120.475 158.99Z" fill="white"/>
<path d="M146.375 170.477C146.349 170.329 146.285 170.205 146.202 170.107C146.289 170.211 146.349 170.338 146.375 170.477Z" fill="white"/>
<path d="M191.83 157.397C191.856 157.397 191.881 157.402 191.907 157.405C191.852 157.193 191.797 156.975 191.743 156.768C191.349 155.272 190.977 153.858 190.898 152.544C190.65 148.448 191.022 145.895 191.355 143.647H121.421C121.753 145.894 122.126 148.446 121.877 152.544C121.798 153.857 121.426 155.271 121.031 156.767C120.978 156.971 120.923 157.188 120.869 157.397H191.83Z" fill="#D8375D"/>
<path d="M191.424 142.024C191.478 142.024 191.531 142.029 191.582 142.04C191.736 140.844 191.85 139.53 191.782 137.943C191.598 133.721 187.179 133.065 186.693 133.005H126.083C125.604 133.066 121.176 133.742 120.993 137.943C120.929 139.447 121.017 140.673 121.191 142.024H191.424Z" fill="white"/>
<path d="M125.298 130.646C125.398 130.955 125.475 131.194 125.535 131.382H187.423L191.318 109.294C191.056 109.321 190.79 109.337 190.523 109.337C190.506 109.337 190.489 109.337 190.472 109.336L185.121 108.996C181.436 110.869 167.763 117.787 163.698 119.413C162.17 120.024 161.784 118.76 161.755 117.448C161.745 117.423 161.733 117.4 161.726 117.374C160.707 113.754 159.181 110.277 157.189 107.039C156.1 105.277 154.853 103.558 153.485 101.929C147.659 95.023 141.3 91.8457 141.236 91.8144C140.89 91.6436 140.711 91.2523 140.81 90.8789C142.969 82.7085 145.64 77.9938 147.995 73.8339C150.071 70.1683 152.032 66.7069 153.414 61.3733C155.42 53.6363 153.092 48.5092 149.896 46.8611C147.504 45.6277 144.817 46.3915 142.707 48.9053C141.691 50.1164 140.502 51.4589 139.165 52.9609L138.42 53.7974C131.32 61.7669 121.595 72.6825 120.048 81.4865C118.341 91.2215 117.866 107.654 125.298 130.646Z" fill="#FF4237"/>
<path d="M187.365 234.45C182.639 231.985 178.318 229.651 176.542 228.688C176.184 229.798 175.61 231.699 175.399 233.068C175.259 233.985 175.623 234.496 176.909 236.127C177.729 237.166 178.852 238.591 180.225 240.747C180.795 241.644 181.342 242.726 181.858 243.968H187.369C187.369 243.953 187.365 243.938 187.365 243.923V234.45Z" fill="#FF4237"/>
<path d="M164.991 13.5254C163.438 13.5254 162.175 12.262 162.175 10.7089C162.175 9.15368 163.438 7.88785 164.991 7.88785C166.544 7.88785 167.808 9.15368 167.808 10.7089C167.808 12.262 166.544 13.5254 164.991 13.5254ZM144.71 8.33591C144.675 8.34037 144.64 8.3424 144.606 8.3424C141.71 8.3424 139.354 10.3201 139.354 12.7503V42.6792L185.579 3.05872L144.71 8.33591Z" fill="#F6F6F6"/>
<path d="M176.387 304.929H167.363C167.187 306.186 166.717 308.998 165.619 312.904C164.418 317.179 163.98 319.821 163.864 320.603H179.536C179.451 319.699 179.07 316.094 178.095 312.051C177.251 308.554 176.65 306.033 176.387 304.929Z" fill="#FE874F"/>
<path d="M161.926 206.643C161.149 207.831 160.17 208.605 159.095 208.896L158.955 211.87L164.464 211.87L164.216 209.131C164.211 209.087 164.214 209.044 164.217 209.002C163.334 208.398 162.511 207.494 161.926 206.643Z" fill="#D9375E"/>
<path d="M154.897 304.929H145.915C145.684 306.238 145.114 309.297 144.251 312.875C143.449 316.195 143.121 319.144 142.997 320.603H158.396C158.282 319.822 157.846 317.181 156.641 312.905C155.544 308.999 155.074 306.186 154.897 304.929Z" fill="#FE874F"/>
<path d="M168.751 206.293C168.817 207.601 168.356 208.86 167.052 209.498C166.822 209.609 166.516 209.702 166.136 209.702C166.059 209.702 165.978 209.696 165.896 209.688L166.094 211.869H170.478C170.674 211.865 175.911 211.738 180.214 215.18C181.152 215.934 183.5 217.562 187.365 220.139V171.435H167.199C167.206 171.435 161.848 171.484 156.465 171.509C153.855 171.521 151.857 171.529 150.323 171.529C147.377 171.529 146.144 171.502 145.576 171.428V171.435H125.409V226.618C132.044 222.232 140.063 216.832 142.13 215.18C146.434 211.738 151.668 211.86 151.888 211.87H157.33L157.467 208.961C156.661 208.792 155.949 208.323 155.448 207.61C154.998 206.971 154.759 206.2 154.732 205.355C153.303 206.618 151.542 207.821 149.747 206.877C148.949 206.458 148.436 205.776 148.264 204.903C147.899 203.054 149.13 200.708 150.145 199.16C148.975 199.266 147.846 199.158 146.987 198.554C146.222 198.017 145.759 197.154 145.61 195.99C145.483 194.992 145.867 193.948 146.721 192.971C147.824 191.711 149.587 190.697 151.35 190.232C150.384 189.199 149.753 187.911 149.722 186.761C149.693 185.676 150.177 184.749 151.087 184.15C152.475 183.236 154.873 183.375 156.823 184.293C156.853 183.599 157.055 182.896 157.431 182.26C158.184 180.984 159.458 180.293 160.83 180.407C163.093 180.595 163.814 182.561 164.077 184.374C165.602 182.964 167.899 181.62 169.966 182.479C171.063 182.933 171.435 183.667 171.554 184.202C171.792 185.277 171.241 186.46 170.497 187.519C171.692 187.548 172.948 187.866 173.802 188.531C174.644 189.187 175.038 190.131 174.912 191.19C174.697 193.034 173.324 193.508 172.166 193.722C173.313 194.312 174.427 195.163 175.068 196.109C175.782 197.163 175.716 198.045 175.535 198.598C175.121 199.875 174.081 200.611 172.433 200.799C173.421 202.297 174.063 204.424 172.965 206.053C171.746 207.86 169.963 207.042 168.751 206.293Z" fill="#FF4237"/>
<path d="M145.438 236.121C146.722 234.493 147.085 233.984 146.944 233.068C146.732 231.699 146.157 229.799 145.798 228.688C142.831 230.304 132.753 235.757 125.409 239.321V243.967H140.487C141.007 242.711 141.556 241.628 142.12 240.746C143.493 238.587 144.617 237.161 145.438 236.121Z" fill="#FF4237"/>
<path d="M115.662 242.695L114.281 243.967H123.786V240.101C120.605 241.607 118.542 242.441 117.505 242.638C116.907 242.754 116.289 242.771 115.662 242.695Z" fill="white"/>
<path d="M112.014 243.849L113.802 242.201C111.864 241.417 110.259 239.929 109.464 238.874C108.432 239.596 106.718 240.133 104.618 240.791C102.129 241.57 99.1128 242.516 97.0073 243.967H111.909C111.94 243.926 111.974 243.886 112.014 243.849Z" fill="#D9375E"/>
<path d="M65.7916 267.626V267.626C70.9694 271.274 76.8854 264.49 76.9442 264.421C82.0213 258.765 86.4661 252.185 90.5449 244.289C91.93 241.613 93.3066 238.705 94.637 235.645C97.0294 230.134 96.6577 225.193 93.5895 221.732C91.4004 219.263 88.0234 217.857 84.6756 217.857C83.5842 217.857 82.4962 218.006 81.4527 218.317C80.8269 218.503 80.2263 218.746 79.6678 219.041C76.0392 220.941 72.3229 226.239 68.9183 234.363C67.5648 237.592 66.3022 241.174 65.165 245.01C64.3732 247.683 63.6841 250.36 63.1715 252.754C63.139 252.888 60.5035 263.904 65.7916 267.626Z" fill="#D8375D"/>
<path d="M42.0022 233.225H45.1296C43.1097 226.391 42.8378 216.387 42.7424 206.674C42.738 206.322 42.738 205.973 42.7412 205.628H34.1182V226.301C34.1182 226.316 34.1146 226.33 34.1138 226.345C37.1268 228.042 39.7769 230.351 42.0022 233.225Z" fill="#F7F5F6"/>
<path d="M46.0066 245.097C45.0796 241.442 43.3535 237.793 41.1405 234.776C40.8945 234.665 40.716 234.436 40.6734 234.161C38.4441 231.297 35.7728 229.027 32.7184 227.421C32.4643 227.286 32.2091 227.157 31.9501 227.031C28.5626 225.405 24.0471 224.974 19.8755 225.881C16.5658 226.595 12.1811 228.39 8.68188 232.808C10.6316 232.877 13.3227 234.362 17.0638 237.422C21.0658 240.697 23.7204 243.549 25.8949 245.965C26.2375 246.346 26.5739 246.723 26.9075 247.096C29.7545 250.284 32.4432 253.295 37.0723 256.581C39.1202 258.036 41.6632 258.234 43.55 257.081C45.3811 255.964 46.4627 253.721 46.6774 250.596C46.776 249.165 46.5313 247.16 46.0066 245.097Z" fill="#D8375D"/>
<path d="M163.864 320.603C163.979 319.821 164.417 317.179 165.618 312.905C166.716 308.998 167.186 306.186 167.363 304.929H176.387C176.649 306.034 177.25 308.554 178.094 312.052C179.069 316.094 179.45 319.699 179.536 320.603H163.864ZM160.035 320.603C159.979 320.164 159.591 317.391 158.203 312.465C156.825 307.558 156.455 304.362 156.423 304.067C156.415 303.42 156.336 294.384 158.057 285.324C159.039 280.14 159.353 275.481 159.606 271.739C159.819 268.589 160.003 265.869 160.515 263.963C160.748 263.101 160.951 262.341 161.131 261.665C161.312 262.341 161.515 263.101 161.748 263.963C162.26 265.868 162.443 268.588 162.655 271.736C162.906 275.48 163.22 280.139 164.202 285.324C165.922 294.386 165.844 303.424 165.836 304.067C165.804 304.364 165.438 307.546 164.056 312.465C162.67 317.394 162.28 320.167 162.224 320.603H160.035ZM142.996 320.603C143.12 319.144 143.448 316.195 144.25 312.875C145.114 309.297 145.683 306.239 145.914 304.929H154.896C155.073 306.186 155.543 308.999 156.641 312.905C157.845 317.181 158.281 319.823 158.396 320.603H142.996ZM141.366 320.603H74.8198L78.2058 285.067C78.2066 285.057 78.2074 285.046 78.2082 285.034L78.2346 284.748C78.2354 284.736 78.2334 284.724 78.2342 284.713C78.2342 284.699 78.2378 284.688 78.2378 284.674C78.2378 284.653 78.2338 284.632 78.2334 284.611C78.2322 284.597 78.2318 284.584 78.2301 284.571C78.0759 280.702 69.3332 278.509 60.3052 277.978C62.349 273.248 64.5609 270.398 65.4684 269.341C66.6636 270.033 67.8896 270.323 69.0946 270.323C72.8738 270.323 76.4412 267.5 78.164 265.492C83.2029 259.879 87.6331 253.36 91.6968 245.586C91.7143 245.587 91.7305 245.591 91.7484 245.591H139.861C137.91 251.033 137.015 257.265 136.976 257.543C136.943 257.776 137.013 258.011 137.167 258.189C137.321 258.366 137.544 258.468 137.779 258.468H144.037C144.208 259.823 144.542 263.254 144.419 268.845C144.379 270.737 144.328 272.152 144.284 273.401C144.152 277.142 144.091 278.849 144.588 285.071C145.215 292.93 144.472 303.357 144.424 304.02C144.37 304.347 143.757 307.999 142.672 312.495C141.823 316.011 141.487 319.136 141.366 320.603ZM38.4043 320.603L35.2577 287.58C38.9724 290.165 47.5483 291.504 55.7947 291.504C55.903 291.504 56.0158 291.504 56.0938 291.5C64.2135 291.471 72.6575 290.126 76.3365 287.573L73.1891 320.603H38.4043ZM45.7115 257.416C46.931 256.175 48.0625 254.118 48.2967 250.707C48.3933 249.303 48.2139 247.512 47.791 245.591H53.5439C53.4651 250.218 53.774 257.344 54.1003 264.864C54.289 269.208 54.4826 273.686 54.6096 277.863C54.5187 277.864 54.4282 277.865 54.3377 277.867C51.6092 266.914 46.1266 258.075 45.7115 257.416ZM43.5499 257.081C41.6632 258.233 39.1202 258.036 37.0723 256.581C32.4428 253.295 29.7541 250.284 26.9071 247.096C26.5735 246.722 26.2371 246.345 25.8945 245.965C23.7204 243.549 21.0654 240.697 17.0633 237.422C13.3223 234.362 10.6311 232.877 8.68146 232.808C12.1806 228.39 16.5654 226.595 19.8754 225.881C24.0467 224.974 28.5621 225.405 31.9501 227.031C32.2086 227.157 32.4639 227.286 32.7184 227.421C35.7728 229.027 38.4436 231.297 40.6733 234.161C40.7159 234.436 40.8945 234.665 41.1401 234.776C43.3531 237.793 45.0796 241.442 46.0061 245.097C46.5313 247.16 46.7756 249.165 46.6774 250.596C46.4623 253.721 45.3811 255.964 43.5499 257.081ZM20.4862 205.627H32.4952V225.497C29.0211 223.876 24.7046 223.382 20.4862 224.11V205.627ZM20.4862 178.558H32.4952V204.004H20.4862V178.558ZM20.4862 157.502H32.5021C32.5 157.526 32.4952 157.548 32.4952 157.571V176.934H20.4862V157.502ZM20.4862 140.457C21.8353 140.333 26.1701 140.188 39.2508 140.222C55.1514 140.257 75.8921 140.53 80.194 140.588V155.879H20.4862V140.457ZM20.4862 53.0787H72.9351L45.3296 110.327H39.2525C38.8044 110.327 38.4408 110.69 38.4408 111.139V138.597C26.8332 138.574 22.3235 138.677 20.4862 138.846V53.0787ZM75.1019 53.0787C75.0382 59.4951 74.5856 104.858 74.5402 110.327H47.1319L74.7374 53.0787H75.1019ZM76.7257 53.0787H76.9237L103.584 110.327H76.1636C76.2094 104.834 76.6652 59.125 76.7257 53.0787ZM136.886 53.0787C129.687 61.1611 120.052 72.0832 118.449 81.2054C115.299 99.1721 119.595 118.28 123.754 131.145C123.838 131.406 123.92 131.66 123.985 131.866C121.885 132.651 119.521 134.443 119.371 137.874C119.282 139.973 119.486 141.61 119.682 142.977C119.724 143.267 119.766 143.558 119.81 143.851C120.147 146.135 120.496 148.496 120.257 152.446C120.187 153.599 119.851 154.875 119.462 156.353C119.337 156.825 119.209 157.311 119.085 157.811C118.62 159.696 118.159 161.971 118.267 164.55C118.439 168.543 120.483 171.041 123.786 171.389V227.45C123.786 227.526 123.8 227.597 123.819 227.667C119.008 230.837 114.608 233.683 111.972 235.333V111.139C111.972 110.69 111.608 110.327 111.16 110.327H105.375L78.7143 53.0787H136.886ZM138.42 53.7971L139.165 52.9606C140.502 51.4586 141.691 50.1165 142.707 48.905C144.817 46.3917 147.504 45.6274 149.896 46.8608C153.093 48.5093 155.42 53.636 153.414 61.3734C152.032 66.7066 150.071 70.1684 147.996 73.8336C145.64 77.9935 142.969 82.7082 140.81 90.8787C140.711 91.252 140.89 91.6437 141.236 91.8145C141.3 91.8458 147.659 95.0227 153.485 101.929C154.853 103.557 156.1 105.277 157.189 107.039C159.181 110.276 160.707 113.753 161.726 117.373C161.733 117.4 161.746 117.423 161.755 117.448C161.784 118.76 162.17 120.024 163.698 119.413C167.763 117.787 181.436 110.869 185.121 108.996L190.472 109.336C190.489 109.336 190.506 109.337 190.523 109.337C190.79 109.337 191.056 109.321 191.319 109.293L187.423 131.382H125.535C125.475 131.194 125.398 130.955 125.298 130.645C117.866 107.653 118.341 91.2216 120.048 81.4862C121.595 72.6822 131.32 61.7671 138.42 53.7971ZM139.354 50.2999V12.75C139.354 10.3198 141.71 8.34255 144.606 8.34255C144.64 8.34255 144.675 8.34012 144.709 8.33565L185.58 3.05846L190.573 2.41357C193.446 2.4363 195.774 4.40465 195.774 6.82064V103.302C195.774 105.259 194.214 107 191.975 107.539C191.515 107.653 191.035 107.712 190.548 107.713L158.451 105.678C158.383 105.672 158.317 105.679 158.252 105.691C157.197 104.035 156.017 102.419 154.727 100.883C154.725 100.881 154.723 100.879 154.72 100.876C149.649 94.8673 144.31 91.64 142.546 90.6705C144.617 83.0929 147.052 78.7942 149.408 74.6335C151.538 70.873 153.549 67.3206 154.985 61.7809C157.217 53.1762 154.411 47.362 150.64 45.4176C147.572 43.8361 144.056 44.7727 141.463 47.8616C140.831 48.6153 140.121 49.431 139.354 50.2999ZM198.794 17.539C198.794 17.0909 199.157 16.7273 199.605 16.7273C200.054 16.7273 200.417 17.0909 200.417 17.539V32.0723C200.417 32.5203 200.054 32.8839 199.605 32.8839C199.157 32.8839 198.794 32.5203 198.794 32.0723V17.539ZM201.043 53.7687C202.086 50.972 203.537 48.6981 203.552 48.6757C203.556 48.668 203.558 48.6591 203.563 48.6514C203.589 48.6072 203.612 48.5605 203.629 48.5114C203.636 48.4935 203.641 48.4761 203.646 48.4578C203.658 48.4144 203.666 48.3697 203.672 48.3235C203.673 48.3109 203.678 48.2987 203.679 48.2861L203.844 45.5629C205.776 46.2277 210.1 48.1717 210.728 52.3957C210.741 52.4822 210.752 52.5686 210.763 52.6599C210.995 54.778 209.986 57.3799 208.064 59.6201C206.405 61.556 204.405 62.7882 202.843 62.8356C202.45 62.8515 202.096 62.7845 201.788 62.6465C201.4 62.4728 201.074 62.1871 200.793 61.7752C199.335 59.623 200.124 56.2334 201.043 53.7687ZM203.68 28.4651C203.742 28.4351 203.802 28.4002 203.856 28.3531C203.881 28.3324 206.329 26.2679 209.327 26.9542C210.371 27.1936 211.211 27.9724 211.691 29.1465C212.475 31.0609 212.159 33.5865 210.886 35.58C209.106 38.3628 205.448 40.9964 203.68 42.1693V28.4651ZM208.082 81.7991C206.915 84.3856 204.299 86.2528 203.203 85.7642C202.991 85.6684 202.826 85.4753 202.701 85.1741C201.907 83.261 202.5 78.6368 202.886 76.4761L203.082 76.4229C203.082 76.4229 203.083 76.4225 203.083 76.4225L206.881 75.3807C207.585 76.4627 209.187 79.3494 208.082 81.7991ZM202.844 74.6214C201.965 74.6494 201.282 74.3235 200.778 73.6291C199.004 71.1802 200.559 66.998 201.866 64.3681C202.148 64.4286 202.44 64.4606 202.744 64.4606C202.794 64.4606 202.843 64.4598 202.893 64.4582C204.74 64.4022 206.883 63.2277 208.743 61.2849C209.915 62.4075 210.595 63.7066 210.763 65.1567C210.979 67.0158 210.067 69.3271 208.325 71.3397C206.639 73.2869 204.488 74.5751 202.844 74.6214ZM212.411 53.0787H300.949V137.255H280.774V126.321C280.774 125.873 280.411 125.51 279.963 125.51H266.716V116.175C279.997 114.43 289.918 103.179 289.918 89.6778C289.918 74.9351 277.924 62.9408 263.181 62.9408C248.438 62.9408 236.444 74.9351 236.444 89.6778C236.444 102.872 246.123 114.099 259.074 116.094V125.51H246.16C245.712 125.51 245.348 125.873 245.348 126.321V136.683H233.002L232.974 114.518C232.973 114.071 232.61 113.708 232.162 113.708H222.913C222.465 113.708 222.101 114.071 222.101 114.519V143.375H210.673C207.831 143.375 205.519 145.687 205.519 148.529V155.656C205.519 157.282 206.278 158.733 207.458 159.678H206.144C203.109 159.678 200.868 160.545 199.484 162.256C197.576 164.613 198.009 167.733 198.121 168.363C198.054 170.073 197.309 189.377 197.861 192.377C197.896 192.573 197.949 192.778 198.037 193.055C198.379 194.065 199.038 195.085 199.799 196.266C201.353 198.672 203.285 201.666 203.116 205.805C202.974 209.283 201.552 211.82 200.045 214.506C199.09 216.211 198.102 217.973 197.503 219.958C197.281 220.678 197.124 221.38 197.024 222.104L196.974 222.461C196.803 223.694 196.709 224.377 196.67 226.26C193.519 224.207 191.061 222.593 188.989 221.219V171.389C192.291 171.041 194.336 168.543 194.507 164.549C194.616 161.94 194.146 159.647 193.672 157.749C193.554 157.271 193.432 156.807 193.313 156.355C192.924 154.876 192.588 153.599 192.518 152.445C192.279 148.491 192.629 146.127 192.968 143.84L193.08 143.076C193.293 141.589 193.494 139.962 193.403 137.873C193.258 134.542 191.026 132.757 188.974 131.937L192.958 109.346C197.099 109.23 200.118 108.122 201.935 106.044C203.886 103.814 203.725 101.255 203.68 100.813V87.4554C205.827 87.3892 208.403 85.0357 209.562 82.4667C211.25 78.7224 208.334 74.5848 207.909 74.013C208.482 73.5382 209.035 72.9988 209.552 72.4026C211.618 70.0171 212.647 67.3076 212.376 64.9696C212.159 63.1027 211.292 61.4521 209.801 60.052C211.516 57.8251 212.461 55.3085 212.411 53.0787ZM265.092 116.339V125.51H260.697V116.3C261.516 116.376 262.348 116.415 263.181 116.415C263.829 116.415 264.466 116.384 265.092 116.339ZM259.993 114.591C259.992 114.591 259.992 114.591 259.991 114.591C247.493 113.009 238.067 102.299 238.067 89.6778C238.067 75.83 249.333 64.5641 263.181 64.5641C277.029 64.5641 288.295 75.83 288.295 89.6778C288.295 102.606 278.612 113.345 265.769 114.658C263.923 114.854 261.888 114.833 259.993 114.591ZM300.949 243.967H256.806C256.957 240.73 257.509 227.511 256.765 222.104C256.663 221.362 256.492 220.605 256.257 219.855C255.653 217.912 254.683 216.184 253.746 214.512C252.238 211.825 250.814 209.287 250.672 205.805C250.502 201.666 252.433 198.672 253.984 196.266C254.669 195.205 255.271 194.271 255.627 193.374C255.817 193.226 255.941 192.997 255.941 192.738C255.941 192.655 255.924 192.576 255.901 192.5C255.909 192.461 255.921 192.42 255.927 192.381C256.476 189.377 255.731 170.073 255.664 168.363C255.776 167.733 256.209 164.613 254.301 162.256C252.916 160.545 250.676 159.678 247.641 159.678H246.514C247.694 158.733 248.453 157.282 248.453 155.656V148.529C248.453 145.687 246.141 143.375 243.299 143.375H232.983C233 143.31 233.011 143.244 233.011 143.175L233.004 138.306H246.16C246.608 138.306 246.972 137.943 246.972 137.494V127.133H279.151V138.067C279.151 138.515 279.515 138.878 279.963 138.878H300.949V243.967ZM204.565 203.092C207.164 201.695 220.085 195.025 232.519 193.549H253.746C253.441 194.111 253.049 194.721 252.62 195.387C251.033 197.848 248.859 201.22 249.05 205.871C249.208 209.741 250.795 212.571 252.33 215.306C253.098 216.675 253.827 217.984 254.372 219.39H199.418C199.962 217.982 200.693 216.671 201.461 215.3C202.994 212.565 204.58 209.738 204.739 205.871C204.779 204.888 204.709 203.965 204.565 203.092ZM229.991 160.828C229.989 160.822 229.988 160.816 229.986 160.81C229.988 160.816 229.989 160.822 229.991 160.828ZM231.38 137.822L231.387 143.177C231.387 143.246 231.399 143.311 231.414 143.375H223.725V115.331H231.351L231.379 137.168C231.336 137.268 231.31 137.378 231.31 137.494C231.31 137.611 231.336 137.722 231.38 137.822ZM199.73 168.135C199.724 168.106 199.152 165.236 200.753 163.268C201.815 161.963 203.629 161.301 206.144 161.301L223.086 161.301C223.121 161.3 226.508 161.188 228.741 161.188C229.829 161.188 230.246 161.215 230.398 161.231C230.5 161.276 230.612 161.301 230.73 161.301H247.641C250.156 161.301 251.97 161.963 253.032 163.268C254.633 165.236 254.061 168.106 254.055 168.133C254.041 168.199 254.035 168.267 254.038 168.334C254.319 175.383 254.736 189.16 254.354 191.926H199.434C199.049 189.191 199.466 175.391 199.747 168.334C199.75 168.268 199.743 168.2 199.73 168.135ZM255.18 243.967H227.955C226.582 240.185 215.159 237.247 212.832 236.685C212.815 236.681 212.798 236.681 212.782 236.678C212.334 236.387 211.426 235.802 210.175 234.996C207.39 233.203 202.888 230.304 198.204 227.258C198.252 227.157 198.281 227.044 198.282 226.924C198.312 224.634 198.396 224.023 198.582 222.684L198.632 222.326C198.693 221.885 198.788 221.45 198.901 221.013H254.896C255.008 221.454 255.097 221.893 255.157 222.325C255.878 227.563 255.321 240.914 255.18 243.967ZM211.347 243.967C211.287 243.858 211.205 243.759 211.095 243.683L208.815 242.124C210.913 241.205 212.515 239.48 213.153 238.438C218.078 239.694 224.533 242.008 226.119 243.967H211.347ZM198.593 243.967C198.58 243.064 198.552 241.4 198.52 240.058C201.767 241.592 203.866 242.439 204.911 242.638C204.911 242.638 204.912 242.638 204.912 242.638C205.526 242.755 206.152 242.773 206.778 242.697L208.635 243.967H198.593ZM146.202 170.107C146.284 170.205 146.348 170.329 146.374 170.477C146.349 170.338 146.288 170.211 146.202 170.107ZM164.464 211.869L158.955 211.87L159.095 208.896C160.17 208.605 161.149 207.831 161.926 206.642C162.511 207.494 163.334 208.397 164.217 209.002C164.214 209.044 164.211 209.086 164.215 209.13L164.464 211.869ZM172.433 200.799C174.081 200.612 175.122 199.875 175.536 198.599C175.716 198.045 175.782 197.164 175.068 196.109C174.427 195.163 173.312 194.312 172.166 193.722C173.323 193.509 174.697 193.034 174.912 191.19C175.038 190.131 174.644 189.187 173.802 188.531C172.948 187.866 171.692 187.548 170.497 187.519C171.241 186.46 171.792 185.277 171.554 184.202C171.435 183.667 171.062 182.933 169.965 182.479C167.899 181.62 165.602 182.964 164.078 184.375C163.814 182.561 163.093 180.595 160.83 180.407C159.458 180.293 158.185 180.984 157.431 182.26C157.055 182.896 156.853 183.599 156.823 184.293C154.873 183.375 152.475 183.236 151.087 184.15C150.177 184.749 149.693 185.677 149.722 186.761C149.753 187.911 150.384 189.199 151.35 190.233C149.587 190.697 147.823 191.711 146.721 192.972C145.867 193.948 145.483 194.992 145.61 195.99C145.759 197.154 146.222 198.017 146.987 198.554C147.846 199.158 148.975 199.265 150.145 199.16C149.129 200.708 147.899 203.054 148.264 204.903C148.436 205.776 148.949 206.459 149.748 206.877C151.542 207.821 153.304 206.618 154.733 205.355C154.759 206.199 154.998 206.972 155.448 207.61C155.949 208.323 156.661 208.792 157.467 208.961L157.33 211.87H151.888C151.668 211.86 146.434 211.738 142.13 215.18C140.064 216.832 132.044 222.232 125.409 226.618V171.435H145.575V171.429C146.144 171.502 147.377 171.529 150.323 171.529C151.857 171.529 153.856 171.521 156.465 171.509C161.848 171.484 167.207 171.435 167.199 171.435H187.365V220.14C183.501 217.562 181.153 215.934 180.214 215.18C175.911 211.738 170.674 211.865 170.478 211.869H166.094L165.896 209.688C165.978 209.696 166.059 209.703 166.136 209.703C166.516 209.703 166.822 209.609 167.052 209.498C168.356 208.86 168.817 207.601 168.751 206.293C169.963 207.042 171.746 207.86 172.965 206.053C174.064 204.423 173.421 202.297 172.433 200.799ZM191.83 159.02C191.995 159.02 192.148 158.97 192.276 158.886C192.652 160.515 192.972 162.403 192.886 164.481C192.696 168.887 190.221 169.812 188.177 169.812H167.191C159.179 169.885 147.014 169.953 145.795 169.842C145.726 169.823 145.652 169.812 145.575 169.812H124.597C122.554 169.812 120.078 168.887 119.889 164.481C119.804 162.449 120.11 160.595 120.474 158.991C120.541 159.008 120.609 159.02 120.681 159.02H191.83ZM120.993 137.944C121.176 133.742 125.604 133.066 126.083 133.006H186.693C187.179 133.065 191.598 133.721 191.782 137.944C191.85 139.53 191.736 140.844 191.582 142.04C191.531 142.03 191.478 142.024 191.424 142.024H121.191C121.017 140.672 120.929 139.447 120.993 137.944ZM121.031 156.767C121.426 155.27 121.798 153.857 121.877 152.543C122.125 148.445 121.752 145.894 121.42 143.647H191.355C191.022 145.895 190.65 148.448 190.898 152.543C190.977 153.858 191.349 155.271 191.743 156.768C191.797 156.974 191.852 157.193 191.907 157.405C191.881 157.403 191.856 157.397 191.83 157.397H120.869C120.923 157.188 120.978 156.971 121.031 156.767ZM104.618 240.791C106.718 240.133 108.432 239.596 109.464 238.873C110.259 239.929 111.864 241.418 113.802 242.201L112.014 243.849C111.974 243.886 111.94 243.926 111.909 243.967H97.0077C99.1128 242.516 102.129 241.571 104.618 240.791ZM63.1713 252.754C63.6835 250.36 64.373 247.683 65.1644 245.01C66.3016 241.174 67.5645 237.592 68.9176 234.363C72.3223 226.239 76.039 220.941 79.6672 219.041C80.2261 218.746 80.8263 218.503 81.4525 218.317C82.496 218.006 83.5836 217.857 84.6753 217.857C88.0227 217.857 91.3998 219.263 93.5889 221.732C96.6571 225.193 97.0292 230.134 94.6364 235.645C93.306 238.705 91.9298 241.613 90.5443 244.289C86.4655 252.185 82.0211 258.765 76.944 264.421C76.8848 264.49 70.9688 271.274 65.7914 267.626L65.791 267.626C60.5033 263.904 63.1384 252.888 63.1713 252.754ZM55.1676 245.591H63.3048C62.6287 247.953 62.0386 250.289 61.5893 252.39C61.472 252.866 58.8917 263.655 64.149 268.381C63.0674 269.651 60.7147 272.765 58.5775 277.9C57.7955 277.873 57.0122 277.856 56.233 277.852C56.106 273.653 55.9116 269.156 55.722 264.794C55.3961 257.28 55.0873 250.163 55.1676 245.591ZM80.194 178.558V204.004H70.6932C70.6583 204.004 70.625 204.01 70.5913 204.015C70.653 202.651 70.6924 201.338 70.7054 200.108C70.7602 194.801 69.0589 189.999 66.0378 186.935C63.9716 184.839 61.4136 183.644 58.5999 183.442C58.6051 183.405 58.6112 183.368 58.6112 183.33V178.558H80.194ZM80.194 176.934H58.6112V157.502H80.194V176.934ZM66.9643 234.848C65.8271 237.669 64.7598 240.733 63.7809 243.978C63.7452 243.974 63.7094 243.967 63.6721 243.967H55.2192C55.2602 243.121 55.3186 242.449 55.3961 241.941C59.2991 241.674 62.2646 239.62 64.4436 235.675C64.4436 235.675 64.444 235.674 64.444 235.674C64.5913 235.407 64.7338 235.129 64.8734 234.848H66.9643ZM65.6043 233.225C66.2882 231.559 66.903 229.618 67.5073 227.208C68.9055 221.616 70.067 213.221 70.5081 205.604C70.5678 205.618 70.6295 205.627 70.6932 205.627H80.194V216.756C80.194 216.847 80.2127 216.933 80.2403 217.015C79.7813 217.185 79.3356 217.38 78.9124 217.603C74.9716 219.667 71.181 224.927 67.6404 233.225H65.6043ZM106.444 238.491L81.8174 171.406V139.787C81.8174 139.343 81.4611 138.982 81.0171 138.976C80.7829 138.972 57.7184 138.648 40.0642 138.6V111.95H110.348V236.331C109.86 236.622 109.652 236.732 109.574 236.771C109.36 236.819 109.171 236.945 109.046 237.127C109.029 237.152 109.013 237.18 108.997 237.21C108.911 237.247 108.83 237.297 108.758 237.364C108.354 237.748 107.5 238.118 106.444 238.491ZM52.8933 240.252C50.2995 239.937 48.3714 237.815 46.9976 233.763C44.7496 227.158 44.4651 216.751 44.3661 206.656C44.358 206.039 44.362 205.43 44.3783 204.843C44.5719 196.36 46.7951 191.739 48.6258 189.357C50.5775 186.818 52.5049 186.226 52.5187 186.223C52.5556 186.212 52.5917 186.199 52.6271 186.184C54.3669 185.418 56.0844 185.031 57.7334 185.031H57.7841C60.4749 185.042 62.9294 186.094 64.8815 188.075C67.6011 190.834 69.1323 195.213 69.082 200.091C69.0666 201.535 69.0167 203.093 68.9331 204.721C68.5341 212.447 67.3564 221.119 65.9326 226.814C65.2232 229.643 64.5069 231.797 63.6778 233.591C63.4716 234.039 63.2512 234.476 63.0228 234.89C60.9866 238.575 58.321 240.309 54.625 240.347C54.093 240.362 53.5244 240.327 52.8933 240.252ZM45.6636 234.848C47.2391 239.125 49.6023 241.488 52.6989 241.863C53.0698 241.908 53.4176 241.934 53.7557 241.952C53.6855 242.492 53.6319 243.163 53.5942 243.967H47.3742C46.4761 240.771 45.0223 237.603 43.1786 234.848H45.6636ZM34.1185 226.301V205.627H42.7415C42.7383 205.973 42.7383 206.322 42.7427 206.674C42.8377 216.387 43.11 226.391 45.1299 233.225H42.0025C39.7772 230.351 37.1267 228.041 34.1141 226.345C34.1149 226.33 34.1185 226.316 34.1185 226.301ZM56.9878 176.934H34.1185V157.571C34.1185 157.548 34.1137 157.526 34.1116 157.502H56.9878V176.934ZM56.998 183.43C55.373 183.525 53.6969 183.946 52.0191 184.678C51.1701 184.945 43.4034 187.847 42.7853 204.004H34.1185V178.558H56.9878V183.33C56.9878 183.364 56.9939 183.397 56.998 183.43ZM123.786 240.101V243.967H114.281L115.662 242.694C116.289 242.771 116.907 242.754 117.505 242.638C118.542 242.441 120.605 241.608 123.786 240.101ZM140.486 243.967H125.409V239.321C132.753 235.757 142.83 230.304 145.798 228.688C146.157 229.799 146.731 231.698 146.944 233.068C147.085 233.984 146.721 234.493 145.438 236.121C144.616 237.161 143.492 238.587 142.12 240.746C141.556 241.628 141.007 242.711 140.486 243.967ZM197.922 237.972C195.355 236.731 192.233 235.153 188.633 233.28C182.286 229.978 176.526 226.83 176.468 226.798C176.259 226.683 176.01 226.667 175.788 226.753C175.66 226.802 175.551 226.884 175.464 226.986C172.66 228.743 168.168 233.249 165.99 234.29C164.149 235.17 172.145 235.978 176.35 238.048C177.045 238.951 177.887 240.098 178.856 241.618C179.465 242.579 180.054 243.785 180.607 245.204C182.278 249.491 183.262 254.742 183.614 256.84L162.228 256.731H162.227L161.394 256.725C161.388 256.725 161.381 256.723 161.375 256.723H160.884C160.878 256.723 160.872 256.725 160.866 256.725L160.705 256.726L160.273 256.723H160.267C160.243 256.723 160.222 256.728 160.199 256.73L144.734 256.845H138.729C139.08 254.746 140.067 249.472 141.75 245.175C142.305 243.751 142.89 242.554 143.489 241.619C144.818 239.528 145.913 238.14 146.712 237.126C148.016 235.473 148.803 234.476 148.549 232.82C148.209 230.633 147.076 227.38 147.028 227.243C146.949 227.017 146.775 226.838 146.552 226.753C146.33 226.668 146.08 226.685 145.871 226.799C145.741 226.87 132.79 233.968 124.159 238.123C119.648 240.301 117.886 240.914 117.199 241.044C116.631 241.154 116.033 241.143 115.417 241.01C113.284 240.565 111.493 238.856 110.793 237.953C111.01 237.827 111.283 237.665 111.631 237.453C114.075 235.963 119.462 232.487 125.357 228.598C132.181 224.097 140.935 218.214 143.144 216.448C146.968 213.389 151.79 213.492 151.862 213.493H158.106L165.348 213.492C165.349 213.492 165.35 213.493 165.351 213.493C165.353 213.493 165.356 213.492 165.358 213.492H170.504C170.552 213.49 175.358 213.374 179.198 216.447C180.271 217.308 182.921 219.138 187.52 222.193C187.634 222.35 187.802 222.465 187.997 222.509C190.138 223.931 192.687 225.603 195.993 227.756C201.145 231.112 206.248 234.398 209.296 236.362C210.317 237.019 211.114 237.532 211.608 237.852C210.932 238.77 209.123 240.58 206.998 241.018C206.398 241.146 205.798 241.155 205.216 241.043H205.215C204.524 240.912 202.731 240.288 198.131 238.073C198.068 238.03 197.997 237.997 197.922 237.972ZM188.984 243.967C188.985 243.952 188.989 243.938 188.989 243.923V235.293C191.987 236.845 194.631 238.178 196.875 239.269C196.916 240.654 196.953 242.86 196.97 243.967H188.984ZM181.858 243.967C181.343 242.726 180.795 241.644 180.225 240.747C178.853 238.591 177.729 237.166 176.909 236.127C175.623 234.496 175.259 233.985 175.4 233.068C175.61 231.699 176.185 229.798 176.543 228.687C178.318 229.651 182.639 231.985 187.365 234.45V243.923C187.365 243.938 187.369 243.952 187.37 243.967H181.858ZM303.599 320.603H181.166C181.111 319.968 180.749 316.133 179.672 311.671C178.612 307.277 177.935 304.422 177.833 303.993C177.77 303.125 177.051 292.843 177.671 285.071C178.17 278.858 178.105 277.039 177.976 273.416C177.931 272.164 177.881 270.744 177.84 268.844C177.716 263.205 178.059 259.765 178.23 258.436L184.561 258.468H184.565C184.799 258.468 185.022 258.367 185.177 258.191C185.332 258.013 185.402 257.776 185.368 257.543C185.329 257.265 184.431 251.033 182.483 245.591H301.761C302.209 245.591 302.572 245.227 302.572 244.779V52.2671C302.572 51.819 302.209 51.4554 301.761 51.4554H212.195C211.621 49.0264 209.975 46.9464 207.39 45.4091C206.048 44.6116 204.765 44.1412 203.998 43.9014C205.502 42.9485 210.06 39.8852 212.254 36.4537C213.826 33.9915 214.186 30.9562 213.194 28.5317C212.507 26.8551 211.263 25.7326 209.69 25.3722C207.077 24.7711 204.852 25.7784 203.68 26.498V11.9464C203.68 8.25002 203.288 4.18184 200.375 2.03168C197.792 0.128672 191.187 0.720799 190.443 0.793851C190.44 0.794257 190.437 0.795474 190.434 0.79588C190.429 0.796286 190.424 0.796286 190.419 0.796692L144.552 6.71917C140.785 6.74434 137.731 9.44036 137.731 12.75V51.4554H19.6745C19.2265 51.4554 18.8629 51.819 18.8629 52.2671V224.457C13.1538 225.879 8.39534 229.518 5.42375 234.752C5.35962 234.828 5.31011 234.914 5.27724 235.007C5.27399 235.013 5.27034 235.02 5.26669 235.026L5.23787 235.078C2.20743 240.588 -0.813675 248.088 2.00167 252.528C3.53413 254.944 6.51872 256.036 10.8698 255.76C18.8142 255.264 23.8012 249.722 25.3255 247.763C25.4497 247.901 25.5731 248.039 25.6965 248.177C28.606 251.435 31.3539 254.513 36.1319 257.904C37.5727 258.928 39.2212 259.448 40.8219 259.448C42.0849 259.448 43.3182 259.125 44.3953 258.467C44.4091 258.459 44.4233 258.449 44.4371 258.44C45.2403 259.739 50.1112 267.87 52.6762 277.91C43.2659 278.29 33.5309 280.485 33.3637 284.568C33.3616 284.583 33.3612 284.599 33.36 284.614C33.3596 284.634 33.3556 284.653 33.3556 284.674C33.3556 284.688 33.3592 284.699 33.3592 284.713C33.3596 284.724 33.358 284.736 33.3588 284.748L33.3848 285.03C33.3856 285.043 33.3864 285.055 33.3876 285.067L36.7736 320.603H25.1413C24.6932 320.603 24.3296 320.967 24.3296 321.415C24.3296 321.863 24.6932 322.226 25.1413 322.226H142C142.04 322.233 142.08 322.238 142.122 322.238C142.162 322.238 142.201 322.232 142.24 322.226H303.599C304.047 322.226 304.411 321.863 304.411 321.415C304.411 320.967 304.047 320.603 303.599 320.603Z" fill="#700051"/>
<path d="M266.344 101.074L262.78 107.954L259.215 101.074C259.071 100.797 258.788 100.636 258.493 100.636C258.389 100.636 258.284 100.656 258.182 100.698L251.032 103.679L252.723 96.1168C252.816 95.7049 252.577 95.2914 252.174 95.1651L244.778 92.8494L250.935 88.1473C251.27 87.8912 251.353 87.4204 251.126 87.0649L246.95 80.5361L254.691 80.8904C255.099 80.8949 255.478 80.6022 255.532 80.1834L256.528 72.5008L262.23 77.7463C262.54 78.0328 263.019 78.0328 263.329 77.7463L269.031 72.5008L270.027 80.1834C270.081 80.6022 270.449 80.9009 270.868 80.8904L278.609 80.5361L274.433 87.0649C274.206 87.4204 274.289 87.8912 274.624 88.1473L280.782 92.8494L273.385 95.1651C272.982 95.2914 272.743 95.7049 272.836 96.1173L274.53 103.679L267.377 100.698C266.987 100.536 266.539 100.699 266.344 101.074ZM275.353 105.78C275.633 105.897 275.954 105.847 276.187 105.653C276.42 105.458 276.524 105.149 276.457 104.853L274.583 96.491L282.762 93.9302C283.052 93.8401 283.267 93.5953 283.319 93.2966C283.372 92.9983 283.254 92.6948 283.012 92.5105L276.203 87.3104L280.821 80.0905C280.984 79.8352 280.992 79.5097 280.84 79.2475C280.689 78.9841 280.398 78.836 280.101 78.8425L271.54 79.2341L270.439 70.7382C270.4 70.4375 270.197 70.1834 269.912 70.0795C269.626 69.9756 269.308 70.0393 269.085 70.2451L262.78 76.0462L256.474 70.2451C256.252 70.0397 255.933 69.9748 255.647 70.0799C255.362 70.1834 255.159 70.4375 255.12 70.7382L254.019 79.2341L245.459 78.8425C245.157 78.8364 244.87 78.9841 244.719 79.2475C244.567 79.5097 244.575 79.8352 244.738 80.0905L249.356 87.3104L242.547 92.5105C242.306 92.6948 242.187 92.9983 242.24 93.2966C242.293 93.5953 242.508 93.8401 242.797 93.9302L250.976 96.4914L249.106 104.853C249.04 105.15 249.144 105.458 249.377 105.653C249.609 105.848 249.931 105.897 250.211 105.78L258.117 102.484L262.059 110.092C262.198 110.361 262.476 110.53 262.78 110.53C263.083 110.53 263.361 110.361 263.5 110.092L267.442 102.484L275.353 105.78Z" fill="#700051"/>
<path d="M272.227 168.671C272.675 168.671 273.039 168.307 273.039 167.859V149.527C273.039 149.079 272.675 148.716 272.227 148.716H262.775C262.327 148.716 261.963 149.079 261.963 149.527V167.859C261.963 168.307 262.327 168.671 262.775 168.671H272.227Z" fill="#700051"/>
<path d="M272.954 211.525H263.498C263.049 211.525 262.686 211.888 262.686 212.336V230.672C262.686 231.12 263.049 231.484 263.498 231.484H272.954C273.402 231.484 273.766 231.12 273.766 230.672V212.336C273.766 211.888 273.402 211.525 272.954 211.525Z" fill="#700051"/>
<path d="M284.212 180.473H292.045V197.182H284.212V180.473ZM283.401 198.805H292.857C293.305 198.805 293.669 198.442 293.669 197.993V179.661C293.669 179.213 293.305 178.85 292.857 178.85H283.401C282.953 178.85 282.589 179.213 282.589 179.661V197.993C282.589 198.442 282.953 198.805 283.401 198.805Z" fill="#700051"/>
<path d="M216.509 182.426C217.405 182.426 218.133 183.154 218.133 184.049C218.133 184.944 217.405 185.672 216.509 185.672C215.614 185.672 214.886 184.944 214.886 184.049C214.886 183.154 215.614 182.426 216.509 182.426ZM216.509 187.296C218.3 187.296 219.756 185.839 219.756 184.049C219.756 182.259 218.3 180.802 216.509 180.802C214.719 180.802 213.263 182.259 213.263 184.049C213.263 185.839 214.719 187.296 216.509 187.296Z" fill="#700051"/>
<path d="M232.122 168.388C234.676 168.388 236.753 170.465 236.753 173.018C236.753 175.571 234.676 177.648 232.122 177.648C229.569 177.648 227.492 175.571 227.492 173.018C227.492 170.465 229.569 168.388 232.122 168.388ZM232.122 179.272C235.571 179.272 238.376 176.466 238.376 173.018C238.376 169.569 235.571 166.764 232.122 166.764C228.674 166.764 225.868 169.569 225.868 173.018C225.868 176.466 228.674 179.272 232.122 179.272Z" fill="#700051"/>
<path d="M95.474 120.721H52.7873C52.3388 120.721 51.9756 121.085 51.9756 121.533V130.542C51.9756 130.991 52.3388 131.354 52.7873 131.354H95.474C95.922 131.354 96.2856 130.991 96.2856 130.542V121.533C96.2856 121.085 95.922 120.721 95.474 120.721Z" fill="#700051"/>
<path d="M199.606 32.8838C200.054 32.8838 200.417 32.5202 200.417 32.0721V17.5389C200.417 17.0908 200.054 16.7272 199.606 16.7272C199.158 16.7272 198.794 17.0908 198.794 17.5389V32.0721C198.794 32.5202 199.158 32.8838 199.606 32.8838Z" fill="white"/>
<path d="M164.992 7.88794C163.438 7.88794 162.175 9.15336 162.175 10.7086C162.175 12.2617 163.438 13.5255 164.992 13.5255C166.545 13.5255 167.808 12.2617 167.808 10.7086C167.808 9.15336 166.545 7.88794 164.992 7.88794Z" fill="#700051"/>
</svg>
