<svg width="375" height="376" viewBox="0 0 375 376" fill="none" xmlns="http://www.w3.org/2000/svg">
<path d="M318.843 161.599C314.762 149.368 308.514 138.129 300.259 128.164L229.76 191.172L318.843 161.599Z" fill="#F6F5F6"/>
<path d="M299.036 126.713C290.839 117.16 281.118 109.258 270.117 103.204L228.628 189.639L299.036 126.713Z" fill="#FF874E"/>
<path d="M226.138 190.445L268.446 102.303C266.004 101.014 263.469 99.7982 260.885 98.6932C249.852 93.9702 238.167 91.2215 226.138 90.5064L226.138 190.445Z" fill="#FF4237"/>
<path d="M126.73 147.568C119.439 161.962 115.674 177.478 115.532 193.701L223.677 193.701L155.987 112.159C143.793 121.619 133.685 133.84 126.73 147.568Z" fill="#FFB0A8"/>
<path d="M224.242 90.4123C222.79 90.3528 221.323 90.3158 219.861 90.316C197.155 90.3157 175.614 97.4704 157.494 111.008L224.242 191.413L224.242 90.4123Z" fill="#D8375D"/>
<path d="M205.827 247.347C209.803 247.347 213.037 244.113 213.037 240.137C213.037 236.161 209.803 232.927 205.827 232.927C201.854 232.927 198.621 236.161 198.621 240.137C198.621 244.113 201.854 247.347 205.827 247.347Z" fill="#FF4237"/>
<path d="M66.7338 138.847C66.7959 138.785 66.8665 138.732 66.9433 138.689L90.5289 125.583C90.8234 125.419 91.1803 125.424 91.471 125.595C91.7601 125.765 91.9379 126.076 91.9379 126.412V180.407C91.9379 180.752 91.7497 181.071 91.4463 181.238L67.8607 194.198C67.7184 194.276 67.561 194.315 67.4041 194.315C67.2391 194.315 67.0746 194.273 66.9272 194.187C66.6399 194.02 66.4612 193.714 66.4559 193.381C66.454 193.245 66.2568 179.638 66.1559 166.268V166.268C65.971 139.61 66.2905 139.29 66.7338 138.847ZM58.3899 221.239L67.5406 229.578L92.6306 215.75C92.9245 215.589 93.2819 215.593 93.5707 215.764C93.8594 215.935 94.0367 216.245 94.0367 216.58V325.194H102.102V67.053L58.3899 97.5517V221.239Z" fill="#F6F5F6"/>
<path d="M79.3589 185.716L81.4799 184.551C82.6173 180.225 89.6527 158.092 90.0414 156.869V154.996L79.3589 160.96V185.716Z" fill="#FF874E"/>
<path d="M79.3589 158.789L90.0054 152.846C90.0172 152.839 90.0295 152.836 90.0414 152.83V128.024L79.3096 133.987C79.339 134.079 79.3589 134.175 79.3589 134.276V158.789Z" fill="#FF874E"/>
<path d="M77.4628 162.019L68.3884 167.085C68.2836 167.143 68.1717 167.172 68.0598 167.188C68.1414 177.58 68.2774 187.922 68.33 191.777L77.6093 186.678C77.5178 186.532 77.4628 186.361 77.4628 186.176V162.019Z" fill="#FF874E"/>
<path d="M77.4626 159.847V135.013L68.2322 140.142C68.0919 141.385 67.9236 146.519 68.0445 165.105L77.4626 159.847Z" fill="#FF874E"/>
<path d="M52.1653 276.911C50.2315 276.911 48.677 274.95 48.3731 272.302H46.9855C46.4621 272.302 46.0373 271.878 46.0373 271.354C46.0373 270.831 46.4621 270.406 46.9855 270.406H48.3731C48.677 267.758 50.2315 265.797 52.1653 265.797C54.3243 265.797 56.0149 268.238 56.0149 271.354C56.0149 274.471 54.3243 276.911 52.1653 276.911ZM56.5473 222.126L44.7615 211.386V325.093C44.7615 325.127 44.7597 325.161 44.7559 325.194H66.4556V231.155L57.2257 222.744C56.9057 222.669 56.6516 222.433 56.5473 222.126Z" fill="#FF4237"/>
<path d="M68.2322 140.142L77.4626 135.013V159.847L68.0444 165.104C67.9235 146.519 68.0914 141.385 68.2322 140.142ZM68.3298 191.776C68.2767 187.922 68.1407 177.58 68.0591 167.188C68.1715 167.172 68.2834 167.143 68.3881 167.085L77.4626 162.019V186.176C77.4626 186.361 77.5176 186.532 77.6091 186.678L68.3298 191.776ZM90.0414 128.024V152.829C90.0296 152.836 90.0168 152.838 90.0054 152.845L79.3589 158.788V134.275C79.3589 134.174 79.3385 134.078 79.3091 133.987L90.0414 128.024ZM90.0414 156.869C89.6527 158.091 82.6168 180.224 81.48 184.55L79.3589 185.716V160.96L90.0414 154.996V156.869ZM66.1557 166.268C66.2567 179.639 66.4539 193.246 66.4558 193.381C66.461 193.714 66.6397 194.02 66.927 194.187C67.0745 194.273 67.239 194.316 67.4039 194.316C67.5609 194.316 67.7183 194.277 67.8605 194.198L91.4461 181.238C91.7491 181.071 91.9378 180.752 91.9378 180.407V126.412C91.9378 126.076 91.76 125.765 91.4708 125.595C91.1802 125.424 90.8227 125.419 90.5288 125.583L66.9431 138.689C66.8663 138.732 66.7957 138.785 66.7336 138.847C66.2903 139.29 65.9703 139.61 66.1557 166.268V166.268Z" fill="#700051"/>
<path d="M121.398 218.579H157.568C158.091 218.579 158.516 218.154 158.516 217.63C158.516 217.107 158.091 216.682 157.568 216.682H121.398C120.875 216.682 120.45 217.107 120.45 217.63C120.45 218.154 120.875 218.579 121.398 218.579Z" fill="#700051"/>
<path d="M121.398 230.107H157.568C158.091 230.107 158.516 229.682 158.516 229.159C158.516 228.636 158.091 228.211 157.568 228.211H121.398C120.875 228.211 120.45 228.636 120.45 229.159C120.45 229.682 120.875 230.107 121.398 230.107Z" fill="#700051"/>
<path d="M121.398 241.641H157.568C158.091 241.641 158.516 241.216 158.516 240.693C158.516 240.17 158.091 239.745 157.568 239.745H121.398C120.875 239.745 120.45 240.17 120.45 240.693C120.45 241.216 120.875 241.641 121.398 241.641Z" fill="#700051"/>
<path d="M324.19 193.701H228.159L319.429 163.402C322.49 173.167 324.093 183.336 324.19 193.701ZM223.677 193.701H115.532C115.673 177.478 119.439 161.962 126.73 147.568C133.685 133.84 143.793 121.619 155.987 112.159L223.677 193.701ZM157.494 111.008C175.613 97.4702 197.154 90.3158 219.861 90.3158C221.323 90.3158 222.79 90.3532 224.242 90.412V191.413L157.494 111.008ZM198.621 240.137C198.621 236.161 201.854 232.927 205.827 232.927C209.803 232.927 213.037 236.161 213.037 240.137C213.037 244.113 209.803 247.347 205.827 247.347C201.854 247.347 198.621 244.113 198.621 240.137ZM326.467 253.277C326.467 255.294 325.914 256.586 324.775 257.228C321.361 259.152 313.392 255.2 310.608 253.515C310.315 253.338 309.949 253.332 309.652 253.5C309.353 253.668 309.168 253.984 309.168 254.326V277.347C307.384 276.833 302.197 275.012 299.383 270.589C299.102 270.147 298.515 270.017 298.074 270.298C297.632 270.579 297.502 271.165 297.783 271.607C301.301 277.137 307.854 278.99 309.168 279.313V293.116C309.168 293.141 309.169 293.167 309.171 293.191C309.183 293.331 310.166 307.317 301.516 316.67C296.284 322.326 288.595 325.194 278.663 325.194H120.017L199.283 246.452C200.939 248.169 203.258 249.244 205.827 249.244C207.299 249.244 208.686 248.885 209.917 248.262L233.926 274.881C234.104 275.078 234.357 275.192 234.623 275.194H234.63C234.893 275.194 235.145 275.085 235.324 274.892L277.679 229.397C279.678 230.99 282.206 231.945 284.955 231.945C291.403 231.945 296.648 226.699 296.648 220.251C296.648 213.8 291.403 208.552 284.955 208.552C278.507 208.552 273.26 213.8 273.26 220.251C273.26 223.27 274.41 226.024 276.295 228.101L234.641 272.843L211.534 247.223C213.604 245.552 214.934 242.999 214.934 240.137C214.934 235.116 210.848 231.03 205.827 231.03C200.808 231.03 196.725 235.116 196.725 240.137C196.725 241.902 197.238 243.547 198.111 244.944L118.632 323.898C118.274 324.253 118.262 324.821 118.591 325.194H103.998V66.6528C103.998 66.6178 103.992 66.5851 103.989 66.5514H260.416V96.4447C249.33 91.8608 237.616 89.2116 225.569 88.5716C225.452 88.5209 225.325 88.492 225.19 88.492C225.092 88.492 224.998 88.5114 224.909 88.5394C223.241 88.4621 221.546 88.4194 219.861 88.4194C196.6 88.4194 174.539 95.7929 156.02 109.741C155.801 109.736 155.579 109.802 155.396 109.951C155.229 110.087 155.125 110.269 155.078 110.463C142.549 120.12 132.167 132.639 125.039 146.711C117.47 161.653 113.631 177.782 113.631 194.649C113.631 195.173 114.056 195.597 114.58 195.597H324.239C324.552 202.187 326.467 242.778 326.467 253.277ZM268.446 102.303L226.138 190.445V90.5059C238.166 91.2213 249.852 93.97 260.885 98.6928C263.469 99.7984 266.004 101.013 268.446 102.303ZM270.117 103.204C281.118 109.258 290.839 117.16 299.036 126.713L228.628 189.64L270.117 103.204ZM318.843 161.599L229.759 191.172L300.259 128.164C308.514 138.128 314.761 149.368 318.843 161.599ZM102.102 325.194H94.0361V216.581C94.0361 216.246 93.8588 215.935 93.5705 215.764C93.2818 215.594 92.9244 215.589 92.6304 215.75L67.5405 229.578L58.3898 221.239V97.5517L102.102 67.0534V325.194ZM66.4558 325.194H44.7561C44.7599 325.16 44.7618 325.127 44.7618 325.092V211.386L56.5475 222.126C56.6518 222.433 56.9059 222.669 57.2259 222.744L66.4558 231.155V325.194ZM40.5638 325.194V210.187H42.8654V325.092C42.8654 325.127 42.8673 325.16 42.8711 325.194H40.5638ZM38.6674 274.81C38.5887 274.828 38.511 274.852 38.4361 274.891C38.2768 274.975 38.1236 275.015 37.9667 275.015C37.0427 275.015 36.013 273.512 36.013 271.354C36.013 269.196 37.0427 267.693 37.9667 267.693C38.1649 267.693 38.364 267.758 38.5584 267.886C38.5935 267.909 38.6309 267.925 38.6674 267.942V274.81ZM357.675 149.704C357.51 149.207 356.974 148.938 356.477 149.103L320.642 161.002C316.479 148.523 310.102 137.059 301.673 126.899L334.861 97.2416C335.252 96.8927 335.285 96.2935 334.936 95.9028C334.588 95.5127 333.989 95.4785 333.598 95.8279L300.45 125.449C292.087 115.709 282.166 107.656 270.938 101.492L289.48 62.8701C289.707 62.3979 289.508 61.8319 289.036 61.6048C288.566 61.3787 287.997 61.5768 287.771 62.0495L269.267 100.592C267.016 99.4058 264.685 98.2851 262.312 97.2497V65.6032C262.312 65.0794 261.888 64.6551 261.364 64.6551H102.524C102.329 64.6551 102.14 64.7143 101.981 64.8257L56.8988 96.2793C56.6447 96.4566 56.4934 96.7472 56.4934 97.0572V219.511L44.4517 208.538C44.4361 208.524 44.418 208.514 44.4014 208.501C44.3749 208.48 44.3488 208.459 44.3199 208.44C44.2934 208.423 44.2659 208.41 44.2384 208.396C44.2113 208.382 44.1848 208.369 44.1564 208.357C44.1255 208.345 44.0943 208.337 44.0625 208.328C44.035 208.321 44.0075 208.313 43.979 208.308C43.9444 208.302 43.9098 208.299 43.8748 208.297C43.8539 208.296 43.8344 208.291 43.8136 208.291H39.6156C39.0922 208.291 38.6674 208.716 38.6674 209.239V265.893C38.4365 265.834 38.2023 265.797 37.9667 265.797C35.8077 265.797 34.1167 268.238 34.1167 271.354C34.1167 274.47 35.8077 276.911 37.9667 276.911C38.2033 276.911 38.4375 276.88 38.6674 276.821V326.142C38.6674 326.666 39.0922 327.09 39.6156 327.09H278.663C289.153 327.09 297.314 324.013 302.919 317.945C311.986 308.13 311.14 294.098 311.065 293.08V255.957C314.26 257.69 321.64 261.169 325.705 258.881C327.469 257.887 328.364 256.001 328.364 253.277C328.364 241.852 326.112 195.074 326.09 194.649C326.09 183.782 324.452 173.074 321.228 162.805L357.074 150.902C357.571 150.737 357.84 150.201 357.675 149.704Z" fill="#700051"/>
<path d="M52.1656 275.015C51.2416 275.015 50.2119 273.512 50.2119 271.354C50.2119 269.197 51.2416 267.694 52.1656 267.694C53.0896 267.694 54.1188 269.197 54.1188 271.354C54.1188 273.512 53.0896 275.015 52.1656 275.015ZM52.1656 265.797C50.2318 265.797 48.6773 267.758 48.3734 270.406H46.9858C46.4624 270.406 46.0376 270.831 46.0376 271.354C46.0376 271.878 46.4624 272.302 46.9858 272.302H48.3734C48.6773 274.95 50.2318 276.911 52.1656 276.911C54.3246 276.911 56.0152 274.471 56.0152 271.354C56.0152 268.238 54.3246 265.797 52.1656 265.797Z" fill="#700051"/>
</svg>
