<svg width="375" height="375" viewBox="0 0 375 375" fill="none" xmlns="http://www.w3.org/2000/svg">
<path d="M175.045 281.456C174.852 280.963 174.653 280.508 174.45 280.09L171.882 280.859C173.947 284.728 176.589 291.254 177.831 300.844C179.693 315.208 176.014 322.013 174.35 324.272H178.13C179.209 321.663 184.702 306.033 175.045 281.456Z" fill="#D8375D"/>
<path d="M98.437 296.505C86.3425 294.444 74.9374 292.481 67.4245 291.184C61.3364 290.133 57.5377 289.475 57.5377 289.475C57.0957 289.399 56.7999 288.979 56.8762 288.537C56.9525 288.095 57.3737 287.802 57.8145 287.876C57.8149 287.876 61.2199 288.465 66.7443 289.419L66.2057 278.09L31.6286 276.011C30.6038 277.16 26.6408 281.76 23.2755 287.779C16.8729 299.232 17.5052 306.947 19.1631 311.404C23.81 323.889 35.4001 324.068 35.8912 324.069C35.9054 324.069 35.9208 324.07 35.935 324.07L39.5978 324.272H151.369C151.368 324.253 151.366 324.236 151.367 324.217L152.154 311.597L98.437 296.505Z" fill="#F6F6F6"/>
<path d="M65.5525 232.956C65.7173 232.936 65.882 232.965 66.0265 233.04C67.404 233.291 68.7997 233.622 70.1905 234.025C71.0667 231.419 73.8995 227.663 76.2834 226.668C77.0091 226.367 77.7347 226.184 78.4372 226.008C79.8151 225.661 81.0058 225.362 81.9178 224.265C82.9807 222.989 83.6203 220.857 83.6296 218.559C83.6333 217.711 83.6049 216.85 83.5424 215.926C83.4859 215.08 84.3682 214.746 85.1467 214.45C85.2639 214.406 85.4206 214.346 85.5602 214.289C85.3447 213.875 84.9437 213.226 84.6519 212.754C83.7936 211.364 83.3066 210.549 83.285 209.955C83.1848 207.458 82.2416 205.103 81.2741 203.377C80.9336 207.58 77.8439 212.262 75.2018 214.153C74.9701 214.319 74.6674 214.351 74.4056 214.237C74.1438 214.124 73.9612 213.881 73.9243 213.598C73.6207 211.264 72.0963 210.491 71.2144 210.237C69.4137 209.719 67.3443 210.411 66.0659 211.96C64.9307 213.338 64.9165 215.119 66.0273 216.721C67.1515 218.342 69.4003 219.604 71.5277 218.874C71.8455 218.764 72.1986 218.863 72.4141 219.121C72.6296 219.379 72.6637 219.744 72.4997 220.037C71.4141 221.978 70.0148 222.607 66.2745 224.287C65.2489 224.747 64.089 225.269 62.6856 225.924L57.2148 232.539C59.7867 232.318 62.6243 232.456 65.5525 232.956Z" fill="white"/>
<path d="M50.9089 234.034C52.0912 233.521 53.4167 233.131 54.8428 232.861L60.9511 225.475C59.1849 224.373 57.596 223.058 56.3229 220.511C56.3087 220.582 56.2977 220.658 56.2831 220.728C55.566 224.172 53.2835 228.218 49.2113 228.286C49.1861 228.286 49.1598 228.286 49.1346 228.286C46.3537 228.286 42.5981 225.983 40.8375 220.88C39.2945 216.382 38.8188 207.782 42.6983 203.606C44.471 201.7 46.8347 201.003 49.3566 201.645C51.8915 202.29 54.2551 204.251 55.5932 206.648C56.7766 203.781 58.9138 201.461 59.9284 200.466C64.1135 196.347 73.055 193.974 78.3091 197.088C79.4832 197.783 80.3217 198.739 80.8087 199.935C80.8765 199.978 80.9402 200.027 80.995 200.091C82.3663 201.688 84.7336 205.549 84.9073 209.893C84.9633 210.168 85.6334 211.253 86.0335 211.901C86.8213 213.176 87.2701 213.924 87.3233 214.464C87.4093 215.329 86.5132 215.668 85.7226 215.968C85.5692 216.026 85.3485 216.11 85.1853 216.183C85.234 217.004 85.2567 217.804 85.2531 218.566C85.2429 221.228 84.4625 223.747 83.1654 225.303C81.9154 226.807 80.3485 227.201 78.8326 227.582C78.1585 227.751 77.5214 227.911 76.9085 228.167C75.012 228.958 72.4727 232.339 71.7389 234.503C74.5092 235.419 77.1362 236.577 79.5558 237.958C80.7701 238.653 84.555 240.711 90.0554 243.622C97.7929 236.432 102.222 226.301 102.222 215.729C102.222 194.734 85.1407 177.652 64.1451 177.652C43.15 177.652 26.0688 194.734 26.0688 215.729C26.0688 226.446 30.5822 236.644 38.4796 243.853C41.5214 239.51 45.4938 236.376 50.9089 234.034Z" fill="#FE874F"/>
<path d="M188.839 227.442C188.698 226.783 188.55 226.092 188.384 225.384C185.668 226.125 172.163 228.674 166.737 229.689L162.144 231.876C162.034 231.928 161.915 231.955 161.795 231.955C161.741 231.955 161.687 231.95 161.634 231.939C161.553 231.923 161.475 231.895 161.398 231.864C156.397 237.576 146.288 242.882 143.437 244.312C143.845 245.071 144.282 245.786 144.741 246.453C144.831 246.535 144.904 246.636 144.95 246.751C146.566 249.024 148.445 250.715 150.695 251.912C159.65 256.661 170.095 248.344 170.2 248.26L189.92 232.51C190.016 232.433 190.124 232.384 190.235 232.357C190.186 232.249 190.136 232.146 190.086 232.031C189.555 230.789 189.223 229.238 188.839 227.442Z" fill="#D8375D"/>
<path d="M177.218 202.462C178.612 204.877 180.498 207.582 182.322 210.198C184.541 213.38 186.637 216.385 187.879 218.868C188.228 219.563 188.546 220.309 188.849 221.147C189.593 223.196 190.036 225.271 190.428 227.103C190.794 228.816 191.11 230.295 191.58 231.392C191.735 231.754 191.89 232.073 192.04 232.34C192.26 232.733 192.431 232.952 192.545 233.072C192.592 232.965 192.649 232.801 192.704 232.557C192.945 231.468 192.354 228.413 191.703 226.037V226.036C191.703 226.034 191.702 226.033 191.702 226.031C191.696 226.015 191.698 225.996 191.693 225.979C191.686 225.942 191.678 225.905 191.676 225.868C191.673 225.837 191.662 225.808 191.662 225.778C191.662 225.329 192.025 224.966 192.474 224.966C192.849 224.966 193.165 225.221 193.258 225.568C193.259 225.573 193.261 225.58 193.263 225.586C193.794 227.102 195.043 229.882 196.412 230.839C197.957 231.921 204.793 232.92 208.078 232.314L206.342 231.157C206.174 231.045 206.054 230.875 206.004 230.678C205.356 228.093 204.231 226.997 202.928 225.727C201.933 224.758 200.806 223.66 199.885 221.814C198.703 219.454 197.287 216.499 195.557 212.78C195.349 212.327 195.138 211.874 194.923 211.413C191.244 203.447 186.885 193.644 182.708 184.218C177.989 185.999 172.263 191.039 170.856 192.319C174.001 197.185 176.142 200.599 177.218 202.462Z" fill="#D8375D"/>
<path d="M249.553 247.094C250.344 246.887 250.897 246.828 250.926 246.825C250.953 246.822 250.98 246.821 251.008 246.821H251.009C275.523 246.876 321.435 246.948 326.041 246.843C326.589 244.369 327.915 230.637 328.321 214.29C328.694 199.254 328.364 179.219 324.67 169.162C319.473 155.017 307.083 154.326 306.558 154.304C306.256 154.291 305.984 154.11 305.856 153.836C304.581 151.102 300.167 148.012 297.913 146.564C299.288 153.628 300.225 159.359 300.505 162.441C300.546 162.887 300.217 163.282 299.77 163.323C299.324 163.357 298.929 163.034 298.888 162.588C298.592 159.322 297.537 152.992 295.995 145.221C293.655 133.424 291.045 122.428 289.646 118.48C287.986 113.802 283.396 103.51 277.555 94.3298C273.468 87.8936 269.596 83.2925 266.047 80.6541C263.662 78.8822 260.679 79.0088 258.262 80.9841C255.615 83.1375 254.288 86.8761 254.713 90.9865C254.77 91.5344 254.862 92.1119 254.987 92.7032C255.619 95.6338 257.981 100.076 260.715 105.221C262.534 108.642 264.596 112.52 266.424 116.494C269.45 123.072 271.225 128.631 271.849 133.491C272.044 135.018 272.232 136.806 272.409 138.807C273.018 145.747 273.472 154.961 273.654 164.085C273.827 172.621 273.748 180.268 273.429 186.226C273.456 186.36 273.448 186.499 273.407 186.631C273.071 192.741 272.481 196.79 271.652 198.659C270.657 200.896 269.04 202.23 266.976 202.517C262.197 203.178 256.122 198.17 252.377 193.675C251.228 192.296 250.226 190.646 249.314 188.633C248.405 186.617 247.682 184.472 246.916 182.201C245.083 176.763 243.005 170.6 237.691 165.065C237.139 164.49 236.571 163.945 236.003 163.444C231.506 159.467 226.57 157.844 222.461 158.988C219.856 159.713 217.925 161.521 217.163 163.951C215.974 167.745 217.804 170.711 220.575 175.2C222.096 177.667 223.822 180.463 225.482 184.062C227.907 189.314 228.722 193.476 229.667 198.294C230.617 203.144 231.695 208.64 234.663 216.756C240.032 231.435 248.003 244.594 249.546 247.083C249.549 247.088 249.551 247.09 249.553 247.094Z" fill="#FFB0A8"/>
<path d="M274.924 291.48C276.291 291.609 291.118 291.533 300.9 291.448H326.333C326.843 291.448 327.312 291.406 327.727 291.325C331.429 290.648 332.127 287.153 332.215 285.13C332.321 282.709 331.935 280.521 331.485 278.643C331.457 278.646 331.43 278.651 331.402 278.651H244.119C243.672 280.516 243.281 282.698 243.39 285.129C243.493 287.489 244.394 291.448 249.271 291.448H274.697C274.776 291.448 274.852 291.458 274.924 291.48Z" fill="#FF4239"/>
<path d="M330.835 276.166C330.357 274.424 329.906 272.779 329.809 271.256C329.507 266.455 329.968 263.478 330.376 260.852C330.379 260.835 330.381 260.819 330.384 260.802H245.22C245.223 260.821 245.225 260.84 245.228 260.859C245.636 263.484 246.098 266.459 245.796 271.255C245.7 272.775 245.249 274.419 244.771 276.158C244.693 276.443 244.614 276.734 244.535 277.028H331.071C330.992 276.736 330.913 276.449 330.835 276.166Z" fill="#D8365C"/>
<path d="M330.623 259.179C330.814 257.775 330.962 256.224 330.875 254.305C330.661 249.536 327.143 248.586 326.44 248.444L326.398 248.439L326.399 248.429C325.861 248.479 324.925 248.484 323.232 248.493C321.162 248.505 318.21 248.513 314.668 248.517C308.403 248.524 299.674 248.521 288.722 248.508C270.411 248.487 252.109 248.447 251.054 248.444C250.896 248.464 250.226 248.559 249.385 248.834C249.385 248.834 249.384 248.835 249.383 248.835C247.342 249.496 244.877 250.982 244.729 254.304C244.642 256.226 244.789 257.776 244.979 259.179H330.623Z" fill="#FF4239"/>
<path d="M307.485 293.071H300.906C300.848 293.071 294.341 293.128 287.89 293.156C284.723 293.169 282.303 293.178 280.449 293.178C276.778 293.178 275.328 293.146 274.696 293.062V293.071H250.071L249.636 323.971C249.634 324.078 249.611 324.179 249.572 324.272H329.424L328.407 310.036C325.476 301.639 312.83 295.233 307.485 293.071Z" fill="#FFB0A8"/>
<path d="M272.042 179.833C271.069 177.785 268.849 177.527 267.52 177.573C267.076 181.377 266.332 184.091 265.294 185.689C266.427 186.398 268.968 187.545 271.819 185.934C271.917 184.058 271.992 182.016 272.042 179.833Z" fill="#FFB0A8"/>
<path d="M263.553 185.308C264.986 183.778 265.733 179.81 266.091 175.476C264.585 170.503 258.89 168.15 256.568 167.382C256.756 168.972 256.929 170.532 256.997 171.754L257.025 172.216C257.196 174.949 257.684 182.756 255.027 186.704C256.574 187.272 260.685 188.366 263.553 185.308Z" fill="#FFB0A8"/>
<path d="M255.794 81.1675H244.185C243.911 81.1675 243.657 81.1692 243.422 81.1704C241.738 81.1793 240.891 81.1842 240.287 80.5807C239.681 79.9752 239.686 79.1209 239.695 77.42L239.697 76.6785V63.0101C239.697 61.4277 238.411 60.1404 236.832 60.1404H233.471C231.891 60.1404 230.606 61.4277 230.606 63.0101V76.6785C230.606 77.1951 230.616 77.6387 230.624 78.0198C230.653 79.3627 230.67 80.1026 230.132 80.6456C229.58 81.2032 228.799 81.1943 227.251 81.1761C226.918 81.172 226.542 81.1675 226.117 81.1675H212.444C210.864 81.1675 209.579 82.4545 209.579 84.0364V87.3932C209.579 88.9727 210.864 90.258 212.444 90.258L226.534 90.2576C228.521 90.2576 229.439 90.2544 230.062 90.8847C230.645 91.4743 230.634 92.2755 230.615 93.7292C230.611 94.0332 230.606 94.3725 230.606 94.7511V108.42C230.606 110.002 231.891 111.289 233.471 111.289H236.832C238.411 111.289 239.697 110.002 239.697 108.42L239.695 94.0389C239.686 92.4102 239.681 91.5133 240.298 90.894C240.935 90.2548 241.886 90.2572 243.787 90.2576L253.031 90.258C252.862 86.7442 253.86 83.5101 255.794 81.1675Z" fill="white"/>
<path d="M237.603 162.711C238.027 163.105 238.449 163.512 238.862 163.941C244.427 169.738 246.567 176.084 248.455 181.683C249.162 183.782 249.838 185.767 250.645 187.611C250.765 187.517 250.914 187.454 251.078 187.44C251.833 187.378 252.469 187.096 253.023 186.58C255.077 184.674 255.878 179.876 255.404 172.318L255.376 171.845C255.294 170.384 255.053 168.38 254.821 166.442C254.031 159.868 253.949 157.995 254.875 157.342C255.21 157.107 255.626 157.085 256.018 157.28C256.725 157.632 260.858 159.138 267.355 161.412C269.308 162.094 271.019 162.687 272.007 163.03C271.819 154.599 271.403 146.184 270.85 139.645C269.106 139.353 259.654 138.064 246.325 141.807C239.669 143.673 237.068 149.855 237.63 162.479C237.634 162.56 237.621 162.637 237.603 162.711Z" fill="#FFB0A8"/>
<path d="M162.802 180.019C163.002 180.32 163.28 180.741 163.625 181.264C165.152 183.575 167.569 187.256 169.96 190.937C171.696 189.368 177.22 184.587 182.049 182.733L181.388 181.243C179.724 177.491 178.094 173.816 176.548 170.345C172.708 174.504 167.993 177.822 162.802 180.019Z" fill="#F6F6F6"/>
<path d="M64.1452 255.429C61.2905 255.429 58.45 255.123 55.6846 254.521C56.1152 258.355 58.1294 261.25 61.2126 262.37C64.6874 263.631 68.7998 262.347 72.1152 259.017C71.5608 258.803 71.0657 258.618 70.5961 258.449C70.174 258.298 69.9545 257.833 70.1062 257.411C70.2576 256.989 70.7223 256.769 71.1444 256.921C71.8989 257.192 72.6963 257.495 73.7296 257.905C75.1399 258.469 76.6598 259.113 78.661 259.995C79.7333 260.469 80.8047 260.951 81.8725 261.432C86.2182 263.388 90.323 265.236 94.1237 266.424C96.0145 267.014 98.7694 267.889 102.027 268.923C108.253 270.9 116.001 273.361 123.26 275.598C133.392 278.722 139.819 280.555 142.364 281.048C142.517 281.078 142.655 281.105 142.782 281.124C143.417 281.224 144.054 281.329 144.698 281.437C149.999 282.319 155.48 283.231 158.772 280.951C162.574 278.318 167.628 275.37 169.505 274.994C170.303 274.835 171.246 274.945 172.163 275.302C172.201 275.316 172.236 275.337 172.274 275.352C172.383 275.396 172.491 275.444 172.598 275.497C174.149 276.234 175.433 277.618 176.236 279.454C177.198 281.646 178.366 282.364 178.886 282.176C179.285 282.031 179.519 281.221 179.165 280.006C178.08 276.291 173.528 269.212 168.696 268.93C166.325 268.786 163.857 269.678 160.995 270.707C157.921 271.811 154.438 273.063 150.366 273.224C149.023 273.281 146.45 272.553 142.497 271.001C142.496 271.001 142.495 271 142.494 271C142.439 270.979 142.386 270.959 142.33 270.933C137.37 268.987 130.207 265.734 121.078 261.28C109.085 255.431 96.8311 249.037 90.2945 245.585C83.0571 251.932 73.7978 255.429 64.1452 255.429Z" fill="white"/>
<path d="M121.627 163.16C125.326 157.408 133.137 155.254 133.927 155.049C134.356 154.883 136.879 154.008 141.004 154.401C141.023 154.403 141.043 154.406 141.062 154.409C141.065 154.409 141.174 154.428 141.374 154.459L141.752 148.611C141.756 148.547 141.769 148.487 141.787 148.429C140.13 146.619 139.349 144.116 138.984 142.103C138.97 142.105 138.957 142.109 138.942 142.111C138.87 142.116 138.791 142.117 138.719 142.117C136.998 142.117 135.611 140.883 135.01 138.815C134.37 136.62 134.716 133.709 136.4 132.637C136.513 132.565 136.627 132.502 136.74 132.443C136.754 129.758 137.131 126.885 139.572 124C141.353 121.894 144.043 120.772 147.14 120.851C149.441 120.912 151.765 121.433 154.011 121.937C154.374 122.018 154.733 122.099 155.089 122.176C158.106 122.834 160.144 124.231 161.323 126.448C162.122 127.959 162.365 129.698 162.024 131.478C161.877 132.24 161.59 132.903 161.312 133.544C161.076 134.09 160.852 134.607 160.743 135.128C160.731 135.189 160.709 135.245 160.685 135.299C160.793 135.463 160.895 135.641 160.989 135.836C161.902 137.736 161.092 140.078 160.029 141.635C158.866 143.34 157.273 144.367 155.82 144.367C155.76 144.367 155.7 144.364 155.641 144.361C155.267 145.297 154.873 146.085 154.487 146.663L154.265 146.998C154.003 147.395 153.735 147.798 153.446 148.189C153.512 148.281 153.562 148.386 153.585 148.504L154.949 155.318C155.379 155.293 155.791 155.261 156.188 155.221C165.382 154.277 172.954 158.353 176.44 166.127L176.986 167.346C182.44 160.59 185.436 152.154 185.436 143.44C185.436 122.442 168.353 105.359 147.356 105.359C126.36 105.359 109.279 122.442 109.279 143.44C109.279 152.874 112.722 161.834 118.989 168.827C120.056 165.9 120.996 164.146 121.627 163.16Z" fill="#FF4239"/>
<path d="M176.221 301.053C175.132 292.646 172.907 286.703 171.232 283.197C170.971 282.649 170.715 282.146 170.467 281.679L163.352 288.549C163.345 288.881 163.339 289.213 163.333 289.541C163.259 293.892 163.189 298.001 161.315 299.706C160.253 300.671 159.038 301.662 157.691 302.665C159.368 303.226 162.115 304.01 163.412 303.826C163.708 303.784 164.269 303.814 164.748 304.48C165.861 306.027 166.094 310.822 163.946 315.118C163.465 316.079 162.828 316.884 162.212 317.662C160.806 319.436 159.591 320.968 160.329 324.081C160.344 324.145 160.348 324.209 160.348 324.272H172.289C172.332 324.166 172.395 324.066 172.484 323.983C172.54 323.928 178.422 318.023 176.221 301.053Z" fill="white"/>
<path d="M134.487 156.573C134.451 156.587 134.412 156.6 134.375 156.61C134.296 156.63 126.456 158.652 122.993 164.038C122.354 165.034 121.369 166.899 120.239 170.161C121.46 171.401 122.774 172.569 124.16 173.632C130.861 178.791 138.881 181.517 147.355 181.517C152.187 181.517 156.896 180.624 161.35 178.862C166.869 176.68 171.861 173.178 175.823 168.722L174.958 166.79C171.772 159.688 164.812 155.968 156.35 156.837C155.695 156.902 155.015 156.948 154.267 156.978C149.71 157.153 144.624 156.56 141.995 156.192C141.349 156.101 140.933 156.034 140.821 156.015C136.83 155.639 134.51 156.563 134.487 156.573Z" fill="#F6F6F6"/>
<path d="M156.123 200.154C156.854 197.701 160.153 186.705 161.98 181.718C161.651 181.219 161.403 180.846 161.258 180.626C156.817 182.287 152.145 183.14 147.355 183.14C138.944 183.14 130.963 180.558 124.188 175.67C123.802 178.522 123.49 181.588 123.258 184.805C122.73 192.012 122.703 198.276 122.711 200.318C126.026 200.729 141.586 202.428 156.123 200.154Z" fill="#F6F6F6"/>
<path d="M149.09 134.887C148.929 135.865 148.498 136.766 148.081 137.638C147.802 138.222 147.533 138.784 147.355 139.342C147.781 139.406 148.151 139.499 148.474 139.62C148.894 139.779 149.106 140.247 148.947 140.667C148.824 140.991 148.515 141.192 148.188 141.192C148.092 141.192 147.996 141.175 147.901 141.139C147.523 140.996 146.99 140.906 146.318 140.87C146.093 140.858 145.883 140.752 145.738 140.579C145.594 140.407 145.528 140.181 145.556 139.957C145.695 138.866 146.163 137.886 146.616 136.938C147.001 136.133 147.364 135.373 147.488 134.623C147.561 134.18 147.974 133.882 148.422 133.954C148.863 134.027 149.163 134.445 149.09 134.887ZM155.578 131.357C155.102 129.29 151.882 126.905 148.431 126.905C148.416 126.905 148.4 126.905 148.385 126.905C144.617 126.929 141.936 129.732 140.835 134.797V134.799C140.568 136.02 140.39 137.397 140.305 138.892C140.294 139.062 140.297 140.017 140.504 141.352C140.819 143.388 141.589 146.161 143.456 147.801C144.039 148.316 144.711 148.688 145.453 148.908C148.987 149.957 150.466 149.07 151.445 148.065C151.985 147.506 152.435 146.825 152.911 146.104L153.138 145.762C153.542 145.157 153.986 144.209 154.388 143.092C155.203 140.829 155.74 138.213 155.875 135.885C155.862 135.785 155.867 135.684 155.891 135.586C155.966 134.02 155.863 132.597 155.578 131.357Z" fill="#D8375D"/>
<path d="M159.526 136.539C159.325 136.12 159.099 135.845 158.858 135.721C158.429 135.508 157.836 135.863 157.484 136.146C157.345 138.256 156.905 140.573 156.238 142.684C157.049 142.493 157.965 141.781 158.689 140.721C159.688 139.256 160.025 137.576 159.526 136.539Z" fill="#D8375D"/>
<path d="M144.989 150.464C144.39 150.286 143.831 150.024 143.308 149.698L142.986 154.688C144.922 154.942 147.75 155.251 150.677 155.352C149.888 154.162 149.073 151.899 148.757 150.976C148.586 150.988 148.413 150.998 148.234 150.998C147.262 150.998 146.186 150.819 144.989 150.464Z" fill="#D8375D"/>
<path d="M142 269.056C142.552 258.895 142.999 251.769 143.362 247.31C142.733 246.389 142.142 245.385 141.609 244.313C141.453 244.002 141.302 243.683 141.153 243.361C141.148 243.362 141.143 243.363 141.138 243.363L121.734 243.554H121.726C121.64 243.554 121.559 243.537 121.481 243.512C121.68 249.202 121.946 254.762 122.272 260.055C130.564 264.094 137.194 267.118 142 269.056Z" fill="#D8375D"/>
<path d="M126.763 296.268L140.661 295.865C140.747 293.997 140.985 288.844 141.301 282.487C141.301 282.485 141.302 282.484 141.302 282.483C138.411 281.837 132.614 280.173 123.658 277.42C124.555 286.105 125.623 292.593 126.763 296.268Z" fill="#D8375D"/>
<path d="M139.119 135.118C139.019 135.016 138.943 134.888 138.907 134.739C138.862 134.556 138.659 133.989 138.32 133.785C138.23 133.731 138.095 133.676 137.843 133.74C137.675 133.783 137.478 133.874 137.276 134.005C136.401 134.561 136.067 136.636 136.569 138.361C136.8 139.158 137.388 140.494 138.719 140.494C138.733 140.494 138.746 140.493 138.76 140.493C138.682 139.695 138.667 139.068 138.684 138.795C138.759 137.481 138.907 136.25 139.119 135.118Z" fill="#D8375D"/>
<path d="M121.693 183.966C121.947 180.639 122.287 177.475 122.705 174.548C121.649 173.712 120.631 172.824 119.668 171.887C118.745 174.813 117.878 178.258 117.082 182.146L121.583 183.91C121.623 183.925 121.658 183.945 121.693 183.966Z" fill="#F6F6F6"/>
<path d="M121.093 201.041C121.092 200.969 120.996 193.932 121.587 185.412C121.492 185.451 121.392 185.478 121.287 185.478C121.189 185.478 121.088 185.459 120.991 185.422L116.76 183.764C116.479 185.219 116.208 186.73 115.952 188.277C115.245 192.542 114.541 199.774 113.92 206.154C113.424 211.247 112.997 215.645 112.678 217.336C111.542 223.357 110.852 226.398 110.348 228.619C109.946 230.391 109.68 231.562 109.411 233.27C108.825 236.958 109.776 239.813 111.216 244.134C111.954 246.345 112.663 246.844 112.874 246.851C112.941 246.856 113.092 246.726 113.162 246.566C113.235 246.133 112.881 244.347 112.622 243.039C112.138 240.601 111.638 238.081 111.902 236.675C112.646 232.698 113.788 230.192 115.295 229.228C115.856 228.869 116.458 228.745 116.989 228.879C118.113 229.158 117.856 230.48 117.294 233.378C116.923 235.284 116.416 237.894 116.737 238.804C116.908 239.29 117.201 239.869 117.627 239.869H117.631C118.376 239.863 119.445 238.66 119.683 238.048C119.531 232.432 119.453 227.134 119.453 222.3C119.453 215.321 120.041 208.51 121.242 201.493C121.151 201.364 121.095 201.209 121.093 201.041Z" fill="#D8375D"/>
<path d="M88.7537 244.771C83.5066 241.99 79.9741 240.068 78.7497 239.368C76.216 237.922 73.4437 236.724 70.5106 235.81C68.9209 235.317 67.3183 234.926 65.7407 234.638C64.3049 235.476 57.039 240.209 55.7217 250.881C55.6385 251.55 55.5946 252.204 55.5918 252.833C58.382 253.476 61.2553 253.805 64.145 253.805C73.1949 253.805 81.884 250.601 88.7537 244.771Z" fill="white"/>
<path d="M148.42 133.954C147.973 133.882 147.56 134.18 147.487 134.623C147.364 135.373 147 136.133 146.615 136.938C146.162 137.886 145.693 138.866 145.555 139.957C145.527 140.181 145.592 140.406 145.737 140.579C145.881 140.752 146.092 140.858 146.317 140.87C146.989 140.906 147.521 140.996 147.9 141.139C147.994 141.175 148.091 141.192 148.187 141.192C148.514 141.192 148.823 140.991 148.946 140.667C149.105 140.247 148.893 139.779 148.473 139.62C148.15 139.499 147.78 139.406 147.353 139.342C147.532 138.784 147.801 138.222 148.08 137.638C148.496 136.766 148.928 135.865 149.089 134.887C149.162 134.445 148.862 134.027 148.42 133.954Z" fill="#700051"/>
<path d="M249.572 324.272C249.611 324.179 249.634 324.078 249.636 323.971L250.071 293.071H274.696V293.062C275.328 293.146 276.778 293.177 280.449 293.177C282.303 293.177 284.724 293.169 287.89 293.155C294.341 293.127 300.848 293.071 300.906 293.071H307.485C312.83 295.233 325.476 301.638 328.407 310.036L329.424 324.272H249.572ZM243.389 285.128C243.28 282.698 243.672 280.515 244.118 278.651H331.401C331.43 278.651 331.457 278.645 331.485 278.642C331.934 280.521 332.32 282.709 332.214 285.13C332.126 287.153 331.429 290.648 327.727 291.324C327.311 291.406 326.842 291.447 326.332 291.447H300.899C291.117 291.532 276.29 291.609 274.923 291.479C274.851 291.458 274.775 291.447 274.696 291.447H249.271C244.394 291.447 243.492 287.489 243.389 285.128ZM244.771 276.158C245.248 274.419 245.699 272.776 245.795 271.255C246.097 266.459 245.635 263.484 245.228 260.86C245.225 260.84 245.222 260.821 245.219 260.802H330.383C330.38 260.819 330.378 260.835 330.375 260.852C329.967 263.479 329.506 266.455 329.808 271.256C329.905 272.779 330.357 274.425 330.835 276.166C330.912 276.449 330.991 276.736 331.07 277.028H244.534C244.613 276.734 244.692 276.444 244.771 276.158ZM244.728 254.304C244.877 250.982 247.341 249.496 249.383 248.834C249.383 248.834 249.384 248.834 249.385 248.834C250.226 248.559 250.896 248.464 251.054 248.444C252.108 248.446 270.411 248.487 288.722 248.508C299.674 248.521 308.403 248.523 314.668 248.516C318.209 248.512 321.162 248.505 323.232 248.493C324.924 248.484 325.861 248.479 326.399 248.429L326.398 248.439L326.44 248.444C327.142 248.587 330.661 249.536 330.874 254.305C330.961 256.224 330.814 257.775 330.623 259.179H244.979C244.789 257.776 244.641 256.226 244.728 254.304ZM234.664 216.757C231.694 208.64 230.617 203.144 229.666 198.294C228.722 193.476 227.906 189.314 225.483 184.062C223.822 180.463 222.097 177.667 220.575 175.201C217.804 170.711 215.974 167.745 217.164 163.951C217.925 161.521 219.856 159.712 222.461 158.987C226.57 157.845 231.506 159.468 236.003 163.444C236.571 163.945 237.139 164.49 237.691 165.065C243.005 170.6 245.083 176.763 246.916 182.201C247.682 184.472 248.405 186.617 249.314 188.633C250.226 190.647 251.228 192.296 252.377 193.675C256.123 198.17 262.197 203.178 266.976 202.517C269.041 202.229 270.657 200.896 271.652 198.659C272.481 196.79 273.071 192.741 273.407 186.63C273.448 186.499 273.457 186.36 273.429 186.227C273.748 180.268 273.826 172.621 273.654 164.085C273.472 154.961 273.018 145.747 272.409 138.807C272.232 136.806 272.044 135.018 271.849 133.491C271.225 128.631 269.45 123.071 266.424 116.494C264.596 112.52 262.534 108.642 260.715 105.221C257.981 100.076 255.619 95.634 254.987 92.7034C254.862 92.1121 254.77 91.5342 254.713 90.9867C254.289 86.8763 255.615 83.1377 258.262 80.9843C260.679 79.009 263.662 78.882 266.047 80.6543C269.596 83.2927 273.468 87.8933 277.555 94.33C283.396 103.511 287.986 113.802 289.646 118.48C291.045 122.427 293.655 133.424 295.995 145.221C297.537 152.992 298.591 159.322 298.888 162.588C298.929 163.035 299.324 163.357 299.77 163.323C300.217 163.282 300.546 162.888 300.505 162.441C300.225 159.359 299.287 153.628 297.913 146.563C300.168 148.012 304.582 151.102 305.856 153.836C305.984 154.11 306.256 154.291 306.558 154.304C307.083 154.326 319.473 155.017 324.67 169.162C328.364 179.22 328.694 199.254 328.321 214.29C327.915 230.636 326.589 244.369 326.041 246.843C321.435 246.948 275.523 246.875 251.009 246.821H251.008C250.98 246.821 250.953 246.822 250.926 246.825C250.897 246.828 250.344 246.887 249.553 247.095C249.551 247.09 249.549 247.087 249.546 247.083C248.003 244.594 240.032 231.435 234.664 216.757ZM265.294 185.689C266.331 184.091 267.076 181.377 267.519 177.574C268.848 177.527 271.069 177.785 272.041 179.833C271.991 182.017 271.917 184.058 271.818 185.934C268.967 187.546 266.426 186.398 265.294 185.689ZM257.532 188.924C257.895 188.96 258.252 188.978 258.603 188.978C260.795 188.978 262.709 188.272 264.22 186.915C265.077 187.473 266.775 188.366 268.87 188.366C269.758 188.366 270.717 188.199 271.713 187.786C271.301 194.238 270.654 196.905 270.168 198C269.392 199.746 268.275 200.697 266.752 200.909C263.411 201.373 258.135 198.049 253.624 192.636C252.767 191.608 252.021 190.445 251.313 189.046C252.274 188.947 253.133 188.593 253.872 187.99C254.331 188.188 255.745 188.748 257.532 188.924ZM257.025 172.216L256.997 171.755C256.928 170.532 256.756 168.972 256.568 167.382C258.89 168.149 264.585 170.502 266.091 175.476C265.732 179.81 264.986 183.778 263.553 185.308C260.685 188.365 256.573 187.272 255.026 186.704C257.684 182.756 257.196 174.949 257.025 172.216ZM246.325 141.806C259.654 138.065 269.105 139.352 270.851 139.645C271.403 146.184 271.819 154.599 272.007 163.029C271.019 162.687 269.308 162.094 267.355 161.412C260.858 159.138 256.725 157.632 256.017 157.28C255.626 157.084 255.21 157.106 254.876 157.342C253.948 157.994 254.031 159.867 254.821 166.442C255.053 168.38 255.294 170.384 255.376 171.845L255.404 172.318C255.877 179.876 255.077 184.674 253.023 186.58C252.469 187.096 251.833 187.377 251.078 187.44C250.914 187.454 250.765 187.516 250.644 187.612C249.838 185.766 249.162 183.782 248.454 181.682C246.567 176.084 244.427 169.738 238.862 163.941C238.449 163.511 238.027 163.104 237.603 162.711C237.622 162.636 237.633 162.559 237.63 162.479C237.068 149.855 239.668 143.673 246.325 141.806ZM243.786 90.2578C241.886 90.2574 240.935 90.2545 240.298 90.8937C239.681 91.5131 239.686 92.41 239.694 94.0386L239.697 108.42C239.697 110.002 238.411 111.289 236.832 111.289H233.471C231.891 111.289 230.606 110.002 230.606 108.42V94.7509C230.606 94.3722 230.611 94.033 230.614 93.729C230.634 92.2752 230.645 91.4745 230.062 90.8848C229.439 90.2541 228.521 90.2578 226.534 90.2578L212.444 90.2582C210.864 90.2582 209.579 88.9729 209.579 87.3929V84.0366C209.579 82.4542 210.864 81.1673 212.444 81.1673H226.117C226.542 81.1673 226.918 81.1718 227.251 81.1758C228.799 81.1945 229.58 81.203 230.132 80.6454C230.67 80.1024 230.653 79.3625 230.624 78.0196C230.616 77.6385 230.606 77.1949 230.606 76.6787V63.0098C230.606 61.4278 231.891 60.1405 233.471 60.1405H236.832C238.411 60.1405 239.697 61.4278 239.697 63.0098V76.6787L239.694 77.4197C239.686 79.1206 239.681 79.9749 240.287 80.5804C240.891 81.1839 241.738 81.1795 243.422 81.1701C243.657 81.1689 243.911 81.1673 244.185 81.1673H255.794C253.86 83.5098 252.862 86.744 253.031 90.2582L243.786 90.2578ZM174.35 324.272C176.014 322.013 179.693 315.208 177.831 300.844C176.588 291.254 173.947 284.728 171.882 280.859L174.45 280.09C174.653 280.508 174.851 280.963 175.045 281.456C184.702 306.032 179.209 321.663 178.13 324.272H174.35ZM172.289 324.272H160.348C160.348 324.209 160.343 324.145 160.328 324.081C159.591 320.968 160.806 319.436 162.211 317.662C162.828 316.884 163.465 316.079 163.946 315.118C166.093 310.822 165.86 306.026 164.747 304.479C164.269 303.814 163.707 303.784 163.412 303.826C162.115 304.01 159.368 303.226 157.691 302.664C159.038 301.662 160.252 300.671 161.314 299.706C163.189 298.001 163.258 293.892 163.333 289.541C163.339 289.213 163.345 288.881 163.351 288.548L170.466 281.679C170.714 282.146 170.97 282.649 171.232 283.197C172.907 286.703 175.132 292.646 176.221 301.052C178.421 318.024 172.54 323.928 172.483 323.983C172.395 324.066 172.331 324.166 172.289 324.272ZM152.989 324.272L154.186 305.094C154.573 304.847 155.249 304.405 156.098 303.812C156.127 303.827 156.154 303.843 156.185 303.855C156.694 304.045 161.111 305.667 163.456 305.455C163.983 306.189 164.575 310.228 162.493 314.392C162.088 315.203 161.53 315.908 160.939 316.653C159.505 318.462 157.889 320.513 158.711 324.272H152.989ZM151.368 324.272H39.5974L35.9346 324.07C35.9204 324.069 35.9054 324.069 35.8912 324.069C35.4001 324.067 23.8096 323.889 19.1627 311.404C17.5049 306.948 16.8726 299.231 23.2756 287.778C26.6404 281.759 30.6035 277.16 31.6282 276.011L66.2053 278.091L66.7443 289.419C61.2195 288.465 57.8145 287.875 57.8141 287.875C57.3734 287.802 56.9521 288.095 56.8762 288.537C56.7995 288.979 57.0958 289.399 57.5373 289.475C57.5373 289.475 61.336 290.133 67.4241 291.184C74.9371 292.481 86.3421 294.444 98.4367 296.504L152.154 311.597L151.366 324.217C151.365 324.236 151.368 324.254 151.368 324.272ZM26.0682 215.729C26.0682 194.733 43.1493 177.652 64.1449 177.652C85.14 177.652 102.221 194.733 102.221 215.729C102.221 226.301 97.7926 236.433 90.0548 243.622C84.5544 240.711 80.7695 238.653 79.5552 237.958C77.1355 236.577 74.5085 235.419 71.7386 234.503C72.4724 232.339 75.0113 228.957 76.9078 228.166C77.5211 227.911 78.1578 227.751 78.832 227.582C80.3478 227.201 81.9151 226.808 83.1651 225.303C84.4618 223.748 85.2423 221.229 85.2524 218.566C85.2561 217.804 85.2337 217.004 85.1846 216.183C85.3482 216.11 85.569 216.026 85.7224 215.968C86.5125 215.668 87.4087 215.328 87.3226 214.464C87.2695 213.924 86.821 213.176 86.0328 211.901C85.6327 211.253 84.963 210.168 84.907 209.893C84.7329 205.55 82.3656 201.688 80.9943 200.091C80.9399 200.027 80.8758 199.978 80.8084 199.935C80.321 198.74 79.4825 197.783 78.3084 197.088C73.0548 193.974 64.1132 196.347 59.9277 200.466C58.9131 201.462 56.7764 203.78 55.5925 206.648C54.2544 204.25 51.8912 202.291 49.3559 201.645C46.834 201.003 44.4703 201.7 42.6976 203.606C38.8182 207.783 39.2938 216.382 40.8368 220.88C42.5978 225.983 46.3535 228.286 49.1339 228.286C49.1595 228.286 49.1854 228.286 49.211 228.286C53.2829 228.218 55.5653 224.172 56.2828 220.728C56.2975 220.658 56.308 220.582 56.3222 220.511C57.5958 223.058 59.1842 224.373 60.9509 225.475L54.8425 232.861C53.416 233.131 52.0905 233.521 50.9083 234.034C45.4935 236.375 41.5207 239.51 38.4793 243.853C30.5816 236.643 26.0682 226.446 26.0682 215.729ZM153.197 303.799C152.017 303.692 148.688 303.203 143.287 302.345L142.253 296.599C142.288 295.825 142.546 290.136 142.911 282.789C143.414 282.87 143.918 282.953 144.431 283.038C147.324 283.52 150.267 284.009 152.965 284.009C155.51 284.009 157.836 283.573 159.696 282.285C160.707 281.584 161.768 280.89 162.81 280.239C161.832 282.586 161.769 286.091 161.71 289.513C161.645 293.328 161.577 297.272 160.222 298.505C158.853 299.749 157.213 301.044 155.349 302.354C154.349 303.06 153.56 303.569 153.197 303.799ZM141.588 302.07C137.313 301.386 132.092 300.53 126.363 299.572L126.808 297.89L140.763 297.486L141.588 302.07ZM141.301 282.486C140.985 288.844 140.747 293.997 140.661 295.865L126.763 296.267C125.623 292.593 124.554 286.105 123.658 277.419C132.613 280.173 138.41 281.836 141.302 282.483C141.302 282.484 141.301 282.485 141.301 282.486ZM71.7833 269.437C73.8551 268.254 77.3936 264.495 78.7398 261.808C79.5625 262.175 80.3855 262.543 81.2057 262.912C85.597 264.889 89.7451 266.756 93.6392 267.973C95.5288 268.563 98.2808 269.437 101.536 270.47C107.545 272.379 114.972 274.737 122.014 276.912C121.998 276.991 121.989 277.071 121.998 277.154C122.958 286.591 124.08 293.3 125.333 297.119L124.755 299.303C105.426 296.077 81.4772 291.961 68.3831 289.702L67.7995 277.429C68.6522 274.685 70.4456 270.201 71.7833 269.437ZM55.7216 250.881C57.0389 240.209 64.3048 235.475 65.7406 234.638C67.3182 234.926 68.9208 235.317 70.5105 235.81C73.4436 236.724 76.2159 237.921 78.7496 239.367C79.974 240.068 83.5065 241.99 88.7536 244.77C81.8839 250.6 73.1948 253.805 64.1449 253.805C61.2553 253.805 58.3819 253.476 55.5913 252.833C55.5945 252.204 55.638 251.55 55.7216 250.881ZM62.6854 225.924C64.0889 225.268 65.2484 224.747 66.2743 224.287C70.0146 222.607 71.4139 221.978 72.4996 220.037C72.6635 219.744 72.6294 219.379 72.4139 219.121C72.1984 218.862 71.8453 218.764 71.5276 218.873C69.4001 219.604 67.1514 218.342 66.0272 216.721C64.9164 215.119 64.9306 213.338 66.0657 211.96C67.3441 210.41 69.4135 209.719 71.2143 210.237C72.0958 210.49 73.6205 211.264 73.9241 213.597C73.961 213.88 74.1436 214.123 74.4054 214.237C74.6672 214.351 74.9699 214.319 75.2017 214.153C77.8437 212.262 80.9334 207.58 81.2739 203.377C82.2414 205.103 83.1846 207.458 83.2849 209.955C83.3064 210.548 83.7934 211.364 84.6518 212.754C84.9436 213.226 85.3445 213.875 85.56 214.289C85.4204 214.347 85.2638 214.406 85.1465 214.45C84.3681 214.746 83.4858 215.08 83.5422 215.926C83.6047 216.85 83.6331 217.711 83.629 218.558C83.6201 220.856 82.9805 222.989 81.9176 224.265C81.0056 225.362 79.8149 225.661 78.4371 226.008C77.7346 226.184 77.0089 226.367 76.2832 226.668C73.8993 227.663 71.0665 231.418 70.1903 234.024C68.7995 233.622 67.4038 233.291 66.0264 233.04C65.8819 232.965 65.7171 232.936 65.5523 232.956C62.6242 232.456 59.7865 232.318 57.2147 232.539L62.6854 225.924ZM121.078 261.28C130.207 265.734 137.369 268.987 142.33 270.933C142.386 270.959 142.438 270.979 142.493 271C142.495 271 142.495 271.001 142.497 271.001C146.449 272.552 149.022 273.28 150.366 273.224C154.438 273.063 157.921 271.811 160.994 270.707C163.857 269.678 166.325 268.786 168.696 268.93C173.528 269.211 178.08 276.291 179.165 280.006C179.519 281.221 179.285 282.031 178.885 282.176C178.365 282.364 177.197 281.646 176.236 279.454C175.433 277.617 174.148 276.234 172.597 275.497C172.491 275.444 172.383 275.396 172.273 275.352C172.236 275.336 172.2 275.316 172.162 275.302C171.246 274.945 170.303 274.835 169.504 274.994C167.627 275.37 162.573 278.318 158.772 280.951C155.48 283.231 149.999 282.319 144.698 281.437C144.054 281.329 143.417 281.224 142.781 281.123C142.655 281.105 142.517 281.078 142.363 281.048C139.819 280.555 133.392 278.722 123.26 275.598C116 273.36 108.252 270.9 102.027 268.923C98.769 267.888 96.0142 267.014 94.1233 266.423C90.3226 265.235 86.2175 263.388 81.8717 261.432C80.8044 260.951 79.7329 260.469 78.6603 259.994C76.6595 259.112 75.1396 258.468 73.7293 257.905C72.696 257.495 71.8985 257.192 71.144 256.921C70.722 256.769 70.2569 256.989 70.1055 257.411C69.9541 257.833 70.1737 258.298 70.5954 258.449C71.0653 258.617 71.5604 258.803 72.1148 259.017C68.7995 262.347 64.6871 263.631 61.2122 262.37C58.1286 261.25 56.1148 258.355 55.6842 254.521C58.4497 255.123 61.2902 255.429 64.1449 255.429C73.7975 255.429 83.0568 251.933 90.2942 245.585C96.8307 249.037 109.084 255.431 121.078 261.28ZM119.453 222.3C119.453 227.134 119.531 232.432 119.683 238.048C119.445 238.66 118.376 239.862 117.631 239.869H117.627C117.201 239.869 116.908 239.29 116.737 238.804C116.416 237.894 116.923 235.283 117.294 233.378C117.856 230.48 118.113 229.158 116.989 228.878C116.458 228.745 115.856 228.869 115.295 229.228C113.789 230.192 112.646 232.697 111.902 236.675C111.638 238.08 112.138 240.601 112.622 243.039C112.881 244.347 113.235 246.133 113.162 246.566C113.092 246.726 112.942 246.856 112.874 246.851C112.663 246.845 111.954 246.345 111.216 244.134C109.776 239.813 108.825 236.958 109.411 233.27C109.68 231.562 109.946 230.391 110.348 228.619C110.852 226.398 111.542 223.357 112.678 217.337C112.997 215.645 113.424 211.247 113.92 206.154C114.541 199.774 115.245 192.542 115.952 188.276C116.208 186.73 116.479 185.219 116.76 183.764L120.991 185.421C121.088 185.459 121.189 185.478 121.287 185.478C121.392 185.478 121.492 185.451 121.587 185.412C120.996 193.932 121.092 200.97 121.093 201.041C121.095 201.209 121.151 201.364 121.242 201.493C120.041 208.51 119.453 215.321 119.453 222.3ZM119.668 171.887C120.631 172.824 121.649 173.712 122.705 174.548C122.287 177.475 121.948 180.639 121.694 183.966C121.658 183.946 121.623 183.925 121.584 183.91L117.082 182.147C117.878 178.259 118.745 174.813 119.668 171.887ZM138.76 140.493C138.746 140.493 138.732 140.494 138.719 140.494C137.387 140.494 136.799 139.158 136.568 138.361C136.066 136.636 136.401 134.561 137.275 134.005C137.478 133.874 137.674 133.783 137.843 133.74C138.095 133.676 138.23 133.731 138.319 133.785C138.659 133.99 138.862 134.556 138.907 134.739C138.942 134.888 139.019 135.016 139.119 135.118C138.907 136.25 138.758 137.481 138.684 138.795C138.667 139.067 138.681 139.694 138.76 140.493ZM156.237 142.684C156.904 140.573 157.345 138.256 157.483 136.146C157.836 135.863 158.429 135.508 158.857 135.721C159.099 135.845 159.324 136.121 159.525 136.539C160.024 137.576 159.687 139.256 158.688 140.72C157.964 141.781 157.048 142.493 156.237 142.684ZM109.279 143.44C109.279 122.442 126.36 105.36 147.355 105.36C168.353 105.36 185.435 122.442 185.435 143.44C185.435 152.154 182.44 160.589 176.985 167.346L176.44 166.127C172.953 158.354 165.382 154.278 156.188 155.222C155.791 155.261 155.379 155.292 154.949 155.318L153.585 148.504C153.561 148.386 153.512 148.281 153.446 148.189C153.735 147.798 154.003 147.395 154.265 146.998L154.487 146.663C154.873 146.085 155.267 145.297 155.641 144.361C155.7 144.364 155.76 144.367 155.819 144.367C157.272 144.367 158.866 143.34 160.029 141.635C161.092 140.078 161.902 137.736 160.989 135.836C160.895 135.641 160.793 135.464 160.685 135.299C160.709 135.245 160.73 135.189 160.743 135.128C160.852 134.606 161.076 134.091 161.312 133.544C161.59 132.903 161.877 132.24 162.024 131.478C162.364 129.697 162.122 127.958 161.322 126.448C160.144 124.231 158.105 122.834 155.089 122.176C154.733 122.099 154.374 122.018 154.011 121.936C151.764 121.433 149.441 120.912 147.14 120.851C144.043 120.772 141.352 121.894 139.572 123.999C137.131 126.884 136.754 129.759 136.739 132.443C136.626 132.501 136.513 132.565 136.4 132.638C134.715 133.709 134.37 136.62 135.009 138.815C135.611 140.883 136.998 142.117 138.719 142.117C138.791 142.117 138.87 142.116 138.942 142.11C138.957 142.11 138.97 142.105 138.984 142.103C139.349 144.117 140.13 146.619 141.786 148.429C141.769 148.487 141.756 148.548 141.752 148.611L141.374 154.459C141.174 154.428 141.065 154.41 141.062 154.409C141.042 154.406 141.023 154.403 141.004 154.401C136.879 154.008 134.356 154.884 133.927 155.048C133.137 155.254 125.326 157.408 121.627 163.16C120.996 164.146 120.056 165.899 118.989 168.827C112.722 161.834 109.279 152.874 109.279 143.44ZM181.388 181.243L182.049 182.733C177.22 184.587 171.695 189.367 169.96 190.937C167.569 187.256 165.151 183.574 163.625 181.264C163.28 180.741 163.002 180.32 162.802 180.018C167.993 177.822 172.709 174.504 176.548 170.345C178.094 173.815 179.724 177.49 181.388 181.243ZM194.922 211.412C195.137 211.874 195.348 212.327 195.556 212.78C197.286 216.499 198.702 219.454 199.884 221.814C200.806 223.66 201.933 224.758 202.927 225.727C204.23 226.996 205.355 228.093 206.004 230.679C206.053 230.874 206.173 231.045 206.341 231.156L208.077 232.314C204.792 232.92 197.956 231.921 196.411 230.839C195.042 229.882 193.793 227.102 193.262 225.586C193.261 225.58 193.258 225.574 193.257 225.567C193.164 225.221 192.849 224.966 192.473 224.966C192.024 224.966 191.661 225.329 191.661 225.778C191.661 225.808 191.672 225.837 191.675 225.868C191.677 225.905 191.685 225.942 191.692 225.979C191.697 225.996 191.695 226.015 191.701 226.031C191.701 226.033 191.702 226.034 191.702 226.036V226.037C192.353 228.414 192.944 231.468 192.703 232.557C192.648 232.801 192.591 232.965 192.544 233.071C192.43 232.952 192.259 232.733 192.04 232.34C191.889 232.073 191.735 231.754 191.58 231.392C191.11 230.295 190.793 228.815 190.427 227.102C190.035 225.271 189.592 223.195 188.849 221.147C188.545 220.308 188.227 219.563 187.878 218.868C186.636 216.385 184.541 213.38 182.321 210.198C180.497 207.582 178.611 204.877 177.217 202.462C176.142 200.599 174 197.185 170.855 192.318C172.262 191.039 177.988 185.998 182.707 184.218C186.884 193.644 191.243 203.446 194.922 211.412ZM222.624 232.096C221.502 232.637 220.086 232.827 218.401 232.649C217.992 232.606 217.56 232.565 217.106 232.523C215.108 232.335 212.62 232.101 209.734 231.431C209.712 231.427 209.689 231.426 209.667 231.423L207.498 229.977C206.722 227.158 205.369 225.84 204.06 224.564C203.07 223.599 202.135 222.689 201.336 221.088C200.25 218.921 198.962 216.237 197.415 212.925C203.034 212.75 207.316 214.888 212.254 217.367C216.984 219.742 220.985 223.263 222.957 226.787C224.002 228.655 223.894 230.345 222.624 232.096ZM121.726 243.554H121.734L141.138 243.363C141.143 243.363 141.148 243.361 141.153 243.361C141.301 243.683 141.452 244.002 141.608 244.313C142.142 245.385 142.733 246.389 143.362 247.31C142.998 251.769 142.552 258.895 142 269.056C137.193 267.118 130.563 264.093 122.272 260.055C121.946 254.762 121.68 249.202 121.48 243.512C121.558 243.537 121.64 243.554 121.726 243.554ZM185.558 218.933L161.897 230.196C161.198 229.042 160.65 225.099 160.76 221.922C161.297 206.304 158.584 201.757 157.661 200.674C158.302 198.523 161.223 188.78 163.098 183.413C164.722 185.878 166.947 189.274 169.101 192.595C172.4 197.691 174.721 201.384 175.812 203.273C177.239 205.749 179.146 208.483 180.99 211.127C182.957 213.947 184.819 216.623 186.041 218.865C185.88 218.838 185.711 218.859 185.558 218.933ZM123.258 184.805C123.489 181.589 123.802 178.522 124.188 175.67C130.963 180.558 138.944 183.14 147.355 183.14C152.145 183.14 156.817 182.287 161.258 180.626C161.403 180.846 161.651 181.22 161.979 181.718C160.153 186.705 156.854 197.701 156.123 200.154C141.586 202.428 126.026 200.729 122.711 200.318C122.703 198.276 122.729 192.013 123.258 184.805ZM154.267 156.978C155.015 156.948 155.696 156.902 156.351 156.837C164.812 155.968 171.773 159.688 174.958 166.79L175.823 168.722C171.861 173.177 166.869 176.68 161.35 178.862C156.896 180.623 152.187 181.516 147.355 181.516C138.881 181.516 130.861 178.79 124.16 173.632C122.774 172.569 121.46 171.4 120.239 170.161C121.369 166.899 122.355 165.034 122.993 164.037C126.457 158.652 134.296 156.63 134.375 156.61C134.412 156.6 134.452 156.587 134.487 156.572C134.511 156.563 136.831 155.638 140.821 156.015C140.933 156.033 141.349 156.101 141.995 156.192C144.623 156.559 149.71 157.153 154.267 156.978ZM148.758 150.976C149.073 151.899 149.888 154.162 150.677 155.352C147.751 155.25 144.922 154.942 142.986 154.688L143.308 149.698C143.832 150.024 144.39 150.286 144.989 150.464C146.186 150.819 147.262 150.998 148.235 150.998C148.413 150.998 148.586 150.988 148.758 150.976ZM155.875 135.885C155.739 138.214 155.202 140.828 154.388 143.092C153.985 144.209 153.541 145.157 153.137 145.761L152.91 146.104C152.434 146.825 151.984 147.506 151.444 148.065C150.465 149.071 148.986 149.957 145.452 148.908C144.71 148.688 144.039 148.315 143.455 147.802C141.588 146.162 140.819 143.388 140.503 141.352C140.296 140.016 140.294 139.062 140.304 138.892C140.389 137.397 140.567 136.02 140.835 134.799V134.798C141.935 129.731 144.617 126.929 148.384 126.905H148.43C151.881 126.905 155.102 129.29 155.578 131.357C155.862 132.597 155.965 134.02 155.89 135.586C155.866 135.684 155.862 135.785 155.875 135.885ZM189.921 232.509L170.2 248.259C170.096 248.344 159.65 256.661 150.695 251.912C148.446 250.715 146.567 249.024 144.95 246.751C144.904 246.636 144.832 246.535 144.741 246.453C144.283 245.786 143.846 245.071 143.437 244.313C146.289 242.882 156.398 237.576 161.399 231.864C161.476 231.895 161.554 231.923 161.635 231.939C161.687 231.95 161.741 231.955 161.795 231.955C161.915 231.955 162.034 231.928 162.144 231.876L166.737 229.69C172.164 228.675 185.668 226.125 188.385 225.384C188.551 226.092 188.698 226.783 188.84 227.442C189.224 229.238 189.555 230.789 190.087 232.03C190.136 232.146 190.186 232.249 190.236 232.357C190.124 232.384 190.016 232.433 189.921 232.509ZM356.515 324.272H331.051L328.799 292.733C331.842 291.84 333.666 289.142 333.836 285.201C333.966 282.228 333.418 279.623 332.865 277.466C332.712 276.873 332.554 276.296 332.4 275.736C331.925 274.005 331.515 272.51 331.428 271.153C331.137 266.53 331.565 263.77 331.979 261.101C332.03 260.778 332.079 260.458 332.127 260.137C332.374 258.462 332.605 256.627 332.496 254.231C332.28 249.41 329.272 247.686 327.626 247.1C327.885 245.929 328.228 243.4 328.704 237.728C329.038 233.728 329.642 225.489 329.92 215.244C330.34 199.739 330.035 179.06 326.193 168.603C321.208 155.032 309.626 153.007 307.11 152.725C304.991 148.901 298.433 144.946 297.484 144.388C295.562 134.757 292.806 122.538 291.176 117.937C289.508 113.236 284.928 102.956 279.097 93.7314C279.633 90.9595 279.907 88.1024 279.907 85.2338C279.907 60.5549 259.83 40.477 235.151 40.477C210.47 40.477 190.391 60.5549 190.391 85.2338C190.391 109.915 210.47 129.994 235.151 129.994C246.437 129.994 257.138 125.815 265.416 118.203C268.088 124.179 269.668 129.257 270.239 133.697C270.399 134.95 270.554 136.387 270.703 137.974C268.054 137.566 258.845 136.606 245.886 140.244C236.838 142.781 235.674 152.14 235.961 161.298C231.343 157.64 226.326 156.226 222.026 157.424C218.881 158.299 216.544 160.501 215.614 163.465C214.204 167.966 216.296 171.358 219.193 176.052C220.691 178.481 222.389 181.232 224.008 184.742C226.351 189.817 227.149 193.89 228.074 198.606C229.036 203.515 230.126 209.078 233.139 217.314C238.373 231.624 246.048 244.494 247.976 247.63C245.924 248.497 243.279 250.36 243.107 254.231C242.998 256.635 243.229 258.471 243.476 260.147C243.524 260.466 243.573 260.785 243.624 261.108C244.038 263.776 244.466 266.533 244.174 271.153C244.09 272.507 243.68 274 243.205 275.729C243.039 276.338 242.866 276.966 242.701 277.616C242.166 279.727 241.637 282.28 241.767 285.2C241.969 289.819 244.446 292.694 248.448 293.036L248.012 323.948C248.011 324.063 248.034 324.172 248.075 324.272H179.929C181.866 319.414 184.987 304.32 177.558 283.543C178.254 283.878 178.913 283.893 179.439 283.702C180.561 283.295 181.393 281.854 180.724 279.552C179.564 275.584 174.725 267.655 168.791 267.309C166.09 267.147 163.349 268.135 160.445 269.179C157.482 270.244 154.124 271.451 150.301 271.602C149.568 271.625 147.812 271.313 143.591 269.685C144.087 260.532 144.498 253.805 144.84 249.237C146.325 250.954 148.031 252.333 149.933 253.345C152.012 254.448 154.314 254.999 156.774 254.999C159.185 254.999 161.745 254.469 164.39 253.409C168.365 251.815 171.107 249.614 171.218 249.524L190.934 233.778C190.954 233.762 190.969 233.743 190.987 233.725C191.343 234.233 191.896 234.817 192.614 234.817C192.677 234.817 192.742 234.813 192.808 234.803C193.533 234.697 194.031 234.061 194.288 232.91C194.394 232.431 194.397 231.789 194.34 231.082C194.692 231.507 195.073 231.884 195.481 232.169C197.793 233.788 207.545 235.009 210.289 233.214C212.884 233.754 215.121 233.967 216.954 234.139C217.403 234.181 217.828 234.221 218.232 234.263C218.701 234.313 219.154 234.337 219.592 234.337C221.133 234.337 222.479 234.031 223.605 233.423C225.489 232.407 226.714 230.577 227.144 228.132C227.683 225.079 226.824 221.248 225.19 219.41C218.352 211.717 208.631 209.176 204.48 208.091C204.058 207.981 203.692 207.886 203.392 207.801C201.607 207.294 197.993 207.156 195.943 209.747C192.276 201.778 187.983 192.116 183.884 182.867L182.873 180.585C181.097 176.583 179.362 172.671 177.725 168.999C183.743 161.852 187.059 152.8 187.059 143.44C187.059 121.547 169.248 103.736 147.355 103.736C125.464 103.736 107.655 121.547 107.655 143.44C107.655 153.578 111.468 163.19 118.388 170.574C117.288 173.912 116.262 177.94 115.337 182.572C114.993 184.307 114.661 186.137 114.351 188.011C113.634 192.33 112.928 199.591 112.305 205.997C111.813 211.051 111.388 215.415 111.083 217.035C109.952 223.027 109.266 226.051 108.765 228.259C108.37 229.999 108.085 231.256 107.808 233.016C107.159 237.095 108.215 240.263 109.677 244.651C110.512 247.15 111.571 248.437 112.826 248.473C112.843 248.474 112.86 248.474 112.877 248.474C113.651 248.474 114.354 247.958 114.679 247.147C114.931 246.518 114.752 245.434 114.214 242.723C113.803 240.651 113.292 238.072 113.498 236.974C114.368 232.324 115.592 230.994 116.125 230.625C116.049 231.27 115.854 232.273 115.7 233.068C115.137 235.966 114.772 238.112 115.205 239.343C115.83 241.116 116.862 241.492 117.625 241.492C117.631 241.492 117.638 241.492 117.644 241.492C118.406 241.485 119.144 241.082 119.756 240.549C119.78 241.299 119.805 242.051 119.831 242.806C120.022 248.449 120.28 253.968 120.596 259.237C109.321 253.714 97.9902 247.809 91.5734 244.425C99.3855 236.955 103.845 226.563 103.845 215.729C103.845 193.838 86.0353 176.029 64.1449 176.029C42.254 176.029 24.4448 193.838 24.4448 215.729C24.4448 226.992 29.2256 237.701 37.5816 245.228C36.6631 246.709 35.8385 248.311 35.1392 250.014C30.1688 262.104 30.364 272.794 30.4586 274.882C29.4411 276.012 25.3961 280.667 21.875 286.957C16.5535 296.463 15.0901 305.112 17.6416 311.97C22.573 325.221 35.1566 325.678 35.86 325.692L39.53 325.894C39.545 325.895 39.5601 325.895 39.5751 325.895H356.515C356.963 325.895 357.327 325.532 357.327 325.084C357.327 324.636 356.963 324.272 356.515 324.272Z" fill="#700051"/>
</svg>
