<svg width="335" height="271" viewBox="0 0 335 271" fill="none" xmlns="http://www.w3.org/2000/svg">
<path d="M102.162 128.309C102.611 128.39 103.058 128.486 103.501 128.607C109.96 130.346 113.097 134.077 114.59 136.899C115.519 138.654 115.943 140.273 116.137 141.361C117.07 140.982 118.485 140.455 120.198 139.971C120.171 137.157 121.92 119.618 132.226 105.608C141.75 92.6623 155.56 86.2703 173.26 86.6206C192.16 86.9937 206.134 95.8847 213.674 112.332C218.851 123.628 219.504 135.235 219.579 138.718C223.514 139.031 226.944 140.512 228.652 141.378C229.422 138.75 231.858 132.861 238.537 130.272C237.083 119.997 233.531 105.445 224.881 92.9835C214.386 77.8653 198.978 69.4883 179.085 68.0862C177.636 67.984 176.164 67.9176 174.711 67.8895C163.136 67.6637 152.625 69.484 143.461 73.2955L141.364 74.2161C141.36 74.2175 141.358 74.2194 141.355 74.2209C115.009 86.3328 105.519 112.876 102.162 128.309Z" fill="#FEB1A7"/>
<path d="M266.133 209.402C253.407 227.848 235.367 235.985 222.408 239.56C208.446 243.411 197.567 242.951 196.816 242.914H81.5891C74.7189 242.914 72.1656 242.332 69.6966 241.769C67.8231 241.342 66.0532 240.938 62.3018 240.864C56.5232 240.751 53.3662 241.839 51.059 242.636C49.8972 243.037 48.8691 243.391 47.858 243.391C47.0237 243.391 46.2015 243.15 45.325 242.493C44.0915 241.568 43.9655 240.478 44.077 239.726C44.6492 235.87 53.4079 231.389 60.7349 228.723C67.8362 226.142 76.5716 225.491 84.9534 225.173C87.342 225.077 89.7766 225.014 92.1307 224.953L93.8677 224.899C95.0145 224.864 96.1554 224.829 97.2872 224.79C101.658 224.632 112.25 223.709 128.772 222.047C128.351 220.773 127.502 217.636 125.609 209.402H52.6322L3.96118 268.336H167.427C167.486 268.336 167.543 268.343 167.599 268.353C167.655 268.343 167.712 268.336 167.771 268.336H331.238L282.567 209.402H266.133Z" fill="#F6F6F7"/>
<path d="M267.587 48.5421L279.847 67.687C280.096 68.0751 280.037 68.5847 279.705 68.9055C279.375 69.2262 278.863 69.2698 278.483 69.0087L260.07 56.3784L258.939 61.6855C275.81 81.3372 286.775 107.558 289.844 135.608C292.541 138.673 293.225 142.205 293.351 144.443C295.985 142.413 301.338 138.995 306.766 139.687C303.619 105.082 289.983 71.7984 269.25 48.141L267.587 48.5421Z" fill="#F6F6F7"/>
<path d="M201.227 29.4438C201.19 29.516 201.145 29.5857 201.087 29.6487C196.7 34.4384 196.347 45.2136 196.328 47.9079C218.761 52.3149 236.478 64.5974 248.989 84.4384C252.561 90.1027 255.425 95.9752 257.728 101.712C262.391 109.051 270.902 123.034 273.019 130.491C275.396 129.936 277.91 129.932 280.509 130.504C283.33 131.126 285.721 132.167 287.659 133.604C284.376 107.31 274.065 82.7839 258.428 64.0809L255.245 79.0169C255.15 79.4646 254.754 79.7839 254.298 79.7839H254.283C253.819 79.7766 253.426 79.4428 253.344 78.9869L249.12 55.5993L232.474 63.3895C232.073 63.578 231.594 63.4685 231.314 63.1245C231.033 62.781 231.021 62.2902 231.286 61.9341L241.583 48.0659C239.364 47.5397 234.907 46.4806 230.855 45.5029C228.633 44.967 226.534 44.4554 224.99 44.0702C224.213 43.8759 223.576 43.7132 223.134 43.5954C222.365 43.39 221.64 43.1962 221.739 42.3401C221.794 41.8701 222.194 41.5082 222.662 41.4816C222.877 41.452 223.993 41.2257 229.436 39.9002C220.717 35.0586 211.243 31.5479 201.227 29.4438Z" fill="#D8365D"/>
<path d="M243.437 38.0586C243.315 38.3299 243.076 38.53 242.788 38.6022C242.788 38.6022 237.417 39.9447 232.26 41.2054C229.903 41.7834 228.14 42.2112 226.819 42.5266C230.657 43.4709 236.842 44.952 242.607 46.3168C243.148 46.4476 243.455 46.5194 243.457 46.5198C243.774 46.5944 244.033 46.8231 244.145 47.1288C244.258 47.4346 244.209 47.7766 244.016 48.0387L243.798 48.3343L235.131 60.0067L249.439 53.3105C249.569 53.2495 249.709 53.2194 249.849 53.2194C250.002 53.2194 250.155 53.2558 250.295 53.328C250.562 53.4661 250.75 53.7204 250.803 54.0164L254.376 73.7984L258.475 54.5581C258.543 54.2417 258.764 53.9801 259.064 53.8599C259.364 53.7403 259.705 53.7781 259.971 53.9607L275.637 64.7064L265.22 48.4413C265.051 48.1773 265.02 47.8483 265.138 47.5571C265.254 47.2664 265.505 47.0504 265.81 46.9767L282.001 43.0697L265.779 38.5964C265.473 38.5121 265.228 38.2834 265.123 37.9845C265.017 37.6851 265.065 37.3537 265.25 37.0964C268.835 32.1138 274.134 24.6003 276.578 20.8212C272.744 22.8517 265.256 27.1405 260.255 30.0591C259.986 30.2161 259.657 30.2345 259.372 30.107C259.087 29.9796 258.88 29.7224 258.818 29.4166C257.167 21.3551 255.179 12.5106 254.045 8.59446C252.767 13.4496 250.454 25.1652 250.126 27.6414C250.11 27.7471 250.102 27.8105 250.1 27.8483C250.1 28.1918 249.918 28.5 249.623 28.6739C249.483 28.7563 249.328 28.795 249.172 28.7994C249.169 28.8319 249.166 28.8658 249.166 28.8832L248.99 28.7829C248.877 28.7645 248.764 28.7335 248.66 28.6758L234.942 21.0455L243.411 37.2122C243.549 37.4757 243.559 37.7873 243.437 38.0586Z" fill="#FF874E"/>
<path d="M244.851 129.039C255.714 128.719 259.655 136.065 261.009 140.118C261.782 138.808 262.939 137.118 264.511 135.494C264.452 135.388 264.41 135.27 264.393 135.143C262.998 124.474 258.928 103.834 247.35 85.4728C234.973 65.8449 217.389 53.7882 195.085 49.6371C190.816 48.8391 186.321 48.3343 181.712 48.1259C181.686 48.2466 181.636 48.3643 181.562 48.4719C178.539 52.8188 179.755 63.8144 180.066 66.2223C200.164 67.8444 215.777 76.4699 226.473 91.8783C235.243 104.512 238.894 119.195 240.408 129.661C241.8 129.297 243.286 129.084 244.851 129.039Z" fill="#FF4237"/>
<path d="M249.174 28.7995C249.112 28.8009 249.052 28.7931 248.991 28.7829L249.168 28.8836C249.168 28.8661 249.171 28.8321 249.174 28.7995Z" fill="#F6F6F7"/>
<path d="M156.6 22.2141C159.338 23.6676 161.996 24.2127 163.755 24.5736C165.062 24.8415 165.875 25.0135 166.331 25.4656C169.917 25.219 173.604 25.0896 177.307 25.0896C185.379 25.0896 193.25 25.8508 200.701 27.3517C211.945 29.6109 222.531 33.6085 232.177 39.2306C235.729 38.3614 239.319 37.4699 241.124 37.0203L231.901 19.4162C215.73 11.5964 197.636 7.62353 178.097 7.62353C166.924 7.62353 156.069 8.63709 145.79 10.6143C146.52 11.4729 147.249 12.3372 147.962 13.187C151.262 17.1206 154.674 21.188 156.6 22.2141Z" fill="#F6F6F7"/>
<path d="M211.728 195.082C211.753 194.877 211.841 194.679 211.999 194.521C212.001 194.517 212.026 194.491 212.064 194.446C212.39 194.029 214.021 191.561 212.01 186.442C209.794 180.792 203.85 180.891 203.595 180.898C203.263 180.915 202.938 180.74 202.753 180.456C202.57 180.172 202.546 179.813 202.692 179.509C202.8 179.283 205.3 173.916 201.742 170.358C198.291 166.907 193.625 170.303 193.428 170.449C193.152 170.654 192.787 170.699 192.471 170.564C192.155 170.43 191.932 170.139 191.888 169.797C191.826 169.355 191.155 165.436 186.965 165.621C184.674 165.722 183.036 166.788 182.095 168.79C181.583 169.881 181.393 170.988 181.321 171.688C182.879 172.575 186.272 175.723 195.051 185.435C200.55 191.517 205.938 197.747 207.358 199.394C208.948 197.996 210.413 196.551 211.728 195.082Z" fill="#D8365D"/>
<path d="M187.803 211.483C191.237 209.95 194.46 208.288 197.413 206.529C195.971 205.38 192.8 202.096 185.032 192.982C184.966 193.036 184.896 193.086 184.815 193.123C184.661 193.193 181.038 194.913 182.152 198.816C183.232 202.585 185.267 202.251 185.353 202.237C185.69 202.173 186.045 202.292 186.27 202.549C186.495 202.806 186.579 203.16 186.473 203.485C186.457 203.537 184.827 208.735 187.803 211.483Z" fill="#D8365D"/>
<path d="M185.914 212.303C183.641 209.646 183.958 205.975 184.33 204.093C184.069 204.035 183.785 203.945 183.49 203.806C182.016 203.114 180.939 201.614 180.29 199.348C179.083 195.122 181.9 192.439 183.759 191.484C181.14 188.394 176.249 182.555 174.648 180.183C173.892 180.47 168.535 182.472 165.992 182.497C166.029 183.117 166.764 184.678 167.662 185.998C167.89 186.333 167.885 186.776 167.65 187.106C167.595 187.182 162.24 194.77 163.688 199.72C164.037 200.921 165.483 203.155 170.383 206.981C171.644 207.972 173.055 209.001 174.7 210.128C177.421 211.99 180.335 213.817 181.014 214.239C182.672 213.63 184.311 212.982 185.914 212.303Z" fill="#FE874F"/>
<path d="M97.3563 226.726C96.2206 226.766 95.0772 226.801 93.9275 226.836L93.2739 226.856C93.2982 229.122 93.4532 238.691 93.4905 240.976H168.852V219.77C167.844 219.88 166.163 220.064 163.971 220.301C157.107 221.046 143.581 222.498 130.122 223.858C112.895 225.598 101.871 226.563 97.3563 226.726Z" fill="#FE874F"/>
<path d="M130.757 221.846C143.288 220.577 155.751 219.243 162.724 218.488C162.422 217.121 162.058 215.414 161.886 214.42C160.008 214.574 158.439 214.639 157.131 214.639C151.99 214.639 150.834 213.656 150.385 213.275C149.5 212.526 148.687 210.868 147.828 208.057C145.461 200.342 143.685 186.821 143.559 185.846C143.524 185.664 143.49 185.332 143.403 184.478C142.174 172.383 140.71 169.041 139.7 168.367C139.325 168.116 138.736 168.177 138.308 168.273C137.82 168.374 137.266 168.581 136.644 168.892C133.183 170.625 129.128 174.787 128.511 176.747C128.248 177.577 128.319 178.625 129.066 179.099C130.199 179.817 132.89 179.213 137.045 175.362C137.071 175.335 137.127 175.284 137.184 175.233C137.58 174.873 138.198 174.899 138.557 175.295C138.787 175.548 138.858 175.888 138.777 176.194L140.475 184.503C140.667 185.44 140.482 186.397 139.953 187.196C139.425 187.995 138.618 188.54 137.68 188.733L134.301 189.423L124.967 197.69C125.633 200.714 126.463 204.447 127.291 208.066C129.756 218.838 130.523 221.302 130.757 221.846Z" fill="#FE874F"/>
<path d="M83.7347 136.71C84.586 135.644 85.819 134.261 87.3936 132.909C91.3922 129.478 95.8122 127.815 100.23 128.072C102.951 115.462 109.711 95.4612 126.225 81.5528C122.634 78.6017 118.343 73.4932 113.98 66.9743C91.1582 84.4137 81.727 109.96 77.8428 128.6C81.5778 130.704 83.1122 134.326 83.7347 136.71Z" fill="#FF4237"/>
<path d="M122.189 175.277C122.058 175.339 121.916 175.37 121.773 175.37C121.624 175.37 121.476 175.336 121.34 175.268L115.865 172.531C115.387 172.292 115.193 171.71 115.432 171.231C115.671 170.752 116.254 170.559 116.732 170.797L121.098 172.98L124.757 156.579C124.874 156.057 125.393 155.731 125.914 155.844C126.436 155.961 126.765 156.479 126.648 157.001L122.719 174.612C122.654 174.903 122.459 175.148 122.189 175.277ZM138.337 186.127C138.579 185.76 138.664 185.321 138.576 184.892L137.139 177.859C132.059 182.114 129.276 181.527 128.029 180.735C126.627 179.847 126.078 178.009 126.663 176.163C127.431 173.725 131.496 169.599 135.038 167.559C135.031 167.533 135.02 167.51 135.015 167.483L131.231 148.97C131.142 148.54 130.891 148.168 130.524 147.925C130.157 147.682 129.718 147.598 129.289 147.686L107.108 152.22C106.675 152.31 106.303 152.56 106.061 152.927C105.819 153.293 105.735 153.732 105.823 154.163L113.169 190.084C113.256 190.516 113.506 190.886 113.873 191.129C114.24 191.373 114.68 191.457 115.11 191.369L137.291 186.834C137.722 186.746 138.094 186.494 138.337 186.127Z" fill="#FEB1A7"/>
<path d="M129.248 35.0288C127.068 35.8164 124.895 36.675 122.754 37.595C124.128 38.6484 125.521 39.7492 126.879 40.8226C129.58 42.9583 132.338 45.1361 134.522 46.571C132.716 43.34 130.924 39.4231 129.248 35.0288Z" fill="#D8365D"/>
<path d="M50.3106 133.095C51.9158 134.263 53.2297 135.558 54.1856 136.62C54.331 119.489 58.6173 102.317 66.6212 86.8977C75.0747 70.6129 87.5917 56.5848 102.838 46.2718C102.646 45.7524 102.467 45.25 102.322 44.7907C101.374 41.8018 101.52 39.1167 102.758 36.811C104.725 33.1453 108.778 31.7384 109.487 31.5155C111.49 30.3488 114.87 31.7447 120.973 36.2558C123.469 35.156 126.017 34.1366 128.571 33.2127C126.494 27.5039 124.779 21.4404 123.862 16.578C99.9114 25.1666 79.3659 40.0465 64.3252 59.6967C69.3824 62.9946 74.8935 62.907 74.9531 62.9099C74.9608 62.9094 74.9686 62.9094 74.9763 62.9094C75.4749 62.9094 75.894 63.2892 75.9405 63.7883C75.988 64.295 75.6353 64.7519 75.1333 64.8348C56.7535 67.8624 55.8877 90.1308 55.8814 90.3556C55.8659 90.8803 55.4361 91.296 54.9129 91.296H54.8983C54.3688 91.2882 53.9439 90.8566 53.9439 90.327C53.9439 86.1826 53.2762 82.4699 51.9749 79.2475C43.7976 95.1657 38.8765 112.877 37.6992 130.67C41.7884 129.226 46.1188 130.047 50.3106 133.095Z" fill="#F6F6F7"/>
<path d="M68.3417 87.7906C60.6285 102.65 56.4318 119.164 56.1387 135.669C58.6411 132.011 63.7196 126.641 71.8242 126.98C73.3446 127.044 74.7554 127.313 76.0369 127.776C80.0505 108.819 89.7142 83.0203 112.911 65.3522C109.09 59.4496 105.612 53.0339 103.567 48.1235C88.7496 58.233 76.5805 71.9195 68.3417 87.7906Z" fill="#D8365D"/>
<path d="M106.414 176.914C107.132 178.531 108.278 179.173 109.011 179.428L107.902 174.004C107.351 174.291 106.614 174.794 106.33 175.457C106.144 175.893 106.171 176.369 106.414 176.914Z" fill="#FE874F"/>
<path d="M104.414 169.211C104.768 170.628 106.408 171.362 107.429 171.688L106.256 165.95C105.503 166.479 104.042 167.723 104.414 169.211Z" fill="#FE874F"/>
<path d="M104.873 159.221C104.843 159.233 102.732 160.14 103.052 161.528C103.295 162.583 104.794 163.329 105.793 163.686L104.879 159.218C104.877 159.218 104.875 159.22 104.873 159.221Z" fill="#FE874F"/>
<path d="M45.9937 240.01C45.9564 240.261 45.986 240.566 46.4869 240.942C47.5514 241.74 48.281 241.544 50.4264 240.803C52.733 240.007 56.2171 238.809 62.3396 238.926C66.2897 239.004 68.1536 239.429 70.1269 239.879C72.4918 240.419 74.9365 240.976 81.5887 240.976H83.812L84.0242 227.149C76.1095 227.477 67.969 228.155 61.3968 230.544C51.7854 234.041 46.2868 238.031 45.9937 240.01Z" fill="#FE874F"/>
<path d="M52.8928 76.5683C52.8947 76.5717 52.8967 76.5746 52.8981 76.578C53.8928 78.5286 54.6408 80.6666 55.1394 82.9762C56.7993 76.6017 60.7387 67.8314 70.0464 64.2127C67.761 63.6584 64.9805 62.624 62.3613 60.6952C62.3589 60.6933 62.3564 60.6913 62.354 60.6894C62.354 60.6894 62.3535 60.6894 62.3531 60.6889C62.3526 60.6884 62.3516 60.6875 62.3511 60.687C58.7818 58.0712 56.3351 54.4258 55.0386 49.8047C53.543 55.5034 49.6224 62.5121 39.5439 64.9971C43.5909 66.4568 49.3705 69.6637 52.8875 76.5581C52.8894 76.5615 52.8913 76.5649 52.8928 76.5683Z" fill="#FF874E"/>
<path d="M125.913 155.844C125.393 155.731 124.874 156.057 124.756 156.579L121.097 172.98L116.732 170.797C116.253 170.559 115.671 170.753 115.432 171.231C115.192 171.71 115.386 172.292 115.865 172.531L121.34 175.268C121.476 175.336 121.624 175.371 121.773 175.371C121.915 175.371 122.058 175.339 122.189 175.277C122.458 175.149 122.654 174.904 122.719 174.612L126.648 157.001C126.765 156.479 126.436 155.961 125.913 155.844Z" fill="#700051"/>
<path d="M84.0245 227.15L83.8123 240.976H81.589C74.9369 240.976 72.4921 240.419 70.1273 239.879C68.1539 239.429 66.29 239.004 62.34 238.926C56.2174 238.809 52.7334 240.008 50.4267 240.803C48.2813 241.544 47.5517 241.741 46.4872 240.942C45.9863 240.567 45.9567 240.261 45.994 240.011C46.2871 238.031 51.7857 234.041 61.3966 230.545C67.9693 228.156 76.1098 227.478 84.0245 227.15ZM91.5517 240.976H85.7508L85.964 227.075C87.7556 227.009 89.5618 226.959 91.3361 226.912C91.3617 229.267 91.5129 238.614 91.5517 240.976ZM167.771 268.336C167.712 268.336 167.655 268.343 167.599 268.353C167.543 268.343 167.486 268.336 167.427 268.336H3.96109L52.6321 209.402H125.609C127.502 217.636 128.351 220.773 128.772 222.046C112.25 223.709 101.658 224.632 97.2871 224.79C96.1554 224.829 95.0144 224.864 93.8676 224.899L92.1306 224.953C89.7765 225.013 87.3419 225.077 84.9533 225.173C76.5715 225.491 67.8361 226.142 60.7348 228.723C53.4078 231.389 44.6491 235.87 44.0769 239.726C43.9654 240.478 44.0914 241.568 45.3249 242.493C46.2014 243.15 47.0236 243.391 47.8579 243.391C48.8685 243.391 49.8971 243.037 51.059 242.636C53.3661 241.839 56.5231 240.751 62.3017 240.864C66.0531 240.938 67.823 241.341 69.6965 241.769C72.1655 242.332 74.7188 242.914 81.589 242.914H196.816C197.567 242.951 208.446 243.411 222.408 239.56C235.367 235.985 253.407 227.847 266.133 209.402H282.567L331.238 268.336H167.771ZM124.967 197.69L134.301 189.423L137.681 188.732C138.618 188.54 139.425 187.994 139.953 187.196C140.482 186.397 140.667 185.44 140.475 184.503L138.777 176.194C138.858 175.888 138.787 175.548 138.557 175.295C138.198 174.899 137.581 174.872 137.184 175.232C137.127 175.284 137.072 175.335 137.045 175.362C132.89 179.213 130.199 179.816 129.066 179.099C128.319 178.624 128.248 177.576 128.511 176.747C129.128 174.787 133.183 170.625 136.644 168.892C137.266 168.581 137.821 168.374 138.308 168.273C138.736 168.177 139.325 168.116 139.7 168.367C140.711 169.041 142.174 172.383 143.403 184.477C143.49 185.332 143.524 185.664 143.559 185.846C143.685 186.821 145.461 200.341 147.828 208.057C148.687 210.868 149.5 212.526 150.385 213.275C150.834 213.656 151.99 214.638 157.131 214.638C158.439 214.638 160.008 214.574 161.886 214.42C162.058 215.414 162.422 217.121 162.724 218.488C155.751 219.243 143.288 220.577 130.757 221.846C130.523 221.302 129.756 218.838 127.291 208.066C126.463 204.447 125.633 200.714 124.967 197.69ZM115.11 191.369C114.68 191.458 114.24 191.372 113.872 191.129C113.506 190.886 113.256 190.516 113.168 190.084L105.823 154.163C105.735 153.732 105.819 153.293 106.061 152.927C106.303 152.561 106.675 152.31 107.108 152.22L129.289 147.686C129.718 147.598 130.157 147.682 130.524 147.925C130.891 148.168 131.142 148.54 131.231 148.97L135.015 167.483C135.02 167.51 135.031 167.533 135.038 167.559C131.495 169.599 127.431 173.725 126.663 176.163C126.078 178.009 126.627 179.847 128.028 180.735C129.276 181.527 132.059 182.114 137.139 177.859L138.576 184.892C138.664 185.322 138.579 185.76 138.337 186.127C138.094 186.495 137.722 186.746 137.291 186.834L115.11 191.369ZM103.052 161.528C102.731 160.141 104.843 159.233 104.873 159.221C104.875 159.22 104.877 159.218 104.879 159.217L105.792 163.686C104.794 163.328 103.295 162.583 103.052 161.528ZM107.902 174.005L109.011 179.428C108.278 179.173 107.131 178.531 106.413 176.914C106.17 176.369 106.143 175.893 106.33 175.457C106.614 174.794 107.351 174.291 107.902 174.005ZM104.414 169.211C104.042 167.722 105.503 166.479 106.255 165.95L107.429 171.688C106.408 171.362 104.768 170.628 104.414 169.211ZM102.738 181.036C102.541 180.746 102.197 180.583 101.852 180.619C101.502 180.65 101.196 180.869 101.052 181.189C100.954 181.408 98.556 186.544 90.4049 187.171C78.4557 188.091 73.5531 177.482 73.3511 177.03C73.2028 176.697 72.8792 176.475 72.5144 176.457C72.1529 176.44 71.8056 176.627 71.6248 176.944C71.5725 177.035 66.2993 186.057 55.7838 186.486C44.1302 186.961 42.7043 175.307 42.6496 174.811C42.6161 174.503 42.4373 174.229 42.168 174.075C41.8991 173.92 41.572 173.904 41.2886 174.031C41.2169 174.064 34.0168 177.239 28.2363 174.703C25.371 173.446 23.3022 170.96 22.0871 167.312C21.153 164.511 21.2896 161.961 22.4931 159.734C25.1777 154.768 32.2872 152.843 32.3584 152.824C32.6394 152.75 32.8719 152.554 32.9931 152.29C33.1137 152.026 33.1098 151.721 32.9819 151.46C32.7295 150.944 26.9039 138.756 36.4669 133.349C36.6941 133.221 36.9204 133.1 37.1491 132.991C41.0003 131.116 45.0313 131.668 49.1307 134.634C52.3012 136.928 54.3191 139.863 54.339 139.893C54.5386 140.186 54.8802 140.343 55.2343 140.312C55.5866 140.278 55.8928 140.054 56.0318 139.728C56.0342 139.723 56.2542 139.212 56.7009 138.424C58.384 135.446 63.2154 128.563 71.7416 128.916C73.4339 128.987 74.9572 129.341 76.2721 129.968C81.7077 132.535 82.2116 139.117 82.2159 139.182C82.2426 139.602 82.5386 139.958 82.9475 140.061C83.3569 140.161 83.7847 139.989 84.0071 139.63C84.073 139.524 90.681 129.045 100.699 130.059C100.792 130.088 100.89 130.109 100.993 130.109C101.02 130.109 101.046 130.104 101.072 130.102C101.714 130.183 102.359 130.305 102.994 130.478C113.969 133.434 114.35 142.412 114.361 142.79C114.368 143.12 114.542 143.422 114.823 143.595C115.104 143.766 115.452 143.784 115.749 143.642C115.774 143.63 118.201 142.473 121.558 141.609C127.92 139.98 136.366 139.65 140.468 147.329C147.003 159.552 137.791 165.41 137.398 165.653C137.046 165.867 136.882 166.27 136.951 166.653C136.912 166.667 136.872 166.682 136.832 166.697L133.129 148.582C132.937 147.644 132.391 146.837 131.593 146.309C130.794 145.78 129.837 145.594 128.9 145.788L106.719 150.322C105.779 150.515 104.971 151.061 104.444 151.859C103.916 152.658 103.732 153.614 103.925 154.552L104.498 157.357C104.376 157.357 104.252 157.38 104.132 157.43C102.77 157.991 100.612 159.576 101.164 161.965C101.533 163.563 102.977 164.56 104.197 165.132C103.147 166.117 102.037 167.69 102.534 169.68C102.979 171.463 104.458 172.516 105.755 173.113C105.28 173.518 104.833 174.037 104.553 174.683C104.149 175.619 104.18 176.663 104.642 177.701C106.072 180.921 108.81 181.436 109.437 181.513L110.081 184.661C104.706 183.732 102.755 181.059 102.738 181.036ZM51.9746 79.2475C53.2765 82.4699 53.9436 86.1826 53.9436 90.327C53.9436 90.8565 54.369 91.2882 54.8986 91.296H54.9131C55.4359 91.296 55.8656 90.8798 55.8811 90.3551C55.8879 90.1308 56.7537 67.8624 75.1331 64.8347C75.6355 64.7519 75.9877 64.2945 75.9402 63.7882C75.8937 63.2892 75.4751 62.9094 74.9761 62.9094H74.9533C74.8937 62.9069 69.3821 62.9941 64.3249 59.6967C79.3661 40.046 99.9117 25.1666 123.861 16.578C124.778 21.4404 126.494 27.5038 128.572 33.2127C126.017 34.1366 123.468 35.1555 120.973 36.2558C114.87 31.7446 111.49 30.3488 109.488 31.5155C108.777 31.7379 104.726 33.1453 102.759 36.8105C101.521 39.1167 101.374 41.8018 102.322 44.7907C102.467 45.2495 102.646 45.7524 102.838 46.2718C87.5914 56.5847 75.0749 70.6124 66.6214 86.8977C58.6171 102.317 54.3312 119.489 54.1854 136.619C53.23 135.557 51.916 134.263 50.3109 133.095C46.119 130.046 41.7881 129.226 37.6995 130.67C38.8768 112.876 43.7978 95.1652 51.9746 79.2475ZM39.5439 64.9971C49.6229 62.5121 53.543 55.5034 55.0386 49.8047C56.3351 54.4258 58.7818 58.0712 62.3511 60.687C62.3521 60.6875 62.3526 60.6884 62.3535 60.6889C62.3535 60.6894 62.354 60.6894 62.354 60.6899C62.3569 60.6913 62.3588 60.6938 62.3613 60.6952C64.9805 62.624 67.7615 63.6584 70.0463 64.2127C60.7387 67.8314 56.7993 76.6017 55.1394 82.9762C54.6413 80.6666 53.8933 78.5285 52.8981 76.578C52.8966 76.5746 52.8947 76.5717 52.8928 76.5683C52.8913 76.5649 52.8894 76.562 52.8874 76.5586C49.3705 69.6637 43.5909 66.4568 39.5439 64.9971ZM126.831 5.85026C127.637 4.90647 128.639 4.25433 129.614 3.79794C128.618 5.67778 128.101 8.70395 128.803 13.7228C129.162 16.2708 129.804 19.2912 130.763 22.9564C131.491 25.734 132.707 28.9166 134.378 32.4166C137.974 39.9273 142.804 47.0164 144.667 49.6526C144.329 49.5891 143.966 49.5242 143.577 49.4544C141.952 49.1623 139.943 48.7989 137.758 48.2039C135.369 44.4927 132.941 39.405 130.724 33.4525C128.368 27.1395 126.44 20.2853 125.568 15.1172C125.382 14.0164 125.245 13.0034 125.161 12.109C124.925 9.53001 125.487 7.42439 126.831 5.85026ZM178.096 7.62352C197.635 7.62352 215.729 11.5964 231.9 19.4162L241.123 37.0198C239.318 37.4699 235.728 38.3614 232.176 39.2306C222.53 33.6085 211.944 29.6109 200.7 27.3517C193.249 25.8507 185.378 25.0896 177.306 25.0896C173.603 25.0896 169.917 25.219 166.33 25.4656C165.874 25.0135 165.061 24.8415 163.754 24.5736C161.995 24.2127 159.338 23.6676 156.599 22.2141C154.673 21.188 151.261 17.1206 147.961 13.187C147.248 12.3372 146.52 11.4728 145.789 10.6143C156.068 8.63708 166.923 7.62352 178.096 7.62352ZM248.661 28.6758C248.764 28.7335 248.877 28.7645 248.991 28.7829C249.051 28.7926 249.111 28.8008 249.172 28.7994C249.328 28.795 249.483 28.7563 249.622 28.6739C249.918 28.5 250.1 28.1918 250.1 27.8483C250.102 27.8105 250.11 27.7471 250.126 27.6414C250.454 25.1652 252.767 13.4496 254.045 8.59445C255.179 12.5106 257.167 21.3551 258.818 29.4166C258.881 29.7224 259.087 29.9796 259.372 30.107C259.657 30.2345 259.986 30.2161 260.256 30.0591C265.256 27.1405 272.744 22.8517 276.578 20.8212C274.134 24.6003 268.836 32.1138 265.25 37.0964C265.065 37.3536 265.017 37.685 265.123 37.9845C265.228 38.2834 265.474 38.5121 265.779 38.5964L282.001 43.0697L265.81 46.9767C265.505 47.0504 265.255 47.2664 265.138 47.5571C265.021 47.8483 265.052 48.1773 265.221 48.4413L275.637 64.7064L259.971 53.9607C259.705 53.7781 259.364 53.7403 259.064 53.8599C258.764 53.9801 258.543 54.2417 258.476 54.5581L254.376 73.7984L250.803 54.0164C250.75 53.7204 250.562 53.466 250.295 53.328C250.155 53.2558 250.003 53.2194 249.85 53.2194C249.71 53.2194 249.57 53.2495 249.439 53.3105L235.131 60.0067L243.798 48.3343L244.016 48.0387C244.21 47.7766 244.258 47.4346 244.146 47.1288C244.033 46.8231 243.775 46.5944 243.457 46.5198C243.455 46.5193 243.148 46.4476 242.607 46.3168C236.842 44.952 230.657 43.4709 226.819 42.5266C228.14 42.2112 229.903 41.7834 232.26 41.2054C237.417 39.9447 242.788 38.6022 242.788 38.6022C243.076 38.53 243.316 38.3299 243.437 38.0586C243.559 37.7873 243.549 37.4757 243.412 37.2122L234.942 21.0455L248.661 28.6758ZM306.766 139.688C301.338 138.995 295.984 142.413 293.351 144.444C293.225 142.205 292.541 138.673 289.843 135.608C286.774 107.558 275.809 81.3372 258.938 61.6855L260.069 56.3784L278.483 69.0087C278.863 69.2698 279.374 69.2267 279.705 68.9055C280.036 68.5847 280.095 68.0755 279.847 67.687L267.587 48.5421L269.25 48.141C289.982 71.7989 303.618 105.082 306.766 139.688ZM113.979 66.9748C118.342 73.4937 122.634 78.6022 126.225 81.5528C109.711 95.4617 102.95 115.463 100.23 128.072C95.8119 127.815 91.3923 129.478 87.3932 132.91C85.8186 134.261 84.5861 135.644 83.7343 136.711C83.1117 134.327 81.5774 130.704 77.8424 128.601C81.7266 109.961 91.1578 84.4142 113.979 66.9748ZM112.911 65.3522C89.7135 83.0203 80.0497 108.819 76.0362 127.776C74.7547 127.313 73.3443 127.044 71.8235 126.98C63.7188 126.641 58.6403 132.011 56.1379 135.669C56.4315 119.164 60.6278 102.65 68.3409 87.7906C76.5803 71.9195 88.7489 58.233 103.566 48.1235C105.612 53.0339 109.09 59.4496 112.911 65.3522ZM122.754 37.5949C124.895 36.6749 127.069 35.8163 129.248 35.0285C130.925 39.4229 132.716 43.3401 134.523 46.5712C132.338 45.1361 129.581 42.9583 126.88 40.8231C125.521 39.749 124.128 38.6482 122.754 37.5949ZM194.395 47.5474C190.048 46.7878 185.491 46.3144 180.828 46.1463C179.509 46.0944 178.107 46.0683 176.662 46.0683C171.029 46.0683 165.559 46.3953 160.294 47.0295C157.367 42.3454 156.876 35.4883 157.62 34.3372C158.077 33.6317 160.535 31.8314 162.329 30.5174C164.509 28.92 165.672 28.0421 166.236 27.4132C169.85 27.1594 173.569 27.0276 177.306 27.0276C184.81 27.0276 192.131 27.7039 199.094 29.0223C197.527 31.0867 194.502 36.5034 194.395 47.5474ZM226.473 91.8779C215.776 76.4699 200.164 67.8444 180.065 66.2223C179.755 63.8139 178.539 52.8188 181.561 48.4719C181.636 48.3643 181.685 48.2466 181.712 48.1259C186.321 48.3338 190.816 48.8391 195.085 49.6371C217.388 53.7882 234.973 65.8449 247.35 85.4723C258.928 103.834 262.997 124.474 264.393 135.142C264.41 135.27 264.451 135.388 264.511 135.493C262.938 137.118 261.781 138.808 261.008 140.118C259.654 136.065 255.714 128.719 244.851 129.039C243.286 129.084 241.799 129.297 240.407 129.661C238.893 119.195 235.243 104.512 226.473 91.8779ZM141.363 74.216L143.461 73.2955C152.625 69.484 163.136 67.6637 174.71 67.8895C176.164 67.9176 177.635 67.984 179.084 68.0862C198.978 69.4883 214.385 77.8653 224.881 92.9835C233.531 105.445 237.083 119.997 238.537 130.272C231.857 132.861 229.421 138.75 228.651 141.377C226.943 140.512 223.514 139.03 219.579 138.718C219.503 135.235 218.851 123.628 213.673 112.332C206.134 95.8846 192.159 86.9937 173.26 86.6206C155.559 86.2703 141.749 92.6623 132.225 105.608C121.919 119.618 120.17 137.157 120.198 139.971C118.484 140.455 117.069 140.982 116.136 141.361C115.943 140.273 115.518 138.654 114.59 136.899C113.096 134.076 109.959 130.346 103.5 128.607C103.058 128.486 102.61 128.39 102.162 128.309C105.519 112.876 115.008 86.3328 141.354 74.2209C141.357 74.2194 141.36 74.2175 141.363 74.216ZM222.718 41.4801C222.703 41.4801 222.689 41.4806 222.674 41.4811C222.688 41.4801 222.7 41.4801 222.711 41.4801H222.718ZM222.662 41.4816C222.194 41.5087 221.794 41.8706 221.739 42.3401C221.639 43.1962 222.366 43.39 223.134 43.5954C223.576 43.7136 224.213 43.8759 224.99 44.0702C226.534 44.4559 228.634 44.967 230.855 45.5034C234.906 46.4806 239.364 47.5402 241.584 48.0663L231.286 61.9341C231.021 62.2907 231.033 62.781 231.313 63.125C231.594 63.469 232.072 63.578 232.475 63.3895L249.12 55.5998L253.344 78.9874C253.426 79.4428 253.82 79.7766 254.282 79.7844H254.298C254.754 79.7844 255.15 79.4651 255.245 79.0174L258.428 64.0809C274.064 82.7843 284.376 107.31 287.659 133.604C285.721 132.168 283.329 131.126 280.509 130.505C277.91 129.932 275.397 129.937 273.02 130.492C270.902 123.034 262.391 109.051 257.728 101.713C255.425 95.9757 252.56 90.1027 248.989 84.4389C236.477 64.5978 218.761 52.3149 196.328 47.9084C196.346 45.2136 196.7 34.4389 201.087 29.6492C201.145 29.5862 201.189 29.5164 201.227 29.4443C211.243 31.5484 220.717 35.0591 229.436 39.9006C223.993 41.2262 222.876 41.4525 222.662 41.4816ZM148.145 51.2083L150.428 50.6904C150.543 50.6642 150.649 50.6138 150.745 50.5504C158.801 48.8648 167.516 48.0063 176.662 48.0063C177.652 48.0063 178.618 48.0193 179.554 48.0445C176.757 53.0765 177.714 63.0329 178.093 66.0881C176.978 66.0237 175.859 65.9733 174.747 65.952C164.289 65.749 154.655 67.1875 146.058 70.2253C145.934 70.202 145.804 70.1996 145.676 70.2277C145.632 70.0736 145.55 69.9278 145.428 69.8066C141.483 65.8614 140.144 60.2785 140.636 58.9762C140.904 58.2606 143.242 56.4922 144.638 55.436C147.145 53.5397 148.037 52.8033 148.202 51.9893C148.264 51.687 148.234 51.4302 148.145 51.2083ZM107.722 44.0266C108.604 46.6099 109.991 49.7432 111.962 53.607C113.395 56.4103 115.484 59.5377 118.172 62.904C123.538 69.6095 129.876 75.4709 131.721 77.1346L127.648 80.2156C124.018 77.2984 119.562 71.9491 115.02 65.0416C110.774 58.5818 106.902 51.3963 104.914 46.2863C104.912 46.2834 104.911 46.2805 104.91 46.2776C104.91 46.2766 104.91 46.2761 104.909 46.2756C104.617 45.5276 104.368 44.8314 104.17 44.2054C103.387 41.7393 103.485 39.5639 104.459 37.7393C105.047 36.639 105.892 35.7839 106.75 35.1279C105.918 37.9549 106.808 41.3643 107.722 44.0266ZM204.933 179.06C205.151 178.38 205.384 177.473 205.498 176.447C205.831 173.46 205.006 170.881 203.112 168.988C199.978 165.853 195.929 166.809 193.462 168.14C192.713 166.043 190.783 163.523 186.881 163.685C183.856 163.818 181.595 165.299 180.341 167.966C179.625 169.491 179.42 171.014 179.363 171.84C178.385 172.473 177.142 173.602 176.097 174.83C174.925 176.207 174.263 177.375 174.106 178.323C174.083 178.33 174.059 178.333 174.037 178.342C172.433 178.959 167.854 180.56 165.945 180.56C164.909 180.56 164.455 181.127 164.276 181.466C163.575 182.792 164.825 185.158 165.695 186.534C164.398 188.502 160.351 195.215 161.826 200.264C162.347 202.052 164.072 204.195 167.071 206.776H149.469C147.216 198.97 145.494 185.699 145.477 185.562C145.472 185.525 145.471 185.515 145.462 185.479C145.441 185.366 145.387 184.84 145.331 184.281C144.224 173.387 142.861 168.145 140.776 166.755C140.47 166.55 140.128 166.411 139.755 166.33C143.448 163.24 147.453 156.283 142.177 146.416C138.642 139.796 131.535 137.357 122.1 139.487C122.166 135.593 124.802 115.521 137.748 102.04C146.615 92.8066 158.555 88.2669 173.222 88.5581C191.584 88.9205 204.601 97.1908 211.912 113.14C216.9 124.022 217.559 135.202 217.639 138.666C213.774 138.764 210.474 140.168 207.823 142.848C202.77 147.961 202.566 152.847 203.285 156.045C204.387 160.953 208.18 164.584 211.554 166.146C210.588 169.306 208.286 179.838 218.556 184.514C217.615 186.749 216.401 188.936 214.931 191.051C214.932 189.618 214.648 187.857 213.814 185.733C211.814 180.635 207.248 179.371 204.933 179.06ZM195.052 185.435C186.272 175.723 182.879 172.575 181.322 171.688C181.393 170.988 181.583 169.881 182.095 168.791C183.036 166.788 184.675 165.722 186.965 165.622C191.155 165.436 191.826 169.355 191.888 169.798C191.932 170.139 192.155 170.43 192.471 170.564C192.787 170.699 193.152 170.654 193.429 170.449C193.625 170.304 198.291 166.907 201.742 170.358C205.3 173.917 202.8 179.284 202.693 179.509C202.546 179.814 202.57 180.172 202.754 180.456C202.938 180.74 203.263 180.915 203.595 180.898C203.851 180.891 209.793 180.792 212.01 186.442C214.021 191.562 212.39 194.029 212.063 194.447C212.026 194.491 212.002 194.517 211.999 194.521C211.841 194.679 211.754 194.877 211.728 195.082C210.414 196.551 208.948 197.996 207.357 199.394C205.938 197.748 200.55 191.517 195.052 185.435ZM185.637 190.702C179.876 183.921 176.408 179.519 175.997 178.731C175.917 177.841 178.599 174.545 180.471 173.422C182.927 174.754 195.15 188.165 205.883 200.651C203.844 202.313 201.604 203.918 199.197 205.438C199.082 205.333 198.947 205.252 198.795 205.212C197.825 204.553 192.976 199.342 185.637 190.702ZM168.852 219.77V240.976H93.4897C93.4524 238.691 93.2973 229.122 93.2736 226.857L93.9272 226.836C95.0769 226.801 96.2198 226.766 97.3559 226.727C101.87 226.564 112.895 225.599 130.122 223.859C143.581 222.499 157.106 221.046 163.97 220.302C166.163 220.064 167.843 219.881 168.852 219.77ZM162.643 212.41C154.273 213.184 152.16 212.24 151.638 211.796C151.363 211.563 150.823 210.852 150.08 208.714H169.457C170.422 209.465 171.475 210.24 172.645 211.06C170.864 211.367 166.785 212.027 162.643 212.41ZM178.693 215.069C178.692 215.069 178.691 215.069 178.691 215.069C178.689 215.067 178.687 215.065 178.685 215.063C178.688 215.065 178.69 215.067 178.693 215.069ZM174.7 210.129C173.055 209.001 171.644 207.972 170.383 206.981C165.482 203.155 164.037 200.922 163.687 199.72C162.24 194.77 167.595 187.182 167.649 187.106C167.885 186.776 167.889 186.333 167.661 185.997C166.763 184.679 166.028 183.118 165.992 182.497C168.534 182.472 173.891 180.471 174.648 180.183C176.248 182.555 181.139 188.394 183.759 191.484C181.899 192.439 179.083 195.122 180.289 199.349C180.938 201.615 182.015 203.114 183.489 203.806C183.785 203.945 184.069 204.036 184.329 204.094C183.958 205.975 183.64 209.646 185.913 212.303C184.311 212.982 182.671 213.63 181.013 214.24C180.335 213.817 177.421 211.99 174.7 210.129ZM186.27 202.549C186.045 202.292 185.69 202.173 185.353 202.237C185.267 202.251 183.232 202.585 182.153 198.816C181.039 194.913 184.661 193.194 184.815 193.123C184.896 193.086 184.966 193.036 185.032 192.982C192.8 202.096 195.971 205.381 197.413 206.529C194.461 208.288 191.237 209.95 187.803 211.483C184.827 208.736 186.457 203.537 186.474 203.486C186.579 203.161 186.495 202.807 186.27 202.549ZM307.492 141.793C309.041 142.164 310.469 142.981 311.733 144.22C319.257 151.62 311.979 160.652 311.666 161.031C311.331 161.436 311.382 162.035 311.777 162.381C312.068 162.634 318.835 168.688 313.268 176.905C311.963 178.829 310.219 180.008 308.084 180.408C302.446 181.466 295.791 176.93 295.725 176.885C295.494 176.725 295.205 176.672 294.933 176.744C294.661 176.813 294.432 176.998 294.307 177.249C294.253 177.357 288.852 187.984 281.379 186.94C279.825 186.722 278.342 186.222 276.962 185.459C276.848 185.301 276.686 185.175 276.486 185.109C276.43 185.091 276.373 185.079 276.316 185.072C272.338 182.557 270.581 178.505 270.564 178.465C270.424 178.131 270.109 177.903 269.748 177.874C269.38 177.844 269.039 178.02 268.847 178.328C268.815 178.381 265.513 183.621 260.252 186.342C257.978 187.52 253.709 188.071 249.71 186.498C246.03 185.05 243.286 182.048 241.775 177.815C241.653 177.473 241.349 177.229 240.988 177.182C240.946 177.176 240.904 177.173 240.862 177.173C240.546 177.173 240.246 177.328 240.064 177.592C239.799 177.977 233.439 186.961 222 183.717C221.255 183.504 220.559 183.265 219.932 183.006C208.792 178.433 213.456 166.468 213.66 165.962C213.759 165.718 213.754 165.445 213.647 165.204C213.54 164.964 213.34 164.778 213.093 164.688C209.911 163.529 206.169 160.043 205.176 155.621C204.297 151.71 205.689 147.764 209.201 144.211C211.686 141.699 214.842 140.485 218.59 140.603C223.983 140.762 228.739 143.629 228.787 143.658C229.06 143.825 229.4 143.845 229.692 143.714C229.984 143.581 230.192 143.312 230.247 142.997C230.307 142.651 231.817 134.514 239.911 131.822C241.43 131.312 243.11 131.028 244.907 130.976C257.994 130.588 259.672 142.448 259.736 142.951C259.79 143.388 260.133 143.733 260.569 143.792C261.003 143.847 261.426 143.607 261.594 143.2C261.609 143.163 263.187 139.397 266.486 136.263C270.382 132.567 274.96 131.265 280.092 132.397C283.547 133.158 286.266 134.587 288.176 136.646C292.07 140.831 291.387 146.368 291.38 146.421C291.324 146.828 291.531 147.226 291.897 147.414C292.262 147.603 292.706 147.539 293.005 147.258C293.081 147.186 300.607 140.187 307.402 141.766C307.431 141.777 307.462 141.785 307.492 141.793ZM334.041 268.687L283.77 207.815C283.586 207.592 283.312 207.464 283.023 207.464H267.414C271.261 201.49 274.386 194.788 276.717 187.514C278.105 188.19 279.577 188.644 281.11 188.859C288.581 189.912 293.904 181.882 295.529 179.056C297.68 180.353 303.264 183.282 308.435 182.314C311.099 181.816 313.265 180.362 314.872 177.993C320.308 169.968 315.513 163.544 313.684 161.556C315.438 159.021 320.577 150.2 313.091 142.838C311.791 141.563 310.336 140.658 308.756 140.139C305.713 105.279 292.118 71.6831 271.368 47.6293L286.1 44.0741C286.529 43.9704 286.834 43.5896 286.841 43.1477C286.848 42.7059 286.555 42.3154 286.13 42.1976L267.634 37.0974C268.806 35.4588 271.081 32.2674 273.321 29.0581C280.054 19.4074 279.944 19.0717 279.747 18.4627C279.651 18.1695 279.401 17.9157 279.109 17.8183C278.604 17.6516 278.034 17.4612 260.443 27.7068C260.019 25.6758 259.158 21.5954 258.238 17.5276C255.516 5.48835 255.009 5.29552 254.365 5.05182C254.03 4.92439 253.659 4.97623 253.37 5.19232C252.986 5.48156 252.509 5.84106 250.428 15.7287C249.54 19.9447 248.734 24.1652 248.375 26.2994L233.05 17.7752C232.951 17.7209 232.847 17.687 232.74 17.6691C216.305 9.72284 197.929 5.68554 178.096 5.68554C166.406 5.68554 155.054 6.77662 144.334 8.91761C139.528 3.39968 135.754 -0.0499266 133.042 0.853658C132.238 0.927786 128.047 1.45443 125.369 4.57846C123.665 6.56635 122.946 9.15937 123.231 12.2882C123.299 13.0082 123.399 13.7965 123.528 14.6385C99.0754 23.3401 78.0996 38.4995 62.762 58.5504C58.5711 55.1138 56.2721 49.8861 55.9301 42.9893C55.9335 42.0441 55.8797 41.4694 55.8773 41.4452C55.8274 40.9287 55.3816 40.5426 54.8613 40.5707C54.3433 40.5978 53.9388 41.0285 53.9436 41.5474C53.949 42.0915 53.9654 42.578 53.9921 43.0368C53.9805 45.4845 53.5764 50.2228 51.0173 54.591C47.8404 60.013 42.371 63.1211 34.76 63.8289C34.2658 63.875 33.887 64.2868 33.8811 64.7829C33.8758 65.279 34.246 65.6991 34.7387 65.7563C34.8487 65.7693 45.6176 67.138 50.9393 77.0281C42.0725 93.812 36.7998 112.642 35.6946 131.525C35.6936 131.539 35.6961 131.552 35.6961 131.566C35.6345 131.6 35.573 131.628 35.5115 131.664C26.1176 136.975 29.4669 147.881 30.8012 151.28C28.526 152.062 23.2348 154.296 20.793 158.804C19.3201 161.523 19.137 164.592 20.2484 167.924C21.6442 172.114 24.0696 174.992 27.4577 176.478C32.6176 178.742 38.5076 177.115 40.9451 176.246C41.7043 179.64 44.7891 188.885 55.8632 188.422C64.9252 188.052 70.3467 182.067 72.3855 179.289C74.2571 182.358 79.4775 189.165 88.9722 189.165C89.4863 189.165 90.0144 189.145 90.5541 189.103C97.4625 188.573 100.795 185.083 102.113 183.186C103.379 184.33 105.979 186.066 110.495 186.686L111.269 190.471C111.459 191.408 112.004 192.216 112.803 192.746C113.397 193.138 114.078 193.342 114.773 193.342C115.014 193.342 115.257 193.317 115.499 193.268L121.741 191.992C122.061 193.478 123.589 200.536 125.166 207.464H52.1752C51.8865 207.464 51.6122 207.592 51.4281 207.815L1.15683 268.687C0.917975 268.977 0.867588 269.378 1.02747 269.717C1.18687 270.057 1.52893 270.274 1.90393 270.274H167.427C167.486 270.274 167.543 270.266 167.599 270.256C167.655 270.266 167.712 270.274 167.771 270.274H333.294C333.67 270.274 334.011 270.057 334.171 269.717C334.331 269.378 334.28 268.977 334.041 268.687Z" fill="#700051"/>
</svg>
