<svg width="251" height="325" viewBox="0 0 251 325" fill="none" xmlns="http://www.w3.org/2000/svg">
<path d="M241.105 66.4364C240.783 66.1201 240.722 65.6234 240.958 65.2392L245.408 57.9829L236.749 59.2484C236.489 59.2862 236.224 59.2165 236.015 59.0546C235.807 58.8933 235.674 58.6535 235.646 58.3914L234.771 50.1055L228.01 56.466C227.818 56.6462 227.567 56.7388 227.299 56.7281C227.036 56.7155 226.79 56.5963 226.617 56.3982L220.606 49.5266L220.135 58.1002C220.12 58.3836 219.981 58.6462 219.755 58.8182C219.529 58.9902 219.238 59.0546 218.961 58.9941C215.839 58.3134 212.414 57.6201 210.66 57.3303C211.22 58.9955 212.48 62.2223 213.683 65.1336C213.86 65.5643 213.706 66.0605 213.316 66.3153L206.963 70.4573L214.823 73.5052C215.283 73.6835 215.536 74.1782 215.41 74.6554L213.495 81.9267L221.207 78.8056C221.324 78.7586 221.448 78.7349 221.571 78.7349C221.709 78.7349 221.847 78.7644 221.975 78.8231C222.217 78.9345 222.403 79.1409 222.489 79.3938L225.013 86.8642L230.53 79.1409C230.84 78.7077 231.439 78.605 231.875 78.9107L238.453 83.5265L238.65 75.7068C238.66 75.2853 238.942 74.9185 239.347 74.8008L247.266 72.4965L241.105 66.4364Z" fill="#FE874E"/>
<path d="M203.787 302.025C203.781 301.932 203.784 301.837 203.807 301.741C203.848 301.571 207.897 284.608 209.058 274.918C210.144 265.899 212.844 256.495 215.225 253.24C211.886 251.165 208.485 248.998 205.575 246.927C199.98 253.631 199.579 265.529 199.553 266.808C199.665 267.294 199.842 268.607 199.49 271.395C199.23 273.503 198.718 276.043 197.969 278.943C197.559 280.519 197.098 282.148 196.596 283.786C196.303 284.741 196.002 285.62 195.702 286.402C194.052 290.748 192.037 293.459 189.716 294.458C189.002 294.765 188.371 294.857 187.873 294.857C187.408 294.857 187.062 294.777 186.865 294.718C184.318 301.483 180.892 306.592 178.59 310.02C177.332 311.893 176.246 313.51 176.138 314.219C176.138 314.221 176.139 314.223 176.138 314.225C179.348 314.116 193.254 312.947 203.787 302.025Z" fill="white"/>
<path d="M189.064 257.787C189.476 257.851 192.906 258.542 197.745 264.299C198.096 260.004 199.377 251.419 204.009 245.787C199.29 242.252 190.913 235.257 182.804 227.726L164.117 246.9C171.743 253.088 179.406 258.941 181.969 260.887C183.148 259.251 185.78 257.276 189.064 257.787Z" fill="#D8375D"/>
<path d="M204.987 129.064C200.851 133.201 196.48 136.904 191.972 140.109C193.094 140.861 194.05 141.798 194.82 142.913C195.789 144.322 196.77 146.674 197.807 150.078C207.244 144.85 211.533 139.99 211.576 139.94C211.676 139.826 211.797 139.744 211.928 139.688C209.079 133.165 206.203 130.136 204.987 129.064Z" fill="#FFB0A8"/>
<path d="M198.617 180.259C198.067 180.162 197.477 180.089 196.843 180.045C194.161 179.868 191.624 181.959 191.076 182.443L191.26 187.098C191.264 187.292 191.289 191.35 187.667 194.657C187.275 197.942 186.742 201.296 186.081 204.639C188.389 204.657 190.575 204.673 192.592 204.687L195.492 204.707C195.454 204.565 195.445 204.413 195.478 204.259C197.251 195.991 198.302 187.923 198.617 180.259Z" fill="#FFB0A8"/>
<path d="M187.873 104.859L166.35 73.8482C166.892 75.137 167.523 76.5818 168.222 78.1825C171.483 85.6496 175.911 95.8022 177.581 104.499C177.662 104.555 177.737 104.619 177.8 104.699L184.334 113.07L188.104 105.087C188.018 105.024 187.937 104.952 187.873 104.859Z" fill="#FFB0A8"/>
<path d="M173.624 139.941C172.235 139.987 170.782 140.157 169.305 140.447C161.599 141.951 155.263 149.773 152.782 153.249C155.361 152.965 159.82 152.359 162.652 151.336C163.782 150.928 164.864 150.758 165.866 150.831C165.877 150.831 165.888 150.833 165.899 150.834C165.905 150.834 165.909 150.834 165.914 150.835C168.081 151.005 171.735 152.482 172.247 160.368C172.252 160.438 172.257 160.52 172.261 160.605L172.271 160.784C172.272 160.798 172.272 160.814 172.273 160.828C172.273 160.831 172.273 160.833 172.273 160.835C172.625 168.303 171.008 189.986 170.725 193.687C172.036 194.691 176.735 197.768 182.602 195.496C183.962 194.972 185.145 194.284 186.12 193.449C189.323 190.714 189.325 187.295 189.323 187.151L188.238 159.747C188.217 159.213 188.633 158.762 189.168 158.741C189.703 158.718 190.154 159.136 190.175 159.67L190.35 164.101L197.17 178.129C198.147 178.205 199.048 178.339 199.848 178.534C199.85 178.534 199.851 178.534 199.853 178.535C200.737 178.744 201.451 179.002 202.016 179.254C202.004 179.184 201.992 179.11 201.979 179.033C201.215 174.491 199.427 163.854 197.206 155.142C196.862 153.794 196.572 152.725 196.291 151.778C196.291 151.777 196.291 151.777 196.291 151.776C195.197 147.991 194.166 145.381 193.224 144.013C192.349 142.747 191.181 141.753 189.753 141.06C187.602 140.023 185.187 139.821 183.276 139.886C184.509 140.47 185.673 141.184 186.753 142.033C189.51 144.198 191.768 147.217 193.463 151.009C193.682 151.497 193.463 152.071 192.974 152.289C192.486 152.508 191.912 152.289 191.694 151.8C190.128 148.299 188.063 145.526 185.556 143.557C183.745 142.134 181.674 141.118 179.402 140.536C177.619 140.071 175.674 139.87 173.624 139.941Z" fill="#FE874E"/>
<path d="M233.309 265.321C232.631 264.708 231.807 264.041 230.823 263.304C230.766 263.376 230.702 263.444 230.624 263.499C227.968 265.377 224.394 271.776 216.562 285.796C215.043 288.515 213.359 291.531 211.481 294.873C209.844 297.785 207.897 300.466 205.692 302.843C195.211 314.127 181.644 315.87 177.017 316.129C178.823 318.184 182.992 320.202 186.418 320.006C190.817 319.75 218.534 311.207 235.489 279.589C235.764 278.681 238.283 269.817 233.309 265.321Z" fill="#F7F6F6"/>
<path d="M170.018 125.165C167.122 122.469 163.451 121.739 159.109 122.998C155.753 123.971 153.24 125.817 153.214 125.836C152.934 126.043 152.563 126.085 152.245 125.944C151.926 125.802 151.707 125.501 151.672 125.154C151.667 125.101 151.069 119.679 147.172 116.794C144.843 115.069 141.764 114.567 138.022 115.301C134.851 115.926 132.475 117.309 130.962 119.412C127.497 124.223 129.482 131.338 129.503 131.409C129.546 131.56 129.547 131.713 129.519 131.857C129.757 132.389 129.988 132.935 130.2 133.501C134.131 143.855 137.635 153.872 137.669 153.973C137.681 154.004 137.684 154.035 137.692 154.067C141.89 154.248 146.029 154.15 150.088 153.771C150.498 153.117 152.379 150.211 155.341 147.058C159.815 142.297 164.388 139.432 168.933 138.545C170.188 138.299 171.427 138.138 172.632 138.055C172.652 137.975 172.679 137.896 172.721 137.821C172.722 137.82 172.797 137.682 172.903 137.437C172.912 137.323 172.938 137.208 172.989 137.098L173.211 136.625C173.97 134.385 174.634 130.073 170.778 125.926C170.542 125.672 170.294 125.423 170.018 125.165Z" fill="#FF4238"/>
<path d="M96.6194 96.2552C97.9523 97.3792 99.2265 98.2358 100.207 98.6665C100.886 98.9625 102.22 99.792 105.264 101.814C105.371 101.861 105.467 101.924 105.549 102.003C106.337 102.526 107.194 103.098 108.116 103.712C112.602 106.703 118.623 110.948 125.03 114.87C125.669 115.261 125.835 115.228 125.999 115.554C127.264 116.322 128.588 116.793 129.944 117.588C131.748 115.465 134.329 114.053 137.648 113.4C141.955 112.555 145.552 113.175 148.339 115.246C151.582 117.655 152.857 121.387 153.335 123.457C156.481 121.596 164.823 117.68 171.34 123.747C171.404 123.807 171.462 123.866 171.524 123.926C173.317 122.208 174.632 120.013 175.43 117.383C176.026 115.421 176.329 113.227 176.329 110.862C176.329 109.27 176.152 107.472 175.805 105.518C174.282 96.901 169.753 86.5304 166.445 78.9577C165.434 76.6408 164.56 74.6394 163.892 72.9693H163.882C161.413 72.9693 147.788 78.5216 139.214 82.2615L146.794 100.751C146.938 101.104 146.863 101.508 146.601 101.785C146.415 101.981 146.159 102.088 145.897 102.088C145.791 102.088 145.684 102.07 145.58 102.034C144.835 101.776 127.3 95.6704 123.823 92.4441C121.355 90.1495 120.415 87.6762 119.116 84.2537C118.538 82.7319 117.882 81.0071 116.982 79.0183C114.882 74.3831 112.719 71.9906 111.817 71.1205L108.6 75.4645C108.573 75.4998 108.542 75.5299 108.512 75.5609C108.501 75.5725 108.491 75.5861 108.479 75.5972C108.424 75.6491 108.364 75.6922 108.3 75.7285C108.284 75.7372 108.268 75.7435 108.252 75.7513C108.201 75.7765 108.148 75.7978 108.094 75.8138C108.072 75.8201 108.051 75.8259 108.028 75.8308C107.972 75.8429 107.916 75.8501 107.859 75.8521C107.846 75.8526 107.833 75.8569 107.82 75.8569C107.816 75.8569 107.812 75.8555 107.808 75.8555C107.732 75.8545 107.657 75.8438 107.582 75.8249C107.563 75.8201 107.545 75.8123 107.527 75.8065C107.468 75.7876 107.411 75.7629 107.355 75.7324C107.343 75.7256 107.329 75.7232 107.317 75.7154C107.307 75.7096 107.299 75.7014 107.289 75.6951C107.281 75.6893 107.271 75.6854 107.262 75.6791L99.4309 70.1476C98.8587 70.0992 97.99 70.5454 96.9983 71.3942C93.1955 74.6476 88.9149 82.558 89.2352 85.7406C89.2841 86.2154 89.4125 86.7392 89.617 87.2963C90.6005 89.9761 93.3491 93.4921 96.6194 96.2552Z" fill="#D8375D"/>
<path d="M143.31 50.1612C142.964 50.0905 142.619 50.0304 142.27 49.9795C128.612 47.934 119.534 60.6951 119.445 60.8245L112.98 69.5512C113.944 70.4369 116.392 73.0183 118.747 78.2193C119.673 80.263 120.339 82.0178 120.927 83.5662C122.179 86.8613 123.006 89.0386 125.143 91.0246C126.181 91.9882 128.899 93.3487 132.114 94.7494C135.55 92.6951 135.764 83.1786 135.667 78.7169L134.051 74.7765C133.848 74.2814 134.085 73.715 134.58 73.512C135.077 73.3095 135.641 73.5459 135.845 74.0411L138.479 80.4679C140.826 79.4451 158.196 71.9199 163.15 71.1074C162.552 69.6089 161.892 67.9844 161.149 66.355L160.441 65.3356C160.279 65.1016 160.237 64.8221 160.296 64.5648C157.281 58.513 152.551 51.9534 143.31 50.1612Z" fill="white"/>
<path d="M127.004 33.8075C128.4 34.8642 129.72 35.8623 129.72 37.3541C129.72 39.8269 124.81 48.7048 123.825 50.4592C123.823 50.4626 123.82 50.465 123.818 50.4689C123.814 50.4752 123.812 50.4824 123.808 50.4887L119.299 57.8957C122.491 54.2077 130.821 46.3235 142.518 48.058C142.441 47.0047 142.322 45.3385 142.26 44.3172L134.141 44.0982C133.861 44.0905 133.597 43.9616 133.419 43.7441C133.24 43.5275 133.165 43.2436 133.212 42.9665L135.736 28.1651C135.792 27.8385 136.01 27.5629 136.316 27.4345C136.621 27.3071 136.971 27.3429 137.243 27.5309C140.442 29.746 142.676 27.6385 143.723 26.1854C145.538 23.6636 145.979 20.0386 144.595 19.0018C141.812 16.9146 137.305 22.2145 137.26 22.2683C137.076 22.4907 136.803 22.6196 136.515 22.6205C136.25 22.6162 135.953 22.4936 135.768 22.2717C132.973 18.918 132.526 12.3042 132.496 8.84097C130.815 10.669 129.623 13.3109 128.885 16.8448C128.774 17.3822 128.684 17.8749 128.606 18.3027C128.454 19.138 128.353 19.6903 128.195 20.0512C127.977 20.5667 127.495 20.9912 126.829 21.5784C126.504 21.8642 126.137 22.1874 125.771 22.5517C124.457 23.8623 122.998 25.7935 123.4 29.1176C123.66 31.278 125.436 32.622 127.004 33.8075Z" fill="#D8375D"/>
<path d="M125.548 20.1244C125.9 19.8148 126.337 19.4292 126.421 19.2756C126.476 19.1482 126.561 18.7073 126.646 18.2509C125.808 18.7582 124.737 19.3938 123.956 19.8139C124.217 20.0692 124.573 20.3773 124.944 20.6666C125.155 20.4723 125.359 20.2906 125.548 20.1244Z" fill="#D8375D"/>
<path d="M126.943 204.121C132.966 188.119 129.344 168.574 128.511 164.625C125.267 164.384 122.035 164.031 118.871 163.576C119.229 165.671 120.039 170.91 120.404 177.269C121.035 188.289 120.103 197.301 117.638 204.068L123.708 204.12C124.772 204.131 125.849 204.141 126.936 204.15C126.939 204.14 126.94 204.13 126.943 204.121Z" fill="#FFB0A8"/>
<path d="M129.114 162.728C129.282 162.696 129.45 162.71 129.605 162.762C137.279 163.272 145.281 163.197 153.396 162.532C159.245 162.051 164.919 161.222 170.28 160.074C170.046 157.296 169.141 153.125 165.858 152.784C158.181 154.985 150.092 156.097 141.744 156.097C140.063 156.097 138.371 156.052 136.67 155.962C123.561 155.264 109.959 151.944 96.2391 146.094C89.9906 143.427 84.742 140.66 80.8162 138.392C83.2396 141.467 86.1199 145.983 88.7997 152.369C88.914 152.425 89.0211 152.494 89.1064 152.592C90.1597 153.393 100.291 158.771 117.925 161.484C121.579 162.044 125.342 162.461 129.114 162.728Z" fill="#FFB0A8"/>
<path d="M107.532 73.4979L119.133 54.4422L101.408 69.1718L107.532 73.4979Z" fill="#FFB0A8"/>
<path d="M135.608 153.95C134.766 151.558 131.733 142.998 128.387 134.185C128.123 133.482 127.838 132.805 127.536 132.168C124.543 125.839 121.232 125.923 120.397 126.06C120.25 129.248 117.385 132.115 112.328 134.14C109.865 135.127 107.464 135.544 105.323 135.544C102.507 135.544 100.138 134.822 98.6563 133.722C98.3152 134.078 97.3007 135.314 97.0342 137.639C96.8191 139.486 97.1306 141.576 97.9606 143.854C98.0643 144.137 98.0226 144.436 97.8802 144.677C110.685 150.036 123.366 153.152 135.608 153.95Z" fill="#F7F6F6"/>
<path d="M108.484 120.728L106.74 115.128C106.736 115.119 106.734 115.109 106.731 115.099L106.409 114.068C105.96 114.411 105.42 114.685 104.815 114.853C104.378 114.974 103.945 115.032 103.53 115.032C103.293 115.032 103.065 115.007 102.843 114.97L105.229 121.892L108.484 120.728Z" fill="white"/>
<path d="M102.251 112.433L102.259 112.483C102.392 112.954 103.289 113.264 104.297 112.985C105.181 112.74 105.723 112.175 105.802 111.745C105.819 111.657 105.816 111.589 105.794 111.51C105.775 111.44 105.728 111.364 105.657 111.29C105.642 111.277 105.627 111.265 105.612 111.252C105.403 111.066 105.011 110.92 104.517 110.92C104.33 110.92 104.128 110.941 103.915 110.989C103.858 111.001 103.816 111.01 103.77 111.023C102.784 111.296 102.191 111.972 102.251 112.433Z" fill="white"/>
<path d="M105.632 104.519L104.859 109.163C105.54 109.205 106.168 109.409 106.675 109.76C106.71 109.772 106.746 109.78 106.779 109.796C106.992 109.894 107.155 110.068 107.25 110.279C107.472 110.549 107.633 110.848 107.722 111.174C107.796 111.452 107.822 111.729 107.8 112.004L108.411 113.964C111.373 113.772 114.075 114.372 116.016 115.654C116.524 115.438 117.65 115.327 121.869 115.104C116.285 111.62 111.056 108.135 107.097 105.495C106.59 105.157 106.102 104.831 105.632 104.519Z" fill="white"/>
<path d="M87.5954 87.3463C87.452 86.8584 87.3536 86.386 87.3071 85.9364C86.8948 81.8385 91.7858 73.3027 95.7383 69.9214C97.1434 68.7193 98.4142 68.1505 99.5251 68.2164L101.166 66.853C101.121 66.7808 101.078 66.7062 101.053 66.6205C101.007 66.463 96.3541 50.7857 92.5547 44.5338C91.4873 42.7818 88.4825 40.3802 83.3691 37.1927C81.9728 36.3211 80.5624 35.4785 79.3502 34.7561C78.8716 34.4727 78.3653 34.5691 77.8464 35.0425C76.7562 36.0376 76.1831 38.2329 77.1114 40.184C77.9936 42.0313 80.9941 44.1636 83.6414 46.0449C85.6879 47.4994 87.4554 48.7552 88.281 49.8748C88.2848 49.8807 88.2873 49.8855 88.2916 49.8913C88.2979 49.9005 88.3037 49.9107 88.31 49.9204C88.4786 50.1592 88.6036 50.3787 88.6884 50.5934C88.7873 50.8443 88.7737 51.1108 88.6729 51.3395L89.4142 54.9446C89.5813 55.7595 89.388 56.6055 88.8842 57.2673C88.3793 57.9306 87.6128 58.3429 86.781 58.3986L85.8929 58.4572L78.7582 67.3477C81.4893 75.4175 85.2882 86.6408 86.2892 89.5992C86.7504 88.8026 87.186 88.0507 87.5954 87.3463Z" fill="#D8375D"/>
<path d="M92.2435 104.858C96.0517 111.708 99.4804 114.926 100.861 115.165L100.107 112.98C99.9804 112.612 100.088 112.218 100.354 111.964C100.548 110.842 101.476 109.822 102.784 109.314L103.807 103.173C101.86 101.883 100.061 100.717 99.4301 100.442C98.4145 99.9959 97.2169 99.227 95.9373 98.2028C95.3729 99.1413 93.9315 101.538 92.071 104.639C92.1365 104.703 92.197 104.774 92.2435 104.858Z" fill="#D8375D"/>
<path d="M82.6854 116.508C85.1394 112.414 87.7644 108.04 89.9267 104.447C92.2528 100.568 94.0324 97.6099 94.4466 96.9209C92.3536 94.9999 89.9592 92.2945 88.5343 89.5905C88.3313 89.9408 88.1259 90.2954 87.9117 90.6651L87.4771 91.4156C85.0469 95.6355 81.8759 101.223 77.5164 108.968L82.6854 116.508Z" fill="#FFB0A8"/>
<path d="M87.342 56.0936C87.5096 55.8741 87.5712 55.6047 87.5159 55.3349L86.6002 50.8814C85.8953 50.0282 84.2587 48.861 82.5188 47.6251C79.6797 45.6072 76.4612 43.3203 75.3619 41.018C73.9975 38.1498 74.9505 35.0616 76.5397 33.6115C77.6938 32.5587 79.1148 32.3639 80.3401 33.0907C81.2509 33.6328 82.2718 34.2428 83.3173 34.8828L80.9171 23.1687C80.8338 22.7632 80.4849 22.4545 80.0678 22.4187L62.905 20.9943C62.6153 20.9705 62.3314 21.082 62.1327 21.3C61.9331 21.519 61.8483 21.8116 61.9002 22.1033L68.0533 56.8523C68.1371 57.3247 68.5537 57.6556 69.0421 57.628L86.6521 56.4652C86.9282 56.4468 87.1739 56.3145 87.342 56.0936Z" fill="#F7F6F6"/>
<path d="M4.16162 283.889C5.66647 286.718 12.7861 298.721 27.2188 303.42C27.2949 303.377 27.3758 303.339 27.4649 303.317C27.4649 303.317 27.5172 303.304 27.6141 303.285C29.3607 302.895 45.0957 299.356 53.9034 296.303C62.4867 293.335 72.1228 291.649 76.0943 292.365C76.4974 288.464 76.9562 284.462 77.5487 280.927C69.0555 278.823 58.3292 283.607 57.0429 284.203C56.6621 284.512 55.5652 285.248 52.8951 286.154C50.8893 286.846 48.3758 287.497 45.4286 288.087C43.931 288.392 42.2638 288.692 40.4775 288.976C39.494 289.129 38.5725 289.244 37.7357 289.318C36.8118 289.4 35.9392 289.442 35.1204 289.442C31.8346 289.442 29.4014 288.776 27.8685 287.455C26.7333 286.476 26.4543 285.429 26.3855 285.006C19.1815 285.678 13.0851 284.831 8.99495 284.258C6.76821 283.946 4.84476 283.679 4.16162 283.889Z" fill="white"/>
<path d="M73.1406 313.915C73.3954 313.04 73.6343 312.012 73.8649 310.798C73.7758 310.778 73.6881 310.749 73.6038 310.703C70.7545 309.135 63.4405 308.72 47.4153 307.811C44.3044 307.635 40.8533 307.439 37.0229 307.212C33.7157 307.014 30.487 306.446 27.426 305.525C12.6096 301.053 5.08395 289.561 2.82959 285.513C1.76709 288.035 1.77484 292.665 3.45361 295.665C5.60865 299.508 25.4197 320.698 61.2646 322.114C62.2017 321.964 71.2709 320.352 73.1406 313.915Z" fill="#F7F6F6"/>
<path d="M74.0272 193.984C74.3174 194.133 74.504 194.405 74.5471 194.708C78.2302 199.692 82.3421 202.676 86.7777 203.573C87.5795 203.64 89.534 203.574 91.2457 201.71C93.8082 198.919 96.1876 191.838 92.9715 173.955C91.6251 166.473 89.7012 159.656 87.2535 153.691C82.1338 141.211 76.114 135.917 74.502 134.662C72.033 139.28 69.7787 141.816 67.6222 142.395C67.301 142.481 66.9802 142.524 66.6634 142.524C65.9817 142.524 65.3179 142.326 64.7065 141.935C63.1949 140.968 62.2782 139.514 61.9739 137.68C60.0892 143.116 59.2065 152.755 63.6406 169.382C66.4487 179.92 69.9429 188.188 74.0272 193.984Z" fill="#FFB1A8"/>
<path d="M64.3559 132.943C64.3448 132.996 64.3293 133.047 64.3089 133.098C63.7174 135.096 63.1428 138.634 65.7508 140.303C66.1927 140.585 66.6282 140.655 67.12 140.523C68.2508 140.219 70.1781 138.727 72.964 133.424C72.9616 133.422 72.9533 133.416 72.9519 133.415C72.9514 133.416 70.307 131.518 66.4388 128.745C65.5245 130.388 64.9475 131.43 64.8366 131.63C64.7842 131.749 64.573 132.244 64.3559 132.943Z" fill="#FFB0A8"/>
<path d="M64.991 50.6717C64.5005 50.8234 63.8386 51.1256 63.5475 51.5981C63.4385 51.7743 63.3111 52.0718 63.4604 52.617C63.8025 53.8707 64.9186 54.3593 65.6776 54.5496L64.991 50.6717Z" fill="#D8375D"/>
<path d="M64.6374 48.6753L63.7178 43.4834C62.5773 44.3003 61.0002 45.7644 61.4939 46.9732C62.0952 48.4383 63.7798 48.6612 64.6374 48.6753Z" fill="#D8375D"/>
<path d="M63.292 41.0765L62.6462 37.4278C62.0625 37.3742 61.0504 37.3826 60.554 37.8163C60.4091 37.9428 60.2195 38.1781 60.243 38.759C60.3028 40.2447 62.2004 40.8495 63.292 41.0765Z" fill="#D8375D"/>
<path d="M62.0508 34.0677L61.2611 29.6079C61.1666 29.5769 61.0741 29.5352 60.9893 29.4737C60.7102 29.2722 59.9825 28.8923 59.5101 28.9955C59.3827 29.0236 59.2141 29.0958 59.0392 29.4073C58.7853 29.8579 58.9006 30.4301 59.0416 30.8313C59.4718 32.0561 60.6584 33.307 62.0508 34.0677Z" fill="#D8375D"/>
<path d="M19.946 78.8744C20.0226 80.7024 23.2145 80.8661 23.2469 80.8671H23.2503C27.7522 80.8671 31.1679 82.0221 33.369 84.2997C36.5827 87.6258 36.4146 92.5352 36.3244 95.1728C36.3065 95.6878 36.2915 96.1326 36.3036 96.4495C36.3792 98.4834 37.5274 98.6336 37.7571 98.6432C37.7794 98.6442 37.8002 98.65 37.8225 98.6525C37.8491 98.65 37.8748 98.6437 37.9024 98.6432C38.1384 98.6326 39.2789 98.4746 39.3574 96.4495C39.3695 96.1326 39.3545 95.6878 39.3365 95.1728C39.2464 92.5352 39.0783 87.6258 42.292 84.2997C44.4935 82.0216 47.9107 80.8666 52.4475 80.8666C52.4441 80.8661 55.6335 80.7169 55.7106 78.8744C55.6365 77.0289 52.4441 76.8802 52.4116 76.8787H52.4078C47.9073 76.8787 44.4921 75.7237 42.291 73.4461C39.0783 70.1215 39.2464 65.214 39.3365 62.5779C39.3545 62.0633 39.3695 61.6186 39.3574 61.3012C39.2784 59.2634 38.1287 59.1123 37.8995 59.103C37.8768 59.1021 37.8559 59.0963 37.8341 59.0938C37.807 59.0963 37.7813 59.1026 37.7542 59.103C37.5182 59.1137 36.3787 59.2712 36.3036 61.2998C36.2915 61.6185 36.3065 62.0633 36.3244 62.5779C36.4146 65.214 36.5827 70.1215 33.3705 73.4461C31.1689 75.7242 27.7513 76.8792 23.2135 76.8792C23.2164 76.8802 20.0202 77.0289 19.946 78.8744Z" fill="#FE874E"/>
<path d="M59.8996 242.177C57.5314 252.234 55.3715 262.483 54.6787 265.807C56.6671 266.152 59.5852 267.655 60.5634 270.828C61.4587 273.747 59.7853 278.478 58.4636 281.506C62.4728 279.951 70.8211 277.319 77.9006 279.02C78.999 273.788 82.2906 262.509 86.2 250.613L59.8996 242.177Z" fill="#D8375D"/>
<path d="M55.7258 78.7227C55.7267 78.7164 55.7282 78.7101 55.7292 78.7038C55.7282 78.7101 55.7267 78.7164 55.7258 78.7227ZM33.3706 73.4461C36.5828 70.1219 36.4152 65.2145 36.3246 62.5779C36.3067 62.0633 36.2917 61.6186 36.3043 61.3002C36.3794 59.2717 37.5184 59.1137 37.7544 59.1031C37.782 59.1026 37.8077 59.0963 37.8343 59.0938C37.8561 59.0963 37.8774 59.1021 37.8997 59.1031C38.1294 59.1123 39.2791 59.2634 39.3576 61.3012C39.3702 61.6186 39.3546 62.0633 39.3372 62.5779C39.2466 65.2145 39.079 70.1219 42.2912 73.4461C44.4922 75.7237 47.9079 76.8787 52.4079 76.8787H52.4123C52.4443 76.8802 55.6371 77.0289 55.7108 78.8744C55.6342 80.7169 52.4448 80.8661 52.4482 80.8666C47.9109 80.8666 44.4937 82.0221 42.2922 84.3002C39.079 87.6258 39.2466 92.5352 39.3372 95.1733C39.3546 95.6878 39.3702 96.1326 39.3576 96.4495C39.2791 98.4751 38.139 98.6326 37.9026 98.6433C37.875 98.6437 37.8493 98.65 37.8227 98.6525C37.8009 98.65 37.7796 98.6442 37.7573 98.6433C37.5276 98.6341 36.3798 98.4839 36.3043 96.4495C36.2917 96.1326 36.3067 95.6878 36.3246 95.1733C36.4152 92.5352 36.5828 87.6258 33.3692 84.3002C31.1681 82.0226 27.7529 80.8671 23.251 80.8671H23.2476C23.2151 80.8661 20.0228 80.7024 19.9462 78.8744C20.0204 77.0289 23.2171 76.8802 23.2137 76.8792C27.7519 76.8792 31.1691 75.7242 33.3706 73.4461ZM18.033 79.1844C18.313 81.9015 21.4835 82.745 23.2137 82.8046C26.5669 82.8046 29.173 83.4882 31.0044 84.822L22.0921 95.0057C21.7398 95.4083 21.7805 96.0207 22.1831 96.3729C22.3668 96.5338 22.5945 96.6127 22.8207 96.6127C23.0906 96.6127 23.359 96.5008 23.5504 96.2823L32.4172 86.151C34.5998 88.8768 34.469 92.7411 34.3876 95.1064C34.3687 95.6597 34.3527 96.137 34.3677 96.5231C34.4869 99.7329 36.625 100.581 37.7389 100.581C37.7699 100.581 37.7989 100.575 37.829 100.572C37.859 100.575 37.8876 100.581 37.9181 100.581C39.0315 100.581 41.1701 99.7334 41.2941 96.5246C41.3091 96.137 41.2926 95.6597 41.2737 95.1064C41.188 92.5914 41.0436 88.3811 43.686 85.6471C43.6952 85.6374 43.7064 85.6297 43.7156 85.6205L53.0412 96.2818C53.233 96.5008 53.5014 96.6127 53.7713 96.6127C53.9976 96.6127 54.2248 96.5338 54.4089 96.3734C54.8115 96.0212 54.8522 95.4088 54.5 95.0057L45.2418 84.4218C47.031 83.3482 49.4501 82.8046 52.4821 82.8041C54.1778 82.745 57.3445 81.9015 57.624 79.1844C57.6434 79.1084 57.6565 79.0299 57.6565 78.948C57.6565 78.9238 57.6541 78.8991 57.6531 78.8749C57.6541 78.8492 57.6565 78.8259 57.6565 78.7983C57.6565 78.7159 57.6429 78.6379 57.624 78.5624C57.345 75.8448 54.1778 75.0013 52.4482 74.9412C49.4041 74.9412 46.9714 74.3816 45.1778 73.2818L54.5 62.6239C54.8522 62.2213 54.8115 61.6089 54.4089 61.2566C54.0058 60.9039 53.3939 60.9461 53.0412 61.3482L43.6609 72.072C41.0465 69.3385 41.188 65.1505 41.2737 62.6442C41.2926 62.0914 41.3091 61.6142 41.2941 61.2266C41.1701 58.0139 39.0315 57.1651 37.9181 57.1651C37.8871 57.1651 37.858 57.1714 37.828 57.1743C37.7984 57.1714 37.7694 57.1651 37.7389 57.1651C36.625 57.1651 34.4869 58.0144 34.3677 61.2266C34.3527 61.6142 34.3687 62.0914 34.3876 62.6442C34.468 64.9916 34.5974 68.8138 32.4656 71.5347L23.5504 61.3477C23.1977 60.9456 22.5858 60.9044 22.1831 61.2571C21.7805 61.6094 21.7398 62.2213 22.0921 62.6244L31.0683 72.8812C29.2335 74.2445 26.5998 74.9412 23.1797 74.9417C21.4821 75.0013 18.314 75.8443 18.0334 78.5604C18.0141 78.637 18.0005 78.7155 18.0005 78.7983C18.0005 78.8206 18.001 78.8535 18.0029 78.8908C18.0024 78.9097 18.0005 78.9291 18.0005 78.948C18.0005 79.0304 18.0136 79.1084 18.033 79.1844Z" fill="#700051"/>
<path d="M238.65 75.7067L238.453 83.5265L231.876 78.9107C231.44 78.605 230.84 78.7072 230.531 79.1404L225.013 86.8637L222.489 79.3937C222.404 79.1408 222.218 78.9344 221.975 78.823C221.847 78.7644 221.709 78.7348 221.571 78.7348C221.448 78.7348 221.324 78.7586 221.207 78.8056L213.495 81.9267L215.41 74.6554C215.536 74.1781 215.283 73.6835 214.824 73.5052L206.963 70.4572L213.316 66.3148C213.707 66.0604 213.861 65.5638 213.683 65.1331C212.481 62.2217 211.221 58.995 210.66 57.3303C212.414 57.62 215.839 58.3133 218.962 58.9936C219.239 59.0541 219.529 58.9902 219.755 58.8182C219.981 58.6462 220.12 58.3836 220.136 58.1001L220.606 49.526L226.617 56.3981C226.79 56.5963 227.036 56.715 227.3 56.728C227.567 56.7387 227.819 56.6462 228.011 56.4659L234.771 50.1055L235.646 58.3908C235.674 58.6534 235.807 58.8928 236.016 59.0546C236.224 59.2164 236.489 59.2862 236.75 59.2479L245.409 57.9824L240.958 65.2392C240.722 65.6234 240.783 66.12 241.105 66.4364L247.266 72.4965L239.347 74.8007C238.942 74.9185 238.66 75.2847 238.65 75.7067ZM249.804 72.2741L243.013 65.5948L248.144 57.231C248.34 56.9102 248.333 56.5052 248.127 56.1907C247.919 55.8763 247.548 55.7106 247.177 55.7654L237.468 57.1849L236.493 47.9596C236.455 47.5934 236.212 47.2809 235.866 47.153C235.52 47.0241 235.133 47.1035 234.865 47.3555L227.414 54.3656L220.498 46.4592C220.239 46.1631 219.827 46.0531 219.453 46.1815C219.081 46.3094 218.823 46.651 218.801 47.0444L218.263 56.8593C209.569 54.9853 209.267 55.1825 208.878 55.4369C208.139 55.9354 207.878 56.1123 211.585 65.1302L204.322 69.8661C204.018 70.0643 203.85 70.417 203.887 70.7784C203.926 71.1399 204.162 71.4499 204.501 71.5812L213.316 74.9989L211.129 83.3041C211.035 83.6588 211.15 84.0357 211.425 84.2779C211.7 84.5202 212.088 84.5866 212.429 84.449L220.982 80.9873L223.783 89.2775C223.9 89.6224 224.199 89.8724 224.559 89.9262C224.607 89.933 224.654 89.9364 224.701 89.9364C225.011 89.9364 225.306 89.7876 225.489 89.5309L231.549 81.0488L238.82 86.151C239.113 86.3559 239.494 86.3836 239.813 86.2232C240.131 86.0623 240.336 85.7392 240.345 85.3821L240.569 76.4635L249.395 73.8952C249.725 73.7988 249.98 73.5352 250.064 73.2014C250.148 72.8681 250.049 72.5149 249.804 72.2741Z" fill="#700051"/>
<path d="M189.062 287.284C189.068 287.284 189.074 287.286 189.08 287.286C189.102 287.286 189.125 287.285 189.148 287.284L193.372 286.988C190.709 293.13 188.048 292.985 187.513 292.884C188.133 291.039 188.651 289.164 189.062 287.284ZM181.033 283.371C179.612 285.14 177.623 285.911 176.977 285.57C176.728 285.437 176.632 284.802 176.978 283.682C177.809 280.996 182.955 277.708 186.492 275.785C184.756 278.275 182.113 282.027 181.033 283.371ZM172.946 276.036C171.466 276.238 169.097 275.577 168.539 274.544C168.267 274.04 168.483 273.377 169.182 272.572C169.86 271.792 171.596 271.459 173.927 271.459C177.289 271.459 181.89 272.153 186.342 273.205C182.35 274.106 174.832 275.78 172.946 276.036ZM183.172 262.707C183.189 262.666 183.209 262.628 183.221 262.585C183.406 261.873 185.639 259.214 188.767 259.702C191.696 260.156 196.079 265.221 197.683 267.34C197.735 267.643 197.831 268.524 197.663 270.278C192.429 270.881 189.984 271.264 188.803 271.533C187.202 266.579 184.438 263.781 183.172 262.707ZM105.848 203.972C99.4522 203.918 94.5651 203.881 91.773 203.865C92.0768 203.619 92.3791 203.341 92.6741 203.02C96.8321 198.49 97.5743 188.596 94.8791 173.612C93.6819 166.959 92.0331 160.816 89.9697 155.309C92.3539 156.52 95.5724 157.756 95.6223 157.775C99.9794 159.439 107.165 161.722 116.85 163.273C117.375 166.196 121.191 188.917 115.754 203.582C115.696 203.738 115.686 203.899 115.708 204.052C114.018 204.039 112.376 204.026 110.798 204.012L105.848 203.972ZM74.2051 308.833C70.8616 307.2 64.2555 306.825 47.5249 305.876C44.4154 305.7 40.9658 305.504 37.1378 305.277C35.0942 305.155 33.0835 304.883 31.1281 304.469C36.5879 303.2 47.6378 300.526 54.538 298.134C63.5986 295 72.8684 293.635 75.897 294.297L75.7255 295.993C75.2531 300.68 74.803 305.12 74.2051 308.833ZM30.2924 272.117C30.3021 271.834 30.8311 271.47 31.9896 271.292C32.1625 271.265 32.3442 271.252 32.5346 271.252C35.3181 271.252 39.9009 273.988 43.2565 276.394C38.5618 275.651 35.3263 275.092 34.0433 274.801C31.8302 274.298 30.2667 272.849 30.2924 272.117ZM36.5143 259.703C36.7245 259.41 37.0753 259.264 37.5627 259.264C37.8515 259.264 38.1887 259.316 38.5729 259.419C41.0167 260.074 43.8224 267.579 45.5123 275.13C40.8466 269.3 37.8742 265.481 37.101 264.321C36.2725 263.079 35.8306 260.655 36.5143 259.703ZM53.5617 267.684C53.6049 267.681 53.6475 267.683 53.6906 267.674C54.413 267.528 57.7788 268.373 58.7115 271.398C59.5215 274.041 57.2754 279.675 55.7386 282.761C55.4876 282.94 54.7396 283.41 53.0947 284.026C50.2667 279.587 48.852 277.556 48.0923 276.609C51.8428 273.007 53.1475 269.295 53.5617 267.684ZM217.489 160.04C220.681 180.18 219.456 194.766 214.036 201.111C211.971 203.53 209.263 204.757 205.99 204.757C204.291 204.757 201.299 204.745 197.356 204.719C197.361 204.701 197.369 204.684 197.373 204.665C199.138 196.436 200.194 188.401 200.534 180.749C201.542 181.104 202.133 181.495 202.459 181.712C202.729 181.891 203.292 182.265 203.87 181.846C204.084 181.689 204.415 181.323 204.223 180.635C204.19 180.495 204.051 179.669 203.89 178.712C203.123 174.146 201.325 163.454 199.084 154.663C198.821 153.632 198.588 152.76 198.367 151.98C206.971 147.275 211.492 142.854 212.704 141.576C214.755 146.774 216.367 152.969 217.489 160.04ZM163.678 204.457H163.653C153.755 204.375 143.248 204.287 133.341 204.203L128.989 204.166C134.642 188.427 131.511 169.715 130.517 164.758C133.555 164.939 136.639 165.035 139.761 165.035C144.297 165.035 148.909 164.844 153.554 164.463C159.374 163.985 165.023 163.166 170.374 162.035C170.548 170.887 168.773 193.801 168.754 194.042C168.731 194.343 168.849 194.638 169.074 194.839C169.271 195.016 172.968 198.256 178.321 198.256C179.858 198.255 181.533 197.988 183.3 197.304C184.087 197 184.826 196.646 185.511 196.245C185.139 199.016 184.672 201.824 184.111 204.624C179.733 204.59 174.944 204.551 169.909 204.509L163.678 204.457ZM229.209 262.137C226.279 264.429 223.051 270.207 214.87 284.851C213.352 287.569 211.668 290.583 209.791 293.924C208.791 295.704 207.668 297.391 206.439 298.971C207.68 293.522 210.117 282.368 210.983 275.149C212.129 265.628 214.957 256.694 216.877 254.263L218.223 255.094C222.271 257.591 226.108 259.961 229.209 262.137ZM189.983 280.154C190.884 279.989 193.365 279.796 195.763 279.67C195.445 280.838 195.11 282.021 194.743 283.218C194.55 283.847 194.354 284.438 194.157 284.991L189.455 285.32C189.768 283.543 189.943 281.812 189.983 280.154ZM34.0743 283.807L36.1882 287.478C29.5065 287.768 28.4649 285.315 28.3195 284.786C30.2459 284.538 32.163 284.183 34.039 283.728C34.0511 283.754 34.0593 283.781 34.0743 283.807ZM40.8486 281.438C41.3912 282.176 42.6524 284.325 43.8176 286.428C42.678 286.645 41.4595 286.857 40.1761 287.061C39.5278 287.162 38.9111 287.245 38.3277 287.309L35.975 283.224C37.7081 282.729 39.3399 282.129 40.8486 281.438ZM77.9004 279.02C70.8209 277.319 62.4726 279.95 58.4639 281.506C59.7856 278.477 61.4585 273.747 60.5637 270.828C59.5855 267.654 56.6669 266.152 54.679 265.807C55.3718 262.483 57.5312 252.234 59.8999 242.177L86.1998 250.613C82.2909 262.509 78.9987 273.787 77.9004 279.02ZM61.9741 137.679C62.2783 139.513 63.195 140.968 64.7071 141.935C65.3185 142.326 65.9818 142.524 66.6635 142.524C66.9808 142.524 67.3016 142.481 67.6228 142.395C69.7793 141.816 72.0336 139.28 74.5021 134.662C76.1145 135.917 82.1344 141.21 87.2541 153.691C89.7018 159.655 91.6252 166.473 92.9721 173.955C96.1882 191.838 93.8088 198.918 91.2463 201.71C89.5346 203.574 87.5801 203.639 86.7778 203.573C82.3427 202.676 78.2308 199.691 74.5477 194.707C74.5046 194.405 74.318 194.132 74.0278 193.984C69.9435 188.188 66.4493 179.919 63.6407 169.381C59.2066 152.755 60.0898 143.115 61.9741 137.679ZM66.4387 128.745C70.3069 131.518 72.9518 133.416 72.9518 133.415C72.9537 133.417 72.9619 133.422 72.9644 133.424C70.178 138.727 68.2507 140.219 67.1199 140.523C66.6281 140.655 66.193 140.585 65.7507 140.303C63.1426 138.634 63.7178 135.096 64.3088 133.098C64.3292 133.047 64.3447 132.996 64.3558 132.943C64.5729 132.244 64.7841 131.749 64.8369 131.63C64.9474 131.43 65.5244 130.388 66.4387 128.745ZM96.3476 119.545C94.8481 121.418 94.1974 123.477 94.5201 125.386C94.5196 125.398 94.5167 125.409 94.5167 125.421C94.5167 125.504 94.5288 125.592 94.5511 125.676C94.6804 126.243 95.5738 129.941 97.3127 132.326C96.9401 132.708 96.1242 133.683 95.5758 135.312L85.9658 121.293C87.4687 121.056 90.4377 120.563 96.3476 119.545ZM87.4769 91.4151L87.912 90.6646C88.1257 90.2954 88.3311 89.9408 88.5341 89.59C89.959 92.2944 92.3539 94.9998 94.4464 96.9204C94.0322 97.6093 92.2526 100.568 89.9266 104.447C87.7643 108.04 85.1393 112.414 82.6853 116.508L77.5167 108.968C81.8757 101.223 85.0467 95.6355 87.4769 91.4151ZM160.442 65.3351L161.149 66.355C161.892 67.9844 162.553 69.6084 163.15 71.1069C158.196 71.9194 140.826 79.4446 138.479 80.4679L135.845 74.0406C135.641 73.5454 135.077 73.3095 134.58 73.512C134.085 73.715 133.849 74.2809 134.052 74.776L135.667 78.7169C135.764 83.1786 135.55 92.6946 132.114 94.7489C128.899 93.3487 126.181 91.9882 125.143 91.0241C123.006 89.0381 122.179 86.8608 120.928 83.5658C120.339 82.0173 119.673 80.2625 118.747 78.2188C116.392 73.0178 113.944 70.4369 112.98 69.5512L119.445 60.8245C119.535 60.6951 128.612 47.9335 142.27 49.9795C142.619 50.0304 142.964 50.09 143.31 50.1607C152.552 51.9529 157.281 58.5125 160.296 64.5643C160.237 64.8216 160.279 65.1016 160.442 65.3351ZM184.334 113.07L177.8 104.699C177.737 104.618 177.662 104.554 177.581 104.499C175.911 95.8022 171.483 85.6496 168.222 78.182C167.523 76.5813 166.892 75.1365 166.35 73.8482L187.873 104.859C187.937 104.951 188.018 105.024 188.104 105.086L184.334 113.07ZM177.563 116.924C178.028 115.052 178.267 113.02 178.267 110.862C178.267 110.048 178.222 109.183 178.137 108.28L183.389 115.009C183.395 115.017 183.403 115.022 183.409 115.029L182.303 117.37L177.563 116.924ZM172.84 125.347C174.683 123.59 176.073 121.399 176.99 118.816L181.424 119.233L175.606 131.553C175.346 129.628 174.574 127.471 172.84 125.347ZM211.927 139.688C211.797 139.744 211.676 139.825 211.576 139.94C211.533 139.99 207.244 144.849 197.807 150.077C196.77 146.674 195.789 144.322 194.819 142.913C194.05 141.798 193.094 140.861 191.972 140.108C196.48 136.904 200.85 133.2 204.987 129.063C206.203 130.136 209.079 133.164 211.927 139.688ZM195.492 204.707L192.592 204.686C190.574 204.672 188.389 204.657 186.081 204.639C186.741 201.295 187.274 197.942 187.667 194.657C191.289 191.35 191.264 187.292 191.26 187.098L191.076 182.442C191.624 181.959 194.161 179.867 196.844 180.045C197.476 180.089 198.067 180.162 198.616 180.259C198.302 187.923 197.251 195.99 195.478 204.259C195.445 204.413 195.455 204.564 195.492 204.707ZM90.9498 106.505C92.3728 108.97 96.1654 115.109 99.4997 116.729C99.2308 116.906 98.9711 117.09 98.7197 117.279C98.5806 117.237 98.4319 117.221 98.2793 117.245L98.0128 117.29C98.0099 117.29 98.007 117.291 98.0041 117.292C98.0012 117.292 97.9978 117.292 97.9949 117.292L97.8108 117.326H97.8098C91.1058 118.485 86.2284 119.305 84.7517 119.523L83.8907 118.266C86.2391 114.349 88.7798 110.114 90.9498 106.505ZM107.533 73.4979L101.408 69.1714L119.133 54.4422L107.533 73.4979ZM173.211 136.625L172.99 137.098C172.938 137.208 172.912 137.323 172.904 137.437C172.797 137.681 172.722 137.82 172.722 137.821C172.679 137.896 172.652 137.975 172.632 138.055C171.427 138.137 170.188 138.299 168.934 138.544C164.388 139.432 159.815 142.296 155.342 147.058C152.38 150.211 150.498 153.117 150.088 153.77C146.029 154.15 141.891 154.248 137.693 154.066C137.685 154.035 137.681 154.004 137.67 153.972C137.635 153.872 134.131 143.855 130.201 133.501C129.988 132.935 129.757 132.389 129.52 131.857C129.548 131.713 129.547 131.56 129.503 131.408C129.483 131.337 127.498 124.223 130.962 119.412C132.475 117.309 134.85 115.926 138.022 115.301C141.764 114.566 144.843 115.069 147.173 116.794C151.069 119.679 151.667 125.101 151.673 125.153C151.707 125.501 151.926 125.802 152.245 125.943C152.564 126.084 152.935 126.043 153.215 125.835C153.24 125.817 155.753 123.971 159.109 122.998C163.451 121.739 167.122 122.469 170.018 125.165C170.294 125.423 170.543 125.671 170.779 125.926C174.634 130.073 173.971 134.384 173.211 136.625ZM97.4411 128.701C97.6523 128.21 98.2226 127.983 98.7139 128.195C99.1296 128.372 108.641 132.296 115.115 124.073C115.445 123.652 116.054 123.579 116.475 123.911C116.896 124.242 116.968 124.851 116.637 125.272C112.924 129.989 108.268 131.172 104.532 131.172C100.811 131.172 98.0036 129.999 97.9479 129.975C97.4561 129.763 97.2294 129.193 97.4411 128.701ZM95.9372 98.2024C97.2168 99.2266 98.4144 99.9955 99.4304 100.442C100.061 100.717 101.86 101.883 103.806 103.173L102.784 109.313C101.475 109.822 100.548 110.842 100.354 111.964C100.088 112.218 99.9808 112.612 100.107 112.98L100.861 115.165C99.4803 114.925 96.0516 111.707 92.2434 104.858C92.1969 104.774 92.1363 104.703 92.0709 104.639C93.9314 101.538 95.3728 99.1408 95.9372 98.2024ZM118.824 118.557C118.784 118.471 118.742 118.386 118.698 118.303C118.588 118.096 117.97 117.113 117.753 117.132C118.935 117.025 120.784 116.928 122.045 116.862L123.375 116.791C123.943 116.759 124.366 116.729 124.678 116.703C126.001 117.508 127.387 118.335 128.813 119.171C127.193 121.934 126.885 125.086 126.992 127.57C124.252 124.145 121.502 123.981 120.269 124.126C120.072 122.795 119.789 121.474 119.391 120.189C119.225 119.654 119.061 119.076 118.824 118.557ZM103.77 111.023C103.816 111.01 103.858 111.001 103.915 110.988C104.128 110.941 104.33 110.92 104.517 110.92C105.011 110.92 105.403 111.066 105.612 111.251C105.627 111.264 105.642 111.277 105.657 111.289C105.729 111.364 105.775 111.439 105.795 111.509C105.816 111.589 105.819 111.657 105.802 111.745C105.723 112.175 105.181 112.74 104.297 112.985C103.289 113.264 102.392 112.954 102.259 112.483L102.251 112.433C102.191 111.972 102.784 111.296 103.77 111.023ZM102.843 114.97C103.066 115.006 103.293 115.031 103.53 115.031C103.944 115.031 104.378 114.974 104.815 114.853C105.42 114.684 105.96 114.411 106.41 114.067L106.731 115.099C106.734 115.108 106.737 115.118 106.74 115.127L108.485 120.728L105.229 121.892L102.843 114.97ZM105.646 111.278C105.647 111.278 105.647 111.279 105.647 111.279C105.647 111.279 105.647 111.279 105.646 111.278ZM115.959 115.483C114.019 114.201 111.317 113.601 108.354 113.793L107.743 111.833C107.765 111.558 107.74 111.281 107.665 111.002C107.576 110.677 107.415 110.378 107.194 110.108C107.098 109.897 106.935 109.723 106.723 109.625C106.689 109.609 106.653 109.601 106.618 109.589C106.111 109.238 105.483 109.034 104.802 108.991L105.575 104.348C106.044 104.66 106.533 104.985 107.04 105.324C110.999 107.964 116.228 111.449 121.812 114.933C117.593 115.156 116.467 115.267 115.959 115.483ZM89.2357 85.7406C88.9149 82.558 93.1954 74.6476 96.9983 71.3942C97.99 70.5454 98.8587 70.0992 99.4314 70.1476L107.262 75.6791C107.271 75.6854 107.281 75.6893 107.29 75.6951C107.3 75.7014 107.307 75.7096 107.317 75.7155C107.329 75.7232 107.343 75.7256 107.355 75.7324C107.411 75.7629 107.468 75.7876 107.527 75.8065C107.545 75.8124 107.564 75.8201 107.583 75.825C107.657 75.8438 107.732 75.8545 107.808 75.8555C107.812 75.8555 107.816 75.8569 107.82 75.8569C107.833 75.8569 107.846 75.8526 107.859 75.8521C107.916 75.8501 107.973 75.8429 108.028 75.8308C108.051 75.8259 108.072 75.8201 108.094 75.8138C108.148 75.7978 108.201 75.7765 108.252 75.7513C108.268 75.7436 108.284 75.7373 108.3 75.7285C108.364 75.6922 108.424 75.6491 108.479 75.5972C108.491 75.5861 108.501 75.5725 108.512 75.5609C108.542 75.5299 108.573 75.5003 108.6 75.4645L111.818 71.1205C112.719 71.9907 114.882 74.3831 116.982 79.0183C117.882 81.0071 118.537 82.7319 119.116 84.2537C120.416 87.6762 121.355 90.1496 123.824 92.4441C127.3 95.6704 144.835 101.776 145.58 102.034C145.684 102.07 145.791 102.088 145.897 102.088C146.159 102.088 146.415 101.981 146.601 101.785C146.863 101.508 146.939 101.104 146.794 100.751L139.214 82.2615C147.788 78.5217 161.413 72.9693 163.882 72.9693H163.892C164.56 74.6394 165.434 76.6408 166.445 78.9577C169.753 86.5304 174.282 96.901 175.806 105.518C176.153 107.472 176.329 109.27 176.329 110.862C176.329 113.227 176.026 115.421 175.43 117.383C174.631 120.013 173.317 122.208 171.524 123.926C171.462 123.866 171.404 123.808 171.34 123.747C164.823 117.68 156.481 121.596 153.334 123.457C152.857 121.387 151.582 117.655 148.34 115.246C145.552 113.175 141.955 112.555 137.648 113.4C134.33 114.053 131.748 115.465 129.944 117.588C128.588 116.793 127.269 116.007 126.004 115.24C125.828 115.098 125.714 115.041 125.132 114.707C118.725 110.784 112.602 106.703 108.116 103.712C107.195 103.098 106.337 102.526 105.549 102.003C105.467 101.924 105.371 101.861 105.264 101.814C102.22 99.792 100.886 98.9625 100.207 98.6665C99.2269 98.2358 97.9527 97.3792 96.6194 96.2552C93.349 93.4921 90.6005 89.9761 89.617 87.2964C89.4125 86.7392 89.2841 86.2155 89.2357 85.7406ZM97.8863 143.885C97.5782 143.147 97.4362 142.228 97.3074 141.656C97.0113 140.342 96.8781 138.98 97.0346 137.639C97.3011 135.314 98.3156 134.078 98.6567 133.722C100.138 134.822 102.507 135.544 105.323 135.544C107.465 135.544 109.865 135.126 112.329 134.14C117.385 132.115 120.251 129.248 120.397 126.06C121.232 125.923 124.543 125.838 127.536 132.168C127.837 132.805 128.124 133.482 128.388 134.185C131.733 142.998 134.766 151.558 135.608 153.95C135.55 153.785 132.897 153.737 132.591 153.708C131.54 153.608 130.491 153.491 129.444 153.358C127.329 153.09 125.223 152.757 123.128 152.361C118.818 151.547 114.559 150.468 110.371 149.168C108.152 148.479 105.953 147.728 103.774 146.921C102.638 146.501 101.507 146.065 100.383 145.615C99.8267 145.392 99.1974 145.212 98.6756 144.919C98.3267 144.723 98.0753 144.338 97.8863 143.885ZM88.7996 152.369C86.1199 145.983 83.2395 141.467 80.8161 138.392C84.7424 140.66 89.9905 143.427 96.2395 146.094C109.959 151.944 123.562 155.263 136.67 155.962C138.371 156.052 140.063 156.097 141.744 156.097C150.092 156.097 158.181 154.985 165.858 152.784C169.141 153.125 170.046 157.296 170.281 160.073C164.919 161.222 159.245 162.051 153.396 162.531C145.281 163.197 137.279 163.272 129.605 162.762C129.45 162.71 129.282 162.696 129.114 162.729C125.342 162.461 121.579 162.044 117.925 161.483C100.291 158.771 90.1596 153.393 89.1063 152.591C89.021 152.495 88.914 152.425 88.7996 152.369ZM117.637 204.068C120.102 197.301 121.035 188.289 120.404 177.269C120.039 170.909 119.228 165.671 118.87 163.575C122.035 164.031 125.266 164.384 128.511 164.624C129.343 168.574 132.965 188.119 126.943 204.12C126.94 204.13 126.939 204.14 126.936 204.149C125.849 204.14 124.772 204.131 123.708 204.12L117.637 204.068ZM164.117 246.901L182.804 227.726C190.913 235.257 199.29 242.252 204.009 245.787C199.377 251.419 198.096 260.004 197.745 264.299C192.906 258.542 189.476 257.851 189.064 257.787C185.78 257.276 183.148 259.25 181.969 260.887C179.406 258.941 171.743 253.088 164.117 246.901ZM176.138 314.218C176.245 313.51 177.332 311.893 178.59 310.02C180.892 306.592 184.318 301.483 186.865 294.718C187.062 294.777 187.409 294.857 187.873 294.857C188.371 294.857 189.002 294.765 189.716 294.458C192.037 293.459 194.052 290.747 195.702 286.402C196.002 285.62 196.303 284.741 196.596 283.786C197.098 282.147 197.559 280.519 197.969 278.943C198.718 276.043 199.23 273.502 199.49 271.395C199.842 268.607 199.664 267.294 199.552 266.808C199.579 265.529 199.979 253.631 205.575 246.927C208.485 248.998 211.886 251.165 215.224 253.24C212.844 256.495 210.144 265.899 209.058 274.917C207.896 284.608 203.848 301.571 203.807 301.741C203.784 301.837 203.781 301.932 203.786 302.025C193.254 312.946 179.348 314.116 176.138 314.225C176.139 314.223 176.138 314.22 176.138 314.218ZM179.402 140.536C181.674 141.118 183.744 142.134 185.556 143.557C188.063 145.526 190.129 148.299 191.694 151.8C191.912 152.289 192.486 152.508 192.974 152.289C193.463 152.071 193.682 151.497 193.463 151.009C191.768 147.217 189.51 144.198 186.753 142.033C185.673 141.184 184.509 140.47 183.276 139.886C185.187 139.821 187.602 140.023 189.753 141.06C191.181 141.753 192.35 142.746 193.224 144.013C194.166 145.381 195.197 147.991 196.291 151.776C196.291 151.776 196.291 151.777 196.291 151.778C196.572 152.725 196.863 153.794 197.207 155.142C199.428 163.854 201.215 174.491 201.979 179.033C201.992 179.11 202.004 179.184 202.016 179.254C201.451 179.002 200.737 178.744 199.853 178.535C199.851 178.534 199.849 178.534 199.848 178.534C199.048 178.339 198.146 178.205 197.17 178.129L190.35 164.101L190.175 159.67C190.154 159.135 189.702 158.718 189.168 158.741C188.633 158.762 188.217 159.213 188.238 159.747L189.323 187.151C189.325 187.295 189.323 190.714 186.12 193.449C185.146 194.284 183.962 194.972 182.602 195.496C176.736 197.768 172.037 194.691 170.725 193.687C171.008 189.986 172.625 168.303 172.273 160.835V160.828C172.272 160.814 172.272 160.798 172.271 160.784L172.261 160.605C172.257 160.52 172.253 160.438 172.247 160.368C171.736 152.482 168.082 151.005 165.914 150.835C165.91 150.834 165.904 150.834 165.899 150.834C165.888 150.833 165.877 150.831 165.866 150.831C164.864 150.758 163.783 150.928 162.651 151.336C159.82 152.359 155.361 152.965 152.782 153.249C155.263 149.773 161.6 141.951 169.305 140.447C170.783 140.157 172.236 139.987 173.624 139.941C175.675 139.87 177.618 140.071 179.402 140.536ZM126.646 18.2508C126.561 18.7067 126.475 19.1481 126.421 19.2751C126.337 19.4291 125.899 19.8148 125.548 20.1244C125.359 20.2906 125.155 20.4722 124.944 20.666C124.573 20.3773 124.217 20.0687 123.956 19.8138C124.737 19.3938 125.807 18.7581 126.646 18.2508ZM125.772 22.5512C126.138 22.1874 126.505 21.8642 126.829 21.5784C127.495 20.9911 127.977 20.5667 128.196 20.0512C128.353 19.6903 128.454 19.1379 128.606 18.3022C128.684 17.8749 128.774 17.3821 128.886 16.8448C129.623 13.3109 130.815 10.669 132.497 8.84095C132.526 12.3041 132.973 18.9175 135.769 22.2717C135.953 22.4936 136.25 22.6161 136.515 22.6205C136.803 22.6195 137.077 22.4907 137.26 22.2683C137.305 22.2145 141.812 16.9146 144.595 19.0018C145.979 20.0386 145.539 23.6636 143.723 26.1854C142.676 27.6384 140.443 29.746 137.243 27.5309C136.971 27.3429 136.621 27.3066 136.316 27.4345C136.011 27.5628 135.792 27.8385 135.737 28.1646L133.212 42.9664C133.165 43.2431 133.24 43.527 133.419 43.744C133.597 43.9611 133.861 44.0905 134.142 44.0982L142.26 44.3172C142.322 45.3385 142.442 47.0047 142.519 48.058C130.822 46.323 122.491 54.2077 119.3 57.8957L123.808 50.4887C123.813 50.4824 123.815 50.4752 123.819 50.4689C123.82 50.465 123.824 50.4626 123.826 50.4592C124.81 48.7043 129.72 39.8269 129.72 37.354C129.72 35.8623 128.401 34.8642 127.004 33.8075C125.437 32.622 123.66 31.278 123.4 29.1176C122.999 25.7935 124.457 23.8623 125.772 22.5512ZM78.7584 67.3477L85.8931 58.4572L86.7812 58.3986C87.6126 58.3429 88.3791 57.9306 88.8839 57.2673C89.3883 56.6055 89.5811 55.7595 89.4144 54.9446L88.6732 51.3395C88.7739 51.1108 88.787 50.8443 88.6887 50.5934C88.6039 50.3787 88.4784 50.1593 88.3103 49.9204C88.304 49.9107 88.2982 49.9005 88.2919 49.8913C88.2875 49.8855 88.2851 49.8807 88.2812 49.8749C87.4556 48.7552 85.6882 47.4994 83.6417 46.0449C80.9944 44.1636 77.9934 42.0314 77.1116 40.184C76.1833 38.2329 76.7565 36.0377 77.8466 35.0425C78.3655 34.5691 78.8713 34.4727 79.3505 34.7562C80.5627 35.4785 81.9726 36.3211 83.3694 37.1927C88.4828 40.3802 91.4876 42.7818 92.5549 44.5338C96.3539 50.7857 101.007 66.463 101.053 66.6205C101.079 66.7063 101.121 66.7809 101.166 66.8531L99.5254 68.2164C98.4144 68.1505 97.1436 68.7193 95.7381 69.9214C91.7861 73.3027 86.8951 81.8385 87.3074 85.9364C87.3539 86.386 87.4518 86.8584 87.5956 87.3463C87.1862 88.0507 86.7507 88.8027 86.2895 89.5992C85.288 86.6408 81.4895 75.4175 78.7584 67.3477ZM63.7178 43.4834L64.6373 48.6753C63.7798 48.6612 62.0952 48.4388 61.4939 46.9732C61.0002 45.7644 62.5772 44.3003 63.7178 43.4834ZM60.5535 37.8158C61.0501 37.3821 62.0617 37.3744 62.6456 37.4272L63.2919 41.0759C62.2003 40.8497 60.3025 40.244 60.2425 38.7591C60.2192 38.1777 60.4091 37.9427 60.5535 37.8158ZM59.039 29.4068C59.2139 29.0953 59.3825 29.0231 59.5099 28.995C59.9823 28.8918 60.71 29.2722 60.9891 29.4732C61.0739 29.5352 61.1664 29.5769 61.2609 29.6079L62.0506 34.0672C60.6582 33.3066 59.4716 32.0556 59.0414 30.8313C58.9004 30.4301 58.7851 29.8574 59.039 29.4068ZM63.46 52.6166C63.3108 52.0716 63.4382 51.7741 63.5472 51.5977C63.8389 51.1258 64.5007 50.823 64.991 50.6714L65.6775 54.5498C64.9183 54.3589 63.802 53.8705 63.46 52.6166ZM68.0535 56.8521L61.9004 22.1031C61.8486 21.8114 61.9334 21.5188 62.133 21.2998C62.3316 21.0817 62.6155 20.9703 62.9053 20.9941L80.068 22.4185C80.4852 22.4543 80.834 22.7629 80.9174 23.1685L83.3176 34.8826C82.272 34.2426 81.2512 33.6326 80.3403 33.0905C79.115 32.3637 77.694 32.5585 76.5399 33.6113C74.9508 35.0614 73.9978 38.1496 75.3621 41.0178C76.461 43.3201 79.6795 45.6069 82.5191 47.6244C84.2589 48.8608 85.8956 50.028 86.6005 50.8812L87.5162 55.3346C87.5714 55.6045 87.5099 55.8739 87.3423 56.0934C87.1741 56.3143 86.9285 56.4461 86.6523 56.465L69.0424 57.6273C68.554 57.6554 68.1373 57.3245 68.0535 56.8521ZM45.5811 278.699C45.992 278.69 46.3534 278.418 46.4784 278.023C46.5007 278.005 46.5249 277.987 46.5472 277.969C46.5821 277.941 46.6131 277.912 46.648 277.884C47.5065 279.01 49.4251 281.887 51.2047 284.666C49.6616 285.144 47.8563 285.601 45.8103 286.028C44.1683 283.023 43.2013 281.43 42.5995 280.573C43.6659 279.997 44.6615 279.368 45.5811 278.699ZM26.3859 285.005C26.4542 285.429 26.7337 286.476 27.8684 287.454C29.4019 288.776 31.8345 289.442 35.1209 289.442C35.9397 289.442 36.8118 289.4 37.7362 289.317C38.5729 289.244 39.4944 289.129 40.4779 288.975C42.2643 288.691 43.9314 288.392 45.429 288.086C48.3762 287.496 50.8897 286.846 52.8951 286.154C55.5651 285.248 56.6625 284.512 57.0433 284.203C58.3297 283.606 69.0559 278.823 77.5487 280.927C76.9561 284.462 76.4978 288.464 76.0947 292.364C72.1228 291.649 62.4866 293.334 53.9038 296.303C45.0961 299.356 29.3612 302.895 27.6146 303.284C27.5172 303.304 27.4653 303.316 27.4653 303.316C27.3757 303.338 27.2953 303.376 27.2192 303.42C12.7866 298.72 5.6669 286.717 4.16205 283.889C4.84519 283.678 6.76816 283.946 8.9949 284.258C13.0855 284.83 19.1814 285.678 26.3859 285.005ZM3.45323 295.665C1.77494 292.665 1.76671 288.035 2.82969 285.513C5.08405 289.56 12.6092 301.052 27.4256 305.525C30.4871 306.446 33.7158 307.014 37.0225 307.212C40.8529 307.439 44.3045 307.635 47.4149 307.811C63.4401 308.72 70.7546 309.135 73.6034 310.703C73.6877 310.749 73.7759 310.778 73.865 310.797C73.6339 312.011 73.3956 313.04 73.1402 313.915C71.2706 320.353 62.2013 321.964 61.2647 322.114C25.4198 320.698 5.60875 299.508 3.45323 295.665ZM189.589 274.699C189.759 274.327 189.673 273.885 189.376 273.601C189.368 273.568 189.362 273.536 189.355 273.502C189.346 273.463 189.334 273.426 189.325 273.386C190.715 273.108 194.137 272.643 197.411 272.259C197.164 273.857 196.787 275.681 196.283 277.703C192.862 277.863 191.005 278.035 189.972 278.201C189.92 276.998 189.79 275.828 189.589 274.699ZM235.489 279.589C218.535 311.207 190.817 319.749 186.419 320.006C182.992 320.202 178.823 318.184 177.018 316.129C181.644 315.87 195.211 314.126 205.692 302.843C207.897 300.466 209.845 297.785 211.481 294.873C213.359 291.53 215.044 288.515 216.562 285.796C224.394 271.776 227.969 265.377 230.624 263.499C230.702 263.443 230.766 263.376 230.822 263.304C231.807 264.041 232.631 264.708 233.31 265.321C238.283 269.817 235.764 278.681 235.489 279.589ZM234.609 263.883C233.728 263.087 232.642 262.221 231.287 261.236C227.983 258.837 223.736 256.218 219.24 253.445L217.12 252.136C213.275 249.755 209.27 247.226 206.021 244.865C201.447 241.539 192.215 233.872 183.424 225.657C175.082 217.874 168.803 211.133 165.472 206.41L169.893 206.447C175.291 206.492 180.413 206.534 185.042 206.569C187.735 206.59 190.262 206.608 192.579 206.624L196.41 206.651C200.821 206.681 204.157 206.695 205.99 206.695C209.856 206.695 213.059 205.24 215.51 202.37C219.608 197.571 223.61 186.278 219.403 159.736C218.182 152.038 216.391 145.324 214.079 139.782C211.009 132.413 207.804 128.959 206.3 127.633L235.242 93.9301C235.591 93.5241 235.544 92.9122 235.138 92.5638C234.732 92.2145 234.12 92.261 233.772 92.6675L204.199 127.105C199.73 131.644 194.978 135.666 190.069 139.078C185.156 136.99 179.587 138.373 179.345 138.436C179.29 138.449 179.239 138.47 179.19 138.493C177.789 138.182 176.309 138.018 174.771 137.995C174.846 137.814 174.925 137.605 175.006 137.368L203.799 76.387C204.027 75.903 203.82 75.3254 203.336 75.0972C202.852 74.8686 202.275 75.0759 202.046 75.5594L189.029 103.126L162.836 65.3826C159.982 59.1917 154.991 50.8293 144.489 48.433C144.392 47.121 144.27 45.4073 144.205 44.37L160.852 44.8196C161.111 44.8274 161.368 44.7271 161.556 44.5435C161.744 44.3598 161.849 44.1074 161.847 43.8448C161.84 42.6292 161.584 13.9819 154.933 6.22419C150.152 0.649578 141.153 -0.784045 136.067 1.41605C133.733 2.42526 132.441 4.16896 132.452 6.25229C128.761 9.15588 127.543 13.8841 127.087 15.9863L126.957 15.7896C126.957 15.7896 126.974 15.7765 127.008 15.7591C126.983 15.7722 126.957 15.7867 126.933 15.8017C125.918 16.4388 123.092 18.1486 122.439 18.4064C122.006 18.5784 121.715 18.9446 121.66 19.3865C121.622 19.6879 121.533 20.4524 123.59 22.0706C121.835 24.1961 121.142 26.5885 121.476 29.3497C121.834 32.3264 124.053 34.0047 125.835 35.3531C126.792 36.0774 127.782 36.8264 127.782 37.354C127.782 38.7784 124.561 45.1704 122.223 49.355L102.752 65.5352C101.884 62.6627 97.7807 49.4015 94.2105 43.526C93.0545 41.6287 90.2827 39.3085 85.5365 36.2702C85.5438 36.1806 85.5428 36.0895 85.5239 35.9965L82.8161 22.7799C82.5617 21.5391 81.5002 20.5963 80.2318 20.4873L63.0642 19.0629C62.1679 18.9902 61.3059 19.3298 60.6998 19.995C60.0932 20.6612 59.835 21.5527 59.992 22.4403L60.8432 27.247C60.3316 27.0725 59.7211 26.9669 59.1044 27.1002C58.5889 27.2116 57.8655 27.5377 57.35 28.4572C56.8675 29.3128 56.82 30.3555 57.2129 31.4737C57.7686 33.0546 59.1514 34.605 60.8306 35.606C60.2851 35.7319 59.7367 35.9582 59.2841 36.3516C58.8088 36.7649 58.2536 37.5314 58.3059 38.8371C58.3893 40.9054 59.9978 42.0691 61.6538 42.6544C60.3147 43.8327 58.8708 45.6757 59.7003 47.7072C60.2425 49.0294 61.2245 49.7562 62.2182 50.153C62.1024 50.2847 61.9934 50.4253 61.898 50.5803C61.4426 51.3177 61.3364 52.199 61.5908 53.1273C62.3539 55.9238 65.1213 56.4742 66.037 56.5808L66.1446 57.1883C66.3893 58.5735 67.5898 59.5672 68.9794 59.5672C69.0419 59.5672 69.1049 59.5653 69.1683 59.5614L74.2865 59.2232L73.9958 59.3216C73.9958 59.3216 84.5821 90.6001 84.7032 90.9587C84.788 91.2101 84.9711 91.3937 85.1906 91.5042C82.9329 95.4359 80.0719 100.48 76.2953 107.186L61.6964 85.8904C61.3936 85.4485 60.7909 85.3356 60.3495 85.6389C59.9082 85.9417 59.7958 86.5449 60.0981 86.9863L95.0632 137.991C94.9435 139.794 95.2279 141.757 95.9115 143.841C85.4416 139.268 77.9978 134.512 75.225 132.637C75.0927 132.547 74.9697 132.462 74.8534 132.382C74.4091 132.079 74.1552 131.895 74.0981 131.853C74.0981 131.853 71.1131 129.711 66.8398 126.649C55.8093 118.737 38.0225 105.995 37.2541 105.482C36.8093 105.185 36.2071 105.306 35.9101 105.751C35.6131 106.196 35.7338 106.797 36.179 107.094C36.8709 107.556 53.0714 119.159 64.8534 127.609C63.7623 129.568 63.1213 130.727 63.1213 130.727C63.1102 130.747 63.0991 130.769 63.0894 130.79C63.0772 130.817 62.804 131.416 62.5186 132.326C58.9111 137.339 55.9082 147.907 61.7681 169.88C64.6364 180.643 68.2294 189.121 72.4474 195.106C71.3083 198.05 66.3447 211.104 62.0743 225.848C60.9978 229.558 59.709 234.574 58.2444 240.755C55.6897 251.526 53.3297 262.776 52.7095 265.76C52.2652 265.791 51.8868 266.126 51.8185 266.585C51.8122 266.628 51.18 270.59 47.3752 274.584C46.1955 269.341 43.2996 258.68 39.0758 257.547C36.7221 256.915 35.5278 257.755 34.9401 258.572C33.6039 260.432 34.4164 263.788 35.4886 265.396C36.2173 266.489 38.5865 269.528 40.9973 272.572C37.9256 270.704 34.2662 268.979 31.695 269.376C28.8563 269.813 28.3839 271.238 28.3554 272.048C28.289 273.934 30.648 276.017 33.6141 276.69C35.1984 277.051 39.0811 277.695 42.7245 278.272C42.0821 278.659 41.4101 279.027 40.7081 279.371C38.9915 280.213 37.0768 280.925 35.0249 281.485L34.8602 281.529C34.7376 281.562 34.6141 281.595 34.4697 281.63C32.0681 282.259 29.5996 282.714 27.1325 282.985C19.7488 283.804 13.4392 282.923 9.26379 282.339C6.50362 281.952 4.68047 281.697 3.58405 282.039C3.07243 282.198 2.60245 282.5 2.1916 282.931C-0.343767 285.555 -0.560815 292.459 1.76234 296.612C3.25992 299.282 9.2541 305.716 18.9639 311.613C27.6339 316.879 42.0138 323.312 61.2817 324.054C61.2943 324.054 61.3064 324.055 61.319 324.055C61.3626 324.055 61.4067 324.052 61.4498 324.046C61.9077 323.983 72.6867 322.425 75.0012 314.457C75.3403 313.293 75.6494 311.896 75.9459 310.186C76.6431 306.216 77.1339 301.345 77.6538 296.187L77.9178 293.581C78.3737 289.094 78.8926 284.395 79.5956 280.42C79.6044 280.389 79.6116 280.359 79.6174 280.327C80.4774 275.593 84.0661 263.245 88.3437 250.299C95.8621 227.555 102.682 211.097 106.588 206.273C106.675 206.165 106.734 206.043 106.768 205.917L110.782 205.95C112.656 205.966 114.616 205.982 116.645 205.997L122.506 206.048C122.528 206.196 122.581 206.342 122.674 206.472C122.792 206.636 134.685 223.068 149.261 236.738C152.338 239.624 156.655 243.33 162.093 247.752C170.289 254.431 178.73 260.863 181.065 262.633C180.902 263.045 181.037 263.529 181.418 263.79C181.455 263.815 184.741 266.127 186.667 271.292C181.433 270.061 170.583 268.006 167.72 271.301C166.121 273.138 166.356 274.58 166.834 275.466C167.784 277.222 170.463 278.007 172.403 278.007C172.69 278.007 172.961 277.99 173.208 277.956C174.536 277.776 178.36 276.963 182.039 276.152C179.044 278.081 175.899 280.613 175.127 283.109C174.278 285.854 175.352 286.901 176.068 287.281C176.439 287.478 176.87 287.571 177.338 287.571C178.976 287.571 181.063 286.429 182.544 284.584C183.631 283.233 186.134 279.685 187.956 277.074C188.024 277.826 188.061 278.595 188.063 279.377C188.068 281.288 187.87 283.322 187.473 285.428C187.441 285.608 187.404 285.788 187.365 285.973C186.883 288.391 186.214 290.808 185.377 293.157C182.884 300.15 179.332 305.439 176.981 308.939C175.424 311.259 174.395 312.791 174.223 313.925C174.14 314.459 174.206 315.017 174.417 315.581C175.627 318.866 181.314 321.956 185.962 321.956C186.154 321.956 186.343 321.951 186.53 321.941C189.585 321.763 197.991 319.187 207.544 313.033C216.072 307.54 228.146 297.423 237.241 280.423C237.268 280.373 237.29 280.322 237.307 280.268C237.452 279.829 240.767 269.45 234.609 263.883Z" fill="#700051"/>
<path d="M97.9477 129.975C98.0034 129.999 100.812 131.172 104.531 131.172C108.267 131.172 112.923 129.989 116.637 125.272C116.968 124.851 116.895 124.242 116.475 123.911C116.054 123.579 115.445 123.652 115.114 124.073C108.641 132.296 99.1298 128.372 98.7137 128.195C98.2224 127.983 97.6521 128.21 97.4409 128.701C97.2292 129.193 97.4559 129.763 97.9477 129.975Z" fill="white"/>
</svg>
