<svg width="375" height="375" viewBox="0 0 375 375" fill="none" xmlns="http://www.w3.org/2000/svg">
<path d="M169.362 228.269C172.647 227.476 175.749 226.728 179.087 226.282C180.521 226.091 181.944 225.925 183.32 225.764C192.988 224.637 200.624 223.747 202.016 215.77C202.955 210.375 201.279 207.014 199.707 205.145C197.909 203.006 195.303 201.729 192.738 201.729C192.564 201.729 192.403 201.673 192.27 201.579H158.822C158.72 201.579 158.618 201.56 158.523 201.522C158.398 201.473 146.143 196.477 146.738 184.403C146.697 184.308 146.675 184.203 146.675 184.091C146.675 184.078 146.676 184.032 146.676 184.018C147.202 173.541 149.284 166.856 153.042 163.579C154.965 161.903 157.299 161.171 159.988 161.404C170.956 162.357 178.627 180.855 178.948 181.642C179.086 181.979 178.982 182.367 178.694 182.59C178.406 182.813 178.005 182.817 177.712 182.6C165.119 173.232 158.042 172.994 154.323 174.442C151.386 175.587 149.371 178.307 148.649 182.1C148.518 182.791 148.428 183.471 148.382 184.121C147.625 194.647 157.695 199.393 158.986 199.956H193.919C193.933 199.956 193.947 199.956 193.962 199.957C194.247 199.971 201.031 200.213 202.012 193.259C202.579 189.213 199.327 171.602 194.912 154.805C193.037 147.67 190.134 137.564 186.953 129.94C185.344 126.084 183.14 120.804 176.371 120.804C171.511 120.804 156.308 124.09 132.407 130.307C124.553 132.35 117.314 134.307 112.624 135.589C108.542 136.703 105.691 137.5 104.838 137.739L105.433 214.154C107.198 214.9 108.99 216.08 111.203 217.541C111.753 217.904 112.327 218.283 112.929 218.674C119.078 222.666 127.23 227.11 141.059 229.8C142.78 230.134 144.459 230.39 146.048 230.561C155.563 231.596 162.578 229.905 169.362 228.269Z" fill="#D8375D"/>
<path d="M315.931 189.749C315.717 189.517 315.509 189.277 315.308 189.025C312.593 185.623 311.772 181.125 312.933 176.013C313.276 174.501 313.894 173.054 314.774 171.692C299.653 174.08 280.69 169.655 280.494 169.609C280.448 169.598 280.403 169.583 280.359 169.564C280.355 169.563 280.032 169.423 279.44 169.181C275.136 167.438 252.903 158.992 238.162 163.983C227.409 167.624 223.981 175.458 222.895 179.804C221.261 186.345 222.75 193.28 226.69 197.472C232.23 203.368 240.431 208.47 246.957 212.257C249.677 213.836 252.392 215.345 255.032 216.807L267.933 199.607C267.959 199.573 267.988 199.544 268.017 199.515C266.594 198.125 264.997 196.58 263.358 195.05C258.802 190.795 252.196 184.996 247.434 183.765C247 183.653 246.739 183.21 246.851 182.776C246.963 182.342 247.405 182.083 247.84 182.193C247.951 182.222 248.063 182.255 248.175 182.288C248.095 182.229 248.052 182.198 248.052 182.198C248.052 182.198 256.718 182.842 263.307 185.134C268.47 186.93 279.436 194.177 283.942 197.231C287.402 198.445 288.384 199.522 288.782 200.32C290.559 203.875 290.933 211.945 290.933 218.089C290.933 218.103 290.929 218.116 290.929 218.13C290.957 220.157 290.798 222.411 290.638 224.352C290.397 227.226 290.553 232.873 290.718 238.852C290.86 243.986 291.007 249.29 290.919 253.369C290.924 253.399 290.931 253.427 290.932 253.457C290.935 253.517 291.21 259.481 291.403 266.003C291.538 270.76 291.598 274.607 291.581 277.463H313.104C313.351 275.666 313.681 273.813 314.119 271.361C314.398 269.803 314.72 267.999 315.092 265.81C315.331 264.396 315.59 262.817 315.874 261.037C316.951 254.271 316.56 247.066 316.215 240.709C315.891 234.747 315.612 229.597 316.47 225.589C316.707 224.485 317.058 223.355 317.483 222.198C318.11 217.961 319.294 209.394 318.597 202.896C317.902 196.406 316.457 191.418 315.931 189.749Z" fill="#F6F7F6"/>
<path d="M327.55 185.642C327.479 185.707 327.4 185.754 327.316 185.789L327.244 185.972C327.27 187.127 327.211 188.194 327.136 189.028C329.04 187.851 332.301 185.996 334.545 185.688C334.651 184.33 334.475 182.991 333.936 182.893L333.876 182.882C333.872 182.882 333.838 182.878 333.834 182.878C331.04 182.461 327.585 185.611 327.55 185.642Z" fill="#D9375E"/>
<path d="M331.326 179.657C330.788 179.59 330.223 179.654 329.682 179.782L328.438 182.942C329.734 182.108 331.507 181.238 333.274 181.22C333.272 181.151 333.277 181.082 333.295 181.012C333.399 180.599 333.297 180.436 333.264 180.382C333.111 180.134 332.676 179.919 332.039 179.778C331.832 179.731 331.593 179.691 331.326 179.657Z" fill="#D9375E"/>
<path d="M338.88 157.52C338.88 157.516 338.721 155.918 328.517 153.761L326.264 163.005C328.607 161.94 330.924 161.073 333.008 160.296C335.4 159.403 338.677 158.181 338.88 157.52Z" fill="white"/>
<path d="M330.992 178.01C331.06 178.011 331.127 178.017 331.195 178.022C331.168 177.978 331.138 177.935 331.108 177.892C331.07 177.932 331.031 177.971 330.992 178.01Z" fill="#D9375E"/>
<path d="M337.267 130.605C328.358 126.294 320.862 126.136 316.02 126.82C315.009 128.998 310.348 139.895 313.89 148.749C315.457 152.67 317.639 155.053 320.106 155.59C319.516 153.589 319.026 151.899 318.884 151.33C318.642 150.362 321.578 150.757 324.191 151.286C324.977 151.421 325.91 151.588 326.923 151.785C327.196 151.836 327.482 151.892 327.772 151.95L328.066 152.008C339.33 154.306 340.625 156.246 340.495 157.679C340.349 159.289 337.8 160.24 333.575 161.816C331.117 162.733 328.332 163.773 325.595 165.112C321.699 167.011 318.895 169.054 317.021 171.36C315.762 172.907 314.92 174.593 314.516 176.373C313.453 181.052 314.147 184.968 316.577 188.012C319.207 191.307 323.394 192.789 325.527 192.789C325.834 192.789 326.189 192.76 326.58 192.703C330.015 192.195 334.65 189.845 335.593 188.131C335.823 187.713 335.735 187.515 335.702 187.44C335.688 187.408 335.655 187.339 335.494 187.297C335.42 187.319 335.344 187.333 335.264 187.333C335.22 187.333 335.176 187.33 335.132 187.322C335.074 187.313 335.019 187.297 334.966 187.276C332.768 187.425 328.207 190.213 326.57 191.322C326.3 191.504 325.947 191.507 325.674 191.33C325.401 191.153 325.259 190.83 325.316 190.509C325.321 190.483 325.763 187.924 325.585 185.137C325.483 183.422 325.168 181.982 324.651 180.854C324.183 179.846 323.549 179.11 322.767 178.671C322.468 178.502 322.307 178.164 322.365 177.826C322.423 177.488 322.688 177.222 323.026 177.163C323.061 177.157 326.576 176.542 330.86 175.576C333.233 175.045 335.433 174.494 337.401 173.939L338.062 173.753C349.164 170.623 354.737 169.052 357.512 161.459C359.287 156.602 358.561 151.05 355.468 145.826C351.985 139.944 345.691 134.681 337.267 130.605Z" fill="#D8375D"/>
<path d="M312.907 279.087H291.561C291.552 279.545 291.54 279.977 291.524 280.373C291.229 288.035 289.455 295.504 289.437 295.58C289.431 295.605 289.423 295.631 289.415 295.655C287.016 302.588 276.456 310.079 271.403 311.694C271.358 311.724 271.309 311.751 271.257 311.772C269.85 312.36 268.594 312.551 267.486 312.72C265.742 312.985 264.589 313.161 263.674 314.688C263.258 315.381 263.13 315.984 263.294 316.481C263.551 317.262 264.456 317.646 264.466 317.65C264.569 317.693 264.659 317.755 264.733 317.83C268.475 318.28 276.543 317.948 283.701 317.652C289.706 317.404 295.379 317.17 298.339 317.377C304.597 317.814 311.97 317.905 313.438 314.707C315.234 310.798 314.358 306.175 313.43 301.28C312.982 298.913 312.518 296.466 312.327 293.975C312.325 293.951 312.324 293.928 312.325 293.904C312.325 293.847 312.388 288.064 312.617 282.959C312.681 281.579 312.775 280.327 312.907 279.087Z" fill="#D8375D"/>
<path d="M303.228 116.168C303.574 115.784 303.914 115.382 304.237 114.975C304.335 114.851 304.463 114.766 304.602 114.717C303.425 114.802 302.406 114.346 301.714 113.378C300.579 111.791 300.516 109.095 301.437 107.149C299.261 106.354 298.254 104.705 297.276 103.103C297.097 102.811 296.915 102.514 296.725 102.22C295.203 103.879 291.705 107.506 289.711 108.078C289.476 108.145 289.375 108.226 289.365 108.261C289.291 108.547 289.789 109.39 290.391 109.996C290.636 110.243 290.698 110.62 290.542 110.932C290.537 110.941 289.998 112.047 289.793 113.635C289.481 116.001 290.034 118.104 291.436 119.889C291.982 120.579 292.608 121.025 293.347 121.249C296.212 122.112 300.375 119.32 303.228 116.168Z" fill="#D8375D"/>
<path d="M287.856 148.324C288.244 148.935 288.654 149.005 288.965 149C290.128 148.977 293.014 147.632 299.265 138.886C302.355 134.563 304.98 130.205 305.728 128.944C305.116 127.578 303.24 122.996 303.351 118.379C300.784 120.887 297.489 123.035 294.5 123.035C294.246 123.035 293.994 123.017 293.745 122.985C293.549 124.008 293.134 125.986 292.551 127.769C292.542 127.849 292.524 127.928 292.489 128.004L292.43 128.127C292.152 128.942 291.864 129.617 291.574 130.128C291.555 130.162 291.528 130.189 291.505 130.219C290.754 131.985 289.696 134.632 288.819 137.433C287.142 142.79 286.799 146.658 287.856 148.324Z" fill="#D8375D"/>
<path d="M289.02 224.218C289.178 222.299 289.336 220.072 289.306 218.102C289.251 214.699 288.64 212.582 287.384 211.441C287.121 211.203 286.83 211.003 286.519 210.85C285.137 210.16 283.943 209.898 282.678 209.62C280.781 209.205 278.819 208.774 276.1 206.962C274.657 206.003 272.24 203.641 269.18 200.651L256.466 217.601C265.494 222.603 273.188 226.948 275.211 231.002C277.293 235.166 284.027 249.085 283.249 253.344C283.029 254.561 282.62 255.535 282.259 256.395C281.622 257.913 281.202 258.916 281.996 260.506C282.561 261.634 283.894 262.318 285.309 262.202C286.935 262.071 288.193 260.96 288.758 259.153C289.049 258.226 289.229 256.316 289.294 253.477C289.387 249.42 289.239 244.07 289.096 238.897C288.929 232.872 288.772 227.181 289.02 224.218Z" fill="#D8375D"/>
<path d="M275.832 196.812C271.968 196.04 268.102 195.5 265.906 195.22C267.31 196.555 268.65 197.862 269.841 199.026L270.286 199.462C273.179 202.29 275.678 204.733 277 205.611C279.465 207.255 281.195 207.633 283.025 208.035C284.127 208.276 285.261 208.528 286.524 209.067L275.919 196.935C275.885 196.896 275.857 196.855 275.832 196.812Z" fill="white"/>
<path d="M281.376 167.958C281.388 167.979 281.401 168.001 281.407 168.014C281.431 168.062 281.449 168.112 281.463 168.162C284.888 168.907 302.432 172.439 315.966 169.837C316.042 169.822 316.118 169.822 316.192 169.829C317.824 167.974 320.013 166.29 322.83 164.723C322.572 163.865 321.557 160.488 320.614 157.309C318.498 157.124 314.945 155.763 312.382 149.352C308.971 140.824 312.474 130.925 314.088 127.158C310.306 127.947 307.869 129.225 307.237 129.582C305.555 132.46 294.776 150.508 288.997 150.623C288.276 150.646 287.252 150.401 286.485 149.194C283.695 144.793 288.552 132.845 290.453 128.557L286.411 128.811C285.046 131.052 277.254 144.054 276.47 150.332C275.664 156.771 280.754 166.766 281.376 167.958Z" fill="#FE874F"/>
<path d="M261.44 134.108C246.248 136.663 213.867 140.972 212.496 141.154C212.451 141.16 212.406 141.163 212.361 141.161C212.234 141.156 199.655 140.719 196.752 140.719C195.72 140.719 195.186 140.844 194.97 141.137C194.275 142.078 195.254 145.632 196.051 148.224C196.057 148.242 196.061 148.261 196.066 148.28C196.074 148.311 196.877 151.612 199.269 152.09C199.365 152.109 199.451 152.147 199.529 152.194L199.641 152.208C200.945 152.372 203.129 152.646 203.619 152.252C203.968 151.77 203.129 149.267 201.797 146.705L199.712 149.007C199.411 149.34 198.898 149.365 198.565 149.064C198.233 148.763 198.208 148.25 198.509 147.917L201.362 144.768C201.536 144.575 201.794 144.478 202.052 144.506C202.311 144.534 202.54 144.685 202.669 144.911C204.156 147.524 206.39 152.115 204.633 153.52C203.608 154.341 201.583 154.087 199.439 153.819L199.003 153.765C198.544 153.708 197.425 153.571 196.923 153.624C196.922 153.79 196.944 154.011 197.006 154.273C197.259 155.345 198.05 156.647 199.189 156.976C201.84 157.734 203.323 157.291 205.201 156.731C205.593 156.614 205.996 156.494 206.425 156.38C208.749 155.761 210.973 154.645 212.935 153.661C214.684 152.784 216.065 152.091 217.141 151.937C218.324 151.767 232.5 151.128 246.615 150.537C255.236 148.232 274.775 142.873 277.774 140.873C277.915 140.78 278.04 140.703 278.158 140.636C280.465 135.707 283.321 130.806 284.582 128.701C282.225 128.677 279.867 129.405 276.516 130.442C273.051 131.514 268.74 132.849 262.527 133.921L261.44 134.108Z" fill="#D8375D"/>
<path d="M176.372 119.181C184.223 119.181 186.87 125.524 188.452 129.315C190.122 133.315 191.71 137.981 193.119 142.549C193.07 141.467 193.256 140.726 193.665 140.173C194.364 139.226 195.563 139.095 196.753 139.095C199.604 139.095 211.242 139.498 212.35 139.536C214.444 139.257 245.376 135.134 260.573 132.607L274.171 104.132L232.804 116.908C232.576 116.979 232.327 116.945 232.126 116.816C231.924 116.686 231.79 116.475 231.76 116.237L226.201 73.2947L198.303 106.416C197.995 106.782 197.37 106.782 197.061 106.416L169.168 73.2947L163.605 116.237C163.574 116.475 163.441 116.686 163.239 116.816C163.037 116.945 162.789 116.979 162.561 116.908L121.191 104.129L132.756 128.539C149.393 124.222 170.154 119.181 176.372 119.181Z" fill="white"/>
<path d="M195.915 152.264C196.026 152.2 196.149 152.147 196.284 152.108C196.046 151.843 195.835 151.567 195.65 151.287C195.74 151.618 195.828 151.942 195.915 152.264Z" fill="white"/>
<path d="M225.508 198.584C221.199 194 219.555 186.474 221.321 179.41C222.487 174.743 226.158 166.333 237.641 162.446C244.114 160.254 252.579 160.241 262.801 162.406C270.089 163.949 276.31 166.203 279.27 167.365C277.761 164.227 274.509 156.735 274.785 151.057C266.743 151.246 219.08 153.298 217.372 153.544C216.558 153.66 215.217 154.333 213.664 155.112C211.732 156.081 209.329 157.287 206.844 157.948C206.432 158.058 206.043 158.174 205.665 158.287C204.445 158.651 203.267 159.003 201.803 159.003C200.913 159.003 199.917 158.872 198.742 158.536C198.228 158.388 197.768 158.129 197.361 157.802C201.425 173.905 204.182 189.473 203.62 193.485C202.916 198.476 199.669 200.394 197.114 201.128C198.556 201.815 199.879 202.826 200.95 204.1C202.744 206.233 204.663 210.038 203.616 216.048C202.016 225.219 193.439 226.219 183.509 227.376C182.139 227.536 180.723 227.701 179.303 227.891C176.049 228.326 172.986 229.065 169.743 229.847C164.308 231.158 158.727 232.504 151.835 232.504C150.187 232.504 148.46 232.421 146.647 232.248L142.96 255.561L179.06 231.641C179.26 231.508 179.507 231.47 179.737 231.539C179.967 231.606 180.155 231.772 180.251 231.991L197.682 271.628L215.117 231.99C215.213 231.772 215.402 231.606 215.631 231.539C215.861 231.471 216.109 231.509 216.308 231.641L252.408 255.561L245.746 213.43C239.191 209.612 231.08 204.515 225.508 198.584Z" fill="white"/>
<path d="M97.151 220.184C102.024 219.292 103.381 215.893 103.737 214.474C103.776 214.317 103.799 214.199 103.81 214.136L103.206 136.754C103.129 136.193 102.228 130.677 96.6708 131.23C94.5203 131.445 92.7954 131.839 91.0576 132.309L91.7447 220.408C91.7455 220.508 91.7256 220.603 91.6936 220.691C93.5146 220.663 95.1408 220.55 97.151 220.184Z" fill="#FF4237"/>
<path d="M83.0244 81.0156C83.4757 80.061 84.2407 79.4206 85.1218 79.2599C85.9571 79.1069 86.7923 79.3869 87.4745 80.0456C88.787 81.3232 89.1636 83.6885 88.3341 85.4332C87.882 86.389 87.117 87.029 86.2359 87.1901C86.0869 87.2173 85.938 87.2307 85.7899 87.2307C85.108 87.2307 84.4441 86.9458 83.8832 86.404C82.5691 85.13 82.192 82.7635 83.0244 81.0156ZM40.4092 137.535L99.3783 84.628L47.7907 53.7007C47.0192 53.3955 46.2728 53.2489 45.5675 53.2672C42.3365 53.3261 40.4092 56.5493 40.4092 59.6312V137.535Z" fill="#F6F6F6"/>
<path d="M89.352 132.786C86.4518 133.615 83.1641 134.554 77.8577 134.99C76.1722 135.128 74.3447 134.921 72.4088 134.701C72.0249 134.657 71.632 134.613 71.2339 134.571L71.919 223.947C72.2704 223.809 72.6162 223.672 72.9567 223.537C74.8609 222.782 76.66 222.068 78.3228 221.737C83.6259 220.676 86.9226 220.686 89.8329 220.697C89.9478 220.697 90.0606 220.697 90.1746 220.697C90.1422 220.61 90.1215 220.518 90.1211 220.421L89.4372 132.761L89.352 132.786Z" fill="white"/>
<path d="M55.6727 195.169L55.8757 221.41C55.8895 223.059 56.3688 224.32 57.3006 225.155C58.801 226.501 61.1829 226.576 62.9171 226.4C65.7186 226.118 68.2016 225.336 70.3067 224.56C70.3046 224.538 70.2998 224.518 70.2998 224.495L69.6094 134.416C67.5421 134.249 65.122 134.192 62.4138 134.687C59.7235 135.175 55.217 136.762 55.2551 141.898L55.4617 168.131C55.4625 168.214 55.4507 168.295 55.4276 168.371C55.2925 169.787 55.4986 185.084 55.6727 195.169Z" fill="#FF4237"/>
<path d="M54.0496 195.189C54.0488 195.13 53.9319 188.366 53.8483 181.684C53.7992 177.759 53.7708 174.629 53.7635 172.381C53.7594 171.043 53.7631 170.006 53.7744 169.297C53.7826 168.78 53.7886 168.381 53.8382 168.082L53.6389 142.836L40.4092 144.684V210.352L54.1872 212.959L54.0496 195.189Z" fill="#D8375D"/>
<path d="M54.2459 220.54C54.1885 220.623 54.1261 220.705 54.063 220.788L54.2476 220.752L54.2459 220.54Z" fill="#D8375D"/>
<path d="M106.449 290.444C106.463 290.434 106.477 290.425 106.492 290.416C111.422 287.404 111.562 286.22 111.562 279.603V241.782L50.5681 329.657L106.449 290.444Z" fill="#F6F6F6"/>
<path d="M326.264 163.005L328.517 153.761C338.721 155.918 338.88 157.516 338.88 157.52C338.677 158.181 335.401 159.403 333.008 160.296C330.924 161.073 328.607 161.94 326.264 163.005ZM357.512 161.459C354.737 169.052 349.164 170.623 338.062 173.753L337.401 173.939C335.433 174.494 333.232 175.045 330.86 175.576C326.577 176.542 323.06 177.157 323.026 177.163C322.687 177.222 322.423 177.487 322.365 177.826C322.307 178.164 322.468 178.502 322.767 178.67C323.549 179.11 324.183 179.846 324.651 180.854C325.168 181.982 325.482 183.422 325.585 185.137C325.763 187.924 325.321 190.483 325.316 190.508C325.259 190.829 325.401 191.153 325.674 191.33C325.947 191.507 326.3 191.503 326.57 191.322C328.207 190.213 332.769 187.424 334.966 187.276C335.019 187.297 335.074 187.313 335.132 187.322C335.176 187.329 335.22 187.333 335.264 187.333C335.344 187.333 335.42 187.319 335.494 187.296C335.655 187.338 335.688 187.408 335.702 187.44C335.735 187.514 335.823 187.713 335.593 188.131C334.65 189.845 330.015 192.195 326.579 192.703C326.189 192.76 325.834 192.788 325.527 192.788C323.394 192.788 319.207 191.307 316.577 188.012C314.146 184.968 313.453 181.052 314.517 176.373C314.92 174.593 315.762 172.907 317.021 171.36C318.895 169.054 321.699 167.011 325.596 165.112C328.332 163.772 331.117 162.733 333.575 161.816C337.8 160.24 340.35 159.289 340.495 157.679C340.625 156.246 339.33 154.306 328.066 152.008L327.773 151.95C327.482 151.892 327.196 151.835 326.923 151.784C325.91 151.588 324.977 151.421 324.191 151.286C321.578 150.756 318.642 150.362 318.884 151.33C319.026 151.899 319.516 153.589 320.105 155.59C317.639 155.053 315.457 152.67 313.89 148.749C310.348 139.895 315.009 128.998 316.021 126.82C320.862 126.136 328.358 126.294 337.267 130.605C345.691 134.681 351.985 139.944 355.468 145.826C358.562 151.05 359.288 156.602 357.512 161.459ZM330.991 178.01C331.031 177.97 331.069 177.931 331.107 177.892C331.138 177.935 331.167 177.977 331.194 178.021C331.127 178.017 331.059 178.011 330.991 178.01ZM333.265 180.382C333.297 180.436 333.398 180.599 333.295 181.012C333.277 181.082 333.272 181.151 333.273 181.22C331.507 181.238 329.734 182.108 328.437 182.942L329.682 179.782C330.223 179.654 330.788 179.59 331.326 179.657C331.593 179.691 331.832 179.731 332.039 179.778C332.676 179.919 333.111 180.134 333.265 180.382ZM333.876 182.882L333.937 182.893C334.475 182.991 334.651 184.33 334.545 185.687C332.301 185.996 329.04 187.85 327.135 189.027C327.211 188.193 327.27 187.127 327.244 185.971L327.316 185.789C327.399 185.753 327.48 185.707 327.55 185.642C327.584 185.61 331.039 182.461 333.834 182.877C333.838 182.878 333.872 182.881 333.876 182.882ZM317.483 222.198C317.058 223.354 316.707 224.485 316.47 225.589C315.612 229.597 315.891 234.746 316.215 240.709C316.56 247.066 316.95 254.271 315.874 261.037C315.59 262.816 315.331 264.396 315.092 265.81C314.72 267.999 314.398 269.803 314.12 271.361C313.682 273.813 313.351 275.666 313.104 277.464H291.581C291.598 274.607 291.538 270.76 291.403 266.003C291.21 259.481 290.935 253.516 290.932 253.457C290.931 253.427 290.924 253.398 290.919 253.369C291.007 249.29 290.86 243.986 290.719 238.852C290.553 232.873 290.397 227.227 290.638 224.352C290.798 222.411 290.957 220.157 290.929 218.13C290.929 218.116 290.933 218.103 290.933 218.089C290.933 211.945 290.559 203.875 288.782 200.32C288.384 199.522 287.402 198.445 283.942 197.231C279.435 194.177 268.47 186.93 263.307 185.134C256.718 182.842 248.052 182.198 248.052 182.198C248.052 182.198 248.095 182.229 248.175 182.288C248.063 182.255 247.951 182.222 247.84 182.193C247.405 182.083 246.963 182.342 246.851 182.776C246.739 183.21 247 183.653 247.434 183.765C252.196 184.995 258.802 190.794 263.358 195.05C264.997 196.58 266.594 198.125 268.018 199.515C267.988 199.544 267.959 199.573 267.933 199.606L255.032 216.807C252.392 215.345 249.677 213.837 246.957 212.257C240.431 208.47 232.23 203.368 226.69 197.472C222.75 193.28 221.261 186.345 222.895 179.803C223.982 175.458 227.409 167.624 238.161 163.983C252.903 158.992 275.136 167.438 279.44 169.181C280.032 169.423 280.355 169.563 280.36 169.564C280.403 169.583 280.448 169.598 280.494 169.609C280.69 169.656 299.654 174.08 314.775 171.692C313.894 173.054 313.276 174.501 312.933 176.013C311.772 181.124 312.593 185.623 315.308 189.025C315.509 189.277 315.717 189.518 315.931 189.749C316.457 191.418 317.902 196.406 318.597 202.896C319.294 209.395 318.11 217.961 317.483 222.198ZM312.327 293.975C312.518 296.465 312.982 298.913 313.431 301.279C314.358 306.174 315.234 310.798 313.438 314.707C311.969 317.906 304.597 317.813 298.339 317.376C295.379 317.17 289.707 317.403 283.701 317.652C276.543 317.948 268.475 318.28 264.733 317.83C264.659 317.755 264.569 317.693 264.466 317.65C264.457 317.646 263.552 317.261 263.294 316.481C263.131 315.984 263.258 315.381 263.674 314.687C264.59 313.161 265.742 312.985 267.487 312.719C268.595 312.551 269.85 312.36 271.258 311.772C271.31 311.75 271.358 311.724 271.403 311.693C276.456 310.079 287.016 302.587 289.415 295.655C289.424 295.63 289.431 295.605 289.437 295.579C289.455 295.504 291.229 288.034 291.525 280.373C291.54 279.977 291.552 279.544 291.561 279.087H312.908C312.776 280.327 312.681 281.578 312.618 282.959C312.388 288.064 312.325 293.846 312.325 293.904C312.325 293.928 312.325 293.951 312.327 293.975ZM278.463 197.379C285.596 199.034 287.044 200.471 287.329 201.045C288.112 202.61 288.678 205.495 289 209.432L278.463 197.379ZM286.523 209.067C285.261 208.528 284.126 208.276 283.025 208.035C281.194 207.633 279.465 207.254 276.999 205.61C275.677 204.732 273.179 202.29 270.285 199.462L269.84 199.026C268.649 197.861 267.309 196.554 265.906 195.22C268.101 195.5 271.967 196.04 275.831 196.812C275.856 196.854 275.884 196.896 275.918 196.934L286.523 209.067ZM289.293 253.477C289.229 256.316 289.049 258.226 288.758 259.153C288.192 260.959 286.935 262.07 285.308 262.202C283.893 262.318 282.56 261.634 281.996 260.506C281.202 258.916 281.622 257.913 282.259 256.395C282.62 255.535 283.028 254.561 283.249 253.344C284.026 249.085 277.292 235.166 275.21 231.002C273.188 226.948 265.493 222.603 256.465 217.601L269.18 200.651C272.239 203.641 274.657 206.003 276.099 206.962C278.819 208.774 280.78 209.205 282.677 209.62C283.942 209.898 285.137 210.16 286.519 210.85C286.829 211.003 287.12 211.203 287.384 211.441C288.64 212.582 289.251 214.699 289.306 218.102C289.336 220.072 289.178 222.299 289.02 224.218C288.772 227.181 288.929 232.872 289.096 238.897C289.239 244.07 289.387 249.42 289.293 253.477ZM252.408 255.561L216.308 231.641C216.108 231.509 215.861 231.471 215.631 231.539C215.401 231.606 215.213 231.772 215.117 231.99L197.682 271.628L180.251 231.991C180.155 231.772 179.966 231.606 179.737 231.539C179.507 231.47 179.259 231.508 179.06 231.641L142.96 255.561L146.646 232.248C148.46 232.421 150.187 232.504 151.834 232.504C158.726 232.504 164.308 231.158 169.743 229.847C172.986 229.065 176.049 228.326 179.303 227.891C180.723 227.701 182.139 227.536 183.508 227.376C193.439 226.219 202.016 225.219 203.615 216.048C204.662 210.037 202.744 206.233 200.95 204.1C199.879 202.826 198.556 201.815 197.114 201.128C199.669 200.393 202.916 198.476 203.62 193.485C204.182 189.473 201.424 173.905 197.36 157.802C197.767 158.129 198.228 158.388 198.741 158.536C199.917 158.872 200.912 159.002 201.803 159.002C203.267 159.002 204.445 158.651 205.665 158.287C206.043 158.174 206.432 158.058 206.843 157.948C209.328 157.287 211.732 156.081 213.664 155.112C215.216 154.333 216.558 153.66 217.371 153.543C219.08 153.298 266.743 151.246 274.784 151.057C274.508 156.735 277.761 164.227 279.269 167.365C276.309 166.203 270.088 163.949 262.8 162.406C252.578 160.241 244.114 160.254 237.641 162.446C226.158 166.333 222.487 174.743 221.321 179.41C219.555 186.474 221.199 194 225.508 198.584C231.08 204.514 239.191 209.612 245.746 213.429L252.408 255.561ZM141.059 229.8C127.23 227.11 119.079 222.666 112.929 218.674C112.327 218.283 111.753 217.904 111.203 217.541C108.991 216.08 107.199 214.9 105.433 214.154L104.838 137.738C105.691 137.499 108.543 136.702 112.624 135.589C117.314 134.307 124.554 132.35 132.407 130.307C156.309 124.09 171.511 120.804 176.371 120.804C183.141 120.804 185.344 126.084 186.953 129.94C190.135 137.564 193.037 147.67 194.912 154.805C199.328 171.602 202.579 189.213 202.012 193.259C201.032 200.212 194.248 199.971 193.962 199.957C193.948 199.956 193.934 199.956 193.92 199.956H158.987C157.696 199.393 147.625 194.647 148.382 184.121C148.429 183.471 148.519 182.791 148.65 182.1C149.371 178.307 151.386 175.587 154.323 174.442C158.042 172.993 165.119 173.231 177.713 182.6C178.005 182.817 178.406 182.813 178.694 182.59C178.983 182.367 179.086 181.979 178.949 181.642C178.628 180.854 170.957 162.356 159.988 161.404C157.299 161.171 154.965 161.903 153.043 163.579C149.285 166.855 147.202 173.541 146.677 184.018C146.676 184.032 146.675 184.078 146.675 184.091C146.675 184.203 146.698 184.308 146.739 184.403C146.143 196.477 158.398 201.472 158.524 201.522C158.618 201.56 158.72 201.579 158.822 201.579H192.271C192.403 201.673 192.564 201.729 192.739 201.729C195.304 201.729 197.909 203.006 199.708 205.145C201.279 207.013 202.956 210.375 202.016 215.77C200.625 223.747 192.988 224.637 183.321 225.764C181.944 225.925 180.522 226.09 179.088 226.282C175.75 226.728 172.647 227.476 169.362 228.268C162.579 229.905 155.564 231.596 146.048 230.561C144.46 230.389 142.781 230.133 141.059 229.8ZM111.562 219.72V279.603C111.562 286.22 111.422 287.404 106.492 290.415C106.477 290.425 106.463 290.434 106.449 290.444L50.5678 329.657L49.4781 330.421C49.4338 330.447 49.3863 330.475 49.3222 330.507C48.4736 330.964 47.5645 331.208 46.6193 331.231C44.9943 331.27 43.3908 330.634 42.2135 329.484C41.0499 328.349 40.4091 326.816 40.4091 325.166V225.137L54.3149 222.392C54.5004 224.057 55.1339 225.393 56.2167 226.363C57.4886 227.505 59.3336 228.093 61.6059 228.092C62.0791 228.092 62.5714 228.067 63.0799 228.016C66.3161 227.689 69.1197 226.749 71.4342 225.873C72.1639 225.598 72.8705 225.318 73.5552 225.046C75.3892 224.319 77.1217 223.632 78.6404 223.328C83.7837 222.3 86.8559 222.312 89.8275 222.32C90.2009 222.322 90.5706 222.323 90.9403 222.322C92.6903 222.314 94.78 222.266 97.4428 221.781C102.434 220.867 104.345 217.585 105.034 215.748C106.597 216.445 108.267 217.547 110.308 218.896C110.711 219.161 111.131 219.438 111.562 219.72ZM40.4091 144.683L53.6388 142.836L53.8381 168.082C53.7889 168.381 53.7825 168.779 53.7743 169.297C53.7634 170.006 53.7593 171.043 53.7638 172.381C53.7707 174.628 53.7991 177.758 53.8482 181.684C53.9322 188.365 54.0487 195.129 54.0495 195.189L54.1871 212.959L40.4091 210.352V144.683ZM27.7711 108.409V89.8987C27.7711 88.0391 28.6039 86.9725 30.056 86.9725C31.5109 86.9725 32.345 88.0391 32.345 89.8987V108.409H27.7711ZM27.7711 131.202V110.033H32.345V131.202C32.345 133.061 31.5109 134.128 30.056 134.128C28.6039 134.128 27.7711 133.061 27.7711 131.202ZM55.2548 141.898C55.2171 136.762 59.7236 135.175 62.4139 134.687C65.1217 134.192 67.5422 134.249 69.6091 134.416L70.2995 224.495C70.2999 224.517 70.3048 224.538 70.3064 224.56C68.2017 225.336 65.7187 226.118 62.9172 226.4C61.1826 226.576 58.8011 226.501 57.3003 225.155C56.3689 224.319 55.8892 223.059 55.8758 221.41L55.6729 195.169C55.4984 185.084 55.2926 169.787 55.4277 168.37C55.4505 168.295 55.4626 168.214 55.4618 168.131L55.2548 141.898ZM90.1745 220.697C90.0605 220.697 89.9476 220.697 89.8332 220.697C86.9229 220.686 83.6258 220.676 78.323 221.737C76.6599 222.068 74.8608 222.782 72.9565 223.537C72.6164 223.672 72.2703 223.809 71.9188 223.947L71.2337 134.571C71.6319 134.613 72.0251 134.657 72.4087 134.701C74.3449 134.921 76.1725 135.128 77.8579 134.99C83.1643 134.554 86.4517 133.615 89.3523 132.786L89.4375 132.761L90.1209 220.421C90.1217 220.518 90.1424 220.61 90.1745 220.697ZM91.0576 132.309C92.795 131.839 94.5199 131.445 96.6704 131.23C102.228 130.677 103.128 136.192 103.206 136.754L103.81 214.136C103.799 214.199 103.776 214.316 103.737 214.473C103.38 215.893 102.024 219.291 97.1505 220.184C95.1408 220.55 93.5146 220.663 91.6932 220.691C91.7252 220.602 91.7451 220.508 91.7443 220.408L91.0576 132.309ZM45.5673 53.2668C46.2731 53.2485 47.0191 53.3954 47.791 53.7006L99.3786 84.628L106.774 89.0614C111.562 91.9222 111.562 96.031 111.562 98.7505V134.196C108.246 135.102 105.818 135.779 104.743 136.08C104.228 133.343 102.002 129.073 96.5097 129.615C93.7715 129.888 91.7179 130.428 89.5057 131.054L88.9058 131.225C85.9395 132.072 82.8721 132.949 77.7244 133.371C76.1984 133.498 74.5268 133.308 72.5925 133.088C71.9225 133.011 71.2321 132.933 70.5182 132.865C68.1838 132.644 65.3608 132.497 62.123 133.09C56.9785 134.024 53.9351 136.96 53.6571 141.194L40.4091 143.044V59.6308C40.4091 56.5488 42.3364 53.326 45.5673 53.2668ZM121.19 104.129L162.56 116.908C162.789 116.979 163.037 116.945 163.238 116.815C163.44 116.686 163.574 116.474 163.605 116.237L169.167 73.2944L197.061 106.416C197.369 106.782 197.994 106.782 198.303 106.416L226.2 73.2944L231.759 116.237C231.79 116.474 231.924 116.686 232.125 116.815C232.327 116.945 232.575 116.979 232.804 116.908L274.17 104.131L260.573 132.606C245.376 135.134 214.444 139.257 212.35 139.536C211.241 139.497 199.604 139.095 196.752 139.095C195.562 139.095 194.364 139.226 193.664 140.172C193.256 140.726 193.069 141.466 193.118 142.548C191.71 137.981 190.121 133.315 188.451 129.314C186.87 125.524 184.222 119.18 176.371 119.18C170.154 119.18 149.393 124.222 132.755 128.539L121.19 104.129ZM276.516 130.442C279.867 129.405 282.225 128.676 284.582 128.701C283.321 130.807 280.465 135.707 278.158 140.636C278.041 140.703 277.915 140.779 277.774 140.873C274.775 142.873 255.236 148.232 246.616 150.537C232.5 151.128 218.324 151.767 217.141 151.936C216.066 152.09 214.684 152.783 212.935 153.661C210.973 154.645 208.75 155.761 206.425 156.38C205.997 156.494 205.593 156.614 205.201 156.731C203.323 157.292 201.84 157.733 199.189 156.976C198.05 156.647 197.259 155.345 197.006 154.272C196.944 154.011 196.922 153.79 196.923 153.624C197.425 153.571 198.544 153.708 199.003 153.764L199.439 153.819C201.584 154.087 203.609 154.341 204.633 153.52C206.39 152.115 204.157 147.523 202.669 144.911C202.54 144.685 202.311 144.534 202.052 144.506C201.795 144.478 201.536 144.575 201.362 144.768L198.509 147.917C198.208 148.249 198.233 148.763 198.566 149.064C198.898 149.365 199.411 149.34 199.712 149.007L201.797 146.705C203.129 149.266 203.969 151.769 203.619 152.253C203.129 152.646 200.946 152.372 199.641 152.208L199.53 152.194C199.451 152.146 199.365 152.109 199.269 152.09C196.877 151.612 196.073 148.311 196.066 148.28C196.062 148.261 196.057 148.242 196.051 148.224C195.254 145.632 194.276 142.077 194.97 141.137C195.187 140.844 195.72 140.719 196.752 140.719C199.655 140.719 212.235 141.156 212.361 141.161C212.406 141.162 212.451 141.16 212.497 141.154C213.868 140.972 246.248 136.663 261.44 134.108L262.528 133.921C268.74 132.849 273.052 131.514 276.516 130.442ZM286.411 128.811L290.454 128.557C288.552 132.845 283.696 144.793 286.485 149.194C287.252 150.401 288.277 150.646 288.997 150.623C294.777 150.508 305.555 132.46 307.237 129.582C307.869 129.225 310.306 127.947 314.088 127.158C312.474 130.925 308.971 140.824 312.383 149.352C314.945 155.763 318.498 157.123 320.614 157.309C321.557 160.488 322.572 163.864 322.83 164.723C320.013 166.29 317.825 167.974 316.192 169.829C316.118 169.822 316.043 169.822 315.966 169.837C302.433 172.439 284.888 168.907 281.463 168.162C281.45 168.112 281.431 168.062 281.407 168.014C281.401 168.001 281.388 167.979 281.377 167.958C280.754 166.766 275.664 156.771 276.47 150.332C277.254 144.053 285.046 131.051 286.411 128.811ZM291.505 130.219C291.528 130.189 291.555 130.162 291.574 130.128C291.864 129.616 292.152 128.942 292.431 128.127L292.489 128.004C292.524 127.928 292.542 127.849 292.551 127.769C293.134 125.986 293.549 124.008 293.745 122.985C293.994 123.017 294.246 123.035 294.5 123.035C297.489 123.035 300.784 120.887 303.351 118.379C303.24 122.996 305.116 127.578 305.728 128.945C304.98 130.205 302.356 134.563 299.265 138.886C293.014 147.632 290.128 148.977 288.965 149C288.654 149.005 288.244 148.935 287.856 148.324C286.8 146.658 287.142 142.79 288.819 137.433C289.696 134.632 290.754 131.985 291.505 130.219ZM291.437 119.888C290.034 118.104 289.482 116 289.794 113.635C289.999 112.046 290.538 110.941 290.543 110.932C290.698 110.62 290.637 110.243 290.392 109.996C289.79 109.39 289.291 108.547 289.366 108.261C289.375 108.225 289.477 108.145 289.712 108.078C291.705 107.506 295.203 103.879 296.726 102.22C296.916 102.514 297.098 102.811 297.276 103.103C298.254 104.705 299.261 106.354 301.438 107.149C300.517 109.095 300.58 111.791 301.715 113.378C302.407 114.346 303.425 114.802 304.602 114.717C304.463 114.766 304.336 114.851 304.237 114.975C303.915 115.382 303.575 115.784 303.229 116.168C300.375 119.32 296.213 122.111 293.348 121.248C292.608 121.024 291.983 120.579 291.437 119.888ZM356.864 144.998C353.218 138.841 346.686 133.358 337.974 129.143C328.425 124.523 320.4 124.492 315.349 125.278C311.22 125.921 308.346 127.178 307.027 127.852C306.255 126.009 304.501 121.219 305.089 116.954C305.108 116.814 305.087 116.679 305.041 116.556C305.151 116.424 305.259 116.291 305.366 116.158C306.356 118.519 308.414 120.662 310.81 121.761C311.747 122.19 312.735 122.398 313.683 122.398C315.271 122.398 316.744 121.815 317.659 120.716C318.493 119.715 318.726 118.442 318.368 117.099C320.371 117.909 322.929 118.604 324.465 116.904C326.106 115.086 325.131 112.039 323.822 110.067C325.744 109.853 327.978 109.363 328.63 107.037C329.525 103.831 327.875 102.149 326.418 100.665C326.239 100.482 326.056 100.297 325.879 100.108C327.787 99.6365 329.896 98.6251 330.952 96.9315C331.683 95.759 331.806 94.3954 331.308 92.9879C329.789 88.7047 324.987 87.8159 320.382 88.4713C321.127 87.2059 321.584 85.7221 321.262 84.3159C321.043 83.3564 320.357 82.0529 318.336 81.2939C313.991 79.6612 309.19 81.8069 306.005 83.8199C306.235 81.5354 305.846 79.8889 304.842 78.9133C303.895 77.9912 302.488 77.7465 300.663 78.184C294.921 79.5573 291.053 86.5103 291.142 92.0159C288.46 91.2477 285.393 91.882 283.713 95.0646C282.308 97.7245 282.48 101.497 285.191 104.038C283.595 104.512 281.809 105.536 281.448 108.084C281.169 110.039 281.741 111.775 283.06 112.971C284.343 114.135 286.215 114.667 288.099 114.439C288.027 116.287 288.405 118.658 290.162 120.893C290.74 121.624 291.416 122.171 292.179 122.531C292.016 123.392 291.646 125.206 291.128 126.888L286.017 127.21C285.947 127.18 285.873 127.156 285.793 127.148C282.734 126.818 279.924 127.688 276.036 128.891C272.67 129.934 268.489 131.226 262.532 132.271L276.434 103.159C276.573 102.868 276.526 102.522 276.316 102.278C276.105 102.034 275.769 101.939 275.462 102.033L233.245 115.073L227.574 71.2554C227.532 70.9364 227.306 70.6718 226.998 70.5809C226.689 70.4904 226.355 70.5906 226.148 70.837L197.682 104.633L169.22 70.837C169.013 70.5906 168.679 70.4904 168.371 70.5809C168.062 70.6718 167.836 70.936 167.794 71.2554L162.118 115.073L119.906 102.033C119.6 101.94 119.264 102.034 119.053 102.277C118.843 102.521 118.795 102.865 118.933 103.156L131.156 128.955C124.15 130.783 117.695 132.523 113.185 133.753V98.7505C113.185 95.852 113.185 91.0009 107.608 87.6685L48.5702 52.2749C48.5341 52.2534 48.4967 52.2347 48.4574 52.2189C47.5406 51.8471 46.638 51.6645 45.767 51.6519C44.8295 51.3901 40.4939 51.6215 33.4716 52.3094C29.1112 52.7355 25.7642 54.3544 23.5239 57.1203C20.0535 61.4043 20.4829 66.9052 20.543 67.518C20.545 71.8175 20.6404 306.123 20.6404 317.886C20.6404 332.725 30.6372 333.153 31.7768 333.153C34.75 333.153 43.6534 332.932 46.5791 332.859L47.4683 332.837C47.6059 332.833 47.7325 332.792 47.8445 332.729C48.6205 332.587 49.3685 332.326 50.0702 331.948C50.1603 331.903 50.2455 331.854 50.3307 331.803C50.3494 331.792 50.3669 331.781 50.3843 331.768L107.36 291.787C112.971 288.355 113.185 286.572 113.185 279.603V220.766C119.333 224.645 127.483 228.813 140.75 231.394C142.217 231.677 143.651 231.903 145.03 232.074L141.069 257.13C141.018 257.448 141.161 257.766 141.431 257.94C141.702 258.113 142.05 258.111 142.319 257.933L179.153 233.526L196.939 273.971C197.069 274.266 197.36 274.456 197.682 274.456C198.004 274.456 198.295 274.266 198.425 273.972L216.215 233.526L253.049 257.933C253.318 258.111 253.666 258.114 253.936 257.94C254.207 257.766 254.349 257.448 254.299 257.13L247.554 214.472C250.011 215.879 252.451 217.234 254.823 218.547L254.874 218.576C264.01 223.635 271.9 228.004 273.758 231.727C279.003 242.217 282.102 250.588 281.652 253.054C281.463 254.096 281.106 254.946 280.762 255.768C280.07 257.417 279.417 258.975 280.544 261.232C281.342 262.826 283.099 263.837 285.005 263.837C285.148 263.837 285.293 263.832 285.439 263.82C287.2 263.678 288.682 262.715 289.619 261.169C289.666 262.445 289.712 263.813 289.755 265.219H232.304C231.96 265.219 231.653 265.436 231.539 265.761L207.196 334.8C207.109 335.048 207.147 335.324 207.299 335.538C207.452 335.753 207.699 335.881 207.962 335.881H351.793C352.076 335.881 352.338 335.734 352.486 335.493C352.633 335.251 352.644 334.951 352.515 334.699L317.11 265.66C317.04 265.525 316.936 265.42 316.816 265.345C317.021 264.117 317.24 262.777 317.477 261.292C318.581 254.355 318.185 247.059 317.836 240.621C317.519 234.775 317.245 229.725 318.058 225.93C318.656 223.143 320.068 220.069 321.562 216.816C324.473 210.481 327.753 203.314 327.53 194.181C330.792 193.502 335.694 191.314 337.015 188.914C337.526 187.985 337.39 187.242 337.186 186.781C337.056 186.488 336.763 186.054 336.161 185.814C336.266 184.47 336.202 182.267 334.821 181.516C334.837 181.479 334.86 181.447 334.869 181.408C335.049 180.692 334.974 180.06 334.645 179.529C334.337 179.029 333.828 178.656 333.106 178.398C333.103 178.384 333.103 178.371 333.1 178.358C333.073 178.251 332.883 177.553 332.389 176.89C334.342 176.436 336.176 175.971 337.841 175.501L338.502 175.315C349.77 172.139 355.977 170.39 359.036 162.016C360.982 156.693 360.211 150.649 356.864 144.998Z" fill="#700051"/>
<path d="M85.7899 87.2306C85.938 87.2306 86.087 87.2172 86.2359 87.1896C87.1174 87.0289 87.882 86.3889 88.3341 85.4327C89.1637 83.688 88.7871 81.3228 87.4746 80.0456C86.7923 79.3869 85.9571 79.1064 85.1219 79.2594C84.2408 79.4206 83.4758 80.061 83.0245 81.0155C82.1921 82.7631 82.5691 85.1296 83.8832 86.4039C84.4441 86.9457 85.1081 87.2306 85.7899 87.2306Z" fill="#700051"/>
</svg>
