<svg width="375" height="376" viewBox="0 0 375 376" fill="none" xmlns="http://www.w3.org/2000/svg">
<path d="M66.1187 184.572V203.935H88.988V184.503H66.1118C66.1138 184.526 66.1187 184.548 66.1187 184.572Z" fill="#F7F5F6"/>
<path d="M64.4953 184.572C64.4953 184.548 64.5001 184.526 64.5022 184.503H52.4863V203.935H64.4953V184.572Z" fill="#F7F5F6"/>
<path d="M128.286 157.542C128.286 157.99 127.922 158.354 127.474 158.354H84.7872C84.3387 158.354 83.9755 157.99 83.9755 157.542V148.533C83.9755 148.084 84.3387 147.721 84.7872 147.721H127.474C127.922 147.721 128.286 148.084 128.286 148.533V157.542ZM140.997 264.21C141.012 264.18 141.029 264.152 141.046 264.127C141.171 263.945 141.359 263.819 141.574 263.771C141.652 263.732 141.859 263.622 142.348 263.331V138.95H72.064V165.6C89.7182 165.648 112.783 165.973 113.017 165.975C113.461 165.982 113.817 166.344 113.817 166.787V198.406L138.443 265.49C139.5 265.118 140.354 264.749 140.758 264.365C140.829 264.296 140.911 264.247 140.997 264.21Z" fill="#FFB0A8"/>
<path d="M86.6258 267.347C90.3218 267.309 92.9874 265.575 95.0231 261.89C95.2516 261.476 95.472 261.038 95.6786 260.591C96.5077 258.797 97.224 256.643 97.9334 253.814C99.3571 248.119 100.535 239.447 100.933 231.721C101.017 230.093 101.067 228.535 101.083 227.091C101.133 222.213 99.6018 217.834 96.8823 215.075C94.9298 213.094 92.4756 212.042 89.7849 212.031H89.7342C88.0852 212.031 86.3677 212.418 84.6278 213.184C84.5925 213.199 84.5564 213.212 84.5195 213.223C84.5057 213.226 82.5779 213.818 80.6266 216.357C78.7958 218.739 76.5726 223.36 76.3786 231.842C76.3628 232.43 76.3587 233.039 76.3669 233.656C76.4655 243.751 76.7504 254.158 78.9984 260.763C80.3721 264.815 82.3003 266.937 84.8937 267.252C85.5251 267.327 86.0937 267.362 86.6258 267.347Z" fill="#D8375D"/>
<path d="M316.211 207.473H324.044V224.182H316.211V207.473Z" fill="#FF3420"/>
<path d="M304.836 123.118C304.743 122.705 304.982 122.292 305.385 122.165L312.781 119.85L306.625 115.148C306.289 114.891 306.206 114.421 306.434 114.065L310.61 107.536L302.869 107.89C302.449 107.901 302.081 107.603 302.027 107.184L301.031 99.5011L295.329 104.747C295.019 105.033 294.54 105.033 294.23 104.747L288.529 99.5011L287.533 107.184C287.478 107.603 287.098 107.895 286.691 107.89L278.95 107.536L283.126 114.065C283.353 114.421 283.27 114.891 282.934 115.148L276.778 119.85L284.174 122.165C284.577 122.292 284.816 122.705 284.723 123.117L283.032 130.679L290.182 127.698C290.284 127.656 290.389 127.636 290.494 127.636C290.789 127.636 291.071 127.797 291.215 128.074L294.78 134.954L298.344 128.074C298.539 127.699 298.987 127.536 299.378 127.698L306.53 130.679L304.836 123.118Z" fill="#FF4239"/>
<path d="M294.78 137.53C294.477 137.53 294.199 137.361 294.059 137.092L290.117 129.484L282.21 132.78C281.931 132.897 281.609 132.848 281.377 132.652C281.144 132.458 281.04 132.15 281.106 131.854L282.976 123.491L274.797 120.93C274.507 120.84 274.293 120.595 274.24 120.297C274.188 119.998 274.306 119.695 274.547 119.511L281.356 114.31L276.738 107.09C276.575 106.835 276.567 106.51 276.719 106.247C276.871 105.984 277.157 105.836 277.459 105.842L286.019 106.234L287.12 97.7381C287.159 97.4373 287.363 97.1833 287.647 97.0798C287.933 96.9747 288.252 97.0396 288.475 97.245L294.78 103.046L301.085 97.245C301.308 97.0392 301.626 96.9755 301.912 97.0794C302.197 97.1833 302.4 97.4373 302.439 97.7381L303.541 106.234L312.1 105.842C312.398 105.836 312.689 105.984 312.84 106.247C312.992 106.51 312.985 106.835 312.822 107.09L308.203 114.31L315.013 119.511C315.254 119.695 315.372 119.998 315.319 120.297C315.266 120.595 315.052 120.84 314.762 120.93L306.583 123.491L308.457 131.853C308.524 132.149 308.419 132.458 308.187 132.652C307.955 132.847 307.634 132.897 307.353 132.78L299.442 129.484L295.5 137.092C295.361 137.361 295.083 137.53 294.78 137.53ZM320.295 116.678C320.295 102.83 309.029 91.564 295.181 91.564C281.334 91.564 270.068 102.83 270.068 116.678C270.068 129.299 279.493 140.009 291.992 141.591C291.992 141.591 291.993 141.591 291.993 141.591C293.889 141.833 295.923 141.854 297.77 141.658C310.613 140.345 320.295 129.606 320.295 116.678Z" fill="#FE874F"/>
<path d="M286.897 248.013H230.901C230.789 248.45 230.694 248.885 230.632 249.326L230.583 249.684C230.397 251.023 230.312 251.634 230.283 253.924C230.281 254.044 230.252 254.156 230.204 254.258C234.889 257.304 239.39 260.203 242.176 261.997C243.426 262.802 244.334 263.387 244.782 263.678C244.799 263.681 244.815 263.681 244.832 263.685C247.159 264.247 258.583 267.185 259.956 270.968H287.181C287.321 267.915 287.878 254.563 287.157 249.325C287.098 248.893 287.009 248.454 286.897 248.013Z" fill="white"/>
<path d="M233.462 242.3C232.693 243.671 231.962 244.982 231.419 246.39H286.372C285.828 244.984 285.098 243.675 284.33 242.307C282.796 239.571 281.208 236.742 281.05 232.872C280.86 228.22 283.033 224.849 284.62 222.387C285.049 221.721 285.442 221.111 285.746 220.55H264.52C252.086 222.025 239.164 228.696 236.565 230.092C236.709 230.965 236.779 231.888 236.739 232.872C236.58 236.738 234.995 239.566 233.462 242.3Z" fill="#FFB0A8"/>
<path d="M248.509 207.802C250.299 207.802 251.756 209.259 251.756 211.049C251.756 212.839 250.299 214.296 248.509 214.296C246.719 214.296 245.262 212.839 245.262 211.049C245.262 209.259 246.719 207.802 248.509 207.802ZM264.122 193.764C267.57 193.764 270.376 196.569 270.376 200.018C270.376 203.466 267.57 206.272 264.122 206.272C260.674 206.272 257.868 203.466 257.868 200.018C257.868 196.569 260.674 193.764 264.122 193.764ZM231.434 218.926H286.355C286.736 216.161 286.319 202.383 286.038 195.334C286.036 195.267 286.041 195.199 286.055 195.133C286.061 195.107 286.633 192.236 285.032 190.269C283.97 188.963 282.156 188.301 279.641 188.301H262.73C262.612 188.301 262.5 188.276 262.399 188.231C262.247 188.215 261.829 188.188 260.741 188.188C258.508 188.188 255.121 188.3 255.087 188.301L238.144 188.301C235.629 188.301 233.815 188.963 232.753 190.269C231.152 192.236 231.725 195.107 231.73 195.135C231.744 195.2 231.75 195.269 231.747 195.334C231.467 202.391 231.049 216.191 231.434 218.926Z" fill="white"/>
<path d="M264.122 204.648C266.675 204.648 268.753 202.571 268.753 200.018C268.753 197.464 266.675 195.387 264.122 195.387C261.568 195.387 259.491 197.464 259.491 200.018C259.491 202.571 261.568 204.648 264.122 204.648Z" fill="#FE874F"/>
<path d="M263.352 142.331H255.726V170.375H263.415C263.399 170.311 263.388 170.246 263.388 170.177L263.381 164.822C263.336 164.722 263.311 164.611 263.311 164.494C263.311 164.378 263.336 164.268 263.38 164.168L263.352 142.331Z" fill="#FF3420"/>
<path d="M314.588 206.661C314.588 206.213 314.952 205.85 315.4 205.85H324.856C325.305 205.85 325.668 206.213 325.668 206.661V224.993C325.668 225.441 325.305 225.805 324.856 225.805H315.4C314.952 225.805 314.588 225.441 314.588 224.993V206.661ZM305.765 257.672C305.765 258.12 305.402 258.484 304.954 258.484H295.498C295.049 258.484 294.686 258.12 294.686 257.672V239.336C294.686 238.888 295.049 238.525 295.498 238.525H304.954C305.402 238.525 305.765 238.888 305.765 239.336V257.672ZM293.963 194.859V176.527C293.963 176.079 294.327 175.716 294.775 175.716H304.227C304.676 175.716 305.039 176.079 305.039 176.527V194.859C305.039 195.307 304.676 195.671 304.227 195.671H294.775C294.327 195.671 293.963 195.307 293.963 194.859ZM311.151 165.067V154.133H278.972V164.495C278.972 164.943 278.608 165.306 278.16 165.306H265.005L265.011 170.175C265.011 170.245 265 170.311 264.983 170.375H275.299C278.141 170.375 280.453 172.687 280.453 175.529V182.656C280.453 184.282 279.694 185.732 278.514 186.678H279.641C282.676 186.678 284.916 187.545 286.301 189.255C288.209 191.613 287.776 194.733 287.664 195.363C287.731 197.073 288.476 216.376 287.928 219.38C287.921 219.42 287.91 219.46 287.901 219.5C287.925 219.576 287.941 219.654 287.941 219.738C287.941 219.997 287.817 220.225 287.628 220.374C287.271 221.271 286.669 222.205 285.985 223.266C284.433 225.672 282.502 228.667 282.673 232.805C282.814 236.286 284.238 238.824 285.746 241.512C286.683 243.184 287.653 244.912 288.257 246.855C288.492 247.605 288.664 248.362 288.765 249.104C289.509 254.511 288.957 267.73 288.806 270.967H332.949V165.878H311.963C311.515 165.878 311.151 165.515 311.151 165.067Z" fill="#F7F5F6"/>
<path d="M248.509 212.672C249.404 212.672 250.132 211.944 250.132 211.049C250.132 210.154 249.404 209.426 248.509 209.426C247.614 209.426 246.886 210.154 246.886 211.049C246.886 211.944 247.614 212.672 248.509 212.672Z" fill="#FE874F"/>
<path d="M245.153 265.438C244.515 266.48 242.913 268.206 240.815 269.124L243.095 270.683C243.205 270.759 243.287 270.858 243.347 270.968H258.12C256.534 269.008 250.078 266.694 245.153 265.438Z" fill="#D9375E"/>
<path d="M237.215 268.043C237.797 268.154 238.397 268.146 238.998 268.018C241.122 267.58 242.932 265.77 243.608 264.852C243.113 264.532 242.317 264.019 241.296 263.361C238.247 261.398 233.144 258.112 227.993 254.756C224.687 252.603 222.138 250.93 219.996 249.509C219.801 249.465 219.633 249.35 219.52 249.193C214.921 246.138 212.271 244.308 211.198 243.447C207.358 240.374 202.551 240.49 202.504 240.492L197.358 240.493H183.861C183.789 240.492 178.968 240.389 175.144 243.448C172.935 245.214 164.181 251.096 157.356 255.598C151.462 259.487 146.074 262.963 143.631 264.453C143.283 264.665 143.01 264.827 142.792 264.953C143.493 265.856 145.284 267.564 147.416 268.01C148.032 268.143 148.631 268.154 149.198 268.044C149.885 267.913 151.648 267.301 156.159 265.123C164.79 260.967 177.741 253.87 177.87 253.799C178.08 253.685 178.329 253.667 178.552 253.753C178.774 253.838 178.948 254.017 179.027 254.243C179.075 254.38 180.208 257.633 180.548 259.82C180.802 261.476 180.016 262.473 178.712 264.126C177.912 265.14 176.818 266.528 175.488 268.619C174.889 269.555 174.305 270.751 173.749 272.176C172.066 276.472 171.08 281.746 170.729 283.845H176.733L192.198 283.73C192.221 283.728 192.243 283.723 192.266 283.723H192.272L192.704 283.726L192.865 283.725C192.872 283.725 192.877 283.723 192.883 283.723H193.374C193.381 283.723 193.387 283.725 193.394 283.725L194.227 283.731H194.227L215.613 283.84C215.262 281.742 214.277 276.491 212.606 272.204C212.054 270.785 211.465 269.579 210.855 268.618C209.887 267.098 209.045 265.952 208.35 265.048C204.144 262.978 196.149 262.171 197.99 261.29C200.167 260.249 204.659 255.743 207.464 253.986C207.551 253.884 207.659 253.802 207.787 253.753C208.009 253.667 208.258 253.683 208.468 253.798C208.525 253.83 214.285 256.978 220.632 260.28C224.232 262.154 227.355 263.731 229.921 264.972C229.996 264.997 230.067 265.029 230.131 265.074C234.73 267.288 236.524 267.912 237.215 268.043H237.215Z" fill="#F7F5F6"/>
<path d="M242.886 62.5802C244.159 60.5867 244.475 58.0611 243.691 56.1463C243.211 54.9726 242.371 54.1938 241.327 53.9544C238.329 53.2681 235.881 55.3326 235.856 55.3533C235.802 55.4004 235.742 55.4353 235.68 55.4653V69.1695C237.448 67.9966 241.106 65.3631 242.886 62.5802Z" fill="#FF4237"/>
<path d="M242.764 92.1566C242.595 90.7065 241.915 89.4074 240.743 88.2844C238.884 90.2276 236.74 91.4021 234.893 91.4581C234.844 91.4597 234.794 91.4606 234.744 91.4606C234.441 91.4606 234.148 91.4285 233.867 91.368C232.559 93.9979 231.004 98.1801 232.778 100.629C233.282 101.323 233.966 101.649 234.844 101.621C236.488 101.575 238.639 100.287 240.325 98.3396C242.067 96.327 242.979 94.0158 242.764 92.1566Z" fill="#FF4237"/>
<path d="M232.793 88.7755C233.074 89.1874 233.4 89.4731 233.788 89.6464C234.096 89.7848 234.45 89.8518 234.842 89.836C236.404 89.7885 238.404 88.5563 240.064 86.6205C241.986 84.3802 242.995 81.7783 242.763 79.6602C242.752 79.5689 242.741 79.4825 242.727 79.396C242.1 75.172 237.776 73.228 235.844 72.5632L235.678 75.2864C235.677 75.299 235.673 75.3112 235.671 75.3238C235.667 75.3701 235.658 75.4147 235.646 75.4581C235.641 75.4764 235.635 75.4938 235.629 75.5117C235.611 75.5608 235.589 75.6075 235.563 75.6517C235.558 75.6594 235.556 75.6683 235.551 75.6761C235.537 75.6984 234.086 77.9723 233.043 80.7686C232.124 83.2337 231.335 86.6233 232.793 88.7755Z" fill="#FF4237"/>
<path d="M235.082 103.423L234.887 103.476C234.5 105.637 233.908 110.261 234.702 112.174C234.827 112.475 234.991 112.668 235.204 112.765C236.299 113.253 238.915 111.386 240.083 108.799C241.187 106.349 239.585 103.463 238.881 102.381L235.084 103.423C235.083 103.423 235.083 103.423 235.082 103.423Z" fill="#FF4237"/>
<path d="M186.728 127.883C188.019 129.419 189.198 131.035 190.253 132.691C190.317 132.679 190.384 132.673 190.453 132.678L222.549 134.714C223.036 134.712 223.516 134.653 223.976 134.538C226.216 134 227.776 132.259 227.776 130.302V92.1317L186.722 127.876C186.724 127.878 186.726 127.881 186.728 127.883Z" fill="#F6F6F6"/>
<path d="M152.475 185.99C152.111 187.595 151.804 189.449 151.889 191.481C152.078 195.887 154.554 196.811 156.598 196.811H177.576C177.652 196.811 177.726 196.822 177.796 196.842C179.014 196.953 191.179 196.885 199.192 196.811H220.177C222.221 196.811 224.697 195.887 224.886 191.48C224.972 189.403 224.652 187.514 224.276 185.886C224.148 185.97 223.995 186.02 223.83 186.02H152.682C152.61 186.02 152.541 186.008 152.475 185.99Z" fill="white"/>
<path d="M178.375 197.477C178.349 197.329 178.285 197.205 178.202 197.107C178.289 197.211 178.349 197.338 178.375 197.477Z" fill="white"/>
<path d="M223.83 184.397C223.856 184.397 223.881 184.402 223.907 184.405C223.852 184.193 223.797 183.975 223.743 183.768C223.349 182.272 222.977 180.858 222.898 179.544C222.65 175.448 223.022 172.895 223.355 170.647H153.421C153.753 172.894 154.126 175.446 153.877 179.544C153.798 180.857 153.426 182.271 153.031 183.767C152.978 183.971 152.923 184.188 152.869 184.397H223.83Z" fill="#D8375D"/>
<path d="M223.424 169.024C223.478 169.024 223.531 169.029 223.582 169.04C223.736 167.844 223.85 166.53 223.782 164.943C223.598 160.721 219.179 160.065 218.693 160.005H158.083C157.604 160.066 153.176 160.742 152.993 164.943C152.929 166.447 153.017 167.673 153.191 169.024H223.424Z" fill="white"/>
<path d="M157.298 157.646C157.398 157.955 157.475 158.194 157.535 158.382H219.423L223.318 136.294C223.056 136.321 222.79 136.337 222.523 136.337C222.506 136.337 222.489 136.337 222.472 136.336L217.121 135.996C213.436 137.869 199.763 144.787 195.698 146.413C194.17 147.024 193.784 145.76 193.755 144.448C193.745 144.423 193.733 144.4 193.726 144.374C192.707 140.754 191.181 137.277 189.189 134.039C188.1 132.277 186.853 130.558 185.485 128.929C179.659 122.023 173.3 118.846 173.236 118.814C172.89 118.644 172.711 118.252 172.81 117.879C174.969 109.708 177.64 104.994 179.995 100.834C182.071 97.1683 184.032 93.7069 185.414 88.3733C187.42 80.6363 185.092 75.5092 181.896 73.8611C179.504 72.6277 176.817 73.3915 174.707 75.9053C173.691 77.1164 172.502 78.4589 171.165 79.9609L170.42 80.7974C163.32 88.7669 153.595 99.6825 152.048 108.486C150.341 118.221 149.866 134.654 157.298 157.646Z" fill="#FF4237"/>
<path d="M219.365 261.45C214.639 258.985 210.318 256.651 208.542 255.688C208.184 256.798 207.61 258.699 207.399 260.068C207.259 260.985 207.623 261.496 208.909 263.127C209.729 264.166 210.852 265.591 212.225 267.747C212.795 268.644 213.342 269.726 213.858 270.968H219.369C219.369 270.953 219.365 270.938 219.365 270.923V261.45Z" fill="#FF4237"/>
<path d="M196.991 40.5254C195.438 40.5254 194.175 39.262 194.175 37.7089C194.175 36.1537 195.438 34.8879 196.991 34.8879C198.544 34.8879 199.808 36.1537 199.808 37.7089C199.808 39.262 198.544 40.5254 196.991 40.5254ZM176.71 35.3359C176.675 35.3404 176.64 35.3424 176.606 35.3424C173.71 35.3424 171.354 37.3201 171.354 39.7503V69.6792L217.579 30.0587L176.71 35.3359Z" fill="#F6F6F6"/>
<path d="M208.387 331.929H199.363C199.187 333.186 198.717 335.998 197.619 339.904C196.418 344.179 195.98 346.821 195.864 347.603H211.536C211.451 346.699 211.07 343.094 210.095 339.051C209.251 335.554 208.65 333.033 208.387 331.929Z" fill="#FE874F"/>
<path d="M193.926 233.643C193.149 234.831 192.17 235.605 191.095 235.896L190.955 238.87L196.464 238.87L196.216 236.131C196.211 236.087 196.214 236.044 196.217 236.002C195.334 235.398 194.511 234.494 193.926 233.643Z" fill="#D9375E"/>
<path d="M186.897 331.929H177.915C177.684 333.238 177.114 336.297 176.251 339.875C175.449 343.195 175.121 346.144 174.997 347.603H190.396C190.282 346.822 189.846 344.181 188.641 339.905C187.544 335.999 187.074 333.186 186.897 331.929Z" fill="#FE874F"/>
<path d="M200.751 233.293C200.817 234.601 200.356 235.86 199.052 236.498C198.822 236.609 198.516 236.702 198.136 236.702C198.059 236.702 197.978 236.696 197.896 236.688L198.094 238.869H202.478C202.674 238.865 207.911 238.738 212.214 242.18C213.152 242.934 215.5 244.562 219.365 247.139V198.435H199.199C199.206 198.435 193.848 198.484 188.465 198.509C185.855 198.521 183.857 198.529 182.323 198.529C179.377 198.529 178.144 198.502 177.576 198.428V198.435H157.409V253.618C164.044 249.232 172.063 243.832 174.13 242.18C178.434 238.738 183.668 238.86 183.888 238.87H189.33L189.467 235.961C188.661 235.792 187.949 235.323 187.448 234.61C186.998 233.971 186.759 233.2 186.732 232.355C185.303 233.618 183.542 234.821 181.747 233.877C180.949 233.458 180.436 232.776 180.264 231.903C179.899 230.054 181.13 227.708 182.145 226.16C180.975 226.266 179.846 226.158 178.987 225.554C178.222 225.017 177.759 224.154 177.61 222.99C177.483 221.992 177.867 220.948 178.721 219.971C179.824 218.711 181.587 217.697 183.35 217.232C182.384 216.199 181.753 214.911 181.722 213.761C181.693 212.676 182.177 211.749 183.087 211.15C184.475 210.236 186.873 210.375 188.823 211.293C188.853 210.599 189.055 209.896 189.431 209.26C190.184 207.984 191.458 207.293 192.83 207.407C195.093 207.595 195.814 209.561 196.077 211.374C197.602 209.964 199.899 208.62 201.966 209.479C203.063 209.933 203.435 210.667 203.554 211.202C203.792 212.277 203.241 213.46 202.497 214.519C203.692 214.548 204.948 214.866 205.802 215.531C206.644 216.187 207.038 217.131 206.912 218.19C206.697 220.034 205.324 220.508 204.166 220.722C205.313 221.312 206.427 222.163 207.068 223.109C207.782 224.163 207.716 225.045 207.535 225.598C207.121 226.875 206.081 227.611 204.433 227.799C205.421 229.297 206.063 231.424 204.965 233.053C203.746 234.86 201.963 234.042 200.751 233.293Z" fill="#FF4237"/>
<path d="M177.438 263.121C178.722 261.493 179.085 260.984 178.944 260.068C178.732 258.699 178.157 256.799 177.798 255.688C174.831 257.304 164.753 262.757 157.409 266.321V270.967H172.487C173.007 269.711 173.556 268.628 174.12 267.746C175.493 265.587 176.617 264.161 177.438 263.121Z" fill="#FF4237"/>
<path d="M147.662 269.695L146.281 270.967H155.786V267.101C152.605 268.607 150.542 269.441 149.505 269.638C148.907 269.754 148.289 269.771 147.662 269.695Z" fill="white"/>
<path d="M144.014 270.849L145.802 269.201C143.864 268.417 142.259 266.929 141.464 265.874C140.432 266.596 138.718 267.133 136.618 267.791C134.129 268.57 131.113 269.516 129.007 270.967H143.909C143.94 270.926 143.974 270.886 144.014 270.849Z" fill="#D9375E"/>
<path d="M97.7916 294.626V294.626C102.969 298.274 108.885 291.49 108.944 291.421C114.021 285.765 118.466 279.185 122.545 271.289C123.93 268.613 125.307 265.705 126.637 262.645C129.029 257.134 128.658 252.193 125.59 248.732C123.4 246.263 120.023 244.857 116.676 244.857C115.584 244.857 114.496 245.006 113.453 245.317C112.827 245.503 112.226 245.746 111.668 246.041C108.039 247.941 104.323 253.239 100.918 261.363C99.5648 264.592 98.3022 268.174 97.165 272.01C96.3732 274.683 95.6841 277.36 95.1715 279.754C95.139 279.888 92.5035 290.904 97.7916 294.626Z" fill="#D8375D"/>
<path d="M74.0022 260.225H77.1296C75.1097 253.391 74.8378 243.387 74.7424 233.674C74.738 233.322 74.738 232.973 74.7412 232.628H66.1182V253.301C66.1182 253.316 66.1146 253.33 66.1138 253.345C69.1268 255.042 71.7769 257.351 74.0022 260.225Z" fill="#F7F5F6"/>
<path d="M78.0066 272.097C77.0796 268.442 75.3536 264.793 73.1405 261.776C72.8945 261.665 72.716 261.436 72.6734 261.161C70.4441 258.297 67.7728 256.027 64.7184 254.421C64.4643 254.286 64.2091 254.157 63.9501 254.031C60.5626 252.405 56.0471 251.974 51.8755 252.881C48.5658 253.595 44.1811 255.39 40.6819 259.808C42.6316 259.877 45.3227 261.362 49.0638 264.422C53.0658 267.697 55.7204 270.549 57.8949 272.965C58.2375 273.346 58.5739 273.723 58.9075 274.096C61.7545 277.284 64.4432 280.295 69.0723 283.581C71.1202 285.036 73.6632 285.234 75.55 284.081C77.3811 282.964 78.4627 280.721 78.6774 277.596C78.776 276.165 78.5313 274.16 78.0066 272.097Z" fill="#D8375D"/>
<path d="M195.864 347.603C195.979 346.821 196.417 344.179 197.618 339.905C198.716 335.998 199.186 333.186 199.363 331.929H208.387C208.649 333.034 209.25 335.554 210.094 339.052C211.069 343.094 211.45 346.699 211.536 347.603H195.864ZM192.035 347.603C191.979 347.164 191.591 344.391 190.203 339.465C188.825 334.558 188.455 331.362 188.423 331.067C188.415 330.42 188.336 321.384 190.057 312.324C191.039 307.14 191.353 302.481 191.606 298.739C191.819 295.589 192.003 292.869 192.515 290.963C192.748 290.101 192.951 289.341 193.131 288.665C193.312 289.341 193.515 290.101 193.748 290.963C194.26 292.868 194.443 295.588 194.655 298.736C194.906 302.48 195.22 307.139 196.202 312.324C197.922 321.386 197.844 330.424 197.836 331.067C197.804 331.364 197.438 334.546 196.056 339.465C194.67 344.394 194.28 347.167 194.224 347.603H192.035ZM174.996 347.603C175.12 346.144 175.448 343.195 176.25 339.875C177.114 336.297 177.683 333.239 177.914 331.929H186.897C187.073 333.186 187.543 335.999 188.641 339.905C189.845 344.181 190.281 346.823 190.396 347.603H174.996ZM173.366 347.603H106.82L110.206 312.067C110.207 312.057 110.207 312.046 110.208 312.034L110.235 311.748C110.235 311.736 110.233 311.724 110.234 311.713C110.234 311.699 110.238 311.687 110.238 311.674C110.238 311.653 110.234 311.632 110.233 311.611C110.232 311.597 110.232 311.584 110.23 311.571C110.076 307.702 101.333 305.509 92.3052 304.978C94.349 300.248 96.5609 297.399 97.4684 296.341C98.6636 297.033 99.8896 297.323 101.095 297.323C104.874 297.323 108.441 294.5 110.164 292.492C115.203 286.879 119.633 280.36 123.697 272.586C123.714 272.587 123.731 272.591 123.748 272.591H171.861C169.91 278.033 169.015 284.265 168.976 284.543C168.943 284.776 169.013 285.011 169.167 285.189C169.321 285.366 169.544 285.468 169.779 285.468H176.037C176.208 286.823 176.542 290.254 176.419 295.845C176.379 297.737 176.328 299.152 176.284 300.401C176.152 304.142 176.091 305.849 176.588 312.071C177.215 319.93 176.472 330.357 176.424 331.02C176.37 331.347 175.757 334.999 174.672 339.495C173.823 343.011 173.487 346.136 173.366 347.603ZM70.4043 347.603L67.2577 314.58C70.9724 317.165 79.5483 318.504 87.7947 318.504C87.903 318.504 88.0158 318.504 88.0938 318.5C96.2135 318.471 104.657 317.126 108.336 314.573L105.189 347.603H70.4043ZM77.7115 284.416C78.931 283.175 80.0625 281.118 80.2967 277.707C80.3933 276.303 80.2139 274.512 79.791 272.591H85.5439C85.4651 277.218 85.774 284.344 86.1003 291.864C86.289 296.208 86.4826 300.686 86.6096 304.863C86.5187 304.864 86.4282 304.865 86.3377 304.867C83.6092 293.914 78.1266 285.075 77.7115 284.416ZM75.5499 284.081C73.6632 285.233 71.1202 285.036 69.0723 283.581C64.4428 280.295 61.7541 277.284 58.9071 274.096C58.5735 273.722 58.2371 273.345 57.8945 272.965C55.7204 270.549 53.0654 267.697 49.0633 264.422C45.3223 261.362 42.6311 259.877 40.6815 259.808C44.1806 255.39 48.5654 253.595 51.8754 252.881C56.0467 251.974 60.5621 252.405 63.9501 254.031C64.2086 254.157 64.4639 254.286 64.7184 254.421C67.7728 256.027 70.4436 258.297 72.6733 261.161C72.7159 261.436 72.8945 261.665 73.1401 261.776C75.3531 264.793 77.0796 268.442 78.0061 272.097C78.5313 274.16 78.7756 276.165 78.6774 277.596C78.4623 280.721 77.3811 282.964 75.5499 284.081ZM52.4862 232.627H64.4952V252.497C61.0211 250.876 56.7046 250.382 52.4862 251.11V232.627ZM52.4862 205.558H64.4952V231.004H52.4862V205.558ZM52.4862 184.502H64.5021C64.5 184.526 64.4952 184.548 64.4952 184.571V203.934H52.4862V184.502ZM52.4862 167.457C53.8353 167.333 58.1701 167.188 71.2508 167.222C87.1514 167.257 107.892 167.53 112.194 167.588V182.879H52.4862V167.457ZM52.4862 80.0787H104.935L77.3296 137.327H71.2525C70.8044 137.327 70.4408 137.69 70.4408 138.139V165.597C58.8332 165.574 54.3235 165.677 52.4862 165.846V80.0787ZM107.102 80.0787C107.038 86.4951 106.586 131.858 106.54 137.327H79.1319L106.737 80.0787H107.102ZM108.726 80.0787H108.924L135.584 137.327H108.164C108.209 131.834 108.665 86.125 108.726 80.0787ZM168.886 80.0787C161.687 88.1611 152.052 99.0832 150.449 108.205C147.299 126.172 151.595 145.28 155.754 158.145C155.838 158.406 155.92 158.66 155.985 158.866C153.885 159.651 151.521 161.443 151.371 164.874C151.282 166.973 151.486 168.61 151.682 169.977C151.724 170.267 151.766 170.558 151.81 170.851C152.147 173.135 152.496 175.496 152.256 179.446C152.187 180.599 151.851 181.875 151.462 183.353C151.337 183.825 151.209 184.311 151.085 184.811C150.62 186.696 150.159 188.971 150.267 191.55C150.439 195.543 152.483 198.041 155.786 198.389V254.45C155.786 254.526 155.8 254.597 155.819 254.667C151.008 257.837 146.608 260.683 143.972 262.333V138.139C143.972 137.69 143.608 137.327 143.16 137.327H137.375L110.714 80.0787H168.886ZM170.42 80.7971L171.165 79.9606C172.502 78.4586 173.691 77.1165 174.707 75.905C176.817 73.3917 179.504 72.6274 181.896 73.8608C185.093 75.5093 187.42 80.636 185.414 88.3734C184.032 93.7066 182.071 97.1684 179.996 100.834C177.64 104.994 174.969 109.708 172.81 117.879C172.711 118.252 172.89 118.644 173.236 118.815C173.3 118.846 179.659 122.023 185.485 128.929C186.853 130.557 188.1 132.277 189.189 134.039C191.181 137.276 192.707 140.753 193.726 144.373C193.733 144.4 193.746 144.423 193.755 144.448C193.784 145.76 194.17 147.024 195.698 146.413C199.763 144.787 213.436 137.869 217.121 135.996L222.472 136.336C222.489 136.336 222.506 136.337 222.523 136.337C222.79 136.337 223.056 136.321 223.319 136.293L219.423 158.382H157.535C157.475 158.194 157.398 157.955 157.298 157.645C149.866 134.653 150.341 118.222 152.048 108.486C153.595 99.6822 163.32 88.7671 170.42 80.7971ZM171.354 77.2999V39.75C171.354 37.3198 173.71 35.3426 176.606 35.3426C176.64 35.3426 176.675 35.3401 176.709 35.3357L217.58 30.0585L222.573 29.4136C225.446 29.4363 227.774 31.4046 227.774 33.8206V130.302C227.774 132.259 226.214 134 223.975 134.539C223.515 134.653 223.035 134.712 222.548 134.713L190.451 132.678C190.383 132.672 190.317 132.679 190.252 132.691C189.197 131.035 188.017 129.419 186.727 127.883C186.725 127.881 186.723 127.879 186.72 127.876C181.649 121.867 176.31 118.64 174.546 117.67C176.617 110.093 179.052 105.794 181.408 101.634C183.538 97.873 185.55 94.3206 186.985 88.7809C189.217 80.1761 186.411 74.362 182.64 72.4176C179.572 70.8361 176.056 71.7727 173.463 74.8616C172.831 75.6153 172.121 76.431 171.354 77.2999ZM230.794 44.539C230.794 44.0909 231.157 43.7273 231.605 43.7273C232.054 43.7273 232.417 44.0909 232.417 44.539V59.0723C232.417 59.5203 232.054 59.8839 231.605 59.8839C231.157 59.8839 230.794 59.5203 230.794 59.0723V44.539ZM233.043 80.7687C234.086 77.972 235.537 75.6981 235.552 75.6757C235.556 75.668 235.558 75.6591 235.563 75.6514C235.589 75.6072 235.612 75.5605 235.629 75.5114C235.636 75.4935 235.641 75.4761 235.646 75.4578C235.658 75.4144 235.666 75.3697 235.672 75.3235C235.673 75.3109 235.678 75.2987 235.679 75.2861L235.844 72.5629C237.776 73.2277 242.1 75.1717 242.728 79.3957C242.741 79.4822 242.752 79.5686 242.763 79.6599C242.995 81.778 241.986 84.3799 240.064 86.6201C238.405 88.556 236.405 89.7882 234.843 89.8356C234.45 89.8515 234.096 89.7845 233.788 89.6465C233.4 89.4728 233.074 89.1871 232.793 88.7752C231.335 86.623 232.124 83.2334 233.043 80.7687ZM235.68 55.4651C235.742 55.4351 235.802 55.4002 235.856 55.3531C235.881 55.3324 238.329 53.2679 241.327 53.9542C242.371 54.1936 243.211 54.9724 243.691 56.1465C244.475 58.0609 244.159 60.5865 242.886 62.58C241.106 65.3628 237.448 67.9964 235.68 69.1692V55.4651ZM240.082 108.799C238.915 111.386 236.299 113.253 235.203 112.764C234.991 112.668 234.826 112.475 234.701 112.174C233.907 110.261 234.5 105.637 234.886 103.476L235.082 103.423C235.082 103.423 235.083 103.422 235.083 103.422L238.881 102.381C239.585 103.463 241.187 106.349 240.082 108.799ZM234.844 101.621C233.965 101.649 233.282 101.323 232.778 100.629C231.004 98.1802 232.559 93.998 233.866 91.3681C234.148 91.4286 234.44 91.4606 234.744 91.4606C234.794 91.4606 234.843 91.4598 234.893 91.4582C236.74 91.4022 238.884 90.2277 240.743 88.2849C241.915 89.4075 242.595 90.7066 242.763 92.1567C242.979 94.0158 242.067 96.3271 240.325 98.3397C238.639 100.287 236.488 101.575 234.844 101.621ZM244.411 80.0787H332.949V164.255H312.774V153.321C312.774 152.873 312.411 152.51 311.963 152.51H298.716V143.175C311.997 141.43 321.918 130.179 321.918 116.678C321.918 101.935 309.924 89.9408 295.181 89.9408C280.438 89.9408 268.444 101.935 268.444 116.678C268.444 129.872 278.123 141.099 291.074 143.094V152.51H278.16C277.712 152.51 277.348 152.873 277.348 153.321V163.683H265.002L264.974 141.518C264.973 141.071 264.61 140.708 264.162 140.708H254.913C254.465 140.708 254.101 141.071 254.101 141.519V170.375H242.673C239.831 170.375 237.519 172.687 237.519 175.529V182.656C237.519 184.282 238.278 185.733 239.458 186.678H238.144C235.109 186.678 232.868 187.545 231.484 189.256C229.576 191.613 230.009 194.733 230.121 195.363C230.054 197.073 229.309 216.377 229.861 219.377C229.896 219.573 229.949 219.778 230.037 220.055C230.379 221.065 231.038 222.085 231.799 223.266C233.353 225.672 235.285 228.666 235.116 232.805C234.974 236.283 233.552 238.82 232.045 241.506C231.09 243.211 230.102 244.973 229.503 246.958C229.281 247.678 229.124 248.38 229.024 249.104L228.974 249.461C228.803 250.694 228.709 251.377 228.67 253.26C225.519 251.207 223.061 249.593 220.989 248.219V198.389C224.291 198.041 226.336 195.543 226.507 191.549C226.616 188.94 226.146 186.647 225.672 184.749C225.554 184.272 225.432 183.807 225.313 183.355C224.924 181.876 224.588 180.599 224.518 179.445C224.279 175.491 224.629 173.127 224.968 170.84L225.08 170.076C225.293 168.589 225.494 166.962 225.403 164.873C225.258 161.542 223.026 159.757 220.974 158.937L224.958 136.346C229.099 136.23 232.118 135.122 233.935 133.044C235.886 130.814 235.725 128.255 235.68 127.813V114.455C237.827 114.389 240.403 112.036 241.562 109.467C243.25 105.722 240.334 101.585 239.909 101.013C240.482 100.538 241.035 99.9988 241.552 99.4026C243.618 97.0171 244.647 94.3076 244.376 91.9696C244.159 90.1027 243.292 88.4521 241.801 87.052C243.516 84.8251 244.461 82.3085 244.411 80.0787ZM297.092 143.339V152.51H292.697V143.3C293.516 143.376 294.348 143.415 295.181 143.415C295.83 143.415 296.466 143.384 297.092 143.339ZM291.993 141.591C291.992 141.591 291.992 141.591 291.991 141.591C279.493 140.009 270.067 129.299 270.067 116.678C270.067 102.83 281.333 91.5641 295.181 91.5641C309.029 91.5641 320.295 102.83 320.295 116.678C320.295 129.606 310.612 140.345 297.769 141.658C295.923 141.854 293.888 141.833 291.993 141.591ZM332.949 270.968H288.806C288.957 267.73 289.509 254.511 288.765 249.104C288.663 248.362 288.492 247.605 288.257 246.855C287.653 244.912 286.683 243.184 285.746 241.512C284.238 238.825 282.814 236.287 282.672 232.805C282.502 228.666 284.433 225.672 285.984 223.266C286.669 222.205 287.271 221.271 287.627 220.374C287.817 220.226 287.941 219.997 287.941 219.738C287.941 219.655 287.924 219.576 287.901 219.5C287.909 219.461 287.921 219.42 287.927 219.381C288.476 216.377 287.731 197.073 287.664 195.363C287.776 194.733 288.209 191.613 286.301 189.256C284.916 187.545 282.676 186.678 279.641 186.678H278.514C279.694 185.733 280.453 184.282 280.453 182.656V175.529C280.453 172.687 278.141 170.375 275.299 170.375H264.983C265 170.31 265.011 170.244 265.011 170.175L265.004 165.306H278.16C278.608 165.306 278.972 164.943 278.972 164.494V154.133H311.151V165.067C311.151 165.515 311.515 165.878 311.963 165.878H332.949V270.968ZM236.565 230.092C239.164 228.695 252.085 222.025 264.519 220.55H285.746C285.441 221.111 285.049 221.721 284.62 222.387C283.033 224.848 280.859 228.22 281.05 232.871C281.208 236.741 282.795 239.571 284.33 242.306C285.098 243.675 285.827 244.984 286.372 246.39H231.418C231.962 244.982 232.693 243.671 233.461 242.3C234.994 239.565 236.58 236.738 236.739 232.871C236.779 231.888 236.709 230.965 236.565 230.092ZM261.991 187.828C261.989 187.822 261.988 187.816 261.986 187.81C261.988 187.816 261.989 187.822 261.991 187.828ZM263.38 164.822L263.387 170.177C263.387 170.246 263.399 170.311 263.414 170.375H255.725V142.331H263.351L263.379 164.168C263.336 164.268 263.31 164.378 263.31 164.494C263.31 164.611 263.336 164.722 263.38 164.822ZM231.73 195.135C231.724 195.106 231.152 192.236 232.753 190.268C233.815 188.963 235.629 188.301 238.144 188.301L255.086 188.301C255.121 188.3 258.508 188.187 260.741 188.187C261.829 188.187 262.246 188.215 262.399 188.231C262.5 188.276 262.612 188.301 262.73 188.301H279.641C282.156 188.301 283.97 188.963 285.032 190.268C286.633 192.236 286.061 195.106 286.055 195.133C286.041 195.199 286.035 195.267 286.038 195.334C286.319 202.383 286.736 216.16 286.354 218.926H231.434C231.049 216.191 231.466 202.391 231.747 195.334C231.75 195.268 231.743 195.2 231.73 195.135ZM287.18 270.968H259.955C258.582 267.185 247.159 264.247 244.832 263.685C244.815 263.681 244.798 263.681 244.782 263.678C244.334 263.387 243.426 262.802 242.175 261.996C239.39 260.203 234.888 257.304 230.204 254.258C230.252 254.157 230.281 254.044 230.282 253.925C230.312 251.634 230.396 251.023 230.582 249.684L230.632 249.326C230.693 248.885 230.788 248.45 230.901 248.013H286.896C287.008 248.454 287.097 248.893 287.157 249.325C287.878 254.563 287.321 267.914 287.18 270.968ZM243.347 270.968C243.287 270.858 243.205 270.759 243.095 270.683L240.815 269.124C242.913 268.205 244.515 266.48 245.153 265.438C250.078 266.694 256.533 269.008 258.119 270.968H243.347ZM230.593 270.968C230.58 270.064 230.552 268.4 230.52 267.058C233.767 268.592 235.866 269.439 236.911 269.638C236.911 269.638 236.912 269.638 236.912 269.638C237.526 269.755 238.152 269.773 238.778 269.697L240.635 270.968H230.593ZM178.202 197.107C178.284 197.205 178.348 197.329 178.374 197.477C178.349 197.338 178.288 197.211 178.202 197.107ZM196.464 238.869L190.955 238.87L191.095 235.896C192.17 235.606 193.149 234.831 193.926 233.642C194.511 234.494 195.334 235.397 196.217 236.002C196.214 236.044 196.211 236.086 196.215 236.13L196.464 238.869ZM204.433 227.8C206.081 227.612 207.122 226.875 207.536 225.599C207.716 225.045 207.782 224.164 207.068 223.109C206.427 222.163 205.312 221.312 204.166 220.722C205.323 220.509 206.697 220.034 206.912 218.19C207.038 217.131 206.644 216.187 205.802 215.531C204.948 214.866 203.692 214.548 202.497 214.519C203.241 213.46 203.792 212.277 203.554 211.202C203.435 210.667 203.062 209.933 201.965 209.479C199.899 208.62 197.602 209.964 196.078 211.375C195.814 209.561 195.093 207.595 192.83 207.407C191.458 207.293 190.185 207.984 189.431 209.26C189.055 209.896 188.853 210.599 188.823 211.293C186.873 210.375 184.475 210.236 183.087 211.15C182.177 211.749 181.693 212.677 181.722 213.761C181.753 214.911 182.384 216.199 183.35 217.233C181.587 217.697 179.823 218.711 178.721 219.972C177.867 220.948 177.483 221.992 177.61 222.99C177.759 224.154 178.222 225.017 178.987 225.554C179.846 226.158 180.975 226.265 182.145 226.16C181.129 227.708 179.899 230.054 180.264 231.903C180.436 232.776 180.949 233.459 181.748 233.877C183.542 234.821 185.304 233.618 186.733 232.355C186.759 233.199 186.998 233.972 187.448 234.61C187.949 235.323 188.661 235.792 189.467 235.961L189.33 238.87H183.888C183.668 238.86 178.434 238.738 174.13 242.18C172.064 243.832 164.044 249.232 157.409 253.618V198.435H177.575V198.429C178.144 198.502 179.377 198.529 182.323 198.529C183.857 198.529 185.856 198.521 188.465 198.509C193.848 198.484 199.207 198.435 199.199 198.435H219.365V247.14C215.501 244.562 213.153 242.934 212.214 242.18C207.911 238.738 202.674 238.865 202.478 238.869H198.094L197.896 236.688C197.978 236.696 198.059 236.703 198.136 236.703C198.516 236.703 198.822 236.609 199.052 236.498C200.356 235.86 200.817 234.601 200.751 233.293C201.963 234.042 203.746 234.86 204.965 233.053C206.064 231.423 205.421 229.297 204.433 227.8ZM223.83 186.02C223.995 186.02 224.148 185.97 224.276 185.886C224.652 187.515 224.972 189.403 224.886 191.481C224.696 195.887 222.221 196.812 220.177 196.812H199.191C191.179 196.885 179.014 196.953 177.795 196.842C177.726 196.823 177.652 196.812 177.575 196.812H156.597C154.554 196.812 152.078 195.887 151.889 191.481C151.804 189.449 152.11 187.595 152.474 185.991C152.541 186.008 152.609 186.02 152.681 186.02H223.83ZM152.993 164.944C153.176 160.742 157.604 160.066 158.083 160.006H218.693C219.179 160.065 223.598 160.721 223.782 164.944C223.85 166.53 223.736 167.844 223.582 169.04C223.531 169.03 223.478 169.024 223.424 169.024H153.191C153.017 167.672 152.929 166.447 152.993 164.944ZM153.031 183.767C153.426 182.27 153.798 180.857 153.877 179.543C154.125 175.445 153.752 172.894 153.42 170.647H223.355C223.022 172.895 222.65 175.448 222.898 179.543C222.977 180.858 223.349 182.272 223.743 183.768C223.797 183.974 223.852 184.193 223.907 184.405C223.881 184.403 223.856 184.397 223.83 184.397H152.869C152.923 184.188 152.978 183.971 153.031 183.767ZM136.618 267.791C138.718 267.134 140.432 266.596 141.464 265.873C142.259 266.929 143.864 268.418 145.802 269.201L144.014 270.849C143.974 270.886 143.94 270.926 143.909 270.968H129.008C131.113 269.516 134.129 268.571 136.618 267.791ZM95.1713 279.754C95.6835 277.36 96.373 274.683 97.1644 272.01C98.3016 268.174 99.5645 264.592 100.918 261.363C104.322 253.239 108.039 247.941 111.667 246.041C112.226 245.746 112.826 245.503 113.453 245.317C114.496 245.006 115.584 244.857 116.675 244.857C120.023 244.857 123.4 246.263 125.589 248.732C128.657 252.193 129.029 257.134 126.636 262.645C125.306 265.705 123.93 268.613 122.544 271.289C118.466 279.185 114.021 285.765 108.944 291.421C108.885 291.49 102.969 298.274 97.7914 294.626L97.791 294.626C92.5033 290.904 95.1384 279.888 95.1713 279.754ZM87.1676 272.591H95.3048C94.6287 274.953 94.0386 277.289 93.5893 279.39C93.472 279.866 90.8917 290.655 96.149 295.381C95.0674 296.651 92.7147 299.765 90.5775 304.9C89.7955 304.873 89.0122 304.856 88.233 304.852C88.106 300.653 87.9116 296.156 87.722 291.794C87.3961 284.28 87.0873 277.163 87.1676 272.591ZM112.194 205.558V231.004H102.693C102.658 231.004 102.625 231.01 102.591 231.015C102.653 229.651 102.692 228.338 102.705 227.108C102.76 221.801 101.059 216.999 98.0378 213.935C95.9716 211.839 93.4136 210.644 90.5999 210.442C90.6051 210.405 90.6112 210.368 90.6112 210.33V205.558H112.194ZM112.194 203.934H90.6112V184.502H112.194V203.934ZM98.9643 261.848C97.8271 264.669 96.7598 267.733 95.7809 270.978C95.7452 270.974 95.7094 270.968 95.6721 270.968H87.2192C87.2602 270.121 87.3186 269.449 87.3961 268.941C91.2991 268.675 94.2646 266.62 96.4436 262.675C96.4436 262.675 96.444 262.674 96.444 262.674C96.5913 262.407 96.7338 262.129 96.8734 261.848H98.9643ZM97.6043 260.225C98.2882 258.559 98.903 256.618 99.5073 254.208C100.905 248.616 102.067 240.221 102.508 232.604C102.568 232.618 102.629 232.627 102.693 232.627H112.194V243.756C112.194 243.847 112.213 243.933 112.24 244.015C111.781 244.185 111.336 244.38 110.912 244.603C106.972 246.667 103.181 251.927 99.6404 260.225H97.6043ZM138.444 265.491L113.817 198.406V166.787C113.817 166.343 113.461 165.982 113.017 165.976C112.783 165.972 89.7184 165.648 72.0642 165.6V138.95H142.348V263.331C141.86 263.622 141.652 263.732 141.574 263.771C141.36 263.819 141.171 263.945 141.046 264.127C141.029 264.152 141.013 264.18 140.997 264.21C140.911 264.247 140.83 264.297 140.758 264.364C140.354 264.748 139.5 265.118 138.444 265.491ZM84.8933 267.252C82.2995 266.937 80.3714 264.815 78.9976 260.763C76.7496 254.158 76.4651 243.751 76.3661 233.656C76.358 233.039 76.362 232.43 76.3783 231.843C76.5719 223.36 78.7951 218.739 80.6258 216.357C82.5775 213.818 84.5049 213.226 84.5187 213.223C84.5556 213.212 84.5917 213.199 84.6271 213.184C86.3669 212.418 88.0844 212.031 89.7334 212.031H89.7841C92.4749 212.042 94.9294 213.094 96.8815 215.075C99.6011 217.834 101.132 222.213 101.082 227.091C101.067 228.535 101.017 230.093 100.933 231.721C100.534 239.447 99.3564 248.119 97.9327 253.814C97.2232 256.643 96.5069 258.797 95.6778 260.591C95.4716 261.039 95.2512 261.476 95.0227 261.89C92.9866 265.575 90.321 267.309 86.625 267.347C86.093 267.362 85.5244 267.328 84.8933 267.252ZM77.6636 261.848C79.2391 266.125 81.6023 268.488 84.6989 268.863C85.0698 268.908 85.4176 268.934 85.7557 268.952C85.6855 269.492 85.6319 270.163 85.5942 270.968H79.3742C78.4761 267.771 77.0223 264.603 75.1786 261.848H77.6636ZM66.1185 253.301V232.627H74.7415C74.7383 232.973 74.7383 233.322 74.7427 233.674C74.8377 243.387 75.11 253.391 77.1299 260.225H74.0025C71.7772 257.351 69.1267 255.041 66.1141 253.345C66.1149 253.33 66.1185 253.316 66.1185 253.301ZM88.9878 203.934H66.1185V184.571C66.1185 184.548 66.1137 184.526 66.1116 184.502H88.9878V203.934ZM88.998 210.43C87.373 210.525 85.6969 210.946 84.0191 211.678C83.1701 211.945 75.4034 214.847 74.7853 231.004H66.1185V205.558H88.9878V210.33C88.9878 210.364 88.9939 210.397 88.998 210.43ZM155.786 267.101V270.968H146.281L147.662 269.694C148.289 269.771 148.907 269.754 149.505 269.638C150.542 269.441 152.605 268.608 155.786 267.101ZM172.486 270.968H157.409V266.321C164.753 262.757 174.83 257.304 177.798 255.688C178.157 256.799 178.731 258.698 178.944 260.068C179.085 260.984 178.721 261.493 177.437 263.121C176.616 264.162 175.492 265.587 174.12 267.746C173.556 268.628 173.007 269.711 172.486 270.968ZM229.922 264.972C227.356 263.731 224.233 262.153 220.633 260.28C214.286 256.978 208.526 253.83 208.468 253.798C208.259 253.683 208.01 253.667 207.788 253.753C207.66 253.802 207.551 253.884 207.464 253.986C204.66 255.743 200.168 260.249 197.99 261.29C196.149 262.17 204.145 262.978 208.35 265.048C209.045 265.951 209.887 267.098 210.856 268.618C211.465 269.579 212.054 270.785 212.607 272.204C214.278 276.491 215.262 281.742 215.614 283.84L194.228 283.731H194.227L193.394 283.725C193.388 283.725 193.381 283.723 193.375 283.723H192.884C192.878 283.723 192.872 283.725 192.866 283.725L192.705 283.726L192.273 283.723H192.267C192.243 283.723 192.222 283.728 192.199 283.73L176.734 283.845H170.729C171.08 281.746 172.067 276.472 173.75 272.175C174.305 270.751 174.89 269.554 175.489 268.619C176.818 266.528 177.913 265.14 178.712 264.126C180.016 262.473 180.803 261.476 180.549 259.82C180.209 257.633 179.076 254.38 179.028 254.243C178.949 254.017 178.775 253.838 178.552 253.753C178.33 253.668 178.08 253.685 177.871 253.799C177.741 253.87 164.79 260.968 156.159 265.123C151.648 267.301 149.886 267.914 149.199 268.044C148.631 268.154 148.033 268.143 147.417 268.01C145.284 267.565 143.493 265.856 142.793 264.953C143.01 264.827 143.283 264.665 143.631 264.453C146.075 262.963 151.462 259.487 157.357 255.598C164.181 251.097 172.935 245.214 175.144 243.448C178.968 240.389 183.79 240.492 183.862 240.493H190.106L197.348 240.492C197.349 240.492 197.35 240.493 197.351 240.493C197.353 240.493 197.356 240.492 197.358 240.492H202.504C202.552 240.49 207.358 240.374 211.198 243.447C212.271 244.308 214.921 246.138 219.52 249.193C219.634 249.35 219.802 249.465 219.997 249.509C222.138 250.931 224.687 252.603 227.993 254.756C233.145 258.112 238.248 261.398 241.296 263.362C242.317 264.019 243.114 264.532 243.608 264.852C242.932 265.77 241.123 267.58 238.998 268.018C238.398 268.146 237.798 268.155 237.216 268.043H237.215C236.524 267.912 234.731 267.288 230.131 265.073C230.068 265.03 229.997 264.997 229.922 264.972ZM220.984 270.968C220.985 270.952 220.989 270.938 220.989 270.923V262.293C223.987 263.845 226.631 265.178 228.875 266.269C228.916 267.654 228.953 269.86 228.97 270.968H220.984ZM213.858 270.968C213.343 269.726 212.795 268.644 212.225 267.747C210.853 265.591 209.729 264.166 208.909 263.127C207.623 261.496 207.259 260.985 207.4 260.068C207.61 258.699 208.185 256.798 208.543 255.687C210.318 256.651 214.639 258.985 219.365 261.45V270.923C219.365 270.938 219.369 270.952 219.37 270.968H213.858ZM335.599 347.603H213.166C213.111 346.968 212.749 343.133 211.672 338.671C210.612 334.277 209.935 331.422 209.833 330.993C209.77 330.125 209.051 319.843 209.671 312.071C210.17 305.858 210.105 304.039 209.976 300.416C209.931 299.164 209.881 297.744 209.84 295.844C209.716 290.205 210.059 286.765 210.231 285.436L216.561 285.468H216.565C216.799 285.468 217.022 285.367 217.177 285.191C217.332 285.013 217.402 284.776 217.368 284.543C217.329 284.265 216.431 278.033 214.483 272.591H333.761C334.209 272.591 334.572 272.227 334.572 271.779V79.2671C334.572 78.819 334.209 78.4554 333.761 78.4554H244.195C243.621 76.0264 241.975 73.9464 239.39 72.4091C238.048 71.6116 236.765 71.1412 235.998 70.9014C237.502 69.9485 242.06 66.8852 244.254 63.4537C245.826 60.9915 246.186 57.9562 245.194 55.5317C244.507 53.8551 243.263 52.7326 241.69 52.3722C239.077 51.7711 236.852 52.7784 235.68 53.498V38.9464C235.68 35.25 235.288 31.1818 232.375 29.0317C229.792 27.1287 223.187 27.7208 222.443 27.7939C222.44 27.7943 222.437 27.7955 222.434 27.7959C222.429 27.7963 222.424 27.7963 222.419 27.7967L176.552 33.7192C172.785 33.7443 169.731 36.4404 169.731 39.75V78.4554H51.6745C51.2265 78.4554 50.8629 78.819 50.8629 79.2671V251.457C45.1538 252.879 40.3953 256.518 37.4237 261.752C37.3596 261.828 37.3101 261.914 37.2772 262.007C37.274 262.013 37.2703 262.02 37.2667 262.026L37.2379 262.078C34.2074 267.588 31.1863 275.088 34.0017 279.528C35.5341 281.944 38.5187 283.036 42.8698 282.76C50.8142 282.264 55.8012 276.722 57.3255 274.763C57.4497 274.901 57.5731 275.039 57.6965 275.177C60.606 278.435 63.3539 281.513 68.1319 284.904C69.5727 285.928 71.2212 286.448 72.8219 286.448C74.0849 286.448 75.3182 286.125 76.3953 285.467C76.4091 285.459 76.4233 285.449 76.4371 285.44C77.2403 286.739 82.1112 294.87 84.6762 304.91C75.2659 305.29 65.5309 307.485 65.3637 311.568C65.3616 311.583 65.3612 311.599 65.36 311.614C65.3596 311.634 65.3556 311.653 65.3556 311.674C65.3556 311.687 65.3592 311.699 65.3592 311.713C65.3596 311.724 65.358 311.736 65.3588 311.748L65.3848 312.03C65.3856 312.043 65.3864 312.055 65.3876 312.067L68.7736 347.603H57.1413C56.6932 347.603 56.3296 347.967 56.3296 348.415C56.3296 348.863 56.6932 349.226 57.1413 349.226H174C174.04 349.233 174.08 349.238 174.122 349.238C174.162 349.238 174.201 349.232 174.24 349.226H335.599C336.047 349.226 336.411 348.863 336.411 348.415C336.411 347.967 336.047 347.603 335.599 347.603Z" fill="#700051"/>
<path d="M298.344 128.074L294.78 134.954L291.215 128.074C291.071 127.797 290.788 127.636 290.493 127.636C290.389 127.636 290.284 127.656 290.182 127.698L283.032 130.679L284.723 123.117C284.816 122.705 284.577 122.291 284.174 122.165L276.778 119.849L282.935 115.147C283.27 114.891 283.353 114.42 283.126 114.065L278.95 107.536L286.691 107.89C287.099 107.895 287.478 107.602 287.532 107.183L288.528 99.5008L294.23 104.746C294.54 105.033 295.019 105.033 295.329 104.746L301.031 99.5008L302.027 107.183C302.081 107.602 302.449 107.901 302.868 107.89L310.609 107.536L306.433 114.065C306.206 114.42 306.289 114.891 306.624 115.147L312.782 119.849L305.385 122.165C304.982 122.291 304.743 122.705 304.836 123.117L306.53 130.679L299.377 127.698C298.987 127.536 298.539 127.699 298.344 128.074ZM307.353 132.78C307.633 132.897 307.954 132.847 308.187 132.653C308.42 132.458 308.524 132.149 308.457 131.853L306.583 123.491L314.762 120.93C315.052 120.84 315.267 120.595 315.319 120.297C315.372 119.998 315.254 119.695 315.012 119.511L308.203 114.31L312.821 107.09C312.984 106.835 312.992 106.51 312.84 106.248C312.689 105.984 312.398 105.836 312.101 105.842L303.54 106.234L302.439 97.7382C302.4 97.4375 302.197 97.1834 301.912 97.0795C301.626 96.9756 301.308 97.0393 301.085 97.2451L294.78 103.046L288.474 97.2451C288.252 97.0397 287.933 96.9748 287.647 97.0799C287.362 97.1834 287.159 97.4375 287.12 97.7382L286.019 106.234L277.459 105.842C277.157 105.836 276.87 105.984 276.719 106.248C276.567 106.51 276.575 106.835 276.738 107.09L281.356 114.31L274.547 119.511C274.306 119.695 274.187 119.998 274.24 120.297C274.293 120.595 274.508 120.84 274.797 120.93L282.976 123.491L281.106 131.853C281.04 132.15 281.144 132.458 281.377 132.653C281.609 132.848 281.931 132.897 282.211 132.78L290.117 129.484L294.059 137.092C294.198 137.361 294.476 137.53 294.78 137.53C295.083 137.53 295.361 137.361 295.5 137.092L299.442 129.484L307.353 132.78Z" fill="#700051"/>
<path d="M304.227 195.671C304.675 195.671 305.039 195.307 305.039 194.859V176.527C305.039 176.079 304.675 175.716 304.227 175.716H294.775C294.327 175.716 293.963 176.079 293.963 176.527V194.859C293.963 195.307 294.327 195.671 294.775 195.671H304.227Z" fill="#700051"/>
<path d="M304.954 238.525H295.498C295.049 238.525 294.686 238.888 294.686 239.336V257.672C294.686 258.12 295.049 258.484 295.498 258.484H304.954C305.402 258.484 305.766 258.12 305.766 257.672V239.336C305.766 238.888 305.402 238.525 304.954 238.525Z" fill="#700051"/>
<path d="M316.212 207.473H324.045V224.182H316.212V207.473ZM315.401 225.805H324.857C325.305 225.805 325.669 225.442 325.669 224.993V206.661C325.669 206.213 325.305 205.85 324.857 205.85H315.401C314.953 205.85 314.589 206.213 314.589 206.661V224.993C314.589 225.442 314.953 225.805 315.401 225.805Z" fill="#700051"/>
<path d="M248.509 209.426C249.405 209.426 250.133 210.154 250.133 211.049C250.133 211.944 249.405 212.672 248.509 212.672C247.614 212.672 246.886 211.944 246.886 211.049C246.886 210.154 247.614 209.426 248.509 209.426ZM248.509 214.296C250.3 214.296 251.756 212.839 251.756 211.049C251.756 209.259 250.3 207.802 248.509 207.802C246.719 207.802 245.263 209.259 245.263 211.049C245.263 212.839 246.719 214.296 248.509 214.296Z" fill="#700051"/>
<path d="M264.122 195.388C266.676 195.388 268.753 197.465 268.753 200.018C268.753 202.571 266.676 204.648 264.122 204.648C261.569 204.648 259.492 202.571 259.492 200.018C259.492 197.465 261.569 195.388 264.122 195.388ZM264.122 206.272C267.571 206.272 270.376 203.466 270.376 200.018C270.376 196.569 267.571 193.764 264.122 193.764C260.674 193.764 257.868 196.569 257.868 200.018C257.868 203.466 260.674 206.272 264.122 206.272Z" fill="#700051"/>
<path d="M127.474 147.721H84.7873C84.3388 147.721 83.9756 148.085 83.9756 148.533V157.542C83.9756 157.991 84.3388 158.354 84.7873 158.354H127.474C127.922 158.354 128.286 157.991 128.286 157.542V148.533C128.286 148.085 127.922 147.721 127.474 147.721Z" fill="#700051"/>
<path d="M231.606 59.8838C232.054 59.8838 232.417 59.5202 232.417 59.0721V44.5389C232.417 44.0908 232.054 43.7272 231.606 43.7272C231.158 43.7272 230.794 44.0908 230.794 44.5389V59.0721C230.794 59.5202 231.158 59.8838 231.606 59.8838Z" fill="white"/>
<path d="M196.992 34.8879C195.438 34.8879 194.175 36.1534 194.175 37.7086C194.175 39.2617 195.438 40.5255 196.992 40.5255C198.545 40.5255 199.808 39.2617 199.808 37.7086C199.808 36.1534 198.545 34.8879 196.992 34.8879Z" fill="#700051"/>
</svg>
