<svg width="375" height="375" viewBox="0 0 375 375" fill="none" xmlns="http://www.w3.org/2000/svg">
<path d="M143.168 94.8432C143.159 94.8558 143.147 94.8663 143.137 94.8785C143.129 94.8879 143.124 94.8984 143.116 94.9073C142.074 96.0599 139.866 97.885 138.367 99.0835C141.958 99.327 144.905 100.827 147.14 103.567C147.353 103.168 147.671 102.585 148.062 101.9C151.069 96.6626 152.306 95.9873 152.713 95.7653C153.311 95.439 154.116 95.1975 155.047 94.9183C157.254 94.2556 160.002 93.4309 160.425 91.2081C160.917 88.6176 159.098 86.7941 157.253 85.3517C157.104 85.2357 156.961 85.1265 156.825 85.0238C156.705 84.9325 156.591 84.8457 156.486 84.7637C155.357 83.8879 155.335 82.9199 155.311 81.8956C155.3 81.4199 155.287 80.881 155.172 80.2324C155.073 79.6521 154.9 79.062 154.645 78.4224C153.391 75.2884 150.378 74.1289 150.348 74.1176C150.33 74.1107 150.314 74.1001 150.297 74.0924C148.198 75.0855 146.943 76.8818 146.551 79.4508C146.219 81.6301 146.652 83.5697 146.657 83.5888C146.744 83.9707 146.546 84.3607 146.186 84.5157C145.826 84.6707 145.408 84.5465 145.19 84.2207C143.703 81.9909 141.853 81.275 140.239 82.3047C138.688 83.2949 137.829 85.6955 139.143 87.8485C139.812 88.9414 140.618 89.5624 141.608 89.747C143.594 90.118 145.693 88.5819 145.888 88.4353C145.902 88.424 145.917 88.4126 145.933 88.4025C146.237 88.1918 146.656 88.2093 146.941 88.4682C147.259 88.758 147.297 89.2405 147.032 89.5725L143.168 94.8432Z" fill="#D8365C"/>
<path d="M213.498 121.264C215.564 114.551 219.022 103.317 214.918 96.9958C213.193 94.3379 210.196 92.7336 206.011 92.2267C201.053 91.6269 192.852 94.8578 182.292 101.573C174.276 106.671 164.793 113.911 156.925 120.938C155.627 122.098 154.442 123.191 153.39 124.197C153.443 124.538 153.496 124.877 153.549 125.207C154.187 129.134 154.715 133.311 155.145 136.749C155.196 136.813 155.242 136.883 155.272 136.965C155.353 137.176 155.338 137.4 155.251 137.591C155.977 143.348 156.729 149.185 157.629 150.642C157.658 150.626 157.683 150.605 157.713 150.592C159.344 149.767 161.036 148.812 162.742 147.753C176.099 139.451 187.287 126.448 192.782 119.415C195.13 115.66 197.276 113.297 197.337 113.231C197.338 113.23 197.338 113.23 197.339 113.229C197.356 113.21 197.378 113.187 197.397 113.17C197.41 113.158 197.426 113.15 197.439 113.139C197.455 113.126 197.471 113.114 197.487 113.103C197.513 113.086 197.54 113.069 197.567 113.055L198.277 111.987C198.277 111.987 201.905 114.47 196.367 132.614C194.09 140.073 187.909 153.572 186.33 156.977C189.67 157.517 191.631 157.782 192.143 157.801C195.297 157.925 197.967 158.731 199.906 160.124C199.984 160.145 200.062 160.174 200.134 160.219C200.134 160.219 200.166 160.24 200.223 160.276C200.436 159.624 200.679 158.89 200.948 158.084C202.423 153.687 204.671 147.164 206.845 140.856C209.85 132.138 212.688 123.902 213.498 121.264Z" fill="#FE874F"/>
<path d="M200.445 175.656C200.405 175.596 200.367 175.532 200.343 175.46L199.21 172.061C198.72 172.499 198.209 172.905 197.696 173.274C197.69 173.297 197.688 173.32 197.681 173.343L197.536 173.784C198.076 173.827 198.674 174.012 199.291 174.453C199.79 174.809 200.149 175.213 200.445 175.656Z" fill="#D8365C"/>
<path d="M140.773 164.198C147.295 170.32 166.519 168.747 175.758 167.991C178.076 167.801 179.907 167.647 180.935 167.663C181.123 167.668 181.272 167.676 181.399 167.685C184.022 167.925 186.5 167.916 188.782 167.66C191.224 167.389 193.422 166.827 195.313 165.987C196.345 165.528 197.38 165.195 197.953 165.861C198.328 166.297 198.283 166.887 197.818 167.613C197.084 168.759 194.037 171.807 192.594 171.394C192.237 171.291 191.802 171.103 191.342 170.904C190.589 170.579 189.553 170.128 189.046 170.183C188.989 170.189 188.968 170.198 188.968 170.198C188.946 170.303 189.016 170.675 189.381 171.202C190.153 172.312 191.82 173.511 193.17 173.511C193.965 173.511 195.122 173.048 196.343 172.241C197.162 171.696 197.993 171.015 198.744 170.272C199.628 169.404 200.39 168.461 200.952 167.543C200.99 167.483 201.017 167.427 201.046 167.37C201.066 167.305 201.096 167.245 201.133 167.186C201.799 165.689 201.465 163.357 199.172 161.589C197.484 160.288 195.032 159.539 192.08 159.423C191.028 159.383 186.644 158.689 182.893 158.053C173.891 156.52 161.994 154.214 158.09 152.762C157.296 152.468 156.825 152.209 156.564 151.923C155.351 150.585 154.696 146.123 153.719 138.413L133.879 145.756C135.145 152.466 136.679 157.571 138.439 160.926C139.18 162.338 139.965 163.439 140.773 164.198Z" fill="#D8365C"/>
<path d="M192.957 169.807C193.522 169.669 194.94 168.494 195.831 167.533C194.355 168.173 192.72 168.658 190.948 168.983C191.3 169.118 191.65 169.269 191.985 169.414C192.355 169.573 192.705 169.725 192.957 169.807Z" fill="#D8365C"/>
<path d="M344.507 315.114C344.638 312.113 344.145 309.425 343.584 307.13C343.514 307.15 343.441 307.163 343.365 307.163H238.41C237.859 309.439 237.366 312.114 237.5 315.114C237.627 318.006 238.735 322.857 244.725 322.857H275.265C275.351 322.857 275.435 322.871 275.513 322.896C277.073 323.069 295.173 323.117 307.14 323.121L337.275 322.857C338.004 322.857 338.675 322.788 339.276 322.65C343.579 321.692 344.4 317.518 344.507 315.114Z" fill="#FF4238"/>
<path d="M341.614 298.437C341.251 292.712 341.802 289.155 342.288 286.016C342.304 285.919 342.318 285.824 342.333 285.727H239.673C239.689 285.824 239.703 285.921 239.718 286.019C240.204 289.157 240.756 292.713 240.393 298.436C240.277 300.243 239.739 302.198 239.171 304.268C239.057 304.683 238.941 305.109 238.825 305.54H343.175C343.061 305.114 342.947 304.693 342.835 304.282C342.266 302.206 341.729 300.246 341.614 298.437Z" fill="#D8365C"/>
<path d="M245.718 271.102C243.342 271.684 239.318 273.364 239.107 278.08C239.007 280.292 239.152 282.082 239.432 284.103H342.574C342.855 282.081 343 280.29 342.9 278.081C342.621 271.942 337.973 270.979 337.406 270.885C337.249 270.902 337.085 270.908 336.927 270.913C336.174 270.926 334.722 270.938 332.709 270.95H332.708C314.443 271.033 248.995 270.89 246.861 270.885C246.737 270.901 246.31 270.96 245.718 271.102Z" fill="#FF4238"/>
<path d="M273.1 197.036C274.315 195.608 275.594 193.717 276.907 191.417C276.87 191.324 276.848 191.223 276.848 191.116V134.314L219.707 193.697C220.463 193.9 221.198 194.078 221.907 194.248C223.216 194.562 224.452 194.858 225.576 195.269C228.015 196.154 229.732 197.4 230.68 198.973C231.73 200.713 231.732 202.775 230.685 204.629C230.179 205.525 229.481 206.293 228.662 206.9C229.318 206.906 229.971 206.913 230.615 206.92C260.434 207.238 266.15 205.221 273.1 197.036Z" fill="#F7F7F7"/>
<path d="M150.139 70.6854C150.219 70.6594 150.302 70.6415 150.39 70.6415H226.939C226.819 70.6107 226.698 70.5803 226.581 70.5486C237.702 70.8907 267.668 70.5437 271.615 70.4958C275.125 70.4958 279.734 73.3173 280.496 73.8729C285.892 77.8092 289.476 85.2592 291.755 92.0303C289.286 91.9398 285.151 93.8944 281.047 95.9682C280.234 96.3798 279.465 96.7682 279.238 96.8436C278.812 96.9849 278.582 97.4443 278.723 97.87C278.837 98.2105 279.154 98.426 279.494 98.426C279.579 98.426 279.665 98.4126 279.75 98.3846C280.075 98.2763 280.67 97.9784 281.78 97.4171C283.995 96.2982 290.7 92.9094 292.2 93.7373C292.229 93.758 292.258 93.7775 292.284 93.7925C292.3 93.8043 292.317 93.8116 292.333 93.8217C292.623 94.7564 292.889 95.6712 293.13 96.5523C294.879 102.948 295.857 109.254 296.305 114.562C291.889 114.366 281.178 120.64 278.934 121.987C278.55 122.217 278.425 122.716 278.656 123.101C278.808 123.354 279.077 123.495 279.353 123.495C279.495 123.495 279.639 123.457 279.769 123.379C289.326 117.643 294.886 115.965 296.429 116.194C296.605 118.825 296.647 121.165 296.587 123.087C296.47 126.824 295.536 132.665 293.885 139.979C293.787 140.416 294.061 140.851 294.498 140.949C294.558 140.963 294.618 140.969 294.678 140.969C295.049 140.969 295.384 140.713 295.469 140.336C297.142 132.924 298.09 126.976 298.209 123.137C298.618 110.062 294.123 81.8039 281.452 72.5612C281.401 72.5243 276.037 68.8725 271.605 68.8725C258.927 69.0259 225.482 69.295 223.007 68.7036C222.149 68.4983 221.437 68.2418 220.84 67.9683C219.386 66.9435 218.189 65.7012 217.281 64.2702C217.212 64.2889 217.142 64.3023 217.067 64.3023H137.54C137.539 64.8047 137.511 65.2726 137.468 65.6915C143.922 64.7901 148.083 68.2633 150.139 70.6854Z" fill="#D8365C"/>
<path d="M194.794 206.782C194.968 206.782 195.128 206.838 195.26 206.931C205.844 206.848 215.261 206.825 223.282 206.863C223.426 206.774 223.597 206.727 223.78 206.74C225.955 206.942 228.206 205.717 229.271 203.831C229.646 203.166 230.124 201.938 229.639 200.556C226.434 201.634 221.341 202.164 215.127 202.164C206.701 202.164 196.222 201.193 185.614 199.301C174.428 197.306 171.224 197.107 170.319 197.135C169.282 201.863 169.179 205.607 169.418 206.782H194.794Z" fill="#D8365C"/>
<path d="M211.264 163.378C209.501 161.321 203.596 159.457 202.269 159.254C202.022 159.999 201.801 160.67 201.609 161.261C202.226 161.732 202.991 162.366 203.745 163.118C203.857 163.091 203.976 163.085 204.097 163.109L207.628 163.815C207.875 163.864 208.086 164.027 208.198 164.254C208.309 164.481 208.308 164.747 208.195 164.974L206.738 167.89C207.192 169.914 206.574 172.087 205.994 173.517C207.399 172.278 210.332 168.409 211.229 165.348C211.508 164.396 211.521 163.677 211.264 163.378Z" fill="#D8365C"/>
<path d="M205.382 165.021C205.586 165.308 205.766 165.594 205.929 165.878L206.268 165.199L205.382 165.021Z" fill="#D8365C"/>
<path d="M202.254 173.989C202.138 174.455 202.079 174.867 202.079 175.212C202.066 175.92 202.253 176.096 202.381 176.145C202.639 175.997 203.261 175.376 203.943 174.089C204.854 172.378 205.636 169.884 205.101 168.012C204.799 166.958 204.08 165.826 202.969 164.648C203.157 165.639 203.09 166.639 202.734 167.567C203.752 169.505 203.025 171.649 202.533 173.1C202.416 173.446 202.314 173.746 202.254 173.989Z" fill="#D8365C"/>
<path d="M187.569 169.398C185.69 169.528 183.701 169.502 181.642 169.33C180.999 172.163 180.412 174.344 180.037 175.659L195.059 176.138L195.063 176.125C194.969 176.086 194.881 176.028 194.805 175.952C194.499 175.647 194.491 175.161 194.773 174.843C194.242 175.02 193.697 175.134 193.171 175.134C191.178 175.134 189.085 173.621 188.048 172.127C187.403 171.198 187.202 170.332 187.467 169.623C187.497 169.544 187.531 169.469 187.569 169.398Z" fill="#D8365C"/>
<path d="M162.939 149.532C161.764 150.244 160.599 150.909 159.457 151.514C163.772 152.889 174.108 154.894 182.362 156.315C182.434 155.926 182.539 155.42 182.684 154.762C180.714 154.345 167.79 151.612 166.02 151.29C164.391 150.994 163.391 150.062 162.939 149.532Z" fill="#D8365C"/>
<path d="M157.483 83.4824C157.585 83.562 157.693 83.6444 157.808 83.7312C157.856 83.7682 157.91 83.8104 157.96 83.8485C158.544 83.439 159.026 82.9244 159.156 82.6371C158.964 82.5811 158.658 82.5291 158.436 82.4914C158.006 82.4179 157.46 82.323 156.942 82.1172C156.966 82.8741 157.032 83.1322 157.483 83.4824Z" fill="#D8365C"/>
<path d="M75.5584 295.506C76.2986 293.829 77.09 292.039 77.9329 290.132C81.8851 277.979 93.5385 242.469 95.9086 238.993C98.7735 234.791 108.705 208.435 115.389 194.493C121.16 182.457 128.064 173.985 129.969 171.523C131.351 168.342 133.45 165.475 135.196 163.092C135.733 162.359 136.239 161.668 136.665 161.047C136.668 161.043 136.672 161.039 136.676 161.034C135.002 157.598 133.545 152.655 132.336 146.327L127.612 148.075C127.521 148.109 127.426 148.126 127.331 148.126C127.165 148.126 127.001 148.075 126.862 147.977C126.644 147.823 126.515 147.57 126.519 147.303L126.639 138.495C119.564 140.66 113.271 142.006 113.205 142.02C112.259 142.186 111.361 142.416 110.507 142.708C100.267 146.207 96.2166 158.476 95.8408 168.792C95.745 171.437 95.9545 173.553 96.157 175.6C96.5807 179.877 96.9472 183.571 94.4666 190.227C91.7921 197.409 90.3169 203.692 89.4394 207.792C88.9699 209.986 88.5786 212.013 88.2008 213.973C87.088 219.739 86.2093 224.292 84.3493 227.609C83.6898 228.786 82.8989 230.071 81.9829 231.558C77.4776 238.876 70.6692 249.936 67.8437 267.407C67.3368 270.546 65.6347 275.81 63.8335 281.383C62.0929 286.769 60.2982 292.326 59.7795 295.499H75.4959C75.5174 295.499 75.5373 295.504 75.5584 295.506Z" fill="#FE874F"/>
<path d="M51.9855 133.58C54.5655 133.58 56.6649 135.679 56.6649 138.259C56.6649 140.839 54.5655 142.939 51.9855 142.939C49.4056 142.939 47.3062 140.839 47.3062 138.259C47.3062 135.679 49.4056 133.58 51.9855 133.58ZM127.824 90.1639C124.747 87.2207 123.335 82.7244 124.014 78.2106C123.927 78.2126 123.839 78.2195 123.754 78.2195C120.966 78.2199 118.691 76.9707 117.117 74.5588C116.632 73.812 116.228 73.0426 115.902 72.265H53.1219C48.0375 72.265 43.9011 76.4013 43.9011 81.4857V165.905H44.1081L127.824 90.1639Z" fill="#F7F7F7"/>
<path d="M53.1216 70.6415H115.338C114.769 68.5567 114.747 66.4001 115.276 64.3022H98.9175C99.2036 65.1959 99.3513 66.2166 99.3513 67.3583C99.3513 67.8067 98.9881 68.1699 98.5396 68.1699H64.9321C64.538 68.1699 64.2007 67.8871 64.1326 67.4991C64.1188 67.4224 63.8684 65.9268 64.4183 64.3022H56.7137C56.648 64.3087 52.0867 64.2503 48.4735 67.7917C46.6979 69.5315 45.439 71.8355 44.6963 74.6691C46.6861 72.2142 49.7231 70.6415 53.1216 70.6415Z" fill="#D8365C"/>
<path d="M101.726 340.134C102.268 339.458 103.075 338.241 103.141 336.941C99.9866 338 95.461 338.439 90.2467 338.439C80.9955 338.44 69.5852 337.062 59.8425 335.324C49.03 333.4 45.6733 333.149 44.6432 333.157C43.6258 338.254 43.6919 342.228 43.9708 343.284H96.819C97.9639 343.284 100.166 342.079 101.726 340.134Z" fill="#D8365C"/>
<path d="M74.8445 297.123H59.5036C58.5076 302.419 56.3214 307.49 54.519 311.2L69.0097 310.616C69.4524 309.445 70.7921 306.308 74.8445 297.123Z" fill="#D8365C"/>
<path d="M337.275 322.857L307.14 323.121C295.174 323.117 277.073 323.069 275.513 322.896C275.435 322.871 275.352 322.857 275.265 322.857H244.725C238.735 322.857 237.628 318.006 237.501 315.114C237.366 312.114 237.859 309.438 238.411 307.163H343.366C343.442 307.163 343.514 307.15 343.584 307.13C344.145 309.425 344.638 312.113 344.507 315.114C344.401 317.518 343.58 321.692 339.277 322.65C338.675 322.788 338.004 322.857 337.275 322.857ZM78.3358 312.633C80.7413 309.949 85.3017 305.181 88.1552 305.181C88.3858 305.181 88.6057 305.212 88.8123 305.279C89.4673 305.488 90.253 305.865 90.2745 306.474C90.3135 307.579 88.2952 309.586 85.2291 310.812C84.7084 311.02 84.0692 311.24 83.3306 311.468C81.2222 311.851 79.5148 312.277 78.3358 312.633ZM89.3797 314.645C90.9284 315.055 91.8533 315.666 91.7936 316.24C91.7007 317.134 89.7875 318.425 87.9576 318.52C85.9215 318.627 80.9612 316.298 77.7405 314.617L78.2482 314.5C81.3646 314.043 85.8127 313.701 89.3797 314.645ZM243.695 343.284H100.77C101.573 342.689 102.342 341.961 102.993 341.149C104.44 339.345 105.033 337.432 104.661 335.761C104.227 333.813 102.591 332.311 99.7997 331.295C98.6784 330.887 97.4466 330.592 96.1422 330.278C91.5416 329.175 85.8959 327.816 79.8707 320.427C83.193 323.067 87.8314 326.158 91.8111 326.379C91.8265 326.38 91.8419 326.38 91.8569 326.38C92.2847 326.38 92.6426 326.045 92.6666 325.613C92.6917 325.165 92.3488 324.783 91.9012 324.758C88.4454 324.566 83.6443 321.749 77.6333 316.394C80.6646 317.953 85.3683 320.146 87.8411 320.146C87.9097 320.146 87.9771 320.144 88.0428 320.141C90.4052 320.018 93.2019 318.396 93.4081 316.408C93.5181 315.354 92.9803 313.919 89.7953 313.075C88.8789 312.833 87.913 312.67 86.93 312.567C90.055 312.192 93.945 312.009 96.9726 312.794C97.4093 312.908 97.85 312.647 97.962 312.213C98.0745 311.779 97.8143 311.336 97.3805 311.223C94.7733 310.546 91.6199 310.532 88.7851 310.753C90.5806 309.531 91.9519 307.975 91.8971 306.416C91.8663 305.56 91.3927 304.4 89.307 303.732C87.3683 303.112 84.1268 303.562 76.1788 312.622C75.9288 312.907 75.7181 313.147 75.557 313.324C75.5448 313.327 75.5319 313.33 75.5201 313.332C75.0051 312.16 74.553 311.22 73.5176 310.48C72.6613 309.868 71.816 309.732 71.0777 309.832C72.4028 306.674 75.3127 300.082 76.7384 296.854C78.4093 293.067 80.3671 288.643 82.5619 283.685C88.32 270.674 95.4864 254.482 103.464 236.259C104.714 233.401 106.468 230.152 108.498 226.389C111.046 221.667 114.204 215.813 117.629 208.405H166.179C159.284 210.634 151.749 215.845 152.447 225.836C153.15 235.896 164.106 237.055 173.771 238.078C177.623 238.485 181.261 238.871 184.256 239.736C200.297 244.375 222.876 251.436 225.876 252.375C227 254.618 233.675 267.199 243.281 270.204C240.8 271.249 237.689 273.46 237.486 278.007C237.356 280.896 237.648 283.173 237.932 285.079C237.991 285.474 238.053 285.869 238.114 286.268C238.611 289.473 239.125 292.787 238.773 298.333C238.668 299.973 238.175 301.764 237.606 303.838C237.404 304.575 237.194 305.337 236.994 306.124C236.355 308.644 235.722 311.692 235.879 315.186C236.124 320.784 239.037 324.114 243.905 324.448L243.695 343.284ZM43.971 343.284C43.6922 342.228 43.626 338.254 44.6435 333.157C45.6739 333.149 49.0302 333.4 59.8427 335.324C69.5854 337.061 80.9957 338.44 90.2469 338.439C95.4612 338.439 99.9872 337.999 103.141 336.941C103.076 338.241 102.269 339.458 101.727 340.133C100.166 342.079 97.9645 343.284 96.8196 343.284H43.971ZM47.0489 325.23C49.9215 318.6 52.8216 314.073 53.6293 312.861L69.6362 312.215C69.8407 312.207 70.0241 312.123 70.1621 311.992C70.1658 311.988 70.1698 311.986 70.1735 311.982C70.2888 311.871 71.337 310.916 72.5728 311.801C73.3099 312.327 73.6183 313.033 74.1293 314.202C74.3517 314.71 74.6094 315.299 74.9474 315.97H71.2271C70.779 315.97 70.4154 316.334 70.4154 316.782C70.4154 317.23 70.779 317.594 71.2271 317.594H75.8456C76.2263 318.227 76.6629 318.886 77.1536 319.561C77.2587 319.706 77.3638 319.843 77.4694 319.984H73.7108C73.2628 319.984 72.8991 320.347 72.8991 320.796C72.8991 321.244 73.2628 321.607 73.7108 321.607H78.7421C79.462 322.479 80.1788 323.273 80.891 323.994H76.7668C76.3188 323.994 75.9551 324.357 75.9551 324.805C75.9551 325.253 76.3188 325.617 76.7668 325.617H82.3066C82.3987 325.617 82.486 325.598 82.5684 325.57C87.5063 329.872 92.1293 330.985 95.7636 331.857C97.0217 332.159 98.2096 332.444 99.2449 332.821C101.05 333.477 102.226 334.329 102.778 335.353C95.8768 337.754 79.139 337.115 60.1272 333.726C50.5509 332.022 46.6621 331.59 44.9921 331.542C45.5311 329.26 46.221 327.14 47.0489 325.23ZM59.5043 297.123H74.8452C70.7928 306.308 69.4531 309.445 69.0103 310.616L54.5197 311.2C56.322 307.489 58.5079 302.419 59.5043 297.123ZM63.8338 281.383C65.6354 275.809 67.3371 270.546 67.844 267.406C70.6694 249.935 77.4779 238.876 81.9835 231.558C82.8995 230.07 83.6901 228.786 84.3496 227.609C86.2096 224.292 87.0883 219.738 88.2011 213.973C88.5793 212.013 88.9706 209.986 89.4397 207.792C90.3172 203.691 91.7928 197.409 94.4673 190.227C96.9474 183.571 96.5814 179.877 96.1577 175.599C95.9552 173.553 95.7453 171.437 95.8411 168.792C96.2169 158.476 100.267 146.207 110.507 142.708C111.362 142.416 112.26 142.186 113.206 142.02C113.271 142.006 119.564 140.66 126.639 138.495L126.519 147.303C126.516 147.57 126.644 147.822 126.863 147.977C127.002 148.075 127.166 148.125 127.331 148.125C127.426 148.125 127.521 148.109 127.613 148.075L132.337 146.327C133.545 152.655 135.003 157.598 136.676 161.034C136.673 161.039 136.669 161.042 136.665 161.047C136.24 161.668 135.733 162.359 135.197 163.091C133.45 165.475 131.352 168.342 129.969 171.523C128.065 173.985 121.16 182.457 115.39 194.493C108.705 208.435 98.7741 234.79 95.9093 238.992C93.5388 242.469 81.8853 277.978 77.9336 290.132C77.0903 292.038 76.2993 293.829 75.5586 295.506C75.5379 295.504 75.5177 295.499 75.4966 295.499H59.7802C60.2985 292.325 62.0932 286.768 63.8338 281.383ZM53.1224 206.782C48.038 206.782 43.9016 202.646 43.9016 197.561V81.4857C43.9016 76.4013 48.038 72.2649 53.1224 72.2649H115.902C116.228 73.0425 116.633 73.812 117.118 74.5587C118.691 76.9707 120.967 78.2199 123.754 78.2195C123.839 78.2195 123.928 78.2126 124.014 78.2105C123.335 82.7243 124.747 87.2207 127.825 90.1643C127.837 90.1756 127.847 90.1882 127.859 90.1992C128.234 90.5551 128.597 90.8607 128.967 91.1314C133.656 94.6022 137.829 95.3067 140.315 95.3461C138.41 97.0271 135.892 98.965 135.858 98.9914C135.808 99.0295 135.765 99.0738 135.727 99.1204C134.674 99.213 133.573 99.3903 132.44 99.661C122.043 102.122 119.148 115.004 116.822 125.354C116.269 127.814 115.747 130.137 115.168 132.127C113.72 137.103 109.676 141.23 109.636 141.271C109.622 141.285 109.613 141.301 109.6 141.315C98.8659 145.247 94.6098 158.005 94.2185 168.733C94.1187 171.488 94.3342 173.659 94.542 175.76C94.9458 179.836 95.2948 183.357 92.9462 189.66C90.3756 196.563 88.9004 202.633 87.9969 206.782H53.1224ZM48.4742 67.7917C52.0875 64.2503 56.6487 64.3092 56.7141 64.3023H64.4186C63.8687 65.9268 64.1195 67.4224 64.1333 67.4991C64.2011 67.8871 64.5388 68.1699 64.9324 68.1699H98.5404C98.9884 68.1699 99.3521 67.8067 99.3521 67.3583C99.3521 66.2166 99.2043 65.1959 98.9182 64.3023H115.277C114.748 66.4001 114.77 68.5567 115.338 70.6415H53.1224C49.7234 70.6415 46.6865 72.2142 44.6966 74.6691C45.4393 71.8355 46.6987 69.5316 48.4742 67.7917ZM66.3261 64.0182C67.1792 62.5993 68.8683 61.8794 71.3448 61.8794L93.7023 61.879C93.792 61.8717 95.8858 61.84 97.0022 63.9082C97.0022 63.909 97.0026 63.9094 97.003 63.9102C97.3882 64.62 97.6215 65.5044 97.6995 66.5466H65.6885C65.6873 65.9057 65.7904 64.9102 66.3261 64.0182ZM137.54 64.3023H217.067C217.142 64.3023 217.212 64.2889 217.281 64.2702C218.189 65.7012 219.387 66.9435 220.84 67.9682C221.438 68.2414 222.149 68.4983 223.007 68.7036C225.482 69.2949 258.928 69.0259 271.605 68.8725C276.037 68.8725 281.402 72.5242 281.452 72.5612C294.123 81.8039 298.619 110.062 298.21 123.137C298.09 126.976 297.142 132.924 295.469 140.336C295.384 140.713 295.049 140.969 294.678 140.969C294.619 140.969 294.559 140.963 294.499 140.949C294.061 140.851 293.787 140.416 293.885 139.979C295.536 132.665 296.471 126.824 296.587 123.087C296.647 121.165 296.605 118.825 296.429 116.194C294.886 115.965 289.326 117.643 279.77 123.379C279.639 123.457 279.495 123.495 279.353 123.495C279.077 123.495 278.808 123.354 278.656 123.101C278.425 122.716 278.55 122.217 278.934 121.987C281.178 120.639 291.889 114.366 296.305 114.562C295.857 109.253 294.88 102.948 293.13 96.5522C292.889 95.6712 292.624 94.7564 292.333 93.8217C292.318 93.8112 292.3 93.8039 292.285 93.7925C292.258 93.7775 292.229 93.758 292.201 93.7373C290.7 92.9094 283.995 96.2982 281.78 97.4171C280.67 97.978 280.076 98.2763 279.75 98.3842C279.665 98.4126 279.579 98.426 279.494 98.426C279.154 98.426 278.837 98.2105 278.723 97.87C278.583 97.4443 278.813 96.9849 279.238 96.8436C279.465 96.7682 280.234 96.3798 281.048 95.9682C285.152 93.8944 289.286 91.9398 291.755 92.0303C289.476 85.2592 285.893 77.8092 280.496 73.8729C279.734 73.3173 275.126 70.4958 271.615 70.4958C267.668 70.5437 237.702 70.8907 226.581 70.5486C226.698 70.5803 226.819 70.6107 226.939 70.6415H150.391C150.303 70.6415 150.219 70.659 150.139 70.6854C148.083 68.2633 143.923 64.7897 137.468 65.6915C137.511 65.2726 137.539 64.8047 137.54 64.3023ZM278.471 188.502V150.54C279.378 150.057 289.315 144.795 293.769 143.536C289.006 163.908 282.84 179.88 278.471 188.502ZM230.685 204.629C231.732 202.774 231.73 200.713 230.68 198.973C229.733 197.4 228.015 196.154 225.576 195.269C224.452 194.858 223.216 194.562 221.908 194.248C221.198 194.078 220.464 193.9 219.708 193.696C219.646 193.68 219.587 193.666 219.525 193.649C215.061 192.428 209.754 190.157 204.243 182.581C204.095 182.376 203.95 182.169 203.808 181.962C203.829 181.889 203.845 181.813 203.845 181.733C203.845 181.681 203.839 181.631 203.829 181.581C207.025 183.946 211.766 186.962 215.333 187.306C215.36 187.308 215.386 187.31 215.412 187.31C215.825 187.31 216.178 186.995 216.219 186.576C216.262 186.13 215.935 185.733 215.489 185.69C212.025 185.355 207.121 182.066 204.124 179.778C205.943 180.209 207.953 180.7 208.632 180.919C212.152 182.054 215.31 181.579 216.144 179.786C216.422 179.187 216.777 177.614 214.076 175.928C212.021 174.643 209.289 174.599 206.658 175.054C207.166 174.685 207.8 174.068 208.614 173.079C210.401 170.91 214.58 164.747 212.497 162.321C210.668 160.187 205.194 158.152 202.784 157.717C204.252 153.363 206.348 147.281 208.38 141.385C211.389 132.653 214.232 124.405 215.05 121.741C217.2 114.757 220.797 103.069 216.28 96.1115C214.281 93.032 210.892 91.1825 206.207 90.6152C200.794 89.9565 192.458 93.185 181.422 100.203C173.695 105.117 164.624 112 156.914 118.783C156.596 116.727 155.893 112.588 154.774 108.107C153.654 103.634 151.491 102.175 150.058 101.706C152.157 98.1975 153.148 97.3773 153.49 97.1902C153.941 96.9455 154.705 96.7158 155.514 96.4727C158.003 95.7255 161.412 94.702 162.02 91.5113C162.575 88.5928 161.014 86.4829 159.254 84.9086C159.966 84.3424 160.972 83.3294 160.79 82.2231C160.62 81.2162 159.56 81.0356 158.709 80.8907C157.516 80.6878 157.002 80.5092 156.906 79.9317C156.877 79.758 156.794 79.6083 156.679 79.4926C156.557 78.9524 156.385 78.4009 156.153 77.8197C155.017 74.9796 152.76 73.508 151.613 72.9155C151.601 72.8104 151.572 72.7073 151.52 72.6123C151.514 72.6005 151.441 72.4719 151.31 72.2649H242.03C246.682 72.3863 251.782 72.3193 255.881 72.2649H267.627C272.712 72.2649 276.848 76.4013 276.848 81.4857V191.116C276.848 191.222 276.87 191.323 276.907 191.416C275.594 193.717 274.315 195.608 273.1 197.036C266.15 205.221 260.434 207.238 230.615 206.92C229.971 206.912 229.319 206.906 228.663 206.9C229.481 206.293 230.18 205.524 230.685 204.629ZM170.32 197.135C171.225 197.107 174.429 197.306 185.614 199.302C196.222 201.193 206.702 202.164 215.127 202.164C221.342 202.164 226.434 201.634 229.64 200.556C230.124 201.938 229.646 203.166 229.272 203.831C228.206 205.717 225.956 206.942 223.78 206.741C223.598 206.727 223.426 206.774 223.282 206.863C215.262 206.825 205.845 206.848 195.261 206.931C195.129 206.838 194.969 206.782 194.794 206.782H169.418C169.18 205.607 169.282 201.863 170.32 197.135ZM190.948 168.983C192.72 168.659 194.356 168.173 195.831 167.533C194.941 168.493 193.522 169.669 192.958 169.807C192.705 169.725 192.355 169.573 191.986 169.414C191.651 169.269 191.3 169.118 190.948 168.983ZM153.72 138.413C154.697 146.123 155.351 150.584 156.564 151.922C156.825 152.208 157.296 152.467 158.091 152.762C161.994 154.214 173.891 156.52 182.893 158.053C186.645 158.689 191.029 159.382 192.08 159.423C195.033 159.538 197.485 160.288 199.173 161.589C201.466 163.357 201.799 165.688 201.133 167.186C201.097 167.245 201.066 167.305 201.046 167.37C201.018 167.427 200.99 167.483 200.953 167.543C200.391 168.461 199.628 169.404 198.744 170.271C197.994 171.014 197.163 171.696 196.344 172.241C195.122 173.048 193.966 173.511 193.171 173.511C191.821 173.511 190.153 172.312 189.382 171.201C189.016 170.675 188.947 170.302 188.968 170.198C188.968 170.198 188.989 170.189 189.046 170.183C189.554 170.128 190.589 170.579 191.342 170.904C191.803 171.103 192.238 171.291 192.595 171.394C194.038 171.807 197.085 168.759 197.818 167.613C198.283 166.887 198.329 166.297 197.954 165.861C197.38 165.195 196.346 165.528 195.313 165.987C193.422 166.827 191.225 167.389 188.783 167.66C186.5 167.916 184.022 167.924 181.4 167.685C181.272 167.676 181.124 167.667 180.935 167.663C179.907 167.647 178.076 167.801 175.759 167.991C166.52 168.747 147.296 170.32 140.773 164.198C139.966 163.438 139.181 162.338 138.439 160.926C136.679 157.57 135.145 152.466 133.88 145.756L153.72 138.413ZM153.094 122.243C152.202 116.341 151.182 109.716 148.181 105.018C148.222 104.97 148.261 104.92 148.292 104.861C148.296 104.853 148.663 104.145 149.214 103.161C150.121 103.348 152.135 104.247 153.199 108.5C154.556 113.936 155.293 118.861 155.464 120.07C154.625 120.825 153.831 121.552 153.094 122.243ZM182.684 154.762C182.539 155.42 182.434 155.926 182.363 156.315C174.108 154.894 163.772 152.889 159.457 151.514C160.6 150.909 161.765 150.244 162.939 149.532C163.391 150.062 164.391 150.994 166.02 151.29C167.79 151.612 180.714 154.345 182.684 154.762ZM166.311 149.693C165.329 149.514 164.685 149.014 164.338 148.662C174.409 142.238 183.194 133.291 189.227 126.297C188.016 129.251 187.06 132.582 186.826 136.058C186.707 137.791 185.274 143.793 184.122 148.616C183.728 150.264 183.354 151.833 183.043 153.178C181.077 152.762 168.132 150.024 166.311 149.693ZM200.948 158.083C200.68 158.889 200.437 159.623 200.223 160.276C200.167 160.24 200.135 160.219 200.135 160.219C200.062 160.174 199.985 160.145 199.906 160.124C197.967 158.731 195.297 157.924 192.143 157.801C191.631 157.781 189.671 157.517 186.331 156.977C187.909 153.572 194.09 140.073 196.367 132.614C201.906 114.47 198.277 111.987 198.277 111.987L197.568 113.054C197.54 113.069 197.514 113.085 197.488 113.103C197.471 113.114 197.456 113.126 197.44 113.138C197.426 113.15 197.411 113.158 197.397 113.17C197.378 113.187 197.356 113.21 197.339 113.229C197.339 113.229 197.338 113.23 197.338 113.23C197.277 113.297 195.13 115.66 192.783 119.415C187.288 126.448 176.1 139.45 162.743 147.752C161.037 148.811 159.345 149.767 157.713 150.592C157.683 150.605 157.658 150.626 157.63 150.642C156.729 149.185 155.977 143.348 155.251 137.59C155.339 137.4 155.353 137.176 155.273 136.964C155.242 136.883 155.197 136.813 155.146 136.749C154.716 133.311 154.188 129.134 153.55 125.206C153.497 124.877 153.443 124.538 153.391 124.196C154.443 123.191 155.628 122.098 156.926 120.938C164.794 113.91 174.277 106.671 182.293 101.573C192.853 94.8574 201.054 91.6265 206.012 92.2268C210.197 92.7337 213.193 94.338 214.919 96.9958C219.022 103.317 215.565 114.551 213.499 121.263C212.688 123.902 209.85 132.137 206.846 140.856C204.672 147.164 202.424 153.686 200.948 158.083ZM205.994 173.517C206.574 172.087 207.192 169.914 206.738 167.89L208.195 164.973C208.308 164.747 208.309 164.481 208.198 164.254C208.087 164.027 207.876 163.864 207.628 163.815L204.098 163.109C203.976 163.085 203.858 163.091 203.746 163.118C202.991 162.366 202.226 161.732 201.609 161.261C201.802 160.67 202.023 159.999 202.27 159.254C203.596 159.457 209.502 161.321 211.265 163.378C211.522 163.677 211.509 164.396 211.23 165.348C210.333 168.409 207.4 172.277 205.994 173.517ZM205.383 165.021L206.268 165.198L205.929 165.878C205.766 165.594 205.587 165.308 205.383 165.021ZM202.736 177.784C202.793 177.764 202.851 177.743 202.91 177.723C205.544 176.807 210.385 175.534 213.216 177.304C214.443 178.07 214.831 178.758 214.672 179.101C214.373 179.744 212.266 180.386 209.13 179.374C208.154 179.059 204.784 178.261 202.736 177.784ZM202.734 167.567C203.09 166.639 203.158 165.638 202.969 164.647C204.08 165.826 204.8 166.958 205.102 168.012C205.637 169.884 204.854 172.378 203.944 174.089C203.261 175.376 202.639 175.997 202.381 176.145C202.253 176.096 202.067 175.92 202.079 175.211C202.079 174.867 202.138 174.455 202.254 173.989C202.315 173.746 202.416 173.446 202.533 173.1C203.025 171.649 203.752 169.504 202.734 167.567ZM200.498 170.79C200.903 170.351 201.274 169.9 201.613 169.446C201.697 170.445 201.359 171.506 201.046 172.432L200.498 170.79ZM197.537 173.784L197.681 173.343C197.688 173.32 197.691 173.297 197.696 173.273C198.21 172.905 198.721 172.499 199.21 172.061L200.344 175.46C200.367 175.532 200.405 175.595 200.446 175.656C200.15 175.213 199.79 174.809 199.292 174.453C198.674 174.012 198.077 173.826 197.537 173.784ZM188.048 172.127C189.085 173.621 191.178 175.134 193.171 175.134C193.698 175.134 194.242 175.02 194.773 174.843C194.492 175.161 194.5 175.647 194.805 175.952C194.882 176.028 194.97 176.085 195.064 176.125L195.059 176.138L180.038 175.659C180.413 174.344 180.999 172.163 181.642 169.33C183.702 169.501 185.691 169.528 187.57 169.398C187.531 169.469 187.497 169.544 187.467 169.623C187.203 170.332 187.404 171.198 188.048 172.127ZM200.168 186.554H205.343C206.121 187.437 206.893 188.23 207.659 188.941H203.224C202.776 188.941 202.412 189.305 202.412 189.753C202.412 190.201 202.776 190.564 203.224 190.564H209.564C212.967 193.212 216.199 194.422 219.097 195.215C219.944 195.447 220.75 195.639 221.529 195.827C222.791 196.129 223.983 196.415 225.02 196.794C226.68 197.396 227.954 198.195 228.776 199.128C221.269 201.464 203.818 200.897 185.899 197.704C176.486 196.024 172.489 195.559 170.708 195.527C171.279 193.275 171.983 191.148 172.824 189.207C175.432 183.184 178.063 178.899 179.131 177.254L195.617 177.78C195.626 177.78 195.634 177.78 195.643 177.78C195.993 177.78 196.305 177.555 196.414 177.221L197 175.427C197.46 175.345 197.905 175.458 198.349 175.775C199.05 176.275 199.349 176.906 199.855 178.061C199.928 178.232 200.004 178.411 200.083 178.578C200.394 179.284 200.753 180.05 201.244 180.922H197.684C197.236 180.922 196.872 181.285 196.872 181.733C196.872 182.181 197.236 182.545 197.684 182.545H202.245C202.465 182.874 202.691 183.205 202.929 183.534C203.282 184.02 203.635 184.485 203.988 184.931H200.168C199.719 184.931 199.356 185.294 199.356 185.743C199.356 186.191 199.719 186.554 200.168 186.554ZM156.942 82.1172C157.46 82.3229 158.007 82.4179 158.436 82.491C158.658 82.5291 158.965 82.5811 159.156 82.6371C159.027 82.9244 158.545 83.439 157.961 83.8485C157.911 83.81 157.857 83.7678 157.809 83.7312C157.694 83.6444 157.585 83.562 157.483 83.4824C157.032 83.1322 156.967 82.8737 156.942 82.1172ZM146.942 88.4682C146.656 88.2093 146.237 88.1919 145.933 88.4025C145.918 88.4126 145.903 88.4236 145.889 88.4354C145.694 88.5819 143.594 90.118 141.609 89.7471C140.618 89.5624 139.812 88.9415 139.144 87.8485C137.829 85.6955 138.689 83.2949 140.239 82.3047C141.853 81.2751 143.704 81.991 145.191 84.2207C145.408 84.5466 145.826 84.6704 146.186 84.5157C146.546 84.3607 146.744 83.9707 146.657 83.5884C146.653 83.5697 146.219 81.6302 146.552 79.4508C146.943 76.8818 148.199 75.0855 150.298 74.0924C150.315 74.1001 150.331 74.1107 150.348 74.1172C150.378 74.129 153.392 75.2885 154.645 78.4224C154.901 79.062 155.073 79.6521 155.172 80.2324C155.288 80.881 155.301 81.4199 155.312 81.8956C155.335 82.9199 155.358 83.8879 156.486 84.7637C156.592 84.8457 156.706 84.9325 156.826 85.0238C156.961 85.1261 157.105 85.2357 157.253 85.3518C159.098 86.7941 160.918 88.6176 160.426 91.2081C160.002 93.4305 157.255 94.2556 155.047 94.9179C154.116 95.1975 153.312 95.439 152.713 95.7653C152.307 95.9873 151.069 96.6626 148.062 101.9C147.672 102.585 147.354 103.168 147.14 103.567C144.905 100.827 141.958 99.3266 138.368 99.0835C139.867 97.8846 142.075 96.06 143.116 94.9074C143.124 94.8984 143.13 94.8879 143.138 94.8785C143.148 94.8664 143.159 94.8558 143.169 94.8432L147.032 89.5725C147.297 89.2406 147.26 88.758 146.942 88.4682ZM127.695 120.556C127.262 120.546 126.878 120.909 126.872 121.357L126.813 125.727C125.587 128.467 121.947 136.393 119.837 138.739C115.801 139.805 112.922 140.421 112.897 140.426C112.741 140.454 112.586 140.486 112.431 140.517C113.835 138.737 115.77 135.866 116.726 132.581C117.32 130.543 117.848 128.196 118.406 125.71C120.633 115.801 123.404 103.468 132.816 101.241C134.07 100.941 135.28 100.757 136.412 100.693C140.768 100.441 144.044 101.944 146.417 105.291C149.562 109.728 150.594 116.562 151.505 122.593L151.707 123.922C151.784 124.445 151.866 124.965 151.948 125.467C152.569 129.293 153.087 133.37 153.511 136.759L128.158 146.142L128.273 137.791V137.79L128.496 121.379C128.502 120.931 128.143 120.563 127.695 120.556ZM167.792 206.782H118.372C122.946 196.703 127.003 185.978 130.755 174.034C131.928 170.298 134.467 166.834 136.506 164.051C136.868 163.557 137.214 163.084 137.536 162.632C138.209 163.76 138.921 164.684 139.661 165.381C146.71 171.997 165.693 170.443 175.891 169.609C177.567 169.471 178.976 169.357 179.983 169.309C179.336 172.126 178.757 174.243 178.409 175.45C178.369 175.488 178.331 175.529 178.298 175.577C178.156 175.779 174.769 180.63 171.335 188.562C170.313 190.92 169.473 193.524 168.841 196.3C167.889 200.443 167.496 204.645 167.792 206.782ZM332.708 270.95H332.709C334.722 270.938 336.174 270.926 336.927 270.913C337.086 270.908 337.25 270.902 337.406 270.885C337.974 270.979 342.621 271.942 342.9 278.081C343 280.29 342.855 282.08 342.574 284.103H239.433C239.152 282.082 239.007 280.292 239.108 278.08C239.318 273.364 243.342 271.683 245.719 271.102C246.31 270.96 246.738 270.901 246.862 270.885C248.995 270.89 314.443 271.033 332.708 270.95ZM343.175 305.54H238.826C238.941 305.109 239.057 304.683 239.171 304.268C239.74 302.198 240.277 300.243 240.393 298.436C240.756 292.713 240.205 289.157 239.719 286.019C239.703 285.921 239.689 285.825 239.674 285.727H342.333C342.318 285.824 342.304 285.919 342.289 286.017C341.802 289.155 341.252 292.712 341.614 298.437C341.73 300.246 342.267 302.206 342.835 304.282C342.948 304.693 343.062 305.114 343.175 305.54ZM359.234 343.284H341.563C341.565 343.25 341.569 343.217 341.566 343.182L340.317 324.051C343.819 322.962 345.925 319.774 346.129 315.186C346.285 311.622 345.625 308.511 344.96 305.939C344.776 305.223 344.586 304.528 344.401 303.853C343.831 301.773 343.339 299.977 343.234 298.334C342.883 292.786 343.397 289.471 343.893 286.265C343.955 285.864 344.016 285.467 344.076 285.071C344.36 283.166 344.652 280.891 344.522 278.007C344.249 272.016 340.13 269.731 337.802 269.305C338.479 265.754 341.939 246.924 344.197 221.32C346.505 195.152 347.995 156.345 341.987 120.079C339.759 106.638 332.769 88.6131 324.178 74.157C310.248 50.7162 297.296 44.2321 288.884 42.9196C284.957 42.3092 274.421 42.0717 256.668 42.1959C241.553 42.2958 230.883 42.67 224.399 44.2227C221.065 45.0202 218.221 47.5446 216.596 51.1484C214.9 54.909 214.85 59.1545 216.425 62.6789H137.441C136.651 56.4581 131.389 54.892 128.238 54.5186C127.652 54.4496 127.059 54.4386 126.464 54.4739C126.806 53.0332 126.818 51.217 126.044 49.4792C125.42 48.077 124.029 46.1959 120.942 45.1943C117.605 44.1095 114.203 45.0543 111.609 47.7824C108.679 50.8631 107.459 55.476 108.707 58.7511C109.436 60.6663 110.458 61.8948 111.542 62.6789H98.1524C96.4969 60.1744 93.7644 60.2527 93.6743 60.256H71.3448C67.9758 60.256 66.2052 61.478 65.2786 62.6789L56.7344 62.6793C56.5197 62.6708 51.4746 62.5965 47.3602 66.6099C43.988 69.9001 42.2782 74.9049 42.2782 81.4857V197.561C42.2782 203.54 47.1427 208.405 53.1224 208.405H87.6524C87.2681 210.25 86.9316 211.986 86.6069 213.665C85.5225 219.287 84.665 223.726 82.9341 226.816C82.2904 227.963 81.5075 229.234 80.6013 230.706C76.0286 238.134 69.1183 249.358 66.2413 267.148C65.7543 270.164 63.9929 275.614 62.2892 280.884C60.4807 286.478 58.6106 292.264 58.1313 295.52C58.0996 295.73 58.068 295.937 58.0319 296.149C57.0428 302.071 54.4012 307.822 52.4876 311.65C52.1029 312.206 48.8545 316.98 45.5595 324.584C44.5915 326.818 43.8062 329.32 43.2214 332.018C43.141 332.135 43.0834 332.265 43.0668 332.409C43.0562 332.5 43.0635 332.59 43.0814 332.678C42.2522 336.781 41.9661 341.148 42.3294 343.284H34.7985C34.3505 343.284 33.9868 343.647 33.9868 344.095C33.9868 344.544 34.3505 344.907 34.7985 344.907H359.234C359.683 344.907 360.046 344.544 360.046 344.095C360.046 343.647 359.683 343.284 359.234 343.284Z" fill="#700051"/>
<path d="M51.9853 142.939C54.5652 142.939 56.6647 140.839 56.6647 138.259C56.6647 135.679 54.5652 133.58 51.9853 133.58C49.4053 133.58 47.3059 135.679 47.3059 138.259C47.3059 140.839 49.4053 142.939 51.9853 142.939Z" fill="#700051"/>
</svg>
