<svg width="375" height="375" viewBox="0 0 375 375" fill="none" xmlns="http://www.w3.org/2000/svg">
<g clip-path="url(#clip0_23283_162553)">
<path d="M302.105 87.4364C301.783 87.1201 301.722 86.6234 301.958 86.2392L306.408 78.9829L297.749 80.2484C297.489 80.2862 297.224 80.2165 297.015 80.0546C296.807 79.8933 296.674 79.6535 296.646 79.3914L295.771 71.1055L289.01 77.466C288.818 77.6462 288.567 77.7388 288.299 77.7281C288.036 77.7155 287.79 77.5963 287.617 77.3982L281.606 70.5266L281.135 79.1002C281.12 79.3836 280.981 79.6462 280.755 79.8182C280.529 79.9902 280.238 80.0546 279.961 79.9941C276.839 79.3134 273.414 78.6201 271.66 78.3303C272.22 79.9955 273.48 83.2223 274.683 86.1336C274.86 86.5643 274.706 87.0605 274.316 87.3153L267.963 91.4573L275.823 94.5052C276.283 94.6835 276.536 95.1782 276.41 95.6554L274.495 102.927L282.207 99.8056C282.324 99.7586 282.448 99.7349 282.571 99.7349C282.709 99.7349 282.847 99.7644 282.975 99.8231C283.217 99.9345 283.403 100.141 283.489 100.394L286.013 107.864L291.53 100.141C291.84 99.7077 292.439 99.605 292.875 99.9107L299.453 104.527L299.65 96.7068C299.66 96.2853 299.942 95.9185 300.347 95.8008L308.266 93.4965L302.105 87.4364Z" fill="#FE874E"/>
<path d="M264.787 323.025C264.781 322.932 264.784 322.837 264.807 322.741C264.848 322.571 268.897 305.608 270.058 295.918C271.144 286.899 273.844 277.495 276.225 274.24C272.886 272.165 269.485 269.998 266.575 267.927C260.98 274.631 260.579 286.529 260.553 287.808C260.665 288.294 260.842 289.607 260.49 292.395C260.23 294.503 259.718 297.043 258.969 299.943C258.559 301.519 258.098 303.148 257.596 304.786C257.303 305.741 257.002 306.62 256.702 307.402C255.052 311.748 253.037 314.459 250.716 315.458C250.002 315.765 249.371 315.857 248.873 315.857C248.408 315.857 248.062 315.777 247.865 315.718C245.318 322.483 241.892 327.592 239.59 331.02C238.332 332.893 237.246 334.51 237.138 335.219C237.138 335.221 237.139 335.223 237.138 335.225C240.348 335.116 254.254 333.947 264.787 323.025Z" fill="white"/>
<path d="M250.064 278.787C250.476 278.851 253.906 279.542 258.745 285.299C259.096 281.004 260.377 272.419 265.009 266.787C260.29 263.252 251.913 256.257 243.804 248.726L225.117 267.9C232.743 274.088 240.406 279.941 242.969 281.887C244.148 280.251 246.78 278.276 250.064 278.787Z" fill="#D8375D"/>
<path d="M265.987 150.064C261.851 154.201 257.48 157.904 252.972 161.109C254.094 161.861 255.05 162.798 255.82 163.913C256.789 165.322 257.77 167.674 258.807 171.078C268.244 165.85 272.533 160.99 272.576 160.94C272.676 160.826 272.797 160.744 272.928 160.688C270.079 154.165 267.203 151.136 265.987 150.064Z" fill="#FFB0A8"/>
<path d="M259.617 201.259C259.067 201.162 258.477 201.089 257.843 201.045C255.161 200.868 252.624 202.959 252.076 203.443L252.26 208.098C252.264 208.292 252.289 212.35 248.667 215.657C248.275 218.942 247.742 222.296 247.081 225.639C249.389 225.657 251.575 225.673 253.592 225.687L256.492 225.707C256.454 225.565 256.445 225.413 256.478 225.259C258.251 216.991 259.302 208.923 259.617 201.259Z" fill="#FFB0A8"/>
<path d="M248.873 125.859L227.35 94.8482C227.892 96.137 228.523 97.5818 229.222 99.1825C232.483 106.65 236.911 116.802 238.581 125.499C238.662 125.555 238.737 125.619 238.8 125.699L245.334 134.07L249.104 126.087C249.018 126.024 248.937 125.952 248.873 125.859Z" fill="#FFB0A8"/>
<path d="M234.624 160.941C233.235 160.987 231.782 161.157 230.305 161.447C222.599 162.951 216.263 170.773 213.782 174.249C216.361 173.965 220.82 173.359 223.652 172.336C224.782 171.928 225.864 171.758 226.866 171.831C226.877 171.831 226.888 171.833 226.899 171.834C226.905 171.834 226.909 171.834 226.914 171.835C229.081 172.005 232.735 173.482 233.247 181.368C233.252 181.438 233.257 181.52 233.261 181.605L233.271 181.784C233.272 181.798 233.272 181.814 233.273 181.828C233.273 181.831 233.273 181.833 233.273 181.835C233.625 189.303 232.008 210.986 231.725 214.687C233.036 215.691 237.735 218.768 243.602 216.496C244.962 215.972 246.145 215.284 247.12 214.449C250.323 211.714 250.325 208.295 250.323 208.151L249.238 180.747C249.217 180.213 249.633 179.762 250.168 179.741C250.703 179.718 251.154 180.136 251.175 180.67L251.35 185.101L258.17 199.129C259.147 199.205 260.048 199.339 260.848 199.534C260.85 199.534 260.851 199.534 260.853 199.535C261.737 199.744 262.451 200.002 263.016 200.254C263.004 200.184 262.992 200.11 262.979 200.033C262.215 195.491 260.427 184.854 258.206 176.142C257.862 174.794 257.572 173.725 257.291 172.778C257.291 172.777 257.291 172.777 257.291 172.776C256.197 168.991 255.166 166.381 254.224 165.013C253.349 163.747 252.181 162.753 250.753 162.06C248.602 161.023 246.187 160.821 244.276 160.886C245.509 161.47 246.673 162.184 247.753 163.033C250.51 165.198 252.768 168.217 254.463 172.009C254.682 172.497 254.463 173.071 253.974 173.289C253.486 173.508 252.912 173.289 252.694 172.8C251.128 169.299 249.063 166.526 246.556 164.557C244.745 163.134 242.674 162.118 240.402 161.536C238.619 161.071 236.674 160.87 234.624 160.941Z" fill="#FE874E"/>
<path d="M294.309 286.321C293.631 285.708 292.807 285.041 291.823 284.304C291.766 284.376 291.702 284.444 291.624 284.499C288.968 286.377 285.394 292.776 277.562 306.796C276.043 309.515 274.359 312.531 272.481 315.873C270.844 318.785 268.897 321.466 266.692 323.843C256.211 335.127 242.644 336.87 238.017 337.129C239.823 339.184 243.992 341.202 247.418 341.006C251.817 340.75 279.534 332.207 296.489 300.589C296.764 299.681 299.283 290.817 294.309 286.321Z" fill="#F7F6F6"/>
<path d="M231.018 146.165C228.122 143.469 224.451 142.739 220.109 143.998C216.753 144.971 214.24 146.817 214.214 146.836C213.934 147.043 213.563 147.085 213.245 146.944C212.926 146.802 212.707 146.501 212.672 146.154C212.667 146.101 212.069 140.679 208.172 137.794C205.843 136.069 202.764 135.567 199.022 136.301C195.851 136.926 193.475 138.309 191.962 140.412C188.497 145.223 190.482 152.338 190.503 152.409C190.546 152.56 190.547 152.713 190.519 152.857C190.757 153.389 190.988 153.935 191.2 154.501C195.131 164.855 198.635 174.872 198.669 174.973C198.681 175.004 198.684 175.035 198.692 175.067C202.89 175.248 207.029 175.15 211.088 174.771C211.498 174.117 213.379 171.211 216.341 168.058C220.815 163.297 225.388 160.432 229.933 159.545C231.188 159.299 232.427 159.138 233.632 159.055C233.652 158.975 233.679 158.896 233.721 158.821C233.722 158.82 233.797 158.682 233.903 158.437C233.912 158.323 233.938 158.208 233.989 158.098L234.211 157.625C234.97 155.385 235.634 151.073 231.778 146.926C231.542 146.672 231.294 146.423 231.018 146.165Z" fill="#FF4238"/>
<path d="M157.619 117.255C158.952 118.379 160.226 119.236 161.207 119.666C161.886 119.963 163.22 120.792 166.264 122.814C166.371 122.861 166.467 122.924 166.549 123.003C167.337 123.526 168.195 124.098 169.116 124.712C173.602 127.703 179.623 131.948 186.03 135.87C186.669 136.261 186.835 136.228 186.999 136.554C188.264 137.322 189.588 137.793 190.944 138.588C192.748 136.465 195.329 135.053 198.648 134.4C202.955 133.555 206.552 134.175 209.339 136.246C212.582 138.655 213.857 142.387 214.335 144.457C217.481 142.596 225.823 138.68 232.34 144.747C232.404 144.807 232.462 144.866 232.524 144.926C234.317 143.208 235.632 141.013 236.43 138.383C237.026 136.421 237.329 134.227 237.329 131.862C237.329 130.27 237.152 128.472 236.805 126.518C235.282 117.901 230.753 107.53 227.445 99.9577C226.434 97.6408 225.56 95.6394 224.892 93.9693H224.882C222.413 93.9693 208.788 99.5216 200.214 103.261L207.794 121.751C207.938 122.104 207.863 122.508 207.601 122.785C207.415 122.981 207.159 123.088 206.897 123.088C206.791 123.088 206.684 123.07 206.58 123.034C205.835 122.776 188.3 116.67 184.823 113.444C182.355 111.15 181.415 108.676 180.116 105.254C179.538 103.732 178.882 102.007 177.982 100.018C175.882 95.3831 173.719 92.9906 172.817 92.1205L169.6 96.4645C169.573 96.4998 169.542 96.5299 169.512 96.5609C169.501 96.5725 169.491 96.5861 169.479 96.5972C169.424 96.6491 169.364 96.6922 169.3 96.7285C169.284 96.7372 169.268 96.7435 169.252 96.7513C169.201 96.7765 169.148 96.7978 169.094 96.8138C169.072 96.8201 169.051 96.8259 169.028 96.8308C168.972 96.8429 168.916 96.8501 168.859 96.8521C168.846 96.8526 168.833 96.8569 168.82 96.8569C168.816 96.8569 168.812 96.8555 168.808 96.8555C168.732 96.8545 168.657 96.8438 168.582 96.8249C168.563 96.8201 168.545 96.8123 168.527 96.8065C168.468 96.7876 168.411 96.7629 168.355 96.7324C168.343 96.7256 168.329 96.7232 168.317 96.7154C168.307 96.7096 168.299 96.7014 168.289 96.6951C168.281 96.6893 168.271 96.6854 168.262 96.6791L160.431 91.1476C159.859 91.0992 158.99 91.5454 157.998 92.3942C154.195 95.6476 149.915 103.558 150.235 106.741C150.284 107.215 150.413 107.739 150.617 108.296C151.601 110.976 154.349 114.492 157.619 117.255Z" fill="#D8375D"/>
<path d="M204.31 71.1612C203.964 71.0905 203.619 71.0304 203.27 70.9795C189.612 68.934 180.534 81.6951 180.445 81.8245L173.98 90.5512C174.944 91.4369 177.392 94.0183 179.747 99.2193C180.673 101.263 181.339 103.018 181.927 104.566C183.179 107.861 184.006 110.039 186.143 112.025C187.181 112.988 189.899 114.349 193.114 115.749C196.55 113.695 196.764 104.179 196.667 99.7169L195.051 95.7765C194.848 95.2814 195.085 94.715 195.58 94.512C196.077 94.3095 196.641 94.5459 196.845 95.0411L199.479 101.468C201.826 100.445 219.196 92.9199 224.15 92.1074C223.552 90.6089 222.892 88.9844 222.149 87.355L221.441 86.3356C221.279 86.1016 221.237 85.8221 221.296 85.5648C218.281 79.513 213.551 72.9534 204.31 71.1612Z" fill="white"/>
<path d="M188.004 54.8075C189.4 55.8642 190.72 56.8623 190.72 58.3541C190.72 60.8269 185.81 69.7048 184.825 71.4592C184.823 71.4626 184.82 71.465 184.818 71.4689C184.814 71.4752 184.812 71.4824 184.808 71.4887L180.299 78.8957C183.491 75.2077 191.821 67.3235 203.518 69.058C203.441 68.0047 203.322 66.3385 203.26 65.3172L195.141 65.0982C194.861 65.0905 194.597 64.9616 194.419 64.7441C194.24 64.5275 194.165 64.2436 194.212 63.9665L196.736 49.1651C196.792 48.8385 197.01 48.5629 197.316 48.4345C197.621 48.3071 197.971 48.3429 198.243 48.5309C201.442 50.746 203.676 48.6385 204.723 47.1854C206.538 44.6636 206.979 41.0386 205.595 40.0018C202.812 37.9146 198.305 43.2145 198.26 43.2683C198.076 43.4907 197.803 43.6196 197.515 43.6205C197.25 43.6162 196.953 43.4936 196.768 43.2717C193.973 39.918 193.526 33.3042 193.496 29.841C191.815 31.669 190.623 34.3109 189.885 37.8448C189.774 38.3822 189.684 38.8749 189.606 39.3027C189.454 40.138 189.353 40.6903 189.195 41.0512C188.977 41.5667 188.495 41.9912 187.829 42.5784C187.504 42.8642 187.137 43.1874 186.771 43.5517C185.457 44.8623 183.998 46.7935 184.4 50.1176C184.66 52.278 186.436 53.622 188.004 54.8075Z" fill="#D8375D"/>
<path d="M186.548 41.1244C186.9 40.8148 187.337 40.4292 187.421 40.2756C187.476 40.1482 187.561 39.7073 187.646 39.2509C186.808 39.7582 185.737 40.3938 184.956 40.8139C185.217 41.0692 185.573 41.3773 185.944 41.6666C186.155 41.4723 186.359 41.2906 186.548 41.1244Z" fill="#D8375D"/>
<path d="M187.943 225.121C193.966 209.119 190.344 189.574 189.511 185.625C186.267 185.384 183.035 185.031 179.871 184.576C180.229 186.671 181.039 191.91 181.404 198.269C182.035 209.289 181.103 218.301 178.638 225.068L184.708 225.12C185.772 225.131 186.849 225.141 187.936 225.15C187.939 225.14 187.94 225.13 187.943 225.121Z" fill="#FFB0A8"/>
<path d="M190.114 183.728C190.282 183.696 190.45 183.71 190.605 183.762C198.279 184.272 206.281 184.197 214.396 183.532C220.245 183.051 225.919 182.222 231.28 181.074C231.046 178.296 230.141 174.125 226.858 173.784C219.181 175.985 211.092 177.097 202.744 177.097C201.063 177.097 199.371 177.052 197.67 176.962C184.561 176.264 170.959 172.944 157.239 167.094C150.991 164.427 145.742 161.66 141.816 159.392C144.24 162.467 147.12 166.983 149.8 173.369C149.914 173.425 150.021 173.494 150.106 173.592C151.16 174.393 161.291 179.771 178.925 182.484C182.579 183.044 186.342 183.461 190.114 183.728Z" fill="#FFB0A8"/>
<path d="M168.532 94.4979L180.133 75.4422L162.408 90.1718L168.532 94.4979Z" fill="#FFB0A8"/>
<path d="M196.608 174.95C195.766 172.558 192.733 163.998 189.387 155.185C189.123 154.482 188.838 153.805 188.536 153.168C185.543 146.839 182.232 146.923 181.397 147.06C181.25 150.248 178.385 153.115 173.328 155.14C170.865 156.127 168.464 156.544 166.323 156.544C163.507 156.544 161.138 155.822 159.656 154.722C159.315 155.078 158.301 156.314 158.034 158.639C157.819 160.486 158.131 162.576 158.961 164.854C159.064 165.137 159.023 165.436 158.88 165.677C171.685 171.036 184.366 174.152 196.608 174.95Z" fill="#F7F6F6"/>
<path d="M169.484 141.728L167.74 136.128C167.736 136.119 167.734 136.109 167.731 136.099L167.409 135.068C166.96 135.411 166.42 135.685 165.815 135.853C165.378 135.974 164.945 136.032 164.53 136.032C164.293 136.032 164.065 136.007 163.843 135.97L166.229 142.892L169.484 141.728Z" fill="white"/>
<path d="M163.251 133.433L163.259 133.483C163.392 133.954 164.289 134.264 165.297 133.985C166.181 133.74 166.723 133.175 166.802 132.745C166.819 132.657 166.816 132.589 166.794 132.51C166.775 132.44 166.728 132.364 166.657 132.29C166.642 132.277 166.627 132.265 166.612 132.252C166.403 132.066 166.011 131.92 165.517 131.92C165.33 131.92 165.128 131.941 164.915 131.989C164.858 132.001 164.816 132.01 164.77 132.023C163.784 132.296 163.191 132.972 163.251 133.433Z" fill="white"/>
<path d="M166.632 125.519L165.859 130.163C166.54 130.205 167.168 130.409 167.675 130.76C167.71 130.772 167.746 130.78 167.779 130.796C167.992 130.894 168.155 131.068 168.25 131.279C168.472 131.549 168.633 131.848 168.722 132.174C168.796 132.452 168.822 132.729 168.8 133.004L169.411 134.964C172.373 134.772 175.075 135.372 177.016 136.654C177.524 136.438 178.65 136.327 182.869 136.104C177.285 132.62 172.056 129.135 168.097 126.495C167.59 126.157 167.102 125.831 166.632 125.519Z" fill="white"/>
<path d="M148.595 108.346C148.452 107.858 148.354 107.386 148.307 106.936C147.895 102.839 152.786 94.3027 156.738 90.9214C158.143 89.7193 159.414 89.1505 160.525 89.2164L162.166 87.853C162.121 87.7808 162.078 87.7062 162.053 87.6205C162.007 87.463 157.354 71.7857 153.555 65.5338C152.487 63.7818 149.483 61.3802 144.369 58.1927C142.973 57.3211 141.562 56.4785 140.35 55.7561C139.872 55.4727 139.365 55.5691 138.846 56.0425C137.756 57.0376 137.183 59.2329 138.111 61.184C138.994 63.0313 141.994 65.1636 144.641 67.0449C146.688 68.4994 148.455 69.7552 149.281 70.8748C149.285 70.8807 149.287 70.8855 149.292 70.8913C149.298 70.9005 149.304 70.9107 149.31 70.9204C149.479 71.1592 149.604 71.3787 149.688 71.5934C149.787 71.8443 149.774 72.1108 149.673 72.3395L150.414 75.9446C150.581 76.7595 150.388 77.6055 149.884 78.2673C149.379 78.9306 148.613 79.3429 147.781 79.3986L146.893 79.4572L139.758 88.3477C142.489 96.4175 146.288 107.641 147.289 110.599C147.75 109.803 148.186 109.051 148.595 108.346Z" fill="#D8375D"/>
<path d="M153.244 125.858C157.052 132.708 160.48 135.926 161.861 136.165L161.107 133.98C160.98 133.612 161.088 133.218 161.354 132.964C161.548 131.842 162.476 130.822 163.784 130.314L164.807 124.173C162.86 122.883 161.061 121.717 160.43 121.442C159.415 120.996 158.217 120.227 156.937 119.203C156.373 120.141 154.932 122.538 153.071 125.639C153.136 125.703 153.197 125.774 153.244 125.858Z" fill="#D8375D"/>
<path d="M143.685 137.508C146.139 133.414 148.764 129.04 150.927 125.447C153.253 121.568 155.032 118.61 155.447 117.921C153.354 116 150.959 113.294 149.534 110.59C149.331 110.941 149.126 111.295 148.912 111.665L148.477 112.416C146.047 116.636 142.876 122.223 138.516 129.968L143.685 137.508Z" fill="#FFB0A8"/>
<path d="M148.342 77.0936C148.51 76.8741 148.571 76.6047 148.516 76.3349L147.6 71.8814C146.895 71.0282 145.259 69.861 143.519 68.6251C140.68 66.6072 137.461 64.3203 136.362 62.018C134.998 59.1498 135.951 56.0616 137.54 54.6115C138.694 53.5587 140.115 53.3639 141.34 54.0907C142.251 54.6328 143.272 55.2428 144.317 55.8828L141.917 44.1687C141.834 43.7632 141.485 43.4545 141.068 43.4187L123.905 41.9943C123.615 41.9705 123.331 42.082 123.133 42.3C122.933 42.519 122.848 42.8116 122.9 43.1033L129.053 77.8523C129.137 78.3247 129.554 78.6556 130.042 78.628L147.652 77.4652C147.928 77.4468 148.174 77.3145 148.342 77.0936Z" fill="#F7F6F6"/>
<path d="M65.1616 304.889C66.6665 307.718 73.7861 319.721 88.2188 324.42C88.2949 324.377 88.3758 324.339 88.4649 324.317C88.4649 324.317 88.5172 324.304 88.6141 324.285C90.3607 323.895 106.096 320.356 114.903 317.303C123.487 314.335 133.123 312.649 137.094 313.365C137.497 309.464 137.956 305.462 138.549 301.927C130.055 299.823 119.329 304.607 118.043 305.203C117.662 305.512 116.565 306.248 113.895 307.154C111.889 307.846 109.376 308.497 106.429 309.087C104.931 309.392 103.264 309.692 101.478 309.976C100.494 310.129 99.5725 310.244 98.7357 310.318C97.8118 310.4 96.9392 310.442 96.1204 310.442C92.8346 310.442 90.4014 309.776 88.8685 308.455C87.7333 307.476 87.4543 306.429 87.3855 306.006C80.1815 306.678 74.0851 305.831 69.995 305.258C67.7682 304.946 65.8448 304.679 65.1616 304.889Z" fill="white"/>
<path d="M134.141 334.915C134.395 334.04 134.634 333.012 134.865 331.798C134.776 331.778 134.688 331.749 134.604 331.703C131.754 330.135 124.441 329.72 108.415 328.811C105.304 328.635 101.853 328.439 98.0229 328.212C94.7157 328.014 91.487 327.446 88.426 326.525C73.6096 322.053 66.0839 310.561 63.8296 306.513C62.7671 309.035 62.7748 313.665 64.4536 316.665C66.6087 320.508 86.4197 341.698 122.265 343.114C123.202 342.964 132.271 341.352 134.141 334.915Z" fill="#F7F6F6"/>
<path d="M135.027 214.984C135.317 215.133 135.504 215.405 135.547 215.708C139.23 220.692 143.342 223.676 147.778 224.573C148.58 224.64 150.534 224.574 152.246 222.71C154.808 219.919 157.188 212.838 153.972 194.955C152.625 187.473 150.701 180.656 148.253 174.691C143.134 162.211 137.114 156.917 135.502 155.662C133.033 160.28 130.779 162.816 128.622 163.395C128.301 163.481 127.98 163.524 127.663 163.524C126.982 163.524 126.318 163.326 125.706 162.935C124.195 161.968 123.278 160.514 122.974 158.68C121.089 164.116 120.206 173.755 124.641 190.382C127.449 200.92 130.943 209.188 135.027 214.984Z" fill="#FFB1A8"/>
<path d="M125.356 153.943C125.345 153.996 125.329 154.047 125.309 154.098C124.717 156.096 124.143 159.634 126.751 161.303C127.193 161.585 127.628 161.655 128.12 161.523C129.251 161.219 131.178 159.727 133.964 154.424C133.962 154.422 133.953 154.416 133.952 154.415C133.951 154.416 131.307 152.518 127.439 149.745C126.525 151.388 125.948 152.43 125.837 152.63C125.784 152.749 125.573 153.244 125.356 153.943Z" fill="#FFB0A8"/>
<path d="M125.991 71.6717C125.501 71.8234 124.839 72.1256 124.548 72.5981C124.438 72.7743 124.311 73.0718 124.46 73.617C124.802 74.8707 125.919 75.3593 126.678 75.5496L125.991 71.6717Z" fill="#D8375D"/>
<path d="M125.637 69.6753L124.718 64.4834C123.577 65.3003 122 66.7644 122.494 67.9732C123.095 69.4383 124.78 69.6612 125.637 69.6753Z" fill="#D8375D"/>
<path d="M124.292 62.0765L123.646 58.4278C123.062 58.3742 122.05 58.3826 121.554 58.8163C121.409 58.9428 121.219 59.1781 121.243 59.759C121.303 61.2447 123.2 61.8495 124.292 62.0765Z" fill="#D8375D"/>
<path d="M123.051 55.0677L122.261 50.6079C122.167 50.5769 122.074 50.5352 121.989 50.4737C121.71 50.2722 120.983 49.8923 120.51 49.9955C120.383 50.0236 120.214 50.0958 120.039 50.4073C119.785 50.8579 119.901 51.4301 120.042 51.8313C120.472 53.0561 121.658 54.307 123.051 55.0677Z" fill="#D8375D"/>
<path d="M80.946 99.8744C81.0226 101.702 84.2145 101.866 84.2469 101.867H84.2503C88.7522 101.867 92.1679 103.022 94.369 105.3C97.5827 108.626 97.4146 113.535 97.3244 116.173C97.3065 116.688 97.2915 117.133 97.3036 117.449C97.3792 119.483 98.5274 119.634 98.7571 119.643C98.7794 119.644 98.8002 119.65 98.8225 119.652C98.8491 119.65 98.8748 119.644 98.9024 119.643C99.1384 119.633 100.279 119.475 100.357 117.449C100.369 117.133 100.354 116.688 100.337 116.173C100.246 113.535 100.078 108.626 103.292 105.3C105.494 103.022 108.911 101.867 113.447 101.867C113.444 101.866 116.634 101.717 116.711 99.8744C116.636 98.0289 113.444 97.8802 113.412 97.8787H113.408C108.907 97.8787 105.492 96.7237 103.291 94.4461C100.078 91.1215 100.246 86.214 100.337 83.5779C100.354 83.0633 100.369 82.6186 100.357 82.3012C100.278 80.2634 99.1287 80.1123 98.8995 80.103C98.8768 80.1021 98.8559 80.0963 98.8341 80.0938C98.807 80.0963 98.7813 80.1026 98.7542 80.103C98.5182 80.1137 97.3787 80.2712 97.3036 82.2998C97.2915 82.6185 97.3065 83.0633 97.3244 83.5779C97.4146 86.214 97.5827 91.1215 94.3705 94.4461C92.1689 96.7242 88.7513 97.8792 84.2135 97.8792C84.2164 97.8802 81.0202 98.0289 80.946 99.8744Z" fill="#FE874E"/>
<path d="M120.9 263.177C118.531 273.234 116.372 283.483 115.679 286.807C117.667 287.152 120.585 288.655 121.563 291.828C122.459 294.747 120.785 299.478 119.464 302.506C123.473 300.951 131.821 298.319 138.901 300.02C139.999 294.788 143.291 283.509 147.2 271.613L120.9 263.177Z" fill="#D8375D"/>
<path d="M116.726 99.7227C116.727 99.7164 116.728 99.7101 116.729 99.7038C116.728 99.7101 116.727 99.7164 116.726 99.7227ZM94.3706 94.4461C97.5828 91.1219 97.4152 86.2145 97.3246 83.5779C97.3067 83.0633 97.2917 82.6186 97.3043 82.3002C97.3794 80.2717 98.5184 80.1137 98.7544 80.1031C98.782 80.1026 98.8077 80.0963 98.8343 80.0938C98.8561 80.0963 98.8774 80.1021 98.8997 80.1031C99.1294 80.1123 100.279 80.2634 100.358 82.3012C100.37 82.6186 100.355 83.0633 100.337 83.5779C100.247 86.2145 100.079 91.1219 103.291 94.4461C105.492 96.7237 108.908 97.8787 113.408 97.8787H113.412C113.444 97.8802 116.637 98.0289 116.711 99.8744C116.634 101.717 113.445 101.866 113.448 101.867C108.911 101.867 105.494 103.022 103.292 105.3C100.079 108.626 100.247 113.535 100.337 116.173C100.355 116.688 100.37 117.133 100.358 117.449C100.279 119.475 99.139 119.633 98.9026 119.643C98.875 119.644 98.8493 119.65 98.8227 119.652C98.8009 119.65 98.7796 119.644 98.7573 119.643C98.5276 119.634 97.3798 119.484 97.3043 117.449C97.2917 117.133 97.3067 116.688 97.3246 116.173C97.4152 113.535 97.5828 108.626 94.3692 105.3C92.1681 103.023 88.7529 101.867 84.251 101.867H84.2476C84.2151 101.866 81.0228 101.702 80.9462 99.8744C81.0204 98.0289 84.2171 97.8802 84.2137 97.8792C88.7519 97.8792 92.1691 96.7242 94.3706 94.4461ZM79.033 100.184C79.313 102.901 82.4835 103.745 84.2137 103.805C87.5669 103.805 90.173 104.488 92.0044 105.822L83.0921 116.006C82.7398 116.408 82.7805 117.021 83.1831 117.373C83.3668 117.534 83.5945 117.613 83.8207 117.613C84.0906 117.613 84.359 117.501 84.5504 117.282L93.4172 107.151C95.5998 109.877 95.469 113.741 95.3876 116.106C95.3687 116.66 95.3527 117.137 95.3677 117.523C95.4869 120.733 97.625 121.581 98.7389 121.581C98.7699 121.581 98.7989 121.575 98.829 121.572C98.859 121.575 98.8876 121.581 98.9181 121.581C100.031 121.581 102.17 120.733 102.294 117.525C102.309 117.137 102.293 116.66 102.274 116.106C102.188 113.591 102.044 109.381 104.686 106.647C104.695 106.637 104.706 106.63 104.716 106.62L114.041 117.282C114.233 117.501 114.501 117.613 114.771 117.613C114.998 117.613 115.225 117.534 115.409 117.373C115.812 117.021 115.852 116.409 115.5 116.006L106.242 105.422C108.031 104.348 110.45 103.805 113.482 103.804C115.178 103.745 118.344 102.901 118.624 100.184C118.643 100.108 118.656 100.03 118.656 99.948C118.656 99.9238 118.654 99.8991 118.653 99.8749C118.654 99.8492 118.656 99.8259 118.656 99.7983C118.656 99.7159 118.643 99.6379 118.624 99.5624C118.345 96.8448 115.178 96.0013 113.448 95.9412C110.404 95.9412 107.971 95.3816 106.178 94.2818L115.5 83.6239C115.852 83.2213 115.812 82.6089 115.409 82.2566C115.006 81.9039 114.394 81.9461 114.041 82.3482L104.661 93.072C102.047 90.3385 102.188 86.1505 102.274 83.6442C102.293 83.0914 102.309 82.6142 102.294 82.2266C102.17 79.0139 100.031 78.1651 98.9181 78.1651C98.8871 78.1651 98.858 78.1714 98.828 78.1743C98.7984 78.1714 98.7694 78.1651 98.7389 78.1651C97.625 78.1651 95.4869 79.0144 95.3677 82.2266C95.3527 82.6142 95.3687 83.0914 95.3876 83.6442C95.468 85.9916 95.5974 89.8138 93.4656 92.5347L84.5504 82.3477C84.1977 81.9456 83.5858 81.9044 83.1831 82.2571C82.7805 82.6094 82.7398 83.2213 83.0921 83.6244L92.0683 93.8812C90.2335 95.2445 87.5998 95.9412 84.1797 95.9417C82.4821 96.0013 79.314 96.8443 79.0334 99.5604C79.0141 99.637 79.0005 99.7155 79.0005 99.7983C79.0005 99.8206 79.001 99.8535 79.0029 99.8908C79.0024 99.9097 79.0005 99.9291 79.0005 99.948C79.0005 100.03 79.0136 100.108 79.033 100.184Z" fill="#700051"/>
<path d="M299.65 96.7067L299.453 104.526L292.876 99.9107C292.44 99.605 291.84 99.7072 291.531 100.14L286.013 107.864L283.489 100.394C283.404 100.141 283.218 99.9344 282.975 99.823C282.847 99.7644 282.709 99.7348 282.571 99.7348C282.448 99.7348 282.324 99.7586 282.207 99.8056L274.495 102.927L276.41 95.6554C276.536 95.1781 276.283 94.6835 275.824 94.5052L267.963 91.4572L274.316 87.3148C274.707 87.0604 274.861 86.5638 274.683 86.1331C273.481 83.2217 272.221 79.995 271.66 78.3303C273.414 78.62 276.839 79.3133 279.962 79.9936C280.239 80.0541 280.529 79.9902 280.755 79.8182C280.981 79.6462 281.12 79.3836 281.136 79.1001L281.606 70.526L287.617 77.3981C287.79 77.5963 288.036 77.715 288.3 77.728C288.567 77.7387 288.819 77.6462 289.011 77.4659L295.771 71.1055L296.646 79.3908C296.674 79.6534 296.807 79.8928 297.016 80.0546C297.224 80.2164 297.489 80.2862 297.75 80.2479L306.409 78.9824L301.958 86.2392C301.722 86.6234 301.783 87.12 302.105 87.4364L308.266 93.4965L300.347 95.8007C299.942 95.9185 299.66 96.2847 299.65 96.7067ZM310.804 93.2741L304.013 86.5948L309.144 78.231C309.34 77.9102 309.333 77.5052 309.127 77.1907C308.919 76.8763 308.548 76.7106 308.177 76.7654L298.468 78.1849L297.493 68.9596C297.455 68.5934 297.212 68.2809 296.866 68.153C296.52 68.0241 296.133 68.1035 295.865 68.3555L288.414 75.3656L281.498 67.4592C281.239 67.1631 280.827 67.0531 280.453 67.1815C280.081 67.3094 279.823 67.651 279.801 68.0444L279.263 77.8593C270.569 75.9853 270.267 76.1825 269.878 76.4369C269.139 76.9354 268.878 77.1123 272.585 86.1302L265.322 90.8661C265.018 91.0643 264.85 91.417 264.887 91.7784C264.926 92.1399 265.162 92.4499 265.501 92.5812L274.316 95.9989L272.129 104.304C272.035 104.659 272.15 105.036 272.425 105.278C272.7 105.52 273.088 105.587 273.429 105.449L281.982 101.987L284.783 110.277C284.9 110.622 285.199 110.872 285.559 110.926C285.607 110.933 285.654 110.936 285.701 110.936C286.011 110.936 286.306 110.788 286.489 110.531L292.549 102.049L299.82 107.151C300.113 107.356 300.494 107.384 300.813 107.223C301.131 107.062 301.336 106.739 301.345 106.382L301.569 97.4635L310.395 94.8952C310.725 94.7988 310.98 94.5352 311.064 94.2014C311.148 93.8681 311.049 93.5149 310.804 93.2741Z" fill="#700051"/>
<path d="M250.062 308.284C250.068 308.284 250.074 308.286 250.08 308.286C250.102 308.286 250.125 308.285 250.148 308.284L254.372 307.988C251.709 314.13 249.048 313.985 248.513 313.884C249.133 312.039 249.651 310.164 250.062 308.284ZM242.033 304.371C240.612 306.14 238.623 306.911 237.977 306.57C237.728 306.437 237.632 305.802 237.978 304.682C238.809 301.996 243.955 298.708 247.492 296.785C245.756 299.275 243.113 303.027 242.033 304.371ZM233.946 297.036C232.466 297.238 230.097 296.577 229.539 295.544C229.267 295.04 229.483 294.377 230.182 293.572C230.86 292.792 232.596 292.459 234.927 292.459C238.289 292.459 242.89 293.153 247.342 294.205C243.35 295.106 235.832 296.78 233.946 297.036ZM244.172 283.707C244.189 283.666 244.209 283.628 244.221 283.585C244.406 282.873 246.639 280.214 249.767 280.702C252.696 281.156 257.079 286.221 258.683 288.34C258.735 288.643 258.831 289.524 258.663 291.278C253.429 291.881 250.984 292.264 249.802 292.533C248.202 287.579 245.438 284.781 244.172 283.707ZM166.848 224.972C160.452 224.918 155.565 224.881 152.773 224.865C153.077 224.619 153.379 224.341 153.674 224.02C157.832 219.49 158.574 209.596 155.879 194.612C154.682 187.959 153.033 181.816 150.97 176.309C153.354 177.52 156.572 178.756 156.622 178.775C160.979 180.439 168.165 182.722 177.85 184.273C178.375 187.196 182.191 209.917 176.754 224.582C176.696 224.738 176.686 224.899 176.708 225.052C175.018 225.039 173.376 225.026 171.798 225.012L166.848 224.972ZM135.205 329.833C131.862 328.2 125.256 327.825 108.525 326.876C105.415 326.7 101.966 326.504 98.1378 326.277C96.0942 326.155 94.0836 325.883 92.1281 325.469C97.5879 324.2 108.638 321.526 115.538 319.134C124.599 316 133.868 314.635 136.897 315.297L136.725 316.993C136.253 321.68 135.803 326.12 135.205 329.833ZM91.2924 293.117C91.3021 292.834 91.8311 292.47 92.9896 292.291C93.1625 292.265 93.3442 292.252 93.5346 292.252C96.3181 292.252 100.901 294.988 104.257 297.394C99.5618 296.651 96.3263 296.092 95.0433 295.801C92.8302 295.298 91.2667 293.849 91.2924 293.117ZM97.5143 280.703C97.7245 280.41 98.0753 280.264 98.5627 280.264C98.8515 280.264 99.1887 280.316 99.5729 280.419C102.017 281.074 104.822 288.579 106.512 296.13C101.847 290.3 98.8742 286.481 98.101 285.321C97.2725 284.079 96.8306 281.655 97.5143 280.703ZM114.562 288.684C114.605 288.681 114.647 288.683 114.691 288.674C115.413 288.528 118.779 289.373 119.711 292.398C120.522 295.041 118.275 300.675 116.739 303.761C116.488 303.94 115.74 304.41 114.095 305.026C111.267 300.587 109.852 298.556 109.092 297.609C112.843 294.007 114.148 290.295 114.562 288.684ZM278.489 181.04C281.681 201.18 280.456 215.766 275.037 222.111C272.971 224.53 270.263 225.757 266.99 225.757C265.291 225.757 262.299 225.745 258.356 225.719C258.361 225.701 258.369 225.684 258.373 225.665C260.138 217.436 261.194 209.401 261.534 201.749C262.542 202.104 263.133 202.495 263.459 202.712C263.729 202.891 264.292 203.265 264.87 202.846C265.084 202.689 265.415 202.323 265.223 201.635C265.19 201.495 265.051 200.669 264.89 199.712C264.123 195.146 262.325 184.454 260.084 175.663C259.821 174.632 259.588 173.76 259.367 172.98C267.971 168.275 272.492 163.854 273.704 162.576C275.755 167.774 277.367 173.969 278.489 181.04ZM224.678 225.457H224.653C214.755 225.375 204.248 225.287 194.341 225.203L189.989 225.166C195.642 209.427 192.511 190.715 191.517 185.758C194.555 185.939 197.639 186.035 200.761 186.035C205.297 186.035 209.909 185.844 214.554 185.463C220.374 184.985 226.023 184.166 231.374 183.035C231.548 191.887 229.773 214.801 229.754 215.042C229.731 215.343 229.849 215.638 230.074 215.839C230.271 216.016 233.968 219.256 239.321 219.256C240.858 219.255 242.533 218.988 244.3 218.304C245.087 218 245.826 217.646 246.511 217.245C246.139 220.016 245.672 222.824 245.111 225.624C240.733 225.59 235.944 225.551 230.909 225.509L224.678 225.457ZM290.209 283.137C287.279 285.429 284.051 291.207 275.87 305.851C274.352 308.569 272.668 311.583 270.791 314.924C269.791 316.704 268.668 318.391 267.439 319.971C268.68 314.522 271.117 303.368 271.983 296.149C273.129 286.628 275.957 277.694 277.877 275.263L279.223 276.094C283.271 278.591 287.108 280.961 290.209 283.137ZM250.983 301.154C251.884 300.989 254.365 300.796 256.763 300.67C256.445 301.838 256.11 303.021 255.743 304.218C255.55 304.847 255.354 305.438 255.157 305.991L250.455 306.32C250.768 304.543 250.943 302.812 250.983 301.154ZM95.0743 304.807L97.1882 308.478C90.5065 308.768 89.4649 306.315 89.3195 305.786C91.2459 305.538 93.163 305.183 95.039 304.728C95.0511 304.754 95.0593 304.781 95.0743 304.807ZM101.849 302.438C102.391 303.176 103.652 305.325 104.818 307.428C103.678 307.645 102.46 307.857 101.176 308.061C100.528 308.162 99.9111 308.245 99.3277 308.309L96.975 304.224C98.7081 303.729 100.34 303.129 101.849 302.438ZM138.9 300.02C131.821 298.319 123.473 300.95 119.464 302.506C120.786 299.477 122.459 294.747 121.564 291.828C120.585 288.654 117.667 287.152 115.679 286.807C116.372 283.483 118.531 273.234 120.9 263.177L147.2 271.613C143.291 283.509 139.999 294.787 138.9 300.02ZM122.974 158.679C123.278 160.513 124.195 161.968 125.707 162.935C126.319 163.326 126.982 163.524 127.663 163.524C127.981 163.524 128.302 163.481 128.623 163.395C130.779 162.816 133.034 160.28 135.502 155.662C137.115 156.917 143.134 162.21 148.254 174.691C150.702 180.655 152.625 187.473 153.972 194.955C157.188 212.838 154.809 219.918 152.246 222.71C150.535 224.574 148.58 224.639 147.778 224.573C143.343 223.676 139.231 220.691 135.548 215.707C135.505 215.405 135.318 215.132 135.028 214.984C130.944 209.188 127.449 200.919 124.641 190.381C120.207 173.755 121.09 164.115 122.974 158.679ZM127.439 149.745C131.307 152.518 133.952 154.416 133.952 154.415C133.954 154.417 133.962 154.422 133.964 154.424C131.178 159.727 129.251 161.219 128.12 161.523C127.628 161.655 127.193 161.585 126.751 161.303C124.143 159.634 124.718 156.096 125.309 154.098C125.329 154.047 125.345 153.996 125.356 153.943C125.573 153.244 125.784 152.749 125.837 152.63C125.947 152.43 126.524 151.388 127.439 149.745ZM157.348 140.545C155.848 142.418 155.197 144.477 155.52 146.386C155.52 146.398 155.517 146.409 155.517 146.421C155.517 146.504 155.529 146.592 155.551 146.676C155.68 147.243 156.574 150.941 158.313 153.326C157.94 153.708 157.124 154.683 156.576 156.312L146.966 142.293C148.469 142.056 151.438 141.563 157.348 140.545ZM148.477 112.415L148.912 111.665C149.126 111.295 149.331 110.941 149.534 110.59C150.959 113.294 153.354 116 155.446 117.92C155.032 118.609 153.253 121.568 150.927 125.447C148.764 129.04 146.139 133.414 143.685 137.508L138.517 129.968C142.876 122.223 146.047 116.636 148.477 112.415ZM221.442 86.3351L222.149 87.355C222.892 88.9844 223.553 90.6084 224.15 92.1069C219.196 92.9194 201.826 100.445 199.479 101.468L196.845 95.0406C196.641 94.5454 196.077 94.3095 195.58 94.512C195.085 94.715 194.849 95.2809 195.052 95.776L196.667 99.7169C196.764 104.179 196.55 113.695 193.114 115.749C189.899 114.349 187.181 112.988 186.143 112.024C184.006 110.038 183.179 107.861 181.928 104.566C181.339 103.017 180.673 101.262 179.747 99.2189C177.392 94.0178 174.944 91.4369 173.98 90.5512L180.445 81.8245C180.535 81.6951 189.612 68.9335 203.27 70.9795C203.619 71.0304 203.964 71.09 204.31 71.1607C213.552 72.9529 218.281 79.5125 221.296 85.5643C221.237 85.8216 221.279 86.1016 221.442 86.3351ZM245.334 134.07L238.8 125.699C238.737 125.618 238.662 125.554 238.581 125.499C236.911 116.802 232.483 106.65 229.222 99.182C228.523 97.5813 227.892 96.1365 227.35 94.8482L248.873 125.859C248.937 125.951 249.018 126.024 249.104 126.086L245.334 134.07ZM238.563 137.924C239.028 136.052 239.267 134.02 239.267 131.862C239.267 131.048 239.222 130.183 239.137 129.28L244.389 136.009C244.395 136.017 244.403 136.022 244.409 136.029L243.303 138.37L238.563 137.924ZM233.84 146.347C235.683 144.59 237.073 142.399 237.99 139.816L242.424 140.233L236.606 152.553C236.346 150.628 235.574 148.471 233.84 146.347ZM272.927 160.688C272.797 160.744 272.676 160.825 272.576 160.94C272.533 160.99 268.244 165.849 258.807 171.077C257.77 167.674 256.789 165.322 255.819 163.913C255.05 162.798 254.094 161.861 252.972 161.108C257.48 157.904 261.85 154.2 265.987 150.063C267.203 151.136 270.079 154.164 272.927 160.688ZM256.492 225.707L253.592 225.686C251.574 225.672 249.389 225.657 247.081 225.639C247.741 222.295 248.274 218.942 248.667 215.657C252.289 212.35 252.264 208.292 252.26 208.098L252.076 203.442C252.624 202.959 255.161 200.867 257.844 201.045C258.476 201.089 259.067 201.162 259.616 201.259C259.302 208.923 258.251 216.99 256.478 225.259C256.445 225.413 256.455 225.564 256.492 225.707ZM151.95 127.505C153.373 129.97 157.165 136.109 160.5 137.729C160.231 137.906 159.971 138.09 159.72 138.279C159.581 138.237 159.432 138.221 159.279 138.245L159.013 138.29C159.01 138.29 159.007 138.291 159.004 138.292C159.001 138.292 158.998 138.292 158.995 138.292L158.811 138.326H158.81C152.106 139.485 147.228 140.305 145.752 140.523L144.891 139.266C147.239 135.349 149.78 131.114 151.95 127.505ZM168.533 94.4979L162.408 90.1714L180.133 75.4422L168.533 94.4979ZM234.211 157.625L233.99 158.098C233.938 158.208 233.912 158.323 233.904 158.437C233.797 158.681 233.722 158.82 233.722 158.821C233.679 158.896 233.652 158.975 233.632 159.055C232.427 159.137 231.188 159.299 229.934 159.544C225.388 160.432 220.815 163.296 216.342 168.058C213.38 171.211 211.498 174.117 211.088 174.77C207.029 175.15 202.891 175.248 198.693 175.066C198.685 175.035 198.681 175.004 198.67 174.972C198.635 174.872 195.131 164.855 191.201 154.501C190.988 153.935 190.757 153.389 190.52 152.857C190.548 152.713 190.547 152.56 190.503 152.408C190.483 152.337 188.498 145.223 191.962 140.412C193.475 138.309 195.85 136.926 199.022 136.301C202.764 135.566 205.843 136.069 208.173 137.794C212.069 140.679 212.667 146.101 212.673 146.153C212.707 146.501 212.926 146.802 213.245 146.943C213.564 147.084 213.935 147.043 214.215 146.835C214.24 146.817 216.753 144.971 220.109 143.998C224.451 142.739 228.122 143.469 231.018 146.165C231.294 146.423 231.543 146.671 231.779 146.926C235.634 151.073 234.971 155.384 234.211 157.625ZM158.441 149.701C158.652 149.21 159.223 148.983 159.714 149.195C160.13 149.372 169.641 153.296 176.115 145.073C176.445 144.652 177.054 144.579 177.475 144.911C177.896 145.242 177.968 145.851 177.637 146.272C173.924 150.989 169.268 152.172 165.532 152.172C161.811 152.172 159.004 150.999 158.948 150.975C158.456 150.763 158.229 150.193 158.441 149.701ZM156.937 119.202C158.217 120.227 159.414 120.995 160.43 121.442C161.061 121.717 162.86 122.883 164.806 124.173L163.784 130.313C162.475 130.822 161.548 131.842 161.354 132.964C161.088 133.218 160.981 133.612 161.107 133.98L161.861 136.165C160.48 135.925 157.052 132.707 153.243 125.858C153.197 125.774 153.136 125.703 153.071 125.639C154.931 122.538 156.373 120.141 156.937 119.202ZM179.824 139.557C179.784 139.471 179.742 139.386 179.698 139.303C179.588 139.096 178.97 138.113 178.753 138.132C179.935 138.025 181.784 137.928 183.045 137.862L184.375 137.791C184.943 137.759 185.366 137.73 185.678 137.703C187.001 138.508 188.387 139.335 189.813 140.171C188.193 142.934 187.885 146.086 187.992 148.57C185.252 145.145 182.502 144.981 181.269 145.126C181.072 143.795 180.789 142.474 180.391 141.189C180.225 140.654 180.061 140.076 179.824 139.557ZM164.77 132.023C164.816 132.01 164.858 132.001 164.915 131.988C165.128 131.941 165.33 131.92 165.517 131.92C166.011 131.92 166.403 132.066 166.612 132.251C166.627 132.264 166.642 132.277 166.657 132.289C166.729 132.364 166.775 132.439 166.795 132.509C166.816 132.589 166.819 132.657 166.802 132.745C166.723 133.175 166.181 133.74 165.297 133.985C164.289 134.264 163.392 133.954 163.259 133.483L163.251 133.433C163.191 132.972 163.784 132.296 164.77 132.023ZM163.843 135.97C164.066 136.006 164.293 136.031 164.53 136.031C164.944 136.031 165.378 135.974 165.815 135.853C166.42 135.684 166.959 135.411 167.41 135.067L167.731 136.099C167.734 136.108 167.737 136.118 167.74 136.127L169.485 141.728L166.229 142.892L163.843 135.97ZM166.646 132.278C166.647 132.278 166.647 132.279 166.647 132.279C166.647 132.279 166.647 132.279 166.646 132.278ZM176.959 136.483C175.019 135.201 172.317 134.601 169.354 134.793L168.743 132.833C168.765 132.558 168.74 132.281 168.665 132.002C168.576 131.677 168.415 131.378 168.194 131.108C168.098 130.897 167.935 130.723 167.723 130.625C167.689 130.609 167.653 130.601 167.618 130.589C167.111 130.238 166.483 130.034 165.802 129.991L166.575 125.348C167.044 125.66 167.533 125.985 168.04 126.324C171.999 128.964 177.228 132.449 182.812 135.933C178.593 136.156 177.467 136.267 176.959 136.483ZM150.236 106.741C149.915 103.558 154.195 95.6476 157.998 92.3942C158.99 91.5454 159.859 91.0992 160.431 91.1476L168.262 96.6791C168.271 96.6854 168.281 96.6893 168.29 96.6951C168.3 96.7014 168.307 96.7096 168.317 96.7155C168.329 96.7232 168.343 96.7256 168.355 96.7324C168.411 96.7629 168.468 96.7876 168.527 96.8065C168.545 96.8124 168.564 96.8201 168.583 96.825C168.657 96.8438 168.732 96.8545 168.808 96.8555C168.812 96.8555 168.816 96.8569 168.82 96.8569C168.833 96.8569 168.846 96.8526 168.859 96.8521C168.916 96.8501 168.973 96.8429 169.028 96.8308C169.051 96.8259 169.072 96.8201 169.094 96.8138C169.148 96.7978 169.201 96.7765 169.252 96.7513C169.268 96.7436 169.284 96.7373 169.3 96.7285C169.364 96.6922 169.424 96.6491 169.479 96.5972C169.491 96.5861 169.501 96.5725 169.512 96.5609C169.542 96.5299 169.573 96.5003 169.6 96.4645L172.818 92.1205C173.719 92.9907 175.882 95.3831 177.982 100.018C178.882 102.007 179.537 103.732 180.115 105.254C181.416 108.676 182.355 111.15 184.824 113.444C188.3 116.67 205.835 122.776 206.58 123.034C206.684 123.07 206.791 123.088 206.897 123.088C207.159 123.088 207.415 122.981 207.601 122.785C207.863 122.508 207.939 122.104 207.794 121.751L200.214 103.261C208.788 99.5217 222.413 93.9693 224.882 93.9693H224.892C225.56 95.6394 226.434 97.6408 227.445 99.9577C230.753 107.53 235.282 117.901 236.806 126.518C237.153 128.472 237.329 130.27 237.329 131.862C237.329 134.227 237.026 136.421 236.43 138.383C235.631 141.013 234.317 143.208 232.524 144.926C232.462 144.866 232.404 144.808 232.34 144.747C225.823 138.68 217.481 142.596 214.334 144.457C213.857 142.387 212.582 138.655 209.34 136.246C206.552 134.175 202.955 133.555 198.648 134.4C195.33 135.053 192.748 136.465 190.944 138.588C189.588 137.793 188.269 137.007 187.004 136.24C186.828 136.098 186.714 136.041 186.132 135.707C179.725 131.784 173.602 127.703 169.116 124.712C168.195 124.098 167.337 123.526 166.549 123.003C166.467 122.924 166.371 122.861 166.264 122.814C163.22 120.792 161.886 119.963 161.207 119.667C160.227 119.236 158.953 118.379 157.619 117.255C154.349 114.492 151.6 110.976 150.617 108.296C150.413 107.739 150.284 107.215 150.236 106.741ZM158.886 164.885C158.578 164.147 158.436 163.228 158.307 162.656C158.011 161.342 157.878 159.98 158.035 158.639C158.301 156.314 159.316 155.078 159.657 154.722C161.138 155.822 163.507 156.544 166.323 156.544C168.465 156.544 170.865 156.126 173.329 155.14C178.385 153.115 181.251 150.248 181.397 147.06C182.232 146.923 185.543 146.838 188.536 153.168C188.837 153.805 189.124 154.482 189.388 155.185C192.733 163.998 195.766 172.558 196.608 174.95C196.55 174.785 193.897 174.737 193.591 174.708C192.54 174.608 191.491 174.491 190.444 174.358C188.329 174.09 186.223 173.757 184.128 173.361C179.818 172.547 175.559 171.468 171.371 170.168C169.152 169.479 166.953 168.728 164.774 167.921C163.638 167.501 162.507 167.065 161.383 166.615C160.827 166.392 160.197 166.212 159.676 165.919C159.327 165.723 159.075 165.338 158.886 164.885ZM149.8 173.369C147.12 166.983 144.24 162.467 141.816 159.392C145.742 161.66 150.991 164.427 157.24 167.094C170.959 172.944 184.562 176.263 197.67 176.962C199.371 177.052 201.063 177.097 202.744 177.097C211.092 177.097 219.181 175.985 226.858 173.784C230.141 174.125 231.046 178.296 231.281 181.073C225.919 182.222 220.245 183.051 214.396 183.531C206.281 184.197 198.279 184.272 190.605 183.762C190.45 183.71 190.282 183.696 190.114 183.729C186.342 183.461 182.579 183.044 178.925 182.483C161.291 179.771 151.16 174.393 150.106 173.591C150.021 173.495 149.914 173.425 149.8 173.369ZM178.637 225.068C181.102 218.301 182.035 209.289 181.404 198.269C181.039 191.909 180.228 186.671 179.87 184.575C183.035 185.031 186.266 185.384 189.511 185.624C190.343 189.574 193.965 209.119 187.943 225.12C187.94 225.13 187.939 225.14 187.936 225.149C186.849 225.14 185.772 225.131 184.708 225.12L178.637 225.068ZM225.117 267.901L243.804 248.726C251.913 256.257 260.29 263.252 265.009 266.787C260.377 272.419 259.096 281.004 258.745 285.299C253.906 279.542 250.476 278.851 250.064 278.787C246.78 278.276 244.148 280.25 242.969 281.887C240.406 279.941 232.743 274.088 225.117 267.901ZM237.138 335.218C237.245 334.51 238.332 332.893 239.59 331.02C241.892 327.592 245.318 322.483 247.865 315.718C248.062 315.777 248.409 315.857 248.873 315.857C249.371 315.857 250.002 315.765 250.716 315.458C253.037 314.459 255.052 311.747 256.702 307.402C257.002 306.62 257.303 305.741 257.596 304.786C258.098 303.147 258.559 301.519 258.969 299.943C259.718 297.043 260.23 294.502 260.49 292.395C260.842 289.607 260.664 288.294 260.552 287.808C260.579 286.529 260.979 274.631 266.575 267.927C269.485 269.998 272.886 272.165 276.224 274.24C273.844 277.495 271.144 286.899 270.058 295.917C268.896 305.608 264.848 322.571 264.807 322.741C264.784 322.837 264.781 322.932 264.787 323.025C254.254 333.946 240.348 335.116 237.138 335.225C237.139 335.223 237.138 335.22 237.138 335.218ZM240.402 161.536C242.674 162.118 244.744 163.134 246.556 164.557C249.063 166.526 251.129 169.299 252.694 172.8C252.912 173.289 253.486 173.508 253.974 173.289C254.463 173.071 254.682 172.497 254.463 172.009C252.768 168.217 250.51 165.198 247.753 163.033C246.673 162.184 245.509 161.47 244.276 160.886C246.187 160.821 248.602 161.023 250.753 162.06C252.181 162.753 253.349 163.746 254.224 165.013C255.166 166.381 256.197 168.991 257.291 172.776C257.291 172.776 257.291 172.777 257.291 172.778C257.572 173.725 257.863 174.794 258.207 176.142C260.427 184.854 262.215 195.491 262.979 200.033C262.992 200.11 263.004 200.184 263.016 200.254C262.451 200.002 261.737 199.744 260.853 199.535C260.851 199.534 260.849 199.534 260.848 199.534C260.048 199.339 259.146 199.205 258.17 199.129L251.35 185.101L251.175 180.67C251.154 180.136 250.702 179.718 250.168 179.741C249.633 179.762 249.217 180.213 249.238 180.747L250.323 208.151C250.325 208.295 250.323 211.714 247.12 214.449C246.146 215.284 244.962 215.972 243.602 216.496C237.736 218.768 233.037 215.691 231.725 214.687C232.008 210.986 233.625 189.303 233.273 181.835V181.828C233.272 181.814 233.272 181.798 233.271 181.784L233.261 181.605C233.257 181.52 233.253 181.438 233.247 181.368C232.736 173.482 229.082 172.005 226.914 171.835C226.91 171.834 226.904 171.834 226.899 171.834C226.888 171.833 226.877 171.831 226.866 171.831C225.864 171.758 224.783 171.928 223.651 172.336C220.82 173.359 216.361 173.965 213.782 174.249C216.263 170.773 222.6 162.951 230.305 161.447C231.783 161.157 233.236 160.987 234.624 160.941C236.675 160.87 238.618 161.071 240.402 161.536ZM187.646 39.2508C187.561 39.7067 187.475 40.1481 187.421 40.2751C187.337 40.4291 186.899 40.8148 186.548 41.1244C186.359 41.2906 186.155 41.4722 185.944 41.666C185.573 41.3773 185.217 41.0687 184.956 40.8138C185.737 40.3938 186.807 39.7581 187.646 39.2508ZM186.772 43.5512C187.138 43.1874 187.505 42.8642 187.829 42.5784C188.495 41.9911 188.977 41.5667 189.196 41.0512C189.353 40.6903 189.454 40.1379 189.606 39.3022C189.684 38.8749 189.774 38.3821 189.886 37.8448C190.623 34.3109 191.815 31.669 193.497 29.841C193.526 33.3041 193.973 39.9175 196.769 43.2717C196.953 43.4936 197.25 43.6161 197.515 43.6205C197.803 43.6195 198.077 43.4907 198.26 43.2683C198.305 43.2145 202.812 37.9146 205.595 40.0018C206.979 41.0386 206.539 44.6636 204.723 47.1854C203.676 48.6384 201.443 50.746 198.243 48.5309C197.971 48.3429 197.621 48.3066 197.316 48.4345C197.011 48.5628 196.792 48.8385 196.737 49.1646L194.212 63.9664C194.165 64.2431 194.24 64.527 194.419 64.744C194.597 64.9611 194.861 65.0905 195.142 65.0982L203.26 65.3172C203.322 66.3385 203.442 68.0047 203.519 69.058C191.822 67.323 183.491 75.2077 180.3 78.8957L184.808 71.4887C184.813 71.4824 184.815 71.4752 184.819 71.4689C184.82 71.465 184.824 71.4626 184.826 71.4592C185.81 69.7043 190.72 60.8269 190.72 58.354C190.72 56.8623 189.401 55.8642 188.004 54.8075C186.437 53.622 184.66 52.278 184.4 50.1176C183.999 46.7935 185.457 44.8623 186.772 43.5512ZM139.758 88.3477L146.893 79.4572L147.781 79.3986C148.613 79.3429 149.379 78.9306 149.884 78.2673C150.388 77.6055 150.581 76.7595 150.414 75.9446L149.673 72.3395C149.774 72.1108 149.787 71.8443 149.689 71.5934C149.604 71.3787 149.478 71.1593 149.31 70.9204C149.304 70.9107 149.298 70.9005 149.292 70.8913C149.288 70.8855 149.285 70.8807 149.281 70.8749C148.456 69.7552 146.688 68.4994 144.642 67.0449C141.994 65.1636 138.993 63.0314 138.112 61.184C137.183 59.2329 137.757 57.0377 138.847 56.0425C139.366 55.5691 139.871 55.4727 140.35 55.7562C141.563 56.4785 142.973 57.3211 144.369 58.1927C149.483 61.3802 152.488 63.7818 153.555 65.5338C157.354 71.7857 162.007 87.463 162.053 87.6205C162.079 87.7063 162.121 87.7809 162.166 87.8531L160.525 89.2164C159.414 89.1505 158.144 89.7193 156.738 90.9214C152.786 94.3027 147.895 102.839 148.307 106.936C148.354 107.386 148.452 107.858 148.596 108.346C148.186 109.051 147.751 109.803 147.289 110.599C146.288 107.641 142.49 96.4175 139.758 88.3477ZM124.718 64.4834L125.637 69.6753C124.78 69.6612 123.095 69.4388 122.494 67.9732C122 66.7644 123.577 65.3002 124.718 64.4834ZM121.554 58.8158C122.05 58.3821 123.062 58.3744 123.646 58.4272L124.292 62.0759C123.2 61.8497 121.303 61.244 121.242 59.7591C121.219 59.1777 121.409 58.9427 121.554 58.8158ZM120.039 50.4068C120.214 50.0953 120.382 50.0231 120.51 49.995C120.982 49.8918 121.71 50.2722 121.989 50.4732C122.074 50.5352 122.166 50.5769 122.261 50.6079L123.051 55.0672C121.658 54.3066 120.472 53.0556 120.041 51.8313C119.9 51.4301 119.785 50.8574 120.039 50.4068ZM124.46 73.6166C124.311 73.0716 124.438 72.7741 124.547 72.5977C124.839 72.1258 125.501 71.823 125.991 71.6714L126.678 75.5498C125.918 75.3589 124.802 74.8705 124.46 73.6166ZM129.054 77.8521L122.9 43.1031C122.849 42.8114 122.933 42.5188 123.133 42.2998C123.332 42.0817 123.616 41.9703 123.905 41.9941L141.068 43.4185C141.485 43.4543 141.834 43.7629 141.917 44.1685L144.318 55.8826C143.272 55.2426 142.251 54.6326 141.34 54.0905C140.115 53.3637 138.694 53.5585 137.54 54.6113C135.951 56.0614 134.998 59.1496 136.362 62.0178C137.461 64.3201 140.679 66.6069 143.519 68.6244C145.259 69.8608 146.896 71.028 147.6 71.8812L148.516 76.3346C148.571 76.6045 148.51 76.8739 148.342 77.0934C148.174 77.3143 147.928 77.4461 147.652 77.465L130.042 78.6273C129.554 78.6554 129.137 78.3245 129.054 77.8521ZM106.581 299.699C106.992 299.69 107.353 299.418 107.478 299.023C107.501 299.005 107.525 298.987 107.547 298.969C107.582 298.941 107.613 298.912 107.648 298.884C108.507 300.01 110.425 302.887 112.205 305.666C110.662 306.144 108.856 306.601 106.81 307.028C105.168 304.023 104.201 302.43 103.6 301.573C104.666 300.997 105.662 300.368 106.581 299.699ZM87.3859 306.005C87.4542 306.429 87.7337 307.476 88.8684 308.454C90.4019 309.776 92.8345 310.442 96.1209 310.442C96.9397 310.442 97.8118 310.4 98.7362 310.317C99.5729 310.244 100.494 310.129 101.478 309.975C103.264 309.691 104.931 309.392 106.429 309.086C109.376 308.496 111.89 307.846 113.895 307.154C116.565 306.248 117.663 305.512 118.043 305.203C119.33 304.606 130.056 299.823 138.549 301.927C137.956 305.462 137.498 309.463 137.095 313.364C133.123 312.649 123.487 314.334 114.904 317.303C106.096 320.356 90.3612 323.895 88.6146 324.284C88.5172 324.304 88.4653 324.316 88.4653 324.316C88.3757 324.338 88.2953 324.376 88.2192 324.42C73.7866 319.72 66.6669 307.717 65.1621 304.889C65.8452 304.678 67.7682 304.946 69.9949 305.258C74.0855 305.83 80.1814 306.678 87.3859 306.005ZM64.4532 316.665C62.7749 313.665 62.7667 309.035 63.8297 306.513C66.084 310.56 73.6092 322.052 88.4256 326.525C91.4871 327.446 94.7158 328.014 98.0225 328.212C101.853 328.439 105.304 328.635 108.415 328.811C124.44 329.72 131.755 330.135 134.603 331.703C134.688 331.749 134.776 331.778 134.865 331.797C134.634 333.011 134.396 334.04 134.14 334.915C132.271 341.353 123.201 342.964 122.265 343.114C86.4198 341.698 66.6088 320.508 64.4532 316.665ZM250.589 295.699C250.759 295.327 250.673 294.885 250.376 294.601C250.368 294.568 250.362 294.536 250.355 294.502C250.346 294.463 250.334 294.426 250.325 294.386C251.715 294.108 255.137 293.643 258.411 293.259C258.164 294.857 257.787 296.681 257.283 298.703C253.862 298.863 252.005 299.035 250.972 299.201C250.92 297.998 250.79 296.828 250.589 295.699ZM296.489 300.589C279.535 332.207 251.817 340.749 247.419 341.006C243.992 341.202 239.823 339.184 238.018 337.129C242.644 336.87 256.211 335.126 266.692 323.843C268.897 321.466 270.845 318.785 272.481 315.873C274.359 312.53 276.044 309.515 277.562 306.796C285.394 292.776 288.969 286.377 291.624 284.499C291.702 284.443 291.766 284.376 291.822 284.304C292.807 285.041 293.631 285.708 294.31 286.321C299.283 290.817 296.764 299.681 296.489 300.589ZM295.609 284.883C294.728 284.087 293.642 283.221 292.287 282.236C288.983 279.837 284.736 277.218 280.24 274.445L278.12 273.136C274.275 270.755 270.27 268.226 267.021 265.865C262.447 262.539 253.215 254.872 244.424 246.657C236.082 238.874 229.803 232.133 226.472 227.41L230.893 227.447C236.291 227.492 241.413 227.534 246.042 227.569C248.735 227.59 251.262 227.608 253.579 227.624L257.41 227.651C261.821 227.681 265.157 227.695 266.99 227.695C270.856 227.695 274.059 226.24 276.51 223.37C280.608 218.571 284.61 207.278 280.403 180.736C279.182 173.038 277.391 166.324 275.079 160.782C272.009 153.413 268.804 149.959 267.3 148.633L296.242 114.93C296.591 114.524 296.544 113.912 296.138 113.564C295.732 113.214 295.12 113.261 294.772 113.667L265.199 148.105C260.73 152.644 255.978 156.666 251.069 160.078C246.156 157.99 240.587 159.373 240.345 159.436C240.29 159.449 240.239 159.47 240.19 159.493C238.789 159.182 237.309 159.018 235.771 158.995C235.846 158.814 235.925 158.605 236.006 158.368L264.799 97.387C265.027 96.903 264.82 96.3254 264.336 96.0972C263.852 95.8686 263.275 96.0759 263.046 96.5595L250.029 124.126L223.836 86.3826C220.982 80.1917 215.991 71.8293 205.489 69.433C205.392 68.121 205.27 66.4073 205.205 65.37L221.852 65.8196C222.111 65.8274 222.368 65.7271 222.556 65.5435C222.744 65.3598 222.849 65.1074 222.847 64.8448C222.84 63.6292 222.584 34.9819 215.933 27.2242C211.152 21.6496 202.153 20.216 197.067 22.4161C194.733 23.4253 193.441 25.169 193.452 27.2523C189.761 30.1559 188.543 34.8841 188.087 36.9863L187.957 36.7896C187.957 36.7896 187.974 36.7765 188.008 36.7591C187.983 36.7722 187.957 36.7867 187.933 36.8017C186.918 37.4388 184.092 39.1486 183.439 39.4064C183.006 39.5784 182.715 39.9446 182.66 40.3865C182.622 40.6879 182.533 41.4524 184.59 43.0706C182.835 45.1961 182.142 47.5885 182.476 50.3497C182.834 53.3264 185.053 55.0047 186.835 56.3531C187.792 57.0774 188.782 57.8264 188.782 58.354C188.782 59.7784 185.561 66.1704 183.223 70.355L163.752 86.5352C162.884 83.6627 158.781 70.4015 155.21 64.526C154.054 62.6287 151.283 60.3085 146.537 57.2702C146.544 57.1806 146.543 57.0895 146.524 56.9965L143.816 43.7799C143.562 42.5391 142.5 41.5963 141.232 41.4873L124.064 40.0629C123.168 39.9902 122.306 40.3298 121.7 40.995C121.093 41.6612 120.835 42.5527 120.992 43.4403L121.843 48.247C121.332 48.0725 120.721 47.9669 120.104 48.1002C119.589 48.2116 118.866 48.5377 118.35 49.4572C117.867 50.3128 117.82 51.3555 118.213 52.4737C118.769 54.0546 120.151 55.605 121.831 56.606C121.285 56.7319 120.737 56.9582 120.284 57.3516C119.809 57.7649 119.254 58.5314 119.306 59.8371C119.389 61.9054 120.998 63.0691 122.654 63.6544C121.315 64.8327 119.871 66.6757 120.7 68.7072C121.242 70.0294 122.225 70.7562 123.218 71.153C123.102 71.2847 122.993 71.4253 122.898 71.5803C122.443 72.3177 122.336 73.199 122.591 74.1273C123.354 76.9238 126.121 77.4742 127.037 77.5808L127.145 78.1883C127.389 79.5735 128.59 80.5672 129.979 80.5672C130.042 80.5672 130.105 80.5653 130.168 80.5614L135.287 80.2232L134.996 80.3216C134.996 80.3216 145.582 111.6 145.703 111.959C145.788 112.21 145.971 112.394 146.191 112.504C143.933 116.436 141.072 121.48 137.295 128.186L122.696 106.89C122.394 106.449 121.791 106.336 121.35 106.639C120.908 106.942 120.796 107.545 121.098 107.986L156.063 158.991C155.944 160.794 156.228 162.757 156.912 164.841C146.442 160.268 138.998 155.512 136.225 153.637C136.093 153.547 135.97 153.462 135.853 153.382C135.409 153.079 135.155 152.895 135.098 152.853C135.098 152.853 132.113 150.711 127.84 147.649C116.809 139.737 99.0225 126.995 98.2541 126.482C97.8093 126.185 97.2071 126.306 96.9101 126.751C96.6131 127.196 96.7338 127.797 97.179 128.094C97.8709 128.556 114.071 140.159 125.853 148.609C124.762 150.568 124.121 151.727 124.121 151.727C124.11 151.747 124.099 151.769 124.089 151.79C124.077 151.817 123.804 152.416 123.519 153.326C119.911 158.339 116.908 168.907 122.768 190.88C125.636 201.643 129.229 210.121 133.447 216.106C132.308 219.05 127.345 232.104 123.074 246.848C121.998 250.558 120.709 255.574 119.244 261.755C116.69 272.526 114.33 283.776 113.71 286.76C113.265 286.791 112.887 287.126 112.819 287.585C112.812 287.628 112.18 291.59 108.375 295.584C107.195 290.341 104.3 279.68 100.076 278.547C97.7221 277.915 96.5278 278.755 95.9401 279.572C94.6039 281.432 95.4164 284.788 96.4886 286.396C97.2173 287.489 99.5865 290.528 101.997 293.572C98.9256 291.704 95.2662 289.979 92.695 290.376C89.8563 290.813 89.3839 292.238 89.3554 293.048C89.289 294.934 91.648 297.017 94.6141 297.69C96.1984 298.051 100.081 298.695 103.725 299.272C103.082 299.659 102.41 300.027 101.708 300.371C99.9915 301.213 98.0768 301.925 96.0249 302.485L95.8602 302.529C95.7376 302.562 95.6141 302.595 95.4697 302.63C93.0681 303.259 90.5995 303.714 88.1325 303.985C80.7488 304.804 74.4392 303.923 70.2638 303.339C67.5036 302.952 65.6805 302.697 64.5841 303.039C64.0724 303.198 63.6025 303.5 63.1916 303.931C60.6562 306.555 60.4392 313.459 62.7623 317.612C64.2599 320.282 70.2541 326.716 79.9639 332.613C88.6339 337.879 103.014 344.312 122.282 345.054C122.294 345.054 122.306 345.055 122.319 345.055C122.363 345.055 122.407 345.052 122.45 345.046C122.908 344.983 133.687 343.425 136.001 335.457C136.34 334.293 136.649 332.896 136.946 331.186C137.643 327.216 138.134 322.345 138.654 317.187L138.918 314.581C139.374 310.094 139.893 305.395 140.596 301.42C140.604 301.389 140.612 301.359 140.617 301.327C141.477 296.593 145.066 284.245 149.344 271.299C156.862 248.555 163.682 232.097 167.588 227.273C167.675 227.165 167.734 227.043 167.768 226.917L171.782 226.95C173.656 226.966 175.616 226.982 177.645 226.997L183.506 227.048C183.528 227.196 183.581 227.342 183.674 227.472C183.792 227.636 195.685 244.068 210.261 257.738C213.338 260.624 217.655 264.33 223.093 268.752C231.289 275.431 239.73 281.863 242.065 283.633C241.902 284.045 242.037 284.529 242.418 284.79C242.455 284.815 245.741 287.127 247.667 292.291C242.433 291.061 231.583 289.006 228.72 292.301C227.121 294.138 227.356 295.58 227.834 296.466C228.784 298.222 231.463 299.007 233.403 299.007C233.69 299.007 233.961 298.99 234.208 298.956C235.536 298.776 239.36 297.963 243.039 297.152C240.044 299.081 236.899 301.613 236.127 304.109C235.278 306.854 236.352 307.901 237.068 308.281C237.439 308.478 237.87 308.571 238.338 308.571C239.976 308.571 242.063 307.429 243.544 305.584C244.631 304.233 247.134 300.685 248.956 298.074C249.024 298.826 249.061 299.595 249.063 300.377C249.068 302.288 248.87 304.322 248.473 306.428C248.441 306.608 248.404 306.788 248.365 306.973C247.883 309.391 247.214 311.808 246.377 314.157C243.884 321.15 240.332 326.439 237.981 329.939C236.424 332.259 235.395 333.791 235.223 334.925C235.14 335.459 235.206 336.017 235.417 336.581C236.627 339.866 242.314 342.956 246.962 342.956C247.154 342.956 247.343 342.951 247.53 342.941C250.585 342.763 258.991 340.187 268.544 334.033C277.072 328.54 289.146 318.423 298.241 301.423C298.268 301.373 298.29 301.322 298.307 301.268C298.452 300.829 301.767 290.45 295.609 284.883Z" fill="#700051"/>
<path d="M158.948 150.975C159.003 150.999 161.812 152.172 165.531 152.172C169.267 152.172 173.923 150.989 177.637 146.272C177.968 145.851 177.895 145.242 177.475 144.911C177.054 144.579 176.445 144.652 176.114 145.073C169.641 153.296 160.13 149.372 159.714 149.195C159.222 148.983 158.652 149.21 158.441 149.701C158.229 150.193 158.456 150.763 158.948 150.975Z" fill="white"/>
</g>
<defs>
<clipPath id="clip0_23283_162553">
<rect width="375" height="375" fill="white"/>
</clipPath>
</defs>
</svg>
