<svg width="375" height="375" viewBox="0 0 375 375" fill="none" xmlns="http://www.w3.org/2000/svg">
<path d="M79.0419 128.039C74.0943 126.351 68.4997 124.434 62.9579 119.612C61.1223 120.09 59.2295 120.738 57.3086 121.546C60.8431 123.975 64.2368 127.163 67.4121 131.051C81.794 148.657 81.1057 171.382 80.6276 177.417C89.4466 170.234 94.4742 159.696 94.4742 148.252C94.4742 144.682 93.9738 141.153 92.9888 137.761C89.9027 131.745 84.8686 130.026 79.0419 128.039Z" fill="#FF4237"/>
<path d="M63.0412 117.506C63.1597 117.617 63.2786 117.724 63.3979 117.833C70.6285 116.126 76.1971 117.115 80.0599 118.638C75.1333 114.771 69.2977 112.164 63.0798 111.124C62.5047 111.354 61.0189 112.057 60.7514 113.301C60.5108 114.42 61.3026 115.874 63.0412 117.506Z" fill="#FF4237"/>
<path d="M55.6771 120.483C57.6645 119.597 59.6304 118.871 61.5456 118.317C59.6154 116.384 58.8146 114.585 59.1645 112.959C59.3637 112.032 59.9104 111.321 60.5212 110.789C59.2939 110.67 58.0594 110.602 56.828 110.602C49.9331 110.602 43.3305 112.439 37.5139 115.934C41.5082 115.508 48.1446 115.851 55.6771 120.483Z" fill="#FF4237"/>
<path d="M64.9368 119.156C69.9461 123.215 75.0354 124.956 79.5662 126.502C83.8921 127.978 87.8036 129.315 90.9234 132.266C89.5309 129.294 87.7485 126.518 85.5934 123.968C85.5309 123.934 85.47 123.895 85.4161 123.844C85.41 123.838 85.3872 123.815 85.3812 123.809C85.0768 123.488 78.2403 116.498 64.9368 119.156Z" fill="#FF4237"/>
<path d="M25.5286 128.64C30.1795 126.738 38.3658 124.308 43.8256 127.829C46.8593 125.309 50.2441 123.123 53.9101 121.319C43.171 115.159 34.7209 118.065 34.1483 118.275C34.0988 118.295 34.0476 118.311 33.9957 118.321C30.8857 120.697 28.1503 123.561 25.9174 126.766C25.7757 127.322 25.6422 127.948 25.5286 128.64Z" fill="#FF4237"/>
<path d="M42.5245 128.941C37.3492 126.032 29.3074 128.784 25.2956 130.509C24.923 134.791 25.449 140.957 28.8463 148.839C31.4961 142.206 35.7371 134.992 42.5245 128.941Z" fill="#FF4237"/>
<path d="M44.1641 130.144C44.078 130.061 43.9859 129.981 43.8938 129.9C36.6438 136.259 32.339 143.99 29.7854 150.902C30.1158 151.595 30.4656 152.298 30.841 153.014C34.2793 159.576 39.3252 166.279 45.9717 171.529C45.6332 165.607 46.5046 159.717 47.3191 154.227C48.787 144.339 50.0545 135.799 44.1641 130.144Z" fill="#FF4237"/>
<path d="M55.5513 122.326C51.7591 124.102 48.2652 126.294 45.1455 128.845C45.1934 128.889 45.2449 128.932 45.2912 128.977C51.7835 135.208 50.3947 144.562 48.9247 154.466C48.0595 160.297 47.126 166.592 47.7031 172.838C54.9292 178.05 63.9024 181.522 74.6155 181.436C76.081 180.647 77.5002 179.755 78.8675 178.765C78.8687 178.75 78.8671 178.736 78.8687 178.722C78.9056 178.455 82.3444 151.897 66.1548 132.078C62.8253 128.001 59.2591 124.728 55.5513 122.326Z" fill="#FF4237"/>
<path d="M113.37 132.347C113.584 132.286 113.803 132.194 114.024 132.073C116.706 130.595 117.937 125.306 117.675 118.302L106.575 101.158C106.737 101.631 106.893 102.121 107.043 102.635V102.635C109.15 109.863 108.02 114.298 105.815 114.944C105.644 114.994 105.433 115.033 105.187 115.033C104.799 115.033 104.324 114.938 103.785 114.642C101.699 113.499 99.489 109.804 98.1554 105.229C96.0425 98.0018 97.1744 93.5659 99.3847 92.9194C100.01 92.7376 100.727 92.8597 101.481 93.2915L93.3027 80.6605C91.8088 86.1276 92.1716 95.5732 95.4606 106.839C100.405 123.782 108.723 133.704 113.37 132.347Z" fill="#F6F5F6"/>
<path d="M151.131 82.1126C151.131 82.1126 151.132 82.1122 151.132 82.1122C151.478 82.0111 152.033 81.9669 152.711 82.3374C154.191 83.1463 155.75 85.7291 156.682 88.917C157.776 92.6722 157.811 96.7753 155.83 97.5748C155.784 97.6004 155.735 97.6211 155.683 97.6373C155.678 97.639 155.674 97.6418 155.669 97.643C155.669 97.643 155.668 97.643 155.668 97.6434H155.668L148.81 99.6442C153.49 111.268 159.872 118.776 164.089 117.546C164.283 117.49 164.481 117.41 164.681 117.305C164.701 117.292 164.72 117.28 164.74 117.269C167.464 115.769 168.694 110.347 168.383 103.187L144.058 65.6179C142.855 69.8443 142.869 76.4839 144.285 84.1101L151.131 82.1126Z" fill="#F6F5F6"/>
<path d="M336.162 105.774C327.304 103.816 320.573 104.397 316.152 107.498C312.408 110.126 310.17 114.593 309.314 121.158C308.063 130.763 306.426 148.789 306.043 153.062C307.792 153.008 311.745 153.028 316.37 153.975C318.833 154.481 321.137 155.178 323.217 156.046C324.654 156.647 326.07 157.363 327.432 158.17C327.484 158.184 327.535 158.203 327.585 158.228C327.669 158.27 327.74 158.327 327.803 158.391C331.864 160.862 334.673 163.703 336.013 165.214C337.512 163.192 342.895 156.488 348.119 153.003C354.017 149.071 356.496 145.508 355.697 142.111C355.54 141.453 355.064 140.437 354.358 139.253C351.148 133.843 343.747 125.568 340.1 125.221C338.075 125.026 336.203 125.653 334.827 126.981C333.467 128.292 332.721 130.184 332.829 132.04C333.051 135.813 338.113 142.068 338.164 142.131C338.365 142.378 338.403 142.718 338.262 143.004C338.121 143.289 337.833 143.473 337.508 143.455C337.465 143.451 334.866 143.384 331.604 144.051C329.481 144.625 327.02 145.455 324.768 146.602C320.138 148.958 316.327 142.226 314.837 136.861C313.513 132.095 313.382 127.744 313.427 125.521C313.025 120.31 314.854 115.495 314.951 115.244C315.113 114.826 315.583 114.62 316.001 114.781C316.419 114.942 316.626 115.412 316.465 115.83C316.437 115.902 313.719 123.07 315.753 128.944C317.478 133.929 328.921 137.138 333.292 137.844C332.225 135.954 331.311 133.869 331.209 132.135C331.072 129.812 332.003 127.449 333.7 125.813C335.423 124.151 337.75 123.369 340.253 123.605C344.684 124.027 352.027 132.55 355.266 137.636C357.427 134.961 358.371 128.258 358.556 125.789C358.557 125.776 358.558 125.762 358.56 125.749C359.913 114.968 347.876 108.362 336.162 105.774Z" fill="#FF4237"/>
<path d="M356.207 221.972C354.287 220.82 341.781 221.43 334.351 222.084C333.928 222.122 333.542 221.821 333.477 221.399C333.412 220.976 333.687 220.575 334.105 220.483C341.009 218.966 354.48 215.942 356.056 215.36C356.817 215.078 357.24 214.599 357.214 214.049C357.187 213.442 356.574 212.671 355.269 212.319C351.611 211.336 339.415 213.656 332.785 215.182C332.781 215.183 332.777 215.184 332.772 215.185C332.765 215.187 332.757 215.186 332.75 215.188C332.713 215.196 332.676 215.2 332.638 215.203C332.406 215.224 332.167 215.152 331.989 214.974C331.672 214.658 331.672 214.144 331.989 213.827C332.022 213.794 332.063 213.771 332.101 213.744C332.115 213.734 332.128 213.722 332.144 213.713C332.171 213.696 332.198 213.683 332.227 213.67C332.244 213.661 332.26 213.65 332.279 213.643L332.375 213.604C339.763 210.667 348.353 207.141 350.31 206.053C351.314 205.495 351.742 204.733 351.453 204.017C351.056 203.026 349.428 202.346 347.092 202.961C339.951 204.842 317.589 212.792 317.365 212.872C317.035 212.989 316.667 212.883 316.452 212.607C316.237 212.331 316.223 211.949 316.417 211.658C317.055 210.7 319.264 208.934 322.826 206.141C325.221 204.262 327.699 202.319 328.728 201.236C330.307 199.574 330.588 198.188 330.167 197.553C329.768 196.951 328.493 196.67 326.546 197.401C325.738 197.703 324.637 198.08 323.243 198.556C316.9 200.726 305.092 204.765 298.092 209.897C292.299 214.144 285.574 237.335 280.664 254.269C278.374 262.166 276.396 268.987 274.735 273.415C273.406 276.96 271.881 278.759 270.074 278.913C269.99 278.92 269.906 278.923 269.824 278.923C267.216 278.923 265.175 275.433 263.811 273.1C263.663 272.847 263.525 272.611 263.398 272.401C261.514 269.276 259.941 266.403 258.554 263.869C256.805 260.676 255.285 257.904 253.594 255.408L245.551 262.567C243.713 264.8 239.147 270.933 238.3 277.712C237.437 284.616 239.649 290.772 240.283 292.355C249.814 308.18 261.982 320.67 274.164 319.163C274.174 319.162 274.184 319.16 274.194 319.159C280.711 315.538 280.475 310.816 291.602 291.131C296.679 282.149 303.694 271.774 307.645 264.011C310.14 259.108 312.344 253.67 313.874 249.616C313.897 249.526 313.922 249.432 313.944 249.344C314.802 246.046 315.226 244.436 315.495 243.853C316.746 241.148 328.914 238.511 334.109 237.385C342.671 235.53 351.245 234.098 352.194 233.94C353.323 233.752 354.651 233.21 355.072 232.428C355.278 232.045 355.262 231.599 355.023 231.061C354.948 230.954 353.943 229.875 344.525 229.563C339.557 229.399 334.733 229.533 334.685 229.534C334.254 229.558 333.896 229.227 333.854 228.803C333.811 228.38 334.104 227.995 334.524 227.923C335.273 227.794 352.904 224.767 355.184 224.48C356.327 224.339 357.143 223.733 357.245 223.252C357.324 222.882 356.945 222.415 356.207 221.972Z" fill="#FFB1A8"/>
<path d="M239.293 290.683L236.862 286.331C237.649 287.8 238.46 289.253 239.293 290.683Z" fill="#FFB1A8"/>
<path d="M264.861 132.852C262.589 130.173 259.655 129.724 258.879 130.381C258.854 130.402 258.828 130.422 258.801 130.44L230.15 149.328C231.782 150.015 233.565 151.534 234.939 153.158C236.233 154.683 237.222 156.328 237.724 157.789C237.887 158.265 237.984 158.683 238.035 159.057L266.053 139.293C266.38 138.992 266.686 138.138 266.603 136.939C266.504 135.511 265.885 134.06 264.861 132.852Z" fill="#D8375D"/>
<path d="M200.617 85.1227C203.259 85.6543 205.482 86.6559 206.703 87.8268L216.407 54.9437C216.565 53.936 214.905 51.3199 211.474 50.6308C208.034 49.9388 205.452 51.408 205.25 52.4068C205.243 52.438 205.235 52.4693 205.225 52.4997L194.483 85.0955C196.191 84.6186 198.532 84.7038 200.617 85.1227Z" fill="#D8375D"/>
<path d="M195.035 193.894C195.035 193.795 195.039 193.676 195.043 193.557C195.046 193.46 195.07 193.369 195.104 193.284C195.455 190.525 197.57 188.239 199.803 185.829C202.303 183.13 204.888 180.339 204.687 176.92C204.292 170.195 202.428 166.811 202.408 166.777C202.286 166.559 202.27 166.296 202.365 166.065C202.644 165.398 203.399 163.46 203.556 162.518C203.604 162.232 203.567 162.04 203.511 161.914C198.958 163.2 195.837 160.74 192.538 158.141C190.644 156.649 188.683 155.115 186.268 154.058C185.686 154.285 177.708 157.502 176.793 162.992C175.887 168.423 179.642 172.586 180.051 173.021C180.053 173.022 180.056 173.024 180.057 173.025C180.389 173.326 180.413 173.84 180.112 174.172C179.844 174.466 179.409 174.519 179.082 174.315C178.428 173.966 169.533 169.343 166.752 174.039C165.433 176.265 165.469 178.769 166.852 180.911C168.094 182.837 170.152 183.998 171.971 183.793C177.036 183.227 179.121 179.411 179.207 179.249C179.374 178.936 179.725 178.767 180.075 178.832C180.424 178.898 180.69 179.182 180.731 179.535C180.744 179.647 181.044 182.31 180.57 185.447C179.958 189.492 178.318 192.461 175.816 194.076C175.931 202.88 172.542 208.261 165.19 210.943C165.641 213.03 167.19 219.489 170.264 225.666C174.975 235.13 180.934 239.651 187.958 239.087C187.982 239.085 188.007 239.085 188.031 239.085C188.142 239.084 199.796 238.729 208.055 211.774C201.655 210.104 194.722 206.397 195.035 193.894Z" fill="#FFB1A8"/>
<path d="M157.845 66.0196C161.471 71.016 164.731 78.0959 167.023 85.9555C168.85 92.2152 169.843 98.2177 170.032 103.363C171.372 102.515 176.925 101.031 179.85 100.285C179.688 95.4218 178.766 89.5513 176.877 83.0781C174.635 75.393 171.463 68.49 167.943 63.641C164.636 59.0838 161.367 56.8731 158.971 57.5708L151.217 59.8346C153.337 60.8338 155.595 62.9198 157.845 66.0196Z" fill="#F6F5F6"/>
<path d="M107.645 272.401C107.518 272.611 107.38 272.847 107.232 273.101C105.867 275.434 103.827 278.923 101.219 278.923C101.136 278.923 101.053 278.92 100.969 278.913C99.1621 278.759 97.6373 276.96 96.3078 273.415C94.6471 268.987 92.6694 262.167 90.3796 254.269C85.4689 237.336 78.7441 214.144 72.9515 209.897C65.9474 204.765 54.141 200.726 47.7981 198.556C46.4052 198.08 45.305 197.703 44.4982 197.401C42.5493 196.669 41.2749 196.95 40.876 197.553C40.4547 198.189 40.7364 199.574 42.3151 201.236C43.3439 202.319 45.8216 204.262 48.2173 206.141C51.779 208.934 53.9876 210.7 54.626 211.658C54.82 211.949 54.8058 212.331 54.5907 212.607C54.3756 212.883 54.0083 212.991 53.6787 212.872C53.4535 212.792 31.0915 204.842 23.9511 202.961C21.613 202.347 19.988 203.027 19.5895 204.017C19.3013 204.734 19.7291 205.495 20.7336 206.054C22.6897 207.141 31.2806 210.667 38.6678 213.604L38.764 213.643C38.7762 213.647 38.7863 213.655 38.7981 213.66C38.8318 213.675 38.863 213.691 38.8947 213.71C38.915 213.723 38.9328 213.738 38.9519 213.752C38.986 213.777 39.0237 213.796 39.0538 213.827C39.3707 214.144 39.3707 214.658 39.0538 214.975C38.8756 215.153 38.6353 215.225 38.402 215.202C38.3667 215.2 38.3313 215.197 38.296 215.189C38.2891 215.187 38.2818 215.188 38.2749 215.186C31.6183 213.655 19.4308 211.338 15.7725 212.32C14.4685 212.671 13.8565 213.442 13.8285 214.049C13.8034 214.6 14.2258 215.078 14.988 215.361C16.1256 215.779 24.1759 217.661 36.5209 220.392L36.8902 220.474C36.9137 220.478 36.9361 220.486 36.9592 220.491C36.9633 220.492 36.9677 220.493 36.9718 220.494C37.3184 220.587 37.5749 220.9 37.5749 221.276C37.5749 221.724 37.2116 222.087 36.7632 222.087C36.7299 222.087 36.6901 222.084 36.6508 222.079L36.6138 222.076C27.3435 221.296 16.5741 220.931 14.8346 221.972C14.0976 222.415 13.7193 222.882 13.7981 223.253C13.8995 223.733 14.7141 224.339 15.8529 224.48C18.139 224.767 35.7697 227.794 36.5193 227.923C36.9389 227.995 37.2315 228.38 37.1893 228.803C37.1471 229.227 36.7818 229.553 36.3585 229.534C36.3103 229.533 31.4791 229.398 26.5111 229.563C17.0996 229.876 16.0956 230.954 16.012 231.076C15.7802 231.599 15.7636 232.045 15.9681 232.427C16.389 233.21 17.7181 233.752 18.8496 233.941C19.7973 234.098 28.3695 235.529 36.9336 237.386C42.1292 238.511 54.2968 241.148 55.5481 243.853C55.8163 244.435 56.2396 246.044 57.0956 249.336C57.5237 250.983 58.0282 252.924 58.6085 255.085C59.8074 257.98 61.1909 261.091 62.6771 264.011C66.628 271.774 73.643 282.149 78.7197 291.131C89.6783 310.519 89.6175 315.391 95.8391 318.993C96.186 319.061 96.533 319.12 96.8804 319.164C108.889 320.652 120.889 308.524 130.358 293.018C131.389 290.978 134.036 284.979 133.224 278.477C132.351 271.495 127.333 264.94 125.54 262.791L117.423 255.492C116.188 257.546 114.922 259.781 113.586 262.146C111.889 265.149 109.966 268.552 107.645 272.401Z" fill="#FFB1A8"/>
<path d="M116.305 100.756C118.194 107.228 119.19 113.425 119.329 118.685C121.512 117.74 126.806 116.363 129.149 115.775C129.074 112.488 128.652 108.759 127.855 104.779C127.406 102.525 126.835 100.205 126.159 97.8821C125.473 95.5334 124.693 93.2368 123.84 91.0562C119.128 78.9705 112.567 71.1191 108.249 72.3752L100.54 74.6235C106.531 77.4713 112.837 88.8772 116.305 100.756Z" fill="#F6F5F6"/>
<path d="M33.9958 118.321C34.0477 118.311 34.0989 118.295 34.1484 118.275C34.721 118.065 43.1711 115.159 53.9101 121.319C50.2441 123.124 46.8594 125.309 43.8257 127.829C38.3659 124.308 30.1796 126.738 25.5286 128.64C25.6423 127.948 25.7758 127.322 25.9174 126.766C28.1504 123.561 30.8858 120.697 33.9958 118.321ZM56.8282 110.602C58.0595 110.602 59.2941 110.67 60.5213 110.79C59.9105 111.322 59.3639 112.032 59.1646 112.96C58.8148 114.585 59.6155 116.385 61.5457 118.317C59.6305 118.871 57.6646 119.597 55.6772 120.484C48.1447 115.851 41.5083 115.508 37.514 115.934C43.3306 112.44 49.9333 110.602 56.8282 110.602ZM60.7514 113.301C61.0189 112.057 62.5047 111.354 63.0798 111.124C69.2981 112.164 75.1333 114.771 80.0603 118.638C76.1971 117.115 70.6285 116.126 63.398 117.833C63.279 117.724 63.1601 117.616 63.0412 117.506C61.3026 115.874 60.5108 114.42 60.7514 113.301ZM85.3813 123.809C85.3874 123.815 85.4101 123.838 85.4162 123.844C85.4702 123.895 85.5307 123.934 85.5936 123.968C87.7486 126.518 89.5311 129.294 90.9235 132.266C87.8038 129.315 83.8919 127.978 79.5664 126.502C75.0355 124.956 69.9463 123.215 64.9369 119.156C78.2405 116.498 85.0769 123.488 85.3813 123.809ZM94.4747 148.252C94.4747 159.696 89.4467 170.234 80.6277 177.417C81.1057 171.382 81.7941 148.657 67.4122 131.051C64.2372 127.163 60.8432 123.975 57.3087 121.546C59.2295 120.738 61.1228 120.09 62.958 119.612C68.4998 124.434 74.0948 126.35 79.042 128.039C84.8687 130.026 89.9028 131.745 92.9889 137.761C93.9738 141.153 94.4747 144.682 94.4747 148.252ZM78.8691 178.722C78.8671 178.736 78.8687 178.75 78.8675 178.765C77.5002 179.755 76.081 180.647 74.6159 181.437C63.9028 181.522 54.9292 178.05 47.7032 172.839C47.126 166.592 48.0595 160.297 48.9251 154.466C50.3951 144.562 51.7835 135.208 45.2916 128.977C45.2454 128.932 45.1938 128.889 45.1459 128.845C48.2652 126.294 51.7592 124.102 55.5514 122.326C59.2592 124.728 62.8257 128.001 66.1553 132.078C82.3448 151.897 78.9057 178.455 78.8691 178.722ZM45.9714 171.529C39.3253 166.28 34.279 159.576 30.8411 153.014C30.4657 152.298 30.1159 151.595 29.7851 150.903C32.3391 143.99 36.6439 136.259 43.8939 129.9C43.986 129.981 44.0782 130.061 44.1642 130.144C50.0546 135.799 48.7872 144.339 47.3192 154.227C46.5043 159.717 45.6329 165.607 45.9714 171.529ZM25.2957 130.51C29.3075 128.784 37.3493 126.032 42.5246 128.941C35.7372 134.993 31.4962 142.206 28.8464 148.839C25.4491 140.957 24.9231 134.792 25.2957 130.51ZM50.5258 187.016C52.6005 187.352 54.721 187.522 56.8282 187.522C65.3813 187.522 73.5096 184.82 80.3338 179.71C90.3521 172.217 96.098 160.751 96.098 148.252C96.098 144.617 95.5972 141.025 94.6179 137.565C94.6159 137.447 94.5911 137.328 94.5351 137.215L94.5027 137.153C92.9296 131.798 90.2803 126.925 86.6244 122.671C80.5838 115.637 72.2417 110.954 63.1346 109.484C61.0591 109.149 58.9373 108.979 56.8282 108.979C48.2677 108.979 40.1338 111.684 33.3062 116.803C28.5262 120.382 24.5765 125.069 21.8683 130.364C21.6857 130.512 21.5822 130.729 21.5721 130.956C18.9114 136.356 17.5591 142.172 17.5591 148.252C17.5591 155.986 19.8034 163.465 24.0489 169.88C30.0993 179.032 39.7498 185.278 50.5258 187.016Z" fill="#700051"/>
<path d="M357.245 223.252C357.143 223.733 356.327 224.339 355.184 224.48C352.904 224.767 335.273 227.794 334.524 227.923C334.104 227.995 333.811 228.38 333.853 228.803C333.896 229.227 334.254 229.558 334.684 229.534C334.732 229.533 339.557 229.399 344.525 229.563C353.943 229.875 354.947 230.954 355.023 231.061C355.261 231.598 355.278 232.046 355.072 232.427C354.651 233.21 353.323 233.752 352.195 233.94C351.245 234.098 342.671 235.53 334.109 237.385C328.913 238.511 316.746 241.148 315.495 243.853C315.226 244.435 314.802 246.046 313.945 249.344C313.921 249.432 313.897 249.526 313.874 249.616C312.344 253.671 310.139 259.108 307.644 264.011C303.694 271.774 296.679 282.149 291.602 291.131C280.475 310.816 280.711 315.538 274.194 319.158C274.184 319.16 274.173 319.162 274.163 319.163C261.982 320.67 249.813 308.18 240.283 292.355C239.649 290.772 237.437 284.615 238.3 277.712C239.147 270.934 243.712 264.799 245.551 262.566L253.593 255.408C255.284 257.904 256.805 260.675 258.553 263.869C259.941 266.404 261.514 269.276 263.398 272.401C263.525 272.611 263.662 272.847 263.811 273.1C265.175 275.434 267.215 278.923 269.824 278.923C269.906 278.923 269.99 278.92 270.073 278.912C271.88 278.759 273.406 276.96 274.735 273.415C276.395 268.986 278.374 262.167 280.664 254.269C285.574 237.335 292.299 214.144 298.091 209.897C305.091 204.765 316.9 200.726 323.243 198.556C324.637 198.08 325.738 197.703 326.545 197.401C328.492 196.67 329.768 196.95 330.167 197.553C330.588 198.188 330.307 199.574 328.727 201.236C327.699 202.319 325.221 204.262 322.825 206.141C319.264 208.934 317.055 210.699 316.417 211.658C316.223 211.949 316.237 212.331 316.452 212.607C316.667 212.883 317.035 212.99 317.364 212.872C317.589 212.792 339.951 204.842 347.091 202.962C349.428 202.346 351.055 203.027 351.453 204.017C351.741 204.733 351.314 205.495 350.309 206.053C348.353 207.141 339.763 210.667 332.376 213.604L332.279 213.642C332.26 213.65 332.244 213.661 332.226 213.669C332.198 213.683 332.171 213.697 332.143 213.713C332.128 213.723 332.115 213.734 332.1 213.744C332.062 213.771 332.021 213.794 331.989 213.826C331.672 214.144 331.672 214.657 331.989 214.975C332.167 215.152 332.406 215.225 332.639 215.203C332.676 215.2 332.713 215.196 332.751 215.188C332.757 215.186 332.765 215.187 332.772 215.185C332.777 215.184 332.781 215.183 332.785 215.182C339.414 213.656 351.611 211.336 355.269 212.319C356.574 212.671 357.186 213.442 357.214 214.048C357.239 214.6 356.817 215.077 356.056 215.36C354.48 215.942 341.008 218.965 334.105 220.483C333.687 220.575 333.412 220.976 333.477 221.399C333.542 221.822 333.928 222.122 334.351 222.084C341.781 221.43 354.286 220.82 356.207 221.972C356.945 222.415 357.323 222.882 357.245 223.252ZM236.861 286.331L239.292 290.683C238.46 289.253 237.649 287.8 236.861 286.331ZM188.031 239.084C188.006 239.085 187.982 239.085 187.957 239.087C180.933 239.65 174.975 235.13 170.264 225.665C167.19 219.488 165.64 213.03 165.189 210.943C172.542 208.261 175.931 202.88 175.816 194.076C178.318 192.46 179.958 189.492 180.57 185.447C181.044 182.31 180.744 179.646 180.731 179.534C180.69 179.182 180.424 178.897 180.075 178.832C179.725 178.766 179.374 178.935 179.207 179.249C179.121 179.411 177.036 183.226 171.97 183.792C170.152 183.997 168.094 182.836 166.851 180.91C165.469 178.769 165.433 176.264 166.751 174.039C169.533 169.343 178.428 173.966 179.082 174.315C179.409 174.519 179.844 174.466 180.111 174.171C180.413 173.84 180.389 173.326 180.057 173.025C180.055 173.023 180.053 173.022 180.051 173.02C179.642 172.586 175.887 168.422 176.793 162.992C177.708 157.502 185.686 154.285 186.268 154.057C188.683 155.115 190.644 156.648 192.538 158.14C195.837 160.739 198.958 163.2 203.51 161.914C203.567 162.04 203.604 162.232 203.556 162.518C203.399 163.46 202.644 165.397 202.365 166.065C202.27 166.295 202.286 166.559 202.408 166.777C202.427 166.81 204.291 170.195 204.687 176.92C204.888 180.339 202.303 183.13 199.803 185.828C197.57 188.238 195.455 190.524 195.104 193.284C195.07 193.369 195.046 193.46 195.043 193.557C195.038 193.676 195.034 193.794 195.035 193.893C194.722 206.397 201.655 210.104 208.055 211.774C199.795 238.729 188.142 239.084 188.031 239.084ZM125.54 262.79C127.333 264.94 132.351 271.495 133.223 278.476C134.036 284.979 131.389 290.978 130.358 293.017C120.889 308.524 108.888 320.651 96.8804 319.163C96.533 319.12 96.1861 319.061 95.8391 318.993C89.6175 315.391 89.6783 310.519 78.7197 291.131C73.643 282.149 66.6276 271.774 62.6771 264.011C61.1909 261.091 59.8074 257.98 58.6081 255.085C58.0282 252.923 57.5237 250.983 57.0956 249.336C56.2396 246.043 55.8163 244.435 55.5481 243.853C54.2969 241.148 42.1292 238.511 36.9336 237.385C28.3695 235.529 19.7973 234.098 18.8492 233.941C17.7181 233.751 16.3886 233.21 15.9681 232.427C15.7632 232.045 15.7798 231.599 16.012 231.076C16.0956 230.954 17.0996 229.875 26.5112 229.563C31.4791 229.398 36.3103 229.533 36.3586 229.534C36.7814 229.553 37.1471 229.227 37.1893 228.803C37.2315 228.38 36.9389 227.995 36.5189 227.923C35.7697 227.794 18.139 224.767 15.8529 224.48C14.7141 224.339 13.8995 223.733 13.7981 223.253C13.7194 222.882 14.0972 222.415 14.8346 221.972C16.5737 220.93 27.3435 221.296 36.6138 222.076L36.6504 222.079C36.6901 222.084 36.7295 222.087 36.7632 222.087C37.2116 222.087 37.5749 221.724 37.5749 221.276C37.5749 220.9 37.3184 220.587 36.9714 220.494C36.9673 220.493 36.9633 220.492 36.9592 220.491C36.9361 220.486 36.9137 220.478 36.8902 220.474L36.5209 220.392C24.1759 217.661 16.1256 215.779 14.988 215.361C14.2258 215.077 13.8034 214.6 13.8285 214.048C13.8565 213.442 14.4685 212.671 15.7725 212.32C19.4308 211.338 31.6183 213.655 38.2749 215.186C38.2818 215.188 38.2887 215.187 38.2956 215.189C38.3314 215.196 38.3667 215.199 38.402 215.202C38.6353 215.225 38.8756 215.153 39.0538 214.975C39.3707 214.657 39.3707 214.144 39.0538 213.826C39.0233 213.796 38.986 213.777 38.9519 213.752C38.9328 213.738 38.915 213.723 38.8943 213.71C38.863 213.691 38.8318 213.675 38.7981 213.66C38.7863 213.655 38.7762 213.647 38.764 213.642L38.6678 213.604C31.2806 210.667 22.6897 207.141 20.7332 206.053C19.7287 205.495 19.3013 204.733 19.5895 204.017C19.988 203.027 21.613 202.347 23.9511 202.961C31.0915 204.842 53.4535 212.792 53.6788 212.872C54.0083 212.991 54.3756 212.882 54.5907 212.607C54.8058 212.331 54.82 211.948 54.626 211.658C53.9876 210.699 51.779 208.934 48.2173 206.141C45.8212 204.262 43.3439 202.319 42.3151 201.236C40.7364 199.574 40.4547 198.188 40.876 197.553C41.2749 196.95 42.5493 196.669 44.4982 197.401C45.305 197.703 46.4052 198.08 47.7981 198.556C54.141 200.726 65.9474 204.765 72.9511 209.897C78.7437 214.144 85.4689 237.335 90.3792 254.269C92.6694 262.167 94.6471 268.986 96.3078 273.415C97.6374 276.96 99.1617 278.759 100.969 278.912C101.053 278.92 101.136 278.923 101.219 278.923C103.827 278.923 105.867 275.434 107.232 273.101C107.38 272.847 107.518 272.611 107.645 272.401C109.966 268.551 111.889 265.148 113.586 262.146C114.922 259.781 116.188 257.546 117.423 255.492L125.54 262.79ZM357.043 220.579C355.473 219.639 349.863 219.602 344.577 219.806C349.905 218.596 355.549 217.277 356.62 216.882C358.045 216.353 358.894 215.239 358.836 213.974C358.769 212.514 357.535 211.249 355.691 210.751C352.921 210.008 346.583 210.845 341.138 211.819C345.333 210.099 349.679 208.261 351.098 207.472C352.833 206.507 353.564 204.913 352.96 203.411C352.315 201.811 350.075 200.497 346.678 201.392C341.264 202.817 327.258 207.673 320.531 210.034C321.55 209.204 322.721 208.287 323.827 207.419C326.381 205.416 328.794 203.523 329.905 202.354C331.893 200.261 332.497 198.131 331.52 196.656C330.585 195.245 328.46 194.948 325.975 195.881C325.19 196.175 324.044 196.567 322.718 197.02C316.292 199.218 304.332 203.309 297.132 208.587C290.893 213.162 284.63 234.76 279.104 253.817C276.824 261.682 274.854 268.475 273.215 272.845C272.173 275.623 271.009 277.204 269.935 277.295C268.229 277.44 266.267 274.085 265.212 272.281C265.059 272.02 264.918 271.778 264.788 271.562C262.921 268.466 261.357 265.61 259.977 263.089C258.168 259.785 256.6 256.925 254.818 254.318L265.347 244.946C265.585 244.734 265.666 244.414 265.587 244.126C265.654 243.885 265.611 243.618 265.445 243.407C259.325 235.636 249.704 224.4 236.869 216.573C231.76 213.456 225.149 212.66 218.755 211.89C215.377 211.483 212.187 211.099 209.236 210.397C202.885 208.883 196.434 205.759 196.656 194.1C196.669 194.048 196.676 193.994 196.678 193.938C196.751 191.511 198.812 189.287 200.993 186.932C203.597 184.12 206.549 180.934 206.307 176.825C205.958 170.879 204.526 167.418 204.007 166.339C204.306 165.589 204.984 163.825 205.157 162.785C205.398 161.338 204.605 160.523 204.098 160.27C203.906 160.173 203.682 160.157 203.479 160.225C199.493 161.555 196.867 159.484 193.542 156.865C191.531 155.281 189.251 153.484 186.392 152.34C183.588 151.217 180.627 150.871 177.339 151.286C162.216 153.198 158.783 163.605 158.012 167.867C155.082 164.089 144.829 152.639 130.176 155.647C126.092 156.483 123.042 158.636 121.109 162.047C119.861 164.25 116.209 172.629 121.602 187.973C125.521 199.127 132.234 201.541 137.311 201.541C138.516 201.541 139.63 201.404 140.591 201.217C149.85 199.41 158.921 190.406 159.943 182.546C161.811 186.31 165.831 191.625 174.195 194.362C174.241 204.756 168.906 207.982 164.146 209.589C164.043 209.602 163.947 209.634 163.859 209.682C160.38 210.811 156.387 211.315 152.161 211.847C145.82 212.643 139.264 213.467 134.174 216.573C121.344 224.397 111.719 235.635 105.594 243.407C105.428 243.618 105.385 243.886 105.452 244.126C105.374 244.413 105.453 244.731 105.689 244.943L116.192 254.386C114.896 256.53 113.572 258.87 112.173 261.347C110.481 264.34 108.564 267.733 106.255 271.562C106.125 271.778 105.983 272.02 105.831 272.281C104.776 274.085 102.801 277.44 101.107 277.295C100.034 277.204 98.8695 275.623 97.8277 272.845C96.1889 268.475 94.2193 261.682 91.9385 253.817C86.4125 234.76 80.1491 213.162 73.9109 208.587C66.7072 203.309 54.7482 199.218 48.3236 197.02C46.9973 196.566 45.8525 196.175 45.068 195.881C42.5822 194.947 40.4576 195.244 39.5225 196.656C38.5457 198.131 39.1495 200.261 41.1382 202.354C42.2486 203.523 44.6613 205.415 47.2153 207.419C48.3224 208.287 49.4925 209.204 50.5111 210.034C43.7847 207.673 29.779 202.817 24.3642 201.391C20.9669 200.498 18.7267 201.812 18.0834 203.411C17.4791 204.913 18.2096 206.507 19.9446 207.472C21.3647 208.261 25.7129 210.1 29.9081 211.82C24.4661 210.848 18.1215 210.009 15.3504 210.752C13.5075 211.249 12.2737 212.514 12.2068 213.974C12.1487 215.239 12.9982 216.354 14.4251 216.883C15.4685 217.268 20.79 218.517 26.443 219.8C21.0006 219.585 15.5647 219.642 13.9994 220.58C12.126 221.705 12.0741 222.948 12.2096 223.589C12.4754 224.843 13.891 225.872 15.6512 226.091C16.7879 226.233 21.988 227.1 26.8776 227.927C26.6621 227.934 26.4466 227.94 26.2307 227.948C16.7372 228.28 14.9917 229.376 14.5363 230.401C13.9746 231.662 14.2275 232.616 14.5379 233.195C15.4523 234.897 17.8642 235.422 18.583 235.542C37.9267 238.744 53.1844 242.61 54.0741 244.534C54.2936 245.009 54.8366 247.099 55.5241 249.744C59.5956 265.409 70.4105 307.02 89.2197 318.14C91.6467 319.572 94.1564 320.459 96.68 320.774C97.4288 320.867 98.1796 320.913 98.934 320.913C106.438 320.913 114.221 316.333 122.1 307.268C128.948 299.391 135.756 288.074 141.27 275.402C141.274 275.392 141.278 275.382 141.282 275.372C141.294 275.344 141.315 275.293 141.323 275.27C141.466 274.845 141.239 274.384 140.814 274.24C140.765 274.223 140.715 274.212 140.665 274.205L107.143 244.067C113.201 236.408 122.597 225.535 135.019 217.959C139.812 215.035 146.193 214.233 152.363 213.458C156.385 212.952 160.197 212.466 163.637 211.445C164.744 216.511 170.879 240.758 186.807 240.756C187.216 240.756 187.632 240.74 188.054 240.708C189.009 240.697 201.137 239.992 209.638 212.149C212.474 212.765 215.563 213.141 218.561 213.502C224.782 214.251 231.215 215.026 236.025 217.959C248.451 225.537 257.841 236.408 263.894 244.065L229.928 274.298C229.619 274.533 229.518 274.963 229.705 275.319C229.729 275.365 229.762 275.402 229.792 275.441C235.296 288.082 242.087 299.373 248.92 307.242C256.807 316.325 264.596 320.914 272.107 320.913C272.862 320.913 273.614 320.867 274.363 320.774C284.435 319.525 293.79 309.303 302.169 290.394C308.898 275.207 313.368 258.015 315.516 249.753C316.204 247.103 316.749 245.01 316.968 244.534C317.858 242.61 333.116 238.745 352.461 235.542C353.178 235.422 355.586 234.898 356.502 233.197C356.813 232.618 357.067 231.663 356.507 230.403C356.052 229.376 354.306 228.28 344.812 227.948C344.596 227.94 344.38 227.934 344.165 227.927C349.053 227.1 354.252 226.234 355.386 226.091C357.15 225.872 358.567 224.843 358.833 223.589C358.968 222.948 358.917 221.705 357.043 220.579Z" fill="#700051"/>
<path d="M93.3028 80.6604C94.0552 77.9072 95.2768 76.1588 96.8365 75.703C101.494 74.3479 109.801 84.2692 114.746 101.211C116.518 107.282 117.486 113.24 117.675 118.302C117.937 125.306 116.706 130.594 114.024 132.073C113.803 132.194 113.584 132.286 113.371 132.347C108.723 133.704 100.405 123.781 95.4607 106.839C92.1717 95.5732 91.8089 86.1276 93.3028 80.6604ZM108.249 72.3751C112.567 71.119 119.127 78.9705 123.841 91.0561C124.693 93.2367 125.473 95.5334 126.159 97.882C126.834 100.204 127.405 102.524 127.855 104.779C128.651 108.759 129.074 112.488 129.149 115.775C126.806 116.363 121.512 117.74 119.329 118.685C119.19 113.425 118.194 107.228 116.305 100.756C112.837 88.8772 106.531 77.4713 100.539 74.6235L108.249 72.3751ZM144.058 65.6178C144.79 63.0456 145.97 61.3658 147.559 60.9023C149.951 60.203 153.224 62.4153 156.531 66.9729C160.05 71.822 163.223 78.7246 165.465 86.4096C167.2 92.3552 168.166 98.1929 168.383 103.186C168.694 110.347 167.464 115.769 164.74 117.269C164.72 117.28 164.701 117.292 164.681 117.304C164.481 117.41 164.283 117.49 164.089 117.546C159.872 118.776 153.49 111.268 148.81 99.6442L155.668 97.6434C155.668 97.6434 155.668 97.643 155.668 97.643H155.669C155.674 97.6418 155.678 97.6385 155.683 97.6373C155.735 97.6211 155.785 97.6004 155.831 97.5748C157.811 96.7753 157.776 92.6722 156.682 88.9169C155.75 85.729 154.192 83.1462 152.711 82.3374C152.033 81.9668 151.478 82.0107 151.133 82.1117C151.132 82.1121 151.132 82.1125 151.131 82.1125L144.286 84.1101C142.87 76.4835 142.856 69.8439 144.058 65.6178ZM158.972 57.5703C161.367 56.8727 164.637 59.0833 167.943 63.6405C171.463 68.4896 174.636 75.3926 176.877 83.0776C178.767 89.5508 179.689 95.4214 179.85 100.285C176.925 101.03 171.372 102.515 170.032 103.363C169.843 98.2172 168.85 92.2148 167.023 85.9551C164.731 78.0955 161.471 71.0155 157.845 66.0192C155.595 62.9194 153.338 60.8333 151.217 59.8341L158.972 57.5703ZM112.416 134.107C112.89 134.107 113.359 134.042 113.821 133.906C114.02 133.85 114.221 133.771 114.422 133.681C114.434 133.682 114.446 133.686 114.458 133.686C114.533 133.686 114.61 133.676 114.686 133.654L125.238 130.577C130.47 129.05 132.194 118.914 129.598 105.25L147.244 100.101C151.966 111.907 158.17 119.297 163.183 119.297C163.646 119.297 164.099 119.234 164.539 119.106C164.739 119.048 164.94 118.969 165.142 118.879C165.155 118.88 165.167 118.886 165.18 118.886C165.255 118.886 165.332 118.875 165.408 118.853L175.956 115.772C179.816 114.645 181.473 109.16 181.471 102.009C181.604 100.718 181.67 99.8301 181.67 99.8301C181.67 99.8301 181.58 99.852 181.424 99.8901C181.195 94.5297 180.134 88.4421 178.435 82.6231C176.143 74.7631 172.884 67.6832 169.257 62.6868C165.469 57.4673 161.656 55.0971 158.517 56.0119L147.104 59.3439C141.907 60.8605 140.162 70.9717 142.72 84.5671L125.056 89.7221C119.898 76.8719 113.011 69.2944 107.794 70.8167L96.3832 74.1446C96.3827 74.1446 96.3823 74.1446 96.3815 74.145C89.3702 76.1921 89.6149 92.6077 93.9022 107.294C97.9063 121.014 105.694 134.107 112.416 134.107Z" fill="#700051"/>
<path d="M101.481 93.2915C100.727 92.8597 100.01 92.7375 99.3845 92.9194C97.1743 93.5663 96.0424 98.0018 98.1556 105.229C99.4888 109.804 101.699 113.499 103.785 114.642C104.324 114.938 104.799 115.033 105.187 115.033C105.433 115.033 105.644 114.994 105.815 114.944C108.02 114.298 109.15 109.863 107.043 102.635V102.635C106.893 102.121 106.736 101.631 106.575 101.159C105.107 96.869 103.198 94.2745 101.481 93.2915Z" fill="#700051"/>
<path d="M205.225 52.4997C205.235 52.4693 205.243 52.4381 205.25 52.4068C205.452 51.408 208.034 49.9385 211.473 50.6308C214.905 51.3199 216.564 53.936 216.407 54.9433L206.703 87.8268C205.482 86.656 203.259 85.6539 200.617 85.1227C198.532 84.7035 196.191 84.6186 194.483 85.0955L205.225 52.4997ZM276.41 81.0549C275.212 94.0452 265.782 110.494 252.076 115.534C249.828 116.36 247.811 116.309 246.399 115.389C245.148 114.575 244.419 113.088 244.29 111.089C244.046 107.322 244.753 101.952 251.857 90.6864C255.989 84.1369 264.99 75.1215 275.197 70.4482C276.311 73.518 276.753 77.3309 276.41 81.0549ZM266.053 139.294L238.035 159.057C237.984 158.684 237.887 158.265 237.724 157.789C237.223 156.328 236.233 154.683 234.94 153.158C233.565 151.534 231.783 150.015 230.151 149.328L258.801 130.44C258.828 130.422 258.854 130.402 258.879 130.381C259.655 129.724 262.589 130.173 264.861 132.852C265.885 134.06 266.504 135.511 266.603 136.939C266.686 138.139 266.38 138.992 266.053 139.294ZM198.035 91.897C197.304 94.1519 196.732 96.216 195.705 99.9259L195.486 100.717C194.489 104.301 193.488 111.995 196.837 115.464C198.518 117.204 200.438 118.085 202.551 118.085C202.643 118.085 202.736 118.084 202.828 118.08C208.701 117.869 214.553 110.861 217.366 107.494C220.794 103.386 224.001 99.0748 227.103 94.9044C235.109 84.143 242.671 73.9782 254.028 66.5034C263.005 60.5975 268.709 63.0387 270.745 64.363C272.32 65.3849 273.601 66.9291 274.568 68.9531C263.991 73.7741 254.891 82.8358 250.484 89.8203C246.151 96.6917 242.206 104.037 242.67 111.194C242.833 113.723 243.817 115.645 245.513 116.749C246.527 117.409 247.743 117.741 249.085 117.741C250.197 117.741 251.395 117.514 252.636 117.058C266.945 111.796 276.782 94.6962 278.026 81.2043C278.394 77.2144 277.906 73.1134 276.688 69.8057C283.645 66.9376 289.909 66.6097 295.316 68.8475C299.262 70.4815 302.144 73.5245 303.648 77.6475C305.883 83.7729 304.999 91.7071 301.282 98.8723C296.602 107.888 290.512 113.51 281.574 120.175C277.856 122.947 274.951 124.883 272.387 126.591C269.773 128.332 267.693 129.72 265.702 131.365C263.027 128.538 259.467 127.822 257.871 129.108L227.368 149.218C227.3 149.255 227.223 149.306 227.14 149.369L227.139 149.369C227.139 149.37 227.138 149.37 227.137 149.371C227.112 149.39 227.087 149.405 227.063 149.427C226.576 149.839 225.878 150.874 226.667 153.174C227.168 154.634 228.157 156.279 229.452 157.807C231.438 160.147 234.013 162.028 235.907 162.028C236.412 162.028 236.866 161.887 237.25 161.593C237.257 161.589 237.265 161.587 237.272 161.582L267.024 140.595C267.044 140.582 267.063 140.567 267.081 140.552C267.897 139.861 268.334 138.433 268.223 136.826C268.121 135.376 267.591 133.919 266.719 132.629C268.653 131.031 270.705 129.662 273.287 127.942C275.867 126.223 278.792 124.274 282.545 121.476C291.672 114.67 297.899 108.912 302.723 99.6199C306.645 92.0586 307.561 83.6365 305.173 77.091C303.509 72.5294 300.315 69.16 295.937 67.3479C290.2 64.9725 283.34 65.3139 276.058 68.311C274.958 65.9859 273.474 64.1986 271.629 63.0018C264.715 58.507 256.393 63.005 253.135 65.1471C241.539 72.7794 233.538 83.5346 225.801 93.936C222.712 98.0878 219.518 102.381 216.12 106.453C213.458 109.641 207.919 116.272 202.77 116.458C201 116.519 199.445 115.827 198.005 114.336C195.372 111.609 195.991 104.958 197.05 101.151L197.27 100.359C198.313 96.5902 198.883 94.531 199.628 92.2485C200.676 92.4356 201.689 92.5334 202.619 92.5334C204.329 92.5334 205.767 92.2229 206.669 91.6215C207.334 91.1787 207.582 90.658 207.673 90.2769L217.976 55.3613C217.983 55.3374 217.989 55.3139 217.994 55.2899C218.384 53.3273 216.162 49.9165 211.794 49.0391C207.69 48.2156 204.147 49.9332 203.67 52.0326L192.224 86.7582L192.223 86.7619C192.18 86.8735 192.145 86.9815 192.124 87.0874C192.12 87.1081 192.118 87.1284 192.115 87.1491C192.114 87.1539 192.113 87.1584 192.113 87.1633C191.789 89.1937 194.71 91.003 198.035 91.897Z" fill="#700051"/>
<path d="M358.56 125.749C358.558 125.762 358.557 125.775 358.556 125.789C358.371 128.258 357.428 134.96 355.266 137.635C352.028 132.55 344.684 124.027 340.254 123.605C337.75 123.369 335.423 124.151 333.7 125.812C332.003 127.448 331.072 129.812 331.209 132.135C331.311 133.869 332.225 135.954 333.292 137.844C328.921 137.138 317.479 133.929 315.753 128.944C313.719 123.07 316.438 115.902 316.465 115.83C316.627 115.412 316.419 114.942 316.001 114.781C315.583 114.619 315.113 114.826 314.951 115.244C314.854 115.495 313.025 120.31 313.427 125.521C313.382 127.744 313.513 132.095 314.837 136.861C316.328 142.226 320.139 148.958 324.768 146.601C327.02 145.455 329.481 144.625 331.605 144.051C334.866 143.384 337.466 143.451 337.508 143.455C337.833 143.473 338.121 143.289 338.262 143.004C338.403 142.718 338.365 142.378 338.164 142.131C338.113 142.068 333.051 135.813 332.829 132.04C332.721 130.184 333.467 128.292 334.827 126.981C336.203 125.653 338.075 125.026 340.1 125.221C343.747 125.568 351.147 133.842 354.358 139.252C355.064 140.437 355.54 141.453 355.697 142.111C356.496 145.508 354.017 149.071 348.119 153.003C342.895 156.488 337.512 163.192 336.013 165.214C334.673 163.703 331.864 160.862 327.803 158.391C327.74 158.327 327.669 158.27 327.585 158.228C327.535 158.203 327.484 158.184 327.432 158.169C326.07 157.363 324.654 156.647 323.216 156.046C321.137 155.178 318.833 154.481 316.37 153.975C311.745 153.027 307.793 153.008 306.044 153.062C306.426 148.789 308.063 130.763 309.313 121.157C310.171 114.593 312.408 110.125 316.153 107.497C320.573 104.397 327.304 103.816 336.162 105.774C347.877 108.362 359.912 114.968 358.56 125.749ZM330.57 177.889C329.173 175.761 325.85 173.477 322.278 171.602L327.563 160.152C331.6 162.726 334.236 165.606 335.215 166.772C335.283 166.853 335.344 166.926 335.397 166.992L330.57 177.889ZM316.454 163.941L323.647 164.76L322.092 168.131L316.454 163.941ZM320.828 170.869C320.806 170.859 320.784 170.848 320.762 170.837C319.493 170.222 318.151 169.632 316.769 169.084C315.19 168.46 313.646 167.924 312.16 167.474L313.578 163.826L321.397 169.637L320.828 170.869ZM316.473 156.381L316.729 155.722C318.829 156.191 320.802 156.798 322.591 157.544C323.805 158.052 325.001 158.647 326.163 159.311L324.383 163.167L316.473 156.381ZM321.566 162.889L314.266 162.058L315.849 157.985L321.566 162.889ZM300.877 165.992L305.701 154.701C306.987 154.646 310.694 154.585 315.117 155.386L310.594 167.023C308.27 166.402 303.768 165.396 300.877 165.992ZM356.482 114.447C352.527 109.693 345.808 106.242 336.513 104.188C327.193 102.13 320.029 102.796 315.221 106.169C311.082 109.072 308.623 113.906 307.704 120.948C306.337 131.44 304.514 151.917 304.355 153.718L298.391 167.677C298.391 167.68 298.39 167.682 298.389 167.684C298.388 167.688 298.385 167.692 298.383 167.697C297.767 169.25 299.017 171.268 301.999 173.531C304.677 175.563 308.486 177.609 312.722 179.291C316.957 180.971 321.132 182.093 324.477 182.449C325.213 182.527 325.892 182.565 326.514 182.565C329.015 182.565 330.582 181.936 331.093 180.714C331.094 180.712 331.096 180.71 331.098 180.707L337.08 167.201C337.176 166.983 337.166 166.738 337.066 166.527C337.882 165.351 343.645 157.939 349.02 154.353C355.548 150.001 358.25 145.875 357.277 141.736C357.111 141.04 356.726 140.152 356.139 139.096C359.358 135.809 360.125 126.559 360.173 125.93C360.458 123.629 360.351 119.096 356.482 114.447Z" fill="#700051"/>
</svg>
