<svg width="375" height="375" viewBox="0 0 375 375" fill="none" xmlns="http://www.w3.org/2000/svg">
<path d="M212.263 313.218C212.257 313.21 212.251 313.201 212.245 313.193H187.304C184.275 313.535 179.989 314.141 176.314 315.114C171.134 316.485 165.083 320.273 163.285 321.446L162.703 334.594H213.46L212.26 313.279C212.26 313.258 212.263 313.239 212.263 313.218Z" fill="#FF4237"/>
<path d="M286.512 161.001C285.942 161.001 285.38 161.027 284.82 161.066C285.04 165.571 287.095 189.367 305.957 200.487C309.211 196.239 311.054 190.984 311.054 185.542C311.054 172.011 300.044 161.001 286.512 161.001Z" fill="#FFB0A8"/>
<path d="M187.819 170.696C187.802 170.696 187.784 170.696 187.767 170.695C187.464 170.675 187.197 170.488 187.075 170.211L178.893 151.536L159.604 158.141C159.317 158.239 158.999 158.169 158.78 157.959C158.561 157.75 158.477 157.435 158.562 157.144L164.294 137.581L145.274 130.24C144.991 130.131 144.793 129.873 144.76 129.572C144.727 129.271 144.864 128.976 145.117 128.808L162.084 117.505L152.23 99.6562C152.084 99.3908 152.097 99.0657 152.266 98.8133C152.434 98.5608 152.729 98.4229 153.03 98.457L173.295 100.705L177.217 80.6984C177.276 80.401 177.495 80.1607 177.786 80.0755C178.078 79.9906 178.392 80.0747 178.601 80.2942L192.68 95.0422L208.547 82.2398C208.783 82.0495 209.106 82.0065 209.383 82.1286C209.661 82.2504 209.848 82.517 209.867 82.8198L211.171 103.166L231.556 103.554C231.859 103.559 232.134 103.734 232.268 104.006C232.403 104.278 232.374 104.602 232.195 104.846L220.113 121.274L235.479 134.675C235.708 134.874 235.806 135.184 235.734 135.479C235.663 135.774 235.432 136.004 235.137 136.075L215.327 140.894L218.483 161.037C218.53 161.337 218.406 161.638 218.161 161.817C217.917 161.997 217.593 162.025 217.321 161.891L199.046 152.847L188.514 170.304C188.367 170.549 188.102 170.696 187.819 170.696ZM227.598 178.717C233.106 174.87 237.991 170.216 242.116 164.883C251.141 153.213 255.912 139.226 255.912 124.434C255.912 87.9444 226.225 58.2573 189.735 58.2573C153.242 58.2573 123.553 87.9444 123.553 124.434C123.553 139.379 128.669 154 137.961 165.653C138.124 165.751 138.25 165.906 138.313 166.096C142.363 171.086 147.09 175.449 152.369 179.064C163.397 186.621 176.318 190.615 189.735 190.615C203.371 190.615 216.464 186.5 227.598 178.717Z" fill="#D9385C"/>
<path d="M216.637 159.741L213.608 140.408C213.543 139.991 213.808 139.593 214.219 139.493L233.231 134.868L218.483 122.006C218.165 121.728 218.113 121.254 218.363 120.914L229.958 105.147L210.393 104.775C209.971 104.767 209.626 104.437 209.598 104.015L208.347 84.487L193.118 96.7747C192.79 97.0393 192.312 97.0089 192.021 96.7033L178.509 82.5487L174.744 101.75C174.663 102.164 174.276 102.444 173.858 102.401L154.409 100.243L163.867 117.374C164.071 117.744 163.958 118.208 163.606 118.442L147.321 129.29L165.575 136.335C165.969 136.487 166.18 136.916 166.062 137.321L160.561 156.097L179.074 149.758C179.161 149.728 179.25 149.714 179.337 149.714C179.651 149.714 179.948 149.898 180.081 150.2L187.934 168.123L198.042 151.369C198.26 151.008 198.718 150.874 199.096 151.06L216.637 159.741Z" fill="white"/>
<path d="M220.184 228.677C221.944 231.827 222.876 235.169 223.268 238.495C224.102 232.303 224.479 227.217 224.617 225.033C222.861 226.067 220.981 226.78 219.002 227.156C219.493 227.642 219.89 228.15 220.184 228.677Z" fill="#FF4237"/>
<path d="M216.251 227.057C213.406 225.269 208.602 223.807 201.565 222.588C198.309 222.024 195.039 221.586 192.154 221.199C190.248 220.944 188.449 220.703 186.977 220.467C186.585 220.403 186.195 220.405 185.815 220.472C184.264 220.75 182.908 222.174 182.276 224.19C181.571 226.437 181.722 229.731 184.208 232.315C184.305 232.379 184.386 232.46 184.446 232.554C185.066 233.155 185.796 233.688 186.63 234.138C192.917 237.522 205.585 240.383 205.712 240.412C206.091 240.497 206.357 240.839 206.346 241.228C206.334 241.617 206.048 241.943 205.664 242.005C205.442 242.041 183.357 245.767 178.704 259.181C178.557 259.604 178.095 259.829 177.671 259.682C177.247 259.534 177.023 259.072 177.17 258.649C178.668 254.331 181.743 250.977 185.33 248.387C186.347 246.532 187.421 243.506 185.863 240.629C184.473 238.062 182.543 237.053 181.114 236.661C180.596 236.806 180.041 236.885 179.446 236.885C178.133 236.885 176.645 236.534 175.037 235.836C173.54 235.185 172.252 233.666 171.184 231.315C170.767 232.966 169.953 233.976 169.178 234.581C168.169 235.369 166.871 235.769 165.446 235.769C164.371 235.77 163.224 235.542 162.072 235.082C160.882 234.608 159.76 233.575 158.723 232.007C157.248 246.485 160.451 259.392 160.485 259.527C162.349 267.597 163.65 273.353 164.065 275.197H211.624C212.256 274.233 216.647 267.359 218.983 259.262C219.373 257.911 219.707 256.684 220.003 255.51C221.787 248.472 223.599 238.116 218.767 229.469C218.294 228.621 217.447 227.81 216.251 227.057Z" fill="#FF4237"/>
<path d="M219.488 209.2C218.461 203.919 215.772 202.153 215.745 202.135C215.72 202.121 211.03 199.463 206.956 202.126C205.913 202.81 205.037 203.833 204.353 205.169C202.876 208.042 202.232 212.464 202.489 217.959C202.538 218.977 202.551 219.978 202.536 221.112C209.243 222.314 213.8 223.712 216.781 225.483C216.529 215.998 218.979 210.279 219.483 209.209C219.485 209.207 219.487 209.204 219.488 209.2Z" fill="#FF4237"/>
<path d="M161.912 311.569H214.079C216.088 310.441 216.284 307.864 215.837 304.102H160.15C159.704 307.865 159.9 310.441 161.912 311.569Z" fill="white"/>
<path d="M163.449 276.821C163.193 276.846 160.641 277.183 160.249 280.562C160.184 281.135 160.182 281.778 160.243 282.471C160.315 283.281 160.379 284.292 160.431 285.425H215.417C215.464 285.425 215.509 285.431 215.554 285.439C215.611 284.206 215.674 283.227 215.745 282.468C215.922 280.518 215.588 279.026 214.753 278.036C213.875 276.997 212.717 276.839 212.54 276.821H163.449Z" fill="white"/>
<path d="M215.648 302.478C215.324 298.953 215.307 292.289 215.489 287.04C215.465 287.043 215.441 287.048 215.417 287.048H160.497C160.684 292.285 160.669 298.938 160.34 302.478H215.648Z" fill="#D8365C"/>
<path d="M199.859 200.812C199.84 200.803 199.818 200.791 199.8 200.781C199.755 200.754 195.065 198.095 190.991 200.759C189.214 201.923 187.94 204.062 187.204 207.116C186.581 209.697 186.352 212.885 186.524 216.592C186.558 217.295 186.538 217.892 186.515 218.582C186.512 218.652 186.51 218.729 186.508 218.801C186.751 218.806 186.994 218.825 187.236 218.865C188.685 219.097 190.474 219.337 192.369 219.59C194.997 219.943 197.942 220.338 200.917 220.833C200.926 219.836 200.911 218.944 200.868 218.036C200.603 212.382 201.236 207.926 202.742 204.774C202.075 201.927 199.951 200.857 199.859 200.812Z" fill="#FF4237"/>
<path d="M181.999 201.36C181.967 201.344 180.705 200.71 179.029 200.523C176.875 200.282 175.058 200.863 173.633 202.248C173.086 202.781 172.591 203.39 172.164 204.057C169.738 207.849 169.692 213.317 169.868 217.099C169.999 219.87 170.429 222.978 171.041 225.631C171.113 225.727 171.166 225.839 171.19 225.965C171.237 226.218 171.274 226.466 171.306 226.708C172.407 230.885 173.961 233.598 175.684 234.347C177.949 235.33 179.853 235.529 181.19 234.921C181.922 234.588 182.468 234.009 182.817 233.201C180.054 230.146 179.903 226.33 180.726 223.704C181.457 221.377 183.013 219.653 184.876 219.043C184.881 218.862 184.887 218.691 184.892 218.527C184.916 217.846 184.933 217.308 184.902 216.67C184.728 212.924 184.956 209.675 185.571 206.993C184.655 202.701 182.108 201.413 181.999 201.36Z" fill="#FF4237"/>
<path d="M162.673 233.575C164.324 234.233 166.636 234.507 168.178 233.302C169.584 232.204 170.115 230.043 169.717 227.049C168.949 224.099 168.399 220.412 168.246 217.175C168.055 213.068 168.143 207.914 170.391 203.867C169.214 203.18 164.861 201.057 160.314 204.118C159.509 204.658 158.805 205.381 158.221 206.269C155.942 209.72 155.851 214.993 156 217.829C156.098 219.681 156.559 222.174 157.231 224.501C157.763 226.328 158.382 227.959 159.07 229.346C160.201 231.623 161.447 233.086 162.673 233.575Z" fill="#FF4237"/>
<path d="M120.408 203.162V258.711C126.219 255.848 130.325 252.528 132.126 250.937C134.826 245.689 136.301 239.817 136.301 233.797C136.301 221.533 130.387 210.193 120.408 203.162Z" fill="white"/>
<path d="M118.785 259.475V202.081C113.043 198.459 106.45 196.482 99.6377 196.336V263.737C99.6681 263.738 99.6982 263.739 99.729 263.739C107.045 263.739 113.524 261.851 118.785 259.475Z" fill="#FE884E"/>
<path d="M98.0141 196.336C91.193 196.482 84.5925 198.463 78.8461 202.093L78.8461 258.634C84.1787 261.293 90.6572 263.412 98.0141 263.702L98.0141 196.336Z" fill="white"/>
<path d="M61.3505 233.797C61.3502 238.801 62.3563 243.682 64.2314 248.185C66.4428 250.378 70.9399 254.389 77.2231 257.79L77.2227 203.176C67.2569 210.21 61.3504 221.544 61.3505 233.797Z" fill="#FE884E"/>
<path d="M223.268 238.495C222.877 235.169 221.944 231.827 220.184 228.678C219.89 228.15 219.493 227.642 219.002 227.156C220.981 226.78 222.861 226.068 224.617 225.033C224.479 227.217 224.103 232.303 223.268 238.495ZM220.003 255.51C219.707 256.684 219.373 257.912 218.983 259.262C216.646 267.359 212.255 274.233 211.624 275.198H164.065C163.65 273.354 162.349 267.597 160.485 259.527C160.451 259.392 157.248 246.485 158.722 232.007C159.76 233.575 160.882 234.609 162.072 235.083C163.224 235.543 164.371 235.77 165.446 235.769C166.871 235.769 168.168 235.37 169.178 234.581C169.952 233.976 170.766 232.966 171.183 231.315C172.252 233.666 173.54 235.185 175.037 235.836C176.645 236.534 178.132 236.885 179.446 236.885C180.041 236.885 180.596 236.806 181.114 236.661C182.543 237.053 184.472 238.062 185.863 240.629C187.421 243.506 186.347 246.532 185.33 248.388C181.742 250.977 178.668 254.331 177.17 258.649C177.023 259.072 177.247 259.535 177.67 259.682C178.095 259.829 178.557 259.605 178.704 259.181C183.357 245.767 205.441 242.041 205.664 242.005C206.048 241.943 206.334 241.617 206.345 241.228C206.357 240.839 206.091 240.497 205.711 240.412C205.584 240.383 192.917 237.523 186.63 234.138C185.796 233.688 185.065 233.155 184.446 232.554C184.386 232.46 184.305 232.38 184.208 232.315C181.722 229.731 181.57 226.437 182.275 224.19C182.907 222.174 184.264 220.75 185.814 220.473C186.195 220.405 186.585 220.404 186.976 220.467C188.449 220.703 190.248 220.944 192.153 221.2C195.038 221.586 198.308 222.024 201.564 222.588C208.602 223.807 213.406 225.269 216.251 227.057C217.447 227.81 218.293 228.621 218.766 229.469C223.599 238.116 221.786 248.472 220.003 255.51ZM214.753 278.036C215.588 279.026 215.922 280.518 215.745 282.468C215.674 283.227 215.611 284.206 215.554 285.439C215.509 285.431 215.463 285.425 215.416 285.425H160.431C160.379 284.292 160.315 283.281 160.243 282.471C160.181 281.777 160.183 281.135 160.249 280.561C160.64 277.183 163.193 276.846 163.448 276.821H212.54C212.717 276.839 213.875 276.997 214.753 278.036ZM160.497 287.048H215.416C215.441 287.048 215.465 287.043 215.489 287.041C215.307 292.289 215.324 298.953 215.648 302.478H160.34C160.669 298.939 160.684 292.285 160.497 287.048ZM214.079 311.569H161.912C159.901 310.441 159.704 307.864 160.151 304.101H215.837C216.284 307.864 216.088 310.441 214.079 311.569ZM157.231 224.501C156.558 222.174 156.098 219.681 156 217.829C155.851 214.993 155.942 209.719 158.221 206.269C158.805 205.381 159.509 204.658 160.314 204.118C164.861 201.057 169.214 203.18 170.391 203.867C168.143 207.913 168.055 213.068 168.246 217.175C168.399 220.412 168.948 224.099 169.716 227.049C170.115 230.043 169.584 232.204 168.178 233.302C166.636 234.507 164.323 234.233 162.673 233.575C161.446 233.086 160.2 231.623 159.07 229.346C158.382 227.959 157.763 226.328 157.231 224.501ZM184.902 216.67C184.933 217.308 184.915 217.846 184.892 218.527C184.887 218.691 184.881 218.862 184.876 219.043C183.013 219.653 181.456 221.377 180.726 223.704C179.903 226.329 180.054 230.146 182.817 233.201C182.467 234.009 181.922 234.588 181.19 234.921C179.853 235.529 177.949 235.33 175.683 234.347C173.961 233.598 172.407 230.885 171.306 226.708C171.274 226.466 171.237 226.218 171.19 225.965C171.166 225.839 171.112 225.727 171.041 225.631C170.429 222.978 169.998 219.87 169.868 217.099C169.691 213.317 169.737 207.849 172.163 204.057C172.591 203.39 173.086 202.781 173.632 202.248C175.058 200.863 176.875 200.282 179.029 200.523C180.704 200.71 181.966 201.344 181.999 201.36C182.108 201.413 184.654 202.701 185.57 206.993C184.956 209.675 184.728 212.924 184.902 216.67ZM200.868 218.036C200.911 218.944 200.926 219.836 200.917 220.832C197.942 220.338 194.996 219.942 192.369 219.59C190.474 219.337 188.685 219.097 187.236 218.865C186.994 218.825 186.75 218.806 186.508 218.801C186.51 218.729 186.513 218.651 186.515 218.582C186.538 217.891 186.558 217.295 186.524 216.592C186.352 212.885 186.581 209.696 187.204 207.116C187.94 204.061 189.214 201.923 190.991 200.759C195.065 198.095 199.755 200.754 199.8 200.78C199.818 200.791 199.84 200.803 199.858 200.811C199.95 200.857 202.075 201.927 202.743 204.773C201.235 207.926 200.603 212.381 200.868 218.036ZM216.781 225.483C213.8 223.712 209.244 222.314 202.536 221.112C202.552 219.978 202.538 218.978 202.489 217.959C202.232 212.464 202.876 208.042 204.353 205.17C205.037 203.834 205.913 202.81 206.957 202.127C211.03 199.463 215.72 202.121 215.745 202.135C215.772 202.153 218.461 203.92 219.488 209.2C219.487 209.204 219.485 209.207 219.483 209.21C218.979 210.279 216.529 215.998 216.781 225.483ZM152.889 181.36C163.867 188.481 176.568 192.239 189.735 192.239C203.24 192.239 216.225 188.299 227.379 180.832C225.553 192.834 223.615 199.806 222.294 203.57C221.684 205.308 221.148 206.533 220.725 207.381C219.369 202.515 216.724 200.832 216.585 200.746C216.36 200.614 210.994 197.546 206.068 200.768C205.223 201.321 204.476 202.047 203.831 202.93C202.764 200.536 200.887 199.512 200.592 199.364C200.121 199.095 194.903 196.262 190.102 199.401C188.517 200.438 187.28 202.066 186.406 204.255C185.017 201.02 182.811 199.948 182.719 199.905C182.66 199.875 176.778 196.927 172.5 201.085C172.056 201.518 171.644 201.995 171.266 202.505C169.9 201.719 164.709 199.202 159.408 202.77C158.726 203.228 158.11 203.796 157.559 204.454C156.934 202.778 154.93 196.566 152.889 181.36ZM138.313 166.097C138.25 165.906 138.124 165.751 137.961 165.653C128.669 154.001 123.554 139.379 123.554 124.434C123.554 87.9444 153.242 58.2577 189.735 58.2577C226.225 58.2577 255.912 87.9444 255.912 124.434C255.912 139.226 251.141 153.213 242.116 164.883C237.991 170.216 233.106 174.87 227.598 178.717C216.464 186.501 203.371 190.615 189.735 190.615C176.318 190.615 163.397 186.621 152.369 179.064C147.09 175.449 142.363 171.086 138.313 166.097ZM236.595 206.636C240.002 192.724 244.016 166.149 244.056 165.882C244.092 165.645 244.149 165.26 244.185 164.902C252.922 153.3 257.535 139.325 257.535 124.434C257.535 87.0491 227.12 56.6343 189.735 56.6343C152.347 56.6343 121.93 87.0491 121.93 124.434C121.93 139.799 127.207 154.831 136.789 166.79C137.774 173.142 141.124 194.448 143.623 206.607C144.616 211.438 147.788 222.883 155.834 225.49C156.293 226.988 156.81 228.357 157.378 229.573C157.374 229.594 157.366 229.613 157.364 229.635C155.269 245.271 158.875 259.781 158.907 259.909C160.71 267.717 161.987 273.36 162.441 275.374C160.952 275.827 159.002 277.209 158.636 280.376V280.377C158.636 280.377 158.636 280.377 158.636 280.377C158.558 281.059 158.555 281.812 158.626 282.615C158.712 283.582 158.787 284.847 158.843 286.274C159.075 291.905 159.059 299.971 158.63 303.183C158.112 307.069 157.852 311.361 161.349 313.107C161.461 313.163 161.585 313.193 161.711 313.193H162.024L161.058 335.036C161.039 335.483 161.386 335.862 161.834 335.882C161.846 335.883 161.858 335.883 161.87 335.883C162.302 335.883 162.661 335.543 162.68 335.107L162.703 334.594L163.284 321.446C165.083 320.273 171.134 316.484 176.313 315.114C179.989 314.141 184.275 313.535 187.304 313.193H212.264C212.264 313.201 212.263 313.21 212.263 313.218C212.263 313.239 212.259 313.258 212.261 313.279L213.459 334.594L213.474 334.849C213.498 335.281 213.856 335.616 214.283 335.616C214.299 335.616 214.314 335.615 214.33 335.614C214.778 335.589 215.12 335.206 215.095 334.758L213.881 313.193H214.28C214.406 313.193 214.53 313.163 214.643 313.107C218.136 311.361 217.875 307.068 217.358 303.183C216.93 299.961 216.911 292.069 217.141 286.302C217.205 284.734 217.28 283.495 217.361 282.616C217.581 280.198 217.112 278.294 215.967 276.959C215.138 275.991 214.139 275.556 213.449 275.359C214.835 273.147 218.443 266.989 220.543 259.712C220.921 258.401 221.247 257.206 221.538 256.06C221.559 256.014 221.586 255.972 221.6 255.922C225.489 241.02 226.297 224.125 226.304 223.956C226.305 223.941 226.302 223.928 226.302 223.914C232.991 218.908 235.721 210.212 236.595 206.636Z" fill="#700051"/>
<path d="M132.126 250.936C130.325 252.528 126.219 255.848 120.408 258.71V203.161C130.387 210.193 136.301 221.532 136.301 233.797C136.301 239.817 134.826 245.689 132.126 250.936ZM109.098 288.781H108.834C108.84 288.742 108.846 288.703 108.846 288.663C108.846 285.938 108.043 284.517 107.171 283.775C108.335 283.177 109.135 281.967 109.135 280.571C109.135 278.581 107.518 276.963 105.531 276.963C103.543 276.963 101.927 278.581 101.927 280.571C101.927 281.646 102.404 282.641 103.196 283.315C102.158 283.969 100.477 285.471 99.9304 288.52C99.9145 288.609 99.9174 288.696 99.9296 288.781H90.9706L79.1382 267.577C85.0988 271.06 91.8585 272.896 98.8261 272.896C106.204 272.896 113.349 270.838 119.552 266.947L109.098 288.781ZM78.8464 202.092C84.5927 198.463 91.1934 196.482 98.0144 196.336V263.702C90.6572 263.412 84.1788 261.293 78.8464 258.634V202.092ZM99.6378 196.336C106.449 196.481 113.043 198.458 118.785 202.081V259.475C113.524 261.851 107.045 263.738 99.7287 263.738C99.6982 263.738 99.6682 263.737 99.6378 263.737V196.336ZM77.223 257.789C70.9401 254.389 66.443 250.378 64.2315 248.185C62.3565 243.682 61.3504 238.801 61.3504 233.797C61.3504 221.544 67.2571 210.21 77.223 203.175V257.789ZM120.298 201.123C120.17 200.899 119.941 200.745 119.671 200.72C113.436 196.782 106.24 194.698 98.8261 194.698C91.4113 194.698 84.2169 196.781 77.9831 200.717C77.6962 200.736 77.4519 200.902 77.3224 201.142C66.2997 208.414 59.7271 220.594 59.7271 233.797C59.7271 246.464 65.8971 258.379 76.236 265.708L89.6995 289.834L90.753 302.718C90.7477 303.137 90.7912 305.722 92.5753 307.571C93.7542 308.794 95.4024 309.414 97.4746 309.414H103.951C103.997 309.416 104.045 309.417 104.094 309.417C105.639 309.417 108.435 308.293 108.966 303.919C109.561 299.017 110.298 290.976 110.404 289.811L122.227 265.118C132.06 257.76 137.925 246.069 137.925 233.797C137.925 220.578 131.34 208.389 120.298 201.123Z" fill="#700051"/>
<path d="M284.82 161.066C285.38 161.028 285.943 161.001 286.512 161.001C300.045 161.001 311.054 172.01 311.054 185.543C311.054 190.984 309.211 196.239 305.957 200.487C287.095 189.368 285.04 165.571 284.82 161.066ZM293.14 221.679H292.564L291.719 219.566C292.342 219.201 292.767 218.531 292.767 217.758C292.767 216.601 291.824 215.66 290.664 215.66C289.508 215.66 288.566 216.601 288.566 217.758C288.566 218.329 288.796 218.847 289.166 219.226L287.882 221.679H287.576C287.436 221.06 286.843 219.629 286.054 218.711C286.561 218.328 286.894 217.726 286.894 217.044C286.894 215.885 285.951 214.941 284.792 214.941C283.635 214.941 282.693 215.885 282.693 217.044C282.693 217.649 282.955 218.191 283.366 218.574C282.53 219.482 281.687 221.03 281.498 221.388C281.462 221.456 281.44 221.527 281.425 221.598L274.19 208.628C277.962 210.648 282.166 211.707 286.512 211.707C291.163 211.707 295.63 210.503 299.59 208.208L293.14 221.679ZM286.512 159.378C272.085 159.378 260.348 171.115 260.348 185.543C260.348 193.996 264.456 201.95 271.346 206.861L280.199 222.732L280.891 231.195C280.889 231.539 280.943 233.307 282.174 234.583C283.008 235.448 284.166 235.887 285.616 235.887H289.898C289.93 235.889 289.963 235.889 289.997 235.889C291.113 235.889 293.123 235.097 293.499 232.012C293.885 228.822 294.362 223.635 294.446 222.709L302.225 206.463C308.773 201.536 312.677 193.733 312.677 185.543C312.677 171.115 300.94 159.378 286.512 159.378Z" fill="#700051"/>
<path d="M300.963 270.316C298.415 273.719 291.407 273.683 291.33 273.683H238.968C233.381 273.683 229.608 271.446 229.12 267.844C228.643 264.329 231.548 259.834 238.023 258.045C239.67 257.59 241.459 257.406 243.275 257.406C250.873 257.406 258.945 260.625 259.045 260.666C259.422 260.819 259.852 260.668 260.053 260.316C260.104 260.229 265.206 251.527 274.153 252.763C281.69 253.803 284.959 260.256 286.014 262.982C286.109 263.227 286.152 263.339 286.283 263.469C286.697 263.884 287.138 263.688 287.698 263.441C288.731 262.982 291.475 261.764 294.491 261.719C297.417 261.669 300.825 262.938 301.491 265.122C302.137 267.238 301.959 268.986 300.963 270.316ZM294.467 260.096C291.357 260.142 288.577 261.282 287.303 261.84C285.938 258.606 282.284 252.247 274.375 251.155C265.805 249.974 260.445 256.824 259.024 258.918C256.311 257.905 245.618 254.26 237.591 256.48C232.01 258.022 226.756 262.495 227.511 268.063C227.986 271.564 231.245 275.307 238.968 275.307H291.32C291.333 275.307 291.359 275.307 291.396 275.307C292.261 275.307 299.341 275.186 302.26 271.293C303.585 269.524 303.849 267.288 303.043 264.648C302.111 261.592 298.012 260.049 294.467 260.096Z" fill="#700051"/>
<path d="M55.2398 173.452C55.183 173.45 49.5121 173.508 46.6225 170.154C45.1144 168.404 44.6055 165.985 45.1091 162.965C45.6651 159.629 47.5754 157.108 50.7873 155.473C56.1911 152.723 64.1757 153.237 67.2974 154.799C67.5012 154.901 67.7378 154.913 67.9504 154.831C68.1631 154.75 68.3319 154.583 68.4155 154.371C68.6128 153.874 73.3709 142.234 85.7516 142.234C85.7999 142.234 85.8486 142.234 85.8977 142.235C96.5223 142.314 99.3912 157.421 99.4188 157.574C99.4735 157.874 99.6923 158.118 99.9845 158.206C100.277 158.293 100.594 158.209 100.805 157.989C100.853 157.938 105.698 152.965 111.804 154.888C117.739 156.754 117.004 162.913 116.97 163.173C116.936 163.421 117.02 163.671 117.195 163.85C117.37 164.029 117.619 164.116 117.868 164.088C117.92 164.082 123.044 163.519 125.639 165.691C126.537 166.442 127.011 167.419 127.09 168.677C127.18 170.11 126.871 171.178 126.148 171.939C124.657 173.508 121.699 173.475 119.933 173.456C119.752 173.454 119.583 173.452 119.431 173.452H55.2398ZM119.915 175.079C120.12 175.082 120.343 175.084 120.582 175.084C122.557 175.084 125.56 174.915 127.325 173.057C128.362 171.965 128.828 170.458 128.711 168.576C128.604 166.871 127.92 165.48 126.677 164.443C124.274 162.435 120.407 162.335 118.626 162.407C118.619 160.245 117.979 155.128 112.292 153.339C106.976 151.669 102.635 154.358 100.704 155.907C100.307 154.364 99.4967 151.734 98.0641 149.073C95.1034 143.575 90.9005 140.649 85.9094 140.611C85.8571 140.611 85.8063 140.611 85.7544 140.611C74.1724 140.611 68.6294 150.2 67.2544 153.011C63.3887 151.531 55.5896 151.207 50.0511 154.027C46.4066 155.882 44.144 158.88 43.5081 162.698C42.9204 166.22 43.5564 169.087 45.3985 171.221C48.793 175.152 55.0056 175.082 55.2544 175.075H119.431C119.577 175.075 119.74 175.077 119.915 175.079Z" fill="#700051"/>
<path d="M198.041 151.369L187.934 168.123L180.081 150.2C179.948 149.898 179.651 149.714 179.337 149.714C179.249 149.714 179.161 149.728 179.074 149.758L160.56 156.097L166.062 137.321C166.18 136.916 165.969 136.487 165.575 136.335L147.321 129.29L163.606 118.442C163.957 118.208 164.071 117.743 163.866 117.374L154.409 100.243L173.858 102.401C174.276 102.444 174.663 102.164 174.744 101.75L178.509 82.5487L192.021 96.7033C192.312 97.0089 192.789 97.0393 193.118 96.7743L208.347 84.487L209.599 104.015C209.625 104.437 209.971 104.767 210.393 104.775L229.958 105.147L218.362 120.914C218.112 121.254 218.165 121.728 218.483 122.006L233.231 134.868L214.218 139.493C213.808 139.593 213.543 139.991 213.608 140.408L216.637 159.741L199.096 151.06C198.718 150.874 198.259 151.008 198.041 151.369ZM217.321 161.891C217.593 162.025 217.917 161.997 218.161 161.817C218.406 161.638 218.53 161.337 218.483 161.037L215.327 140.894L235.137 136.075C235.432 136.004 235.663 135.774 235.734 135.479C235.806 135.184 235.708 134.874 235.479 134.675L220.113 121.274L232.195 104.846C232.374 104.602 232.403 104.278 232.268 104.006C232.134 103.734 231.859 103.559 231.556 103.554L211.171 103.166L209.867 82.8198C209.848 82.517 209.661 82.2504 209.383 82.1286C209.106 82.0065 208.783 82.0495 208.547 82.2398L192.68 95.0422L178.601 80.2942C178.392 80.0747 178.078 79.9906 177.786 80.0755C177.495 80.1607 177.276 80.401 177.217 80.6984L173.295 100.705L153.03 98.457C152.729 98.4229 152.434 98.5609 152.266 98.8133C152.097 99.0657 152.084 99.3908 152.23 99.6562L162.084 117.505L145.117 128.808C144.864 128.976 144.727 129.271 144.76 129.572C144.793 129.873 144.991 130.131 145.274 130.24L164.294 137.581L158.562 157.144C158.477 157.435 158.561 157.75 158.78 157.959C158.999 158.169 159.317 158.239 159.604 158.141L178.893 151.536L187.075 170.211C187.197 170.488 187.464 170.675 187.767 170.695C187.784 170.696 187.802 170.696 187.819 170.696C188.102 170.696 188.367 170.549 188.514 170.304L199.046 152.847L217.321 161.891Z" fill="#700051"/>
<path d="M75.7995 86.2346L112.325 109.583C112.461 109.669 112.612 109.711 112.762 109.711C113.03 109.711 113.292 109.578 113.446 109.336C113.688 108.958 113.577 108.457 113.2 108.215L76.6737 84.8665C76.2966 84.6254 75.7938 84.7362 75.5527 85.1132C75.3113 85.4911 75.4216 85.9927 75.7995 86.2346Z" fill="#700051"/>
<path d="M123.423 82.8839C123.573 83.0069 123.755 83.0665 123.936 83.0665C124.171 83.0665 124.404 82.9647 124.565 82.7682C124.848 82.4208 124.796 81.9099 124.449 81.6258L103.394 64.4387C103.046 64.1558 102.536 64.2066 102.252 64.5544C101.968 64.9014 102.02 65.4127 102.368 65.6964L123.423 82.8839Z" fill="#700051"/>
<path d="M138.329 65.1282C138.489 65.3385 138.731 65.4489 138.976 65.4489C139.147 65.4489 139.32 65.3949 139.467 65.2833C139.824 65.0122 139.893 64.5028 139.622 64.1461L131.456 53.4034C131.185 53.0467 130.675 52.9773 130.319 53.2488C129.962 53.5195 129.893 54.0288 130.164 54.3855L138.329 65.1282Z" fill="#700051"/>
<path d="M266.49 109.336C266.645 109.578 266.907 109.711 267.175 109.711C267.325 109.711 267.476 109.669 267.611 109.583L304.137 86.2346C304.515 85.9927 304.625 85.4911 304.384 85.1132C304.143 84.7362 303.64 84.6254 303.263 84.8665L266.737 108.215C266.359 108.457 266.249 108.958 266.49 109.336Z" fill="#700051"/>
<path d="M256.002 83.0665C256.182 83.0665 256.364 83.0069 256.515 82.8839L277.574 65.6964C277.921 65.4127 277.973 64.9014 277.689 64.5544C277.406 64.207 276.895 64.1558 276.547 64.4387L255.488 81.6258C255.141 81.9095 255.089 82.4208 255.372 82.7682C255.533 82.9647 255.766 83.0665 256.002 83.0665Z" fill="#700051"/>
<path d="M240.469 65.2833C240.616 65.3949 240.789 65.4489 240.96 65.4489C241.205 65.4489 241.447 65.3385 241.607 65.1282L249.772 54.3855C250.043 54.0292 249.974 53.5199 249.617 53.2488C249.261 52.9773 248.751 53.0471 248.48 53.4038L240.314 64.1461C240.043 64.5028 240.112 65.0122 240.469 65.2833Z" fill="#700051"/>
</svg>
