<?xml version="1.0" encoding="utf-8"?>
<!-- Generator: Adobe Illustrator 23.1.1, SVG Export Plug-In . SVG Version: 6.00 Build 0)  -->
<svg version="1.1" id="Layer_1" xmlns="http://www.w3.org/2000/svg" xmlns:xlink="http://www.w3.org/1999/xlink" x="0px" y="0px"
	 viewBox="0 0 317 193" style="enable-background:new 0 0 317 193;" xml:space="preserve">
<style type="text/css">
	.st0{opacity:0.3;fill:#00F9FF;}
</style>
<g>
	<g>
		<path class="st0" d="M91.17,90.34L0.29,78.03c-3.3,121.11,143.37,115.24,158.26,114.33L91.17,90.34z"/>
		<path class="st0" d="M225.62,90.34l90.88-12.31c3.3,121.11-143.37,115.24-158.26,114.33L225.62,90.34z"/>
	</g>
	<path class="st0" d="M192.59-0.36c0,0,82.75,141.02-33.7,193.26L91.37,90.7L192.59-0.36z"/>
	<path class="st0" d="M123.89-0.36c0,0-82.75,141.02,33.7,193.26l67.52-102.2L123.89-0.36z"/>
	<path class="st0" d="M158,192.88c0,0-157.75-40.78-112.92-160.28L158,73.88V192.88z"/>
	<path class="st0" d="M158,192.88c0,0,157.75-40.78,112.92-160.28L158,73.88V192.88z"/>
</g>
</svg>
