<?xml version="1.0" encoding="iso-8859-1"?>
<!-- Generator: Adobe Illustrator 18.0.0, SVG Export Plug-In . SVG Version: 6.00 Build 0)  -->
<!DOCTYPE svg PUBLIC "-//W3C//DTD SVG 1.1//EN" "http://www.w3.org/Graphics/SVG/1.1/DTD/svg11.dtd">
<svg version="1.1" id="Capa_1" xmlns="http://www.w3.org/2000/svg" xmlns:xlink="http://www.w3.org/1999/xlink" x="0px" y="0px"
	 viewBox="0 0 60 60" style="enable-background:new 0 0 60 60;" xml:space="preserve">
<g>
	<path d="M53.143,18h1.071c0.553,0,1-0.447,1-1s-0.447-1-1-1h-1.071c-0.553,0-1,0.447-1,1S52.59,18,53.143,18z"/>
	<path d="M47.785,18h1.071c0.553,0,1-0.447,1-1s-0.447-1-1-1h-1.071c-0.553,0-1,0.447-1,1S47.232,18,47.785,18z"/>
	<path d="M58.5,16c-0.553,0-1,0.447-1,1c0,0.405,0.241,0.755,0.588,0.912C58.245,18.259,58.595,18.5,59,18.5c0.553,0,1-0.447,1-1V16
		H58.5z"/>
	<path d="M59,20.705c-0.553,0-1,0.447-1,1v1.052c0,0.553,0.447,1,1,1s1-0.447,1-1v-1.052C60,21.152,59.553,20.705,59,20.705z"/>
	<path d="M59,31.218c-0.553,0-1,0.447-1,1v1.052c0,0.553,0.447,1,1,1s1-0.447,1-1v-1.052C60,31.665,59.553,31.218,59,31.218z"/>
	<path d="M59,36.475c-0.553,0-1,0.447-1,1v1.051c0,0.553,0.447,1,1,1s1-0.447,1-1v-1.051C60,36.922,59.553,36.475,59,36.475z"/>
	<path d="M59,25.962c-0.553,0-1,0.447-1,1v1.051c0,0.553,0.447,1,1,1s1-0.447,1-1v-1.051C60,26.409,59.553,25.962,59,25.962z"/>
	<path d="M59,46.987c-0.553,0-1,0.447-1,1v1.051c0,0.553,0.447,1,1,1s1-0.447,1-1v-1.051C60,47.435,59.553,46.987,59,46.987z"/>
	<path d="M59,41.73c-0.553,0-1,0.447-1,1v1.052c0,0.553,0.447,1,1,1s1-0.447,1-1V42.73C60,42.178,59.553,41.73,59,41.73z"/>
	<path d="M59,52.243c-0.553,0-1,0.447-1,1v1.052c0,0.553,0.447,1,1,1s1-0.447,1-1v-1.052C60,52.69,59.553,52.243,59,52.243z"/>
	<path d="M59,57.5c-0.405,0-0.755,0.241-0.912,0.588C57.741,58.245,57.5,58.595,57.5,59c0,0.553,0.447,1,1,1H60v-1.5
		C60,57.947,59.553,57.5,59,57.5z"/>
	<path d="M28.013,58h-1.051c-0.553,0-1,0.447-1,1s0.447,1,1,1h1.051c0.553,0,1-0.447,1-1S28.565,58,28.013,58z"/>
	<path d="M22.757,58h-1.052c-0.553,0-1,0.447-1,1s0.447,1,1,1h1.052c0.553,0,1-0.447,1-1S23.31,58,22.757,58z"/>
	<path d="M33.27,58h-1.052c-0.553,0-1,0.447-1,1s0.447,1,1,1h1.052c0.553,0,1-0.447,1-1S33.822,58,33.27,58z"/>
	<path d="M49.038,58h-1.051c-0.553,0-1,0.447-1,1s0.447,1,1,1h1.051c0.553,0,1-0.447,1-1S49.591,58,49.038,58z"/>
	<path d="M54.295,58h-1.052c-0.553,0-1,0.447-1,1s0.447,1,1,1h1.052c0.553,0,1-0.447,1-1S54.848,58,54.295,58z"/>
	<path d="M43.782,58H42.73c-0.553,0-1,0.447-1,1s0.447,1,1,1h1.052c0.553,0,1-0.447,1-1S44.335,58,43.782,58z"/>
	<path d="M38.525,58h-1.051c-0.553,0-1,0.447-1,1s0.447,1,1,1h1.051c0.553,0,1-0.447,1-1S39.078,58,38.525,58z"/>
	<path d="M17.912,58.088C17.755,57.741,17.405,57.5,17,57.5c-0.553,0-1,0.447-1,1V60h1.5c0.553,0,1-0.447,1-1
		C18.5,58.595,18.259,58.245,17.912,58.088z"/>
	<path d="M17,52.143c-0.553,0-1,0.447-1,1v1.071c0,0.553,0.447,1,1,1s1-0.447,1-1v-1.071C18,52.59,17.553,52.143,17,52.143z"/>
	<path d="M18,47.785c0-0.553-0.447-1-1-1s-1,0.447-1,1v1.071c0,0.553,0.447,1,1,1s1-0.447,1-1V47.785z"/>
	<path d="M17,44.5c0.366,0,0.673-0.206,0.847-0.5H18v-0.5V43V18h25h0.5H44v-0.153c0.294-0.174,0.5-0.48,0.5-0.847
		s-0.206-0.673-0.5-0.847V0H0v44h16.153C16.327,44.294,16.634,44.5,17,44.5z"/>
</g>
<g>
</g>
<g>
</g>
<g>
</g>
<g>
</g>
<g>
</g>
<g>
</g>
<g>
</g>
<g>
</g>
<g>
</g>
<g>
</g>
<g>
</g>
<g>
</g>
<g>
</g>
<g>
</g>
<g>
</g>
</svg>
