<svg width="121" height="32" viewBox="0 0 121 32" fill="none" xmlns="http://www.w3.org/2000/svg">
<path d="M66.72 25H71.112V19L78 7.96H73.32L69.456 14.536C69.168 14.992 69.048 15.328 68.976 15.64H68.928C68.856 15.328 68.712 14.992 68.448 14.536L64.632 7.96H59.856L66.72 19V25ZM82.2413 25.36C86.6333 25.36 89.7293 23.032 89.7293 18.976C89.7293 14.944 86.6333 12.64 82.2413 12.64C77.8253 12.64 74.7293 14.944 74.7293 18.976C74.7293 23.032 77.8253 25.36 82.2413 25.36ZM82.2413 22.6C80.2253 22.6 78.9533 21.304 78.9533 18.976C78.9533 16.648 80.2253 15.4 82.2413 15.4C84.2333 15.4 85.5053 16.648 85.5053 18.976C85.5053 21.304 84.2333 22.6 82.2413 22.6ZM104.988 13.624V10.936C104.724 10.888 104.484 10.888 104.22 10.888C102.276 10.888 100.98 11.704 100.572 13.12C99.588 12.808 98.412 12.64 97.044 12.64C92.94 12.64 90.492 14.176 90.492 16.696C90.492 18.088 91.26 19.216 92.628 19.936C91.044 20.416 90.108 21.376 90.108 22.744C90.108 23.776 90.732 24.568 91.86 25C90.444 25.408 89.748 26.152 89.748 27.16C89.748 28.96 91.956 30.04 96.66 30.04C102.228 30.04 104.892 28.504 104.892 25.6C104.892 23.272 103.356 22.072 100.164 22.072L95.004 22.048C93.9 22.048 93.42 21.712 93.42 21.136C93.42 20.824 93.588 20.608 93.9 20.44C94.788 20.704 95.844 20.848 97.044 20.848C101.124 20.848 103.596 19.216 103.596 16.696C103.596 15.544 103.068 14.584 102.108 13.888C102.492 13.624 103.044 13.504 103.74 13.504C104.196 13.504 104.58 13.552 104.988 13.624ZM97.044 18.784C95.508 18.784 94.548 17.968 94.548 16.696C94.548 15.448 95.484 14.704 97.044 14.704C98.604 14.704 99.54 15.448 99.54 16.72C99.54 17.968 98.58 18.784 97.044 18.784ZM99.708 25.384C100.86 25.384 101.388 25.744 101.388 26.488C101.388 27.472 100.26 27.952 96.924 27.952C94.26 27.952 92.844 27.52 92.844 26.392C92.844 25.984 92.988 25.624 93.324 25.336C93.588 25.336 93.852 25.36 94.116 25.36L99.708 25.384ZM109.385 25.36C111.881 25.36 113.753 24.472 114.521 22.96C114.521 23.68 114.569 24.424 114.689 25H118.793C118.601 24.16 118.505 23.008 118.505 21.496V17.8C118.505 14.296 116.441 12.64 111.857 12.64C107.849 12.64 105.161 14.296 104.849 17.008H109.121C109.265 15.832 110.249 15.184 111.857 15.184C113.441 15.184 114.329 15.832 114.329 17.176V17.536L109.985 17.92C107.873 18.136 106.673 18.496 105.833 19.072C104.945 19.672 104.489 20.584 104.489 21.712C104.489 23.968 106.361 25.36 109.385 25.36ZM110.969 22.864C109.577 22.864 108.737 22.312 108.737 21.424C108.737 20.512 109.433 20.032 111.185 19.816L114.401 19.48V20.2C114.401 21.808 113.009 22.864 110.969 22.864Z" fill="#F78D82"/>
<path opacity="0.3" d="M15.0563 15.018L0.00834833 12.978C-0.538066 33.0314 23.7476 32.0595 26.213 31.9088L15.0563 15.018Z" fill="#F46152"/>
<path opacity="0.3" d="M37.3184 15.0183L52.3663 12.98C52.9127 33.0334 28.6271 32.0598 26.1616 31.9091L37.3184 15.0183Z" fill="#F46152"/>
<path opacity="0.3" d="M31.8494 0C31.8494 0 45.5511 23.3501 26.2693 32L15.0894 15.0777L31.8494 0Z" fill="#F46152"/>
<path opacity="0.3" d="M20.4741 0C20.4741 0 6.77236 23.3501 26.0542 32L37.2341 15.0777L20.4741 0Z" fill="#F46152"/>
<path opacity="0.3" d="M26.1218 31.9967C26.1218 31.9967 0.00155279 25.2443 7.42451 5.45752L26.1218 12.2927V31.9967Z" fill="#F46152"/>
<path opacity="0.3" d="M26.1218 31.9967C26.1218 31.9967 52.2421 25.2443 44.8191 5.45752L26.1218 12.2927V31.9967Z" fill="#F46152"/>
</svg>
