<svg width="33" height="20" viewBox="0 0 33 20" fill="none" xmlns="http://www.w3.org/2000/svg">
<path opacity="0.3" d="M9.41062 9.38629L0.00567547 8.11133C-0.335833 20.6447 14.8427 20.0372 16.3836 19.9431L9.41062 9.38629Z" fill="#F46152"/>
<path opacity="0.3" d="M23.3246 9.38624L32.7295 8.1123C33.071 20.6457 17.8925 20.0372 16.3516 19.943L23.3246 9.38624Z" fill="#F46152"/>
<path opacity="0.3" d="M19.9064 0C19.9064 0 28.47 14.5938 16.4189 20L9.4314 9.42357L19.9064 0Z" fill="#F46152"/>
<path opacity="0.3" d="M12.7968 0C12.7968 0 4.23318 14.5938 16.2843 20L23.2718 9.42357L12.7968 0Z" fill="#F46152"/>
<path opacity="0.3" d="M16.3267 19.9981C16.3267 19.9981 0.00158095 15.7779 4.64093 3.41113L16.3267 7.6831V19.9981Z" fill="#F46152"/>
<path opacity="0.3" d="M16.3267 19.9981C16.3267 19.9981 32.6518 15.7779 28.0125 3.41113L16.3267 7.6831V19.9981Z" fill="#F46152"/>
</svg>
