<?xml version="1.0" encoding="iso-8859-1"?>
<svg version="1.1" id="Capa_1"
	xmlns="http://www.w3.org/2000/svg"
	xmlns:xlink="http://www.w3.org/1999/xlink" x="0px" y="0px"
	 viewBox="0 0 512 512" style="enable-background:new 0 0 512 512;" xml:space="preserve">
	<g>
		<g>
			<path d="M501.818,90.997c-1.876-4.733-6.008-8.204-10.993-9.234c-4.992-1.032-10.157,0.516-13.756,4.116l-77.994,77.994
				l-41.932-9.016l-9.015-41.932l77.994-77.995c3.6-3.6,5.146-8.77,4.116-13.755c-1.031-4.986-4.502-9.117-9.234-10.995
				c-53.547-21.234-114.462-8.644-155.187,32.078c-19.604,19.604-33.066,44.226-38.93,71.206
				c-5.016,23.082-4.312,46.931,1.991,69.544L20.734,391.153C7.363,404.523,0,422.3,0,441.209c0,18.909,7.363,36.686,20.735,50.057
				C34.105,504.637,51.882,512,70.791,512c18.908,0,36.686-7.363,50.056-20.734l208.145-208.144
				c22.613,6.303,46.461,7.007,69.543,1.99c26.98-5.864,51.603-19.327,71.207-38.93C510.463,205.459,523.053,144.546,501.818,90.997z
				M448.354,224.796c-30.845,30.845-77.377,41.402-118.55,26.89c-5.49-1.934-11.602-0.546-15.719,3.57L99.46,469.88
				c-7.658,7.659-17.841,11.877-28.671,11.877c-10.831,0-21.012-4.218-28.671-11.877c-7.658-7.659-11.876-17.841-11.876-28.671
				c0-10.83,4.218-21.012,11.877-28.671l214.624-214.624c4.116-4.116,5.504-10.229,3.57-15.719
				c-14.511-41.171-3.956-87.705,26.889-118.55c21.8-21.8,50.919-33.398,80.596-33.398c6.226,0,12.479,0.51,18.69,1.545l-65.57,65.57
				c-3.63,3.629-5.171,8.852-4.092,13.871l12.799,59.533c1.251,5.814,5.792,10.355,11.605,11.605l59.534,12.8
				c5.022,1.079,10.241-0.462,13.872-4.092l65.569-65.57C486.17,161.332,474.726,198.423,448.354,224.796z"/>
		</g>
	</g>
</svg>
