<svg width="159" height="32" viewBox="0 0 159 32" fill="none" xmlns="http://www.w3.org/2000/svg">
<path opacity="0.3" d="M15.056 15.0182L0.00810419 12.9783C-0.53831 33.0317 23.7473 32.0597 26.2128 31.909L15.056 15.0182Z" fill="#F46152"/>
<path opacity="0.3" d="M37.3179 15.0183L52.3658 12.98C52.9122 33.0334 28.6266 32.0598 26.1611 31.9091L37.3179 15.0183Z" fill="#F46152"/>
<path opacity="0.3" d="M31.8489 0C31.8489 0 45.5506 23.3501 26.2688 32L15.0889 15.0777L31.8489 0Z" fill="#F46152"/>
<path opacity="0.3" d="M20.4739 0C20.4739 0 6.77211 23.3501 26.0539 32L37.2339 15.0777L20.4739 0Z" fill="#F46152"/>
<path opacity="0.3" d="M26.1218 31.9967C26.1218 31.9967 0.00155279 25.2443 7.42451 5.45752L26.1218 12.2927V31.9967Z" fill="#F46152"/>
<path opacity="0.3" d="M26.1221 31.9967C26.1221 31.9967 52.2423 25.2443 44.8194 5.45752L26.1221 12.2927V31.9967Z" fill="#F46152"/>
<path d="M77.1141 22H78.2799V16.6857L82.737 9.74286H81.5027L77.7313 15.6743H77.697L73.9599 9.74286H72.6913L77.1141 16.6514V22ZM101.852 21.2114C98.9205 21.2114 97.3605 18.8286 97.3605 15.8629C97.3605 12.8971 98.9205 10.5143 101.852 10.5143C104.801 10.5143 106.378 12.8971 106.378 15.8629C106.378 18.8286 104.801 21.2114 101.852 21.2114ZM101.852 22.24C105.332 22.24 107.578 19.5143 107.578 15.8629C107.578 12.2114 105.332 9.48571 101.852 9.48571C98.3891 9.48571 96.1605 12.2114 96.1605 15.8629C96.1605 19.5143 98.3891 22.24 101.852 22.24ZM128.154 22.24C130.417 22.24 131.617 21.04 132.251 20.0457H132.302L132.542 22H133.348V15.7086H128.274V16.72H132.217V17.1486C132.217 19.2743 131 21.2286 128.171 21.2286C125.257 21.2286 123.731 18.8971 123.731 15.88C123.731 12.9143 125.171 10.4971 128.325 10.4971C130.194 10.4971 131.6 11.4571 131.977 13.2914H133.16C132.714 10.8057 130.845 9.50286 128.325 9.50286C124.605 9.50286 122.531 12.2629 122.531 15.88C122.531 19.5486 124.571 22.24 128.154 22.24ZM148.137 22H149.303L150.743 18.1429H156.074L157.497 22H158.731L154.068 9.74286H152.766L148.137 22ZM151.086 17.2L152.8 12.6229C153.074 11.8857 153.4 10.84 153.4 10.84H153.434C153.434 10.84 153.794 11.9371 154.051 12.6229L155.731 17.2H151.086Z" fill="black"/>
</svg>
